<?xml version="1.0" encoding="utf-8"?>
<!-- Generator: Adobe Illustrator 24.0.1, SVG Export Plug-In . SVG Version: 6.00 Build 0)  -->
<svg version="1.1" xmlns="http://www.w3.org/2000/svg" xmlns:xlink="http://www.w3.org/1999/xlink" x="0px" y="0px"
	 viewBox="0 0 500 500" style="enable-background:new 0 0 500 500;" xml:space="preserve">
<style type="text/css">
	.st0{fill:#F5F5F5;}
	.st1{fill:#E0E0E0;}
	.st2{fill:#EBEBEB;}
	.st3{fill:#FAFAFA;}
	.st4{fill:#FFFFFF;}
	.st5{fill:#B78876;}
	.st6{fill:#AA6550;}
	.st7{fill:#E8505B;fill: var(--primary-color);}
	.st8{fill:#263238;}
	.st9{opacity:0.3;}
	.st10{fill:#455A64;}
</style>
<g id="Background_Complete">
	<g>
		<g>
			<g>
				<g>
					<path class="st0" d="M92.94,417.62c1.39-5.51-2.25-11.01-6.32-14.98c-4.07-3.97-8.92-7.52-11.06-12.78
						c-3.46-8.53,1.06-19.63-4.79-26.73c-3.45-4.18-9.59-5.55-12.65-10.01c-1.61-2.34-2.14-5.23-2.78-8
						C52.07,331,44.92,317.8,34.89,307.35c-0.62,12.59,2.23,25.33,8.15,36.46c2.38,4.47,5.3,8.83,6.11,13.83
						c1.31,8.12-3.18,16.52-1.13,24.49c2.34,9.12,12.62,15.17,13.16,24.56c0.46,7.94-6.43,14.95-5.87,22.89
						c0.24,3.38,1.83,6.51,3.59,9.4c6.2,10.18,15.26,17.16,28.94,16.85l16.76,0.49L92.94,417.62z"/>
				</g>
			</g>
		</g>
		<g>
			<g>
				<g>
					<g>
						<g>
							<g>
								<path class="st1" d="M107.98,456.75c0,0,1.6,0.36,4.61-0.13c1.5-0.23,3.35-0.64,5.44-1.4c2.08-0.77,4.44-1.87,6.7-3.72
									c1.08-0.96,2.17-2.14,2.74-3.7c0.57-1.55,0.66-3.26,0.76-5.01c0.08-1.75,0.07-3.58,0.36-5.42c0.27-1.85,0.99-3.66,2.02-5.4
									c1.96-3.48,5.22-6.78,6.25-11.5c1.12-4.64,0.27-9.65-0.54-14.68c-0.81-5.02-1.59-10.49,0.3-15.74
									c1.77-5.25,5.41-10,7.22-15.92c1.8-5.98,0.91-12.39,1.26-18.72c0.16-3.18,0.75-6.36,2.13-9.31c1.34-2.97,3.2-5.78,4.65-8.91
									c2.94-6.33,3.42-13.48,4.2-20.5c0.38-3.53,0.76-7.11,1.14-10.71c0.38-3.62,0.68-7.23,1.8-10.72
									c1.01-3.52,2.49-6.92,3.95-10.39c0.71-1.74,1.47-3.49,1.91-5.43c0.32-1.98,0.4-3.83,0.51-5.76
									c0.17-3.84-0.01-7.73-0.51-11.59c-0.48-3.86-1.2-7.69-1.63-11.56c-0.03-0.23-0.05-0.46-0.08-0.67l-0.09-0.77l-0.68,0.35
									c-3.58,1.82-6.63,4.51-8.98,7.66c-2.38,3.13-4.11,6.66-5.48,10.24c-2.76,7.21-3.72,14.76-5.09,21.97
									c-1.34,7.21-3.11,14.3-6.77,20.3c-1.82,2.99-4.02,5.73-5.95,8.65c-1.92,2.9-3.61,6.08-4.1,9.57
									c-0.95,7.09,2.99,13.29,2.21,19.57c-0.27,3.12-1.5,6.04-3.01,8.71c-1.51,2.69-3.28,5.18-4.96,7.68
									c-1.68,2.5-3.28,5.04-4.45,7.75c-1.19,2.7-1.84,5.59-2.01,8.41c-0.38,5.65,0.46,11.01,0.07,16.07
									c-0.31,5.07-2.06,9.67-4.06,13.79c-2,4.13-4.24,7.87-6.1,11.5c-0.94,1.81-1.81,3.58-2.51,5.35
									c-0.75,1.77-1.11,3.58-1.44,5.3c-0.53,3.48-0.46,6.71-0.07,9.56c0.76,5.73,2.92,9.85,4.86,12.17
									c0.44,0.62,0.96,1.05,1.36,1.46c0.39,0.42,0.79,0.71,1.1,0.93C107.65,456.54,107.98,456.75,107.98,456.75
									c0.07-0.09-1.38-0.85-3.26-3.19c-1.86-2.32-3.93-6.41-4.62-12.09c-0.35-2.82-0.39-6.01,0.16-9.42
									c0.34-1.69,0.71-3.46,1.45-5.18c0.7-1.73,1.58-3.49,2.53-5.28c1.88-3.59,4.14-7.32,6.19-11.48
									c2.03-4.14,3.85-8.83,4.2-14.04c0.41-5.17-0.4-10.54,0-16.06c0.18-2.76,0.81-5.51,1.97-8.13c1.15-2.62,2.72-5.11,4.4-7.6
									c1.68-2.49,3.48-4.99,5.02-7.73c1.55-2.72,2.85-5.77,3.15-9.07c0.77-6.69-3.14-12.93-2.17-19.53
									c0.47-3.26,2.07-6.31,3.96-9.16c1.9-2.87,4.11-5.61,5.99-8.68c3.77-6.18,5.58-13.4,6.93-20.64
									c1.38-7.25,2.35-14.72,5.06-21.78c1.35-3.51,3.04-6.95,5.34-9.97c2.26-3.05,5.19-5.61,8.6-7.35l-0.77-0.42
									c0.03,0.21,0.05,0.44,0.08,0.68c0.44,3.92,1.16,7.75,1.64,11.57c0.49,3.82,0.67,7.63,0.51,11.42
									c-0.1,1.87-0.2,3.83-0.48,5.59c-0.4,1.76-1.14,3.51-1.85,5.23c-1.45,3.46-2.95,6.91-3.98,10.51
									c-1.14,3.58-1.46,7.32-1.82,10.9c-0.38,3.61-0.76,7.18-1.13,10.72c-0.76,7.04-1.25,14.08-4.07,20.19
									c-1.4,3.04-3.26,5.86-4.64,8.93c-1.42,3.06-2.04,6.43-2.19,9.66c-0.33,6.47,0.55,12.78-1.17,18.52
									c-1.7,5.71-5.33,10.49-7.15,15.9c-1.95,5.47-1.09,11.13-0.27,16.13c0.84,5.04,1.68,9.94,0.62,14.4
									c-0.94,4.51-4.11,7.78-6.1,11.36c-1.04,1.78-1.78,3.7-2.05,5.61c-0.28,1.91-0.26,3.75-0.32,5.49
									c-0.08,1.73-0.17,3.42-0.69,4.87c-0.52,1.45-1.54,2.6-2.58,3.54c-2.18,1.82-4.5,2.94-6.54,3.74
									c-2.06,0.79-3.88,1.23-5.36,1.49c-1.48,0.28-2.63,0.32-3.41,0.35C108.38,456.74,107.98,456.75,107.98,456.75z"/>
							</g>
						</g>
					</g>
				</g>
				<g>
					<g>
						<g>
							<g>
								<path class="st1" d="M159.8,259.09c-0.02,0-0.07,0.17-0.16,0.51c-0.1,0.4-0.21,0.9-0.36,1.51c-0.32,1.32-0.7,3.32-1.32,5.81
									c-0.64,2.48-2.15,5.3-3.43,8.77c-1.33,3.44-2.68,7.43-3.91,11.91c-1.25,4.47-2.36,9.44-3.51,14.76
									c-1.19,5.31-2.38,11.01-5.27,16.39c-1.36,2.73-2.89,5.49-4.1,8.51c-1.24,3.02-1.9,6.32-2.36,9.63
									c-0.77,6.64-1.95,13.39-3.5,20.29c-3.28,13.75-6.41,26.84-9.25,38.76c-2.92,11.88-5.54,22.59-7.76,31.62
									c-2.15,8.94-3.91,16.21-5.14,21.34c-0.57,2.46-1.02,4.4-1.34,5.81c-0.13,0.62-0.24,1.11-0.32,1.52
									c-0.07,0.34-0.09,0.52-0.07,0.53c0.02,0,0.08-0.16,0.18-0.5c0.11-0.4,0.25-0.89,0.43-1.49c0.37-1.4,0.89-3.33,1.54-5.77
									c1.31-5.11,3.18-12.34,5.47-21.25c2.28-9.01,4.98-19.7,7.98-31.56c2.87-11.93,6.03-25.02,9.34-38.77
									c1.55-6.89,2.74-13.76,3.49-20.37c0.45-3.29,1.08-6.46,2.27-9.39c1.17-2.94,2.67-5.69,4.03-8.45
									c2.92-5.48,4.11-11.35,5.25-16.64c1.12-5.34,2.17-10.29,3.37-14.75c1.18-4.47,2.47-8.45,3.74-11.89
									c1.21-3.46,2.67-6.31,3.27-8.87c0.57-2.55,0.87-4.53,1.13-5.87c0.1-0.62,0.19-1.12,0.26-1.53
									C159.8,259.27,159.81,259.1,159.8,259.09z"/>
							</g>
						</g>
					</g>
				</g>
			</g>
			<g>
				<g>
					<g>
						<g>
							<path class="st1" d="M110.94,456.79c10.9-6.57,13.93-26.33,9.3-38.18c-4.63-11.86-12.68-22.67-13.99-35.33
								c-1-9.73,2.13-19.75-0.19-29.25c-3.13-12.83-15.73-22.71-15.66-35.91c0.04-7.41,4.21-14.41,3.84-21.81
								c-0.46-9.08-7.47-16.24-11.83-24.21c-6.68-12.2-7.19-26.68-9.53-40.39c-2.34-13.71-7.65-28.38-19.86-35.06
								c-1.73,11.66-4.75,19.66-3.7,35.45c0.38,5.67,7.03,16.49,7.99,28.91c0.58,7.42,0.99,14.86,1.49,22.29
								c0.48,7.23,0.99,14.59,3.62,21.34c2.02,5.17,5.24,9.87,6.74,15.21c2.83,10.06-0.75,20.99,1.55,31.18
								c1.95,8.63,7.97,16.04,9.25,24.8c1.79,12.31-6.11,25.15-1.96,36.88c2.06,5.82,6.88,10.47,8.27,16.48
								c1.08,4.66-0.04,9.62,0.94,14.3c1.58,7.55,16.04,13.34,23.73,12.83"/>
						</g>
					</g>
				</g>
				<g>
					<g>
						<g>
							<g>
								<path class="st2" d="M56.1,208.18c-0.02,0,0,0.23,0.05,0.66c0.07,0.49,0.15,1.12,0.26,1.91c0.26,1.68,0.56,4.15,1.14,7.34
									c0.63,3.21,2.31,6.82,3.65,11.17c1.42,4.34,2.84,9.35,4.1,14.96c1.28,5.61,2.36,11.81,3.5,18.5
									c1.17,6.63,2.37,13.96,5.73,20.9c1.55,3.49,3.3,6.98,4.61,10.7c1.35,3.71,1.98,7.7,2.38,11.81
									c0.61,8.25,1.76,16.83,3.35,25.47c3.45,17.25,6.74,33.68,9.73,48.63c3.15,14.89,5.98,28.31,8.37,39.61
									c2.41,11.21,4.36,20.31,5.73,26.68c0.69,3.09,1.23,5.52,1.61,7.24c0.18,0.78,0.33,1.4,0.45,1.88
									c0.11,0.42,0.17,0.64,0.19,0.63c0.02,0-0.01-0.23-0.08-0.65c-0.09-0.49-0.2-1.11-0.34-1.9c-0.34-1.74-0.81-4.18-1.41-7.28
									c-1.29-6.39-3.13-15.51-5.4-26.75c-2.32-11.31-5.08-24.74-8.14-39.65c-2.96-14.95-6.22-31.37-9.64-48.62
									c-1.59-8.65-2.73-17.1-3.36-25.39c-0.41-4.13-1.06-8.25-2.46-12.05c-1.35-3.8-3.12-7.31-4.67-10.77
									c-3.34-6.84-4.54-14-5.75-20.65c-1.17-6.67-2.3-12.89-3.63-18.51c-1.31-5.62-2.79-10.64-4.27-14.98
									c-1.42-4.37-3.14-7.95-3.82-11.07c-0.64-3.13-1.01-5.63-1.34-7.29c-0.15-0.79-0.27-1.41-0.36-1.9
									C56.17,208.39,56.12,208.18,56.1,208.18z"/>
							</g>
						</g>
					</g>
				</g>
			</g>
		</g>
	</g>
	<g>
		<g>
			<g>
				<g>
					<g>
						<g>
							<g>
								<g>
									<g>
										<rect x="99.8" y="51.82" class="st1" width="113.52" height="118.33"/>
									</g>
								</g>
							</g>
						</g>
					</g>
				</g>
			</g>
		</g>
		<g>
			<g>
				<g>
					<g>
						<g>
							<g>
								<g>
									<g>
										<rect x="92.11" y="51.82" class="st3" width="113.52" height="118.33"/>
									</g>
								</g>
							</g>
						</g>
					</g>
				</g>
			</g>
			<g>
				<g>
					<g>
						<g>
							<g>
								<g>
									<g>
										<path class="st1" d="M205.66,170.19H92.08V51.79h113.59V170.19z M92.15,170.12h113.45V51.86H92.15V170.12z"/>
									</g>
								</g>
							</g>
						</g>
					</g>
				</g>
			</g>
		</g>
		<g>
			<g>
				<g>
					<g>
						<g>
							<g>
								<g>
									<g>
										<rect x="107.37" y="67.73" class="st3" width="83" height="86.52"/>
									</g>
								</g>
							</g>
						</g>
					</g>
				</g>
			</g>
		</g>
		<g>
			<g>
				<g>
					<g>
						<g>
							<g>
								<g>
									<g>
										<g>
											<path class="st1" d="M107.37,154.82c0.07,0.08-0.72,0.98-2.05,2.38c-1.33,1.4-3.19,3.29-5.28,5.35
												c-2.09,2.06-4.01,3.89-5.42,5.19c-1.42,1.3-2.33,2.07-2.4,2c-0.07-0.07,0.71-0.97,2.04-2.37c1.33-1.4,3.19-3.3,5.29-5.36
												c2.09-2.06,4.02-3.9,5.43-5.2C106.4,155.51,107.31,154.75,107.37,154.82z"/>
										</g>
									</g>
								</g>
							</g>
						</g>
					</g>
				</g>
			</g>
		</g>
		<g>
			<g>
				<g>
					<g>
						<g>
							<g>
								<g>
									<g>
										<g>
											<path class="st1" d="M190.37,154.61c0.08-0.07,0.98,0.72,2.38,2.05c1.4,1.33,3.29,3.19,5.35,5.28
												c2.06,2.09,3.89,4.01,5.19,5.42c1.3,1.42,2.07,2.33,2,2.4c-0.07,0.07-0.97-0.71-2.37-2.04c-1.4-1.33-3.3-3.19-5.36-5.29
												c-2.06-2.09-3.9-4.02-5.2-5.43C191.06,155.58,190.29,154.68,190.37,154.61z"/>
										</g>
									</g>
								</g>
							</g>
						</g>
					</g>
				</g>
			</g>
		</g>
		<g>
			<g>
				<g>
					<g>
						<g>
							<g>
								<g>
									<g>
										<g>
											<path class="st1" d="M190.14,67.96c-0.07-0.08,0.72-0.98,2.05-2.38c1.33-1.4,3.19-3.29,5.28-5.35
												c2.09-2.06,4.01-3.89,5.42-5.19c1.42-1.3,2.33-2.07,2.4-2c0.07,0.07-0.71,0.97-2.04,2.37c-1.33,1.4-3.19,3.3-5.29,5.36
												c-2.09,2.06-4.02,3.9-5.43,5.2C191.11,67.27,190.21,68.04,190.14,67.96z"/>
										</g>
									</g>
								</g>
							</g>
						</g>
					</g>
				</g>
			</g>
		</g>
		<g>
			<g>
				<g>
					<g>
						<g>
							<g>
								<g>
									<g>
										<g>
											<path class="st1" d="M107.14,68.17c-0.08,0.07-0.98-0.72-2.38-2.05c-1.4-1.33-3.29-3.19-5.35-5.28
												c-2.06-2.09-3.89-4.01-5.19-5.42c-1.3-1.42-2.07-2.33-2-2.4c0.07-0.07,0.97,0.71,2.37,2.04c1.4,1.33,3.3,3.19,5.36,5.29
												c2.06,2.09,3.9,4.02,5.2,5.43C106.46,67.2,107.22,68.11,107.14,68.17z"/>
										</g>
									</g>
								</g>
							</g>
						</g>
					</g>
				</g>
			</g>
		</g>
		<g>
			<g>
				<g>
					<g>
						<g>
							<g>
								<g>
									<g>
										<g>
											<path class="st1" d="M190.14,154.25c-0.01-0.01-0.01-0.15-0.02-0.42c0-0.3-0.01-0.69-0.02-1.21
												c-0.01-1.08-0.02-2.64-0.04-4.67c-0.02-4.1-0.05-10.06-0.08-17.63c-0.04-15.15-0.1-36.74-0.16-62.59l0.32,0.32
												c-24.16,0.01-52.54,0.03-82.76,0.05h-0.01l0.37-0.37c-0.02,31.76-0.04,61.46-0.05,86.52l-0.32-0.31
												c24.8,0.07,45.45,0.12,59.93,0.16c7.23,0.04,12.92,0.06,16.83,0.08c1.93,0.02,3.42,0.03,4.45,0.04
												c0.49,0.01,0.87,0.01,1.15,0.02C190,154.24,190.14,154.24,190.14,154.25c0.01,0.01-0.12,0.01-0.37,0.02
												c-0.27,0-0.64,0.01-1.12,0.02c-1.02,0.01-2.49,0.02-4.39,0.04c-3.89,0.02-9.56,0.05-16.76,0.08
												c-14.53,0.04-35.25,0.09-60.13,0.16l-0.32,0l0-0.32c-0.02-25.05-0.03-54.76-0.05-86.52l0-0.37h0.37h0.01
												c30.23,0.02,58.6,0.03,82.76,0.05h0.32l0,0.32c-0.07,25.93-0.12,47.59-0.16,62.79c-0.04,7.54-0.06,13.48-0.08,17.56
												c-0.02,2-0.03,3.54-0.04,4.61c-0.01,0.5-0.01,0.89-0.02,1.17C190.15,154.12,190.15,154.25,190.14,154.25z"/>
										</g>
									</g>
								</g>
							</g>
						</g>
					</g>
				</g>
			</g>
		</g>
		<g>
			<g>
				<g>
					<g>
						<g>
							<g>
								<g>
									<g>
										<rect x="135.02" y="97.14" class="st2" width="27.7" height="27.69"/>
									</g>
								</g>
							</g>
						</g>
					</g>
				</g>
			</g>
		</g>
	</g>
	<g>
		<g>
			<polygon class="st1" points="421.43,109.56 421.43,212.81 273.14,212.81 267.8,110.29 			"/>
		</g>
		<g>
			
				<rect x="290.79" y="87.29" transform="matrix(6.123234e-17 -1 1 6.123234e-17 180.5024 503.3813)" class="st4" width="102.31" height="148.29"/>
			<path class="st1" d="M416.79,213.3h-149.7V109.58h149.7V213.3z M268.5,211.89h146.88v-100.9H268.5V211.89z"/>
		</g>
		<g>
			<g>
				<rect x="283.86" y="123" class="st4" width="116.17" height="76.89"/>
			</g>
			<g>
				<g>
					<path class="st1" d="M400.03,123c0,0-0.2,0.01-0.57,0.02c-0.39,0-0.94,0.01-1.65,0.02c-1.47,0.01-3.61,0.02-6.38,0.04
						c-5.58,0.02-13.69,0.05-23.94,0.09c-20.49,0.04-49.48,0.1-83.63,0.17l0.34-0.34c0.01,23.49,0.02,49.52,0.03,76.88v0.01
						l-0.37-0.37c43.82,0.03,84.23,0.05,116.17,0.07l-0.29,0.29c0.06-23.4,0.12-42.58,0.15-55.94c0.03-6.68,0.06-11.89,0.07-15.47
						c0.01-1.77,0.03-3.12,0.03-4.06C400.01,123.49,400.03,123,400.03,123s0.02,0.45,0.03,1.35c0.01,0.93,0.02,2.27,0.03,4.01
						c0.02,3.56,0.04,8.76,0.07,15.4c0.04,13.4,0.09,32.65,0.15,56.12l0,0.29l-0.29,0c-31.94,0.02-72.35,0.05-116.17,0.07l-0.37,0
						v-0.37v-0.01c0.01-27.36,0.02-53.39,0.03-76.88l0-0.34l0.34,0c34.23,0.07,63.31,0.12,83.85,0.17
						c10.21,0.04,18.3,0.07,23.86,0.09c2.74,0.02,4.86,0.03,6.31,0.04c0.7,0.01,1.23,0.02,1.61,0.02
						C399.85,122.98,400.03,123,400.03,123z"/>
				</g>
			</g>
		</g>
		<g>
			<g>
				<path class="st1" d="M267.8,110c0.06-0.08,1.03,0.56,2.55,1.65c1.52,1.1,3.58,2.65,5.81,4.43c2.23,1.79,4.19,3.47,5.57,4.74
					c1.38,1.27,2.19,2.1,2.12,2.17c-0.14,0.16-3.7-2.78-8.16-6.34C271.24,113.1,267.67,110.17,267.8,110z"/>
			</g>
		</g>
		<g>
			<g>
				<path class="st1" d="M416.09,110.29c0.13,0.16-3.37,3.13-7.8,6.64c-4.44,3.51-8.13,6.23-8.26,6.07
					c-0.13-0.16,3.37-3.13,7.8-6.64C412.26,112.84,415.96,110.13,416.09,110.29z"/>
			</g>
		</g>
		<g>
			<g>
				<path class="st4" d="M415.97,212.61c-5.51-4.47-11.02-8.93-16.53-13.4"/>
			</g>
			<g>
				<g>
					<path class="st1" d="M399.44,199.21c0.13-0.16,3.93,2.72,8.5,6.42c4.57,3.7,8.16,6.83,8.04,6.99c-0.13,0.16-3.93-2.71-8.5-6.42
						C402.91,202.49,399.31,199.36,399.44,199.21z"/>
				</g>
			</g>
		</g>
		<g>
			<g>
				<path class="st1" d="M267.8,212.59c-0.13-0.16,3.33-3.1,7.72-6.57c4.39-3.47,8.05-6.16,8.18-6c0.13,0.16-3.33,3.1-7.72,6.57
					C271.58,210.07,267.92,212.75,267.8,212.59z"/>
			</g>
		</g>
		<g>
			
				<rect x="331.12" y="123.28" transform="matrix(6.123234e-17 -1 1 6.123234e-17 184.1691 503.8153)" class="st1" width="25.74" height="73.1"/>
		</g>
	</g>
</g>
<g id="Character">
	<g>
		<g>
			<g>
				<path class="st5" d="M409.92,253.39l12.38-14.98c0,0,3.11-20.31,2.68-23.18c-0.36-2.4-2.38-8.31-3.42-11.26
					c-0.37-1.04,0.3-2.15,1.38-2.32c2.25-0.37,5.93,0.02,8.79,5.43c2.62,4.98,4,11.73,4.66,16.12c0.35,2.3,2.66,3.75,4.88,3.06
					c5.64-1.76,13.69-3.77,17.38-4.21c3.39-0.4,7.21,2.83,7.95,5.25c0.56,1.82-2.29,5.31-2.29,5.31s2.95,1.16,4.03,3.24
					c0.14,0.27,0.26,0.54,0.38,0.8c0.73,1.73,0.48,3.71-0.64,5.22l-0.78,1.05c0,0,3.6,0.61,4.23,2.57c0.63,1.96,0.32,4.44,0.32,4.44
					l-2.95,3.73c0,0,1.67,1.21,2.03,3.04c0.35,1.83-4.12,6.9-4.12,6.9l-22.72,8.62l-7.96,7.63L409.92,253.39z"/>
			</g>
			<g>
				<path class="st6" d="M466.28,233.15c0.01,0.02-0.16,0.11-0.48,0.28c-0.37,0.19-0.84,0.43-1.41,0.71
					c-1.3,0.63-3.06,1.49-5.21,2.54c-2.23,1.06-4.85,2.32-7.76,3.7c-1.47,0.67-2.96,1.48-4.66,2.08c-1.66,0.58-3.79,0.77-5.46-0.42
					c-0.82-0.59-1.34-1.51-1.55-2.44c-0.21-0.94-0.14-1.9,0.1-2.78c0.48-1.8,1.78-3.14,3.08-4.12c1.33-0.98,2.71-1.68,3.98-2.35
					c1.27-0.67,2.45-1.29,3.54-1.87c2.12-1.1,3.86-2.01,5.14-2.67c0.57-0.28,1.04-0.52,1.41-0.7c0.33-0.16,0.5-0.23,0.51-0.21
					c0.01,0.02-0.15,0.12-0.46,0.31c-0.36,0.21-0.81,0.47-1.36,0.79c-1.26,0.7-2.97,1.66-5.06,2.82c-1.08,0.59-2.25,1.24-3.51,1.92
					c-1.26,0.69-2.62,1.4-3.9,2.36c-1.25,0.95-2.45,2.22-2.88,3.87c-0.46,1.59-0.18,3.61,1.26,4.66c0.71,0.51,1.58,0.75,2.45,0.77
					c0.87,0.03,1.73-0.15,2.54-0.42c1.62-0.57,3.14-1.38,4.62-2.03c2.92-1.35,5.56-2.57,7.8-3.6c2.18-0.98,3.97-1.79,5.28-2.39
					c0.58-0.25,1.06-0.46,1.45-0.62C466.09,233.2,466.27,233.13,466.28,233.15z"/>
			</g>
			<g>
				<path class="st6" d="M468.75,243.51c0.01,0.03-0.37,0.24-1.09,0.58c-0.72,0.34-1.76,0.81-3.06,1.36
					c-2.61,1.11-6.25,2.54-10.34,3.93c-1.02,0.34-2.02,0.7-3.05,0.92c-1.02,0.21-2.08,0.25-3.03-0.06c-1.91-0.64-3-2.36-3.13-3.82
					c-0.14-1.49,0.46-2.62,0.95-3.24c0.25-0.32,0.5-0.52,0.66-0.65c0.17-0.12,0.27-0.18,0.28-0.16c0.03,0.04-0.34,0.29-0.78,0.93
					c-0.42,0.63-0.92,1.72-0.75,3.08c0.16,1.32,1.2,2.86,2.91,3.41c0.85,0.26,1.81,0.23,2.78,0.02c0.97-0.21,1.96-0.57,2.98-0.91
					c4.08-1.38,7.74-2.75,10.37-3.77c1.24-0.48,2.29-0.88,3.12-1.21C468.32,243.62,468.73,243.48,468.75,243.51z"/>
			</g>
			<g>
				<path class="st6" d="M469.41,253.25c0.01,0.04-0.38,0.16-1.08,0.36c-0.82,0.22-1.82,0.48-3,0.8c-2.54,0.65-6.05,1.51-9.93,2.43
					c-0.97,0.22-1.92,0.48-2.88,0.59c-0.96,0.12-1.95,0.03-2.79-0.36c-0.84-0.37-1.51-1.08-1.73-1.89c-0.23-0.8-0.11-1.59,0.14-2.23
					c0.54-1.29,1.52-1.93,2.15-2.29c0.65-0.35,1.05-0.46,1.06-0.43c0.02,0.04-0.35,0.21-0.96,0.6c-0.58,0.4-1.47,1.06-1.91,2.25
					c-0.21,0.58-0.29,1.29-0.07,1.97c0.21,0.68,0.77,1.26,1.52,1.58c0.75,0.33,1.63,0.4,2.53,0.29c0.91-0.11,1.85-0.37,2.82-0.59
					c3.89-0.92,7.41-1.73,9.97-2.28c1.2-0.25,2.21-0.46,3.04-0.63C469,253.28,469.4,253.22,469.41,253.25z"/>
			</g>
			<g>
				<path class="st6" d="M469.06,262.09c0,0.07-1.28,0.13-3.36,0.16c-2.07,0.03-4.94,0.04-8.11,0.02c-0.79-0.01-1.56-0.01-2.31-0.02
					c-0.74-0.01-1.49-0.01-2.2-0.19c-0.7-0.17-1.34-0.55-1.75-1.08c-0.43-0.53-0.52-1.22-0.38-1.77c0.32-1.11,1.14-1.63,1.67-1.87
					c0.55-0.24,0.9-0.22,0.9-0.19c0.01,0.05-0.32,0.09-0.81,0.37c-0.47,0.27-1.18,0.83-1.4,1.77c-0.09,0.46,0,1,0.36,1.42
					c0.35,0.43,0.9,0.74,1.53,0.88c0.63,0.15,1.34,0.15,2.09,0.15c0.75,0,1.52,0.01,2.31,0.01c3.17,0.02,6.03,0.07,8.1,0.13
					C467.78,261.95,469.06,262.02,469.06,262.09z"/>
			</g>
			<g>
				<path class="st6" d="M448.19,253.46c-0.08,0.15-2.37-1.27-5.58-1.77c-3.2-0.54-5.83,0.09-5.85-0.08
					c-0.06-0.11,2.61-0.99,5.93-0.44C446.03,251.7,448.28,253.38,448.19,253.46z"/>
			</g>
		</g>
		<g>
			<g>
				<g>
					<path class="st7" d="M337.28,302.73l75.69-54.47l26.92,30.85l-59.26,61.08c-26.48,23.95-35.75,30.02-79.65,5.01l-27.86-15.96
						l10.29,127.07H157.39c-13.84-0.44,18-35.16,15.82-35.16l-27.63-93.31l-42.77,28.74l40.54,31.69l-14.99,34.71L59.09,390.9
						c-25.13-16.71-21.75-49.25-0.32-70.5c38.59-38.25,68.46-66.08,101.46-71.72c17.05-5.11,27.05-6,27.05-6
						c26.56-0.38,28.55-0.29,42.77,0.38c3.82,0.18,4.14,0.41,8.25,1.01c15.53,2.29,30.24,8.39,42.91,17.66L337.28,302.73z"/>
				</g>
				<g>
					<path class="st8" d="M339.1,328.2c-0.03,0.02-0.24-0.31-0.58-0.92c-0.35-0.61-0.78-1.52-1.24-2.69
						c-0.47-1.16-0.9-2.59-1.27-4.21c-0.34-1.62-0.6-3.43-0.68-5.34c-0.06-1.91,0.07-3.74,0.3-5.38c0.25-1.64,0.59-3.1,0.97-4.29
						c0.37-1.19,0.74-2.14,1.04-2.77c0.3-0.63,0.47-0.97,0.51-0.96c0.1,0.04-0.53,1.45-1.17,3.84c-0.33,1.19-0.62,2.63-0.84,4.25
						c-0.19,1.62-0.3,3.41-0.25,5.29c0.08,1.88,0.31,3.66,0.62,5.26c0.33,1.59,0.72,3.01,1.14,4.18
						C338.47,326.79,339.19,328.15,339.1,328.2z"/>
				</g>
				<path class="st7" d="M270.45,358.52c7.74-9.3,11.03-22.15,8.72-34.03c-2.32-11.88-10.19-22.55-20.86-28.27"/>
				<g>
					<path class="st8" d="M258.27,298.19c0.01-0.01,0.2,0.1,0.54,0.32c0.34,0.23,0.86,0.55,1.48,1.03c1.27,0.92,3.02,2.37,5,4.36
						c3.98,3.95,8.56,10.34,12.08,18.14c1.82,3.9,2.67,8.01,2.67,11.73c0.01,3.74-0.73,7.04-1.56,9.71
						c-0.82,2.69-1.76,4.76-2.4,6.18c-0.33,0.66-0.6,1.19-0.81,1.61c-0.19,0.37-0.3,0.55-0.31,0.55c-0.02-0.01,0.06-0.21,0.22-0.59
						c0.19-0.43,0.42-0.97,0.72-1.65c0.58-1.44,1.47-3.52,2.23-6.2c0.78-2.66,1.47-5.94,1.43-9.61c-0.02-3.66-0.87-7.67-2.66-11.52
						c-3.5-7.75-7.98-14.12-11.87-18.1c-1.93-2.01-3.63-3.49-4.86-4.45c-0.6-0.5-1.1-0.84-1.42-1.1
						C258.42,298.34,258.26,298.2,258.27,298.19z"/>
				</g>
				<g>
					<path class="st8" d="M230.31,334.07c0.02,0,0.02,0.15,0.01,0.43c-0.02,0.28-0.01,0.69-0.08,1.22c-0.1,1.06-0.35,2.58-0.88,4.42
						c-1.03,3.64-3.48,8.55-7.88,12.45c-4.4,3.89-9.58,5.72-13.32,6.3c-1.88,0.3-3.43,0.37-4.49,0.33c-0.53,0-0.94-0.05-1.22-0.07
						c-0.28-0.03-0.42-0.05-0.42-0.07c0-0.04,0.59-0.04,1.64-0.07c1.05-0.03,2.58-0.15,4.43-0.49c3.68-0.66,8.72-2.52,13.04-6.33
						c4.31-3.81,6.76-8.6,7.87-12.17c0.57-1.79,0.87-3.29,1.03-4.33C230.21,334.65,230.27,334.07,230.31,334.07z"/>
				</g>
				<g>
					<path class="st8" d="M180.86,381.25c0.02,0,0.06,0.19,0.14,0.56c0.08,0.43,0.17,0.97,0.29,1.63c0.13,0.71,0.27,1.58,0.35,2.6
						c0.09,1.02,0.25,2.18,0.27,3.47c0.02,0.65,0.05,1.32,0.07,2.02c0.02,0.7-0.02,1.43-0.03,2.19c0,1.52-0.17,3.13-0.31,4.83
						c-0.39,3.39-1.07,7.08-2.17,10.87c-1.14,3.77-2.58,7.25-4.09,10.3c-0.81,1.5-1.54,2.95-2.37,4.22
						c-0.4,0.64-0.76,1.28-1.16,1.86c-0.4,0.57-0.79,1.13-1.16,1.66c-0.71,1.07-1.48,1.96-2.11,2.76c-0.62,0.81-1.21,1.47-1.71,1.99
						c-0.46,0.49-0.84,0.89-1.13,1.21c-0.26,0.27-0.41,0.41-0.42,0.4s0.11-0.17,0.34-0.47c0.28-0.33,0.63-0.75,1.06-1.27
						c0.47-0.54,1.04-1.21,1.64-2.04c0.61-0.82,1.35-1.71,2.04-2.79c0.36-0.53,0.74-1.09,1.13-1.66c0.39-0.58,0.74-1.22,1.13-1.86
						c0.81-1.27,1.52-2.72,2.31-4.21c1.48-3.04,2.9-6.49,4.02-10.23c1.09-3.75,1.78-7.42,2.19-10.77c0.15-1.68,0.34-3.28,0.35-4.79
						c0.02-0.75,0.07-1.48,0.06-2.18c-0.01-0.7-0.03-1.37-0.04-2.01c0.01-1.28-0.13-2.44-0.19-3.45c-0.06-1.02-0.16-1.89-0.26-2.6
						c-0.08-0.67-0.14-1.21-0.2-1.64C180.86,381.45,180.85,381.25,180.86,381.25z"/>
				</g>
				<g>
					<path class="st8" d="M76.19,351.4c-0.01-0.03,0.38-0.16,1.09-0.37c0.35-0.11,0.79-0.22,1.31-0.32c0.51-0.1,1.1-0.24,1.75-0.31
						c1.31-0.2,2.88-0.31,4.63-0.3c1.75,0.04,3.67,0.21,5.66,0.6c1.98,0.41,3.82,0.99,5.45,1.62c1.62,0.66,3.03,1.37,4.16,2.06
						c0.58,0.32,1.06,0.67,1.5,0.96c0.44,0.29,0.8,0.56,1.08,0.8c0.58,0.46,0.88,0.73,0.86,0.76c-0.06,0.08-1.34-0.93-3.63-2.2
						c-1.14-0.64-2.55-1.3-4.15-1.93c-1.62-0.6-3.43-1.16-5.38-1.56c-1.95-0.38-3.84-0.56-5.56-0.63c-1.72-0.04-3.28,0.03-4.58,0.19
						C77.78,351.05,76.21,351.49,76.19,351.4z"/>
				</g>
				<g>
					<path class="st8" d="M161.99,298.31c-0.02,0,0.01-0.21,0.09-0.59c0.08-0.44,0.19-0.99,0.32-1.67c0.27-1.45,0.62-3.56,0.83-6.19
						c0.19-2.62,0.23-5.78-0.28-9.22c-0.49-3.43-1.61-7.14-3.56-10.64c-1.96-3.48-4.58-6.37-7.46-8.3
						c-2.87-1.94-5.89-2.97-8.47-3.39c-2.59-0.41-4.74-0.26-6.19-0.01c-1.45,0.24-2.23,0.52-2.24,0.46
						c-0.01-0.02,0.19-0.09,0.56-0.22c0.37-0.14,0.92-0.29,1.65-0.45c1.45-0.31,3.63-0.52,6.28-0.15c2.63,0.39,5.73,1.39,8.68,3.36
						c2.96,1.95,5.65,4.89,7.64,8.44c1.98,3.56,3.11,7.34,3.58,10.82c0.49,3.49,0.41,6.68,0.17,9.32c-0.26,2.64-0.67,4.75-1,6.2
						c-0.17,0.72-0.31,1.28-0.42,1.65C162.07,298.11,162.01,298.31,161.99,298.31z"/>
				</g>
				<g>
					<path class="st3" d="M122.61,292.79c-0.14,0-0.24-3.69-0.22-8.23c0.02-4.55,0.16-8.23,0.3-8.23c0.14,0,0.24,3.69,0.22,8.23
						C122.89,289.11,122.75,292.79,122.61,292.79z"/>
				</g>
				<g>
					<path class="st3" d="M103.6,316.76c-0.11,0.09-1.87-1.77-3.92-4.17c-2.06-2.4-3.64-4.42-3.53-4.51
						c0.11-0.09,1.86,1.77,3.92,4.17C102.13,314.64,103.71,316.66,103.6,316.76z"/>
				</g>
				<g>
					<path class="st3" d="M135.48,312.05c0.04,0.14-3.13,1.08-7.07,2.11c-3.94,1.03-7.16,1.75-7.2,1.61
						c-0.04-0.14,3.13-1.08,7.07-2.11C132.22,312.63,135.45,311.91,135.48,312.05z"/>
				</g>
				<g>
					<path class="st3" d="M148.76,301.62c-0.07,0.01-0.24-0.76-0.42-2.02c-0.18-1.26-0.35-3.01-0.42-4.95
						c-0.07-1.94-0.03-3.7,0.05-4.97c0.08-1.27,0.2-2.05,0.27-2.05c0.15,0.01,0.05,3.14,0.2,7
						C148.58,298.48,148.91,301.6,148.76,301.62z"/>
				</g>
				<g>
					<path class="st3" d="M99.1,345.38c-0.14,0-0.26-3.06-0.26-6.84c0-3.78,0.12-6.84,0.27-6.84s0.26,3.06,0.26,6.84
						C99.36,342.32,99.24,345.38,99.1,345.38z"/>
				</g>
				<g>
					<path class="st3" d="M77.1,338.08c-0.05,0.13-3.84-1.25-8.46-3.09c-4.62-1.84-8.32-3.44-8.27-3.58
						c0.05-0.13,3.84,1.25,8.46,3.09C73.45,336.35,77.15,337.95,77.1,338.08z"/>
				</g>
				<g>
					<path class="st3" d="M57.98,363.01c-0.14-0.02,0.08-3.09,0.5-6.87c0.42-3.78,0.88-6.83,1.02-6.81c0.14,0.02-0.08,3.09-0.5,6.87
						C58.58,359.98,58.12,363.03,57.98,363.01z"/>
				</g>
				<g>
					<path class="st3" d="M89.22,383.5c-0.02,0.07-1.02-0.19-2.63-0.61c-1.61-0.42-3.82-1-6.29-1.58c-2.47-0.57-4.71-1.04-6.34-1.37
						c-1.63-0.33-2.64-0.54-2.62-0.61c0.01-0.07,1.04,0.01,2.69,0.25c1.65,0.24,3.92,0.64,6.39,1.22c2.48,0.58,4.69,1.21,6.27,1.73
						C88.28,383.06,89.24,383.44,89.22,383.5z"/>
				</g>
				<g>
					<path class="st3" d="M100.13,374.27c-0.14,0.03-0.92-3.01-1.73-6.79c-0.82-3.78-1.36-6.87-1.22-6.9
						c0.14-0.03,0.92,3.01,1.73,6.79C99.72,371.15,100.27,374.24,100.13,374.27z"/>
				</g>
				<g>
					<path class="st3" d="M111.15,404c-0.01,0.07-0.9,0.02-2.32-0.18c-1.42-0.2-3.38-0.57-5.5-1.13c-2.12-0.56-4-1.21-5.34-1.75
						c-1.34-0.53-2.13-0.93-2.1-1c0.03-0.07,0.87,0.21,2.23,0.65c1.36,0.44,3.24,1.03,5.35,1.59c2.11,0.56,4.03,0.98,5.43,1.27
						C110.29,403.75,111.16,403.92,111.15,404z"/>
				</g>
				<g>
					<path class="st3" d="M123.56,400.99c-0.07-0.01,0-0.95,0.12-2.45c0.12-1.51,0.27-3.59,0.37-5.89c0.09-2.3,0.11-4.39,0.11-5.91
						c0-1.51,0.01-2.45,0.08-2.46c0.07,0,0.19,0.93,0.29,2.45c0.09,1.52,0.13,3.62,0.04,5.94c-0.1,2.32-0.31,4.41-0.52,5.91
						C123.83,400.08,123.62,401,123.56,400.99z"/>
				</g>
				<g>
					<path class="st3" d="M171.37,331.06c-0.12,0.09-2.14-2.49-4.84-5.49c-2.7-3-5.05-5.28-4.95-5.39c0.05-0.05,0.7,0.45,1.68,1.35
						c0.98,0.89,2.29,2.19,3.65,3.7c1.36,1.51,2.51,2.95,3.29,4.02C170.99,330.32,171.43,331.02,171.37,331.06z"/>
				</g>
				<g>
					<path class="st3" d="M199.61,305.89c0.09,0.11-1.88,1.83-4.4,3.85c-2.52,2.01-4.64,3.55-4.72,3.44
						c-0.09-0.11,1.88-1.83,4.4-3.85C197.4,307.32,199.52,305.78,199.61,305.89z"/>
				</g>
				<g>
					<path class="st3" d="M183.88,291.89c-0.14,0-0.2-4.29-0.12-9.58c0.08-5.29,0.25-9.57,0.4-9.57c0.14,0,0.2,4.29,0.12,9.58
						C184.2,287.6,184.02,291.89,183.88,291.89z"/>
				</g>
				<g>
					<path class="st3" d="M229.65,265.13c-0.13-0.07,1.52-3.46,3.69-7.58c2.16-4.12,4.02-7.41,4.15-7.34
						c0.13,0.07-1.52,3.46-3.69,7.58C231.64,261.91,229.78,265.19,229.65,265.13z"/>
				</g>
				<g>
					<path class="st3" d="M226.33,294.93c-0.12,0.08-2.7-3.29-5.77-7.53c-3.07-4.25-5.46-7.76-5.35-7.84
						c0.12-0.08,2.7,3.29,5.77,7.53C224.05,291.34,226.44,294.85,226.33,294.93z"/>
				</g>
				<g>
					<path class="st3" d="M260.69,274.57c0.11,0.1-2.05,2.63-4.82,5.65c-2.77,3.02-5.1,5.39-5.21,5.3c-0.11-0.1,2.05-2.63,4.82-5.65
						C258.26,276.85,260.59,274.48,260.69,274.57z"/>
				</g>
				<g>
					<path class="st3" d="M250.01,322.61c-0.12,0.08-2.5-3.14-5.31-7.19c-2.82-4.06-5-7.41-4.88-7.49s2.5,3.14,5.31,7.2
						C247.94,319.17,250.13,322.52,250.01,322.61z"/>
				</g>
				<g>
					<path class="st3" d="M211.81,337.81c-0.13-0.05,1.05-3.23,2.64-7.09c1.59-3.86,2.99-6.95,3.13-6.89
						c0.13,0.05-1.05,3.23-2.64,7.09C213.34,334.78,211.94,337.86,211.81,337.81z"/>
				</g>
				<g>
					<path class="st3" d="M186.25,359c-0.07,0.13-4.48-2.07-9.87-4.9c-5.38-2.83-9.69-5.23-9.62-5.36c0.07-0.13,4.48,2.07,9.87,4.9
						C182,356.47,186.31,358.87,186.25,359z"/>
				</g>
				<g>
					<path class="st3" d="M203,395.57c-0.06-0.03,0.42-1,1.3-2.49c0.88-1.49,2.19-3.51,3.77-5.64c1.58-2.13,3.13-3.96,4.31-5.23
						c1.18-1.28,1.96-2.01,2.01-1.96c0.06,0.05-0.63,0.87-1.73,2.21c-1.1,1.33-2.6,3.19-4.17,5.3c-1.57,2.11-2.91,4.08-3.87,5.52
						C203.65,394.71,203.06,395.61,203,395.57z"/>
				</g>
				<g>
					<path class="st3" d="M170.41,388.84c-0.14,0-0.33-2.44-0.41-5.46c-0.08-3.02-0.04-5.47,0.11-5.48c0.14,0,0.33,2.44,0.41,5.46
						C170.6,386.39,170.55,388.84,170.41,388.84z"/>
				</g>
				<g>
					<path class="st3" d="M200.5,425.01c-0.12,0.09-1.89-2.13-4.24-4.73c-2.34-2.6-4.37-4.59-4.27-4.7c0.09-0.1,2.3,1.73,4.66,4.35
						C199.01,422.55,200.61,424.93,200.5,425.01z"/>
				</g>
				<g>
					<path class="st3" d="M184.11,439.03c0.08,0.12-2.65,2.24-6.1,4.74c-3.45,2.5-6.32,4.43-6.41,4.32
						c-0.08-0.12,2.65-2.24,6.1-4.74C181.16,440.85,184.03,438.91,184.11,439.03z"/>
				</g>
				<g>
					<path class="st3" d="M222.08,440.82c0.01,0.08-0.9,0.23-2.35,0.51c-1.46,0.28-3.46,0.7-5.64,1.28
						c-2.18,0.59-4.12,1.23-5.52,1.72c-1.4,0.49-2.26,0.81-2.29,0.74c-0.03-0.06,0.79-0.5,2.16-1.08c1.37-0.58,3.32-1.29,5.52-1.88
						c2.2-0.59,4.24-0.96,5.72-1.14C221.15,440.78,222.07,440.75,222.08,440.82z"/>
				</g>
				<g>
					<path class="st3" d="M238.07,437.49c-0.14,0.02-0.99-4.73-1.89-10.6c-0.9-5.88-1.52-10.66-1.38-10.68
						c0.14-0.02,0.99,4.72,1.89,10.6C237.59,432.69,238.21,437.47,238.07,437.49z"/>
				</g>
				<g>
					<path class="st3" d="M241.84,398.84c-0.02,0.07-1.07-0.16-2.74-0.63c-1.67-0.47-3.96-1.19-6.45-2.11
						c-2.49-0.91-4.7-1.84-6.28-2.56c-1.58-0.72-2.53-1.23-2.5-1.29c0.03-0.07,1.03,0.32,2.64,0.95c1.61,0.63,3.84,1.5,6.32,2.41
						c2.48,0.91,4.74,1.68,6.38,2.24C240.85,398.42,241.87,398.77,241.84,398.84z"/>
				</g>
				<g>
					<path class="st3" d="M269.71,418.77c0.12,0.08-1.75,3.16-4.17,6.89c-2.43,3.73-4.49,6.69-4.61,6.61
						c-0.12-0.08,1.75-3.16,4.18-6.89C267.53,421.65,269.59,418.69,269.71,418.77z"/>
				</g>
				<g>
					<path class="st3" d="M264.65,453.56c-0.09,0.11-2.74-1.77-5.93-4.2c-3.19-2.43-5.7-4.5-5.62-4.61c0.09-0.11,2.74,1.77,5.93,4.2
						C262.22,451.38,264.74,453.44,264.65,453.56z"/>
				</g>
				<g>
					<path class="st3" d="M259.14,377.29c0.14,0.04-0.76,3.68-2.02,8.13c-1.25,4.45-2.38,8.03-2.52,7.99
						c-0.14-0.04,0.76-3.68,2.02-8.13C257.87,380.83,259,377.25,259.14,377.29z"/>
				</g>
				<g>
					<path class="st3" d="M250.95,362.1c-0.06,0.12-2.69-1.04-5.57-3.08c-2.89-2.03-4.86-4.12-4.77-4.21
						c0.11-0.11,2.22,1.78,5.07,3.79C248.53,360.61,251.02,361.96,250.95,362.1z"/>
				</g>
				<g>
					<path class="st3" d="M263.12,337.79c0.12,0.08-1.08,2.12-2.67,4.55c-1.6,2.43-2.99,4.34-3.11,4.26
						c-0.12-0.08,1.07-2.12,2.67-4.55C261.61,339.62,263,337.71,263.12,337.79z"/>
				</g>
				<g>
					<path class="st3" d="M283.51,292.2c-0.14-0.04,0.77-3.54,2.03-7.82c1.26-4.28,2.39-7.72,2.53-7.68
						c0.14,0.04-0.77,3.54-2.03,7.82C284.78,288.8,283.65,292.24,283.51,292.2z"/>
				</g>
				<g>
					<path class="st3" d="M299.02,324.65c-0.04,0.05-0.94-0.51-2.32-1.55c-1.38-1.04-3.21-2.57-5.08-4.41
						c-1.87-1.85-3.43-3.66-4.49-5.02c-1.06-1.36-1.63-2.26-1.58-2.3c0.06-0.05,0.74,0.77,1.87,2.06c1.12,1.29,2.71,3.05,4.57,4.88
						c1.86,1.83,3.64,3.39,4.95,4.49C298.24,323.92,299.07,324.58,299.02,324.65z"/>
				</g>
				<g>
					<path class="st3" d="M311.44,311.03c-0.13-0.08,1.29-2.44,2.63-5.54c1.35-3.1,2.09-5.75,2.24-5.71
						c0.13,0.03-0.39,2.77-1.76,5.91C313.19,308.85,311.54,311.11,311.44,311.03z"/>
				</g>
				<g>
					<path class="st3" d="M321.16,336.87c-0.14-0.03,0.29-2.51,0.96-5.53c0.67-3.02,1.33-5.45,1.47-5.41
						c0.14,0.03-0.29,2.51-0.96,5.53C321.96,334.48,321.3,336.9,321.16,336.87z"/>
				</g>
				<g>
					<path class="st3" d="M344.26,352.07c-0.09,0.11-2.6-1.72-5.6-4.09c-3.01-2.37-5.37-4.38-5.28-4.5c0.09-0.11,2.6,1.72,5.6,4.09
						C341.99,349.94,344.35,351.95,344.26,352.07z"/>
				</g>
				<g>
					<path class="st3" d="M360.33,320.13c0.07,0.04-0.38,0.88-1.07,2.24c-0.7,1.36-1.63,3.26-2.54,5.4
						c-0.91,2.14-1.64,4.13-2.14,5.57c-0.5,1.44-0.8,2.35-0.87,2.33c-0.06-0.02,0.11-0.95,0.52-2.44c0.41-1.48,1.09-3.5,2.01-5.66
						c0.92-2.16,1.91-4.05,2.7-5.37C359.72,320.87,360.28,320.1,360.33,320.13z"/>
				</g>
				<g>
					<path class="st3" d="M372.79,303.88c-0.04,0.14-4.29-1.05-9.5-2.65c-5.2-1.6-9.39-3.01-9.34-3.14c0.04-0.14,4.29,1.05,9.5,2.65
						C368.65,302.34,372.83,303.75,372.79,303.88z"/>
				</g>
				<g>
					<path class="st3" d="M386.11,318.53c0.06,0.06-0.63,0.82-1.68,2.1c-1.05,1.28-2.42,3.11-3.75,5.26
						c-1.32,2.15-2.33,4.2-3.01,5.72c-0.68,1.51-1.05,2.47-1.12,2.45c-0.06-0.02,0.19-1.02,0.78-2.59c0.59-1.56,1.57-3.67,2.91-5.85
						c1.34-2.17,2.79-3.99,3.91-5.22C385.28,319.16,386.06,318.48,386.11,318.53z"/>
				</g>
				<g>
					<path class="st3" d="M392.59,296.14c-0.08-0.01-0.03-1.12,0.01-2.9c0.05-1.79,0.08-4.26-0.01-6.98
						c-0.09-2.73-0.28-5.19-0.44-6.97c-0.16-1.78-0.28-2.89-0.2-2.9c0.07-0.01,0.31,1.08,0.57,2.85c0.26,1.78,0.51,4.25,0.6,7
						c0.09,2.74,0,5.23-0.15,7.02C392.83,295.05,392.66,296.15,392.59,296.14z"/>
				</g>
				<g>
					<path class="st3" d="M416.96,295.76c-0.09,0.11-2.63-1.83-5.66-4.33c-3.03-2.5-5.42-4.62-5.33-4.73
						c0.09-0.11,2.62,1.83,5.66,4.33C414.67,293.53,417.06,295.65,416.96,295.76z"/>
				</g>
				<g>
					<path class="st3" d="M426.67,279.11c-0.07,0.02-0.44-1.04-1.06-2.75c-0.61-1.71-1.48-4.05-2.54-6.61
						c-1.06-2.55-2.1-4.83-2.88-6.47c-0.77-1.64-1.26-2.65-1.19-2.69c0.06-0.03,0.66,0.92,1.52,2.52c0.86,1.6,1.97,3.87,3.03,6.44
						c1.06,2.57,1.88,4.95,2.41,6.69C426.49,277.99,426.74,279.09,426.67,279.11z"/>
				</g>
				<g class="st9">
					<path d="M227.73,343.34c-4.04,10.53-14.88,15.27-24.96,15.95l-0.57,0.04c-4.61-0.25-9.26,0.31-13.68,1.64
						c3.58,6.01,10.24,10.08,17.23,10.52c6.99,0.44,14.1-2.76,18.41-8.28C228.47,357.69,229.85,350.01,227.73,343.34z"/>
				</g>
				<g class="st9">
					<path d="M157.33,367.53c2.44,9.1,5.89,19.8,8.33,28.91c2.14,7.97,5.41,16.75,7.55,24.71l0.94-0.08
						C178.27,402.52,171.27,380.42,157.33,367.53z"/>
				</g>
				<g class="st9">
					<path d="M289.04,326.32c-3.98-8.46-11.54-15.14-20.3-18.4c5.05,7.2,10.64,15.9,11.22,25.22l7.45,4.28
						C289.68,335.18,290.4,329.21,289.04,326.32z"/>
				</g>
			</g>
			<g>
				<path class="st8" d="M182.23,256.05c0.01,0.15-1.46,0.23-2.85,1.26c-1.41,1-1.95,2.37-2.09,2.31c-0.06-0.02-0.02-0.4,0.25-0.94
					c0.26-0.55,0.78-1.24,1.54-1.79c0.76-0.55,1.58-0.82,2.18-0.9C181.86,255.91,182.23,255.99,182.23,256.05z"/>
			</g>
			<g>
				<path class="st8" d="M194.41,271.68c-0.06,0.01-0.23-0.42-0.29-1.18c-0.06-0.75,0.05-1.81,0.48-2.89
					c0.44-1.07,1.1-1.91,1.67-2.41c0.57-0.5,1-0.69,1.03-0.64c0.1,0.12-1.41,1.2-2.22,3.25
					C194.24,269.84,194.57,271.67,194.41,271.68z"/>
			</g>
			<g>
				<path class="st8" d="M181.41,270.98c-0.06,0-0.07-0.75,0.2-1.92c0.27-1.17,0.89-2.74,1.96-4.24c1.08-1.5,2.38-2.58,3.4-3.21
					c1.02-0.63,1.74-0.85,1.76-0.8c0.1,0.14-2.67,1.38-4.74,4.31C181.87,268.01,181.57,271.03,181.41,270.98z"/>
			</g>
			<g>
				<path class="st8" d="M172.81,252.45c-0.05-0.03,0.13-0.44,0.63-0.96c0.49-0.51,1.34-1.08,2.4-1.37
					c1.06-0.28,2.08-0.21,2.77-0.01c0.69,0.2,1.05,0.46,1.02,0.52c-0.04,0.15-1.67-0.56-3.65-0.01
					C173.98,251.13,172.93,252.56,172.81,252.45z"/>
			</g>
			<g>
				<path class="st8" d="M208.32,270.81c-0.15,0-0.27-1.16-0.61-2.54c-0.33-1.38-0.75-2.47-0.61-2.53c0.12-0.07,0.77,0.96,1.12,2.41
					C208.56,269.59,208.45,270.81,208.32,270.81z"/>
			</g>
			<g>
				<path class="st8" d="M222.68,270.97c-0.16,0.02-0.38-2.18-1.66-4.51c-1.25-2.35-2.96-3.74-2.85-3.86c0.05-0.12,2,1.16,3.31,3.62
					C222.82,268.67,222.81,270.99,222.68,270.97z"/>
			</g>
			<g>
				<path class="st8" d="M228.73,259.82c-0.14,0.05-0.52-0.74-1.41-1.25c-0.87-0.54-1.75-0.49-1.77-0.64
					c-0.01-0.07,0.21-0.18,0.6-0.19c0.38-0.02,0.93,0.08,1.44,0.39c0.51,0.3,0.86,0.73,1.03,1.08
					C228.78,259.55,228.79,259.8,228.73,259.82z"/>
			</g>
			<g>
				<path class="st8" d="M240.22,254.95c-0.07,0.06-0.56-0.45-1.49-1.08c-0.93-0.63-2.34-1.31-4.03-1.62
					c-1.68-0.3-3.25-0.16-4.34,0.11c-1.09,0.26-1.74,0.57-1.78,0.49c-0.03-0.05,0.56-0.48,1.68-0.84c1.11-0.37,2.76-0.58,4.53-0.26
					c1.77,0.32,3.24,1.11,4.15,1.84C239.85,254.31,240.26,254.92,240.22,254.95z"/>
			</g>
			<g>
				<path class="st8" d="M237.07,246.07c-0.06,0.14-1.32-0.37-2.93-0.21c-1.61,0.14-2.75,0.88-2.84,0.75
					c-0.1-0.09,1.01-1.11,2.79-1.27C235.87,245.17,237.15,245.96,237.07,246.07z"/>
			</g>
		</g>
		<g>
			<path class="st8" d="M183.78,232.93c-10.62,0.24-25.87-1.01-32.2-9.54c-6.34-8.53-3.59-24.11-0.29-34.21
				c-9.42-10.52-8.98-28.4,0.95-38.44c1.8-1.82,3.87-3.42,5.18-5.62c2.47-4.12,1.74-9.32,2.34-14.09
				c0.97-7.75,5.88-14.9,12.76-18.59c6.88-3.69,15.55-3.82,22.54-0.35c5.92-5.17,12.08-10.39,19.5-12.96
				c7.42-2.57,16.49-1.93,22.07,3.61c3.06,3.04,4.97,7.38,8.82,9.34c3.89,1.98,8.61,0.93,12.85,1.93
				c8.09,1.91,12.56,10.57,14.68,18.61c2.12,8.04,3.18,16.84,8.61,23.13c2.83,3.28,6.7,5.65,9.01,9.31
				c2.56,4.05,2.82,9.46,0.65,13.73c-2.17,4.28-6.68,7.26-11.47,7.59c4.93,6.23,5.96,14.99,3.82,22.64
				c-2.14,7.65-6.74,17.31-14.65,19.81c-8.54,2.71-15.86-1.14-15.86-1.14s-4.12,7.82-22.98,7.06
				C200.65,233.56,188.27,243.99,183.78,232.93"/>
			<g>
				<g>
					<path class="st5" d="M251.84,197.66c1.38-12.33-0.16-32.36-1.95-48.72c-1.61-14.72-12.23-32.38-26.87-30.15l-45.4,13.73
						c-4.45,0.68-7.63,4.65-7.34,9.14l9.58,108.52c0.12,1.32,0.58,2.59,1.36,3.65c3.87,5.22,12.35,13.25,26.98,11.36
						c17.85-2.31,21.84-13.76,22.66-17.4c0.14-0.61,0.2-1.24,0.18-1.86c-0.45-14.07-0.71-19.58-0.7-19.48
						C230.35,226.45,249.07,222.45,251.84,197.66z"/>
				</g>
				<g>
					<g>
						<g>
							<g>
								<g>
									<g>
										<g>
											<g>
												<g>
													<g>
														<g>
															<g>
																<g>
																	<g>
																		<g>
																			<g>
																				<g>
																					<g>
																						<g>
																							<g>
																								<path class="st8" d="M242.15,165.11c0.14,1.66-1.16,3.15-2.9,3.32c-1.73,0.17-3.25-1.03-3.38-2.7
																									c-0.14-1.66,1.16-3.15,2.89-3.33C240.5,162.24,242.01,163.45,242.15,165.11z"/>
																							</g>
																						</g>
																					</g>
																				</g>
																			</g>
																		</g>
																	</g>
																</g>
															</g>
														</g>
													</g>
												</g>
												<g>
													<g>
														<g>
															<g>
																<g>
																	<g>
																		<g>
																			<g>
																				<g>
																					<g>
																						<g>
																							<g>
																								<g>
																									<path class="st8" d="M246.53,161.54c-0.37,0.43-2.85-1.23-6.24-1.06c-3.39,0.12-5.81,1.98-6.19,1.58
																										c-0.19-0.18,0.18-0.94,1.22-1.78c1.03-0.84,2.82-1.69,4.93-1.77c2.12-0.09,3.93,0.61,4.99,1.36
																										C246.32,160.62,246.71,161.35,246.53,161.54z"/>
																								</g>
																							</g>
																						</g>
																					</g>
																				</g>
																			</g>
																		</g>
																	</g>
																</g>
															</g>
														</g>
													</g>
												</g>
											</g>
											<g>
												<g>
													<g>
														<g>
															<g>
																<g>
																	<g>
																		<g>
																			<g>
																				<g>
																					<g>
																						<g>
																							<g>
																								<path class="st8" d="M209.82,166.6c0.14,1.66-1.16,3.15-2.9,3.32c-1.73,0.17-3.25-1.03-3.38-2.7
																									c-0.14-1.66,1.16-3.15,2.89-3.33C208.17,163.73,209.69,164.94,209.82,166.6z"/>
																							</g>
																						</g>
																					</g>
																				</g>
																			</g>
																		</g>
																	</g>
																</g>
															</g>
														</g>
													</g>
												</g>
												<g>
													<g>
														<g>
															<g>
																<g>
																	<g>
																		<g>
																			<g>
																				<g>
																					<g>
																						<g>
																							<g>
																								<g>
																									<path class="st8" d="M212.9,162.66c-0.37,0.43-2.85-1.23-6.24-1.06c-3.39,0.12-5.81,1.98-6.19,1.58
																										c-0.19-0.18,0.17-0.94,1.22-1.78c1.03-0.84,2.82-1.69,4.93-1.77c2.12-0.09,3.93,0.61,4.99,1.36
																										C212.69,161.74,213.08,162.47,212.9,162.66z"/>
																								</g>
																							</g>
																						</g>
																					</g>
																				</g>
																			</g>
																		</g>
																	</g>
																</g>
															</g>
														</g>
													</g>
												</g>
											</g>
											<g>
												<g>
													<g>
														<g>
															<g>
																<g>
																	<g>
																		<g>
																			<g>
																				<g>
																					<g>
																						<g>
																							<g>
																								<path class="st8" d="M226.15,186.37c-0.02-0.19,2.07-0.65,5.47-1.25c0.86-0.13,1.68-0.34,1.79-0.94
																									c0.18-0.64-0.23-1.55-0.7-2.54c-0.91-2.06-1.87-4.22-2.87-6.48c-3.99-9.24-6.93-16.85-6.56-17.01
																									c0.37-0.16,3.92,7.2,7.91,16.44c0.96,2.28,1.89,4.45,2.76,6.53c0.37,0.97,0.99,2.06,0.61,3.38
																									c-0.2,0.66-0.82,1.16-1.37,1.33c-0.55,0.2-1.04,0.23-1.46,0.27C228.31,186.45,226.17,186.56,226.15,186.37z
																									"/>
																							</g>
																						</g>
																					</g>
																				</g>
																			</g>
																		</g>
																	</g>
																</g>
															</g>
														</g>
													</g>
												</g>
											</g>
											<g>
												<g>
													<g>
														<g>
															<g>
																<g>
																	<g>
																		<g>
																			<g>
																				<g>
																					<g>
																						<g>
																							<path class="st6" d="M230.35,226.45c0,0-16.51,1.83-33.36-7.27c0,0,9.11,16.98,33.64,13.55L230.35,226.45z"
																								/>
																						</g>
																					</g>
																				</g>
																			</g>
																		</g>
																	</g>
																</g>
															</g>
														</g>
													</g>
												</g>
											</g>
											<g>
												<g>
													<g>
														<g>
															<g>
																<g>
																	<g>
																		<g>
																			<g>
																				<g>
																					<g>
																						<g>
																							<path class="st6" d="M225.09,194.62c-1.3-1.56-3.48-2.35-5.59-2.02c-1.47,0.23-2.92,1.01-3.76,2.25
																								c-0.84,1.24-0.95,2.95-0.08,4.06c0.98,1.25,2.9,1.46,4.5,0.92c1.6-0.54,2.94-1.67,4.22-2.79
																								c0.35-0.31,0.71-0.64,0.92-1.05c0.21-0.41,0.23-0.94-0.06-1.26"/>
																						</g>
																					</g>
																				</g>
																			</g>
																		</g>
																	</g>
																</g>
															</g>
														</g>
													</g>
												</g>
											</g>
											<g>
												<g>
													<g>
														<g>
															<g>
																<g>
																	<g>
																		<g>
																			<g>
																				<g>
																					<g>
																						<g>
																							<g>
																								<path class="st8" d="M216.26,189.18c0.55-0.06,0.73,3.63,4,6.1c3.27,2.48,7.18,1.88,7.23,2.4
																									c0.06,0.23-0.84,0.76-2.5,0.88c-1.62,0.13-4.02-0.28-6.03-1.79c-2-1.52-2.93-3.62-3.12-5.12
																									C215.64,190.1,216.01,189.17,216.26,189.18z"/>
																							</g>
																						</g>
																					</g>
																				</g>
																			</g>
																		</g>
																	</g>
																</g>
															</g>
														</g>
													</g>
												</g>
											</g>
										</g>
									</g>
								</g>
								<g>
									<g>
										<g>
											<g>
												<g>
													<g>
														<g>
															<g>
																<g>
																	<g>
																		<g>
																			<g>
																				<path class="st8" d="M213.92,155.74c-0.29,0.94-3.7,0.66-7.66,1.32c-3.98,0.58-7.13,1.9-7.7,1.1
																					c-0.25-0.39,0.27-1.28,1.52-2.23c1.25-0.95,3.26-1.9,5.64-2.27c2.38-0.37,4.59-0.09,6.07,0.43
																					C213.27,154.6,214.04,155.3,213.92,155.74z"/>
																			</g>
																		</g>
																	</g>
																</g>
															</g>
														</g>
													</g>
												</g>
											</g>
										</g>
									</g>
								</g>
								<g>
									<g>
										<g>
											<g>
												<g>
													<g>
														<g>
															<g>
																<g>
																	<g>
																		<g>
																			<g>
																				<path class="st8" d="M245.81,155.53c-0.56,0.8-2.94,0.11-5.75,0.2c-2.82-0.01-5.17,0.76-5.76-0.02
																					c-0.26-0.38,0.08-1.17,1.09-1.95c0.99-0.77,2.68-1.45,4.62-1.48c1.94-0.03,3.64,0.59,4.66,1.34
																					C245.69,154.36,246.06,155.14,245.81,155.53z"/>
																			</g>
																		</g>
																	</g>
																</g>
															</g>
														</g>
													</g>
												</g>
											</g>
										</g>
									</g>
								</g>
							</g>
						</g>
					</g>
				</g>
				<g>
					<g>
						<g>
							<g>
								<g>
									<g>
										<path class="st8" d="M190.54,118.38c0.2,4.93,2.68,9.71,6.6,12.71c3.92,3,9.19,4.14,13.99,3.04
											c3.73-0.85,7.77-2.93,11.11-1.07c3.52,1.96,3.88,7.11,7.04,9.61c4.5,3.58,11.25-0.26,16.83,1.13
											c4.31,1.07,7.14,5.02,10.12,8.32c2.98,3.3,7.35,6.36,11.55,4.91c-0.44-3.81-0.89-7.66-2.19-11.27
											c-1.3-3.61-3.55-7.01-6.85-8.96c-1.81-1.07-3.89-1.68-5.58-2.93c-3.66-2.69-4.69-7.62-7.05-11.5
											c-3.04-5.01-8.62-8.37-14.47-8.71c-4.86-0.28-9.79,1.39-14.56,0.41c-3.53-0.73-6.67-2.86-10.24-3.37
											c-6.94-1.01-13.12,4.21-17.89,9.35"/>
									</g>
								</g>
							</g>
						</g>
					</g>
				</g>
				<g>
					<g>
						<g>
							<g>
								<g>
									<g>
										<g>
											<g>
												<g>
													<g>
														<path class="st5" d="M176.58,173.02c-0.39-0.17-15.59-4.61-15.09,10.9c0.5,15.51,15.97,11.81,15.98,11.37
															C177.48,194.84,176.58,173.02,176.58,173.02z"/>
													</g>
												</g>
											</g>
										</g>
									</g>
								</g>
							</g>
						</g>
					</g>
					<g>
						<g>
							<g>
								<g>
									<g>
										<g>
											<g>
												<g>
													<g>
														<g>
															<path class="st6" d="M172.54,189.57c-0.07-0.05-0.26,0.2-0.71,0.42c-0.44,0.22-1.2,0.38-2.02,0.11
																c-1.66-0.55-3.12-3.11-3.29-5.9c-0.09-1.41,0.17-2.76,0.63-3.89c0.44-1.15,1.15-1.97,1.97-2.14
																c0.81-0.22,1.42,0.26,1.62,0.69c0.22,0.43,0.13,0.74,0.22,0.76c0.05,0.04,0.33-0.27,0.18-0.91
																c-0.07-0.31-0.27-0.67-0.64-0.95c-0.38-0.29-0.93-0.43-1.51-0.35c-1.19,0.12-2.23,1.26-2.75,2.5
																c-0.58,1.25-0.89,2.77-0.8,4.35c0.2,3.12,1.89,6,4.16,6.57c1.1,0.25,2-0.11,2.46-0.49
																C172.52,189.94,172.59,189.59,172.54,189.57z"/>
														</g>
													</g>
												</g>
											</g>
										</g>
									</g>
								</g>
							</g>
						</g>
					</g>
				</g>
				<path class="st8" d="M170.39,171.93c5.14,1.12,10.78-0.31,14.77-3.75c3.98-3.45,6.21-8.82,5.84-14.07
					c5.73-0.29,10.66-4.7,12.93-9.96c2.27-5.27,2.29-11.23,1.59-16.92c-0.16-1.33-0.39-2.72-1.17-3.8c-1.7-2.36-5.16-2.34-8.06-2.09
					c-7.47,0.65-15.18,1.38-21.76,4.96c-6.59,3.58-11.8,10.81-10.62,18.21c0.58,3.62,2.6,7.18,1.69,10.73
					c-0.67,2.64-2.89,4.78-3.15,7.49c-0.2,2.09,0.84,4.14,2.31,5.63c1.46,1.5,3.32,2.53,5.16,3.55"/>
				<path class="st8" d="M173.16,196.63c3,0.48,6.12,1.38,7.83,3.89c1.71,2.51,2.33,5.74,1.67,8.7c2.41-0.12,4.39,1.99,5.3,4.22
					c2.34,5.72-0.3,12.67-5.17,16.48c-1.7,1.33-3.82,2.38-5.96,2.09c-2-0.27-3.65-1.65-5.14-3.01c-2.43-2.2-4.79-4.53-6.56-7.29
					c-1.76-2.76-2.89-6.03-2.64-9.3c0.24-3.08,1.7-5.98,3.68-8.36C168.16,201.67,170.62,198.39,173.16,196.63"/>
				<g>
					<path class="st10" d="M152.7,148.49c0.01-0.09,0.84,0.46,2.37,0.09c0.75-0.18,1.61-0.61,2.49-1.28
						c0.89-0.66,1.69-1.63,2.6-2.71c0.92-1.05,1.96-2.29,3.52-3.04c1.58-0.77,3.49-0.61,5.31-0.44c0.92,0.07,1.87,0.14,2.8,0.01
						c0.93-0.12,1.84-0.47,2.68-0.98c1.68-1.03,3.01-2.7,3.96-4.57c0.96-1.89,1.56-3.9,2.22-5.82c0.64-1.93,1.41-3.76,2.34-5.39
						c1.84-3.28,4.38-5.74,6.95-7c2.56-1.3,4.95-1.51,6.52-1.37c1.59,0.13,2.39,0.54,2.39,0.54c-0.01,0.06-0.84-0.27-2.4-0.33
						c-1.54-0.07-3.87,0.19-6.33,1.49c-2.47,1.27-4.92,3.69-6.7,6.91c-0.91,1.61-1.64,3.4-2.28,5.32c-0.65,1.91-1.25,3.94-2.23,5.89
						c-0.98,1.94-2.37,3.68-4.15,4.77c-0.89,0.54-1.88,0.91-2.88,1.04c-1,0.14-1.98,0.06-2.9-0.02c-1.84-0.18-3.63-0.34-5.09,0.35
						c-1.46,0.67-2.5,1.85-3.43,2.89c-0.92,1.05-1.78,2.04-2.71,2.7c-0.92,0.67-1.83,1.09-2.62,1.24c-0.79,0.17-1.43,0.08-1.83-0.04
						C152.88,148.62,152.7,148.49,152.7,148.49z"/>
				</g>
				<g>
					<path class="st10" d="M144.7,167.02c-0.01,0-0.02-0.07-0.04-0.23c-0.02-0.15-0.05-0.38,0-0.68c0.05-0.59,0.27-1.45,0.72-2.48
						c0.45-1.03,1.11-2.24,2.04-3.55c0.48-0.64,1-1.32,1.64-1.97c0.63-0.66,1.35-1.31,2.25-1.82c1.83-1.02,4.29-0.96,6.5-0.05
						c1.11,0.44,2.18,1.09,3.18,1.87c0.98,0.75,2.07,1.43,3.25,1.99c2.34,1.11,5.11,1.76,7.92,1.39c2.78-0.36,5.59-1.75,7.41-4.12
						c1.81-2.35,2.24-5.59,4.54-7.66c0.57-0.49,1.25-0.86,1.96-1.05c0.71-0.2,1.44-0.25,2.14-0.26c1.41,0,2.73,0.09,4.02-0.1
						c2.58-0.35,4.91-1.38,6.79-2.74c1.88-1.36,3.31-3.05,4.24-4.79c1.89-3.51,1.98-6.9,1.72-9.07c-0.12-1.11-0.36-1.94-0.5-2.51
						c-0.18-0.56-0.26-0.86-0.25-0.86c0,0,0.61,1.11,0.95,3.34c0.32,2.19,0.3,5.65-1.6,9.27c-1.83,3.58-5.91,7.05-11.29,7.83
						c-1.33,0.21-2.73,0.12-4.08,0.12c-0.68,0.01-1.36,0.06-2.01,0.25c-0.65,0.18-1.25,0.51-1.77,0.95
						c-2.12,1.86-2.57,5.08-4.46,7.59c-1.92,2.5-4.86,3.94-7.76,4.31c-2.93,0.38-5.79-0.31-8.19-1.47
						c-1.21-0.58-2.32-1.28-3.32-2.06c-0.97-0.76-2-1.39-3.07-1.83c-2.11-0.9-4.45-0.96-6.16-0.03c-0.85,0.47-1.57,1.09-2.19,1.73
						c-0.63,0.63-1.16,1.29-1.64,1.91c-0.94,1.27-1.62,2.45-2.09,3.46c-0.48,1-0.72,1.84-0.8,2.41c-0.06,0.29-0.05,0.51-0.05,0.66
						C144.71,166.94,144.71,167.02,144.7,167.02z"/>
				</g>
				<g>
					<path class="st10" d="M273.55,134.07c-0.08,0.05-0.33-1.22-1.88-2.7c-1.53-1.49-4.48-2.83-8.29-3.16
						c-1.91-0.18-4.02-0.18-6.29-0.39c-2.25-0.21-4.75-0.68-6.95-2.1c-2.2-1.4-3.98-3.5-5.64-5.72c-1.68-2.2-3.3-4.59-5.48-6.5
						c-2.19-1.9-4.87-3.04-7.56-3.52c-2.69-0.51-5.37-0.48-7.89-0.29c-2.53,0.2-4.91,0.6-7.14,0.97c-2.24,0.36-4.33,0.68-6.25,0.85
						c-3.85,0.37-7.02,0.11-9.11-0.45c-2.1-0.53-3.15-1.14-3.15-1.14c0.01-0.02,0.29,0.08,0.82,0.27c0.26,0.1,0.6,0.21,0.99,0.32
						c0.39,0.13,0.85,0.24,1.38,0.35c2.09,0.49,5.21,0.69,9.03,0.28c1.91-0.19,3.99-0.53,6.22-0.91c2.23-0.39,4.62-0.8,7.17-1.02
						c2.55-0.21,5.26-0.25,8.03,0.26c2.75,0.49,5.54,1.66,7.8,3.63c2.25,1.97,3.88,4.39,5.55,6.59c1.65,2.21,3.38,4.26,5.49,5.62
						c2.1,1.37,4.51,1.85,6.74,2.08c2.24,0.23,4.35,0.25,6.28,0.45c3.87,0.38,6.87,1.81,8.39,3.38c0.78,0.77,1.21,1.51,1.45,2.03
						c0.12,0.26,0.18,0.47,0.23,0.61C273.54,134,273.56,134.07,273.55,134.07z"/>
				</g>
				<g>
					<path class="st10" d="M284.98,159.1c0,0.01-0.08,0.04-0.25,0.1c-0.17,0.06-0.42,0.15-0.75,0.24c-0.67,0.16-1.69,0.38-3.02,0.26
						c-0.66-0.04-1.39-0.21-2.15-0.46c-0.76-0.29-1.55-0.68-2.32-1.21c-1.54-1.09-3.02-2.69-4.27-4.7
						c-1.26-2.02-2.01-4.52-3.27-6.94c-0.63-1.21-1.44-2.37-2.54-3.28c-1.11-0.89-2.49-1.5-3.98-1.82c-2.99-0.67-6.28-0.4-9.65-0.89
						c-3.38-0.51-6.73-2.06-9.43-4.49c-1.35-1.21-2.49-2.63-3.42-4.12c-0.94-1.48-1.76-2.98-2.79-4.28
						c-1.01-1.32-2.29-2.35-3.75-2.98c-1.45-0.64-3-0.95-4.53-1.08c-3.06-0.24-5.99,0.23-8.75,0.38c-2.76,0.2-5.38-0.04-7.67-0.57
						c-4.62-1.06-7.96-3.11-10.03-4.7c-2.08-1.62-2.98-2.78-2.98-2.78c0.01-0.01,0.08,0.05,0.21,0.17c0.15,0.14,0.34,0.32,0.57,0.53
						c0.51,0.46,1.27,1.13,2.32,1.91c2.09,1.53,5.42,3.51,9.99,4.51c2.27,0.5,4.83,0.71,7.56,0.5c2.73-0.17,5.67-0.66,8.81-0.43
						c1.56,0.12,3.17,0.44,4.69,1.11c1.53,0.65,2.91,1.75,3.95,3.11c1.07,1.35,1.9,2.86,2.83,4.32c0.91,1.47,2.01,2.83,3.33,4.01
						c2.62,2.36,5.87,3.86,9.16,4.37c3.29,0.5,6.6,0.23,9.68,0.93c1.53,0.34,2.99,0.98,4.16,1.94c1.16,0.97,2,2.2,2.64,3.43
						c1.27,2.48,1.99,4.97,3.2,6.95c1.2,1.98,2.64,3.57,4.13,4.65c0.75,0.54,1.51,0.93,2.24,1.22c0.74,0.26,1.44,0.45,2.09,0.5
						C283.59,159.72,284.97,158.99,284.98,159.1z"/>
				</g>
				<g>
					<path class="st10" d="M277.69,220.82c-0.06-0.06,0.93-0.71,1.98-2.45c1.05-1.73,1.99-4.63,1.91-8.27
						c-0.06-1.81-0.32-3.81-1.1-5.79c-0.38-0.99-0.91-1.95-1.57-2.87c-0.67-0.91-1.47-1.77-2.34-2.59
						c-1.75-1.65-3.82-3.13-5.77-4.94c-1.92-1.8-3.81-4-4.56-6.81c-0.35-1.4-0.37-2.84-0.21-4.21c0.16-1.37,0.47-2.69,0.73-3.98
						c0.27-1.29,0.51-2.55,0.56-3.8c0.06-1.24-0.09-2.46-0.48-3.57c-0.77-2.25-2.35-3.99-3.93-5.4c-1.6-1.42-3.26-2.54-4.75-3.61
						c-3-2.11-5.18-4.24-6.21-6.05c-0.53-0.89-0.79-1.66-0.96-2.17c-0.13-0.53-0.19-0.81-0.17-0.81c0.07-0.02,0.23,1.14,1.3,2.87
						c1.07,1.74,3.24,3.8,6.25,5.86c1.5,1.05,3.19,2.15,4.83,3.58c1.62,1.42,3.27,3.2,4.1,5.57c0.42,1.17,0.58,2.46,0.52,3.75
						c-0.05,1.29-0.3,2.58-0.56,3.88c-0.52,2.56-1.21,5.28-0.52,7.95c0.7,2.65,2.52,4.79,4.4,6.57c1.91,1.78,3.99,3.28,5.75,4.97
						c0.89,0.84,1.7,1.73,2.38,2.67c0.68,0.95,1.23,1.95,1.61,2.98c0.79,2.05,1.03,4.09,1.07,5.94c0.04,3.71-0.98,6.66-2.1,8.38
						c-0.29,0.43-0.54,0.82-0.81,1.1c-0.26,0.3-0.47,0.56-0.69,0.72C277.93,220.66,277.71,220.83,277.69,220.82z"/>
				</g>
				<g>
					<path class="st10" d="M152.37,189.46c0,0-0.68-0.6-1.34-2.05c-0.67-1.43-1.22-3.8-0.62-6.62c0.55-2.81,2.58-5.88,5.79-7.9
						c1.59-1.02,3.45-1.8,5.46-2.23c2-0.45,4.13-0.58,6.28-0.63c4.29-0.08,8.43,0,11.91-1.28c3.47-1.24,6.05-3.55,7.7-5.77
						c1.68-2.24,2.48-4.4,2.89-5.9c0.38-1.52,0.44-2.39,0.5-2.39c0.02,0,0.01,0.22-0.03,0.63c-0.02,0.42-0.12,1.02-0.27,1.8
						c-0.35,1.54-1.12,3.76-2.79,6.07c-1.65,2.29-4.26,4.7-7.83,6c-3.58,1.35-7.8,1.26-12.06,1.35c-2.14,0.06-4.23,0.18-6.18,0.61
						c-1.96,0.41-3.76,1.16-5.31,2.13c-3.13,1.94-5.11,4.87-5.69,7.57c-0.62,2.72-0.15,5.04,0.45,6.46
						C151.81,188.77,152.43,189.42,152.37,189.46z"/>
				</g>
			</g>
			<g>
				<path class="st0" d="M190.11,181.4l-6.34,13.93c0,0,10.7,17.51,19.01,23.42c16.84,11.98,33.69,5,33.69,5s17.9-6.62,16.55-37.91
					c0,0-12.1-4.51-19.81-5.21s-24.85,4.04-31.36,3.16C195.35,182.92,190.11,181.4,190.11,181.4z"/>
				<g>
					<path class="st8" d="M189.97,181.72c-0.08,0.12-3.35-1.91-7.3-4.54c-3.96-2.63-7.1-4.85-7.02-4.97
						c0.08-0.12,3.35,1.91,7.31,4.54C186.9,179.38,190.05,181.6,189.97,181.72z"/>
				</g>
				<g>
					<path class="st8" d="M183.82,194.97c0.01,0.14-2,0.46-4.5,0.71c-2.5,0.25-4.54,0.34-4.56,0.2c-0.01-0.14,2-0.46,4.5-0.71
						C181.77,194.91,183.81,194.83,183.82,194.97z"/>
				</g>
				<g>
					<path class="st1" d="M246.55,212.8c0.01,0.02-0.2,0.11-0.61,0.28c-0.41,0.17-1.01,0.42-1.79,0.71
						c-1.59,0.53-3.9,1.31-6.85,1.85c-2.95,0.54-6.53,0.94-10.5,0.79c-3.96-0.16-8.33-0.76-12.71-2.14
						c-2.2-0.65-4.27-1.53-6.24-2.43c-1.95-0.93-3.77-1.96-5.46-3c-3.38-2.08-6.28-4.15-8.75-5.83c-2.46-1.69-4.49-3.01-5.91-3.88
						c-0.68-0.41-1.22-0.74-1.64-1c-0.38-0.23-0.57-0.36-0.56-0.37c0.01-0.02,0.22,0.08,0.61,0.28c0.39,0.2,0.97,0.5,1.7,0.92
						c1.46,0.82,3.52,2.1,6.02,3.75c2.5,1.65,5.42,3.68,8.79,5.73c1.69,1.02,3.49,2.03,5.43,2.95c1.95,0.88,3.99,1.75,6.17,2.39
						c4.33,1.37,8.65,1.98,12.58,2.16c3.93,0.17,7.48-0.18,10.42-0.68c2.94-0.49,5.25-1.21,6.85-1.68c0.75-0.26,1.35-0.46,1.82-0.62
						C246.32,212.85,246.55,212.78,246.55,212.8z"/>
				</g>
				<g>
					<path class="st8" d="M251.06,199.34c0,0.02-0.21,0.06-0.62,0.11c-0.46,0.06-1.05,0.13-1.78,0.21
						c-1.55,0.17-3.79,0.39-6.56,0.59c-5.54,0.4-13.25,0.76-21.73,0.01c-8.48-0.74-16.01-2.66-21.2-4.68c-2.6-1-4.65-1.95-6.02-2.68
						c-0.7-0.35-1.21-0.66-1.57-0.86c-0.35-0.21-0.54-0.32-0.53-0.34c0.01-0.02,0.21,0.07,0.58,0.24c0.37,0.17,0.9,0.45,1.61,0.77
						c1.4,0.67,3.46,1.57,6.06,2.52c5.2,1.92,12.69,3.77,21.12,4.5c8.43,0.74,16.12,0.45,21.66,0.14c2.72-0.18,4.95-0.32,6.56-0.43
						c0.73-0.05,1.32-0.09,1.79-0.11C250.85,199.33,251.06,199.32,251.06,199.34z"/>
				</g>
				<path class="st1" d="M250.23,191.51c-5.81-1.9-11.7-3.78-17.79-4.31c-5.95-0.52-11.93,0.27-17.89,0.65
					c-5.96,0.38-12.61,0.02-18.19-2.11l-1.5-0.03c16.82,8.9,36.99,11.27,55.41,6.51c0.16-0.04,0.35-0.11,0.39-0.28
					C250.69,191.72,250.43,191.58,250.23,191.51z"/>
				<g>
					<path class="st8" d="M252.6,191.7c0,0.02-0.22-0.03-0.63-0.12c-0.46-0.11-1.05-0.26-1.77-0.44c-1.54-0.39-3.76-0.98-6.51-1.62
						c-2.76-0.64-6.06-1.34-9.78-1.76c-3.71-0.45-7.83-0.43-12.14-0.2c-4.32,0.23-8.44,0.53-12.21,0.47
						c-3.76-0.04-7.16-0.45-9.93-1.14c-2.77-0.68-4.91-1.59-6.31-2.35c-0.7-0.39-1.23-0.7-1.57-0.94c-0.35-0.23-0.53-0.36-0.52-0.38
						c0.03-0.05,0.76,0.44,2.18,1.14c1.42,0.69,3.55,1.55,6.31,2.17c2.75,0.63,6.11,1,9.85,1.02c3.74,0.03,7.85-0.29,12.18-0.51
						c4.32-0.23,8.48-0.24,12.22,0.24c3.74,0.45,7.05,1.19,9.81,1.87c2.76,0.69,4.96,1.34,6.48,1.79c0.72,0.22,1.29,0.4,1.75,0.54
						C252.4,191.6,252.6,191.68,252.6,191.7z"/>
				</g>
				<path class="st1" d="M190.4,195.47c5.22,2.96,10.34,6.29,16.06,8.09c13.12,4.13,24.07,5.13,35.22,4.72
					c0.91-0.03,2.13,0.16,2.24,1.07c0.09,0.81-0.84,1.32-1.62,1.55c-2.6,0.76-5.32,1-8.02,1.09c-7.98,0.26-16.04-0.79-23.56-3.47
					c-7.52-2.68-14.5-7.01-19.96-12.83"/>
				<g>
					<path class="st8" d="M239.01,207.28c0.01,0.06-1.08,0.36-2.89,0.65c-1.81,0.29-4.33,0.52-7.13,0.46
						c-2.8-0.06-5.31-0.39-7.11-0.75c-1.8-0.36-2.87-0.7-2.86-0.76c0.02-0.08,1.12,0.14,2.92,0.4c1.8,0.26,4.29,0.53,7.06,0.59
						c2.77,0.05,5.27-0.12,7.07-0.31C237.88,207.37,238.99,207.2,239.01,207.28z"/>
				</g>
			</g>
		</g>
		<path class="st5" d="M142.26,390.94c0.18,0.33,4.2,3.45,4.2,3.45l7.37-2.66l9.2,4.7c0,0,8.25,0.87,8.32,3.85
			c0.07,2.98,4.91,17.62-1.37,27.64s-10.72,13.34-10.72,13.34l-22.33-20.85l-6.86-1.43L142.26,390.94z"/>
	</g>
</g>
<g id="Desk">
	<g>
		<path class="st8" d="M456.39,456.69c0,0.14-93.75,0.26-209.38,0.26c-115.67,0-209.4-0.12-209.4-0.26s93.73-0.26,209.4-0.26
			C362.63,456.43,456.39,456.54,456.39,456.69z"/>
	</g>
</g>
<g id="Speech_Bubble">
	<g>
		<path class="st4" d="M363.42,56.32c-26.4,0-47.81,21.4-47.81,47.81c0,12.44,4.75,23.77,12.54,32.27c0.2,0.21,0.4,0.42,0.6,0.63
			l-9.07,23.25l29.03-10.21l0.07-0.43c4.62,1.48,9.48,3.39,14.59,3.39c26.4,0,47.86-22.5,47.86-48.9
			C411.23,77.72,389.83,56.32,363.42,56.32z"/>
		<g>
			<g>
				<g>
					<g>
						<path class="st8" d="M363.38,56.96c0-0.02,0.29-0.03,0.85-0.02c0.63,0.02,1.46,0.04,2.51,0.06c1.11-0.01,2.47,0.15,4.07,0.4
							c0.8,0.13,1.67,0.21,2.58,0.4c0.91,0.22,1.87,0.46,2.89,0.71c4.03,1.12,8.95,2.9,13.95,6.24c5,3.28,10.12,8.04,14.14,14.45
							c4.03,6.36,7.05,14.37,7.43,23.28c0.55,8.85-1.49,18.58-6.61,27.2c-4.96,8.71-13.26,16.02-23.3,20.27
							c-5.03,2.12-10.55,3.28-16.16,3.56c-5.62,0.39-11.39-0.39-16.9-2.1l-0.5-0.16l0.4,0c-9.67,3.35-19.12,6.62-28.25,9.79
							l-1.15,0.4l0.36-1.16c2.53-8.13,4.98-15.99,7.33-23.53l0.12,0.57c-5.42-6.1-9.09-13.3-10.88-20.59
							c-1.82-7.3-1.76-14.63-0.45-21.24c1.32-6.63,3.98-12.54,7.29-17.41c3.31-4.88,7.25-8.73,11.18-11.67
							c1.92-1.54,3.98-2.66,5.86-3.8c1.99-0.93,3.8-1.95,5.63-2.55c1.81-0.65,3.48-1.29,5.08-1.62c1.59-0.39,3.02-0.79,4.36-0.91
							c1.32-0.17,2.49-0.37,3.5-0.46c1-0.03,1.85-0.06,2.57-0.08c0.64-0.01,1.16-0.02,1.57-0.03
							C363.2,56.94,363.38,56.94,363.38,56.96c0,0.02-0.18,0.04-0.53,0.08c-0.41,0.03-0.92,0.08-1.56,0.13
							c-0.71,0.05-1.56,0.11-2.55,0.18c-1.01,0.12-2.16,0.35-3.46,0.55c-1.32,0.16-2.73,0.57-4.3,0.99c-1.59,0.35-3.22,1.01-5,1.68
							c-1.8,0.62-3.57,1.65-5.52,2.59c-1.84,1.15-3.85,2.27-5.73,3.81c-3.84,2.94-7.68,6.75-10.9,11.57
							c-3.21,4.8-5.78,10.62-7.04,17.12c-1.24,6.49-1.27,13.66,0.54,20.78c1.78,7.11,5.39,14.13,10.7,20.07l0.22,0.25l-0.1,0.32
							c-2.33,7.54-4.77,15.41-7.28,23.55l-0.79-0.76c9.12-3.17,18.58-6.45,28.24-9.81l0.2-0.07l0.2,0.06l0.49,0.15
							c5.37,1.67,10.99,2.44,16.47,2.05c5.47-0.27,10.85-1.39,15.75-3.45c9.78-4.13,17.9-11.24,22.77-19.73
							c5.02-8.4,7.07-17.89,6.57-26.56c-0.33-8.73-3.24-16.59-7.14-22.87c-3.9-6.32-8.89-11.05-13.78-14.34
							c-4.88-3.35-9.72-5.17-13.69-6.35c-1-0.27-1.95-0.52-2.85-0.76c-0.9-0.21-1.76-0.3-2.55-0.45c-1.58-0.28-2.92-0.49-4.03-0.52
							c-1.05-0.08-1.87-0.14-2.5-0.19C363.67,57.02,363.38,56.98,363.38,56.96z"/>
					</g>
				</g>
			</g>
		</g>
		<g>
			<g>
				<g>
					<g>
						<polygon class="st7" points="334.98,108.49 342.41,101.06 356.75,113.8 384.88,86.72 391.78,94.16 355.69,128.13 						"/>
					</g>
				</g>
			</g>
		</g>
	</g>
	<g>
	</g>
	<g>
	</g>
	<g>
	</g>
	<g>
	</g>
	<g>
	</g>
	<g>
	</g>
</g>
</svg>
