<?xml version="1.0" encoding="utf-8"?>
<!-- Generator: Adobe Illustrator 24.0.1, SVG Export Plug-In . SVG Version: 6.00 Build 0)  -->
<svg version="1.1" xmlns="http://www.w3.org/2000/svg" xmlns:xlink="http://www.w3.org/1999/xlink" x="0px" y="0px"
	 viewBox="0 0 500 500" style="enable-background:new 0 0 500 500;" xml:space="preserve">
<style type="text/css">
	.st0{fill:#E0E0E0;}
	.st1{fill:#EBEBEB;}
	.st2{fill:#F5F5F5;}
	.st3{display:none;}
	.st4{display:inline;fill:#EBEBEB;}
	.st5{fill:#E8505B;fill: var(--primary-color);}
	.st6{opacity:0.8;}
	.st7{fill:#FFFFFF;}
	.st8{fill:#FFBE9D;}
	.st9{opacity:0.3;fill:#FFFFFF;}
	.st10{fill:#263238;}
	.st11{fill:#FAFAFA;}
	.st12{fill:#455A64;}
	.st13{opacity:0.4;}
	.st14{opacity:0.6;}
	.st15{opacity:0.6;fill:#FFFFFF;}
	.st16{fill:#EB996E;}
	.st17{opacity:0.2;}
	.st18{opacity:0.3;}
</style>
<g id="Background_Complete">
	<g>
		<g>
			<g>
				<g>
					<g>
						<g>
							<path class="st0" d="M332.18,92.08h65.75c0,0-5.81-10.58-22.74-9.04c-16.16,1.47-16.99-5.21-25.2-6.03
								C341.77,76.19,334.92,82.49,332.18,92.08z"/>
						</g>
					</g>
				</g>
			</g>
		</g>
	</g>
	<g>
		<g>
			<g>
				<path class="st1" d="M160.32,265.9c0,0-6.59,3.56,3,17.32c9.59,13.76,15.83,20.36,15.83,20.36s1.81,3.25-1.01,4.18
					c-2.82,0.93-9.33,0.79-10.13,4.51c-0.83,3.85,2.31,6.95,8.14,9.24c5.82,2.29,18.4,7.78,19.53,8.28
					c1.11,0.49,2.36,1.95,0.55,2.89s-15.93,4.41-13.89,11.01c2.05,6.6,19.32,10.32,21.2,10.76c1.88,0.44,2.41,1.14,2.4,2.14
					c-0.01,1-4.87,1.72-8.84,2.87c-3.97,1.15-8.38,3.18-6.88,6.89c1.5,3.71,12.36,10.44,36.33,9.5l11.08-1.16l4.72-10.15
					c8.78-22.33,5.99-34.8,2.98-37.44c-3.01-2.64-6.38,0.86-8.77,4.23c-2.39,3.37-4.67,7.72-5.62,7.4
					c-0.95-0.32-1.43-1.05-1.23-2.97c0.2-1.92,2.37-19.46-3.19-23.56c-5.56-4.1-13.48,8.09-14.97,9.49
					c-1.49,1.41-2.45-0.25-2.55-1.47c-0.1-1.24-1.15-14.92-1.4-21.17c-0.25-6.25-2.14-10.24-6.05-10.72
					c-3.77-0.47-5.78,5.72-7.59,8.08c-1.81,2.35-4.28-0.43-4.28-0.43s-4.19-8.07-14.02-21.65c-9.84-13.58-15.48-8.38-15.48-8.38"/>
			</g>
			<g>
				<g>
					<path class="st0" d="M238.58,377.22c-7.19-10-19.66-27.99-30.45-43.39c-10.79-15.39-20.56-29.31-27.7-39.35
						c-3.57-5.01-6.46-9.06-8.46-11.88c-0.99-1.39-1.76-2.48-2.3-3.23c-0.25-0.36-0.45-0.64-0.59-0.85c-0.13-0.19-0.19-0.3-0.19-0.3
						s0.08,0.09,0.22,0.27c0.15,0.2,0.35,0.47,0.62,0.83c0.55,0.74,1.34,1.82,2.35,3.19c2.04,2.78,4.96,6.81,8.55,11.82
						c7.19,10,17,23.9,27.78,39.29c10.79,15.39,23.23,33.4,30.36,43.44"/>
				</g>
			</g>
			<g>
				<g>
					<path class="st0" d="M177.12,312.83c0.01-0.02,0.29,0.02,0.8,0.11c0.51,0.09,1.24,0.24,2.15,0.44c1.81,0.39,4.29,1,7.02,1.72
						c2.69,0.72,5.12,1.37,6.98,1.87c0.84,0.22,1.55,0.4,2.12,0.55c0.5,0.13,0.78,0.21,0.77,0.23c0,0.02-0.29-0.01-0.8-0.1
						c-0.51-0.09-1.24-0.24-2.15-0.45c-1.81-0.41-4.28-1.05-7.01-1.77c-2.69-0.7-5.13-1.33-6.99-1.82c-0.84-0.22-1.55-0.4-2.12-0.54
						C177.39,312.94,177.11,312.86,177.12,312.83z"/>
				</g>
			</g>
			<g>
				<g>
					<path class="st0" d="M197.62,316.95c-0.09-0.02,0.94-5.2,2.3-11.56c1.36-6.37,2.54-11.51,2.64-11.49
						c0.09,0.02-0.93,5.2-2.3,11.56C198.89,311.83,197.71,316.97,197.62,316.95z"/>
				</g>
			</g>
			<g>
				<g>
					<path class="st0" d="M213.12,341.33c-0.02-0.01,0.11-0.28,0.35-0.74c0.28-0.53,0.64-1.19,1.06-1.97
						c0.89-1.66,2.12-3.96,3.37-6.55c1.26-2.59,2.32-4.97,3.08-6.7c0.36-0.81,0.66-1.5,0.9-2.05c0.21-0.48,0.34-0.75,0.37-0.74
						c0.02,0.01-0.06,0.29-0.24,0.79c-0.18,0.5-0.44,1.22-0.8,2.09c-0.7,1.76-1.73,4.16-2.99,6.76c-1.26,2.6-2.52,4.89-3.47,6.52
						c-0.48,0.82-0.87,1.47-1.16,1.92C213.3,341.1,213.14,341.34,213.12,341.33z"/>
				</g>
			</g>
			<g>
				<g>
					<path class="st0" d="M193.76,341.69c0-0.02,0.27-0.05,0.76-0.09c0.56-0.03,1.25-0.07,2.06-0.12c1.74-0.09,4.15-0.18,6.81-0.26
						c2.66-0.08,5.07-0.14,6.82-0.16c0.81,0,1.51-0.01,2.07-0.01c0.49,0.01,0.76,0.02,0.76,0.04c0,0.02-0.27,0.06-0.76,0.09
						c-0.56,0.03-1.25,0.07-2.06,0.12c-1.74,0.09-4.15,0.18-6.82,0.26c-2.66,0.08-5.07,0.14-6.82,0.16c-0.81,0-1.51,0.01-2.07,0.01
						C194.03,341.73,193.76,341.71,193.76,341.69z"/>
				</g>
			</g>
			<g>
				<g>
					<path class="st0" d="M204.71,364.95c0-0.02,0.34-0.06,0.97-0.11c0.69-0.04,1.58-0.1,2.64-0.16c2.23-0.12,5.32-0.27,8.73-0.41
						c3.41-0.14,6.5-0.25,8.74-0.31c1.07-0.02,1.96-0.04,2.65-0.05c0.63,0,0.97,0,0.97,0.03c0,0.02-0.34,0.06-0.97,0.11
						c-0.69,0.04-1.58,0.1-2.64,0.16c-2.23,0.12-5.32,0.27-8.73,0.41c-3.41,0.14-6.5,0.25-8.73,0.31c-1.07,0.02-1.96,0.04-2.65,0.05
						C205.05,364.98,204.71,364.97,204.71,364.95z"/>
				</g>
			</g>
			<g>
				<g>
					<path class="st0" d="M228.81,363.8c-0.02-0.01,0.13-0.35,0.42-0.95c0.32-0.66,0.75-1.51,1.25-2.54
						c1.06-2.15,2.51-5.12,4.01-8.45c1.51-3.33,2.8-6.37,3.72-8.59c0.44-1.06,0.81-1.94,1.09-2.62c0.26-0.62,0.41-0.96,0.44-0.95
						c0.02,0.01-0.09,0.36-0.31,1c-0.22,0.63-0.56,1.54-0.99,2.66c-0.86,2.24-2.12,5.31-3.63,8.64c-1.51,3.33-2.99,6.3-4.11,8.42
						c-0.56,1.06-1.02,1.91-1.35,2.5C229.02,363.49,228.83,363.81,228.81,363.8z"/>
				</g>
			</g>
		</g>
		<g>
			<g>
				<g>
					<g>
						<g>
							<path class="st2" d="M321.8,216.22c-11.91-13.35-10.76-32.62-6.26-49.11c0.75-2.75,1.14-5.75,3.04-7.88
								c1.9-2.12,5.37-3.06,7.58-1.3c1.83,1.46,2.16,4.07,2.85,6.33c0.91,3,2.68,5.73,5.04,7.76c1.55,1.34,3.6,2.41,5.58,1.87
								c2.71-0.75,3.77-4,4.41-6.76c1.19-5.15,2.37-10.31,3.56-15.46c0.64-2.76,1.3-5.59,2.78-8c1.48-2.42,3.95-4.4,6.75-4.52
								c2.8-0.11,5.69,2.17,5.6,5c-0.04,1.18-0.54,2.29-0.74,3.46c-0.19,1.16,0.04,2.56,1.05,3.14c1.03,0.58,2.32,0.06,3.33-0.55
								c3.51-2.11,6.29-5.25,8.95-8.39c2.65-3.14,5.27-6.38,8.58-8.81c3.31-2.43,7.45-3.99,11.46-3.28
								c4.01,0.71,7.64,4.15,7.72,8.27c0.08,4.13-3.13,7.54-6.34,10.11c-4.77,3.81-10.09,6.91-15.73,9.19
								c-1.02,0.41-2.12,0.86-2.69,1.8c-1.04,1.7,0.28,3.94,1.95,4.98c1.9,1.17,4.18,1.49,6.27,2.25c2.09,0.76,4.2,2.27,4.53,4.49
								c0.46,3.09-2.6,5.49-5.38,6.88c-5.57,2.78-11.61,4.59-17.76,5.32c-2.21,0.26-4.5,0.41-6.47,1.45
								c-1.98,1.04-3.55,3.29-3.02,5.47c0.53,2.18,2.92,3.41,5.14,3.51c2.22,0.11,4.4-0.59,6.61-0.88
								c4.13-0.53,8.97,0.89,10.63,4.74c1.09,2.53,0.52,5.57-0.9,7.95c-1.42,2.38-3.58,4.2-5.8,5.83
								c-7.77,5.69-16.92,9.59-26.44,10.56C338.15,222.6,329.79,221.49,321.8,216.22"/>
						</g>
					</g>
				</g>
			</g>
			<g>
				<g>
					<g>
						<g>
							<g>
								<path class="st0" d="M324.22,217.82c2.16-6.45-0.1-3.21,4.35-11.01c4.44-7.81,10.01-15.97,16.13-24.31
									c1.54-2.08,3.06-4.13,4.56-6.16c1.5-2.02,2.99-4.02,4.56-5.88c3.14-3.75,6.44-7.11,9.67-10.21c3.23-3.1,6.41-5.92,9.4-8.54
									c3-2.61,5.84-4.99,8.52-7.05c5.35-4.14,10.06-6.96,13.37-8.77c1.65-0.91,2.96-1.57,3.85-2.01c0.43-0.21,0.76-0.37,1.02-0.49
									c0.23-0.11,0.35-0.16,0.35-0.15c0,0.01-0.11,0.08-0.33,0.2c-0.25,0.13-0.58,0.31-0.99,0.54c-0.87,0.47-2.16,1.16-3.8,2.09
									c-3.27,1.86-7.93,4.72-13.24,8.88c-2.66,2.07-5.48,4.46-8.46,7.09c-2.98,2.63-6.14,5.46-9.36,8.56
									c-3.21,3.1-6.49,6.46-9.61,10.19c-1.56,1.86-3.04,3.84-4.54,5.87c-1.5,2.02-3.01,4.08-4.55,6.15
									c-6.12,8.33-11.69,16.46-16.13,24.24c-4.46,7.77-2.22,4.48-4.42,10.89"/>
							</g>
						</g>
					</g>
				</g>
			</g>
			<g>
				<g>
					<g>
						<g>
							<g>
								<path class="st0" d="M353.96,170.48c-0.04,0-0.03-0.44,0.01-1.24c0.04-0.8,0.13-1.95,0.26-3.37
									c0.26-2.84,0.75-6.75,1.32-11.06c0.56-4.31,1-8.22,1.22-11.06c0.11-1.42,0.19-2.57,0.24-3.36c0.05-0.8,0.09-1.24,0.13-1.24
									c0.04,0,0.06,0.44,0.07,1.24c0.02,0.8-0.01,1.95-0.07,3.38c-0.12,2.85-0.5,6.78-1.07,11.1c-0.56,4.25-1.08,8.1-1.47,11.04
									c-0.17,1.33-0.31,2.45-0.42,3.35C354.07,170.04,354,170.48,353.96,170.48z"/>
							</g>
						</g>
					</g>
				</g>
			</g>
			<g>
				<g>
					<g>
						<g>
							<g>
								<path class="st0" d="M391.03,172.25c-0.01,0.04-0.53-0.03-1.46-0.17c-0.93-0.13-2.27-0.34-3.94-0.53
									c-3.33-0.42-7.96-0.84-13.09-1.07c-5.13-0.23-9.77-0.24-13.14-0.15c-1.68,0.03-3.04,0.1-3.98,0.13
									c-0.94,0.04-1.46,0.05-1.47,0.01c0-0.04,0.51-0.11,1.45-0.22c0.94-0.1,2.3-0.22,3.98-0.3c3.37-0.19,8.03-0.24,13.17-0.01
									c5.14,0.24,9.78,0.72,13.11,1.23c1.67,0.24,3.01,0.5,3.93,0.7C390.54,172.09,391.04,172.21,391.03,172.25z"/>
							</g>
						</g>
					</g>
				</g>
			</g>
			<g>
				<g>
					<g>
						<g>
							<g>
								<path class="st0" d="M329.16,206.26c-0.02,0-0.07-0.16-0.14-0.49c-0.08-0.39-0.18-0.86-0.3-1.43
									c-0.26-1.24-0.58-3.05-0.96-5.28c-0.75-4.47-1.59-10.68-2.43-17.55c-0.84-6.87-1.62-13.08-2.27-17.56
									c-0.32-2.18-0.59-3.97-0.79-5.31c-0.08-0.58-0.15-1.05-0.21-1.45c-0.04-0.33-0.06-0.51-0.04-0.51
									c0.02,0,0.07,0.17,0.14,0.49c0.08,0.39,0.18,0.86,0.3,1.43c0.26,1.24,0.58,3.05,0.96,5.28c0.75,4.47,1.59,10.68,2.43,17.55
									c0.84,6.87,1.62,13.07,2.27,17.56c0.33,2.18,0.59,3.97,0.79,5.31c0.08,0.58,0.15,1.06,0.21,1.45
									C329.16,206.08,329.18,206.26,329.16,206.26z"/>
							</g>
						</g>
					</g>
				</g>
			</g>
			<g>
				<g>
					<g>
						<g>
							<g>
								<path class="st0" d="M379.93,202.23c0,0.02-0.18,0.05-0.51,0.08c-0.4,0.04-0.89,0.08-1.48,0.13
									c-1.36,0.11-3.2,0.26-5.44,0.44c-4.59,0.37-10.93,0.96-17.93,1.62c-7,0.66-13.35,1.19-17.95,1.47
									c-2.3,0.14-4.16,0.23-5.45,0.27c-0.59,0.01-1.09,0.03-1.48,0.04c-0.34,0-0.52-0.01-0.52-0.02c0-0.02,0.18-0.05,0.51-0.08
									c0.4-0.04,0.89-0.08,1.48-0.13c1.36-0.11,3.2-0.26,5.44-0.44c4.59-0.37,10.93-0.96,17.93-1.62c7-0.66,13.35-1.19,17.95-1.47
									c2.3-0.14,4.16-0.23,5.45-0.27c0.6-0.01,1.08-0.03,1.48-0.04C379.75,202.21,379.93,202.21,379.93,202.23z"/>
							</g>
						</g>
					</g>
				</g>
			</g>
		</g>
		<g>
			<g>
				<g>
					<g>
						<g>
							<g>
								<path class="st0" d="M419.31,304c0.01,0-0.05,0.16-0.17,0.47c-0.14,0.33-0.32,0.77-0.55,1.33c-0.51,1.2-1.23,2.89-2.13,5.03
									c-1.88,4.35-4.53,10.49-7.71,17.83l-0.05,0.11l-0.12,0.02c-7.11,1.17-15.4,2.54-24.22,4c-2.76,0.45-5.48,0.9-8.12,1.33
									l-0.37,0.06l0.09-0.36c1.97-7.79,3.79-14.96,5.34-21.05l0.11,0.23c-5.91-2.64-10.79-4.82-14.23-6.36
									c-1.67-0.76-2.99-1.36-3.93-1.79c-0.43-0.2-0.76-0.36-1.02-0.48c-0.23-0.11-0.35-0.17-0.34-0.18c0-0.01,0.13,0.03,0.37,0.13
									c0.27,0.11,0.61,0.25,1.05,0.43c0.95,0.4,2.28,0.97,3.97,1.69c3.46,1.5,8.36,3.63,14.3,6.2l0.16,0.07l-0.04,0.17
									c-1.52,6.1-3.31,13.28-5.25,21.08l-0.28-0.3c2.64-0.43,5.35-0.88,8.12-1.33c8.82-1.43,17.12-2.78,24.23-3.94l-0.16,0.13
									c3.24-7.31,5.95-13.42,7.87-17.76c0.95-2.12,1.71-3.79,2.25-4.98c0.25-0.55,0.46-0.98,0.61-1.31
									C419.22,304.15,419.3,304,419.31,304z"/>
							</g>
						</g>
					</g>
				</g>
			</g>
			<g>
				<g>
					<g>
						<g>
							<polygon class="st0" points="379.1,331.25 378.43,332.99 379.49,334.53 377.63,334.44 376.5,335.92 376.01,334.12 
								374.25,333.5 375.81,332.48 375.86,330.62 377.31,331.79 							"/>
						</g>
					</g>
				</g>
			</g>
			<g>
				<g>
					<g>
						<g>
							<polygon class="st0" points="362.47,303 362.14,303.87 362.66,304.63 361.74,304.58 361.18,305.32 360.93,304.43 
								360.06,304.12 360.83,303.61 360.85,302.68 361.58,303.26 							"/>
						</g>
					</g>
				</g>
			</g>
			<g>
				<g>
					<g>
						<g>
							<polygon class="st0" points="409.44,327.57 409.11,328.43 409.63,329.2 408.71,329.15 408.15,329.89 407.9,328.99 
								407.03,328.69 407.8,328.18 407.83,327.25 408.55,327.83 							"/>
						</g>
					</g>
				</g>
			</g>
			<g>
				<g>
					<g>
						<g>
							<polygon class="st0" points="382.33,311.97 382,312.83 382.53,313.6 381.6,313.55 381.04,314.29 380.8,313.39 379.92,313.09 
								380.7,312.58 380.72,311.65 381.44,312.23 							"/>
						</g>
					</g>
				</g>
			</g>
			<g>
				<g>
					<g>
						<g>
							<polygon class="st0" points="420.44,303.14 420.11,304 420.64,304.76 419.71,304.72 419.15,305.46 418.91,304.56 
								418.03,304.26 418.81,303.75 418.83,302.82 419.55,303.4 							"/>
						</g>
					</g>
				</g>
			</g>
		</g>
		<g>
			<g>
				<g>
					<g>
						<g>
							<g>
								<path class="st0" d="M117.34,375.91h52.35c0,0-4.63-8.42-18.1-7.2c-12.87,1.17-13.52-4.14-20.07-4.8
									C124.98,363.25,119.53,368.27,117.34,375.91z"/>
							</g>
						</g>
					</g>
				</g>
			</g>
		</g>
		<g>
			<g>
				<g>
					<g>
						<g>
							<g>
								<path class="st2" d="M127.74,169.79h52.35c0,0-4.63-8.42-18.1-7.2c-12.87,1.17-13.52-4.14-20.07-4.8
									C135.37,157.14,129.92,162.16,127.74,169.79z"/>
							</g>
						</g>
					</g>
				</g>
			</g>
		</g>
		<g>
			<g>
				<g>
					<g>
						<g>
							<g>
								<path class="st2" d="M393.62,206.2h43.01c0,0-3.8-6.92-14.88-5.91c-10.57,0.96-11.11-3.41-16.49-3.94
									C399.89,195.8,395.41,199.93,393.62,206.2z"/>
							</g>
						</g>
					</g>
				</g>
			</g>
		</g>
	</g>
</g>
<g id="Background_Simple" class="st3">
	<path class="st4" d="M418.49,123.27L418.49,123.27c-14.27-23.22-38.06-39.24-65.08-42.87c-10.5-1.41-21.21-1.1-31.59,1.09
		c-30.95,6.54-57.89,29.66-69.05,59.26c-6.57,17.41-8.4,37.45-20.86,51.27c-16.22,17.98-43.74,18.55-67.95,17.8
		c-24.2-0.75-51.75-0.11-67.89,17.95c-10.11,11.31-13.32,27.39-12.5,42.53c2.16,40.09,30.45,75.94,66.43,93.76
		c35.98,17.82,78.34,19.41,117.72,11.58c55.16-10.98,107.62-41.14,139.16-87.71c30.04-44.38,38.71-104.07,17.64-153.09
		C422.8,130.84,420.77,126.98,418.49,123.27z"/>
</g>
<g id="Pencil">
	<g>
		<g>
			<path class="st5" d="M307.73,291.09c2.14-16.12-9.2-29.42-23.36-37.41c-14.16-7.99-30.59-10.67-46.23-15.11
				c-14.75-4.19-29.42-10.31-40.35-21.07c-10.93-10.76-17.48-26.93-13.55-41.76c0.99-3.72,2.75-7.46,5.94-9.61
				c3.2-2.15,8.08-2.09,10.46,0.93c5.08,6.44-4.82,17.97,1.38,23.34c1.42,1.23,3.38,1.69,4.85,2.86c3.92,3.12,2.65,9.2,3.2,14.18
				c1.09,9.85,10.33,16.69,19.4,20.68c12.15,5.34,25.31,7.86,38.2,11.03c12.89,3.17,25.88,7.16,36.62,14.96
				c10.74,7.8,20.05,20.01,19.98,33.28c-0.02,3.71-0.49,8.27-2.82,11.16c-2.33,2.89-5.29,3.49-8.65,1.91
				C309.46,298.89,307.11,296.45,307.73,291.09"/>
			<g class="st6">
				<path class="st7" d="M307.73,291.09c2.14-16.12-9.2-29.42-23.36-37.41c-14.16-7.99-30.59-10.67-46.23-15.11
					c-14.75-4.19-29.42-10.31-40.35-21.07c-10.93-10.76-17.48-26.93-13.55-41.76c0.99-3.72,2.75-7.46,5.94-9.61
					c3.2-2.15,8.08-2.09,10.46,0.93c5.08,6.44-4.82,17.97,1.38,23.34c1.42,1.23,3.38,1.69,4.85,2.86c3.92,3.12,2.65,9.2,3.2,14.18
					c1.09,9.85,10.33,16.69,19.4,20.68c12.15,5.34,25.31,7.86,38.2,11.03c12.89,3.17,25.88,7.16,36.62,14.96
					c10.74,7.8,20.05,20.01,19.98,33.28c-0.02,3.71-0.49,8.27-2.82,11.16c-2.33,2.89-5.29,3.49-8.65,1.91
					C309.46,298.89,307.11,296.45,307.73,291.09"/>
			</g>
		</g>
		<g>
			<path class="st5" d="M239.23,162.97c-0.51-5.97,3.94-11.17,9-13.96c5.06-2.79,10.85-3.92,16.07-6.39
				c12.95-6.14,21.18-20.58,21.79-35.4c0.61-14.82-5.81-29.62-15.86-40.51c-4.08-4.42-9.11-9.05-9.17-15.09
				c-0.06-6.3,6.04-11.26,12.14-11.18c6.1,0.08,11.72,4.16,15.37,9.3s5.67,11.26,7.64,17.26c-1.4-2.51,1.48-5.62,4.25-5.36
				c2.77,0.27,4.96,2.58,6.67,4.88c7.35,9.89,10.98,22.6,9.97,34.84c-1.01,12.24-6.67,23.89-15.5,31.95
				c-9.87,8.99-22.92,13.21-35.57,17.2c-8.81,2.78-17.61,5.56-26.42,8.34"/>
			<g class="st6">
				<path class="st7" d="M239.23,162.97c-0.51-5.97,3.94-11.17,9-13.96c5.06-2.79,10.85-3.92,16.07-6.39
					c12.95-6.14,21.18-20.58,21.79-35.4c0.61-14.82-5.81-29.62-15.86-40.51c-4.08-4.42-9.11-9.05-9.17-15.09
					c-0.06-6.3,6.04-11.26,12.14-11.18c6.1,0.08,11.72,4.16,15.37,9.3s5.67,11.26,7.64,17.26c-1.4-2.51,1.48-5.62,4.25-5.36
					c2.77,0.27,4.96,2.58,6.67,4.88c7.35,9.89,10.98,22.6,9.97,34.84c-1.01,12.24-6.67,23.89-15.5,31.95
					c-9.87,8.99-22.92,13.21-35.57,17.2c-8.81,2.78-17.61,5.56-26.42,8.34"/>
			</g>
		</g>
		<g>
			<path class="st5" d="M231.88,37.52c-2.62,1.1-4.06,4.43-3.07,7.1c0.99,2.67,4.25,4.25,6.96,3.38c2.71-0.87,4.43-4.06,3.68-6.81
				c-0.75-2.75-3.86-4.6-6.64-3.97"/>
			<g class="st6">
				<path class="st7" d="M231.88,37.52c-2.62,1.1-4.06,4.43-3.07,7.1c0.99,2.67,4.25,4.25,6.96,3.38c2.71-0.87,4.43-4.06,3.68-6.81
					c-0.75-2.75-3.86-4.6-6.64-3.97"/>
			</g>
		</g>
	</g>
	<g>
		<path class="st5" d="M264.45,422.84c-3.24-6.71-0.42-15.08,4.74-20.46c5.16-5.38,12.2-8.45,19.03-11.45
			c15.05-6.63,30.99-14.53,38.65-29.09c2.58-4.91,4.05-10.31,5.5-15.67c2.81-10.36,5.44-22.13-0.21-31.26
			c-1.63-2.63-4.07-4.96-7.11-5.5c-3.46-0.61-7.02,1.29-9.16,4.09c-2.13,2.79-3.05,6.34-3.49,9.82c-0.84,6.64-0.14,13.39-0.84,20.04
			c-0.7,6.65-3.13,13.61-8.62,17.44c-6.66,4.65-16.17,3.6-22.65,8.51c-5.23,3.96-7.22,10.84-11.3,15.97
			c-3.44,4.31-8.24,7.26-12.65,10.57c-4.4,3.32-8.66,7.36-10.16,12.67c-1.55,5.51,0.39,11.85,4.77,15.54
			c4.38,3.69,10.95,4.54,16.12,2.08"/>
		<g class="st6">
			<path class="st7" d="M264.45,422.84c-3.24-6.71-0.42-15.08,4.74-20.46c5.16-5.38,12.2-8.45,19.03-11.45
				c15.05-6.63,30.99-14.53,38.65-29.09c2.58-4.91,4.05-10.31,5.5-15.67c2.81-10.36,5.44-22.13-0.21-31.26
				c-1.63-2.63-4.07-4.96-7.11-5.5c-3.46-0.61-7.02,1.29-9.16,4.09c-2.13,2.79-3.05,6.34-3.49,9.82
				c-0.84,6.64-0.14,13.39-0.84,20.04c-0.7,6.65-3.13,13.61-8.62,17.44c-6.66,4.65-16.17,3.6-22.65,8.51
				c-5.23,3.96-7.22,10.84-11.3,15.97c-3.44,4.31-8.24,7.26-12.65,10.57c-4.4,3.32-8.66,7.36-10.16,12.67
				c-1.55,5.51,0.39,11.85,4.77,15.54c4.38,3.69,10.95,4.54,16.12,2.08"/>
		</g>
	</g>
	<g>
		<g>
			<path class="st5" d="M164.33,83.86c-5.3-3.93-8.54-10.51-8.42-17.11c0.12-6.6,3.59-13.05,9.02-16.8
				c3.07-2.12,6.72-3.41,9.45-5.95c2.43-2.26,4.01-5.39,6.73-7.29c3.38-2.36,8.28-2.26,11.56,0.25c3.28,2.5,4.67,7.2,3.28,11.09
				c-1.25,3.51-4.4,6.07-5.72,9.56c-1.42,3.75-0.5,7.96-1.03,11.93c-0.65,4.89-3.62,9.42-7.84,11.96
				c-4.22,2.54-9.61,3.05-14.24,1.33"/>
			<g class="st6">
				<path class="st7" d="M164.33,83.86c-5.3-3.93-8.54-10.51-8.42-17.11c0.12-6.6,3.59-13.05,9.02-16.8
					c3.07-2.12,6.72-3.41,9.45-5.95c2.43-2.26,4.01-5.39,6.73-7.29c3.38-2.36,8.28-2.26,11.56,0.25c3.28,2.5,4.67,7.2,3.28,11.09
					c-1.25,3.51-4.4,6.07-5.72,9.56c-1.42,3.75-0.5,7.96-1.03,11.93c-0.65,4.89-3.62,9.42-7.84,11.96
					c-4.22,2.54-9.61,3.05-14.24,1.33"/>
			</g>
		</g>
		<g>
			<path class="st5" d="M171.59,93.16h-1.46c-2.99,0-5.41-2.42-5.41-5.41V62.42H177v25.34C177,90.74,174.58,93.16,171.59,93.16z"/>
			<polygon class="st8" points="164.71,62.42 170.86,51.15 177,62.42 			"/>
			<path class="st5" d="M168.42,55.61c0,0,1.87,2.81,4.87,0l-2.43-4.46L168.42,55.61z"/>
			<line class="st9" x1="166.53" y1="62.42" x2="169.17" y2="62.42"/>
		</g>
		<g>
			<path class="st10" d="M177.17,86.52c0,0.14-2.8,0.25-6.25,0.25c-3.45,0-6.25-0.11-6.25-0.25c0-0.14,2.8-0.25,6.25-0.25
				C174.37,86.27,177.17,86.38,177.17,86.52z"/>
		</g>
		<g>
			<path class="st10" d="M177.04,84.63c0,0.14-2.74,0.25-6.12,0.25c-3.38,0-6.12-0.11-6.12-0.25c0-0.14,2.74-0.25,6.12-0.25
				C174.3,84.39,177.04,84.5,177.04,84.63z"/>
		</g>
		<g>
			<path class="st11" d="M168.32,62.6c0.14,0,0.25,4.91,0.25,10.96c0,6.05-0.11,10.96-0.25,10.96c-0.14,0-0.25-4.9-0.25-10.96
				C168.07,67.5,168.18,62.6,168.32,62.6z"/>
		</g>
		<g>
			<path class="st11" d="M173.29,62.6c0.14,0,0.25,4.91,0.25,10.96c0,6.05-0.11,10.96-0.25,10.96c-0.14,0-0.25-4.9-0.25-10.96
				C173.04,67.5,173.15,62.6,173.29,62.6z"/>
		</g>
	</g>
</g>
<g id="Notebook">
	<g>
		<polygon class="st10" points="271.48,408.72 327.32,411.11 328.67,414.36 292.07,473.76 226.01,471.83 		"/>
		<polygon class="st0" points="223.51,466.04 289.97,469.84 324.68,415.97 300.3,417.95 238.61,439.67 		"/>
		<g>
			<path class="st1" d="M214.17,462.05l61.03,0.96c-2.54-7.81,3.44-18.8,11.65-22.5c5.44-2.45,15.67-5.63,20.95-8.34
				c10.03-5.15,19.1-14.89,18.31-23.26l-25.07-0.8l-31.99-1.24c-2.67,7.94-8.4,13.13-17.1,16.26c-7.78,2.8-16.64,2.79-24.24,5.97
				C215.49,434.23,209.62,450.82,214.17,462.05"/>
			<g>
				<path class="st10" d="M214.17,462.05c0,0-0.06-0.13-0.15-0.39c-0.1-0.28-0.24-0.67-0.42-1.18c-0.21-0.51-0.34-1.19-0.52-1.98
					c-0.22-0.79-0.29-1.72-0.42-2.78c-0.15-2.11-0.13-4.75,0.48-7.76c0.62-2.99,1.8-6.37,3.91-9.69c0.55-0.81,1.07-1.68,1.76-2.45
					c0.33-0.4,0.64-0.82,1-1.21c0.37-0.38,0.75-0.76,1.13-1.14c0.37-0.4,0.79-0.75,1.22-1.1c0.43-0.35,0.85-0.72,1.31-1.05
					c0.96-0.6,1.88-1.3,2.97-1.77c4.23-2.13,9.28-3.03,14.54-3.98c2.64-0.48,5.35-0.98,8.08-1.73c2.72-0.77,5.45-1.8,8.04-3.24
					c1.3-0.71,2.56-1.53,3.76-2.46c1.2-0.92,2.32-1.97,3.33-3.15c2.05-2.32,3.6-5.14,4.64-8.18l0.06-0.16l0.17,0.01
					c8.5,0.32,17.41,0.66,26.66,1.02c9.24,0.36,18.81,0.61,28.61,0.94c0.6,0.02,1.2,0.04,1.79,0.06l0.22,0.01l0.02,0.22
					c0.17,1.93-0.18,3.86-0.81,5.64c-0.28,0.91-0.72,1.75-1.12,2.6c-0.47,0.81-0.91,1.64-1.46,2.4c-2.08,3.11-4.75,5.71-7.56,7.99
					c-2.84,2.27-5.92,4.15-9.12,5.64c-3.22,1.45-6.48,2.63-9.67,3.81c-3.19,1.18-6.35,2.3-9.35,3.6c-1.47,0.68-2.88,1.47-4.11,2.49
					c-0.65,0.46-1.19,1.05-1.78,1.57c-0.52,0.59-1.1,1.12-1.57,1.75c-1.97,2.42-3.45,5.16-4.27,8.02c-0.86,2.84-0.96,5.85-0.15,8.54
					l0.08,0.27l-0.28,0c-18.49-0.33-33.74-0.6-44.38-0.79c-5.31-0.11-9.46-0.19-12.31-0.25c-1.41-0.04-2.48-0.06-3.23-0.08
					C214.55,462.07,214.17,462.05,214.17,462.05c0,0,0.38-0.01,1.11-0.01c0.74,0,1.82,0.01,3.23,0.02c2.85,0.03,7,0.08,12.31,0.14
					c10.65,0.15,25.9,0.36,44.39,0.61l-0.2,0.27c-0.85-2.78-0.75-5.88,0.13-8.78c0.83-2.93,2.33-5.72,4.33-8.18
					c0.47-0.64,1.06-1.19,1.59-1.79c0.6-0.53,1.15-1.13,1.82-1.6c1.25-1.05,2.7-1.86,4.2-2.56c3.02-1.32,6.18-2.44,9.37-3.63
					c3.19-1.18,6.44-2.37,9.63-3.8c3.17-1.47,6.21-3.34,9.02-5.58c2.78-2.26,5.41-4.83,7.46-7.89c0.54-0.74,0.97-1.56,1.43-2.35
					c0.39-0.83,0.81-1.65,1.09-2.53c0.6-1.73,0.94-3.59,0.78-5.43l0.24,0.22c-0.59-0.02-1.19-0.04-1.79-0.06
					c-9.8-0.33-19.37-0.58-28.61-0.95c-9.24-0.36-18.16-0.71-26.66-1.04l0.23-0.16c-1.06,3.09-2.64,5.97-4.74,8.33
					c-1.03,1.19-2.18,2.26-3.4,3.2c-1.21,0.95-2.49,1.78-3.82,2.49c-2.63,1.45-5.4,2.48-8.14,3.26c-2.75,0.75-5.48,1.25-8.12,1.72
					c-5.26,0.94-10.29,1.82-14.46,3.91c-1.07,0.46-1.99,1.15-2.93,1.73c-0.45,0.33-0.87,0.69-1.29,1.03
					c-0.43,0.34-0.85,0.68-1.21,1.08c-0.38,0.38-0.75,0.75-1.12,1.12c-0.36,0.38-0.66,0.8-0.99,1.19c-0.68,0.77-1.2,1.62-1.75,2.42
					c-2.11,3.27-3.3,6.61-3.94,9.58c-0.63,2.98-0.68,5.6-0.55,7.7c0.12,1.05,0.18,1.98,0.38,2.77c0.17,0.79,0.28,1.46,0.48,1.98
					c0.16,0.51,0.29,0.91,0.38,1.19C214.14,461.91,214.17,462.05,214.17,462.05z"/>
			</g>
		</g>
		<g>
			<path class="st10" d="M286.19,407.87c-0.04-0.01,0.08-0.39,0.14-1.09c0.05-0.69,0.01-1.73-0.48-2.88
				c-0.47-1.13-1.41-2.39-2.88-3.09c-1.46-0.7-3.38-0.85-5.14-0.18c-1.77,0.65-3.05,2.09-3.72,3.58c-0.69,1.49-0.79,3.03-0.59,4.25
				c0.2,1.23,0.67,2.16,1.04,2.75c0.38,0.59,0.66,0.87,0.63,0.9c-0.02,0.02-0.35-0.22-0.79-0.79c-0.44-0.57-0.97-1.51-1.23-2.8
				c-0.25-1.27-0.2-2.91,0.52-4.5c0.68-1.58,2.04-3.15,3.96-3.85c1.89-0.71,3.96-0.54,5.52,0.24c1.59,0.78,2.56,2.16,3.01,3.37
				c0.47,1.23,0.46,2.32,0.35,3.03c-0.06,0.36-0.13,0.63-0.2,0.81C286.25,407.79,286.21,407.87,286.19,407.87z"/>
		</g>
		<g>
			<path class="st10" d="M295.76,407.87c-0.04-0.01,0.08-0.39,0.14-1.09c0.05-0.69,0.01-1.73-0.48-2.88
				c-0.47-1.13-1.41-2.39-2.89-3.09c-1.46-0.7-3.38-0.85-5.14-0.18c-1.77,0.65-3.05,2.09-3.71,3.58c-0.69,1.49-0.79,3.03-0.59,4.25
				c0.2,1.23,0.67,2.16,1.04,2.75c0.38,0.59,0.66,0.87,0.63,0.9c-0.02,0.02-0.35-0.22-0.79-0.79c-0.44-0.57-0.97-1.51-1.23-2.8
				c-0.25-1.27-0.2-2.91,0.52-4.5c0.68-1.58,2.04-3.15,3.96-3.85c1.89-0.71,3.96-0.54,5.52,0.24c1.59,0.78,2.56,2.16,3.01,3.37
				c0.47,1.23,0.46,2.32,0.35,3.03c-0.06,0.36-0.13,0.63-0.2,0.81C295.82,407.79,295.77,407.87,295.76,407.87z"/>
		</g>
		<g>
			<path class="st10" d="M303.02,408.37c-0.05-0.01,0.06-0.4,0.08-1.1c0.01-0.7-0.09-1.73-0.64-2.85c-0.53-1.11-1.54-2.31-3.06-2.92
				c-1.49-0.62-3.43-0.66-5.14,0.11c-1.73,0.75-2.93,2.26-3.51,3.78c-0.61,1.53-0.61,3.07-0.35,4.28c0.27,1.22,0.79,2.12,1.2,2.68
				c0.41,0.57,0.71,0.84,0.68,0.87c-0.02,0.02-0.36-0.2-0.83-0.75c-0.47-0.55-1.06-1.45-1.39-2.72c-0.33-1.26-0.36-2.89,0.26-4.52
				c0.59-1.62,1.86-3.26,3.73-4.07c1.85-0.82,3.92-0.77,5.52-0.07c1.63,0.69,2.68,2.01,3.2,3.2c0.54,1.2,0.59,2.29,0.52,3.01
				c-0.04,0.36-0.1,0.64-0.16,0.82C303.08,408.28,303.04,408.37,303.02,408.37z"/>
		</g>
		<g>
			<path class="st10" d="M310.81,408.81c-0.05-0.01,0.04-0.4,0.02-1.1c-0.02-0.7-0.18-1.72-0.79-2.81
				c-0.59-1.08-1.66-2.23-3.21-2.76c-1.52-0.54-3.45-0.47-5.13,0.38c-1.69,0.84-2.8,2.42-3.3,3.96c-0.53,1.56-0.45,3.1-0.12,4.29
				c0.33,1.2,0.9,2.07,1.34,2.62c0.44,0.55,0.75,0.8,0.72,0.83c-0.01,0.02-0.37-0.18-0.87-0.7c-0.5-0.52-1.13-1.39-1.53-2.64
				c-0.39-1.24-0.51-2.87,0.02-4.53c0.5-1.64,1.68-3.35,3.51-4.26c1.81-0.92,3.87-0.97,5.51-0.37c1.67,0.6,2.78,1.87,3.36,3.02
				c0.6,1.17,0.71,2.26,0.68,2.98c-0.02,0.36-0.06,0.64-0.11,0.82C310.86,408.72,310.83,408.81,310.81,408.81z"/>
		</g>
		<g>
			<path class="st10" d="M318.61,408.63c-0.05-0.01,0.03-0.4-0.01-1.1c-0.04-0.69-0.23-1.72-0.87-2.79
				c-0.62-1.06-1.72-2.18-3.28-2.67c-1.54-0.5-3.47-0.38-5.12,0.52c-1.67,0.89-2.73,2.49-3.19,4.05c-0.48,1.57-0.36,3.11,0,4.29
				c0.37,1.19,0.96,2.05,1.41,2.58c0.46,0.54,0.77,0.78,0.75,0.81c-0.01,0.02-0.37-0.17-0.89-0.68c-0.51-0.51-1.17-1.36-1.6-2.6
				c-0.43-1.23-0.59-2.85-0.11-4.53c0.46-1.66,1.59-3.4,3.39-4.36c1.78-0.97,3.85-1.08,5.5-0.52c1.68,0.55,2.83,1.79,3.44,2.93
				c0.63,1.15,0.78,2.24,0.76,2.96c-0.01,0.36-0.04,0.64-0.09,0.83C318.66,408.53,318.63,408.63,318.61,408.63z"/>
		</g>
		<g>
			<path class="st10" d="M325.19,409.5c-0.05-0.01,0.04-0.4,0.03-1.1c-0.01-0.7-0.16-1.73-0.76-2.82c-0.58-1.08-1.63-2.24-3.17-2.79
				c-1.52-0.56-3.45-0.51-5.14,0.32c-1.7,0.82-2.83,2.38-3.35,3.92c-0.54,1.55-0.49,3.09-0.17,4.29c0.32,1.21,0.87,2.08,1.31,2.63
				c0.43,0.55,0.74,0.81,0.71,0.84c-0.01,0.02-0.37-0.18-0.86-0.71c-0.49-0.53-1.12-1.41-1.5-2.66c-0.38-1.24-0.48-2.87,0.07-4.53
				c0.52-1.64,1.72-3.33,3.56-4.22c1.82-0.9,3.89-0.93,5.52-0.3c1.66,0.62,2.76,1.9,3.33,3.06c0.59,1.18,0.69,2.27,0.64,2.99
				c-0.02,0.36-0.07,0.64-0.12,0.82C325.24,409.41,325.21,409.51,325.19,409.5z"/>
		</g>
	</g>
</g>
<g id="Air_Balloon">
	<g>
		<path class="st5" d="M353.95,204.65c-2.63-0.07-5.41,0.02-8.27,0.37c-17.23,2.14-30.07,16.94-30.04,34.3
			c0.01,5.06,0.55,10.71,2.14,16.35c4.81,17.06,6.29,32.09,5.74,39.41l16.1,8.65c0,0,7.45-10.71,14.65-15.32
			c7.2-4.62,31.16-16.96,40.65-29.66c6.12-8.18,7.29-24.97-7.29-39.66C378.72,210.13,366.59,205.01,353.95,204.65z"/>
		<polygon class="st12" points="315.9,313.71 330.44,321.57 320.98,333.59 311.28,329.19 		"/>
		<g>
			<path class="st10" d="M316.61,314.2c-0.13-0.05,1.31-4.36,3.22-9.64c1.91-5.28,3.56-9.52,3.69-9.47
				c0.13,0.05-1.31,4.36-3.22,9.64C318.39,310,316.74,314.24,316.61,314.2z"/>
		</g>
		<g>
			<path class="st10" d="M329.53,320.98c-0.12-0.07,2.16-4.15,5.09-9.11c2.93-4.96,5.4-8.92,5.52-8.85
				c0.12,0.07-2.16,4.15-5.09,9.11C332.11,317.09,329.64,321.05,329.53,320.98z"/>
		</g>
		<g class="st13">
			<path d="M358.8,205.11c-0.65,0.04-8.65,9.4-12.19,15.74c-11.91,21.33-12.44,42.08-15.75,66.28c-0.47,3.46-2.19,10.91-2.16,10.74
				c1.76,1.38,7.68,4.13,7.68,4.13s5.58-6.74,7.8-10.13c8.89-13.58,18.53-24.16,26.14-38.49c7.61-14.33,14.93-27.04,7.89-41.66
				C378.22,211.72,366.02,204.7,358.8,205.11z"/>
		</g>
		<g>
			<path class="st10" d="M394.98,260.9c-0.01,0-0.08-0.15-0.21-0.46c-0.13-0.3-0.29-0.77-0.56-1.35c-0.52-1.16-1.38-2.84-2.81-4.73
				c-1.43-1.87-3.43-3.99-6.18-5.76c-2.7-1.82-6.19-3.26-10.13-3.75l-0.1-0.01l-0.06-0.08c-1.85-2.49-3.97-5.07-6.5-7.46
				c-2.52-2.38-5.47-4.57-8.87-6.11c-3.39-1.51-7.04-2.18-10.48-2c-3.44,0.17-6.67,1.27-9.17,3.06l-0.14,0.1l-0.13-0.12
				c-2.99-2.63-6.57-3.99-9.8-4.35c-3.25-0.37-6.13,0.22-8.33,1.06c-2.21,0.84-3.78,1.92-4.78,2.69c-0.5,0.39-0.88,0.71-1.12,0.94
				c-0.25,0.22-0.38,0.33-0.39,0.32c-0.01-0.01,0.11-0.14,0.34-0.38c0.23-0.24,0.59-0.58,1.08-1c0.99-0.82,2.54-1.94,4.78-2.83
				c2.22-0.89,5.15-1.53,8.47-1.18c3.3,0.34,6.97,1.7,10.05,4.39l-0.28-0.01c2.56-1.85,5.88-2.99,9.41-3.18
				c3.52-0.2,7.25,0.48,10.71,2.03c3.46,1.56,6.45,3.79,9,6.21c2.55,2.42,4.68,5.03,6.52,7.54l-0.15-0.09
				c4.03,0.52,7.56,2.02,10.28,3.89c2.77,1.83,4.77,4,6.19,5.91c1.41,1.93,2.24,3.64,2.73,4.83c0.25,0.59,0.38,1.07,0.49,1.38
				C394.94,260.74,394.99,260.9,394.98,260.9z"/>
		</g>
		<g>
			<path class="st10" d="M365.06,282.15c-0.1,0.03-0.08-1.45-1.39-3.5c-0.66-0.99-1.65-2.12-3.09-2.97
				c-1.41-0.87-3.29-1.46-5.33-1.26l-0.2,0.02l-0.03-0.2c-0.32-2.07-1.18-4.27-2.64-6.22c-1.45-1.94-3.49-3.67-5.97-4.64
				c-2.04-0.81-4.21-1.1-6.24-0.96c-2.04,0.15-3.95,0.73-5.56,1.57l-0.15,0.08l-0.12-0.13c-1.61-1.72-3.69-2.69-5.59-3.03
				c-1.91-0.39-3.65-0.19-5.01,0.16c-2.75,0.75-3.92,2.08-3.98,1.97c-0.01-0.01,0.06-0.08,0.21-0.22c0.15-0.13,0.36-0.34,0.68-0.57
				c0.63-0.45,1.62-1.04,3.01-1.45c1.38-0.4,3.17-0.63,5.15-0.26c1.97,0.32,4.15,1.29,5.85,3.09l-0.27-0.05
				c1.66-0.89,3.63-1.5,5.74-1.66c2.1-0.15,4.35,0.14,6.46,0.98c2.58,1,4.68,2.8,6.17,4.81c1.5,2.02,2.37,4.3,2.68,6.44l-0.23-0.18
				c2.15-0.19,4.11,0.46,5.55,1.39c1.48,0.91,2.47,2.09,3.12,3.13c0.64,1.05,0.93,1.99,1.07,2.63c0.07,0.32,0.08,0.57,0.1,0.74
				C365.06,282.07,365.07,282.15,365.06,282.15z"/>
		</g>
		<g>
			<path class="st10" d="M327.63,325.36c-0.04,0.03-0.16-0.2-0.53-0.35c-0.37-0.16-0.98-0.18-1.7,0.05
				c-0.37,0.1-0.79,0.23-1.29,0.24c-0.5,0.01-1.05-0.23-1.44-0.63c-0.77-0.8-1.07-1.97-1.79-2.77c-0.36-0.39-0.84-0.6-1.34-0.56
				c-0.5,0.02-1.01,0.19-1.52,0.3c-0.5,0.12-1.03,0.2-1.52,0.08c-0.49-0.1-0.88-0.34-1.19-0.61c-0.62-0.54-0.89-1.18-0.96-1.62
				c-0.08-0.44,0-0.69,0.02-0.69c0.04,0,0.04,0.24,0.17,0.64c0.12,0.39,0.42,0.94,0.99,1.39c0.29,0.22,0.64,0.41,1.05,0.48
				c0.4,0.08,0.85,0.01,1.33-0.12c0.48-0.12,1-0.31,1.61-0.35c0.61-0.05,1.29,0.23,1.72,0.71c0.85,0.96,1.11,2.11,1.76,2.79
				c0.32,0.34,0.71,0.53,1.12,0.54c0.41,0.02,0.81-0.09,1.19-0.16c0.76-0.2,1.47-0.13,1.87,0.12
				C327.59,325.07,327.65,325.36,327.63,325.36z"/>
		</g>
		<g>
			<path class="st10" d="M329.3,323.02c-0.06,0.12-3.24-1.45-7.09-3.5c-3.85-2.06-6.93-3.82-6.86-3.94c0.06-0.12,3.24,1.45,7.09,3.5
				C326.29,321.14,329.36,322.9,329.3,323.02z"/>
		</g>
		<g>
			<path class="st10" d="M326.41,326.69c0.01,0.04-0.2,0.1-0.55,0.26c-0.18,0.08-0.38,0.2-0.66,0.31c-0.28,0.12-0.64,0.16-1,0.13
				c-0.73-0.05-1.62-0.28-2.4-0.92c-0.38-0.31-0.71-0.77-0.91-1.26c-0.21-0.47-0.38-0.96-0.7-1.31c-0.66-0.71-1.74-0.79-2.63-0.76
				c-0.92,0.03-1.82,0.06-2.53-0.24c-0.7-0.29-1.12-0.79-1.28-1.17c-0.16-0.39-0.11-0.63-0.08-0.63c0.04-0.01,0.06,0.22,0.25,0.54
				c0.19,0.32,0.6,0.71,1.23,0.93c0.63,0.22,1.45,0.17,2.39,0.11c0.91-0.05,2.14-0.03,3.02,0.88c0.41,0.46,0.58,1,0.78,1.45
				c0.19,0.46,0.44,0.82,0.77,1.11c0.66,0.58,1.46,0.83,2.13,0.92c0.67,0.12,1.16-0.16,1.56-0.27
				C326.18,326.66,326.41,326.66,326.41,326.69z"/>
		</g>
	</g>
</g>
<g id="Character">
	<g>
		<g>
			<path class="st5" d="M216.62,233.3l25.15-3.73l-12.02-17.03l-6.45,0.38c-4.34,0.26-8.16,2.94-9.88,6.93v0
				c-0.91,2.12-1.17,4.47-0.73,6.73L216.62,233.3z"/>
			<path class="st13" d="M216.62,233.3l25.15-3.73l-12.02-17.03l-6.45,0.38c-4.34,0.26-8.16,2.94-9.88,6.93v0
				c-0.91,2.12-1.17,4.47-0.73,6.73L216.62,233.3z"/>
		</g>
		<g>
			<g>
				<path class="st8" d="M324.64,261.16c0.26,0.72,0.54,1.57,0.83,2.59c0.25,0.88,0.33,1.79,0.27,2.69
					c-0.07,1.1-0.23,2.56-0.57,3.33c-0.41,0.95,0.55,1.91,1.36,1.44c0.81-0.48,2.02-3.08,1.94-6.42c-0.07-3.35,3.34,0.66,4.61,2.1
					c1.27,1.44,5.41,5.71,6.16,5.67c1.1-0.06,1.24-1.25-0.06-2.66c-1.32-1.43-4.91-5.91-4.12-6.54c0.78-0.62,7.15,6.79,7.15,6.79
					s1.1,1.81,2.04,1.1c1.7-1.27-5.65-8.65-6.37-9.34c-0.5-0.48,0.34-1.2,0.85-0.66c0.52,0.56,6.18,7.55,7.92,6.27
					c1.33-0.98-5.99-6.13-6.36-8.23c-0.37-2.1,5.16,4.47,6.39,3.49c0.46-0.37,0.75-0.7-2.96-4.02c-1.8-1.61-8.66-6.41-8.66-6.41
					l-20.64-59.1l-15.94,9.13L324.64,261.16z"/>
			</g>
			<path class="st8" d="M201.77,149.4l-23.06-27.52l0,0c-0.3-0.95-0.66-1.87-1.13-2.74c-1.15-2.15-3.06-4.02-5.44-4.54
				c-1.46-0.32-3.14-0.17-4.28-1.13c-0.51-0.43-0.86-1.04-1.39-1.44c-0.54-0.4-1.43-0.48-1.78,0.1c-0.24,0.41-0.09,0.93,0.1,1.37
				c0.86,2.03,2.25,3.83,4,5.17c-2.16,0.66-5.25,1.65-5.25,1.65s-4.88-5.29-7.37-5.27c-2.5,0.02,2.02,4.72,2.02,4.72
				s-4-3.7-5.24-2.65c-1.24,1.04,1.94,3.78,1.94,3.78c-1.01-0.54-2.11-1.1-3.24-0.91c-1.13,0.19-2.1,1.52-1.49,2.49
				c0.23,0.37,0.63,0.6,1.02,0.81c2.05,1.14,4.09,2.28,6.14,3.42c1.03,0.57,2.11,1.16,3.28,1.2c3.11,0.1,5.48-1.83,8.6-1.75
				c0,0,17.39,36.61,19.15,38.5c1.76,1.89,39.97,4.46,39.97,4.46l22.11-19.05L201.77,149.4z"/>
			<g>
				<path class="st5" d="M271.05,348.83l23.55,10.26l-12.61,29.37c-2.73-1.38-1.84-18.99-1.84-18.99l-15.36-5.95L271.05,348.83z"/>
				<g class="st14">
					<path class="st7" d="M282.77,359.84c0.4-0.5,1.21-0.62,1.72-0.24c0.52,0.38,0.65,1.2,0.25,1.71c-0.39,0.51-1.36,0.68-1.83,0.25
						c-0.47-0.43-0.57-1.41-0.07-1.81"/>
				</g>
				<path class="st15" d="M294.6,359.08l-2.41-0.94l-11.19,28.51c0,0,0.01,1.55,0.99,1.8L294.6,359.08z"/>
				<g>
					<path class="st10" d="M279.79,369.88c0.15,0.06,0.52-0.63,1.28-1.14c0.75-0.53,1.53-0.62,1.53-0.78
						c0.03-0.14-0.92-0.3-1.83,0.33C279.85,368.91,279.65,369.85,279.79,369.88z"/>
				</g>
				<g>
					<path class="st10" d="M279.74,373.5c0.12,0.09,0.64-0.42,1.45-0.65c0.81-0.25,1.52-0.09,1.57-0.24
						c0.08-0.13-0.72-0.59-1.73-0.28C280.03,372.62,279.61,373.44,279.74,373.5z"/>
				</g>
				<g>
					<path class="st10" d="M282.68,376.84c0.09-0.12-0.54-0.62-1.49-0.59c-0.94,0.02-1.54,0.57-1.45,0.68
						c0.08,0.13,0.69-0.12,1.47-0.14C281.98,376.75,282.6,376.97,282.68,376.84z"/>
				</g>
				<g>
					<path class="st10" d="M276.44,368.13c0.16,0,0.24-0.75,0.64-1.53c0.39-0.8,0.93-1.31,0.84-1.44c-0.07-0.13-0.86,0.26-1.33,1.19
						C276.13,367.28,276.3,368.15,276.44,368.13z"/>
				</g>
				<g>
					<path class="st10" d="M273.26,365.93c0.06,0.03,0.39-0.5,0.62-1.47c0.12-0.48,0.2-1.08,0.19-1.74c0-0.33-0.03-0.68-0.09-1.04
						c-0.03-0.17-0.05-0.37-0.16-0.59c-0.08-0.22-0.42-0.48-0.73-0.39c-0.29,0.05-0.5,0.28-0.6,0.49c-0.1,0.21-0.13,0.41-0.16,0.58
						c-0.06,0.36-0.08,0.71-0.08,1.05c0.01,0.67,0.14,1.27,0.31,1.74c0.34,0.95,0.77,1.42,0.82,1.38c0.08-0.04-0.23-0.57-0.45-1.49
						c-0.11-0.46-0.19-1.01-0.18-1.63c0.01-0.31,0.04-0.63,0.1-0.96c0.05-0.35,0.16-0.61,0.34-0.63c0.07-0.01,0.09,0,0.15,0.1
						c0.06,0.1,0.08,0.26,0.11,0.43c0.06,0.33,0.09,0.66,0.11,0.97c0.03,0.62,0,1.19-0.07,1.66
						C273.38,365.33,273.18,365.9,273.26,365.93z"/>
				</g>
				<g>
					<path class="st10" d="M273.54,365.84c0.04-0.04-0.35-0.55-1.25-1c-0.45-0.22-1.03-0.41-1.7-0.49
						c-0.33-0.04-0.69-0.04-1.05-0.01c-0.36,0.05-0.84,0.09-1.15,0.62c-0.14,0.29-0.01,0.62,0.15,0.79
						c0.16,0.18,0.32,0.27,0.47,0.38c0.32,0.2,0.66,0.34,0.99,0.43c0.66,0.18,1.29,0.14,1.79,0.02c1.01-0.25,1.44-0.77,1.39-0.8
						c-0.05-0.08-0.54,0.3-1.46,0.43c-0.45,0.06-1.01,0.05-1.58-0.13c-0.28-0.09-0.57-0.22-0.84-0.39
						c-0.29-0.18-0.49-0.41-0.41-0.51c0.06-0.15,0.4-0.29,0.7-0.31c0.33-0.04,0.65-0.04,0.95-0.02c0.61,0.04,1.15,0.18,1.59,0.35
						C273.02,365.52,273.49,365.9,273.54,365.84z"/>
				</g>
			</g>
			<g>
				<path class="st5" d="M252.91,389.17l9.74,20.41l3.05,18.36c0.22,1.32,1.51,2.18,2.82,1.87l0,0c0.73-0.17,1.33-0.68,1.61-1.38
					c1.79-4.43,8.3-20.78,7.5-22.23c-0.92-1.68-8.85-22.21-8.85-22.21L252.91,389.17z"/>
				<path class="st15" d="M268.52,429.82l8.49-25l0.39,0.87c0.34,0.76,0.4,1.61,0.17,2.4c-0.62,2.13-2.45,7.97-7.38,20.32
					C269.91,429.13,269.28,429.66,268.52,429.82L268.52,429.82z"/>
				<g class="st14">
					<path class="st7" d="M269.78,400.07c-0.36,0.59-0.17,1.45,0.4,1.83c0.57,0.38,1.45,0.2,1.81-0.38
						c0.37-0.58,0.18-1.62-0.43-1.93c-0.61-0.31-1.63-0.05-1.84,0.61"/>
				</g>
				<g>
					<path class="st10" d="M269.18,418.69c-0.09,0.11-1.04-0.76-2.53-0.79c-1.49-0.07-2.5,0.73-2.58,0.61
						c-0.04-0.04,0.15-0.32,0.6-0.61c0.45-0.29,1.17-0.53,2-0.5c0.82,0.03,1.53,0.33,1.96,0.64
						C269.06,418.36,269.22,418.65,269.18,418.69z"/>
				</g>
				<g>
					<path class="st10" d="M268.95,422.11c-0.06,0.13-1.02-0.24-2.23-0.07c-1.21,0.15-2.04,0.76-2.13,0.65
						c-0.11-0.08,0.69-0.96,2.07-1.14C268.04,421.36,269.04,422.01,268.95,422.11z"/>
				</g>
				<g>
					<path class="st10" d="M270.32,413.92c-0.05,0.14-1.53-0.44-3.43-0.33c-1.9,0.08-3.31,0.8-3.38,0.66
						c-0.08-0.1,1.32-1.07,3.36-1.16C268.91,412.98,270.4,413.82,270.32,413.92z"/>
				</g>
				<g>
					<path class="st10" d="M267.88,407.47c0,0.15-1.35,0.18-2.86,0.8c-1.52,0.59-2.52,1.5-2.62,1.39c-0.1-0.08,0.81-1.21,2.44-1.85
						C266.46,407.15,267.9,407.34,267.88,407.47z"/>
				</g>
				<g>
					<path class="st10" d="M265.17,401.4c-0.01,0.15-1.46-0.02-3,0.75c-1.55,0.74-2.3,2-2.43,1.92c-0.05-0.03,0.06-0.39,0.41-0.88
						c0.35-0.49,0.97-1.08,1.8-1.49c0.83-0.41,1.68-0.54,2.27-0.52C264.83,401.21,265.18,401.35,265.17,401.4z"/>
				</g>
				<g>
					<path class="st10" d="M261.69,400.99c-0.03,0.01-0.2-0.24-0.38-0.77c-0.18-0.52-0.36-1.32-0.3-2.32
						c0.05-0.48,0.06-1.08,0.51-1.61c0.22-0.27,0.68-0.4,1.04-0.24c0.36,0.16,0.59,0.46,0.74,0.78c0.57,1.32,0.01,3.09-1.38,3.94
						c-1.41,0.83-3.12,0.58-4.22-0.28c-0.26-0.24-0.51-0.55-0.51-0.97c0-0.42,0.36-0.75,0.67-0.83c0.65-0.18,1.2,0,1.68,0.1
						c0.97,0.25,1.68,0.65,2.13,0.97c0.45,0.32,0.66,0.55,0.64,0.57c-0.05,0.09-0.98-0.78-2.85-1.2c-0.46-0.08-1-0.2-1.46-0.05
						c-0.22,0.08-0.37,0.24-0.37,0.45c0,0.2,0.16,0.44,0.37,0.62c0.91,0.7,2.48,0.92,3.66,0.2c1.18-0.7,1.66-2.26,1.22-3.33
						c-0.11-0.26-0.29-0.48-0.5-0.57c-0.2-0.09-0.42-0.04-0.58,0.12c-0.33,0.34-0.4,0.9-0.46,1.36
						C261.18,399.83,261.79,400.97,261.69,400.99z"/>
				</g>
			</g>
			<g>
				<path class="st10" d="M285.73,351.32l-26.71-17.98l8.84-86.79l-25.3-14.77l-23.13-5.36c0,0-9.66,20.1-13.96,32.97
					c-9.14,27.37-15.55,37.17-14.09,57.01c0.46,6.28,23.65,21.98,38.29,30.71c0.2,2,0.46,3.75,0.78,5.2
					c5,22.62,20.27,52.69,20.27,52.69l23.21-10.79l-7.49-25.65l7.8,4.55L285.73,351.32z M228.32,295.35l3.12-13.91
					c-0.66,8.85-1.26,18.07-1.69,26.92C228.25,304.28,227.74,299.73,228.32,295.35z"/>
				<g>
					<path class="st12" d="M250.73,404.99c-0.01,0-0.07-0.12-0.18-0.37c-0.12-0.27-0.28-0.63-0.48-1.09
						c-0.42-0.99-1.02-2.41-1.79-4.23c-1.54-3.68-3.75-9.02-6.4-15.65c-2.64-6.63-5.79-14.53-8.95-23.43
						c-0.79-2.23-1.56-4.52-2.29-6.89c-0.32-1.2-0.73-2.38-0.94-3.65c-0.06-0.31-0.13-0.63-0.18-0.94l-0.11-0.95
						c-0.07-0.63-0.14-1.27-0.21-1.91c-0.27-2.56-0.5-5.16-0.66-7.81c-0.08-1.32-0.16-2.66-0.21-4.01
						c-0.05-1.34-0.11-2.71-0.03-4.07c0.39-10.91,1.31-21.24,2.06-30.65c0.79-9.4,1.49-17.87,2.09-24.99
						c0.58-7.11,0.98-12.87,1.21-16.86c0.12-1.99,0.19-3.54,0.24-4.59c0.03-0.51,0.05-0.9,0.06-1.19c0.02-0.27,0.03-0.41,0.04-0.41
						c0.01,0,0.01,0.14,0.01,0.41c0,0.29-0.01,0.69-0.02,1.2c-0.01,1.05-0.05,2.6-0.15,4.6c-0.17,3.99-0.52,9.76-1.05,16.88
						c-0.57,7.12-1.24,15.59-1.98,25c-0.73,9.41-1.63,19.76-2.02,30.63c-0.08,1.36-0.02,2.7,0.03,4.04
						c0.05,1.34,0.12,2.67,0.21,3.99c0.17,2.64,0.39,5.24,0.65,7.79c0.07,0.64,0.14,1.27,0.21,1.9l0.11,0.94
						c0.05,0.31,0.12,0.61,0.18,0.92c0.2,1.22,0.6,2.41,0.92,3.6c0.72,2.36,1.48,4.65,2.27,6.87c3.14,8.89,6.25,16.8,8.85,23.45
						c2.63,6.61,4.77,11.97,6.26,15.7c0.73,1.83,1.31,3.27,1.71,4.27c0.18,0.47,0.33,0.84,0.44,1.11
						C250.69,404.86,250.73,404.99,250.73,404.99z"/>
				</g>
				<g>
					<path class="st12" d="M232.87,248.37c-0.02,0.03-0.23-0.15-0.61-0.49c-0.35-0.37-0.77-0.98-1.13-1.81
						c-0.72-1.67-1.08-4.17-1.14-6.89c-0.05-2.73,0.15-5.19,0.33-6.95c0.18-1.77,0.33-2.86,0.4-2.85c0.07,0,0.04,1.11-0.05,2.88
						c-0.09,1.77-0.23,4.22-0.18,6.92c0.05,2.69,0.36,5.13,0.97,6.77c0.3,0.82,0.66,1.43,0.95,1.82
						C232.73,248.12,232.9,248.35,232.87,248.37z"/>
				</g>
				<g>
					<path class="st12" d="M222.89,227.72c0.05-0.01,0.29,0.91,0.2,2.43c-0.08,1.5-0.6,3.62-1.91,5.56
						c-1.32,1.94-3.1,3.19-4.47,3.82c-1.38,0.64-2.32,0.75-2.33,0.7c-0.02-0.08,0.88-0.32,2.17-1.02c1.29-0.69,2.96-1.93,4.22-3.78
						c1.26-1.85,1.81-3.86,1.98-5.31C222.91,228.65,222.8,227.72,222.89,227.72z"/>
				</g>
				<g>
					<path class="st12" d="M264.39,278.18c0.01,0,0.01,0.09-0.01,0.26c-0.02,0.2-0.04,0.46-0.06,0.77c-0.07,0.71-0.17,1.71-0.3,2.96
						c-0.28,2.61-0.69,6.32-1.19,10.89c-1.04,9.22-2.48,21.9-4.07,35.9c-0.61,7.01,0,13.76,1.32,19.7c0.65,2.98,1.51,5.75,2.42,8.31
						c0.9,2.56,1.74,4.95,2.5,7.14c1.51,4.34,2.73,7.87,3.59,10.35c0.4,1.2,0.72,2.14,0.95,2.82c0.1,0.3,0.17,0.54,0.24,0.74
						c0.05,0.17,0.07,0.25,0.06,0.26c-0.01,0-0.05-0.08-0.11-0.24c-0.07-0.19-0.17-0.43-0.28-0.72c-0.25-0.67-0.6-1.61-1.04-2.79
						c-0.9-2.47-2.17-5.98-3.74-10.3c-0.78-2.18-1.64-4.56-2.56-7.12c-0.93-2.56-1.81-5.35-2.48-8.34
						c-1.35-5.98-1.98-12.78-1.36-19.85c1.56-14.04,3.11-26.71,4.21-35.9c0.56-4.56,1.02-8.27,1.34-10.87
						c0.17-1.25,0.3-2.24,0.39-2.95c0.05-0.31,0.08-0.57,0.11-0.77C264.36,278.26,264.38,278.18,264.39,278.18z"/>
				</g>
			</g>
			<g>
				<polyline class="st8" points="219.43,226.25 223.53,215.78 232.87,229.72 220.41,226.61 				"/>
				<path class="st5" d="M317.25,194.78l-11.09-24.87c-1.33-4-3.81-4.62-5.9-6.94l-27.79-15.67c-20.25-8.3-31.28,19.53-31.28,19.53
					l-18.41,41.99c-21.65,7.18-6.32,23.8-6.32,23.8s-5.89-10.24-0.1-13.93c6.06-3.87,12.79,6.32,19.25,16
					c7.63,11.42,32.41,18.84,32.41,18.84c2.9-3.06,2.09-13.75,4.36-19.49c0.72-1.82,17.88-41.57,17.88-41.57l6.65,16.12
					c0,0,8.53-10,12.66-11.59C313.69,195.42,317.25,194.78,317.25,194.78z"/>
				<g>
					<path class="st10" d="M268.01,212.46c0.02,0.03-0.28,0.25-0.84,0.59c-0.57,0.34-1.42,0.78-2.53,1.2
						c-2.2,0.85-5.53,1.5-9.13,0.95c-3.61-0.56-6.58-2.19-8.42-3.66c-0.93-0.73-1.61-1.41-2.05-1.9c-0.44-0.5-0.65-0.79-0.62-0.81
						c0.07-0.07,1,1.07,2.89,2.44c1.86,1.37,4.78,2.91,8.29,3.45c3.51,0.54,6.75-0.04,8.94-0.79
						C266.73,213.17,267.96,212.38,268.01,212.46z"/>
				</g>
				<path class="st5" d="M221.95,173.02L221.95,173.02l17.15,1.62l27.44-29l-16.14-0.55l-28.74,2.84
					C221.67,147.92,224.21,159.9,221.95,173.02z"/>
				<g>
					<path class="st10" d="M245.77,157.74c0.02,0.01-0.06,0.19-0.21,0.53c-0.18,0.39-0.41,0.88-0.69,1.48
						c-0.63,1.34-1.49,3.18-2.55,5.43c-2.13,4.6-4.96,11-8.03,18.1c-3.07,7.1-5.86,13.53-7.97,18.14c-1.05,2.31-1.92,4.17-2.55,5.44
						c-0.3,0.6-0.54,1.08-0.73,1.46c-0.17,0.33-0.27,0.5-0.28,0.5c-0.02-0.01,0.05-0.19,0.19-0.54c0.17-0.39,0.38-0.89,0.64-1.5
						c0.59-1.36,1.41-3.22,2.4-5.5c2.03-4.71,4.79-11.11,7.83-18.19c3.07-7.1,5.95-13.49,8.17-18.05c1.1-2.28,2.02-4.12,2.69-5.37
						c0.31-0.59,0.57-1.06,0.77-1.44C245.65,157.9,245.76,157.73,245.77,157.74z"/>
				</g>
				<g>
					<path class="st10" d="M298.12,166.17c0.05,0.08-1.02,0.64-2.47,1.87c-0.73,0.61-1.52,1.43-2.32,2.4
						c-0.77,0.99-1.53,2.15-2.18,3.45c-0.62,1.31-1.06,2.62-1.36,3.84c-0.27,1.23-0.42,2.35-0.45,3.3c-0.07,1.9,0.15,3.08,0.06,3.1
						c-0.03,0.01-0.11-0.28-0.21-0.82c-0.06-0.27-0.11-0.59-0.13-0.98c-0.03-0.38-0.09-0.82-0.07-1.31c-0.02-0.97,0.1-2.13,0.35-3.4
						c0.28-1.26,0.72-2.61,1.36-3.96c0.66-1.34,1.45-2.52,2.27-3.52c0.84-0.98,1.67-1.79,2.45-2.38c0.37-0.32,0.75-0.54,1.07-0.76
						c0.32-0.22,0.61-0.38,0.85-0.5C297.83,166.26,298.1,166.14,298.12,166.17z"/>
				</g>
			</g>
			<g>
				<g>
					<g>
						<g>
							<g>
								<g>
									<g>
										<g>
											<g>
												<g>
													<g>
														<g>
															<g>
																<g>
																	<path class="st8" d="M302.91,126.34l-16.09,30.08c-2.63,4.91-8.6,6.95-13.69,4.68l0,0
																		c-5.6-2.5-7.91-9.22-5.05-14.64c1.52-2.87,2.78-5.21,2.78-5.21s-7-4.53-3.72-12.09
																		c2.92-6.74,13.64-25.78,15.91-29.8l13.56,6.07C304.23,109.37,307.08,118.84,302.91,126.34z"/>
																</g>
															</g>
														</g>
													</g>
												</g>
											</g>
										</g>
										<g>
											<g>
												<g>
													<g>
														<g>
															<g>
																<g>
																	<path class="st16" d="M270.9,141.13c0,0,4.58,2.51,11.05,1.6c0,0-4.74,4.37-11.94,0.34L270.9,141.13z"/>
																</g>
															</g>
														</g>
													</g>
												</g>
											</g>
										</g>
									</g>
								</g>
							</g>
							<g>
								<g>
									<g>
										<g>
											<g>
												<g>
													<g>
														<g>
															<g>
																<g>
																	<g>
																		<g>
																			<g>
																				<path class="st10" d="M276.07,117.08c-0.27,0.56-0.03,1.25,0.55,1.55c0.58,0.3,1.27,0.09,1.54-0.47
																					c0.27-0.56,0.03-1.25-0.55-1.55C277.03,116.31,276.34,116.53,276.07,117.08z"/>
																			</g>
																		</g>
																	</g>
																</g>
															</g>
														</g>
													</g>
													<g>
														<g>
															<g>
																<g>
																	<g>
																		<g>
																			<g>
																				<g>
																					<path class="st10" d="M276.13,116.13c0.07,0.2,1.15-0.04,2.31,0.48c1.16,0.5,1.74,1.48,1.93,1.39
																						c0.09-0.03,0.07-0.35-0.18-0.78c-0.24-0.43-0.75-0.97-1.47-1.29c-0.72-0.32-1.45-0.32-1.91-0.21
																						C276.33,115.83,276.09,116.03,276.13,116.13z"/>
																				</g>
																			</g>
																		</g>
																	</g>
																</g>
															</g>
														</g>
													</g>
												</g>
												<g>
													<g>
														<g>
															<g>
																<g>
																	<g>
																		<g>
																			<g>
																				<path class="st10" d="M286.88,122.4c-0.27,0.56-0.03,1.25,0.55,1.55c0.58,0.3,1.27,0.09,1.54-0.47
																					c0.27-0.56,0.03-1.25-0.55-1.55C287.84,121.63,287.15,121.84,286.88,122.4z"/>
																			</g>
																		</g>
																	</g>
																</g>
															</g>
														</g>
													</g>
													<g>
														<g>
															<g>
																<g>
																	<g>
																		<g>
																			<g>
																				<g>
																					<path class="st10" d="M287.39,121.42c0.07,0.2,1.15-0.04,2.31,0.48c1.16,0.5,1.74,1.48,1.93,1.39
																						c0.09-0.04,0.07-0.35-0.18-0.78c-0.24-0.43-0.75-0.97-1.47-1.29c-0.72-0.32-1.45-0.32-1.91-0.21
																						C287.59,121.13,287.35,121.33,287.39,121.42z"/>
																				</g>
																			</g>
																		</g>
																	</g>
																</g>
															</g>
														</g>
													</g>
												</g>
												<g>
													<g>
														<g>
															<g>
																<g>
																	<g>
																		<g>
																			<g>
																				<path class="st10" d="M279.36,128.11c0.03-0.06-0.63-0.51-1.72-1.18c-0.28-0.16-0.53-0.35-0.49-0.57
																					c0.03-0.24,0.29-0.51,0.59-0.79c0.6-0.59,1.22-1.21,1.88-1.86c2.64-2.66,4.7-4.89,4.59-5
																					c-0.11-0.11-2.34,1.96-4.98,4.62c-0.64,0.66-1.26,1.29-1.85,1.89c-0.26,0.29-0.62,0.58-0.67,1.09
																					c-0.02,0.26,0.13,0.51,0.29,0.65c0.16,0.14,0.33,0.22,0.47,0.29C278.6,127.85,279.33,128.18,279.36,128.11z"/>
																			</g>
																		</g>
																	</g>
																</g>
															</g>
														</g>
													</g>
												</g>
												<g>
													<g>
														<g>
															<g>
																<g>
																	<g>
																		<g>
																			<g>
																				<path class="st10" d="M282.4,130.43c-0.18-0.1-0.75,1.16-2.22,1.57c-1.47,0.41-2.74-0.33-2.83-0.15
																					c-0.05,0.07,0.19,0.38,0.75,0.64c0.54,0.27,1.43,0.45,2.33,0.2c0.9-0.25,1.51-0.86,1.78-1.35
																					C282.49,130.84,282.49,130.47,282.4,130.43z"/>
																			</g>
																		</g>
																	</g>
																</g>
															</g>
														</g>
													</g>
												</g>
											</g>
										</g>
									</g>
									<g>
										<g>
											<g>
												<g>
													<g>
														<g>
															<g>
																<path class="st10" d="M289.12,116.76c-0.03,0.37,1.19,0.73,2.48,1.5c1.3,0.74,2.21,1.63,2.52,1.43
																	c0.14-0.1,0.08-0.48-0.22-0.98c-0.3-0.5-0.87-1.1-1.64-1.56c-0.77-0.45-1.58-0.66-2.16-0.68
																	C289.5,116.46,289.13,116.59,289.12,116.76z"/>
															</g>
														</g>
													</g>
												</g>
											</g>
										</g>
									</g>
									<g>
										<g>
											<g>
												<g>
													<g>
														<g>
															<g>
																<path class="st10" d="M278.05,112.97c0.09,0.35,1,0.44,1.97,0.85c0.98,0.38,1.69,0.97,2,0.78
																	c0.14-0.1,0.13-0.42-0.11-0.82c-0.24-0.4-0.73-0.87-1.4-1.14c-0.67-0.27-1.34-0.29-1.8-0.17
																	C278.25,112.58,278.02,112.8,278.05,112.97z"/>
															</g>
														</g>
													</g>
												</g>
											</g>
										</g>
									</g>
								</g>
							</g>
							<g>
								<g>
									<g>
										<g>
											<g>
												<g>
													<g>
														<g>
															<path class="st8" d="M297.85,130.85c0.15,0,5.85,0.78,3.38,5.85c-2.46,5.07-7.04,1.55-6.98,1.4
																C294.32,137.95,297.85,130.85,297.85,130.85z"/>
														</g>
													</g>
												</g>
											</g>
										</g>
									</g>
								</g>
								<g>
									<g>
										<g>
											<g>
												<g>
													<g>
														<g>
															<g>
																<path class="st16" d="M296.74,136.93c0.03-0.01,0.06,0.1,0.17,0.25c0.11,0.14,0.34,0.3,0.65,0.33
																	c0.63,0.06,1.49-0.57,1.96-1.47c0.24-0.45,0.35-0.94,0.37-1.38c0.03-0.45-0.09-0.82-0.33-1
																	c-0.24-0.19-0.51-0.12-0.64-0.01c-0.14,0.11-0.15,0.23-0.18,0.22c-0.02,0.01-0.07-0.14,0.07-0.33
																	c0.07-0.09,0.19-0.18,0.35-0.22c0.17-0.04,0.37,0,0.55,0.11c0.38,0.22,0.55,0.75,0.54,1.23
																	c0.01,0.5-0.11,1.05-0.38,1.56c-0.53,1.01-1.52,1.71-2.35,1.56c-0.4-0.08-0.65-0.33-0.74-0.53
																	C296.69,137.06,296.72,136.93,296.74,136.93z"/>
															</g>
														</g>
													</g>
												</g>
											</g>
										</g>
									</g>
								</g>
							</g>
						</g>
					</g>
					<g>
						<g>
							<g>
								<path class="st10" d="M300.79,131.95c-0.7-0.54-2.38-0.42-3.04,0.16c-0.66,0.58-1.11,1.38-1.77,1.97
									c-0.66,0.59-1.71,0.91-2.41,0.38c-0.48-0.37-0.64-1.05-0.55-1.65c0.1-0.6,0.41-1.14,0.73-1.66
									c1.38-2.26,2.95-4.42,4.12-6.79c1.18-2.37,1.96-5.04,1.61-7.67c-0.35-2.63-2-5.19-4.5-6.07c-1.65-0.59-3.49-0.41-5.18-0.9
									c-2-0.58-3.69-2.13-4.44-4.08c-0.1-0.25-0.66-1.14-0.66-1.14c0.06-0.12,0.65-1.15,1.25-1.35c4.45-1.5,10.49,0.22,14.18,3.13
									s6.27,7.59,6.32,12.29C306.5,123.27,303.54,128.45,300.79,131.95"/>
							</g>
						</g>
					</g>
				</g>
				<g>
					<path class="st10" d="M300.84,131.45c1.41-2.39,3.69-4.13,5.43-6.29c1.74-2.16,2.94-5.21,1.7-7.69
						c-0.42-0.85-1.1-1.56-1.46-2.44c-0.36-0.88-0.36-1.86-0.49-2.81c-0.42-2.92-2.27-5.59-4.84-7.03c-1.78-0.99-3.83-1.4-5.64-2.35
						c-2.86-1.5-4.95-4.29-7.95-5.47c-1-0.39-2.16-0.58-3.11-0.09c-0.95,0.49-1.46,1.87-0.77,2.69c-0.12-0.96-1.37-1.48-2.25-1.09
						c-0.88,0.4-1.33,1.45-1.27,2.41c0.06,0.96,0.54,1.85,1.09,2.65c1.82,2.61,4.61,4.53,7.7,5.3l6.9-0.54l5.66,4.19l4.19,6.67
						l-7.6,9.87L300.84,131.45z"/>
				</g>
			</g>
		</g>
	</g>
</g>
<g id="Light_Bulb">
	<g>
		<g>
			<path class="st5" d="M257.65,92.1c-0.87-13.44-12.46-23.62-25.9-22.76c-13.44,0.87-23.62,12.46-22.76,25.9
				c0.63,9.73,6.88,17.75,15.38,21.11c0.19,2.88,0.4,6.14,0.4,6.14l21.32-1.38c0,0-0.09-3.45-0.24-6.53
				C253.43,110.03,258.26,101.52,257.65,92.1z"/>
			<g>
				<path class="st10" d="M238.38,121.51c0,0,0-0.1,0-0.3c0.01-0.21,0.02-0.5,0.04-0.88c0.04-0.78,0.11-1.92,0.23-3.4
					c0.12-1.47,0.29-3.28,0.63-5.35c0.34-2.07,0.84-4.43,1.77-6.91c0.47-1.24,1.02-2.52,1.77-3.77c0.39-0.61,0.88-1.22,1.57-1.6
					c0.69-0.38,1.57-0.44,2.31-0.07c0.37,0.18,0.69,0.51,0.83,0.91c0.16,0.4,0.14,0.86-0.02,1.26c-0.33,0.79-1.01,1.38-1.77,1.74
					c-1.57,0.67-3.43,0.64-5.08-0.03c-1.66-0.67-3.03-2.09-3.7-3.84c-0.32-0.87-0.53-1.83-0.33-2.8c0.17-0.96,1.03-1.86,2.1-1.83
					c0.53,0,1.03,0.33,1.29,0.78c0.27,0.44,0.37,0.98,0.29,1.49c-0.17,1.03-0.85,1.84-1.55,2.53c-1.45,1.37-3.49,2.21-5.56,2.01
					c-2.06-0.19-3.97-1.42-4.93-3.2c-0.5-0.87-0.68-1.96-0.35-2.94c0.16-0.48,0.5-0.94,1-1.14c0.48-0.22,1.05-0.17,1.51,0.04
					c0.46,0.21,0.85,0.57,1.1,1c0.25,0.43,0.39,0.9,0.46,1.38c0.13,0.95,0.06,1.9-0.19,2.8c-0.48,1.8-1.64,3.37-3.17,4.3
					c-1.52,0.94-3.32,1.28-4.99,1.02c-0.82-0.13-1.67-0.4-2.27-1.02c-0.58-0.61-0.8-1.62-0.29-2.33c0.25-0.35,0.66-0.55,1.06-0.61
					c0.4-0.05,0.81,0,1.18,0.15c0.75,0.31,1.23,0.95,1.6,1.57c0.7,1.28,1.27,2.53,1.85,3.72c2.26,4.78,3.9,8.73,5.01,11.47
					c0.55,1.37,0.96,2.44,1.24,3.17c0.13,0.36,0.23,0.63,0.31,0.83c0.07,0.19,0.1,0.29,0.1,0.29s-0.05-0.09-0.12-0.28
					c-0.08-0.2-0.19-0.47-0.34-0.82c-0.3-0.73-0.74-1.79-1.29-3.15c-1.14-2.72-2.81-6.66-5.09-11.42c-0.58-1.18-1.17-2.45-1.85-3.7
					c-0.36-0.6-0.83-1.2-1.49-1.47c-0.64-0.27-1.51-0.21-1.94,0.38c-0.42,0.58-0.24,1.48,0.27,2.01c0.53,0.56,1.32,0.82,2.12,0.94
					c1.6,0.25,3.35-0.08,4.8-0.99c1.46-0.9,2.58-2.41,3.03-4.14c0.24-0.86,0.3-1.79,0.18-2.69c-0.12-0.88-0.55-1.79-1.39-2.15
					c-0.4-0.18-0.87-0.22-1.27-0.04c-0.4,0.17-0.69,0.54-0.84,0.97c-0.29,0.87-0.14,1.88,0.34,2.7c0.91,1.69,2.74,2.86,4.7,3.05
					c1.97,0.19,3.94-0.62,5.33-1.93c0.68-0.66,1.32-1.44,1.47-2.36c0.07-0.44-0.02-0.91-0.25-1.29c-0.23-0.38-0.62-0.63-1.05-0.64
					c-0.43-0.01-0.86,0.17-1.18,0.47c-0.33,0.29-0.53,0.7-0.62,1.13c-0.19,0.87,0,1.8,0.31,2.63c0.63,1.68,1.95,3.04,3.54,3.68
					c1.57,0.65,3.38,0.67,4.86,0.05c0.72-0.34,1.36-0.89,1.65-1.59c0.31-0.7-0.02-1.54-0.69-1.85c-0.65-0.33-1.47-0.28-2.09,0.06
					c-0.64,0.35-1.11,0.92-1.49,1.51c-0.74,1.22-1.3,2.5-1.76,3.72c-0.94,2.46-1.45,4.8-1.8,6.87c-0.35,2.07-0.54,3.86-0.67,5.33
					c-0.12,1.46-0.22,2.6-0.28,3.39c-0.03,0.38-0.06,0.67-0.07,0.88C238.4,121.41,238.38,121.51,238.38,121.51z"/>
			</g>
			<path class="st10" d="M244.71,125.16l-18.31,1.18c-0.76,0.05-1.41-0.53-1.46-1.29l0,0c-0.05-0.76,0.53-1.41,1.29-1.46l18.31-1.18
				c0.76-0.05,1.41,0.53,1.46,1.29l0,0C246.05,124.46,245.47,125.11,244.71,125.16z"/>
			<path class="st10" d="M244.79,126.36l-18.31,1.18c-0.76,0.05-1.33,0.7-1.29,1.46c0.05,0.76,0.7,1.33,1.46,1.29l2.01-0.13
				l2.99,4.9c0.34,0.56,0.97,0.89,1.62,0.84l6.54-0.42c0.66-0.04,1.24-0.45,1.51-1.06l2.26-5.23l1.37-0.09
				c0.76-0.05,1.33-0.7,1.29-1.46C246.2,126.89,245.55,126.31,244.79,126.36z"/>
		</g>
		<g class="st17">
			<path class="st7" d="M216.69,79.18c1.54-1.62,3.18-2.79,4.66-3.55c1.48-0.77,2.77-1.18,3.68-1.33c0.91-0.16,1.44-0.1,1.5,0.09
				c0.13,0.43-1.67,1.21-4.05,3.03c-2.37,1.78-5.29,4.83-6.9,8.96c-1.6,4.14-1.5,8.36-0.95,11.27c0.53,2.95,1.34,4.73,0.94,4.96
				c-0.17,0.1-0.6-0.21-1.17-0.94c-0.57-0.73-1.25-1.9-1.82-3.46c-0.58-1.56-1-3.54-1.05-5.77c-0.05-2.23,0.32-4.71,1.25-7.14"/>
		</g>
		<g class="st17">
			<path class="st7" d="M232.45,75.06c-1.54,0.09-2.93-0.25-3.14-1.05c-0.09-0.4,0.16-0.85,0.7-1.22c0.53-0.37,1.34-0.66,2.27-0.71
				c0.92-0.05,1.76,0.13,2.33,0.44c0.58,0.31,0.88,0.72,0.84,1.13"/>
		</g>
		<g>
			<path class="st12" d="M241.03,134.88c-0.02,0.05-0.49-0.13-1.28-0.31c-0.79-0.17-1.91-0.3-3.13-0.19
				c-1.23,0.12-2.3,0.45-3.04,0.77c-0.74,0.32-1.18,0.58-1.2,0.54c-0.02-0.03,0.38-0.36,1.12-0.73c0.74-0.37,1.84-0.75,3.1-0.87
				c1.26-0.12,2.42,0.05,3.21,0.28C240.59,134.6,241.04,134.85,241.03,134.88z"/>
		</g>
		<g>
			<path class="st12" d="M243.65,129.26c0.01,0.08-3.3,0.36-7.38,0.63c-4.08,0.26-7.4,0.41-7.4,0.33c-0.01-0.08,3.3-0.36,7.38-0.63
				C240.33,129.32,243.64,129.18,243.65,129.26z"/>
		</g>
		<g>
			<path class="st12" d="M242.64,131.51c0,0.04-0.68,0.16-1.79,0.3c-1.11,0.14-2.65,0.31-4.36,0.44c-1.71,0.13-3.25,0.21-4.37,0.25
				c-1.12,0.03-1.81,0.02-1.82-0.02c0-0.04,0.69-0.11,1.8-0.2c1.21-0.09,2.7-0.21,4.36-0.33c1.66-0.13,3.15-0.26,4.36-0.35
				C241.94,131.51,242.64,131.46,242.64,131.51z"/>
		</g>
	</g>
</g>
<g id="Book">
	<g>
		<path class="st5" d="M110.8,253.98l3.98,6.37c0,0,16.96-15.61,33.79-11.2C148.56,249.15,133.44,236.33,110.8,253.98z"/>
		<path class="st5" d="M148.56,249.15c0,0,12.45-13.52,30.71-10.44l4.98,0.75l-1.59-2.88C182.66,236.59,150.9,225.71,148.56,249.15z
			"/>
		<g>
			<path class="st2" d="M122.28,203.56c0,0-24.94-4.29-41.3,4.56l25.97,48.9c0,0,21.26-20.49,41.6-7.87L122.28,203.56z"/>
			<g>
				<path class="st10" d="M122.28,203.56c0,0,0.05,0.06,0.13,0.2c0.09,0.15,0.22,0.36,0.37,0.62c0.34,0.57,0.82,1.38,1.44,2.43
					c1.26,2.16,3.09,5.29,5.41,9.26c4.65,8.01,11.25,19.4,19.12,32.97c0.06,0.11,0.02,0.24-0.08,0.3c-0.07,0.04-0.16,0.04-0.23,0
					c-2.82-1.73-6.06-3.05-9.56-3.67c-1.75-0.29-3.56-0.41-5.39-0.37c-1.83,0.07-3.68,0.31-5.52,0.69
					c-7.37,1.63-14.52,5.63-20.63,11.01l-0.21,0.2c-0.1,0.1-0.26,0.09-0.35-0.01c-0.02-0.02-0.03-0.04-0.04-0.06
					c-9.65-18.2-18.59-35.07-25.93-48.92c-0.05-0.1-0.02-0.22,0.08-0.27l0.01,0c5.72-2.96,11.52-4.24,16.62-4.92
					c5.12-0.66,9.62-0.68,13.3-0.58c3.68,0.12,6.55,0.42,8.5,0.66c0.97,0.12,1.72,0.23,2.22,0.31c0.24,0.04,0.42,0.08,0.57,0.1
					C122.22,203.54,122.29,203.56,122.28,203.56c0,0-0.07,0-0.2-0.02c-0.14-0.02-0.33-0.04-0.57-0.07c-0.5-0.06-1.25-0.16-2.22-0.25
					c-1.95-0.2-4.82-0.46-8.49-0.55c-3.67-0.07-8.16-0.02-13.25,0.67c-5.07,0.71-10.83,2.01-16.47,4.95l0.08-0.28
					c7.36,13.84,16.33,30.69,26.01,48.88l-0.39-0.06l0.22-0.21c3.08-2.76,6.44-5.07,9.94-6.98c3.51-1.89,7.18-3.34,10.92-4.14
					c1.87-0.39,3.75-0.62,5.61-0.7c1.86-0.03,3.7,0.09,5.48,0.39c3.56,0.64,6.86,1.99,9.71,3.75l-0.31,0.3
					c-7.79-13.59-14.32-24.98-18.91-33c-2.28-4-4.08-7.16-5.31-9.34c-0.6-1.07-1.07-1.9-1.4-2.48c-0.15-0.27-0.27-0.48-0.35-0.64
					C122.32,203.65,122.28,203.57,122.28,203.56z"/>
			</g>
		</g>
		<g>
			<path class="st2" d="M161.48,193.53c0,0-18.86-12.02-38.88,10.03l26.28,45.59c0,0,5.36-18.5,36.74-12.07L161.48,193.53z"/>
			<g>
				<path class="st10" d="M161.48,193.53c0,0,0.05,0.06,0.13,0.19c0.09,0.15,0.2,0.34,0.35,0.59c0.31,0.54,0.75,1.32,1.32,2.32
					c1.16,2.06,2.84,5.05,4.97,8.84c4.26,7.65,10.33,18.52,17.56,31.51c0.06,0.11,0.02,0.24-0.08,0.3
					c-0.04,0.02-0.09,0.03-0.14,0.02l-0.01,0c-1.53-0.25-3.09-0.51-4.67-0.77c-0.79-0.16-1.6-0.2-2.41-0.27
					c-0.81-0.06-1.63-0.13-2.46-0.2c-0.83-0.1-1.66-0.08-2.5-0.06c-0.84,0.01-1.69,0.02-2.54,0.03c-0.85,0.02-1.7,0.17-2.56,0.25
					c-0.86,0.11-1.73,0.15-2.58,0.39c-0.85,0.19-1.71,0.39-2.58,0.58c-0.84,0.29-1.68,0.59-2.52,0.88
					c-0.85,0.29-1.62,0.76-2.45,1.13c-0.42,0.18-0.8,0.42-1.18,0.67l-1.15,0.74c-0.76,0.51-1.44,1.13-2.15,1.71
					c-0.63,0.67-1.34,1.27-1.89,2.02c-1.18,1.42-2.19,3.06-2.8,4.8l0,0.01c-0.05,0.13-0.19,0.2-0.32,0.15
					c-0.06-0.02-0.1-0.06-0.13-0.11c-0.33-0.58-0.7-1.21-1.06-1.84c-9.29-16.15-17.95-31.19-25.19-43.77
					c-0.05-0.08-0.03-0.18,0.03-0.25c4.44-4.85,9.35-8.54,14.24-10.7c4.88-2.21,9.63-2.76,13.43-2.52c3.82,0.24,6.71,1.17,8.59,1.92
					c0.94,0.38,1.64,0.74,2.1,0.99c0.22,0.13,0.38,0.22,0.51,0.3C161.43,193.49,161.49,193.53,161.48,193.53
					c0,0-0.07-0.03-0.18-0.09c-0.13-0.07-0.31-0.16-0.53-0.27c-0.47-0.23-1.17-0.57-2.12-0.93c-1.89-0.72-4.77-1.6-8.56-1.8
					c-3.76-0.21-8.46,0.37-13.28,2.59c-4.82,2.16-9.67,5.85-14.06,10.67l0.03-0.24c7.25,12.56,15.94,27.6,25.25,43.73
					c0.36,0.63,0.72,1.26,1.06,1.84l-0.45,0.05c0.65-1.87,1.68-3.51,2.89-4.98c0.57-0.77,1.29-1.39,1.94-2.07
					c0.73-0.59,1.43-1.23,2.21-1.74l1.18-0.75c0.39-0.26,0.78-0.5,1.2-0.69c0.84-0.38,1.63-0.85,2.5-1.15
					c0.86-0.3,1.72-0.6,2.57-0.89c0.88-0.2,1.75-0.39,2.62-0.59c0.86-0.24,1.75-0.28,2.61-0.39c0.87-0.08,1.73-0.23,2.6-0.25
					c0.86-0.01,1.72-0.02,2.57-0.03c0.85-0.02,1.7-0.03,2.53,0.07c0.83,0.07,1.66,0.14,2.48,0.2c0.82,0.07,1.64,0.11,2.43,0.28
					c1.59,0.27,3.16,0.53,4.7,0.79l-0.24,0.32c-7.16-13-13.16-23.89-17.38-31.55c-2.09-3.82-3.73-6.83-4.87-8.91
					c-0.55-1.02-0.97-1.81-1.27-2.36c-0.14-0.26-0.24-0.46-0.32-0.61C161.51,193.61,161.48,193.53,161.48,193.53z"/>
			</g>
		</g>
		<g>
			<path class="st2" d="M88.01,184.62l28.12,54.15c0,0,22.86-1,32.53,10.14l-26.06-45.34C122.6,203.56,107.32,184.62,88.01,184.62z"
				/>
			<g>
				<path class="st10" d="M88.01,184.62c0,0,0.23,0,0.71,0.02c0.51,0.02,1.23,0.05,2.17,0.09c0.24,0.01,0.5,0.02,0.76,0.04
					c0.26,0.04,0.53,0.09,0.82,0.14c0.58,0.1,1.2,0.2,1.88,0.31c0.69,0.08,1.39,0.31,2.15,0.51c0.75,0.23,1.59,0.38,2.41,0.71
					c6.72,2.24,15.74,7.66,23.84,16.99l0.01,0.02l0,0.01c7.42,12.88,16.4,28.48,26.1,45.32c0.07,0.12,0.03,0.27-0.09,0.34
					c-0.1,0.06-0.22,0.04-0.3-0.04l-0.01-0.01c-0.35-0.35-0.73-0.72-1.1-1.1c-2.09-2.03-4.57-3.63-7.2-4.76
					c-2.62-1.16-5.32-2.05-8.04-2.64c-5.44-1.22-10.86-1.68-15.99-1.58l-0.01,0c-0.09,0-0.17-0.05-0.21-0.13
					c-8.2-15.9-15.2-29.48-20.17-39.11c-2.45-4.77-4.39-8.56-5.74-11.18c-0.65-1.28-1.16-2.27-1.51-2.96
					c-0.16-0.32-0.29-0.57-0.38-0.76C88.05,184.7,88.01,184.61,88.01,184.62c0.01,0,0.06,0.09,0.15,0.27
					c0.1,0.19,0.24,0.45,0.42,0.78c0.37,0.7,0.9,1.7,1.58,2.99c1.38,2.62,3.37,6.41,5.88,11.19c5,9.56,12.05,23.04,20.31,38.82
					l-0.22-0.12c5.18-0.11,10.62,0.34,16.11,1.57c2.75,0.59,5.48,1.49,8.14,2.66c2.67,1.15,5.2,2.77,7.34,4.85
					c0.39,0.39,0.77,0.77,1.13,1.13l-0.4,0.29c-9.67-16.86-18.63-32.47-26.03-45.37l0.02,0.03c-3.96-4.65-8.28-8.3-12.31-11.14
					c-4.07-2.8-7.95-4.75-11.29-5.88c-0.82-0.34-1.64-0.5-2.39-0.73c-0.76-0.21-1.46-0.45-2.14-0.54c-0.67-0.12-1.29-0.23-1.87-0.34
					c-0.28-0.05-0.56-0.1-0.82-0.15c-0.26-0.03-0.5-0.04-0.73-0.06C89.19,184.71,88.39,184.65,88.01,184.62z"/>
			</g>
		</g>
	</g>
</g>
<g id="Stars">
	<g>
		<g>
			<g>
				<g>
					<path class="st5" d="M175.8,338.2l0.6,1c0.68,1.13,1.66,2.03,2.84,2.62l1.05,0.52l-1,0.6c-1.13,0.68-2.03,1.66-2.62,2.84
						l-0.52,1.05l-0.6-1c-0.68-1.13-1.66-2.03-2.84-2.62l-1.05-0.52l1-0.6c1.13-0.68,2.03-1.66,2.62-2.84L175.8,338.2z"/>
				</g>
			</g>
		</g>
	</g>
	<g>
		<g>
			<g>
				<g>
					<path class="st5" d="M120.36,131.93l0.6,1c0.68,1.13,1.66,2.03,2.84,2.62l1.05,0.52l-1,0.6c-1.13,0.68-2.03,1.66-2.62,2.84
						l-0.52,1.05l-0.6-1c-0.68-1.13-1.66-2.03-2.84-2.62l-1.05-0.52l1-0.6c1.13-0.68,2.03-1.66,2.62-2.84L120.36,131.93z"/>
				</g>
			</g>
		</g>
	</g>
	<g>
		<g>
			<g>
				<g>
					<path class="st5" d="M376.94,167.52l0.6,1c0.68,1.13,1.66,2.03,2.84,2.62l1.05,0.52l-1,0.6c-1.13,0.68-2.03,1.66-2.62,2.84
						l-0.52,1.05l-0.6-1c-0.68-1.13-1.66-2.03-2.84-2.62l-1.05-0.52l1-0.6c1.13-0.68,2.03-1.66,2.62-2.84L376.94,167.52z"/>
				</g>
			</g>
		</g>
	</g>
	<g>
		<g>
			<g>
				<g>
					<path class="st5" d="M346.64,351.15l0.6,1c0.68,1.13,1.66,2.03,2.84,2.62l1.05,0.52l-1,0.6c-1.13,0.68-2.03,1.66-2.62,2.84
						l-0.52,1.05l-0.6-1c-0.68-1.13-1.66-2.03-2.84-2.62l-1.05-0.52l1-0.6c1.13-0.68,2.03-1.66,2.62-2.84L346.64,351.15z"/>
				</g>
			</g>
		</g>
	</g>
	<g>
		<g>
			<g>
				<g>
					<path class="st5" d="M352.41,389.74l0.29,0.12c0.32,0.13,0.68,0.17,1.02,0.1l0.31-0.06l-0.12,0.29
						c-0.13,0.32-0.17,0.68-0.1,1.02l0.06,0.31l-0.29-0.12c-0.32-0.13-0.68-0.17-1.02-0.1l-0.31,0.06l0.12-0.29
						c0.13-0.32,0.17-0.68,0.1-1.02L352.41,389.74z"/>
				</g>
			</g>
		</g>
	</g>
	<g>
		<g>
			<g>
				<g>
					<path class="st5" d="M369.86,128.81l0.29,0.12c0.32,0.13,0.68,0.17,1.02,0.1l0.31-0.06l-0.12,0.29
						c-0.13,0.32-0.17,0.68-0.1,1.02l0.06,0.31l-0.29-0.12c-0.32-0.13-0.68-0.17-1.02-0.1l-0.31,0.06l0.12-0.29
						c0.13-0.32,0.17-0.68,0.1-1.02L369.86,128.81z"/>
				</g>
			</g>
		</g>
	</g>
	<g>
		<g>
			<g>
				<g>
					<path class="st5" d="M131.63,104.99l0.29,0.12c0.32,0.13,0.68,0.17,1.02,0.1l0.31-0.06l-0.12,0.29
						c-0.13,0.32-0.17,0.68-0.1,1.02l0.06,0.31l-0.29-0.12c-0.32-0.13-0.68-0.17-1.02-0.1l-0.31,0.06l0.12-0.29
						c0.13-0.32,0.17-0.68,0.1-1.02L131.63,104.99z"/>
				</g>
			</g>
		</g>
	</g>
	<g>
		<g>
			<g>
				<g>
					<path class="st5" d="M161.03,308.16l0.29,0.12c0.32,0.13,0.68,0.17,1.02,0.1l0.31-0.06l-0.12,0.29
						c-0.13,0.32-0.17,0.68-0.1,1.02l0.06,0.31l-0.29-0.12c-0.32-0.13-0.68-0.17-1.02-0.1l-0.31,0.06l0.12-0.29
						c0.13-0.32,0.17-0.68,0.1-1.02L161.03,308.16z"/>
				</g>
			</g>
		</g>
	</g>
	<g>
		<g>
			<g>
				<g>
					<g>
						<g>
							<path class="st5" d="M192.91,386.69c0,0-0.09,0.1-0.27,0.29c-0.2,0.2-0.48,0.47-0.83,0.83c-0.75,0.73-1.84,1.79-3.23,3.15
								c-2.84,2.74-6.92,6.68-11.99,11.56l0.05-0.12c0.57,12.55,1.34,29.6,2.21,48.57l0.02,0.43l-0.36-0.24
								c-1.37-0.92-2.85-1.9-4.33-2.89c-9.87-6.61-19.22-12.87-27.45-18.37l-0.06-0.04l-0.02-0.06
								c-4.09-12.23-7.55-22.54-9.99-29.82c-1.2-3.62-2.14-6.48-2.8-8.46c-0.31-0.97-0.56-1.72-0.73-2.25
								c-0.08-0.24-0.13-0.43-0.18-0.58c-0.04-0.13-0.06-0.2-0.05-0.2c0.01,0,0.03,0.06,0.08,0.19c0.05,0.14,0.12,0.33,0.21,0.57
								c0.18,0.52,0.45,1.27,0.78,2.23c0.68,1.97,1.66,4.82,2.9,8.43c2.47,7.27,5.98,17.56,10.14,29.77l-0.08-0.1
								c8.23,5.5,17.59,11.74,27.47,18.34c1.48,0.99,2.95,1.97,4.33,2.89l-0.34,0.19c-0.81-18.97-1.54-36.02-2.08-48.57l0-0.07
								l0.05-0.05c5.1-4.84,9.22-8.75,12.08-11.46c1.42-1.33,2.52-2.37,3.29-3.09c0.37-0.34,0.65-0.6,0.86-0.79
								C192.8,386.77,192.91,386.69,192.91,386.69z"/>
						</g>
					</g>
				</g>
			</g>
		</g>
		<g>
			<g>
				<g>
					<g>
						<polygon class="st5" points="180.13,445.25 180.04,448.09 182.33,449.76 179.61,450.55 178.72,453.24 177.12,450.9 
							174.29,450.89 176.03,448.65 175.16,445.95 177.83,446.91 						"/>
					</g>
				</g>
			</g>
		</g>
		<g>
			<g>
				<g>
					<g>
						<polygon class="st5" points="147.07,426.04 147.13,427.87 148.67,428.87 146.94,429.48 146.47,431.26 145.35,429.81 
							143.52,429.91 144.55,428.39 143.89,426.68 145.65,427.2 						"/>
					</g>
				</g>
			</g>
		</g>
		<g>
			<g>
				<g>
					<g>
						<polygon class="st5" points="132.83,385.11 134.21,386.89 136.46,386.76 135.2,388.62 136.02,390.71 133.86,390.09 
							132.12,391.52 132.04,389.27 130.15,388.06 132.26,387.29 						"/>
					</g>
				</g>
			</g>
		</g>
		<g>
			<g>
				<g>
					<g>
						<polygon class="st5" points="191.52,383.34 192.91,385.11 195.15,384.98 193.89,386.84 194.71,388.94 192.55,388.32 
							190.81,389.74 190.74,387.49 188.84,386.28 190.96,385.51 						"/>
					</g>
				</g>
			</g>
		</g>
		<g>
			<g>
				<g>
					<g>
						<polygon class="st5" points="176.12,400.48 177,401.62 178.43,401.53 177.63,402.72 178.15,404.06 176.77,403.66 
							175.66,404.57 175.61,403.14 174.4,402.36 175.75,401.87 						"/>
					</g>
				</g>
			</g>
		</g>
	</g>
</g>
<g id="Planets">
	<g>
		<g>
			<g>
				<g>
					<g>
						<g>
							<circle class="st5" cx="123.19" cy="304.91" r="19.94"/>
						</g>
					</g>
				</g>
			</g>
			<g class="st18">
				<g>
					<g>
						<g>
							<path class="st7" d="M120.6,311.13c0,1.8-1.46,3.25-3.25,3.25s-3.25-1.46-3.25-3.25c0-1.8,1.46-3.25,3.25-3.25
								S120.6,309.34,120.6,311.13z"/>
						</g>
					</g>
				</g>
			</g>
			<g class="st18">
				<g>
					<g>
						<g>
							<path class="st7" d="M115.99,301.75c0,1.05-0.85,1.89-1.89,1.89c-1.05,0-1.89-0.85-1.89-1.89c0-1.05,0.85-1.89,1.89-1.89
								C115.14,299.86,115.99,300.7,115.99,301.75z"/>
						</g>
					</g>
				</g>
			</g>
		</g>
		<g>
			<g>
				<g>
					<g>
						<path class="st5" d="M103.84,309.76c0.09,0.35-17.07,16.81-12.65,20.32c4.42,3.51,23.03-5.49,38.89-18.3
							c15.86-12.81,30.35-28.37,26.38-32.49c-3.97-4.12-23.79,8.07-23.79,8.07l2.37,1.51c0,0,11.98-7.69,15.78-4.7
							c3.79,2.98-7.02,14.64-22.27,25.77c-15.25,11.13-29.99,18.95-32.28,15.9c-2.29-3.05,8.51-13.22,8.51-13.22L103.84,309.76z"/>
					</g>
				</g>
			</g>
		</g>
		<g class="st18">
			<g>
				<g>
					<g>
						<path d="M103.84,309.76c0.09,0.35-17.07,16.81-12.65,20.32c4.42,3.51,23.03-5.49,38.89-18.3
							c15.86-12.81,30.35-28.37,26.38-32.49c-3.97-4.12-23.79,8.07-23.79,8.07l2.37,1.51c0,0,11.98-7.69,15.78-4.7
							c3.79,2.98-7.02,14.64-22.27,25.77c-15.25,11.13-29.99,18.95-32.28,15.9c-2.29-3.05,8.51-13.22,8.51-13.22L103.84,309.76z"/>
					</g>
				</g>
			</g>
		</g>
		<g class="st18">
			<g>
				<g>
					<g>
						<g>
							<path class="st7" d="M112.2,290.86c0.16,0.19-1.19,1.34-2.72,3.64c-1.53,2.27-3.13,5.86-3.22,10.02
								c-0.08,4.17,1.38,7.82,2.82,10.15c1.44,2.36,2.74,3.56,2.57,3.75c-0.1,0.14-1.7-0.79-3.48-3.14
								c-0.88-1.17-1.76-2.7-2.42-4.54c-0.66-1.83-1.07-3.98-1.03-6.25c0.06-2.27,0.55-4.4,1.28-6.2c0.73-1.81,1.67-3.31,2.6-4.44
								C110.47,291.58,112.11,290.72,112.2,290.86z"/>
						</g>
					</g>
				</g>
			</g>
		</g>
	</g>
	<g>
		<g>
			<g>
				<g>
					<g>
						
							<ellipse transform="matrix(0.722 -0.6919 0.6919 0.722 13.6297 270.1212)" class="st5" cx="342.97" cy="118.1" rx="16.45" ry="16.45"/>
					</g>
				</g>
			</g>
		</g>
		<g class="st13">
			<g>
				<g>
					<g>
						<path d="M348.33,111.8c0.04-1.48,1.26-2.65,2.75-2.62c1.48,0.04,2.65,1.26,2.62,2.75c-0.04,1.48-1.26,2.65-2.75,2.62
							C349.47,114.51,348.29,113.28,348.33,111.8z"/>
					</g>
				</g>
			</g>
		</g>
		<g class="st13">
			<g>
				<g>
					<g>
						<path d="M353.69,118.06c0.02-0.86,0.74-1.54,1.6-1.52c0.86,0.02,1.54,0.74,1.52,1.6c-0.02,0.86-0.74,1.54-1.6,1.52
							C354.36,119.64,353.67,118.92,353.69,118.06z"/>
					</g>
				</g>
			</g>
		</g>
		<g class="st13">
			<g>
				<g>
					<g>
						<path d="M351.6,122.86c0.32,0.01,0.57,0.27,0.56,0.59c-0.01,0.32-0.27,0.57-0.59,0.56c-0.32-0.01-0.57-0.27-0.56-0.59
							C351.02,123.1,351.28,122.85,351.6,122.86z"/>
					</g>
				</g>
			</g>
		</g>
	</g>
	<g>
	</g>
	<g>
	</g>
	<g>
	</g>
	<g>
	</g>
	<g>
	</g>
	<g>
	</g>
</g>
</svg>
