<?xml version="1.0" encoding="utf-8"?>
<!-- Generator: Adobe Illustrator 24.0.1, SVG Export Plug-In . SVG Version: 6.00 Build 0)  -->
<svg version="1.1" xmlns="http://www.w3.org/2000/svg" xmlns:xlink="http://www.w3.org/1999/xlink" x="0px" y="0px"
	 viewBox="0 0 500 500" style="enable-background:new 0 0 500 500;" xml:space="preserve">
<style type="text/css">
	.st0{fill:#E0E0E0;}
	.st1{fill:#F5F5F5;}
	.st2{opacity:0.2;fill:#FFFFFF;}
	.st3{fill:#EBEBEB;}
	.st4{fill:#FFFFFF;}
	.st5{display:none;}
	.st6{display:inline;fill:#F5F5F5;}
	.st7{fill:#263238;}
	.st8{fill:#FF725E;fill: var(--primary_color_light20);}
	.st9{opacity:0.3;}
	.st10{fill:#FFBE9D;}
	.st11{fill:#EB996E;}
	.st12{fill:#455A64;}
</style>
<g id="Background_Complete">
	<g>
		<g>
			<g>
				<g>
					<g>
						<g>
							<path class="st0" d="M161.41,182.59l0.86,1.43c0.97,1.6,2.37,2.9,4.05,3.73l1.5,0.74l-1.43,0.86
								c-1.6,0.97-2.9,2.37-3.73,4.05l-0.74,1.49l-0.86-1.43c-0.97-1.6-2.37-2.9-4.05-3.73l-1.49-0.74l1.43-0.86
								c1.6-0.96,2.9-2.37,3.73-4.05L161.41,182.59z"/>
						</g>
					</g>
				</g>
			</g>
		</g>
	</g>
	<g>
		<g>
			<g>
				<g>
					<g>
						<g>
							<path class="st0" d="M208.41,49.56l1.4,2.33c1.57,2.62,3.86,4.73,6.6,6.08l2.44,1.21l-2.33,1.4
								c-2.62,1.57-4.73,3.86-6.08,6.6l-1.21,2.44l-1.4-2.33c-1.57-2.62-3.86-4.73-6.6-6.08L198.8,60l2.33-1.4
								c2.62-1.57,4.73-3.86,6.08-6.6L208.41,49.56z"/>
						</g>
					</g>
				</g>
			</g>
		</g>
	</g>
	<g>
		<g>
			<g>
				<g>
					<g>
						<g>
							<path class="st0" d="M427.66,295.28l1.26,2.09c1.41,2.35,3.47,4.24,5.92,5.45l2.19,1.08l-2.09,1.26
								c-2.35,1.41-4.24,3.47-5.45,5.92l-1.08,2.19l-1.26-2.09c-1.41-2.35-3.47-4.24-5.92-5.45l-2.19-1.08l2.09-1.26
								c2.35-1.41,4.24-3.47,5.45-5.92L427.66,295.28z"/>
						</g>
					</g>
				</g>
			</g>
		</g>
	</g>
	<g>
		<g>
			<g>
				<g>
					<g>
						<g>
							<path class="st0" d="M421.01,117.89l1.26,2.09c1.41,2.35,3.47,4.24,5.92,5.45l2.19,1.08l-2.09,1.26
								c-2.35,1.41-4.24,3.47-5.45,5.92l-1.08,2.19l-1.26-2.09c-1.41-2.35-3.47-4.24-5.92-5.45l-2.19-1.08l2.09-1.26
								c2.35-1.41,4.24-3.47,5.45-5.92L421.01,117.89z"/>
						</g>
					</g>
				</g>
			</g>
		</g>
	</g>
	<g>
		<g>
			<g>
				<g>
					<g>
						<g>
							<path class="st0" d="M69.73,307.33l1.26,2.09c1.41,2.35,3.47,4.24,5.92,5.45l2.19,1.08L77,317.21
								c-2.35,1.41-4.24,3.47-5.45,5.92l-1.08,2.19l-1.26-2.09c-1.41-2.35-3.47-4.24-5.92-5.45l-2.19-1.08l2.09-1.26
								c2.35-1.41,4.24-3.47,5.45-5.92L69.73,307.33z"/>
						</g>
					</g>
				</g>
			</g>
		</g>
	</g>
	<g>
		<g>
			<g>
				<g>
					<g>
						<g>
							<path class="st0" d="M239.85,37.82l0.66,1.1c0.74,1.23,1.82,2.23,3.12,2.87l1.15,0.57l-1.1,0.66
								c-1.23,0.74-2.23,1.82-2.87,3.12l-0.57,1.15l-0.66-1.1c-0.74-1.23-1.82-2.23-3.12-2.87l-1.15-0.57l1.1-0.66
								c1.23-0.74,2.23-1.82,2.87-3.12L239.85,37.82z"/>
						</g>
					</g>
				</g>
			</g>
		</g>
	</g>
	<g>
		<g>
			<g>
				<g>
					<g>
						<g>
							<path class="st0" d="M435.34,74.01l0.66,1.1c0.74,1.23,1.82,2.23,3.12,2.87l1.15,0.57l-1.1,0.66
								c-1.23,0.74-2.23,1.82-2.87,3.12l-0.57,1.15l-0.66-1.1c-0.74-1.23-1.82-2.23-3.12-2.87l-1.15-0.57l1.1-0.66
								c1.23-0.74,2.23-1.82,2.87-3.12L435.34,74.01z"/>
						</g>
					</g>
				</g>
			</g>
		</g>
	</g>
	<g>
		<g>
			<g>
				<g>
					<g>
						<g>
							<path class="st0" d="M381.73,140.86l0.66,1.1c0.74,1.23,1.82,2.23,3.12,2.87l1.15,0.57l-1.1,0.66
								c-1.23,0.74-2.23,1.82-2.87,3.12l-0.57,1.15l-0.66-1.1c-0.74-1.23-1.82-2.23-3.12-2.87l-1.15-0.57l1.1-0.66
								c1.23-0.74,2.23-1.82,2.87-3.12L381.73,140.86z"/>
						</g>
					</g>
				</g>
			</g>
		</g>
	</g>
	<g>
		<g>
			<g>
				<g>
					<g>
						<g>
							<path class="st0" d="M46.01,82.64l0.66,1.1c0.74,1.23,1.82,2.23,3.11,2.87l1.15,0.57l-1.1,0.66
								c-1.23,0.74-2.23,1.82-2.87,3.12l-0.57,1.15l-0.66-1.1c-0.74-1.23-1.82-2.23-3.12-2.87l-1.15-0.57l1.1-0.66
								c1.23-0.74,2.23-1.82,2.87-3.12L46.01,82.64z"/>
						</g>
					</g>
				</g>
			</g>
		</g>
	</g>
	<g>
		<g>
			<g>
				<g>
					<g>
						<g>
							<path class="st0" d="M47.71,342.54l0.66,1.1c0.74,1.23,1.82,2.23,3.12,2.87l1.15,0.57l-1.1,0.66
								c-1.23,0.74-2.23,1.82-2.87,3.12l-0.57,1.15l-0.66-1.1c-0.74-1.23-1.82-2.23-3.12-2.87l-1.15-0.57l1.1-0.66
								c1.23-0.74,2.23-1.82,2.87-3.11L47.71,342.54z"/>
						</g>
					</g>
				</g>
			</g>
		</g>
	</g>
	<g>
		<g>
			<g>
				<g>
					<g>
						<g>
							<path class="st0" d="M171.01,423.8l0.66,1.1c0.74,1.23,1.82,2.23,3.12,2.87l1.15,0.57l-1.1,0.66
								c-1.23,0.74-2.23,1.82-2.87,3.12l-0.57,1.15l-0.66-1.1c-0.74-1.23-1.82-2.23-3.12-2.87l-1.15-0.57l1.1-0.66
								c1.23-0.74,2.23-1.82,2.87-3.12L171.01,423.8z"/>
						</g>
					</g>
				</g>
			</g>
		</g>
	</g>
	<g>
		<g>
			<g>
				<g>
					<g>
						<g>
							<path class="st0" d="M453.61,317.38l0.66,1.1c0.74,1.23,1.82,2.23,3.12,2.87l1.15,0.57l-1.1,0.66
								c-1.23,0.74-2.23,1.82-2.87,3.12l-0.57,1.15l-0.66-1.1c-0.74-1.23-1.82-2.23-3.12-2.87l-1.15-0.57l1.1-0.66
								c1.23-0.74,2.23-1.82,2.87-3.12L453.61,317.38z"/>
						</g>
					</g>
				</g>
			</g>
		</g>
	</g>
	<g>
		<g>
			<g>
				<g>
					<g>
						<g>
							<path class="st0" d="M383.65,439.67l0.66,1.1c0.74,1.23,1.82,2.23,3.12,2.87l1.15,0.57l-1.1,0.66
								c-1.23,0.74-2.23,1.82-2.87,3.12l-0.57,1.15l-0.66-1.1c-0.74-1.23-1.82-2.23-3.12-2.87l-1.15-0.57l1.1-0.66
								c1.23-0.74,2.23-1.82,2.87-3.11L383.65,439.67z"/>
						</g>
					</g>
				</g>
			</g>
		</g>
	</g>
	<g>
		<path class="st1" d="M382.55,63.75l-2.67-3.09c-1.08,0.02-2.53-0.52-2.63-2.59c-0.01-0.13,0.02-0.27,0.04-0.41l-35.36-40.93
			c-1.2,2.92-7.73,18.7-13.06,27.94c-5.87,10.18-12.11,15.84-18.11,18.92l-4.66,7.51c7.45,3.17,16.3,5.49,26.86,6.56
			C332.96,77.66,363.81,80.55,382.55,63.75z M360.41,43.4c0.22-0.24,0.61-0.13,0.68,0.19c0.19,0.85,0.52,2.33,0.85,3.68
			c0.68,2.7-0.12,4.14-1.48,4.63c-0.93,0.33-3.32,0.21-3.44-2.47C356.93,47.35,359.32,44.56,360.41,43.4z M343.42,33.48
			c-0.93,0.33-3.32,0.21-3.44-2.47c-0.1-2.07,2.3-4.87,3.39-6.03c0.22-0.23,0.61-0.13,0.68,0.19c0.19,0.85,0.52,2.33,0.85,3.68
			C345.58,31.55,344.79,32.99,343.42,33.48z M336.61,66.53c-0.93,0.33-3.32,0.21-3.44-2.47c-0.1-2.07,2.3-4.87,3.39-6.03
			c0.22-0.24,0.61-0.13,0.68,0.19c0.19,0.85,0.52,2.33,0.85,3.68C338.76,64.6,337.97,66.04,336.61,66.53z"/>
		<polygon class="st2" points="341.46,16.19 340.2,16.07 340.15,16.16 341.56,16.31 		"/>
		<path class="st1" d="M328.86,44.67c5.33-9.25,11.87-25.02,13.06-27.94l-0.36-0.42l-1.42-0.15l-16.8,27.11c0,0.01,0,0.02,0.01,0.02
			c0.68,2.7-0.12,4.14-1.48,4.63c-0.35,0.12-0.9,0.18-1.45,0.07l-9.66,15.59C316.75,60.51,322.99,54.84,328.86,44.67z"/>
		<path class="st2" d="M328.86,44.67c5.33-9.25,11.87-25.02,13.06-27.94l-0.36-0.42l-1.42-0.15l-16.8,27.11c0,0.01,0,0.02,0.01,0.02
			c0.68,2.7-0.12,4.14-1.48,4.63c-0.35,0.12-0.9,0.18-1.45,0.07l-9.66,15.59C316.75,60.51,322.99,54.84,328.86,44.67z"/>
		<path class="st3" d="M387.79,69.82c-10.84,9.87-28.39,20.51-57.13,17.58c-11.47-1.17-21.32-4.01-29.73-7.97l-3.9,6.3
			c9.29,4,20.47,6.76,33.96,7.63c29.79,1.93,49.38-6.05,62.28-17.2L387.79,69.82z"/>
		<path class="st4" d="M387.79,69.82l-5.24-6.06c-18.74,16.79-49.6,13.9-49.6,13.9c-10.56-1.07-19.41-3.39-26.86-6.56l-5.16,8.33
			c8.4,3.95,18.26,6.8,29.73,7.97C359.4,90.33,376.96,79.69,387.79,69.82z"/>
		<path class="st0" d="M337.23,58.22c-0.07-0.31-0.46-0.42-0.68-0.19c-1.09,1.16-3.48,3.95-3.39,6.03c0.12,2.68,2.51,2.8,3.44,2.47
			c1.36-0.49,2.15-1.93,1.48-4.63C337.75,60.55,337.42,59.08,337.23,58.22z"/>
		<path class="st0" d="M360.47,51.89c1.36-0.49,2.15-1.93,1.48-4.63c-0.34-1.35-0.67-2.82-0.85-3.68c-0.07-0.31-0.46-0.42-0.68-0.19
			c-1.09,1.16-3.48,3.95-3.39,6.03C357.15,52.11,359.54,52.22,360.47,51.89z"/>
		<path class="st0" d="M379.88,60.66l-2.59-3c-0.01,0.14-0.04,0.28-0.04,0.41C377.35,60.15,378.8,60.68,379.88,60.66z"/>
		<path class="st0" d="M344.05,25.17c-0.07-0.31-0.46-0.42-0.68-0.19c-1.09,1.16-3.48,3.95-3.39,6.03c0.12,2.68,2.51,2.8,3.44,2.47
			c1.36-0.49,2.15-1.93,1.48-4.63C344.56,27.5,344.24,26.03,344.05,25.17z"/>
		<path class="st0" d="M321.87,47.92c1.36-0.49,2.15-1.93,1.48-4.63c0-0.01,0-0.02-0.01-0.02L320.41,48
			C320.97,48.11,321.52,48.05,321.87,47.92z"/>
	</g>
	<g>
		<g>
			<g>
				<path class="st1" d="M50.77,184.42c0,0-3.23,12.74,7.81,12.64c0,0-1.83,6.05,2.94,8.67c4.75,2.6,8.43-2.87,8.43-2.87
					s1.96,4.08,5.36,4.47c5.29,0.6,9.33-5.94,9.33-5.94l52.8,28.26l0.44,6.19l-18.85,18.56l-42.97,6.52L46.93,244.8l-17.97-31.91
					l-0.56-17.88l6.25-19L50.77,184.42z"/>
				<path class="st2" d="M84.65,201.39c0,0-4.05,6.54-9.33,5.94c-3.4-0.38-5.36-4.47-5.36-4.47s-3.68,5.47-8.43,2.87
					c-4.77-2.62-2.94-8.67-2.94-8.67c-11.04,0.1-7.81-12.64-7.81-12.64l-16.13-8.42l-6.25,19l0.56,17.88c0,0,1.79,12.64,9.26,16.24
					c7.46,3.61,18.81,7.04,35.23-5.75c7.77-6.06,19.19-17.83,19.19-17.83L84.65,201.39z"/>
				<path class="st3" d="M25.43,171.2c0,0-29.5,59.67,34.35,90.54s89.1-26.13,89.1-26.13l-4.49-2.34c0,0-41.06,45.07-84.92,18.11
					c-43.86-26.96-26.03-76-26.03-76l-3.41-1.78L25.43,171.2z"/>
				<path class="st4" d="M36.66,176.97c0,0-21.83,46.05,29.57,73.23c0,0,28.59,14.87,49.45,1.57c20.86-13.3,21.77-22.21,21.77-22.21
					l6.94,3.62c0,0-12.31,18.29-23.71,23.96c-10.36,5.15-30.95,14.89-59.29-0.13c-28.34-15.02-37.11-38.78-36.72-57.08
					c0.39-18.3,5.36-26.43,5.36-26.43l5.33,2.78L36.66,176.97z"/>
				<path class="st0" d="M75.66,236.5c0.05-0.27-0.22-0.47-0.47-0.36c-1.21,0.55-3.94,1.96-4.52,3.6c-0.75,2.11,1.06,2.96,1.89,2.99
					c1.21,0.05,2.27-0.81,2.6-3.12C75.32,238.47,75.53,237.22,75.66,236.5z"/>
				<path class="st0" d="M48.4,212.63c0.05-0.27-0.22-0.47-0.47-0.36c-1.21,0.55-3.94,1.96-4.52,3.6c-0.75,2.11,1.06,2.96,1.89,2.99
					c1.21,0.05,2.27-0.81,2.6-3.12C48.07,214.59,48.28,213.35,48.4,212.63z"/>
				<path class="st0" d="M98.73,232.68c0.05-0.27-0.22-0.47-0.47-0.36c-1.21,0.55-3.94,1.96-4.52,3.6
					c-0.75,2.11,1.06,2.96,1.89,2.99c1.21,0.05,2.27-0.81,2.6-3.12C98.39,234.64,98.6,233.4,98.73,232.68z"/>
				<path class="st0" d="M111.67,245.72c0.05-0.27-0.22-0.47-0.47-0.36c-1.21,0.55-3.94,1.96-4.52,3.6
					c-0.75,2.11,1.06,2.96,1.89,2.99c1.21,0.05,2.27-0.81,2.6-3.12C111.34,247.69,111.54,246.44,111.67,245.72z"/>
				<path class="st0" d="M118.98,227.04c0.05-0.27-0.22-0.47-0.47-0.36c-1.21,0.55-3.94,1.96-4.52,3.6
					c-0.75,2.11,1.06,2.96,1.89,2.99c1.21,0.05,2.27-0.81,2.6-3.12C118.65,229.01,118.86,227.76,118.98,227.04z"/>
				<path class="st0" d="M91.32,213.06c0.05-0.27-0.22-0.47-0.47-0.36c-1.21,0.55-3.94,1.96-4.52,3.6
					c-0.75,2.11,1.06,2.96,1.89,2.99c1.21,0.05,2.27-0.81,2.6-3.12C90.99,215.03,91.2,213.78,91.32,213.06z"/>
				<path class="st0" d="M45.15,185.89c0.05-0.27-0.22-0.47-0.47-0.36c-1.21,0.55-3.94,1.96-4.52,3.6
					c-0.75,2.11,1.06,2.96,1.89,2.99c1.21,0.05,2.27-0.81,2.6-3.12C44.82,187.86,45.03,186.61,45.15,185.89z"/>
				<path class="st0" d="M70.09,217.47c0.05-0.27-0.22-0.47-0.47-0.36c-1.21,0.55-3.94,1.96-4.52,3.6
					c-0.75,2.11,1.06,2.96,1.89,2.99c1.21,0.05,2.27-0.81,2.6-3.12C69.76,219.43,69.97,218.19,70.09,217.47z"/>
				<g>
					<path class="st4" d="M60.15,242.75c-0.01,0.01-0.18-0.09-0.5-0.31c-0.36-0.26-0.82-0.58-1.39-0.98c-0.31-0.22-0.64-0.46-1-0.72
						c-0.36-0.27-0.72-0.6-1.13-0.93c-0.8-0.68-1.75-1.41-2.67-2.36c-0.48-0.46-0.97-0.94-1.49-1.44c-0.51-0.51-1-1.08-1.53-1.65
						c-1.08-1.12-2.08-2.45-3.17-3.81c-2.08-2.81-4.14-6.06-5.92-9.69c-1.74-3.65-3-7.29-3.91-10.67c-0.39-1.7-0.81-3.31-1.02-4.86
						c-0.12-0.77-0.27-1.5-0.34-2.22c-0.07-0.72-0.14-1.4-0.2-2.06c-0.16-1.31-0.14-2.51-0.18-3.56c-0.01-0.52-0.03-1.01-0.03-1.46
						c0.02-0.44,0.04-0.85,0.06-1.23c0.04-0.69,0.07-1.25,0.1-1.7c0.03-0.39,0.05-0.59,0.07-0.59c0.02,0,0.03,0.21,0.04,0.59
						c0,0.44,0,1,0,1.69c0,0.37-0.01,0.78-0.01,1.22c0.01,0.45,0.05,0.93,0.07,1.45c0.07,1.04,0.07,2.23,0.26,3.53
						c0.07,0.65,0.15,1.34,0.23,2.05c0.08,0.71,0.25,1.44,0.37,2.2c0.23,1.53,0.65,3.12,1.05,4.81c0.92,3.34,2.19,6.95,3.91,10.56
						c1.76,3.59,3.8,6.83,5.84,9.63c1.07,1.36,2.05,2.69,3.11,3.81c0.52,0.57,0.99,1.15,1.49,1.66c0.51,0.5,0.99,0.99,1.46,1.45
						c0.9,0.95,1.83,1.7,2.61,2.4c0.39,0.34,0.75,0.67,1.09,0.96c0.35,0.27,0.67,0.52,0.97,0.75c0.54,0.43,0.98,0.78,1.33,1.05
						C60,242.6,60.16,242.74,60.15,242.75z"/>
				</g>
				<g>
					<path class="st4" d="M126.15,224.21c-0.07,0.13-8.53-4.16-18.9-9.57c-10.37-5.41-18.73-9.9-18.66-10.03
						c0.07-0.13,8.53,4.16,18.9,9.57C117.86,219.59,126.21,224.08,126.15,224.21z"/>
				</g>
			</g>
			<g>
				<path class="st0" d="M148.88,235.61c0,0-0.06,0.18-0.21,0.51c-0.15,0.33-0.38,0.82-0.71,1.45c-0.65,1.26-1.68,3.1-3.16,5.36
					c-2.97,4.48-7.77,10.84-15.48,16.75c-3.85,2.92-8.42,5.73-13.76,7.75c-5.31,2.05-11.34,3.37-17.74,3.63
					c-6.4,0.27-13.15-0.53-19.89-2.29c-6.74-1.75-13.48-4.43-20.07-7.74c-6.59-3.32-12.72-7.23-17.99-11.8
					c-5.29-4.54-9.7-9.74-13-15.23c-3.31-5.49-5.52-11.25-6.8-16.79c-1.29-5.55-1.7-10.88-1.61-15.72c0.23-9.7,2.23-17.37,3.88-22.5
					c0.84-2.57,1.62-4.52,2.18-5.83c0.28-0.66,0.51-1.15,0.67-1.47c0.16-0.33,0.26-0.49,0.26-0.49s-0.07,0.18-0.21,0.51
					c-0.14,0.34-0.36,0.83-0.62,1.49c-0.53,1.32-1.27,3.28-2.08,5.85c-1.58,5.13-3.52,12.79-3.7,22.44
					c-0.06,4.81,0.36,10.11,1.67,15.61c1.3,5.5,3.5,11.2,6.79,16.64c3.28,5.44,7.67,10.59,12.92,15.1
					c5.24,4.53,11.33,8.42,17.89,11.72c6.56,3.3,13.26,5.96,19.96,7.71c6.69,1.75,13.39,2.56,19.74,2.3
					c6.35-0.24,12.33-1.53,17.61-3.55c5.3-1.99,9.85-4.76,13.69-7.64c7.69-5.83,12.52-12.13,15.53-16.57
					c1.5-2.24,2.55-4.05,3.24-5.3c0.33-0.61,0.58-1.09,0.76-1.43C148.79,235.78,148.88,235.61,148.88,235.61z"/>
			</g>
		</g>
	</g>
	<g>
		<g>
			<g>
				<path class="st1" d="M397.41,327.25c0,0-6.22,11.57,4.52,14.15c0,0-3.24,5.43,0.75,9.13c3.97,3.68,8.87-0.74,8.87-0.74
					s0.91,4.44,4.12,5.63c4.98,1.86,10.49-3.5,10.49-3.5l44.37,40.22l-1.08,6.11l-22.79,13.44l-43.27-4.1l-24.36-22.71l-9.7-35.32
					l3.79-17.48l10.67-16.92L397.41,327.25z"/>
				<path class="st2" d="M426.16,351.93c0,0-5.51,5.36-10.49,3.5c-3.21-1.2-4.12-5.63-4.12-5.63s-4.9,4.41-8.87,0.74
					c-4-3.7-0.75-9.13-0.75-9.13c-10.74-2.58-4.52-14.15-4.52-14.15l-13.61-12.08l-10.67,16.92l-3.79,17.48c0,0-1.33,12.69,5.04,18
					c6.36,5.31,16.54,11.4,35.57,2.97c9.01-3.99,22.94-12.64,22.94-12.64L426.16,351.93z"/>
				<path class="st3" d="M376.03,308.28c0,0-43.09,50.73,11.36,96.17c54.46,45.43,92.78-3.73,92.78-3.73l-3.79-3.36
					c0,0-50.77,33.77-86.78-3.03c-36.01-36.8-6.82-80.04-6.82-80.04l-2.88-2.56L376.03,308.28z"/>
				<path class="st4" d="M385.53,316.6c0,0-32.34,39.38,10.93,78.22c0,0,24.13,21.36,47.59,13.52
					c23.46-7.84,26.51-16.27,26.51-16.27l5.85,5.2c0,0-16.38,14.76-28.82,17.5c-11.3,2.48-33.63,6.94-57.49-14.5
					c-23.86-21.44-26.59-46.62-21.78-64.28c4.82-17.66,11.61-24.34,11.61-24.34l4.49,3.99L385.53,316.6z"/>
				<path class="st0" d="M408.92,383.81c0.11-0.25-0.1-0.51-0.37-0.46c-1.3,0.25-4.3,0.95-5.25,2.4c-1.24,1.87,0.31,3.13,1.11,3.36
					c1.16,0.34,2.4-0.24,3.28-2.39C408.12,385.64,408.62,384.48,408.92,383.81z"/>
				<path class="st0" d="M388.27,354.04c0.11-0.25-0.1-0.51-0.37-0.46c-1.3,0.25-4.3,0.95-5.25,2.4c-1.24,1.87,0.31,3.13,1.11,3.36
					c1.16,0.34,2.4-0.24,3.28-2.39C387.47,355.87,387.98,354.71,388.27,354.04z"/>
				<path class="st0" d="M432.23,385.7c0.11-0.25-0.1-0.51-0.37-0.46c-1.3,0.25-4.3,0.95-5.25,2.4c-1.24,1.87,0.31,3.13,1.11,3.36
					c1.16,0.34,2.4-0.24,3.28-2.39C431.43,387.52,431.93,386.36,432.23,385.7z"/>
				<path class="st0" d="M441.62,401.49c0.11-0.25-0.1-0.51-0.37-0.46c-1.3,0.25-4.3,0.95-5.25,2.4c-1.24,1.87,0.31,3.13,1.11,3.36
					c1.16,0.34,2.4-0.24,3.28-2.39C440.82,403.32,441.32,402.16,441.62,401.49z"/>
				<path class="st0" d="M453.25,385.15c0.11-0.25-0.1-0.51-0.37-0.46c-1.3,0.25-4.3,0.95-5.25,2.4c-1.24,1.87,0.31,3.13,1.11,3.36
					c1.16,0.34,2.4-0.24,3.28-2.39C452.45,386.97,452.95,385.81,453.25,385.15z"/>
				<path class="st0" d="M429.8,364.87c0.11-0.25-0.1-0.51-0.37-0.46c-1.3,0.25-4.3,0.95-5.25,2.4c-1.24,1.87,0.31,3.13,1.11,3.36
					c1.16,0.34,2.4-0.24,3.28-2.39C429,366.7,429.51,365.54,429.8,364.87z"/>
				<path class="st0" d="M391.6,327.32c0.11-0.25-0.1-0.51-0.37-0.46c-1.3,0.25-4.3,0.95-5.25,2.4c-1.24,1.87,0.31,3.13,1.11,3.36
					c1.16,0.34,2.4-0.24,3.28-2.39C390.81,329.14,391.31,327.98,391.6,327.32z"/>
				<path class="st0" d="M408.14,364c0.11-0.25-0.1-0.51-0.37-0.46c-1.3,0.25-4.3,0.95-5.25,2.4c-1.24,1.87,0.31,3.13,1.11,3.36
					c1.16,0.34,2.4-0.24,3.28-2.39C407.34,365.82,407.85,364.67,408.14,364z"/>
				<g>
					<path class="st4" d="M392.36,386.11c-0.01,0.01-0.16-0.13-0.41-0.42c-0.29-0.34-0.66-0.76-1.11-1.29
						c-0.24-0.29-0.51-0.6-0.79-0.94c-0.28-0.35-0.56-0.75-0.87-1.17c-0.61-0.85-1.35-1.79-2.02-2.93c-0.35-0.56-0.72-1.15-1.1-1.76
						c-0.38-0.61-0.71-1.29-1.08-1.97c-0.77-1.35-1.43-2.88-2.15-4.47c-1.34-3.23-2.55-6.89-3.39-10.84c-0.8-3.96-1.14-7.8-1.2-11.3
						c0.03-1.75,0.02-3.41,0.19-4.96c0.07-0.77,0.1-1.52,0.21-2.24c0.11-0.71,0.21-1.4,0.31-2.05c0.16-1.31,0.47-2.47,0.69-3.5
						c0.12-0.51,0.21-0.99,0.33-1.42c0.13-0.42,0.25-0.82,0.35-1.18c0.21-0.66,0.37-1.2,0.51-1.62c0.12-0.37,0.19-0.56,0.21-0.55
						c0.02,0.01-0.02,0.21-0.11,0.58c-0.11,0.43-0.24,0.97-0.41,1.64c-0.09,0.36-0.2,0.76-0.31,1.18c-0.1,0.44-0.18,0.91-0.29,1.43
						c-0.19,1.03-0.47,2.18-0.61,3.49c-0.09,0.65-0.18,1.33-0.27,2.04c-0.09,0.71-0.11,1.46-0.17,2.22
						c-0.15,1.54-0.13,3.19-0.14,4.92c0.09,3.47,0.44,7.27,1.23,11.2c0.84,3.91,2.03,7.55,3.33,10.76c0.71,1.58,1.34,3.11,2.09,4.45
						c0.36,0.68,0.68,1.36,1.05,1.97c0.37,0.61,0.72,1.2,1.06,1.76c0.65,1.14,1.36,2.09,1.95,2.96c0.3,0.43,0.56,0.84,0.83,1.19
						c0.27,0.35,0.52,0.67,0.75,0.96c0.42,0.55,0.76,0.99,1.03,1.34C392.25,385.93,392.37,386.1,392.36,386.11z"/>
				</g>
				<g>
					<path class="st4" d="M460.88,384.14c-0.1,0.11-7.27-6.1-16.02-13.87c-8.75-7.77-15.77-14.15-15.67-14.26
						c0.1-0.11,7.27,6.1,16.02,13.87C453.96,377.65,460.98,384.03,460.88,384.14z"/>
				</g>
			</g>
			<g>
				<path class="st0" d="M480.17,400.71c0,0-0.1,0.16-0.33,0.44c-0.23,0.28-0.57,0.7-1.04,1.24c-0.94,1.07-2.38,2.6-4.37,4.43
					c-3.97,3.63-10.17,8.63-19.08,12.49c-4.45,1.9-9.56,3.51-15.23,4.18c-5.65,0.7-11.82,0.52-18.09-0.79
					c-6.28-1.29-12.63-3.7-18.74-7.05c-6.12-3.34-12-7.56-17.59-12.38c-5.59-4.82-10.58-10.1-14.59-15.81
					c-4.03-5.69-7.05-11.8-8.92-17.93c-1.88-6.13-2.62-12.25-2.53-17.94c0.09-5.7,0.99-10.97,2.25-15.64
					c2.57-9.35,6.37-16.31,9.22-20.89c1.44-2.29,2.66-3.99,3.52-5.13c0.43-0.57,0.77-0.99,1.01-1.27c0.23-0.28,0.37-0.41,0.37-0.41
					s-0.11,0.15-0.33,0.44c-0.22,0.29-0.55,0.72-0.96,1.3c-0.83,1.15-2.03,2.87-3.44,5.17c-2.78,4.59-6.52,11.56-9.03,20.87
					c-1.23,4.65-2.1,9.89-2.17,15.55c-0.08,5.65,0.67,11.72,2.55,17.79c1.86,6.08,4.87,12.13,8.87,17.78
					c3.98,5.67,8.95,10.92,14.51,15.71c5.56,4.79,11.42,9,17.49,12.32c6.07,3.33,12.37,5.73,18.6,7.02
					c6.22,1.31,12.33,1.5,17.94,0.83c5.62-0.65,10.71-2.23,15.14-4.1c8.88-3.79,15.09-8.73,19.09-12.3c2-1.81,3.46-3.31,4.42-4.35
					c0.46-0.52,0.82-0.91,1.08-1.2C480.04,400.85,480.17,400.71,480.17,400.71z"/>
			</g>
		</g>
	</g>
	<g>
		<path class="st1" d="M430,250.26l2.49-2.63c-0.11-0.95,0.23-2.28,2.05-2.55c0.11-0.02,0.24,0,0.36,0l32.95-34.79
			c-2.68-0.79-17.16-5.16-25.78-9.04c-9.49-4.27-15.03-9.27-18.27-14.29l-7.03-3.44c-2.13,6.84-3.4,14.85-3.4,24.25
			C413.36,207.78,413.54,235.23,430,250.26z M445.98,228.95c0.23,0.17,0.17,0.53-0.11,0.62c-0.74,0.24-2.01,0.66-3.17,1.08
			c-2.32,0.83-3.66,0.26-4.21-0.89c-0.38-0.79-0.48-2.91,1.87-3.25C442.19,226.23,444.86,228.09,445.98,228.95z M453.22,213.1
			c-0.38-0.79-0.48-2.91,1.87-3.25c1.82-0.27,4.49,1.6,5.61,2.45c0.23,0.17,0.17,0.53-0.11,0.62c-0.74,0.24-2.01,0.66-3.17,1.08
			C455.11,214.83,453.77,214.26,453.22,213.1z M423.49,210.02c-0.38-0.79-0.48-2.91,1.87-3.25c1.82-0.27,4.49,1.6,5.61,2.45
			c0.23,0.17,0.17,0.53-0.11,0.62c-0.74,0.24-2.01,0.66-3.17,1.08C425.38,211.74,424.04,211.17,423.49,210.02z"/>
		<polygon class="st2" points="468.28,209.84 468.28,208.72 468.19,208.68 468.19,209.94 		"/>
		<path class="st1" d="M442.07,201.26c8.62,3.88,23.1,8.24,25.78,9.04l0.34-0.36l0.01-1.26l-25.38-12.41c-0.01,0-0.01,0-0.02,0.01
			c-2.32,0.83-3.66,0.26-4.21-0.89c-0.14-0.29-0.24-0.77-0.19-1.27l-14.59-7.14C427.04,191.98,432.58,196.99,442.07,201.26z"/>
		<path class="st2" d="M442.07,201.26c8.62,3.88,23.1,8.24,25.78,9.04l0.34-0.36l0.01-1.26l-25.38-12.41c-0.01,0-0.01,0-0.02,0.01
			c-2.32,0.83-3.66,0.26-4.21-0.89c-0.14-0.29-0.24-0.77-0.19-1.27l-14.59-7.14C427.04,191.98,432.58,196.99,442.07,201.26z"/>
		<path class="st3" d="M425.12,255.41c-9.65-8.68-20.58-23.21-20.55-48.79c0.02-10.21,1.65-19.15,4.39-26.9l-5.89-2.88
			c-2.71,8.54-4.14,18.64-3.72,30.6c0.94,26.42,9.7,42.98,20.67,53.36L425.12,255.41z"/>
		<path class="st4" d="M425.12,255.41l4.88-5.15c-16.46-15.03-16.64-42.48-16.64-42.48c0.01-9.4,1.27-17.41,3.4-24.25l-7.8-3.81
			c-2.74,7.75-4.38,16.69-4.39,26.9C404.54,232.21,415.46,246.74,425.12,255.41z"/>
		<path class="st0" d="M430.87,209.83c0.27-0.09,0.33-0.44,0.11-0.62c-1.12-0.86-3.79-2.72-5.61-2.45
			c-2.35,0.35-2.25,2.46-1.87,3.25c0.55,1.16,1.89,1.73,4.21,0.89C428.86,210.49,430.13,210.07,430.87,209.83z"/>
		<path class="st0" d="M438.5,229.75c0.55,1.16,1.89,1.73,4.21,0.89c1.16-0.42,2.43-0.84,3.17-1.08c0.27-0.09,0.33-0.44,0.11-0.62
			c-1.12-0.86-3.79-2.72-5.61-2.45C438.02,226.84,438.12,228.96,438.5,229.75z"/>
		<path class="st0" d="M432.49,247.63l2.42-2.55c-0.12,0-0.25-0.01-0.36,0C432.72,245.35,432.38,246.68,432.49,247.63z"/>
		<path class="st0" d="M460.59,212.91c0.27-0.09,0.33-0.44,0.11-0.62c-1.12-0.86-3.79-2.72-5.61-2.45
			c-2.35,0.35-2.25,2.46-1.87,3.25c0.55,1.16,1.89,1.73,4.21,0.89C458.59,213.58,459.86,213.15,460.59,212.91z"/>
		<path class="st0" d="M438.58,195.38c0.55,1.16,1.89,1.73,4.21,0.89c0.01,0,0.01,0,0.02-0.01l-4.42-2.16
			C438.34,194.61,438.44,195.09,438.58,195.38z"/>
	</g>
	<g>
		<path class="st1" d="M80.04,390.87l-0.51,3.58c0.64,0.71,1.13,1.99-0.2,3.26c-0.08,0.08-0.2,0.14-0.29,0.21l-6.8,47.43
			c2.65-0.9,16.99-5.7,26.26-7.51c10.21-1.99,17.63-1.11,23.17,1.11l7.73-1.26c-2.21-6.82-5.81-14.09-11.23-21.76
			C118.16,415.93,102.16,393.63,80.04,390.87z M79.31,417.5c-0.29-0.01-0.44-0.34-0.27-0.56c0.46-0.62,1.26-1.7,1.96-2.71
			c1.41-2.02,2.84-2.33,3.95-1.7c0.76,0.43,2.07,2.09,0.35,3.73C83.97,417.53,80.71,417.55,79.31,417.5z M82.55,434.62
			c0.76,0.43,2.07,2.09,0.35,3.73c-1.33,1.27-4.59,1.29-6,1.24c-0.29-0.01-0.44-0.34-0.27-0.56c0.46-0.62,1.26-1.7,1.96-2.71
			C80.01,434.3,81.43,433.99,82.55,434.62z M108.6,419.96c0.76,0.43,2.07,2.09,0.35,3.73c-1.33,1.27-4.59,1.29-6,1.24
			c-0.29-0.01-0.44-0.34-0.27-0.56c0.46-0.62,1.26-1.7,1.96-2.71C106.06,419.64,107.48,419.33,108.6,419.96z"/>
		<polygon class="st2" points="72.14,445.98 72.79,446.89 72.88,446.88 72.16,445.84 		"/>
		<path class="st1" d="M98.49,437.84c-9.28,1.81-23.62,6.61-26.26,7.51l-0.07,0.48l0.72,1.03l27.89-4.53c0-0.01,0.01-0.01,0.01-0.02
			c1.41-2.02,2.84-2.33,3.95-1.7c0.28,0.16,0.64,0.49,0.89,0.93l16.03-2.61C116.12,436.73,108.7,435.85,98.49,437.84z"/>
		<path class="st2" d="M98.49,437.84c-9.28,1.81-23.62,6.61-26.26,7.51l-0.07,0.48l0.72,1.03l27.89-4.53c0-0.01,0.01-0.01,0.01-0.02
			c1.41-2.02,2.84-2.33,3.95-1.7c0.28,0.16,0.64,0.49,0.89,0.93l16.03-2.61C116.12,436.73,108.7,435.85,98.49,437.84z"/>
		<path class="st3" d="M81.05,383.85c12.89,1.51,30.21,7.05,44.96,27.96c5.89,8.34,9.71,16.58,11.95,24.5l6.48-1.05
			c-2.72-8.53-7.38-17.61-14.64-27.13c-16.03-21.03-32.75-29.48-47.69-31.62L81.05,383.85z"/>
		<path class="st4" d="M81.05,383.85l-1.01,7.02c22.12,2.76,38.12,25.06,38.12,25.06c5.42,7.67,9.02,14.95,11.23,21.76l8.57-1.39
			c-2.24-7.91-6.07-16.15-11.95-24.5C111.25,390.9,93.94,385.35,81.05,383.85z"/>
		<path class="st0" d="M102.69,424.37c-0.17,0.23-0.02,0.55,0.27,0.56c1.41,0.05,4.66,0.03,6-1.24c1.72-1.64,0.41-3.31-0.35-3.73
			c-1.12-0.63-2.54-0.32-3.95,1.7C103.94,422.67,103.15,423.75,102.69,424.37z"/>
		<path class="st0" d="M84.95,412.53c-1.12-0.63-2.54-0.32-3.95,1.7c-0.71,1.01-1.5,2.09-1.96,2.71c-0.17,0.23-0.02,0.55,0.27,0.56
			c1.41,0.05,4.66,0.03,6-1.24C87.02,414.62,85.71,412.95,84.95,412.53z"/>
		<path class="st0" d="M79.53,394.45l-0.5,3.48c0.1-0.07,0.21-0.13,0.29-0.21C80.65,396.45,80.17,395.17,79.53,394.45z"/>
		<path class="st0" d="M76.64,439.03c-0.17,0.23-0.02,0.55,0.27,0.56c1.41,0.05,4.66,0.03,6-1.24c1.72-1.64,0.41-3.31-0.35-3.73
			c-1.12-0.63-2.54-0.32-3.95,1.7C77.89,437.33,77.1,438.41,76.64,439.03z"/>
		<path class="st0" d="M104.73,440.63c-1.12-0.63-2.54-0.32-3.95,1.7c0,0.01-0.01,0.01-0.01,0.02l4.86-0.79
			C105.38,441.12,105.02,440.79,104.73,440.63z"/>
	</g>
</g>
<g id="Background_Simple" class="st5">
	<path class="st6" d="M435.38,90.1l-2.43-4.01c-20.52-33.81-57.61-54.19-96.72-51.72c-5.03,0.32-10.03,1-14.97,2.06
		c-35.56,7.61-66.5,34.5-79.32,68.94c-7.54,20.25-9.65,43.57-23.96,59.65c-18.63,20.92-50.25,21.58-78.06,20.71
		c-27.8-0.87-59.45-0.13-77.99,20.88c-11.61,13.15-15.3,31.86-14.36,49.48c2.48,46.64,34.98,88.35,76.31,109.07
		c41.33,20.73,90,22.59,135.23,13.47c63.37-12.77,123.63-47.85,159.86-102.04C455.2,222.4,464.37,148.58,435.38,90.1z"/>
</g>
<g id="Floor">
	<g>
		<path class="st7" d="M482.61,474.56c0,0.14-104.15,0.26-232.6,0.26c-128.49,0-232.62-0.12-232.62-0.26s104.13-0.26,232.62-0.26
			C378.46,474.3,482.61,474.41,482.61,474.56z"/>
	</g>
</g>
<g id="Character">
	<g>
		<g>
			<g>
				<polygon class="st8" points="320.37,80.47 322.07,101.11 314.57,94.96 318.32,90.61 319.29,80.47 				"/>
				<polygon class="st9" points="320.37,80.47 322.07,101.11 314.57,94.96 318.32,90.61 319.29,80.47 				"/>
				<polygon class="st8" points="320.37,80.47 322.07,101.11 314.57,94.96 318.32,90.61 319.29,80.47 				"/>
				<polygon class="st9" points="320.37,80.47 322.07,101.11 314.57,94.96 318.32,90.61 319.29,80.47 				"/>
			</g>
			<g>
				<path class="st7" d="M398.95,335.71c-0.06-2.11-1.34-3.98-3.1-5.14c-27.51-18.2-48.23-58.55-50.32-92.71
					c-0.06-1.95-0.12-3.92-0.18-5.91c0-0.01,0-0.02,0-0.03l0,0c-1.59-48.84-6.01-109.51-15.24-123.86
					c-15.69-24.39-52.31-31.9-52.31-31.9c-53.62-3.84-63.19,37.36-68.6,74.89C205.83,174.4,198.81,250,198.81,250l3.91,11.57
					c11.61,34.4,37.75,62.23,71.73,75.02c9.88,3.72,18.25,5.22,22.18,2.01c15.61,15.82,35.15,27.78,56.42,34.25
					c8.66,2.63,17.73,4.39,26.75,3.55c5.85-0.55,12.02-2.48,15.51-7.21c3.01-4.07,3.42-9.9,1.02-14.36
					c-2.4-4.46-7.49-7.32-12.55-7.05C385.81,341.2,399.18,343.14,398.95,335.71z"/>
				<g>
					<g>
						<g>
							<path class="st10" d="M284.93,91.34l-3.35-3.2l-36.25,14.61c-5.24,0.29-9.4,4.55-9.55,9.8l0.32,118.11
								c-0.05,8.01,1.56,14.95,6.39,21.33l5.09,6.72c11.61,15.32,35.49,14.06,44.68-2.82c0.64-1.18,1.09-2.22,1.28-3.05
								c0.19-1.05,0.48-1.75,0.54-2.64c1.08-9.5,1.14-17.74,1.14-17.74c0.65-10.43,0.86-14.71,0.86-14.62c0,0,22.2-2.55,28.2-31.05
								c2.98-14.17,2.42-33.67,1.58-52.86C324.7,107.36,306.28,91.31,284.93,91.34z"/>
						</g>
						<g>
							<g>
								<g>
									<g>
										<g>
											<g>
												<g>
													<g>
														<g>
															<g>
																<g>
																	<g>
																		<g>
																			<g>
																				<g>
																					<g>
																						<g>
																							<g>
																								<g>
																									<g>
																										<path class="st7" d="M277.5,149.83c-0.03,1.95-1.7,3.53-3.74,3.54c-2.03,0.01-3.66-1.56-3.63-3.51
																											c0.03-1.95,1.7-3.53,3.73-3.54C275.9,146.31,277.53,147.88,277.5,149.83z"/>
																									</g>
																								</g>
																							</g>
																						</g>
																					</g>
																				</g>
																			</g>
																		</g>
																	</g>
																</g>
															</g>
														</g>
													</g>
													<g>
														<g>
															<g>
																<g>
																	<g>
																		<g>
																			<g>
																				<g>
																					<g>
																						<g>
																							<g>
																								<g>
																									<g>
																										<path class="st7" d="M314.98,150.84c-0.03,1.95-1.7,3.53-3.74,3.54c-2.03,0.01-3.66-1.56-3.63-3.51
																											c0.03-1.95,1.7-3.53,3.73-3.54C313.38,147.31,315,148.89,314.98,150.84z"/>
																									</g>
																								</g>
																							</g>
																						</g>
																					</g>
																				</g>
																			</g>
																		</g>
																	</g>
																</g>
															</g>
														</g>
													</g>
													<g>
														<g>
															<g>
																<g>
																	<g>
																		<g>
																			<g>
																				<g>
																					<g>
																						<g>
																							<g>
																								<g>
																									<g>
																										<g>
																											<path class="st7" d="M322.07,141.51c-0.48,0.46-3.17-1.75-7.13-1.94c-3.96-0.24-6.97,1.65-7.38,1.14
																												c-0.2-0.23,0.31-1.07,1.62-1.93c1.29-0.86,3.47-1.64,5.93-1.51c2.47,0.14,4.5,1.15,5.65,2.14
																												C321.94,140.41,322.31,141.3,322.07,141.51z"/>
																										</g>
																									</g>
																								</g>
																							</g>
																						</g>
																					</g>
																				</g>
																			</g>
																		</g>
																	</g>
																</g>
															</g>
														</g>
													</g>
												</g>
												<g>
													<g>
														<g>
															<g>
																<g>
																	<g>
																		<g>
																			<g>
																				<g>
																					<g>
																						<g>
																							<g>
																								<g>
																									<g>
																										<g>
																											<path class="st7" d="M281.84,141.92c-0.53,0.41-2.98-2.06-6.9-2.66c-3.91-0.65-7.1,0.92-7.45,0.38
																												c-0.18-0.25,0.41-1.03,1.81-1.75c1.37-0.72,3.61-1.28,6.06-0.89c2.44,0.39,4.36,1.61,5.4,2.71
																												C281.82,140.82,282.09,141.74,281.84,141.92z"/>
																										</g>
																									</g>
																								</g>
																							</g>
																						</g>
																					</g>
																				</g>
																			</g>
																		</g>
																	</g>
																</g>
															</g>
														</g>
													</g>
												</g>
												<g>
													<g>
														<g>
															<g>
																<g>
																	<g>
																		<g>
																			<g>
																				<g>
																					<g>
																						<g>
																							<g>
																								<g>
																									<g>
																										<path class="st7" d="M295.69,170.78c-0.01-0.23,2.48-0.53,6.5-0.84c1.02-0.05,1.99-0.21,2.19-0.89
																											c0.28-0.72-0.09-1.83-0.53-3.03c-0.83-2.5-1.7-5.12-2.61-7.86c-3.61-11.18-6.16-20.36-5.71-20.5
																											c0.45-0.14,3.74,8.81,7.35,19.99c0.86,2.76,1.69,5.38,2.48,7.9c0.33,1.17,0.92,2.51,0.33,4
																											c-0.31,0.74-1.08,1.25-1.74,1.4c-0.66,0.17-1.23,0.15-1.73,0.15C298.19,171.11,295.7,171,295.69,170.78z"
																											/>
																									</g>
																								</g>
																							</g>
																						</g>
																					</g>
																				</g>
																			</g>
																		</g>
																	</g>
																</g>
															</g>
														</g>
													</g>
												</g>
												<g>
													<g>
														<g>
															<g>
																<g>
																	<g>
																		<g>
																			<g>
																				<g>
																					<g>
																						<g>
																							<g>
																								<g>
																									<path class="st11" d="M296.08,217.83c0,0-19.39,0.28-37.96-12.19c0,0,8.68,20.37,37.56,19.12
																										L296.08,217.83z"/>
																								</g>
																							</g>
																						</g>
																					</g>
																				</g>
																			</g>
																		</g>
																	</g>
																</g>
															</g>
														</g>
													</g>
												</g>
												<g>
													<g>
														<g>
															<g>
																<g>
																	<g>
																		<g>
																			<g>
																				<g>
																					<g>
																						<g>
																							<g>
																								<g>
																									<path class="st11" d="M293.54,180.25c-1.33-1.96-3.78-3.12-6.27-2.97c-1.73,0.1-3.51,0.84-4.63,2.19
																										c-1.12,1.35-1.43,3.33-0.55,4.71c1,1.56,3.21,2.02,5.13,1.57c1.92-0.44,3.61-1.61,5.22-2.77
																										c0.44-0.32,0.9-0.66,1.19-1.12c0.29-0.46,0.38-1.07,0.07-1.48"/>
																								</g>
																							</g>
																						</g>
																					</g>
																				</g>
																			</g>
																		</g>
																	</g>
																</g>
															</g>
														</g>
													</g>
												</g>
												<g>
													<g>
														<g>
															<g>
																<g>
																	<g>
																		<g>
																			<g>
																				<g>
																					<g>
																						<g>
																							<g>
																								<g>
																									<g>
																										<path class="st7" d="M283.89,172.94c0.65-0.01,0.44,4.3,3.97,7.54c3.52,3.25,8.13,3,8.14,3.6
																											c0.05,0.27-1.06,0.79-3,0.74c-1.9-0.03-4.65-0.78-6.81-2.76c-2.15-1.99-2.99-4.53-3.05-6.31
																											C283.06,173.94,283.59,172.9,283.89,172.94z"/>
																									</g>
																								</g>
																							</g>
																						</g>
																					</g>
																				</g>
																			</g>
																		</g>
																	</g>
																</g>
															</g>
														</g>
													</g>
												</g>
											</g>
										</g>
									</g>
									<g>
										<g>
											<g>
												<g>
													<g>
														<g>
															<g>
																<g>
																	<g>
																		<g>
																			<g>
																				<g>
																					<g>
																						<path class="st7" d="M285.64,126.46c-0.55,1.01-4.39-0.1-9.08-0.25c-4.69-0.25-8.61,0.53-9.07-0.52
																							c-0.2-0.5,0.6-1.4,2.26-2.21c1.65-0.8,4.17-1.42,6.98-1.3c2.81,0.12,5.27,0.95,6.85,1.89
																							C285.16,125.01,285.88,125.98,285.64,126.46z"/>
																					</g>
																				</g>
																			</g>
																		</g>
																	</g>
																</g>
															</g>
														</g>
													</g>
												</g>
											</g>
										</g>
									</g>
									<g>
										<g>
											<g>
												<g>
													<g>
														<g>
															<g>
																<g>
																	<g>
																		<g>
																			<g>
																				<g>
																					<g>
																						<path class="st7" d="M321.5,124.47c-0.74,0.86-3.43-0.21-6.71-0.41c-3.27-0.32-6.1,0.3-6.69-0.67
																							c-0.26-0.47,0.23-1.35,1.48-2.14c1.24-0.79,3.28-1.38,5.53-1.2c2.25,0.19,4.17,1.1,5.26,2.08
																							C321.5,123.1,321.83,124.05,321.5,124.47z"/>
																					</g>
																				</g>
																			</g>
																		</g>
																	</g>
																</g>
															</g>
														</g>
													</g>
												</g>
											</g>
										</g>
									</g>
								</g>
							</g>
						</g>
					</g>
				</g>
				<path class="st7" d="M236.5,162.95c0,0,20.31,6.32,31.8-43.8c3.93-17.14,19.82-31.01,19.82-31.01l-6.44-1.94
					c0,0-40.04,11.28-40.72,11.79c-0.67,0.51-10.1,20.71-10.1,20.71L236.5,162.95z"/>
				<g>
					<g>
						<g>
							<g>
								<g>
									<g>
										<g>
											<g>
												<g>
													<g>
														<path class="st10" d="M241.5,161.09c0.1-2.14-2.12-7.31-4.21-7.74c-5.6-1.16-15.79-1.22-16.6,13.1
															c-1.11,19.58,18.78,16.66,18.84,16.1C239.58,182.11,241.15,168.47,241.5,161.09z"/>
													</g>
												</g>
											</g>
										</g>
									</g>
								</g>
							</g>
						</g>
					</g>
				</g>
				<g>
					<g>
						<g>
							<g>
								<g>
									<g>
										<g>
											<g>
												<g>
													<g>
														<g>
															<path class="st11" d="M233.97,174.79c-0.08-0.07-0.35,0.22-0.95,0.45c-0.58,0.22-1.55,0.35-2.55-0.09
																c-2.03-0.88-3.58-4.26-3.48-7.79c0.05-1.79,0.52-3.46,1.23-4.83c0.68-1.4,1.66-2.35,2.71-2.47
																c1.05-0.18,1.75,0.48,1.96,1.05c0.23,0.56,0.08,0.95,0.19,0.99c0.05,0.05,0.44-0.3,0.33-1.12
																c-0.06-0.39-0.26-0.87-0.7-1.27c-0.45-0.41-1.13-0.64-1.86-0.61c-1.52,0.02-2.95,1.33-3.73,2.83
																c-0.86,1.51-1.44,3.39-1.49,5.39c-0.1,3.95,1.71,7.76,4.5,8.74c1.36,0.44,2.53,0.09,3.15-0.34
																C233.91,175.26,234.03,174.83,233.97,174.79z"/>
														</g>
													</g>
												</g>
											</g>
										</g>
									</g>
								</g>
							</g>
						</g>
					</g>
				</g>
				<g>
					<path class="st7" d="M250.27,153.37c-0.01-0.07,1.08-0.07,2.93-0.59c1.84-0.52,4.43-1.72,6.97-4.05
						c1.26-1.16,2.51-2.59,3.64-4.26c1.11-1.68,2.11-3.61,2.96-5.72c1.73-4.22,2.84-9.14,4.22-14.24c1.38-5.11,2.87-9.93,4.5-14.22
						c1.62-4.3,3.41-8.03,5.1-11.06c1.7-3.03,3.3-5.34,4.48-6.88c0.58-0.78,1.08-1.34,1.4-1.74c0.33-0.39,0.51-0.59,0.52-0.58
						c0.01,0.01-0.14,0.23-0.44,0.64c-0.29,0.42-0.77,1-1.32,1.79c-1.13,1.57-2.67,3.9-4.33,6.94c-1.65,3.03-3.39,6.77-4.98,11.05
						c-1.6,4.28-3.08,9.09-4.45,14.18c-1.37,5.09-2.5,10.03-4.28,14.29c-0.88,2.13-1.9,4.08-3.04,5.78
						c-1.17,1.69-2.45,3.13-3.75,4.29c-2.62,2.33-5.28,3.51-7.17,3.97C251.36,153.44,250.27,153.37,250.27,153.37z"/>
				</g>
				<g>
					<path class="st7" d="M341.39,229.82c-0.01,0,0.05-0.11,0.16-0.32c0.13-0.23,0.3-0.53,0.52-0.92c0.48-0.83,1.15-2.02,2.01-3.53
						c0.85-1.54,1.89-3.43,2.95-5.7c1.05-2.27,2.15-4.9,2.92-7.95c0.76-3.03,1.24-6.49,0.72-10.14c-0.44-3.66-1.99-7.34-3.77-11.09
						c-0.89-1.88-1.83-3.81-2.68-5.83c-0.84-2.03-1.57-4.15-2.16-6.35c-1.19-4.4-1.84-9.09-2.21-13.9
						c-0.7-9.62-0.35-18.81-1.16-27.1c-0.39-4.14-1-8.05-1.96-11.62c-0.91-3.58-2.22-6.78-3.66-9.57c-2.92-5.58-6.56-9.3-9.34-11.42
						c-1.41-1.05-2.57-1.77-3.39-2.21c-0.39-0.21-0.69-0.38-0.93-0.5c-0.21-0.12-0.31-0.18-0.31-0.19c0-0.01,0.12,0.04,0.33,0.14
						c0.24,0.11,0.55,0.27,0.95,0.46c0.83,0.42,2.02,1.11,3.46,2.14c2.84,2.09,6.56,5.8,9.54,11.41c1.46,2.8,2.81,6.03,3.75,9.63
						c0.98,3.59,1.61,7.53,2.02,11.69c0.83,8.33,0.5,17.52,1.2,27.1c0.36,4.78,1.01,9.44,2.18,13.8c0.58,2.18,1.3,4.28,2.13,6.29
						c0.84,2.01,1.77,3.92,2.65,5.81c1.77,3.76,3.33,7.5,3.76,11.24c0.5,3.72,0,7.24-0.8,10.29c-0.8,3.07-1.94,5.71-3.01,7.98
						c-1.09,2.26-2.15,4.14-3.03,5.67c-0.89,1.53-1.61,2.69-2.1,3.48c-0.24,0.37-0.43,0.67-0.57,0.89
						C341.47,229.73,341.4,229.83,341.39,229.82z"/>
				</g>
				<g>
					<path class="st7" d="M211.49,238.35c-0.01,0.01-0.12-0.07-0.35-0.23c-0.24-0.18-0.57-0.41-0.99-0.71
						c-0.83-0.68-2.07-1.67-3.43-3.19c-1.37-1.51-2.9-3.5-4.32-6.02c-1.4-2.53-2.72-5.58-3.67-9.1c-1.97-7.05-2.14-15.89-0.92-25.41
						c1.25-9.53,3.22-19.93,5.95-30.68c5.48-21.52,13.27-40.16,19.78-53.13c1.59-3.27,3.17-6.15,4.53-8.7
						c1.4-2.52,2.63-4.68,3.65-6.44c1.04-1.72,1.86-3.06,2.42-4c0.27-0.44,0.48-0.78,0.64-1.03c0.15-0.23,0.23-0.35,0.23-0.34
						c0.01,0-0.06,0.13-0.19,0.37c-0.15,0.26-0.34,0.61-0.6,1.06c-0.55,0.95-1.33,2.31-2.34,4.05c-0.98,1.79-2.18,3.96-3.57,6.48
						c-1.33,2.56-2.88,5.45-4.45,8.72c-6.42,13-14.14,31.62-19.61,53.1c-2.72,10.73-4.71,21.11-5.97,30.61
						c-1.24,9.49-1.11,18.26,0.8,25.26c0.91,3.5,2.2,6.53,3.57,9.06c1.39,2.52,2.88,4.51,4.22,6.03c1.33,1.53,2.54,2.55,3.34,3.25
						c0.4,0.32,0.72,0.57,0.95,0.75C211.39,238.25,211.49,238.34,211.49,238.35z"/>
				</g>
			</g>
			<g>
				<path class="st12" d="M213.95,141.39c-0.02,0-0.08-0.2-0.18-0.58c-0.12-0.38-0.22-0.97-0.32-1.73
					c-0.15-1.51-0.08-3.79,0.83-6.38c0.88-2.59,2.53-5.48,4.97-8.14c2.44-2.68,5.6-5.09,8.93-7.54c3.34-2.44,6.47-4.82,8.99-7.36
					c2.54-2.51,4.56-5.02,6.12-7.23c1.56-2.2,2.65-4.11,3.39-5.43c0.73-1.32,1.1-2.08,1.14-2.06c0.02,0.01-0.06,0.2-0.22,0.57
					c-0.16,0.37-0.4,0.9-0.74,1.58c-0.68,1.36-1.73,3.3-3.27,5.54c-1.53,2.25-3.54,4.8-6.09,7.36c-2.52,2.58-5.68,5-9.02,7.44
					c-3.33,2.44-6.47,4.83-8.89,7.44c-2.42,2.6-4.07,5.41-4.98,7.94c-0.93,2.53-1.06,4.75-0.98,6.24
					C213.76,140.57,214.01,141.38,213.95,141.39z"/>
			</g>
			<g>
				<path class="st12" d="M210.29,172.17c-0.01,0-0.04-0.07-0.1-0.22c-0.07-0.18-0.15-0.39-0.26-0.65c-0.25-0.57-0.49-1.45-0.75-2.6
					c-0.45-2.3-0.63-5.8,0.45-9.89c1.03-4.09,3.2-8.69,6.4-13.24c3.2-4.55,7.28-9.11,11.76-13.66c4.49-4.56,8.91-8.74,12.77-12.7
					c3.87-3.95,7.16-7.69,9.67-11.03c1.31-1.63,2.29-3.25,3.25-4.6c0.84-1.43,1.6-2.64,2.16-3.66c0.52-1.01,0.93-1.81,1.23-2.39
					c0.13-0.25,0.24-0.45,0.33-0.62c0.08-0.14,0.12-0.21,0.13-0.2c0.01,0-0.02,0.08-0.08,0.23c-0.08,0.17-0.17,0.38-0.29,0.64
					c-0.28,0.6-0.67,1.41-1.15,2.44c-0.54,1.04-1.28,2.27-2.1,3.72c-0.94,1.37-1.91,3.02-3.2,4.67c-2.48,3.39-5.76,7.17-9.62,11.15
					c-3.85,3.99-8.27,8.18-12.75,12.73c-4.47,4.55-8.55,9.07-11.74,13.58c-3.2,4.49-5.37,9.03-6.44,13.05
					c-1.11,4.03-0.99,7.47-0.6,9.76c0.23,1.14,0.44,2.02,0.65,2.6c0.08,0.27,0.15,0.49,0.21,0.67
					C210.28,172.09,210.3,172.17,210.29,172.17z"/>
			</g>
			<g>
				<path class="st8" d="M240.51,78.17c-0.02,0.49,4.62,12.85,10.09,13.56c5.47,0.71,22.59-1.18,25.57-4.47
					c2.98-3.29,4.54-11.57,4.54-11.57l-2.04-1.95c0,0-6.98-2.88-17.9-0.74C249.87,75.15,240.51,78.17,240.51,78.17z"/>
				<path class="st8" d="M319.13,78.21c0,0-6.97-4.82-17.25-5.14c-10.28-0.31-17.26,0.45-17.26,0.45s4.17,7.95,6.26,10.88
					c2.17,3.03,4.39,6.39,12.55,7.01c8.16,0.62,13.71,2.1,15.05,0.08c1.63-2.47,1.57-8.06,1.93-10.09
					C320.72,79.67,319.13,78.21,319.13,78.21z"/>
				<path class="st8" d="M277.89,73.75c0,0,2.89-2.67,9.84,0.11l-1.12,2.93c0,0-3.74-2.24-6.89,0.2L277.89,73.75z"/>
				<path class="st8" d="M240.51,78.17l-8.77,36.26l6.17-5.17c0,0,6.16-24.31,6.16-24.48c0.01-0.16,0-0.78,0-0.78L240.51,78.17z"/>
				<path class="st7" d="M244.73,79.02c1.77,2.69,4.04,7.19,6.96,8.57c2.47,1.17,5.33,1.13,8.05,0.88c3.21-0.3,6.39-0.87,9.5-1.7
					c1.43-0.38,2.9-0.85,4.03-1.8c1.71-1.44,2.39-3.72,2.99-5.87c0.32-1.15,0.61-2.48-0.09-3.45c-0.7-0.97-5.05-1.9-6.24-2.03
					C263.83,73,248.82,76.98,244.73,79.02"/>
				<path class="st4" d="M242.48,78.64c-0.17-0.09-0.36-0.16-0.54-0.14c-0.19,0.02-0.38,0.14-0.42,0.33c0.12,0.56,1.4,1.5,2.03,1.24
					C243.68,79.75,243.02,78.93,242.48,78.64z"/>
				<path class="st7" d="M291.09,75c-0.9,0.02-1.52,1.17-1.14,1.98c1.58,3.45,5.51,10.47,10.75,11.29
					c6.81,1.07,15.44,2.46,16.17,1.11c0.73-1.35,2.2-7.53,1.47-9.26c-0.73-1.73-4.35-3.55-9.64-4.53
					C301.28,74.22,294.81,74.9,291.09,75z"/>
				<g>
					<path class="st12" d="M313.28,80.09c0.05,0.14-3.18,1.39-7.21,2.8c-4.03,1.41-7.33,2.44-7.38,2.31
						c-0.05-0.14,3.18-1.39,7.21-2.8C309.92,80.99,313.23,79.96,313.28,80.09z"/>
				</g>
				<g>
					<path class="st12" d="M312.73,83.11c0.04,0.14-2.27,0.89-5.16,1.67c-2.89,0.78-5.26,1.3-5.29,1.17
						c-0.04-0.14,2.27-0.89,5.16-1.67C310.32,83.49,312.69,82.97,312.73,83.11z"/>
				</g>
				<g>
					<path class="st12" d="M272.08,78.76c0.07,0.13-2.29,1.53-5.15,3.32c-2.87,1.79-5.16,3.3-5.24,3.18
						c-0.08-0.11,2.08-1.82,4.97-3.62C269.53,79.83,272.02,78.63,272.08,78.76z"/>
				</g>
				<g>
					<path class="st12" d="M266.07,77.66c0.03,0.07-0.73,0.54-1.98,1.28c-1.41,0.85-3.05,1.84-4.86,2.92
						c-1.79,1.12-3.41,2.14-4.8,3.01c-1.23,0.78-2,1.24-2.04,1.18c-0.04-0.06,0.65-0.63,1.83-1.49c1.18-0.86,2.84-1.99,4.74-3.15
						c1.89-1.16,3.65-2.14,4.95-2.8C265.21,77.95,266.04,77.6,266.07,77.66z"/>
				</g>
				<g>
					<path class="st7" d="M286.85,73.74c-0.04,0.07-0.57-0.23-1.47-0.54c-0.9-0.31-2.2-0.59-3.63-0.47
						c-1.44,0.11-2.68,0.6-3.51,1.04c-0.84,0.45-1.31,0.83-1.36,0.76c-0.04-0.04,0.34-0.53,1.18-1.08c0.82-0.55,2.12-1.12,3.66-1.25
						c1.53-0.12,2.91,0.24,3.81,0.65C286.42,73.27,286.88,73.69,286.85,73.74z"/>
				</g>
				<g>
					<path class="st7" d="M286.92,76.7c-0.06,0.15-1.86-0.74-4.24-0.58c-2.38,0.12-4.06,1.23-4.14,1.08
						c-0.04-0.05,0.33-0.4,1.05-0.78c0.72-0.38,1.81-0.75,3.06-0.82c1.25-0.07,2.37,0.16,3.13,0.45
						C286.55,76.34,286.95,76.64,286.92,76.7z"/>
				</g>
				<g>
					<path class="st7" d="M246.29,89.35c-0.14,0.11-1.74-1.84-3.43-4.42c-1.7-2.58-2.94-4.76-2.82-4.83
						c0.12-0.08,1.55,1.97,3.25,4.54c0.77,1.17,1.47,2.25,2.16,3.3C246,88.79,246.35,89.3,246.29,89.35z"/>
				</g>
			</g>
		</g>
		<g>
			<path class="st10" d="M159.97,299.51l-19.34,42.08l-0.88-42.08l-26.1,1.33c0,0-16.33,73.29-11.83,88.48
				c4.5,15.2,25.67,28.88,37.32,22.22c13.37-7.65,30.23-36.82,34.36-45.5c7.48-15.71,25.47-48.48,25.47-48.48L159.97,299.51z"/>
			<g>
				<path class="st11" d="M140.64,341.59c0.04-0.01,0.21,0.6,0.49,1.71c0.15,0.56,0.31,1.24,0.46,2.04c0.16,0.8,0.36,1.71,0.52,2.72
					c0.69,4.04,1.34,9.71,1.22,15.98c-0.1,6.27-0.99,11.95-2.29,15.86c-0.32,0.98-0.6,1.87-0.95,2.61c-0.33,0.75-0.58,1.41-0.88,1.9
					c-0.56,1.01-0.88,1.56-0.91,1.54c-0.03-0.02,0.23-0.6,0.72-1.63c0.27-0.5,0.49-1.17,0.79-1.92c0.32-0.75,0.57-1.63,0.87-2.61
					c1.19-3.9,2.01-9.53,2.12-15.76c0.12-6.24-0.47-11.87-1.06-15.92c-0.13-1.01-0.3-1.92-0.44-2.72c-0.13-0.8-0.26-1.49-0.37-2.05
					C140.71,342.23,140.6,341.6,140.64,341.59z"/>
			</g>
			<g>
				<path class="st10" d="M157.48,225.89c1.21-1.79,4.11-1.06,4.18,1.1c0,0.03,0,0.05,0,0.08c0.03,3.24-10.96,27.72-10.96,27.72
					s-6.68,22.18-7.06,25.7c-0.74,6.92-3.95,17.5-3.76,16.64l-0.81,6.02l-26.01,3.79l0.7-7.2c0,0-1.42-6.32-2.01-10.74
					c-0.59-4.42,2.55-24.47,2.55-24.47l-1.24-3.85l-0.63-0.43c0,0-3.02,6.62-5.76,5.91c-2.75-0.71-2.75-0.71-2.75-0.71l3.14-11.68
					l6.02-5.23l2.62-5.2c0,0,2.85-4.78,8.1-3.71c5.25,1.06,4.86,6.01,4.86,6.01l1.57,4.66l0,0l3.06-14.25c0,0-2.47-12.91-2.27-15.04
					c0.2-2.12,2.55-4.07,4.32-3.01c1.77,1.06,6.87,17.87,6.87,17.87l-0.49,14.31L157.48,225.89z"/>
				<g>
					<path class="st10" d="M115.7,243.36c-1.04,3.16-3.71,11.65-3.98,14.67c3.37,0.5,6.94-0.59,9.46-2.88
						c2.52-2.29,3.55-6.72,5.05-10.12"/>
					<g>
						<path class="st11" d="M126.22,245.02c0.04,0.02-0.15,0.5-0.46,1.37c-0.31,0.88-0.73,2.16-1.33,3.72
							c-0.62,1.54-1.36,3.47-2.98,5.09c-1.63,1.56-3.93,2.74-6.51,3.09c-1.11,0.15-2.22,0.13-3.26-0.02l-0.25-0.04l0.03-0.24
							c0.27-2.2,0.86-4.14,1.34-5.92c0.5-1.77,0.99-3.32,1.41-4.62c0.42-1.3,0.78-2.33,1.03-3.03c0.26-0.71,0.42-1.09,0.45-1.08
							c0.03,0.01-0.07,0.41-0.27,1.13c-0.23,0.81-0.53,1.84-0.89,3.08c-0.38,1.31-0.83,2.87-1.3,4.64
							c-0.45,1.76-1.01,3.74-1.26,5.84l-0.22-0.28c0.99,0.14,2.05,0.15,3.11,0.01c2.47-0.33,4.68-1.46,6.25-2.92
							c1.54-1.5,2.32-3.38,2.97-4.88c0.64-1.53,1.11-2.8,1.48-3.66C125.95,245.47,126.19,245.01,126.22,245.02z"/>
					</g>
				</g>
				<g>
					<path class="st10" d="M134.22,292.52c-6.08,1.42-14.2-8.65-14.79-14.92c-0.59-6.27,1.57-14.76,1.57-14.76l-4.91-7.08
						c0,0-3.78-4.72-4.26-8.19c-0.26-1.86,2.02-3.83,2.02-3.83s11.46,7.42,13.03,9.9c1.57,2.48,12.11,18.55,12.11,18.55"/>
					<g>
						<path class="st11" d="M138.99,272.19c-0.01,0.01-0.17-0.2-0.45-0.6c-0.3-0.44-0.71-1.04-1.22-1.79
							c-1.07-1.61-2.59-3.89-4.48-6.73c-0.95-1.44-1.99-3.02-3.12-4.72c-0.56-0.85-1.15-1.74-1.75-2.65
							c-0.3-0.46-0.61-0.92-0.92-1.39c-0.32-0.49-0.6-0.93-1.03-1.32c-1.64-1.6-3.64-3.04-5.71-4.54c-2.08-1.48-4.3-2.98-6.6-4.49
							l0.3-0.02c-1.16,1.1-2.41,2.67-1.78,4.35c0.44,1.69,1.34,3.3,2.32,4.85c2.31,3.25,4.55,6.53,6.65,9.56l0.06,0.09l-0.03,0.11
							c-0.63,2.61-1.09,5.19-1.38,7.67c-0.29,2.48-0.41,4.88-0.2,7.12c0.28,2.21,1.18,4.19,2.15,5.9c0.99,1.71,2.11,3.18,3.23,4.41
							c1.12,1.24,2.3,2.18,3.37,2.92c0.56,0.33,1.07,0.68,1.59,0.88c0.25,0.11,0.49,0.23,0.73,0.32c0.24,0.07,0.47,0.14,0.69,0.2
							c1.77,0.46,2.79,0.09,2.79,0.19c0,0.01-0.24,0.06-0.72,0.13c-0.12,0.02-0.26,0.04-0.4,0.06c-0.15,0-0.31-0.02-0.49-0.03
							c-0.35-0.03-0.77-0.03-1.22-0.18c-0.23-0.06-0.46-0.12-0.71-0.19c-0.24-0.08-0.49-0.2-0.75-0.31
							c-0.54-0.2-1.06-0.53-1.64-0.86c-1.11-0.74-2.32-1.67-3.47-2.91c-1.15-1.23-2.31-2.7-3.33-4.44c-1-1.73-1.94-3.73-2.25-6.05
							c-0.23-2.29-0.12-4.71,0.16-7.22c0.29-2.51,0.73-5.09,1.37-7.74l0.04,0.21c-2.12-3.04-4.31-6.24-6.67-9.57
							c-0.99-1.58-1.91-3.21-2.38-5c-0.1-0.44-0.22-0.91-0.17-1.41c0.05-0.49,0.22-0.94,0.43-1.35c0.44-0.82,1.02-1.5,1.68-2.11
							l0.14-0.13l0.16,0.11c2.31,1.51,4.52,3.02,6.61,4.52c2.08,1.51,4.07,2.96,5.75,4.62c0.43,0.4,0.78,0.94,1.07,1.39
							c0.31,0.47,0.61,0.94,0.91,1.4c0.59,0.92,1.17,1.81,1.72,2.67c1.11,1.71,2.13,3.3,3.07,4.75c1.84,2.87,3.31,5.18,4.35,6.81
							c0.48,0.77,0.87,1.39,1.15,1.84C138.88,271.96,139.01,272.18,138.99,272.19z"/>
					</g>
				</g>
			</g>
		</g>
		<g>
			<path class="st10" d="M205.46,244.35l30.66-11.73l58.3,7.01l37.99,7.51c0,0-31.34,45.32-60.62,43.47
				C242.52,288.77,205.46,244.35,205.46,244.35z"/>
			<path class="st12" d="M147.1,311.09c0,0,20.19-46.42,23.52-50.91c0,0,37.7-18.62,45.52-19.92c0,0,34.73,53.8,57.84,50.43
				c23.11-3.38,57.22-46,57.22-46s32.45,11.28,35.49,16.95c7,13.06,19.7,56.12,19.7,56.12l-45.95,5.96l1.49,96.19l12.42,54.46H190.6
				l11.78-50.69l-11.65-92.82L147.1,311.09z"/>
			<path class="st9" d="M239.24,267.89c0,0,8.12,45.58,44.59,44.22c0,0,18.98-0.28,18.44,2.45c-0.54,2.73-9.6,9.27-7.83,15.12
				c1.78,5.85,17.06,76.04,27.66,88.43c10.59,12.39,20.2,14.3,20.2,14.3l-18.53-92.8l8.65-34.23l-67.96-19.98L239.24,267.89z"/>
			<g>
				<path class="st7" d="M182.7,282.54c0.02,0,0.08,0.22,0.17,0.64c0.1,0.48,0.22,1.09,0.38,1.85c0.32,1.68,0.75,3.99,1.29,6.83
					c1.06,5.77,2.47,13.76,3.93,22.59c1.46,8.84,2.68,16.86,3.45,22.68c0.38,2.91,0.68,5.27,0.84,6.9c0.07,0.77,0.14,1.4,0.18,1.88
					c0.04,0.43,0.05,0.66,0.03,0.66c-0.02,0-0.06-0.22-0.13-0.65c-0.07-0.48-0.16-1.1-0.28-1.87c-0.25-1.69-0.59-4.02-1.01-6.87
					c-0.87-5.8-2.14-13.81-3.6-22.64c-1.47-8.8-2.8-16.77-3.77-22.61c-0.47-2.85-0.85-5.18-1.13-6.86
					c-0.12-0.77-0.21-1.39-0.28-1.87C182.71,282.77,182.68,282.55,182.7,282.54z"/>
			</g>
			<g>
				<path class="st4" d="M186.48,306.41c-0.01,0.03-0.47-0.07-1.3-0.3c-0.83-0.22-2.02-0.58-3.49-1.04
					c-2.93-0.93-6.94-2.34-11.34-3.96c-4.4-1.63-8.38-3.09-11.28-4.1c-1.37-0.48-2.53-0.88-3.43-1.2c-0.81-0.29-1.25-0.46-1.24-0.49
					c0.01-0.03,0.47,0.07,1.3,0.3c0.83,0.22,2.02,0.58,3.49,1.04c2.93,0.93,6.94,2.34,11.34,3.96c4.4,1.63,8.38,3.09,11.27,4.1
					c1.37,0.48,2.53,0.88,3.43,1.2C186.05,306.2,186.49,306.38,186.48,306.41z"/>
			</g>
			<g>
				<path class="st4" d="M309.73,319.42c0,0.14-27,0.26-60.29,0.26c-33.31,0-60.3-0.12-60.3-0.26c0-0.14,26.99-0.26,60.3-0.26
					C282.73,319.16,309.73,319.28,309.73,319.42z"/>
			</g>
			<g>
				<path class="st4" d="M278.93,351.5c0,0.14-18.99,0.26-42.4,0.26c-23.42,0-42.4-0.12-42.4-0.26s18.98-0.26,42.4-0.26
					C259.94,351.24,278.93,351.36,278.93,351.5z"/>
			</g>
			<g>
				<path class="st4" d="M317.75,346.14c0.01-0.03,0.32,0.05,0.96,0.24l0.37,0.11l-0.39,0.04c-2.46,0.26-10.18,0.79-19.32,0.74
					c-5.62-0.02-10.7-0.25-14.37-0.5c-1.84-0.12-3.32-0.24-4.34-0.35c-1.02-0.1-1.59-0.18-1.59-0.21c0-0.04,0.57-0.03,1.6,0.01
					c1.12,0.05,2.58,0.11,4.35,0.18c3.67,0.15,8.74,0.32,14.35,0.34c9.12,0.05,16.84-0.32,19.31-0.37l-0.02,0.15
					C318.03,346.29,317.74,346.16,317.75,346.14z"/>
			</g>
			<g>
				<path class="st4" d="M251.07,292.78c0,0.14-14.63,0.26-32.68,0.26c-18.05,0-32.68-0.12-32.68-0.26c0-0.14,14.63-0.26,32.68-0.26
					C236.43,292.52,251.07,292.63,251.07,292.78z"/>
			</g>
			<g>
				<path class="st4" d="M232.85,262.64c0,0.02-0.17,0.08-0.49,0.19c-0.39,0.12-0.86,0.26-1.44,0.43c-1.25,0.37-3.08,0.87-5.34,1.46
					c-4.52,1.18-10.8,2.67-17.79,4.06c-6.99,1.39-13.37,2.41-17.99,3.05c-2.31,0.32-4.19,0.56-5.49,0.7c-0.6,0.06-1.1,0.11-1.5,0.15
					c-0.34,0.03-0.52,0.04-0.53,0.02c0-0.02,0.17-0.06,0.51-0.12c0.4-0.07,0.89-0.15,1.48-0.25c1.37-0.21,3.21-0.51,5.46-0.86
					c4.61-0.73,10.96-1.81,17.95-3.2c6.98-1.39,13.26-2.82,17.8-3.91c2.21-0.53,4.03-0.97,5.37-1.29c0.59-0.14,1.07-0.25,1.46-0.34
					C232.67,262.66,232.85,262.63,232.85,262.64z"/>
			</g>
			<g>
				<path class="st4" d="M252.96,381.48c0,0.14-12.44,0.14-27.77-0.01c-15.34-0.15-27.77-0.39-27.77-0.53s12.43-0.14,27.77,0.01
					C240.52,381.1,252.96,381.34,252.96,381.48z"/>
			</g>
			<g>
				<path class="st4" d="M259,406.88c0,0.14-13.28,0.26-29.66,0.26c-16.38,0-29.66-0.12-29.66-0.26c0-0.14,13.28-0.26,29.66-0.26
					C245.72,406.62,259,406.73,259,406.88z"/>
			</g>
			<g>
				<path class="st4" d="M322.1,403.1c0,0.14-12.52,0.26-27.96,0.26c-15.44,0-27.96-0.12-27.96-0.26s12.52-0.26,27.96-0.26
					C309.58,402.84,322.1,402.96,322.1,403.1z"/>
			</g>
			<g>
				<path class="st4" d="M311.52,377.41c0,0.14-11.5,0.26-25.69,0.26c-14.19,0-25.69-0.12-25.69-0.26c0-0.14,11.5-0.26,25.69-0.26
					C300.01,377.15,311.52,377.26,311.52,377.41z"/>
			</g>
			<g>
				<path class="st7" d="M248.48,389.98c-0.01-0.01,0.1-0.16,0.33-0.44c0.27-0.31,0.61-0.7,1.03-1.18c0.91-1.01,2.2-2.49,3.79-4.33
					c3.18-3.68,7.45-8.86,11.87-14.81c4.41-5.96,8.13-11.55,10.73-15.66c1.3-2.05,2.34-3.72,3.04-4.89
					c0.34-0.54,0.61-0.97,0.83-1.33c0.2-0.3,0.31-0.45,0.32-0.45c0.02,0.01-0.06,0.18-0.23,0.5c-0.2,0.37-0.45,0.82-0.75,1.38
					c-0.65,1.19-1.64,2.9-2.91,4.98c-2.52,4.16-6.2,9.8-10.62,15.78c-4.43,5.97-8.76,11.12-12.01,14.74
					c-1.63,1.81-2.97,3.25-3.92,4.23c-0.44,0.45-0.81,0.82-1.1,1.12C248.63,389.86,248.49,389.99,248.48,389.98z"/>
			</g>
			<g>
				<path class="st7" d="M290.79,387.36c0.01,0.01-0.15,0.15-0.46,0.41c-0.36,0.28-0.82,0.65-1.39,1.09
					c-1.2,0.95-2.99,2.27-5.24,3.84c-4.49,3.15-10.89,7.23-18.31,11.12c-7.43,3.88-14.43,6.82-19.58,8.7
					c-2.57,0.95-4.67,1.66-6.14,2.11c-0.69,0.21-1.25,0.38-1.69,0.51c-0.39,0.11-0.59,0.16-0.6,0.15c-0.01-0.02,0.19-0.1,0.57-0.25
					c0.43-0.16,0.98-0.36,1.66-0.61c1.44-0.51,3.52-1.28,6.07-2.26c5.1-1.97,12.06-4.95,19.47-8.82c7.4-3.88,13.81-7.89,18.34-10.96
					c2.27-1.53,4.08-2.8,5.32-3.7c0.59-0.41,1.07-0.75,1.44-1.02C290.6,387.46,290.78,387.35,290.79,387.36z"/>
			</g>
			<g>
				<path class="st4" d="M380.93,301.62c0.01,0.03-0.57,0.22-1.63,0.54c-1.06,0.31-2.6,0.73-4.51,1.24
					c-3.82,1.01-9.12,2.32-14.97,3.73c-5.82,1.39-11.09,2.64-15.01,3.58c-1.86,0.44-3.39,0.8-4.55,1.08
					c-1.07,0.25-1.67,0.38-1.68,0.34c-0.01-0.03,0.57-0.22,1.63-0.54c1.06-0.31,2.6-0.73,4.51-1.24c3.82-1.01,9.12-2.32,14.97-3.73
					c5.82-1.39,11.08-2.64,15-3.58c1.86-0.44,3.39-0.8,4.55-1.08C380.32,301.7,380.92,301.58,380.93,301.62z"/>
			</g>
			<g>
				<path class="st4" d="M376.05,285.28c0.01,0.03-0.48,0.25-1.39,0.61c-0.99,0.39-2.28,0.91-3.84,1.52
					c-3.33,1.3-7.78,3.03-12.69,4.94c-4.96,1.91-9.47,3.61-12.75,4.8c-1.64,0.6-2.97,1.06-3.9,1.37c-0.93,0.3-1.45,0.45-1.46,0.42
					c-0.01-0.03,0.48-0.25,1.39-0.61c0.99-0.39,2.28-0.91,3.84-1.52c3.33-1.3,7.78-3.03,12.69-4.95c4.96-1.91,9.47-3.61,12.75-4.8
					c1.64-0.6,2.97-1.06,3.9-1.37C375.52,285.39,376.04,285.24,376.05,285.28z"/>
			</g>
			<g>
				<path class="st4" d="M340.23,437.86c0,0.14-31.13,0.26-69.52,0.26c-38.4,0-69.52-0.12-69.52-0.26c0-0.14,31.12-0.26,69.52-0.26
					C309.1,437.6,340.23,437.71,340.23,437.86z"/>
			</g>
			<g>
				<path class="st4" d="M350.81,465.06c0-0.01,0.13-0.02,0.4-0.03c0.29-0.01,0.69-0.01,1.2-0.03v0.1
					c-7.38,0.12-40.27,0.21-79.72,0.21c-22.45-0.03-42.77-0.06-57.51-0.08c-7.34-0.03-13.29-0.06-17.43-0.08
					c-2.04-0.02-3.63-0.04-4.74-0.05c-0.52-0.01-0.93-0.02-1.23-0.03c-0.28-0.01-0.42-0.02-0.42-0.03s0.14-0.02,0.42-0.03
					c0.3-0.01,0.71-0.01,1.23-0.03c1.11-0.01,2.7-0.03,4.74-0.05c4.14-0.02,10.09-0.05,17.43-0.08c14.74-0.02,35.06-0.05,57.51-0.08
					c39.45,0,72.34,0.09,79.72,0.21v0.1c-0.51-0.01-0.91-0.02-1.2-0.03C350.94,465.08,350.81,465.07,350.81,465.06z"/>
			</g>
		</g>
		<g>
			<g>
				<g>
					<g>
						<path class="st8" d="M263.7,251.52c0,0,6.14,12.06,14.63,4.49c0,0,2.69,5.93,8.16,4.72c5.44-1.2,4.58-7.94,4.58-7.94
							s4.29,1.83,7.18-0.18c4.5-3.12,3.2-10.93,3.2-10.93l60.07-13.93l4.53,4.49l-2,27.16l-28.86,34.21l-33.51,7.28l-35.57-12.53
							l-12.57-13.47l-8.05-18.96L263.7,251.52z"/>
						<path class="st2" d="M301.45,241.67c0,0,1.3,7.81-3.2,10.93c-2.9,2.01-7.18,0.18-7.18,0.18s0.86,6.73-4.58,7.94
							c-5.47,1.21-8.16-4.72-8.16-4.72c-8.49,7.57-14.63-4.49-14.63-4.49l-18.21,4.42l8.05,18.96l12.57,13.47
							c0,0,9.96,8.57,18.19,6.3c8.23-2.27,19.35-7.3,23.39-28.36c1.91-9.97,2.77-26.83,2.77-26.83L301.45,241.67z"/>
						<path class="st12" d="M235.1,258.47c0,0,17.63,66.24,88.03,46.83c70.4-19.41,51.3-80.69,51.3-80.69l-5.07,1.23
							c0,0-1.23,62.77-53.49,71.64s-71.72-41.21-71.72-41.21l-3.85,0.94L235.1,258.47z"/>
						<path class="st12" d="M247.77,255.39c0,0,14.33,50.48,72.59,36.66c0,0,33.09-6.05,40.22-30.5
							c7.14-24.45,0.94-33.81,0.94-33.81l7.83-1.9c0,0,1.71,26.98-2.11,34.65c-3.82,7.67-13.87,32.53-46.01,40.13
							c-32.14,7.6-55.05-4.87-67.17-19.3c-12.11-14.44-13.78-24.11-13.78-24.11l6.01-1.46L247.77,255.39z"/>
						<path class="st4" d="M247.77,255.39c0,0,14.33,50.48,72.59,36.66c0,0,32.23-7.88,39.37-32.33c7.14-24.45,1.8-31.98,1.8-31.98
							l7.83-1.9c0,0,2.88,22.52-2.11,34.65c-4.53,11.02-13.87,32.53-46.01,40.13c-32.14,7.6-55.05-4.87-67.17-19.3
							c-12.11-14.44-13.78-24.11-13.78-24.11l6.01-1.46L247.77,255.39z"/>
						<path class="st7" d="M318.31,274.98c-0.14-0.24-0.49-0.21-0.61,0.04c-0.56,1.25-1.72,4.19-1.06,5.85
							c0.86,2.14,2.83,1.57,3.49,1.04c0.97-0.78,1.21-2.17-0.1-4.18C319.38,276.72,318.7,275.62,318.31,274.98z"/>
						<path class="st7" d="M281,274.97c-0.14-0.24-0.49-0.21-0.61,0.04c-0.56,1.25-1.72,4.19-1.06,5.85
							c0.86,2.14,2.83,1.57,3.49,1.04c0.97-0.78,1.21-2.17-0.1-4.18C282.08,276.72,281.39,275.61,281,274.97z"/>
						<path class="st7" d="M333.58,256.36c-0.14-0.24-0.49-0.21-0.61,0.04c-0.56,1.25-1.72,4.19-1.06,5.85
							c0.86,2.14,2.83,1.57,3.49,1.04c0.97-0.78,1.21-2.17-0.1-4.18C334.66,258.11,333.97,257,333.58,256.36z"/>
						<path class="st7" d="M352.46,257.69c-0.14-0.24-0.49-0.21-0.61,0.04c-0.56,1.25-1.72,4.19-1.06,5.85
							c0.86,2.14,2.83,1.57,3.49,1.04c0.97-0.78,1.21-2.17-0.1-4.18C353.53,259.43,352.85,258.33,352.46,257.69z"/>
						<path class="st7" d="M345.45,238.26c-0.14-0.24-0.49-0.21-0.61,0.04c-0.56,1.25-1.72,4.19-1.06,5.85
							c0.86,2.14,2.83,1.57,3.49,1.04c0.97-0.78,1.21-2.17-0.1-4.18C346.53,240,345.84,238.9,345.45,238.26z"/>
						<path class="st7" d="M314.54,246.19c-0.14-0.24-0.49-0.21-0.61,0.04c-0.56,1.25-1.72,4.19-1.06,5.85
							c0.86,2.14,2.83,1.57,3.49,1.04c0.97-0.78,1.21-2.17-0.1-4.18C315.61,247.94,314.93,246.83,314.54,246.19z"/>
						<path class="st7" d="M260.35,256.46c-0.14-0.24-0.49-0.21-0.61,0.04c-0.56,1.25-1.72,4.19-1.06,5.85
							c0.86,2.14,2.83,1.57,3.49,1.04c0.97-0.78,1.21-2.17-0.1-4.18C261.42,258.21,260.74,257.11,260.35,256.46z"/>
						<path class="st7" d="M301.09,264c-0.14-0.24-0.49-0.21-0.61,0.04c-0.56,1.25-1.72,4.19-1.06,5.85
							c0.86,2.14,2.83,1.57,3.49,1.04c0.97-0.78,1.21-2.17-0.1-4.18C302.16,265.75,301.48,264.65,301.09,264z"/>
						<g>
							<path class="st4" d="M310.53,290.34c0,0.02-0.21,0.05-0.6,0.1c-0.45,0.05-1.03,0.11-1.74,0.18c-0.38,0.04-0.8,0.08-1.26,0.12
								c-0.46,0.03-0.96,0.03-1.5,0.04c-1.08,0.01-2.31,0.09-3.67-0.01c-0.68-0.03-1.39-0.07-2.13-0.1
								c-0.74-0.04-1.51-0.16-2.3-0.24c-1.6-0.14-3.27-0.48-5.04-0.8c-3.52-0.76-7.32-1.89-11.16-3.49
								c-3.82-1.65-7.27-3.61-10.26-5.61c-1.46-1.05-2.87-2.02-4.08-3.07c-0.61-0.52-1.23-0.98-1.77-1.49
								c-0.54-0.51-1.06-1-1.56-1.46c-1.02-0.91-1.81-1.85-2.55-2.63c-0.36-0.4-0.71-0.76-1.01-1.11c-0.28-0.36-0.55-0.69-0.79-0.99
								c-0.44-0.56-0.8-1.02-1.08-1.38c-0.24-0.32-0.36-0.49-0.35-0.5c0.01-0.01,0.16,0.14,0.43,0.44c0.3,0.34,0.68,0.78,1.15,1.31
								c0.25,0.29,0.52,0.61,0.82,0.96c0.31,0.34,0.67,0.69,1.04,1.08c0.76,0.76,1.57,1.68,2.59,2.56c0.5,0.46,1.02,0.93,1.57,1.43
								c0.55,0.49,1.17,0.95,1.78,1.45c1.21,1.03,2.62,1.98,4.08,3.01c2.98,1.96,6.41,3.89,10.2,5.53c3.8,1.59,7.57,2.72,11.06,3.5
								c1.75,0.33,3.41,0.69,5,0.85c0.79,0.09,1.55,0.22,2.28,0.27c0.73,0.05,1.44,0.09,2.12,0.14c1.35,0.13,2.57,0.07,3.65,0.09
								c0.54,0,1.04,0.01,1.5,0c0.45-0.03,0.87-0.05,1.26-0.07c0.71-0.03,1.29-0.06,1.74-0.09
								C310.32,290.32,310.53,290.32,310.53,290.34z"/>
						</g>
						<g>
							<path class="st4" d="M350.2,231.86c0.03,0.14-9.65,2.58-21.63,5.46c-11.98,2.87-21.72,5.09-21.76,4.95
								c-0.03-0.14,9.65-2.58,21.64-5.46C340.42,233.93,350.16,231.72,350.2,231.86z"/>
						</g>
					</g>
					<g>
						<path class="st7" d="M374.42,224.61c0,0,0.07,0.18,0.18,0.54c0.11,0.36,0.26,0.9,0.43,1.61c0.35,1.42,0.8,3.54,1.19,6.3
							c0.74,5.49,1.33,13.67-0.63,23.47c-1,4.87-2.64,10.15-5.4,15.34c-2.73,5.19-6.5,10.3-11.28,14.84
							c-4.78,4.55-10.55,8.51-16.96,11.72c-6.41,3.22-13.44,5.71-20.8,7.62c-7.36,1.9-14.76,3.03-21.94,3.06
							c-7.18,0.07-14.12-0.96-20.4-2.98c-6.29-2-11.9-4.97-16.66-8.39c-4.77-3.42-8.7-7.27-11.91-11.08
							c-6.4-7.67-10.06-14.97-12.26-20.05c-1.09-2.56-1.82-4.6-2.27-5.99c-0.23-0.7-0.38-1.23-0.48-1.59
							c-0.1-0.36-0.13-0.55-0.13-0.55s0.07,0.18,0.18,0.54c0.12,0.36,0.29,0.89,0.53,1.58c0.48,1.38,1.24,3.4,2.36,5.94
							c2.25,5.05,5.95,12.3,12.36,19.9c3.21,3.77,7.14,7.58,11.88,10.97c4.74,3.38,10.31,6.31,16.55,8.28
							c6.24,1.99,13.12,3,20.25,2.93c7.14-0.04,14.49-1.16,21.82-3.06c7.32-1.9,14.32-4.38,20.7-7.57
							c6.38-3.18,12.11-7.11,16.86-11.61c4.76-4.5,8.51-9.55,11.23-14.7c2.75-5.14,4.4-10.37,5.42-15.21
							c2-9.74,1.47-17.89,0.79-23.37c-0.35-2.75-0.77-4.87-1.09-6.3c-0.16-0.71-0.29-1.26-0.38-1.62
							C374.46,224.8,374.42,224.61,374.42,224.61z"/>
					</g>
				</g>
			</g>
			<path class="st10" d="M329.67,339.36l28.92,49.95c0,0,15.26,15.43,16.74,24.25c1.48,8.82-7.92,35-23.05,30.04
				c-15.13-4.96-18.84-22.87-26.98-36.92s-20.73-68.8-20.73-68.8l7.26-0.36L329.67,339.36z"/>
			<path class="st10" d="M373.22,319.42c0,0,0.04,11.44,0.04,20.18c0,8.74,2.22,77.16,2.22,77.16l-30.22-8.7l-5.84-42.78l1.01-41.58
				L373.22,319.42z"/>
			<g>
				<path class="st9" d="M309.99,301.32c0,0-7.78-14.6-7.45-18.05c0.34-3.45,2.98-3.72,2.98-3.72l16.17,21.06
					c0,0,2.45-0.58,2.06-3.79c-0.38-3.21-6.55-19.37-6.3-23.37c0.25-4,3.19-4.76,3.19-4.76l14.33,27.21l2.38-6.42
					c0,0-7.53-15.38-8.11-19.16c-0.58-3.77,1.94-5.68,1.94-5.68l13.3,24.07l-3.92,6.97c0,0-9.36,4.97-19.92,5.64
					C310.1,301.99,309.99,301.32,309.99,301.32z"/>
				<g>
					<path class="st10" d="M347.16,269.39l9.59,8.18l3.1,14.95l-10.15,9.02c0,0,0.28,7.9-2.54,10.72s-16.36,18.05-17.48,27.35
						l-25.1-1.69c0,0-1.41-4.79,1.97-11c3.38-6.2,6.77-13.82,6.77-13.82l-0.28-10.72c0,0-12.69-20.87-10.15-22.56
						c2.54-1.69,3.95-1.69,5.92,0.56c1.97,2.26,12.13,19.74,14.66,19.18c2.54-0.56,3.1-3.95,3.1-3.95s-9.31-20.87-8.18-24.82
						c0.13-0.46,0.27-0.9,0.41-1.31c0.77-2.22,3.8-2.5,4.98-0.47l10.39,17.85l3.95,13.25l1.69-12.97c0,0-11-18.05-9.87-22.56
						c1.13-4.51,3.95-2.54,3.95-2.54l11,12.97C344.9,275.03,344.05,271.64,347.16,269.39z"/>
				</g>
				<g>
					<path class="st11" d="M348.6,305.37c-0.04,0-0.04-0.44-0.02-1.22c0.04-0.89,0.09-2.01,0.15-3.33
						c0.15-2.81,0.39-6.68,0.69-10.96c0.15-2.13,0.22-4.17,0-5.99c-0.2-1.82-0.72-3.41-1.37-4.63c-1.31-2.47-2.98-3.3-2.9-3.38
						c0.01-0.02,0.42,0.15,1.05,0.64c0.63,0.49,1.46,1.32,2.17,2.57c0.71,1.24,1.29,2.88,1.52,4.75c0.25,1.87,0.19,3.94,0.05,6.08
						c-0.3,4.28-0.6,8.15-0.84,10.95c-0.12,1.31-0.23,2.42-0.31,3.31C348.7,304.94,348.64,305.37,348.6,305.37z"/>
				</g>
				<g>
					<path class="st11" d="M334.99,316.28c-0.01-0.08,0.51-0.17,1.25-0.52c0.74-0.34,1.7-1,2.38-2.02c0.68-1.03,0.91-2.17,0.94-2.98
						c0.03-0.82-0.08-1.34,0-1.36c0.06-0.02,0.31,0.47,0.37,1.35c0.07,0.87-0.12,2.14-0.88,3.28c-0.76,1.14-1.86,1.8-2.68,2.08
						C335.54,316.38,334.99,316.34,334.99,316.28z"/>
				</g>
				<g>
					<path class="st11" d="M327.56,303.3c-0.15-0.05,0.31-1.43,0.19-3.17c-0.1-1.74-0.73-3.05-0.59-3.12c0.1-0.08,1,1.21,1.11,3.09
						C328.4,301.97,327.68,303.37,327.56,303.3z"/>
				</g>
				<g>
					<path class="st11" d="M323.76,318.65c-0.02-0.08,0.44-0.2,1.06-0.58c0.62-0.37,1.39-1.05,1.84-2.05
						c0.45-0.99,0.44-2.03,0.31-2.74c-0.13-0.72-0.34-1.14-0.27-1.18c0.05-0.03,0.39,0.33,0.62,1.09c0.24,0.74,0.31,1.91-0.19,3.04
						c-0.51,1.13-1.43,1.84-2.14,2.16C324.27,318.72,323.77,318.71,323.76,318.65z"/>
				</g>
			</g>
			<g>
				<path class="st11" d="M372.03,406.95c-0.01,0.01-0.11-0.1-0.28-0.31c-0.2-0.24-0.45-0.55-0.76-0.93
					c-0.68-0.87-1.62-2.07-2.8-3.57c-2.41-3.13-5.79-7.51-9.79-12.7l-0.01-0.01l-0.01-0.01c-2.66-4.55-5.69-9.75-8.9-15.25
					c-5.5-9.51-10.47-18.11-14.1-24.39c-1.76-3.1-3.2-5.62-4.22-7.42c-0.47-0.85-0.84-1.52-1.13-2.03
					c-0.25-0.47-0.38-0.72-0.36-0.73c0.02-0.01,0.17,0.22,0.45,0.67c0.3,0.49,0.7,1.15,1.21,1.98c1.06,1.78,2.54,4.27,4.37,7.34
					c3.67,6.26,8.69,14.84,14.24,24.31c3.2,5.51,6.21,10.72,8.86,15.27l-0.02-0.02c3.94,5.24,7.27,9.66,9.64,12.82
					c1.13,1.54,2.04,2.76,2.7,3.65c0.29,0.4,0.52,0.72,0.7,0.98C371.96,406.82,372.04,406.94,372.03,406.95z"/>
			</g>
		</g>
	</g>
</g>
<g id="Speech_Bubble">
	<g>
		<g>
			<g>
				<g>
					<g>
						<g>
							<g>
								<g>
									<g>
										<path class="st4" d="M185.42,139.05l-10.13-16.47c2.45-8.93,2.54-18.62-0.25-28.16c-8.02-27.43-36.76-43.17-64.19-35.16
											c-27.43,8.02-43.17,36.76-35.16,64.19c8.02,27.43,36.75,43.17,64.19,35.16c11.46-3.35,20.86-10.32,27.36-19.29l-0.01,0.03
											L185.42,139.05z"/>
									</g>
								</g>
							</g>
						</g>
					</g>
					<g>
						<g>
							<g>
								<g>
									<g>
										<g>
											<path class="st7" d="M185.42,139.05c-0.87,0.02-6.51,0.15-18.18,0.42c-0.07,0-0.12-0.05-0.13-0.12
												c0-0.02,0-0.03,0.01-0.05l0.01-0.03l0.21,0.12c-2.03,2.78-4.58,5.8-7.89,8.68c-3.28,2.89-7.29,5.65-12.03,7.88
												c-2.36,1.11-4.9,2.1-7.6,2.88c-1.37,0.33-2.75,0.66-4.17,1c-0.7,0.2-1.43,0.3-2.16,0.39c-0.73,0.1-1.47,0.2-2.21,0.3
												c-5.94,0.69-12.38,0.39-18.84-1.27c-6.45-1.65-12.9-4.65-18.67-9.06c-5.76-4.39-10.86-10.17-14.47-17.05
												c-3.57-6.89-5.71-14.79-5.91-22.97c-0.16-2.05,0.07-4.1,0.2-6.16c0.02-1.04,0.24-2.05,0.41-3.08
												c0.18-1.02,0.33-2.06,0.52-3.08c1.03-4.04,2.24-8.12,4.22-11.89c0.85-1.93,2.01-3.68,3.09-5.46
												c0.51-0.91,1.19-1.7,1.8-2.54c0.63-0.82,1.23-1.67,1.88-2.46c2.74-3.08,5.62-6.02,8.94-8.34
												c6.5-4.81,13.96-7.96,21.5-9.38c7.56-1.37,15.17-0.99,22.13,0.79c6.97,1.77,13.27,4.93,18.54,8.91
												c5.28,3.98,9.52,8.78,12.69,13.81c0.74,1.29,1.55,2.52,2.19,3.81c0.61,1.31,1.21,2.6,1.79,3.87
												c0.54,1.29,0.93,2.61,1.39,3.88c0.47,1.27,0.83,2.55,1.13,3.82c1.23,5.07,1.6,9.93,1.42,14.31
												c-0.17,4.39-0.92,8.3-1.83,11.66l-0.01-0.1C181.83,133.12,184.96,138.28,185.42,139.05c-0.48-0.76-3.67-5.87-10.24-16.4
												c-0.02-0.03-0.02-0.07-0.01-0.1c1.81-6.65,2.78-15.71,0.3-25.81c-0.3-1.26-0.67-2.53-1.14-3.78
												c-0.46-1.26-0.85-2.57-1.39-3.85c-0.59-1.26-1.18-2.54-1.79-3.83c-0.64-1.28-1.45-2.49-2.19-3.77
												c-3.16-4.98-7.37-9.72-12.61-13.66c-5.23-3.93-11.48-7.05-18.38-8.79c-6.89-1.75-14.42-2.12-21.9-0.75
												c-7.47,1.41-14.85,4.53-21.27,9.29c-3.28,2.3-6.13,5.21-8.84,8.26c-0.65,0.78-1.24,1.63-1.86,2.44
												c-0.6,0.83-1.28,1.61-1.78,2.52c-1.07,1.76-2.22,3.49-3.05,5.4c-1.97,3.73-3.16,7.77-4.18,11.76
												c-0.19,1.01-0.34,2.03-0.52,3.05c-0.16,1.01-0.38,2.02-0.4,3.05c-0.12,2.04-0.35,4.07-0.2,6.09
												c0.2,8.09,2.31,15.91,5.84,22.73c3.57,6.81,8.61,12.54,14.31,16.9c5.71,4.37,12.09,7.36,18.48,9
												c6.4,1.66,12.78,1.97,18.67,1.3c0.74-0.1,1.47-0.19,2.19-0.29c0.73-0.09,1.45-0.18,2.14-0.38
												c1.4-0.33,2.78-0.66,4.14-0.98c2.68-0.77,5.2-1.74,7.55-2.83c4.7-2.19,8.7-4.91,11.98-7.77c3.3-2.84,5.86-5.83,7.89-8.58
												c0.04-0.06,0.12-0.07,0.17-0.03c0.05,0.03,0.06,0.09,0.04,0.14l-0.01,0.03l-0.12-0.17
												C178.91,139.11,184.55,139.05,185.42,139.05z"/>
										</g>
									</g>
								</g>
							</g>
						</g>
					</g>
				</g>
			</g>
		</g>
		<g>
			<g>
				<g>
					<g>
						<path class="st8" d="M104.09,104.99c0.19-2.82,1.43-5.5,3.21-7.69c1.75-2.15,4.07-3.88,6.75-4.59
							c2.84-0.76,5.98-0.29,8.48,1.26c1.48,0.92,2.73,2.22,3.61,3.73c0.74-1.41,1.78-2.65,3.04-3.61c2.34-1.77,5.43-2.53,8.33-2.03
							c2.73,0.46,5.21,1.98,7.14,3.95c1.98,2.02,3.46,4.58,3.9,7.37c0.56,3.49,0.06,7.37-1.62,10.48c-1.78,3.29-4.76,6.01-7.87,8.08
							c-5.22,3.48-12.11,7.86-12.11,7.86s-6.19-4.2-11.71-7.19c-3.28-1.78-6.51-4.22-8.58-7.33
							C104.7,112.33,103.85,108.52,104.09,104.99z"/>
					</g>
				</g>
			</g>
		</g>
	</g>
	<g>
	</g>
	<g>
	</g>
	<g>
	</g>
	<g>
	</g>
	<g>
	</g>
	<g>
	</g>
</g>
</svg>
