<?xml version="1.0" encoding="utf-8"?>
<!-- Generator: Adobe Illustrator 24.0.1, SVG Export Plug-In . SVG Version: 6.00 Build 0)  -->
<svg version="1.1" xmlns="http://www.w3.org/2000/svg" xmlns:xlink="http://www.w3.org/1999/xlink" x="0px" y="0px"
	 viewBox="0 0 500 500" style="enable-background:new 0 0 500 500;" xml:space="preserve">
<style type="text/css">
	.st0{fill:#F5F5F5;}
	.st1{fill:#E0E0E0;}
	.st2{fill:#EBEBEB;}
	.st3{fill:#FFFFFF;}
	.st4{display:none;}
	.st5{display:inline;fill:#F5F5F5;}
	.st6{fill:#455A64;}
	.st7{fill:#263238;}
	.st8{fill:#FFBF9D;}
	.st9{fill:#FF9A6C;}
	.st10{fill:#FF725E;fill: var(--primary_color_light20);}
	.st11{opacity:0.3;}
	.st12{fill:#AE7461;}
	.st13{fill:#6F4439;}
</style>
<g id="Background_Complete">
	<g>
		<g>
			<g>
				<defs>
					<path id="SVGID_1_" d="M245.32,33.24"/>
				</defs>
				<use xlink:href="#SVGID_1_"  style="overflow:visible;fill:#F5F5F5;"/>
				<clipPath id="SVGID_2_">
					<use xlink:href="#SVGID_1_"  style="overflow:visible;"/>
				</clipPath>
			</g>
		</g>
		<g>
			<g>
				<g>
					<rect x="32.74" y="122.55" class="st0" width="48.76" height="96.65"/>
				</g>
			</g>
			<g>
				<g>
					<rect x="83.37" y="122.55" class="st0" width="52.68" height="96.65"/>
				</g>
			</g>
			<g>
				<g>
					<rect x="83.37" y="225.95" class="st0" width="52.68" height="93.38"/>
				</g>
			</g>
			<g>
				<g>
					<polygon class="st0" points="142.81,120.88 198.29,120.88 198.29,35.14 200.17,35.14 200.17,120.88 245.32,120.88 
						245.32,33.24 142.81,33.24 					"/>
				</g>
			</g>
			<g>
				<g>
					<rect x="200.17" y="122.55" class="st0" width="45.15" height="96.65"/>
				</g>
			</g>
			<g>
				<g>
					<rect x="200.17" y="225.95" class="st0" width="45.15" height="93.38"/>
				</g>
			</g>
			<g>
				<g>
					<rect x="32.74" y="225.95" class="st0" width="48.76" height="93.38"/>
				</g>
			</g>
			<g>
				<g>
					<rect x="142.81" y="225.95" class="st0" width="55.48" height="93.38"/>
				</g>
			</g>
			<g>
				<g>
					<rect x="32.74" y="321.01" class="st0" width="48.76" height="84.15"/>
				</g>
			</g>
			<g>
				<g>
					<rect x="200.17" y="321.01" class="st0" width="45.15" height="84.15"/>
				</g>
			</g>
			<g>
				<g>
					<polygon class="st0" points="81.5,120.88 81.5,35.14 83.37,35.14 83.37,120.88 136.06,120.88 136.06,33.24 32.74,33.24 
						32.74,120.88 					"/>
				</g>
			</g>
			<g>
				<g>
					<rect x="142.81" y="321.01" class="st0" width="55.48" height="84.15"/>
				</g>
			</g>
			<g>
				<g>
					<rect x="83.37" y="321.01" class="st0" width="52.68" height="84.15"/>
				</g>
			</g>
			<g>
				<g>
					<rect x="142.81" y="122.55" class="st0" width="55.48" height="96.65"/>
				</g>
			</g>
		</g>
	</g>
	<g>
		<g>
			<g>
				<rect x="438.36" y="47.66" class="st1" width="8.13" height="174.8"/>
			</g>
		</g>
		<g>
			<g>
				<path class="st0" d="M320.43,49.13v173.46c0,0.06,0.05,0.12,0.12,0.12h116.46c0.06,0,0.12-0.05,0.12-0.12V49.13
					c0-0.06-0.05-0.12-0.12-0.12H320.55C320.48,49.01,320.43,49.06,320.43,49.13z"/>
			</g>
		</g>
		<g>
			<g>
				<g>
					<path class="st2" d="M438.36,224.05H319.19c-0.06,0-0.12-0.05-0.12-0.12V47.77c0-0.06,0.05-0.12,0.12-0.12h119.17
						c0.06,0,0.12,0.05,0.12,0.12v176.16C438.48,224,438.43,224.05,438.36,224.05z M321.9,221.35h113.76c0.06,0,0.12-0.05,0.12-0.12
						V50.48c0-0.06-0.05-0.12-0.12-0.12H321.9c-0.06,0-0.12,0.05-0.12,0.12v170.75C321.78,221.3,321.83,221.35,321.9,221.35z"/>
				</g>
			</g>
		</g>
		<g>
			<g>
				<path class="st3" d="M332.18,59.84v151.91c0,0.06,0.05,0.12,0.12,0.12h93.17c0.06,0,0.12-0.05,0.12-0.12V59.84
					c0-0.06-0.05-0.12-0.12-0.12H332.3C332.23,59.72,332.18,59.78,332.18,59.84z"/>
			</g>
		</g>
		<g>
			<g>
				<path class="st2" d="M404.94,164.33h-52.32c-0.04,0-0.06-0.03-0.06-0.06v-61.34c0-0.04,0.03-0.06,0.06-0.06h52.32
					c0.04,0,0.06,0.03,0.06,0.06v61.34C405,164.3,404.97,164.33,404.94,164.33z"/>
			</g>
		</g>
		<g>
			<g>
				<g>
					<path class="st1" d="M400.85,156.8c0.07,0.2-2.52,1.33-7.45,0.75c-2.43-0.33-5.44-1.2-8.37-3.35
						c-2.86-2.15-5.58-5.61-6.5-10.23c-0.96-4.59,0.58-10.31,4.97-13.98c1.09-0.91,2.36-1.68,3.77-2.21
						c1.5-0.56,3.11-0.74,4.72-0.54c1.6,0.19,3.29,0.75,4.72,2.06c1.45,1.31,2.24,3.52,1.86,5.5c-0.34,1.99-1.43,3.51-2.59,4.72
						c-1.2,1.23-2.56,2.13-3.95,2.91c-2.82,1.56-6.05,2.53-9.43,2.69c-3.36,0.16-6.92-0.53-10.04-2.29
						c-3.09-1.74-5.74-4.37-7.39-7.66c-1.68-3.25-2.21-7.2-1.33-10.73c0.85-3.52,2.85-6.66,5.66-8.84c1.41-1.09,3-1.9,4.74-2.39
						c1.75-0.45,3.56-0.53,5.34-0.17c1.76,0.37,3.56,1.24,4.85,2.73c1.3,1.48,1.88,3.42,1.9,5.18c0.03,1.77-0.45,3.49-1.26,4.93
						c-0.79,1.45-1.86,2.62-2.99,3.59c-2.27,1.92-4.82,3.19-7.43,3.95c-2.61,0.75-5.29,0.95-7.82,0.6c-2.52-0.36-4.89-1.28-6.8-2.61
						c-3.87-2.62-6.1-6.61-6.5-10.29c-0.44-3.75,0.93-6.82,2.41-8.82c1.52-2.04,3.26-3.08,4.45-3.56c1.23-0.46,1.92-0.45,1.95-0.33
						c0.05,0.17-0.55,0.44-1.55,1.1c-0.97,0.68-2.35,1.81-3.46,3.72c-1.09,1.87-1.99,4.58-1.42,7.54c0.52,2.94,2.53,6.11,5.78,8.09
						c3.18,2.02,7.64,2.54,11.92,1.13c2.12-0.68,4.24-1.83,5.96-3.37c1.71-1.54,2.88-3.52,2.79-5.59c-0.06-2.08-1.36-3.54-3.59-3.97
						c-1.08-0.21-2.3-0.14-3.43,0.16c-1.12,0.34-2.26,0.91-3.24,1.69c-1.98,1.56-3.48,3.92-4.08,6.5c-0.62,2.58-0.25,5.31,1,7.79
						c1.23,2.47,3.29,4.53,5.64,5.87c2.35,1.34,5.08,1.91,7.76,1.81c2.69-0.1,5.33-0.86,7.64-2.09c1.16-0.63,2.24-1.34,3.05-2.15
						c0.83-0.81,1.41-1.74,1.55-2.52c0.15-0.79-0.09-1.48-0.62-2.03c-0.56-0.56-1.52-0.98-2.53-1.11c-1.01-0.15-2.06-0.06-2.97,0.25
						c-1,0.34-1.94,0.87-2.77,1.52c-1.66,1.3-2.91,3.09-3.61,4.98c-0.71,1.89-0.88,3.85-0.61,5.72c0.55,3.75,2.67,6.85,5,8.85
						c2.38,2.01,5,3.04,7.18,3.58C398.15,156.94,400.82,156.43,400.85,156.8z"/>
				</g>
			</g>
		</g>
	</g>
</g>
<g id="Background_Simple" class="st4">
	<path class="st5" d="M400.44,94.57l-2.16-3.55c-18.18-29.95-51.04-48.01-85.68-45.82c-4.45,0.28-8.89,0.88-13.26,1.82
		c-31.5,6.74-58.91,30.56-70.27,61.07c-6.68,17.94-8.55,38.6-21.23,52.84c-16.5,18.53-44.52,19.12-69.15,18.35
		s-52.67-0.11-69.09,18.5c-10.28,11.65-13.55,28.23-12.72,43.83c2.2,41.32,30.99,78.27,67.6,96.63
		c36.62,18.36,79.73,20.01,119.8,11.93c56.14-11.32,109.53-42.4,141.62-90.4C417.99,211.78,426.11,146.38,400.44,94.57z"/>
</g>
<g id="Desk">
	<g>
		<g>
			<path class="st6" d="M11.28,455.99c153.81,0,311.63,0,473.45,0"/>
		</g>
		<g>
			<g>
				<path class="st7" d="M484.72,455.99c0,0.14-105.99,0.26-236.71,0.26c-130.76,0-236.74-0.12-236.74-0.26
					c0-0.14,105.97-0.26,236.74-0.26C378.73,455.73,484.72,455.85,484.72,455.99z"/>
			</g>
		</g>
	</g>
</g>
<g id="Speech_Bubbles_2">
	<g>
		<g>
			<g>
				<g>
					<g>
						<g>
							<g>
								<g>
									<g>
										<g>
											<g>
												<g>
													<path class="st3" d="M393.55,253.45l4.31-7.34c-1.56-4.58-1.91-9.64-0.75-14.7c3.33-14.56,17.84-23.67,32.4-20.34
														c14.56,3.33,23.67,17.84,20.34,32.4c-3.33,14.56-17.84,23.67-32.4,20.34c-6.08-1.39-11.21-4.73-14.88-9.21l0.01,0.01
														L393.55,253.45z"/>
												</g>
											</g>
										</g>
										<g>
											<g>
												<g>
													<g>
														<path class="st7" d="M393.55,253.45c0,0,0.18,0.03,0.56,0.09c0.41,0.06,0.97,0.14,1.71,0.25
															c1.56,0.22,3.82,0.53,6.76,0.94c0.06,0.01,0.12-0.04,0.13-0.1c0-0.02,0-0.05-0.01-0.07c0,0,0-0.01-0.01-0.01
															l-0.2,0.12c2.22,2.73,5.71,5.93,10.75,8c2.5,1.05,5.39,1.73,8.49,1.94c3.1,0.21,6.45-0.1,9.77-1.12
															c3.32-1.01,6.61-2.73,9.51-5.16c2.9-2.42,5.41-5.56,7.15-9.22c3.53-7.28,3.65-16.81-0.67-24.64
															c-2.15-3.96-5.2-7.34-8.83-9.71c-3.6-2.4-7.67-3.87-11.74-4.41c-4.07-0.52-8.12-0.06-11.75,1.11
															c-3.64,1.17-6.88,3.07-9.52,5.36c-5.31,4.61-8.16,10.68-9.02,16.02c-0.91,5.39-0.04,10.03,1.1,13.31l0.01-0.09
															c-1.37,2.4-2.44,4.25-3.17,5.53c-0.34,0.6-0.6,1.07-0.79,1.4C393.62,253.3,393.55,253.45,393.55,253.45
															s0.11-0.17,0.31-0.49c0.21-0.34,0.49-0.8,0.85-1.4c0.75-1.25,1.84-3.05,3.25-5.39c0.02-0.03,0.02-0.07,0.01-0.1
															c-1.09-3.27-1.9-7.86-0.97-13.18c0.88-5.27,3.72-11.22,8.96-15.74c2.61-2.24,5.79-4.09,9.37-5.24
															c3.57-1.14,7.54-1.59,11.53-1.06c3.99,0.53,7.98,1.98,11.5,4.34c3.55,2.32,6.54,5.64,8.65,9.52
															c4.23,7.68,4.12,17.02,0.67,24.16c-1.7,3.59-4.16,6.68-7,9.07c-2.84,2.39-6.07,4.1-9.33,5.11
															c-3.26,1.02-6.55,1.34-9.61,1.14c-3.06-0.19-5.91-0.84-8.39-1.86c-4.99-2-8.47-5.13-10.71-7.81
															c-0.04-0.05-0.12-0.06-0.17-0.02c-0.04,0.03-0.05,0.09-0.03,0.14c0,0,0.01,0.01,0.01,0.01l0.12-0.17
															c-2.91-0.34-5.15-0.6-6.69-0.78c-0.75-0.08-1.33-0.15-1.75-0.2C393.76,253.47,393.55,253.45,393.55,253.45z"/>
													</g>
												</g>
											</g>
										</g>
									</g>
								</g>
							</g>
						</g>
					</g>
				</g>
			</g>
		</g>
		<g>
			<g>
				<g>
					<g>
						<path class="st7" d="M414.46,231.9h4.11c0,0,0-3.45,3.59-3.52c1.86-0.03,2.83,1.19,3.22,2.13c0.46,1.09,0.32,2.32-0.29,3.33
							c-0.7,1.15-2.23,2.2-5,1.71v9.28h4.07v-5.43c0,0,5.71-1.48,5.71-7.76c0-6.02-5.4-7.41-7.71-7.41
							C420.4,224.22,414.38,224.64,414.46,231.9z"/>
					</g>
				</g>
			</g>
			<g>
				<g>
					<g>
						<rect x="420.08" y="246.74" class="st7" width="4.13" height="3.86"/>
					</g>
				</g>
			</g>
		</g>
	</g>
	<g>
		<g>
			<g>
				<g>
					<path class="st3" d="M452.11,305.63c-2.79-13.9-16.67-21.93-29.71-18.17c-12.77,3.68-20.11,17.65-15.87,30.25
						c1.42,4.22,3.92,7.77,7.09,10.46c0.12,0.1,0.23,0.18,0.36,0.27c0.01,0.01,0.02,0.01,0.03,0.02c5.53,3.78,12.26,5.61,18.9,4.75
						c2.23-0.29,4.37-0.85,6.25-1.75C448.79,326.88,454.21,316.09,452.11,305.63z"/>
				</g>
				<g>
					<g>
						<path class="st7" d="M452.11,305.63c0.01,0,0.04,0.12,0.09,0.37c0.05,0.27,0.12,0.64,0.2,1.11c0.16,0.97,0.28,2.43,0.23,4.31
							c-0.11,1.87-0.44,4.18-1.33,6.7c-0.9,2.51-2.31,5.28-4.55,7.81c-1.11,1.27-2.42,2.47-3.9,3.57c-1.52,1.04-3.16,2.06-5.03,2.75
							c-3.74,1.36-8.1,1.74-12.51,1.03c-2.2-0.37-4.42-1.01-6.56-1.95c-1.07-0.46-2.13-1-3.16-1.6c-0.52-0.3-1.02-0.62-1.52-0.95
							c-0.52-0.33-0.98-0.76-1.42-1.16c-3.57-3.3-6.23-7.89-7.14-12.98c-0.52-2.53-0.51-5.13-0.16-7.61
							c0.13-1.25,0.48-2.46,0.79-3.66c0.21-0.58,0.41-1.17,0.62-1.74c0.19-0.58,0.5-1.12,0.74-1.68c1.06-2.19,2.37-4.22,3.99-5.92
							l0.58-0.65l0.64-0.59c0.43-0.39,0.83-0.8,1.28-1.15c0.92-0.69,1.8-1.4,2.78-1.94c3.82-2.36,8.12-3.33,12.08-3.35
							c0.99-0.06,1.96,0.1,2.92,0.16c0.95,0.09,1.87,0.34,2.77,0.49c0.88,0.27,1.76,0.5,2.58,0.8c0.81,0.36,1.63,0.63,2.37,1.04
							c3.02,1.52,5.41,3.5,7.18,5.5c0.83,1.05,1.64,2,2.21,2.99c0.65,0.95,1.08,1.9,1.5,2.75c0.22,0.42,0.39,0.83,0.52,1.22
							c0.14,0.39,0.27,0.76,0.4,1.1c0.27,0.67,0.38,1.28,0.5,1.76c0.11,0.46,0.19,0.82,0.25,1.09
							C452.09,305.5,452.12,305.63,452.11,305.63c-0.01,0-0.05-0.12-0.12-0.36c-0.08-0.27-0.18-0.62-0.3-1.08
							c-0.14-0.47-0.26-1.07-0.55-1.73c-0.13-0.34-0.27-0.7-0.42-1.08c-0.14-0.39-0.31-0.8-0.54-1.2c-0.42-0.83-0.87-1.77-1.52-2.7
							c-0.57-0.98-1.39-1.91-2.22-2.93c-1.78-1.95-4.15-3.89-7.13-5.36c-0.73-0.39-1.55-0.66-2.34-1c-0.82-0.29-1.68-0.51-2.55-0.78
							c-0.89-0.15-1.79-0.38-2.73-0.47c-0.94-0.06-1.89-0.21-2.87-0.15c-3.89,0.04-8.1,1.01-11.83,3.33
							c-0.96,0.53-1.83,1.23-2.72,1.9c-0.44,0.35-0.83,0.76-1.26,1.13l-0.63,0.58l-0.57,0.64c-1.58,1.67-2.86,3.66-3.89,5.8
							c-0.24,0.55-0.54,1.07-0.72,1.64c-0.2,0.57-0.4,1.14-0.6,1.71c-0.3,1.17-0.64,2.35-0.77,3.58c-0.34,2.43-0.35,4.97,0.16,7.44
							c0.89,4.98,3.49,9.47,6.98,12.71c0.44,0.41,0.87,0.8,1.36,1.12c0.49,0.33,0.99,0.65,1.5,0.94c1.01,0.6,2.04,1.13,3.1,1.58
							c2.1,0.93,4.28,1.56,6.44,1.93c4.32,0.71,8.62,0.35,12.28-0.96c1.83-0.66,3.45-1.66,4.95-2.67c1.46-1.07,2.76-2.24,3.86-3.49
							c2.22-2.48,3.64-5.19,4.56-7.67c0.91-2.49,1.26-4.76,1.4-6.62c0.08-1.86-0.01-3.31-0.13-4.29c-0.06-0.47-0.11-0.83-0.15-1.11
							C452.11,305.76,452.1,305.63,452.11,305.63z"/>
					</g>
				</g>
			</g>
			<g>
				<g>
					<g>
						<g>
							<path class="st7" d="M421.19,305.93h3.59c0,0,0-3.02,3.14-3.07c1.63-0.03,2.47,1.04,2.82,1.86c0.4,0.95,0.28,2.03-0.26,2.91
								c-0.61,1-1.95,1.92-4.37,1.49l0,8.1h3.55v-4.75c0,0,4.98-1.29,4.98-6.78c0-5.25-4.71-6.47-6.73-6.47
								C426.38,299.22,421.12,299.59,421.19,305.93z"/>
						</g>
					</g>
				</g>
				<g>
					<g>
						<g>
							<rect x="426.1" y="318.89" class="st7" width="3.61" height="3.37"/>
						</g>
					</g>
				</g>
			</g>
		</g>
		<g>
			<g>
				<path class="st3" d="M401.1,309.97c0,2.64-2.14,4.78-4.78,4.78c-2.64,0-4.78-2.14-4.78-4.78c0-2.64,2.14-4.78,4.78-4.78
					C398.96,305.19,401.1,307.33,401.1,309.97z"/>
			</g>
			<g>
				<g>
					<path class="st7" d="M401.1,309.97c-0.05,0-0.04-0.43-0.25-1.14c-0.2-0.7-0.69-1.73-1.75-2.51c-1.03-0.79-2.71-1.22-4.33-0.61
						c-1.61,0.56-2.99,2.27-2.98,4.27c-0.02,2,1.37,3.71,2.98,4.27c1.62,0.61,3.3,0.17,4.33-0.61c1.06-0.78,1.55-1.81,1.75-2.51
						C401.06,310.4,401.05,309.97,401.1,309.97c0.02,0,0.03,0.1,0.04,0.31c0.01,0.2-0.01,0.5-0.09,0.88
						c-0.15,0.75-0.61,1.87-1.73,2.76c-1.08,0.89-2.91,1.42-4.72,0.77c-1.79-0.59-3.35-2.49-3.33-4.72
						c-0.02-2.23,1.54-4.13,3.33-4.72c1.8-0.65,3.64-0.12,4.72,0.77c1.12,0.89,1.58,2.01,1.73,2.76c0.08,0.38,0.1,0.68,0.09,0.88
						C401.13,309.87,401.12,309.97,401.1,309.97z"/>
				</g>
			</g>
		</g>
	</g>
	<g>
		<g>
			<g>
				<g>
					<path class="st3" d="M407.74,175.29c-2.88-14.33-17.18-22.61-30.63-18.73c-13.17,3.79-20.73,18.2-16.36,31.19
						c1.47,4.35,4.04,8.01,7.31,10.78c0.12,0.1,0.24,0.19,0.37,0.28c0.01,0.01,0.02,0.01,0.03,0.02c5.71,3.89,12.64,5.79,19.49,4.9
						c2.3-0.3,4.5-0.88,6.44-1.8C404.32,197.2,409.9,186.07,407.74,175.29z"/>
				</g>
				<g>
					<g>
						<path class="st7" d="M407.74,175.29c0.01,0,0.04,0.13,0.09,0.38c0.05,0.28,0.12,0.66,0.2,1.14c0.16,1,0.29,2.51,0.23,4.45
							c-0.12,1.93-0.45,4.31-1.37,6.91c-0.92,2.59-2.39,5.44-4.69,8.05c-1.14,1.31-2.49,2.55-4.02,3.68
							c-1.57,1.07-3.25,2.12-5.19,2.84c-3.86,1.4-8.35,1.8-12.9,1.06c-2.27-0.38-4.55-1.04-6.76-2.01
							c-1.11-0.47-2.19-1.03-3.25-1.65c-0.53-0.3-1.05-0.64-1.57-0.98c-0.54-0.34-1.01-0.78-1.46-1.2
							c-3.68-3.4-6.43-8.13-7.36-13.38c-0.54-2.61-0.53-5.28-0.17-7.85c0.13-1.29,0.5-2.53,0.81-3.77c0.21-0.6,0.42-1.2,0.63-1.8
							c0.2-0.6,0.51-1.15,0.76-1.73c1.09-2.25,2.45-4.35,4.11-6.1l0.6-0.67l0.66-0.61c0.45-0.4,0.86-0.83,1.32-1.19
							c0.94-0.71,1.85-1.44,2.87-2c3.94-2.43,8.37-3.43,12.45-3.45c1.03-0.06,2.03,0.1,3.01,0.17c0.98,0.1,1.93,0.35,2.86,0.51
							c0.91,0.28,1.81,0.52,2.66,0.83c0.83,0.37,1.68,0.65,2.45,1.07c3.11,1.56,5.57,3.61,7.41,5.66c0.86,1.08,1.7,2.06,2.28,3.09
							c0.67,0.98,1.12,1.96,1.54,2.83c0.23,0.43,0.4,0.85,0.53,1.26c0.15,0.4,0.28,0.78,0.41,1.13c0.28,0.69,0.39,1.32,0.52,1.81
							c0.11,0.48,0.2,0.85,0.26,1.13C407.72,175.16,407.75,175.29,407.74,175.29c-0.01,0-0.05-0.13-0.12-0.38
							c-0.08-0.27-0.18-0.64-0.31-1.11c-0.14-0.49-0.27-1.1-0.56-1.79c-0.13-0.35-0.28-0.72-0.43-1.12
							c-0.14-0.4-0.32-0.82-0.55-1.24c-0.44-0.86-0.89-1.82-1.57-2.78c-0.59-1.01-1.43-1.97-2.29-3.03
							c-1.83-2.02-4.28-4.01-7.35-5.53c-0.75-0.41-1.59-0.68-2.42-1.04c-0.84-0.3-1.73-0.53-2.63-0.8
							c-0.92-0.15-1.85-0.39-2.82-0.48c-0.97-0.06-1.95-0.22-2.96-0.15c-4.01,0.04-8.35,1.04-12.2,3.43
							c-0.99,0.54-1.88,1.27-2.81,1.96c-0.45,0.36-0.86,0.78-1.29,1.17l-0.65,0.6l-0.59,0.66c-1.63,1.72-2.95,3.78-4.02,5.99
							c-0.24,0.56-0.55,1.1-0.74,1.69c-0.21,0.58-0.41,1.17-0.62,1.76c-0.31,1.21-0.66,2.42-0.79,3.69
							c-0.35,2.51-0.36,5.12,0.17,7.68c0.92,5.14,3.6,9.77,7.2,13.1c0.46,0.42,0.9,0.83,1.4,1.15c0.51,0.34,1.02,0.67,1.54,0.97
							c1.04,0.62,2.11,1.16,3.2,1.63c2.17,0.96,4.41,1.6,6.64,1.99c4.46,0.74,8.89,0.36,12.67-0.99c1.89-0.69,3.56-1.72,5.1-2.76
							c1.51-1.1,2.85-2.31,3.98-3.6c2.29-2.56,3.76-5.36,4.7-7.91c0.93-2.56,1.3-4.91,1.44-6.82c0.08-1.92-0.01-3.42-0.14-4.42
							c-0.06-0.48-0.11-0.86-0.15-1.14C407.74,175.43,407.73,175.29,407.74,175.29z"/>
					</g>
				</g>
			</g>
			<g>
				<g>
					<g>
						<g>
							<path class="st7" d="M375.86,175.61h3.7c0,0,0-3.11,3.23-3.17c1.68-0.03,2.55,1.07,2.9,1.91c0.41,0.98,0.29,2.09-0.26,3
								c-0.63,1.04-2.01,1.98-4.5,1.54v8.35h3.66v-4.89c0,0,5.14-1.33,5.14-6.99c0-5.42-4.86-6.68-6.94-6.68
								C381.21,168.69,375.79,169.07,375.86,175.61z"/>
						</g>
					</g>
				</g>
				<g>
					<g>
						<g>
							<rect x="380.93" y="188.97" class="st7" width="3.72" height="3.47"/>
						</g>
					</g>
				</g>
			</g>
		</g>
		<g>
			<g>
				<path class="st3" d="M367.55,208.1c0,2.72-2.21,4.93-4.93,4.93s-4.93-2.21-4.93-4.93c0-2.72,2.21-4.93,4.93-4.93
					S367.55,205.37,367.55,208.1z"/>
			</g>
			<g>
				<g>
					<path class="st7" d="M367.55,208.1c-0.05,0-0.04-0.44-0.25-1.18c-0.21-0.73-0.71-1.78-1.81-2.59c-1.06-0.81-2.8-1.26-4.47-0.63
						c-1.66,0.58-3.09,2.34-3.07,4.41c-0.02,2.06,1.41,3.83,3.07,4.41c1.67,0.63,3.41,0.18,4.47-0.63c1.1-0.81,1.6-1.87,1.81-2.59
						C367.51,208.54,367.5,208.09,367.55,208.1c0.02,0,0.03,0.11,0.04,0.32c0.01,0.21-0.01,0.52-0.09,0.91
						c-0.15,0.77-0.63,1.93-1.78,2.84c-1.11,0.91-3,1.46-4.86,0.79c-1.84-0.61-3.45-2.56-3.43-4.86c-0.02-2.29,1.59-4.25,3.43-4.86
						c1.86-0.67,3.75-0.12,4.86,0.79c1.15,0.91,1.63,2.07,1.78,2.84c0.08,0.39,0.1,0.7,0.09,0.91
						C367.58,207.99,367.57,208.1,367.55,208.1z"/>
				</g>
			</g>
		</g>
	</g>
</g>
<g id="Speech_Bubbles_1">
	<g>
		<g>
			<g>
				<path class="st3" d="M172.51,133.93h-66.96c-9.66,0-17.48,7.83-17.48,17.48v33.06c0,9.66,7.83,17.48,17.48,17.48h49.8l8.6,14.26
					l8.05-14.26h0.51c9.65,0,17.48-7.83,17.48-17.48v-33.06C189.99,141.76,182.17,133.93,172.51,133.93z"/>
			</g>
			<g>
				<g>
					<path class="st7" d="M172.51,133.93c0,0,0.14-0.01,0.41,0c0.29,0.01,0.69,0.02,1.22,0.04c0.54,0.05,1.2,0.15,1.99,0.28
						c0.77,0.19,1.68,0.39,2.66,0.78c1.94,0.75,4.28,2,6.39,4.2c1.07,1.08,2.03,2.42,2.88,3.94c0.82,1.54,1.44,3.3,1.79,5.23
						c0.38,1.93,0.27,4,0.29,6.13c0,2.14,0.01,4.38,0.01,6.72c0.01,4.67,0.02,9.71,0.03,15.1c0,2.69,0,5.47,0,8.33
						c-0.05,2.88-0.77,5.86-2.29,8.51c-0.75,1.33-1.7,2.56-2.78,3.69c-1.13,1.08-2.33,2.13-3.74,2.9c-1.38,0.8-2.88,1.45-4.48,1.83
						c-0.79,0.24-1.61,0.33-2.42,0.46c-0.82,0.06-1.66,0.12-2.48,0.12l0.2-0.12c-2.54,4.51-5.25,9.32-8.04,14.27l-0.2,0.36
						l-0.22-0.36c-2.72-4.51-5.63-9.33-8.61-14.26l0.22,0.12c-13.1,0-27.13,0.01-41.6,0.01c-2.82,0-5.62-0.01-8.4-0.01
						c-2.82-0.04-5.61-0.76-8.07-2.04c-4.93-2.6-8.45-7.54-9.22-12.89l-0.15-1l-0.05-1.01c-0.05-0.67-0.04-1.33-0.04-1.99
						c0-1.32,0-2.63,0-3.93c0-2.61,0-5.19,0-7.74c0-5.11,0.01-10.11,0.01-14.99c0-1.22,0-2.43,0-3.64c-0.01-1.2,0.01-2.41,0.13-3.61
						c0.27-2.39,1.05-4.69,2.21-6.72c2.32-4.08,6.21-7.01,10.43-8.22c0.53-0.13,1.06-0.29,1.59-0.39c0.54-0.08,1.07-0.16,1.61-0.24
						c1.08-0.07,2.15-0.11,3.19-0.08c2.09,0,4.15,0.01,6.16,0.01c4.03,0.01,7.89,0.01,11.58,0.02c14.75,0.03,26.69,0.06,34.96,0.08
						c4.12,0.02,7.32,0.04,9.5,0.05c1.08,0.01,1.9,0.02,2.47,0.03C172.23,133.91,172.51,133.93,172.51,133.93s-0.29,0.02-0.84,0.03
						c-0.57,0.01-1.4,0.01-2.47,0.03c-2.19,0.01-5.39,0.03-9.5,0.05c-8.27,0.02-20.21,0.05-34.96,0.08
						c-3.69,0.01-7.56,0.01-11.58,0.02c-2.01,0-4.07,0.01-6.16,0.01c-0.52,0-1.05,0.01-1.58,0.01c-0.52,0.03-1.04,0.05-1.57,0.08
						c-0.52,0.08-1.04,0.16-1.57,0.24c-0.52,0.09-1.03,0.26-1.55,0.38c-4.11,1.19-7.9,4.06-10.16,8.04
						c-1.13,1.98-1.88,4.22-2.14,6.55c-0.11,1.16-0.13,2.35-0.12,3.56c0,1.2,0,2.42,0,3.64c0,4.88,0.01,9.88,0.01,14.99
						c0,2.55,0,5.14,0,7.74c0,1.3,0,2.61,0,3.93c0,0.66-0.01,1.32,0.04,1.97l0.05,0.98l0.15,0.97c0.76,5.19,4.17,9.99,8.96,12.51
						c2.4,1.25,5.1,1.94,7.84,1.98c2.78,0,5.58,0.01,8.39,0.01c14.47,0,28.5,0.01,41.6,0.01h0.14l0.07,0.12
						c2.97,4.93,5.88,9.76,8.59,14.27l-0.42,0.01c2.8-4.95,5.51-9.76,8.06-14.26l0.07-0.12l0.13,0c0.83,0,1.63-0.05,2.43-0.11
						c0.79-0.13,1.59-0.21,2.36-0.44c1.55-0.37,3.01-1,4.36-1.78c1.38-0.75,2.55-1.77,3.65-2.82c1.05-1.1,1.98-2.3,2.72-3.6
						c1.49-2.58,2.19-5.49,2.25-8.31c0.01-2.86,0.01-5.63,0.02-8.32c0.01-5.38,0.02-10.43,0.03-15.1c0-2.33,0.01-4.57,0.01-6.72
						c-0.01-2.14,0.11-4.19-0.26-6.09c-0.33-1.89-0.93-3.64-1.73-5.16c-0.83-1.5-1.76-2.83-2.82-3.9c-2.07-2.19-4.37-3.45-6.29-4.21
						c-0.96-0.4-1.86-0.6-2.63-0.81c-0.78-0.14-1.44-0.25-1.97-0.31c-0.53-0.03-0.93-0.06-1.22-0.08
						C172.65,133.95,172.51,133.93,172.51,133.93z"/>
				</g>
			</g>
		</g>
		<g>
			<g>
				<path class="st7" d="M175.98,151.89c0,0.14-16.56,0.26-36.98,0.26c-20.43,0-36.99-0.12-36.99-0.26s16.56-0.26,36.99-0.26
					C159.42,151.63,175.98,151.75,175.98,151.89z"/>
			</g>
		</g>
		<g>
			<g>
				<path class="st7" d="M175.98,159.92c0,0.14-16.56,0.26-36.98,0.26c-20.43,0-36.99-0.12-36.99-0.26s16.56-0.26,36.99-0.26
					C159.42,159.66,175.98,159.77,175.98,159.92z"/>
			</g>
		</g>
		<g>
			<g>
				<path class="st7" d="M175.98,167.94c0,0.14-16.56,0.26-36.98,0.26c-20.43,0-36.99-0.12-36.99-0.26s16.56-0.26,36.99-0.26
					C159.42,167.68,175.98,167.8,175.98,167.94z"/>
			</g>
		</g>
		<g>
			<g>
				<path class="st7" d="M175.98,175.97c0,0.14-16.56,0.26-36.98,0.26c-20.43,0-36.99-0.12-36.99-0.26s16.56-0.26,36.99-0.26
					C159.42,175.71,175.98,175.83,175.98,175.97z"/>
			</g>
		</g>
		<g>
			<g>
				<path class="st7" d="M175.98,183.99c0,0.14-16.56,0.26-36.98,0.26c-20.43,0-36.99-0.12-36.99-0.26c0-0.14,16.56-0.26,36.99-0.26
					C159.42,183.73,175.98,183.85,175.98,183.99z"/>
			</g>
		</g>
	</g>
	<g>
		<g>
			<g>
				<path class="st3" d="M224.69,70.12h-75.57c-7.28,0-13.18,5.9-13.18,13.18v26.58c0,7.28,5.9,13.18,13.18,13.18h54.11l8.6,14.26
					l8.05-14.26h4.81c7.28,0,13.18-5.9,13.18-13.18V83.29C237.87,76.02,231.97,70.12,224.69,70.12z"/>
			</g>
			<g>
				<g>
					<path class="st7" d="M224.69,70.12c0,0,0.45,0,1.33,0.03c0.87,0.12,2.19,0.26,3.77,0.92c1.58,0.63,3.41,1.8,5.05,3.68
						c0.79,0.96,1.53,2.08,2.1,3.39c0.55,1.32,0.92,2.81,1.01,4.41c0.09,6.37,0.06,14.09,0.09,22.97c0,1.11,0,2.24,0.01,3.38
						c0.02,1.14-0.03,2.33-0.24,3.51c-0.46,2.34-1.55,4.66-3.29,6.51c-0.85,0.93-1.84,1.77-2.97,2.42c-1.11,0.67-2.33,1.2-3.63,1.5
						c-0.64,0.19-1.31,0.25-1.97,0.35c-0.67,0.04-1.35,0.08-2.02,0.07c-1.34,0-2.69,0-4.06,0l0.19-0.11
						c-2.54,4.52-5.24,9.31-8.04,14.27l-0.2,0.35l-0.21-0.35c-2.73-4.51-5.63-9.32-8.61-14.26l0.21,0.12
						c-14.27,0-29.8,0.01-45.91,0.01c-2.62,0-5.22,0-7.81,0c-2.62,0.05-5.27-0.63-7.47-2.03c-2.21-1.36-4-3.38-5.07-5.7
						c-1.16-2.3-1.36-4.96-1.28-7.39c0-4.94,0-9.79,0.01-14.54c0-2.38,0-4.73,0-7.05c0-1.16,0.01-2.32,0.01-3.47
						c0.04-1.17,0.17-2.33,0.5-3.44c0.59-2.24,1.85-4.23,3.41-5.85c1.61-1.57,3.56-2.76,5.66-3.38c1.05-0.28,2.13-0.51,3.2-0.53
						c1.08-0.06,2.12-0.02,3.16-0.03c2.09,0,4.14,0,6.16,0.01c8.07,0.01,15.59,0.02,22.46,0.03c13.72,0.03,24.82,0.06,32.52,0.08
						c3.83,0.02,6.8,0.04,8.84,0.05c1,0.01,1.77,0.02,2.3,0.03C224.43,70.1,224.69,70.12,224.69,70.12s-0.27,0.02-0.78,0.03
						c-0.53,0.01-1.3,0.01-2.3,0.03c-2.04,0.01-5.01,0.03-8.84,0.05c-7.69,0.02-18.8,0.05-32.52,0.08
						c-6.87,0.01-14.38,0.02-22.46,0.03c-2.02,0-4.07,0-6.16,0.01c-2.09,0-4.21-0.08-6.24,0.55c-2.03,0.6-3.91,1.75-5.46,3.27
						c-1.5,1.56-2.71,3.48-3.28,5.64c-0.64,2.14-0.46,4.45-0.48,6.78c0,2.32,0,4.68,0,7.05c0,4.75,0,9.6,0.01,14.54
						c0.01,1.24-0.04,2.47,0.17,3.67c0.17,1.21,0.54,2.39,1.07,3.5c1.04,2.23,2.75,4.17,4.88,5.48c2.12,1.34,4.65,1.99,7.19,1.95
						c2.59,0,5.19,0,7.81,0c16.11,0,31.64,0.01,45.91,0.01h0.14l0.07,0.12c2.97,4.94,5.87,9.75,8.59,14.27l-0.41,0.01
						c2.8-4.95,5.51-9.74,8.06-14.26l0.06-0.11l0.13,0c1.37,0,2.72,0,4.06,0c0.67,0.01,1.33-0.03,1.98-0.06
						c0.64-0.09,1.29-0.15,1.91-0.33c1.26-0.29,2.44-0.8,3.52-1.45c1.09-0.63,2.05-1.44,2.88-2.34c1.69-1.79,2.75-4.03,3.21-6.31
						c0.21-1.15,0.26-2.28,0.25-3.44c0-1.15,0-2.27,0.01-3.38c0-8.87,0.07-16.61,0.02-22.96c-0.08-1.57-0.44-3.04-0.97-4.34
						c-0.55-1.29-1.27-2.41-2.04-3.36c-1.6-1.86-3.39-3.03-4.95-3.68C226.58,69.93,224.66,70.22,224.69,70.12z"/>
				</g>
			</g>
		</g>
		<g>
			<g>
				<path class="st3" d="M152.04,88.75c24.66,0,49.32,0,73.97,0"/>
			</g>
			<g>
				<g>
					<path class="st7" d="M226.01,88.75c0,0.14-16.56,0.26-36.98,0.26c-20.43,0-36.99-0.12-36.99-0.26c0-0.14,16.56-0.26,36.99-0.26
						C209.45,88.49,226.01,88.61,226.01,88.75z"/>
				</g>
			</g>
		</g>
		<g>
			<g>
				<path class="st3" d="M152.04,96.77c24.66,0,49.32,0,73.97,0"/>
			</g>
			<g>
				<g>
					<path class="st7" d="M226.01,96.77c0,0.14-16.56,0.26-36.98,0.26c-20.43,0-36.99-0.12-36.99-0.26c0-0.14,16.56-0.26,36.99-0.26
						C209.45,96.51,226.01,96.63,226.01,96.77z"/>
				</g>
			</g>
		</g>
		<g>
			<g>
				<path class="st3" d="M152.04,104.8c24.66,0,49.32,0,73.97,0"/>
			</g>
			<g>
				<g>
					<path class="st7" d="M226.01,104.8c0,0.14-16.56,0.26-36.98,0.26c-20.43,0-36.99-0.12-36.99-0.26s16.56-0.26,36.99-0.26
						C209.45,104.54,226.01,104.66,226.01,104.8z"/>
				</g>
			</g>
		</g>
	</g>
</g>
<g id="Character_2">
	<g>
		<g>
			<g>
				<g>
					<path class="st7" d="M386.03,281.92c-0.95-1.13-2.2-2.16-2.5-3.61c-0.29-1.39,0.38-2.78,0.68-4.18
						c0.84-3.88-1.6-8.19-5.35-9.49c-2.16-0.74-4.93-0.81-6.02-2.81c-1.08-1.97,0.29-4.29,1.09-6.39c1.33-3.47,0.98-7.51-0.86-10.74
						c-0.26-0.74-0.56-1.46-0.92-2.16c-2.82-5.56-8.56-9.26-14.45-9.3c-0.88-4.56-4.67-8.09-8.91-9.01c0-1.62-0.34-3.25-1.08-4.68
						c-2.11-4.11-6.6-6.6-11.16-7.34c-6.6-1.06-13.66,1.27-18.31,6.07c-2.52,2.59-4.56,5.97-7.97,7.16c-3,1.04-6.32,0.1-9.47,0.51
						c-4.22,0.55-7.84,3.55-10.01,7.21c-2.16,3.67-3.06,7.94-3.56,12.17c-0.46,3.88-0.76,8.14-3.45,10.97
						c-2.63,2.76-6.77,3.35-10.04,5.31c-6.14,3.7-8.13,12.85-4.08,18.76c1.29,1.88,3.15,3.61,3.3,5.89
						c0.14,2.08-1.21,3.94-1.84,5.93c-1.62,5.12,2.57,11.21,7.93,11.51c2.71,0.16,5.61-0.9,8.04,0.31c2.41,1.2,3.31,4.11,4.85,6.32
						c3.03,4.35,9.38,5.98,14.14,3.65c1.99-0.98,3.87-2.59,6.09-2.44c2.21,0.15,3.95,2.04,6.12,2.46c2.85,0.55,5.55-1.55,7.24-3.9
						c1.69-2.35,2.87-5.12,5.04-7.05c2.84-2.52,6.82-3.14,10.41-4.38c5.15-1.77,9.72-5.06,13.17-9.27l-0.35,19.98
						c2.96,0,4.7-1.04,5.8-2.57c0.62,0.41,1.28,0.76,1.99,1c3.5,1.16,7.66-0.15,9.88-3.09c1.15-1.54,1.87-3.5,3.51-4.51
						c1.43-0.88,3.21-0.81,4.86-1.11c3.62-0.66,6.81-3.35,8.05-6.82C389.14,288.85,388.4,284.74,386.03,281.92z"/>
				</g>
				<g>
					<g>
						<g>
							<g>
								<path class="st8" d="M318.94,235.23L318.94,235.23c-4.14,2.61-13.54,14.1-13.72,17.48l0.97,68.73
									c-0.15,5.16-1.04,9.61,1.98,13.8l0,0c8.38,10.01,27.77,11.24,32.2,2.99c0.34-0.63,0.59-1.19,0.71-1.66
									c0.14-0.68,0.34-1.12,0.39-1.7c1.2-5.82,1.01-11.42,1.01-11.42c0.58-6.72,0.78-9.48,0.78-9.41c0,0,14.36-1.3,18.67-19.59
									c2.14-9.1,2.8-24.22,2.94-36.61c0.02-2.09-0.51-4.52-1.47-7.09c-5.33-14.26-17.58-21.18-32.32-19.92
									C327.39,231.15,321.74,232.8,318.94,235.23z"/>
							</g>
						</g>
						<g>
							<g>
								<g>
									<g>
										<g>
											<g>
												<g>
													<g>
														<g>
															<g>
																<g>
																	<g>
																		<g>
																			<g>
																				<g>
																					<g>
																						<path class="st7" d="M343.74,283.69c0-0.15,1.61-0.3,4.2-0.44c0.66-0.02,1.28-0.1,1.43-0.54
																							c0.19-0.46-0.03-1.18-0.29-1.97c-0.5-1.62-1.01-3.33-1.56-5.11c-2.15-7.27-3.66-13.23-3.37-13.31
																							c0.29-0.08,2.28,5.74,4.43,13.01c0.52,1.79,1.01,3.5,1.48,5.13c0.19,0.76,0.55,1.63,0.15,2.58
																							c-0.21,0.47-0.72,0.79-1.14,0.87c-0.43,0.1-0.79,0.08-1.12,0.07C345.35,283.95,343.74,283.84,343.74,283.69z"
																							/>
																					</g>
																				</g>
																			</g>
																		</g>
																	</g>
																</g>
															</g>
														</g>
													</g>
												</g>
											</g>
										</g>
									</g>
								</g>
								<g>
									<g>
										<g>
											<g>
												<g>
													<g>
														<g>
															<g>
																<g>
																	<g>
																		<g>
																			<g>
																				<g>
																					<path class="st9" d="M343.26,314.05c0,0-12.51-0.12-24.29-8.45c0,0,5.28,13.27,23.93,12.92L343.26,314.05z"/>
																				</g>
																			</g>
																		</g>
																	</g>
																</g>
															</g>
														</g>
													</g>
												</g>
											</g>
										</g>
									</g>
								</g>
								<g>
									<g>
										<g>
											<g>
												<g>
													<g>
														<g>
															<g>
																<g>
																	<g>
																		<g>
																			<g>
																				<g>
																					<path class="st9" d="M342.2,289.77c-0.83-1.28-2.39-2.07-4-2.02c-1.12,0.04-2.28,0.49-3.02,1.34
																						c-0.74,0.85-0.98,2.12-0.43,3.03c0.62,1.02,2.04,1.35,3.29,1.09c1.24-0.26,2.35-0.98,3.41-1.71
																						c0.29-0.2,0.59-0.41,0.79-0.7c0.19-0.29,0.26-0.68,0.07-0.95"/>
																				</g>
																			</g>
																		</g>
																	</g>
																</g>
															</g>
														</g>
													</g>
												</g>
											</g>
										</g>
									</g>
								</g>
								<g>
									<g>
										<g>
											<g>
												<g>
													<g>
														<g>
															<g>
																<g>
																	<g>
																		<g>
																			<g>
																				<g>
																					<g>
																						<path class="st7" d="M336.09,284.9c0.42,0.01,0.22,2.78,2.44,4.92c2.22,2.15,5.2,2.06,5.19,2.45
																							c0.03,0.18-0.7,0.49-1.95,0.43c-1.23-0.05-2.98-0.57-4.35-1.89c-1.36-1.31-1.86-2.97-1.87-4.11
																							C335.54,285.54,335.9,284.87,336.09,284.9z"/>
																					</g>
																				</g>
																			</g>
																		</g>
																	</g>
																</g>
															</g>
														</g>
													</g>
												</g>
											</g>
										</g>
									</g>
								</g>
							</g>
						</g>
						<g>
							<g>
								<g>
									<g>
										<g>
											<g>
												<g>
													<g>
														<g>
															<g>
																<g>
																	<g>
																		<path class="st7" d="M335.63,257.14c-0.3,0.68-2.83,0.16-5.85,0.3c-3.03,0.08-5.51,0.78-5.86,0.12
																			c-0.16-0.31,0.31-0.93,1.34-1.53c1.02-0.6,2.61-1.12,4.42-1.19c1.81-0.06,3.44,0.34,4.5,0.87
																			C335.25,256.23,335.76,256.82,335.63,257.14z"/>
																	</g>
																</g>
															</g>
														</g>
													</g>
												</g>
											</g>
										</g>
									</g>
								</g>
							</g>
						</g>
						<g>
							<g>
								<g>
									<g>
										<g>
											<g>
												<g>
													<g>
														<g>
															<g>
																<g>
																	<g>
																		<path class="st7" d="M361.09,257.13c-0.58,0.54-2.63-0.22-5.15-0.43c-2.51-0.29-4.69,0.04-5.14-0.6
																			c-0.19-0.31,0.19-0.87,1.16-1.35c0.96-0.48,2.53-0.81,4.26-0.64c1.73,0.17,3.19,0.81,4.03,1.47
																			C361.1,256.25,361.35,256.87,361.09,257.13z"/>
																	</g>
																</g>
															</g>
														</g>
													</g>
												</g>
											</g>
										</g>
									</g>
								</g>
							</g>
						</g>
						<g>
							<g>
								<g>
									<g>
										<g>
											<g>
												<path class="st8" d="M308.94,276.61c0.1-1.38-1.25-4.75-2.6-5.06c-3.59-0.84-10.16-1.03-10.91,8.2
													c-1.02,12.61,11.85,11.03,11.9,10.67C307.38,290.13,308.6,281.36,308.94,276.61z"/>
											</g>
										</g>
									</g>
								</g>
							</g>
						</g>
						<g>
							<g>
								<g>
									<g>
										<g>
											<g>
												<g>
													<path class="st9" d="M303.87,285.33c-0.05-0.04-0.23,0.14-0.62,0.28c-0.38,0.14-1.01,0.2-1.65-0.1
														c-1.29-0.6-2.24-2.8-2.12-5.08c0.06-1.15,0.39-2.22,0.87-3.1c0.46-0.89,1.11-1.49,1.79-1.55
														c0.68-0.1,1.12,0.34,1.25,0.71c0.14,0.37,0.04,0.61,0.11,0.64c0.03,0.03,0.29-0.19,0.23-0.72
														c-0.03-0.25-0.16-0.56-0.43-0.83c-0.28-0.27-0.72-0.43-1.19-0.42c-0.98-0.01-1.93,0.81-2.45,1.77
														c-0.58,0.96-0.98,2.16-1.05,3.45c-0.12,2.55,0.98,5.03,2.76,5.71c0.87,0.3,1.63,0.1,2.04-0.17
														C303.82,285.63,303.91,285.35,303.87,285.33z"/>
												</g>
											</g>
										</g>
									</g>
								</g>
							</g>
						</g>
					</g>
					<g>
						<g>
							<path class="st6" d="M303.88,252.71C303.88,252.08,303.65,253.3,303.88,252.71L303.88,252.71z"/>
						</g>
						<g>
							<path class="st10" d="M355.57,235.01c-4.69-3.16-8.55-6.81-20.01-6.83c-8.85-0.01-15.33,5.14-22.3,11.22
								c-8.96,7.81-14.63,20.55-10.86,31.82l0,0l3.76,1.47l3.57-8.64c6.16-13.4,18.97-24.67,32.8-25.33
								c1.39-0.07,2.68-0.05,3.82,0.06c9.14,0.92,18.51,17.56,18.51,17.56S366.57,242.42,355.57,235.01z"/>
						</g>
					</g>
				</g>
				<g>
					<path class="st7" d="M306.19,272.63c0.2,2.62,0.6,4.98,0.8,7.6c0.09,1.1,0.36,2.46,1.43,2.75c0.76,0.21,1.57-0.29,1.98-0.97
						c0.4-0.68,0.49-1.49,0.57-2.28c0.78-7.93,1.44-13.98,2.22-21.91C310.89,260.99,308.55,266.47,306.19,272.63z"/>
				</g>
				<g>
					<g>
						<path class="st1" d="M304.1,292.51c0.02,0,0.07,0.25-0.09,0.67c-0.16,0.41-0.59,0.95-1.32,1.29
							c-0.72,0.35-1.74,0.43-2.74,0.07c-0.99-0.35-1.98-1.16-2.38-2.35c-0.4-1.17-0.22-2.42,0.32-3.33
							c0.54-0.93,1.41-1.46,2.16-1.68c0.76-0.23,1.41-0.19,1.83-0.1c0.42,0.1,0.63,0.22,0.62,0.25c-0.01,0.1-0.95-0.3-2.33,0.2
							c-0.67,0.24-1.41,0.75-1.86,1.57c-0.45,0.81-0.6,1.91-0.25,2.93c0.34,1.01,1.19,1.74,2.06,2.07c0.87,0.34,1.77,0.31,2.42,0.04
							c0.66-0.26,1.09-0.7,1.28-1.04C304.03,292.74,304.05,292.5,304.1,292.51z"/>
					</g>
				</g>
				<g>
					<path class="st7" d="M330.68,241.87c0,0,9.97,2.75,13.34,1.71c3.8-1.17,5.45-4.09,5.45-4.09S341.74,236.07,330.68,241.87z"/>
				</g>
				<g>
					<g>
						<path class="st7" d="M386.02,267.47c-0.04-0.04,0.47-0.38,1.05-1.27c0.58-0.87,1.22-2.39,1.06-4.33
							c-0.13-1.92-1.29-4.16-3.4-5.72c-2.1-1.58-5.1-2.34-8.23-2.12l-0.44,0.03l0.19-0.39c1.01-2.06,1.96-4.34,2.34-6.82
							c0.3-1.98,0.2-3.97-0.39-5.75c-0.58-1.79-1.69-3.29-3-4.41c-2.66-2.27-5.85-3.1-8.46-3.32c-2.64-0.23-4.8,0.02-6.27,0.18
							c-0.69,0.09-1.26,0.16-1.7,0.21c-0.39,0.05-0.6,0.07-0.6,0.05c0-0.02,0.2-0.07,0.58-0.15c0.38-0.08,0.95-0.19,1.69-0.31
							c1.47-0.22,3.64-0.53,6.33-0.35c2.65,0.18,5.96,0.99,8.74,3.32c1.37,1.16,2.55,2.74,3.17,4.61c0.62,1.87,0.73,3.95,0.42,5.99
							c-0.4,2.56-1.37,4.89-2.41,6.97l-0.24-0.36c3.22-0.21,6.35,0.59,8.53,2.28c2.19,1.66,3.37,4.03,3.46,6.04
							c0.12,2.03-0.6,3.58-1.24,4.45C386.56,267.18,386.02,267.47,386.02,267.47z"/>
					</g>
				</g>
				<g>
					<g>
						<path class="st7" d="M282.49,288.74c0,0.01-0.09,0.01-0.27,0.01c-0.21-0.01-0.47-0.02-0.8-0.03c-0.7-0.04-1.74-0.09-3.08-0.25
							c-1.33-0.17-2.97-0.42-4.77-1.09c-1.78-0.68-3.78-1.8-5.24-3.78c-1.48-1.98-2.02-4.75-1.91-7.57
							c0.05-1.42,0.22-2.87,0.43-4.36c0.21-1.48,0.42-3.03,0.95-4.56c0.52-1.52,1.42-3.02,2.84-4.02c1.44-1.05,3.32-1.12,5.01-1.09
							c1.7,0.02,3.52,0.07,4.9-0.94c1.37-1,2.07-2.76,2.23-4.51c0.17-1.78-0.11-3.57-0.2-5.36c-0.1-1.79-0.01-3.57,0.22-5.29
							c0.46-3.44,1.54-6.67,3.06-9.48c1.52-2.81,3.49-5.19,5.67-7c2.18-1.83,4.55-3.08,6.82-3.88c4.57-1.65,8.62-1.46,11.23-0.96
							c2.64,0.54,3.96,1.27,3.96,1.27c0,0.01-0.09-0.02-0.27-0.07c-0.2-0.07-0.45-0.15-0.76-0.26c-0.66-0.22-1.66-0.51-2.97-0.74
							c-2.6-0.44-6.59-0.56-11.07,1.1c-2.23,0.81-4.55,2.06-6.67,3.87c-2.13,1.79-4.04,4.14-5.53,6.9
							c-1.49,2.76-2.54,5.93-2.98,9.32c-0.22,1.69-0.31,3.43-0.21,5.19c0.09,1.76,0.38,3.57,0.2,5.44c-0.17,1.84-0.9,3.75-2.45,4.88
							c-0.77,0.54-1.68,0.84-2.58,0.94c-0.9,0.11-1.78,0.09-2.64,0.08c-1.7-0.03-3.42,0.04-4.72,0.99
							c-1.31,0.91-2.17,2.32-2.68,3.77c-0.52,1.46-0.73,2.99-0.95,4.47c-0.22,1.48-0.39,2.92-0.45,4.31
							c-0.13,2.77,0.39,5.43,1.78,7.34c1.38,1.91,3.31,3.04,5.05,3.73c1.76,0.68,3.38,0.97,4.69,1.16c1.32,0.19,2.36,0.27,3.06,0.34
							c0.33,0.03,0.59,0.06,0.8,0.08C282.4,288.71,282.49,288.73,282.49,288.74z"/>
					</g>
				</g>
				<g>
					<g>
						<path class="st7" d="M314.52,239.41c0.03,0.02-0.26,0.43-0.81,1.13c-0.28,0.35-0.61,0.78-0.97,1.3
							c-0.36,0.52-0.81,1.09-1.23,1.76c-0.89,1.32-1.86,2.95-2.82,4.81c-0.94,1.88-1.87,3.99-2.66,6.29
							c-0.77,2.3-1.32,4.54-1.72,6.61c-0.37,2.07-0.6,3.95-0.69,5.54c-0.08,0.79-0.07,1.51-0.1,2.14c-0.03,0.63-0.03,1.18-0.02,1.62
							c0.01,0.89-0.01,1.39-0.04,1.39c-0.04,0-0.09-0.49-0.16-1.38c-0.04-0.45-0.07-0.99-0.07-1.63c0-0.64-0.03-1.36,0.02-2.16
							c0.04-1.6,0.24-3.51,0.58-5.6c0.37-2.09,0.92-4.36,1.7-6.69c0.8-2.32,1.75-4.45,2.72-6.34c1-1.87,2.01-3.5,2.95-4.8
							c0.45-0.67,0.91-1.22,1.3-1.73c0.39-0.51,0.74-0.92,1.05-1.25C314.15,239.74,314.5,239.38,314.52,239.41z"/>
					</g>
				</g>
				<g>
					<g>
						<path class="st7" d="M324.61,234.63c0.02,0.03-0.41,0.44-1.21,1.16c-0.41,0.36-0.89,0.8-1.44,1.34
							c-0.54,0.54-1.19,1.12-1.84,1.83c-1.35,1.37-2.85,3.11-4.41,5.11c-1.53,2.03-3.1,4.34-4.56,6.89c-1.43,2.56-2.6,5.1-3.55,7.46
							c-0.91,2.37-1.62,4.55-2.1,6.41c-0.27,0.92-0.44,1.78-0.62,2.52c-0.18,0.74-0.31,1.39-0.4,1.92c-0.2,1.06-0.33,1.64-0.37,1.64
							c-0.04,0,0.03-0.6,0.17-1.67c0.06-0.54,0.16-1.19,0.32-1.95c0.15-0.75,0.29-1.62,0.55-2.55c0.44-1.89,1.12-4.1,2.01-6.5
							c0.93-2.39,2.1-4.96,3.54-7.54c1.47-2.57,3.07-4.9,4.63-6.93c1.59-2.01,3.13-3.73,4.52-5.08c0.67-0.7,1.34-1.27,1.9-1.79
							c0.56-0.52,1.07-0.94,1.5-1.28C324.11,234.96,324.59,234.6,324.61,234.63z"/>
					</g>
				</g>
				<g>
					<g>
						<path class="st6" d="M289.25,294.03c0.01,0.01-0.09,0.07-0.27,0.19c-0.18,0.13-0.46,0.3-0.86,0.48
							c-0.78,0.37-2.03,0.8-3.69,0.79c-1.64,0-3.72-0.43-5.67-1.78c-1.95-1.34-3.57-3.71-4.21-6.61c-0.32-1.45-0.39-3.03-0.15-4.64
							c0.26-1.6,0.81-3.22,1.69-4.74c0.87-1.51,2.01-2.94,3.4-4.17c1.38-1.25,3.04-2.24,4.74-3.16c1.68-0.94,3.43-1.9,4.78-3.36
							c1.37-1.43,2.27-3.32,2.83-5.31c0.54-2.01,0.78-4.13,0.89-6.29c0.11-2.16,0.1-4.38,0.32-6.62c0.21-2.23,0.62-4.46,1.5-6.5
							c0.84-2.05,2.31-3.82,4.1-5.01c1.79-1.21,3.79-1.91,5.74-2.48c1.96-0.56,3.89-0.99,5.73-1.56c1.83-0.57,3.58-1.28,5.03-2.34
							c0.36-0.27,0.72-0.53,1.03-0.85c0.32-0.31,0.64-0.6,0.91-0.95c0.55-0.68,1.01-1.41,1.45-2.15c0.87-1.47,1.66-2.97,2.78-4.17
							c1.11-1.19,2.44-2.07,3.8-2.67c2.74-1.18,5.6-1.21,7.83-0.47c2.26,0.72,3.9,2.03,5,3.24c1.11,1.23,1.69,2.39,2.02,3.19
							c0.33,0.8,0.4,1.26,0.4,1.26c-0.03,0.01-0.14-0.43-0.5-1.21c-0.36-0.77-0.96-1.91-2.07-3.09c-1.1-1.17-2.73-2.43-4.94-3.1
							c-2.18-0.69-4.95-0.63-7.6,0.53c-1.31,0.59-2.59,1.45-3.65,2.6c-1.07,1.15-1.84,2.62-2.71,4.12c-0.44,0.75-0.9,1.5-1.47,2.21
							c-0.28,0.36-0.61,0.67-0.94,1c-0.32,0.34-0.69,0.61-1.07,0.89c-1.51,1.11-3.3,1.85-5.16,2.43c-1.86,0.58-3.8,1.02-5.74,1.58
							c-1.93,0.56-3.88,1.26-5.59,2.42c-1.71,1.15-3.1,2.81-3.91,4.8c-0.84,1.97-1.25,4.14-1.45,6.34
							c-0.22,2.21-0.21,4.41-0.32,6.59c-0.11,2.18-0.35,4.34-0.91,6.4c-0.57,2.05-1.51,4.01-2.96,5.51
							c-1.42,1.53-3.23,2.5-4.91,3.44c-1.7,0.92-3.32,1.87-4.66,3.08c-1.36,1.19-2.48,2.57-3.33,4.04
							c-0.86,1.46-1.41,3.04-1.67,4.58c-0.25,1.55-0.18,3.09,0.11,4.5c0.6,2.82,2.15,5.13,4.02,6.45c1.87,1.34,3.9,1.78,5.51,1.82
							c1.63,0.03,2.86-0.35,3.64-0.69C288.87,294.28,289.23,294,289.25,294.03z"/>
					</g>
				</g>
			</g>
			<g>
				<g>
					<g>
						<g>
							<g>
								<g>
									<g>
										<g>
											<g>
												<g>
													<g>
														<g>
															<g>
																<g>
																	<g>
																		<g>
																			<g>
																				<path class="st7" d="M358.18,271.85c0.05,1.32-1.02,2.44-2.4,2.52c-1.37,0.08-2.52-0.92-2.57-2.24
																					c-0.05-1.32,1.02-2.44,2.39-2.52C356.98,269.53,358.13,270.54,358.18,271.85z"/>
																			</g>
																		</g>
																	</g>
																</g>
															</g>
														</g>
													</g>
												</g>
											</g>
										</g>
									</g>
								</g>
							</g>
						</g>
					</g>
				</g>
			</g>
			<g>
				<g>
					<g>
						<g>
							<g>
								<g>
									<g>
										<g>
											<g>
												<g>
													<g>
														<g>
															<g>
																<g>
																	<g>
																		<g>
																			<g>
																				<g>
																					<path class="st7" d="M360.29,264.25c-0.31,0.33-2.2-1.07-4.88-1.05c-2.68-0.03-4.64,1.36-4.93,1.03
																						c-0.14-0.14,0.17-0.73,1.03-1.36c0.84-0.62,2.28-1.23,3.95-1.23c1.67,0.01,3.08,0.62,3.88,1.24
																						C360.16,263.52,360.44,264.11,360.29,264.25z"/>
																				</g>
																			</g>
																		</g>
																	</g>
																</g>
															</g>
														</g>
													</g>
												</g>
											</g>
										</g>
									</g>
								</g>
							</g>
						</g>
					</g>
				</g>
			</g>
			<g>
				<g>
					<g>
						<g>
							<g>
								<g>
									<g>
										<g>
											<g>
												<g>
													<g>
														<g>
															<g>
																<g>
																	<g>
																		<g>
																			<g>
																				<path class="st7" d="M334.97,271.85c0.05,1.32-1.02,2.44-2.4,2.52c-1.37,0.08-2.52-0.92-2.57-2.24
																					c-0.05-1.32,1.02-2.44,2.39-2.52C333.77,269.53,334.92,270.54,334.97,271.85z"/>
																			</g>
																		</g>
																	</g>
																</g>
															</g>
														</g>
													</g>
												</g>
											</g>
										</g>
									</g>
								</g>
							</g>
						</g>
					</g>
				</g>
			</g>
			<g>
				<g>
					<g>
						<g>
							<g>
								<g>
									<g>
										<g>
											<g>
												<g>
													<g>
														<g>
															<g>
																<g>
																	<g>
																		<g>
																			<g>
																				<g>
																					<path class="st7" d="M334.9,264.25c-0.31,0.33-2.2-1.07-4.88-1.05c-2.68-0.03-4.64,1.36-4.93,1.03
																						c-0.14-0.14,0.17-0.73,1.03-1.36c0.84-0.62,2.28-1.23,3.95-1.23c1.67,0.01,3.08,0.62,3.89,1.24
																						C334.77,263.52,335.05,264.11,334.9,264.25z"/>
																				</g>
																			</g>
																		</g>
																	</g>
																</g>
															</g>
														</g>
													</g>
												</g>
											</g>
										</g>
									</g>
								</g>
							</g>
						</g>
					</g>
				</g>
			</g>
		</g>
		<g>
			<g>
				<g>
					<g>
						<path class="st10" d="M380.39,348.17c-11.57-14.08-21.58-16.08-21.58-16.08l0.07,50.25l36.9,46.67l15.01-38.41
							C410.79,390.59,388.23,357.71,380.39,348.17z"/>
					</g>
				</g>
			</g>
			<g>
				<path class="st10" d="M342.42,328.1l16.54,4.01c0,0,8.54,49.53,5.44,62.34c-2.64,10.9-11.09,61.2-11.09,61.2H251.33l34.17-98.16
					c0,0,0.2-21.58-5.08-31.55c3.2-0.77,14-2.76,23.33-4.51c0,0,6.2,7.74,20.8,9.95C339.15,333.61,342.42,328.1,342.42,328.1z"/>
			</g>
			<g>
				<path class="st6" d="M362.67,369.59H298.6c-5.6,32.77-19.23,45.33-43.28,64.3l-3.99,21.77h101.98l5.92-34.21l-0.35-12.6
					L362.67,369.59z"/>
			</g>
			<g>
				<g>
					<g>
						<path class="st10" d="M282.88,325.47c0,0-24.37,1.95-33.11,41.87c-3.95,18.06-8.95,39.22-10.39,53.44
							c-1.04,10.32,2.64,24.57,12.56,26.93l18.01,2.3c8.05,0.12,13.57-6.42,15.26-13.42l2.81-11.14
							c1.94-13.62-8.43-14.8-14.26-14.67l12.82-50.71l2.48-24.54L282.88,325.47z"/>
					</g>
				</g>
			</g>
			<g>
				<g>
					<g>
						<g>
							<path class="st7" d="M366.12,359.42c0.01,0,0.05,0.19,0.11,0.56c0.06,0.4,0.14,0.94,0.24,1.61c0.05,0.35,0.11,0.74,0.17,1.16
								c0.04,0.43,0.09,0.89,0.14,1.39c0.1,1,0.22,2.14,0.28,3.4c0.18,2.52,0.18,5.54,0.06,8.88c-0.14,3.34-0.52,7-1.08,10.82
								c-0.56,3.82-1.26,7.43-1.98,10.69c-0.7,3.27-1.42,6.19-2.03,8.64c-0.62,2.45-1.13,4.43-1.51,5.79
								c-0.18,0.65-0.33,1.17-0.44,1.57c-0.1,0.36-0.16,0.54-0.18,0.54c-0.01,0,0.02-0.2,0.1-0.56c0.09-0.4,0.21-0.93,0.36-1.58
								c0.34-1.41,0.81-3.39,1.39-5.82c0.57-2.46,1.26-5.38,1.94-8.65c0.69-3.26,1.39-6.87,1.94-10.67
								c0.56-3.81,0.95-7.45,1.11-10.78c0.14-3.33,0.17-6.33,0.02-8.85c-0.03-1.26-0.14-2.4-0.22-3.39
								c-0.04-0.5-0.08-0.96-0.11-1.39c-0.05-0.42-0.09-0.81-0.13-1.17c-0.07-0.67-0.13-1.21-0.17-1.62
								C366.12,359.62,366.1,359.43,366.12,359.42z"/>
						</g>
					</g>
				</g>
			</g>
			<g>
				<g>
					<g>
						<g>
							<path class="st7" d="M254.52,424.79c-0.02-0.01,0.03-0.37,0.19-1c0.16-0.64,0.46-1.55,0.94-2.63
								c0.95-2.15,2.84-4.95,5.78-7.09c2.94-2.14,6.19-3.07,8.53-3.32c1.17-0.13,2.13-0.13,2.79-0.09c0.66,0.04,1.02,0.1,1.01,0.13
								c0,0.08-1.46-0.09-3.77,0.24c-2.29,0.31-5.46,1.27-8.33,3.36c-2.87,2.09-4.75,4.81-5.76,6.9
								C254.88,423.37,254.6,424.81,254.52,424.79z"/>
						</g>
					</g>
				</g>
			</g>
			<g>
				<g>
					<g>
						<g>
							<path class="st7" d="M260.15,404.9c0-0.03,0.21-0.05,0.59-0.06c0.38-0.02,0.93,0.01,1.61,0.07c1.35,0.13,3.21,0.51,5.14,1.29
								c1.93,0.8,3.52,1.84,4.57,2.7c0.53,0.43,0.93,0.8,1.19,1.08c0.26,0.27,0.4,0.43,0.38,0.45c-0.05,0.05-0.66-0.52-1.74-1.31
								c-1.08-0.79-2.66-1.78-4.55-2.56c-1.89-0.77-3.7-1.19-5.03-1.38C260.99,404.99,260.15,404.97,260.15,404.9z"/>
						</g>
					</g>
				</g>
			</g>
			<g>
				<g>
					<g>
						<g>
							<path class="st7" d="M285.38,353.21c-0.03,0-0.05-0.38-0.06-1.07c-0.01-0.69-0.04-1.68-0.13-2.9
								c-0.16-2.44-0.62-5.81-1.62-9.4c-1.01-3.6-2.38-6.71-3.51-8.87c-0.56-1.09-1.05-1.95-1.4-2.54c-0.35-0.59-0.53-0.93-0.5-0.94
								c0.02-0.01,0.25,0.29,0.63,0.86c0.39,0.57,0.91,1.42,1.51,2.49c1.2,2.15,2.62,5.27,3.64,8.9c1.01,3.63,1.43,7.03,1.52,9.49
								c0.05,1.23,0.05,2.23,0,2.92C285.44,352.83,285.4,353.21,285.38,353.21z"/>
						</g>
					</g>
				</g>
			</g>
			<g class="st11">
				<g>
					<g>
						<g>
							<path d="M364.99,392.94c6.22-10.53,6.35-24.21,0.93-35.17c1.62,11.67,1.49,23.63-1.11,35.12"/>
						</g>
					</g>
				</g>
			</g>
			<g>
				<g>
					<g>
						<g>
							<path class="st7" d="M280.69,445.61c-0.04-0.03-0.42,0.51-1.33,1.26c-0.91,0.74-2.42,1.59-4.46,2.13
								c-2.03,0.56-4.56,0.79-7.34,0.64c-2.78-0.2-5.85-0.53-9.04-1c-3.18-0.49-6.24-1.07-8.83-2.03c-1.27-0.53-2.34-1.34-3.24-2.17
								c-0.9-0.84-1.65-1.72-2.27-2.58c-1.24-1.71-2.01-3.25-2.49-4.32c-0.23-0.54-0.41-0.97-0.52-1.26
								c-0.11-0.29-0.18-0.44-0.19-0.44c-0.01,0,0.03,0.16,0.12,0.46c0.08,0.3,0.24,0.73,0.46,1.29c0.44,1.1,1.18,2.67,2.41,4.42
								c0.61,0.88,1.36,1.78,2.27,2.65c0.92,0.86,2,1.7,3.32,2.26c2.66,1.01,5.71,1.59,8.91,2.09c3.21,0.48,6.27,0.79,9.08,0.97
								c2.82,0.12,5.38-0.14,7.43-0.74c2.06-0.58,3.58-1.49,4.48-2.28c0.44-0.41,0.77-0.73,0.95-0.99
								C280.61,445.75,280.7,445.62,280.69,445.61z"/>
						</g>
					</g>
				</g>
			</g>
			<g>
				<g>
					<g>
						<g>
							<path class="st7" d="M284.72,365.93c-0.1-0.03-2.67,9.95-5.74,22.28c-3.07,12.33-5.46,22.35-5.36,22.37
								c0.1,0.03,2.67-9.95,5.74-22.28C282.42,375.97,284.82,365.96,284.72,365.93z"/>
						</g>
					</g>
				</g>
			</g>
			<g>
				<g>
					<g>
						<g>
							<path class="st7" d="M287.82,422.23c0.03,0,0.07-0.29,0.12-0.82c0.05-0.53,0.12-1.3,0.05-2.27c-0.06-0.96-0.38-2.12-1.09-3.2
								c-0.35-0.53-0.74-1.08-1.25-1.57c-0.5-0.49-1.09-0.92-1.73-1.29c-2.6-1.41-5.21-2-7.09-2.29c-0.95-0.14-1.72-0.19-2.25-0.2
								c-0.53-0.01-0.83,0.01-0.83,0.03c0,0.07,1.17,0.11,3.04,0.44c1.84,0.35,4.43,0.99,6.94,2.35c0.61,0.36,1.18,0.76,1.66,1.22
								c0.48,0.46,0.87,0.99,1.22,1.49c0.7,1.02,1.03,2.1,1.12,3.03c0.1,0.93,0.07,1.7,0.07,2.23
								C287.79,421.93,287.79,422.23,287.82,422.23z"/>
						</g>
					</g>
				</g>
			</g>
			<g>
				<g>
					<g>
						<g>
							<g>
								<g>
									<g>
										<path class="st8" d="M337.1,420.83c-0.01,0.01-0.03,0.01-0.04,0.02C337.07,420.84,337.08,420.84,337.1,420.83z"/>
									</g>
								</g>
							</g>
						</g>
					</g>
					<g>
						<g>
							<g>
								<g>
									<g>
										<path class="st8" d="M336.83,420.96c-0.04,0.02-0.07,0.03-0.1,0.05C336.76,420.99,336.79,420.97,336.83,420.96z"/>
									</g>
								</g>
							</g>
						</g>
					</g>
					<g>
						<g>
							<g>
								<g>
									<g>
										<path class="st8" d="M337.05,420.85c-0.09,0.04-0.16,0.08-0.22,0.11C336.91,420.92,336.99,420.88,337.05,420.85z"/>
									</g>
								</g>
							</g>
						</g>
					</g>
					<g>
						<g>
							<g>
								<g>
									<g>
										<path class="st8" d="M337.19,420.78c-0.04,0.02-0.06,0.03-0.1,0.05C337.15,420.8,337.19,420.78,337.19,420.78z"/>
									</g>
								</g>
							</g>
						</g>
					</g>
					<g>
						<g>
							<g>
								<g>
									<g>
										<path class="st8" d="M360.08,441.81c-1.96-3.7-17.24-13.46-17.24-13.46l4.14-0.96l4.57,1.93c0,0,0.29,1.88,1.97,4.28
											c1.68,2.4,4.53-0.08,4.53-0.08l-1.93-9.25l-9.04-5.44c0,0-8.51,1.3-9.88,1.95l-3.63,3.32c-1.59,1.25-6.19,6.17-7.44,6.31
											c-1.26,0.15-40.72-8.73-40.72-8.73l0,0c-5.41,4.28-8.26,12.8-9.12,18.94c0,0-0.96,3.02,0.08,4.65l48.44,3.8l10.26,2.84
											c0,0,5.68,2.32,8.43,2.9c3.42,0.72,5.72-0.38,5.81-2.27c0.09-1.89-2.56-2.09-2.56-2.09s-4.31-1.56-6.6-2.9
											c-2.29-1.34-3.73-4.09-3.73-4.09l3.66,0.44c0,0,7.78,5.4,10.7,6.98c2.93,1.58,3.5-1.32,3.74-2.21
											c0.24-0.89-8.74-9.66-8.74-9.66s8.53,5.26,10.07,6.59c1.54,1.33,3.81,1.72,4.3,0.83
											C360.65,445.53,362.04,445.51,360.08,441.81z"/>
									</g>
								</g>
							</g>
						</g>
					</g>
					<g>
						<g>
							<g>
								<g>
									<g>
										<path class="st8" d="M336.73,421c-0.04,0.02-0.06,0.03-0.09,0.04C336.67,421.03,336.7,421.02,336.73,421z"/>
									</g>
								</g>
							</g>
						</g>
					</g>
					<g>
						<g>
							<g>
								<g>
									<g>
										<path class="st8" d="M336.6,421.07C336.58,421.07,336.58,421.07,336.6,421.07L336.6,421.07z"/>
									</g>
								</g>
							</g>
						</g>
					</g>
					<g>
						<g>
							<g>
								<g>
									<g>
										<path class="st8" d="M336.65,421.04c-0.02,0.01-0.04,0.02-0.05,0.02C336.61,421.06,336.62,421.05,336.65,421.04z"/>
									</g>
								</g>
							</g>
						</g>
					</g>
				</g>
				<g>
					<g>
						<g>
							<g>
								<g>
									<g>
										<path class="st9" d="M317.98,442.66c-0.02,0-0.04-0.21-0.05-0.6c-0.01-0.2,0.01-0.43,0.05-0.7
											c0.03-0.28,0.07-0.59,0.17-0.92c0.31-1.36,1.18-3.12,2.48-4.78c1.3-1.67,2.7-2.98,3.73-3.88c1.04-0.9,1.73-1.4,1.76-1.36
											c0.03,0.04-0.6,0.61-1.59,1.55c-0.99,0.94-2.34,2.27-3.62,3.91c-1.28,1.64-2.16,3.32-2.52,4.63
											C318.02,441.8,318.06,442.66,317.98,442.66z"/>
									</g>
								</g>
							</g>
						</g>
					</g>
				</g>
				<g>
					<g>
						<g>
							<g>
								<g>
									<g>
										<path class="st9" d="M342.49,428.06c0.01,0.09-1.2,0.24-2.61-0.23c-1.41-0.47-2.29-1.33-2.22-1.39
											c0.07-0.09,1,0.61,2.34,1.05C341.32,427.94,342.49,427.95,342.49,428.06z"/>
									</g>
								</g>
							</g>
						</g>
					</g>
				</g>
				<g>
					<g>
						<g>
							<g>
								<g>
									<g>
										<path class="st9" d="M345.03,438.19c-0.04,0.09-1.78-0.54-3.89-1.41c-2.11-0.87-3.79-1.65-3.76-1.74
											c0.04-0.09,1.78,0.54,3.89,1.41C343.38,437.32,345.06,438.1,345.03,438.19z"/>
									</g>
								</g>
							</g>
						</g>
					</g>
				</g>
				<g>
					<g>
						<g>
							<g>
								<g>
									<g>
										<path class="st9" d="M336.83,443.37c-0.05,0.09-0.92-0.29-2-0.71c-1.08-0.42-1.97-0.74-1.95-0.83
											c0.02-0.09,0.97,0.07,2.08,0.5C336.07,442.76,336.87,443.28,336.83,443.37z"/>
									</g>
								</g>
							</g>
						</g>
					</g>
				</g>
				<g>
					<g>
						<g>
							<g>
								<g>
									<g>
										<path class="st9" d="M343.77,438.87c0.04,0.1-0.85,0.43-1.51,1.32c-0.68,0.88-0.76,1.82-0.87,1.81
											c-0.04,0-0.09-0.24-0.03-0.63c0.06-0.39,0.25-0.91,0.61-1.39c0.37-0.48,0.82-0.8,1.18-0.96
											C343.51,438.85,343.76,438.83,343.77,438.87z"/>
									</g>
								</g>
							</g>
						</g>
					</g>
				</g>
				<g>
					<g>
						<g>
							<g>
								<g>
									<g>
										<path class="st9" d="M347.36,433.21c0.05,0.09-0.62,0.46-1.06,1.23c-0.46,0.77-0.45,1.53-0.55,1.53
											c-0.09,0.03-0.28-0.83,0.24-1.71C346.5,433.38,347.34,433.12,347.36,433.21z"/>
									</g>
								</g>
							</g>
						</g>
					</g>
				</g>
				<g>
					<g>
						<g>
							<g>
								<g>
									<g>
										<path class="st9" d="M346.14,423.11c-0.04,0.02-0.18-0.15-0.29-0.48c-0.11-0.33-0.15-0.83-0.03-1.35
											c0.13-0.52,0.4-0.94,0.64-1.19c0.25-0.25,0.45-0.33,0.47-0.3c0.07,0.08-0.55,0.63-0.77,1.57
											C345.93,422.3,346.24,423.07,346.14,423.11z"/>
									</g>
								</g>
							</g>
						</g>
					</g>
				</g>
				<g>
					<g>
						<g>
							<g>
								<g>
									<g>
										<path class="st7" d="M275.95,446.66c0.03,0,0.05-0.4,0.06-1.11c0-0.36,0.01-0.79,0.05-1.3c0.03-0.51,0.05-1.08,0.12-1.72
											c0.22-2.54,0.79-6.05,2.11-9.71c0.67-1.82,1.47-3.5,2.3-4.97c0.44-0.71,0.83-1.42,1.28-2.02c0.21-0.31,0.42-0.6,0.62-0.89
											c0.22-0.27,0.42-0.53,0.62-0.78c1.61-1.98,2.84-2.99,2.78-3.05c-0.02-0.02-0.33,0.23-0.87,0.7
											c-0.28,0.23-0.6,0.53-0.95,0.9c-0.35,0.37-0.77,0.77-1.17,1.28c-0.21,0.25-0.42,0.51-0.65,0.78
											c-0.22,0.28-0.42,0.58-0.65,0.88c-0.46,0.6-0.87,1.3-1.33,2.02c-0.85,1.48-1.67,3.17-2.35,5.01
											c-1.34,3.7-1.87,7.26-2.02,9.82c-0.06,0.64-0.05,1.22-0.06,1.73c-0.02,0.51,0,0.95,0.02,1.31
											C275.89,446.27,275.92,446.66,275.95,446.66z"/>
									</g>
								</g>
							</g>
						</g>
					</g>
				</g>
			</g>
			<g class="st11">
				<path d="M309.51,376.34v1.32l-7.37,0.48l-3.73-29.68c0,0-1.59-9.99-2.61-13.63c-1.03-3.64-5.41-10.88-5.41-10.88l3.24-0.61
					l6.32,10.28L309.51,376.34z"/>
			</g>
			<g>
				<g>
					<path class="st6" d="M310.48,376.3c0,0-3.27-27.56-6.35-38.57c-3.08-11.01-7.9-14.93-7.9-14.93l-4.75,0.89
						c0,0,4.72,5.75,6.55,15.89c1.83,10.14,5.25,37.06,5.25,37.06L310.48,376.3z"/>
				</g>
				<g>
					<g>
						<path class="st7" d="M310.48,376.3c0.01,0.01-0.14,0.02-0.44,0.04c-0.34,0.02-0.79,0.05-1.36,0.09
							c-1.26,0.07-3.06,0.18-5.39,0.32l-0.11,0.01l-0.02-0.11c-0.69-5.01-1.74-12.57-3.02-21.81c-0.67-4.63-1.39-9.69-2.32-15.01
							c-0.46-2.65-1.21-5.33-2.23-7.98c-1.03-2.63-2.33-5.25-4.04-7.63l-0.28-0.36l-0.26-0.34l0.41-0.08
							c1.63-0.31,3.23-0.61,4.75-0.89l0.13-0.02l0.08,0.08c1.5,1.39,2.63,2.99,3.63,4.65c0.99,1.65,1.81,3.37,2.52,5.08
							c1.4,3.44,2.3,6.91,2.98,10.22c1.36,6.62,2.24,12.6,2.97,17.6c0.71,5.01,1.22,9.04,1.55,11.83c0.15,1.37,0.27,2.44,0.36,3.21
							c0.03,0.34,0.06,0.62,0.08,0.84C310.48,376.21,310.48,376.3,310.48,376.3c-0.01-0.01-0.03-0.11-0.06-0.28
							c-0.03-0.21-0.07-0.49-0.13-0.83c-0.11-0.76-0.26-1.83-0.45-3.19c-0.39-2.78-0.95-6.81-1.7-11.8
							c-0.77-4.99-1.69-10.96-3.07-17.56c-0.69-3.3-1.59-6.72-2.98-10.13c-0.7-1.69-1.52-3.38-2.5-5.01
							c-0.98-1.61-2.12-3.22-3.52-4.51l0.21,0.05c-1.51,0.29-3.12,0.59-4.75,0.89l0.15-0.42l0.29,0.38c1.75,2.43,3.06,5.08,4.1,7.75
							c1.03,2.68,1.78,5.39,2.24,8.08c0.92,5.35,1.62,10.41,2.27,15.04c1.27,9.27,2.22,16.86,2.82,21.84l-0.12-0.11
							c2.3-0.08,4.08-0.13,5.32-0.17c0.59-0.02,1.05-0.03,1.39-0.04C310.3,376.29,310.47,376.29,310.48,376.3z"/>
					</g>
				</g>
			</g>
			<g>
				<g>
					<path class="st6" d="M358.81,332.08c0,0,1.1,30.13-2.68,45.58l-7.2-0.23c0,0,5.35-37.47,4.64-46.81
						C353.58,330.62,356.61,330.61,358.81,332.08z"/>
				</g>
				<g>
					<g>
						<path class="st7" d="M358.81,332.08c-0.03,0.02-0.41-0.25-1.26-0.6c-0.85-0.33-2.2-0.72-3.97-0.75l0.11-0.12
							c0.27,4.21-0.24,10.79-1.05,18.88c-0.83,8.09-2.01,17.7-3.45,27.98l-0.25-0.3c0.06,0,0.12,0,0.19,0.01
							c2.4,0.08,4.77,0.15,7.01,0.23l-0.26,0.2c1.43-6.28,1.98-12.37,2.34-17.85c0.35-5.49,0.48-10.39,0.55-14.49
							c0.06-4.1,0.05-7.39,0.03-9.66c-0.01-1.1-0.01-1.97-0.01-2.61C358.79,332.39,358.8,332.1,358.81,332.08
							c0.01-0.01,0.05,0.31,0.08,0.9c0.03,0.63,0.06,1.5,0.11,2.61c0.07,2.27,0.14,5.56,0.12,9.67c-0.02,4.1-0.11,9.02-0.43,14.52
							c-0.34,5.49-0.87,11.6-2.3,17.94l-0.05,0.2l-0.21-0.01c-2.25-0.07-4.61-0.15-7.01-0.22c-0.06,0-0.13,0-0.19-0.01l-0.29-0.01
							l0.04-0.29c1.44-10.28,2.65-19.88,3.53-27.95c0.86-8.07,1.43-14.64,1.26-18.81l-0.01-0.13l0.12,0
							c1.82,0.07,3.16,0.5,4.02,0.87c0.43,0.19,0.73,0.37,0.93,0.5C358.73,332.01,358.82,332.08,358.81,332.08z"/>
					</g>
				</g>
			</g>
			<g>
				<path class="st1" d="M351.3,373.29c0,1.19,0.96,2.15,2.15,2.15s2.15-0.96,2.15-2.15s-0.96-2.15-2.15-2.15
					S351.3,372.1,351.3,373.29z"/>
				<path class="st7" d="M353.45,375.47c-1.2,0-2.18-0.98-2.18-2.18c0-1.2,0.98-2.18,2.18-2.18c1.2,0,2.18,0.98,2.18,2.18
					C355.63,374.49,354.65,375.47,353.45,375.47z M353.45,371.16c-1.17,0-2.13,0.96-2.13,2.13c0,1.17,0.96,2.13,2.13,2.13
					c1.17,0,2.13-0.96,2.13-2.13C355.58,372.11,354.62,371.16,353.45,371.16z"/>
			</g>
			<g>
				<circle class="st1" cx="306.38" cy="372.57" r="2.15"/>
				<path class="st7" d="M306.38,374.75c-1.2,0-2.18-0.98-2.18-2.18c0-1.2,0.98-2.18,2.18-2.18c1.2,0,2.18,0.98,2.18,2.18
					C308.56,373.77,307.58,374.75,306.38,374.75z M306.38,370.44c-1.17,0-2.13,0.96-2.13,2.13s0.95,2.13,2.13,2.13
					c1.17,0,2.13-0.95,2.13-2.13S307.56,370.44,306.38,370.44z"/>
			</g>
			<g>
				<g>
					<path class="st7" d="M349.39,395.35c0.01,0,0.01,0.11,0.02,0.33c0,0.25,0,0.56,0,0.97c-0.01,0.85-0.04,2.1-0.16,3.72
						c-0.13,1.61-0.35,3.59-1.01,5.81c-0.63,2.23-1.94,4.58-3.79,6.81c-3.62,4.59-10.15,8.11-17.77,9.08
						c-1.91,0.22-3.89,0.26-5.9,0.08c-2-0.18-4.07-0.63-5.96-1.58c-3.81-1.83-7.01-5.09-9.08-9.02c-2.08-3.96-2.95-8.32-3.09-12.49
						c-0.03-1.05-0.05-2.07,0.03-3.12c0.05-0.52,0.15-1.06,0.4-1.55c0.24-0.49,0.66-0.94,1.17-1.15c1.05-0.43,2.08-0.23,3.04-0.22
						c0.98,0.04,1.94,0.08,2.89,0.12c7.62,0.31,14.48,0.59,20.26,0.83c5.74,0.25,10.4,0.46,13.66,0.61
						c1.59,0.08,2.83,0.15,3.71,0.19c0.4,0.03,0.72,0.05,0.96,0.06c0.22,0.02,0.33,0.03,0.33,0.04c0,0.01-0.11,0.01-0.33,0.01
						c-0.25,0-0.56-0.01-0.97-0.01c-0.88-0.02-2.13-0.05-3.72-0.09c-3.26-0.11-7.92-0.26-13.66-0.44
						c-5.78-0.21-12.64-0.45-20.26-0.72c-0.95-0.04-1.92-0.07-2.89-0.11c-0.97-0.01-1.99-0.17-2.82,0.19
						c-0.84,0.35-1.19,1.33-1.27,2.3c-0.08,0.98-0.06,2.03-0.03,3.05c0.15,4.11,1.01,8.4,3.04,12.26c2.02,3.85,5.14,7.03,8.84,8.81
						c1.83,0.92,3.82,1.36,5.79,1.54c1.97,0.18,3.92,0.15,5.8-0.06c7.51-0.93,13.95-4.35,17.54-8.84c1.85-2.19,3.15-4.48,3.8-6.66
						c0.68-2.17,0.92-4.14,1.09-5.74c0.16-1.6,0.21-2.86,0.26-3.7c0.02-0.4,0.04-0.72,0.06-0.97
						C349.37,395.46,349.38,395.35,349.39,395.35z"/>
				</g>
			</g>
			<g class="st11">
				<g>
					<path d="M293.49,423.42c0.55-3.7-0.56-7.38-2.91-10.29s-5.97-4.77-9.7-5c-0.42-12.61,0.5-25.27,2.75-37.69l-10,40
						c0,0,13.93,0.19,14.19,11.79L293.49,423.42z"/>
				</g>
			</g>
		</g>
		<g class="st11">
			<g>
				<path d="M304.12,271.12c1.05-8.19,3.93-16.14,8.37-23.1c0.49-0.77,1.01-1.74,0.55-2.52c-0.39-0.67-1.36-0.8-2.07-0.49
					c-0.71,0.32-1.21,0.96-1.66,1.6c-4.89,6.93-6.79,15.92-5.1,24.24"/>
			</g>
		</g>
		<g>
			<g>
				<g>
					<g>
						<g>
							<g>
								<g>
									<path class="st1" d="M476.94,386.37l-14.15,69.45h-98.08H340c-1.35,0-2.45-1.1-2.45-2.45l0,0c0-1.35,1.1-2.45,2.45-2.45
										h24.72l13.12-64.59c0.25-1.24,1.33-2.13,2.6-2.15l93.85-1.02C475.99,383.13,477.28,384.69,476.94,386.37z"/>
								</g>
							</g>
						</g>
					</g>
				</g>
				<g>
					<g>
						<g>
							<g>
								<g>
									<g>
										<path class="st7" d="M476.94,386.37c0,0,0.02-0.07,0.04-0.21c0.02-0.14,0.04-0.35,0.01-0.63
											c-0.05-0.54-0.34-1.44-1.3-2.03c-0.24-0.15-0.51-0.25-0.81-0.32c-0.3-0.07-0.63-0.06-0.97-0.06
											c-0.67,0.01-1.41,0.01-2.21,0.02c-1.6,0.01-3.44,0.03-5.53,0.05c-8.33,0.08-20.42,0.19-35.49,0.34
											c-7.54,0.08-15.81,0.16-24.74,0.25c-4.46,0.05-9.09,0.09-13.86,0.14c-2.39,0.02-4.81,0.05-7.27,0.08
											c-1.23,0.01-2.47,0.03-3.72,0.04c-0.32,0.01-0.61-0.01-0.95,0.02c-0.33,0.03-0.65,0.13-0.95,0.27
											c-0.6,0.29-1.08,0.8-1.35,1.41c-0.14,0.31-0.19,0.64-0.26,0.94l-0.19,0.93c-0.13,0.62-0.25,1.25-0.38,1.88
											c-0.26,1.26-0.51,2.52-0.77,3.79c-0.52,2.54-1.04,5.12-1.57,7.73c-1.06,5.21-2.15,10.55-3.25,15.99
											c-2.21,10.89-4.52,22.22-6.89,33.89l0.16-0.13c-4.64,0-9.4,0-14.24,0c-2.42,0-4.86,0-7.31,0l-1.84,0h-0.92
											c-0.3,0-0.63-0.01-0.96,0.06c-0.65,0.13-1.23,0.53-1.61,1.07c-0.38,0.54-0.54,1.23-0.43,1.89
											c0.11,0.8,0.63,1.52,1.34,1.91c0.36,0.19,0.75,0.3,1.15,0.31l1.13,0c1.5,0,3,0,4.49,0c2.99,0,5.96,0,8.91,0
											c5.9,0,11.72,0,17.46,0c11.47,0,22.59-0.01,33.24-0.01c21.32-0.01,40.8-0.02,57.66-0.03l0.11,0l0.02-0.1
											c4.32-21.35,7.84-38.71,10.28-50.75c1.21-6.01,2.15-10.69,2.79-13.88c0.31-1.59,0.56-2.8,0.72-3.62
											C476.87,386.79,476.94,386.37,476.94,386.37s-0.1,0.42-0.27,1.23c-0.17,0.82-0.42,2.03-0.75,3.61
											c-0.66,3.18-1.62,7.85-2.86,13.86c-2.46,12.03-6.02,29.39-10.39,50.73l0.13-0.1c-16.85-0.01-36.34-0.02-57.66-0.03
											c-10.66,0-21.77-0.01-33.24-0.01c-5.74,0-11.56,0-17.46,0c-2.95,0-5.92,0-8.91,0c-1.49,0-2.99,0-4.49,0l-1.12,0
											c-0.35-0.01-0.7-0.11-1.01-0.27c-0.62-0.34-1.07-0.96-1.17-1.66c-0.09-0.57,0.05-1.17,0.38-1.64
											c0.33-0.47,0.84-0.82,1.4-0.93c0.28-0.06,0.57-0.05,0.89-0.05l0.92,0h1.84c2.45,0,4.89,0,7.31,0c4.84,0,9.59,0,14.24,0
											h0.14l0.03-0.13c2.37-11.67,4.67-23,6.87-33.89c1.1-5.44,2.19-10.78,3.24-15.99c0.53-2.61,1.05-5.18,1.57-7.73
											c0.26-1.27,0.51-2.54,0.77-3.79c0.13-0.63,0.25-1.25,0.38-1.88l0.19-0.93c0.06-0.32,0.11-0.61,0.24-0.89
											c0.24-0.55,0.67-1.01,1.21-1.27c0.27-0.13,0.55-0.22,0.85-0.25c0.29-0.03,0.62-0.01,0.92-0.02
											c1.25-0.01,2.49-0.03,3.72-0.04c2.46-0.03,4.88-0.06,7.27-0.08c4.77-0.06,9.4-0.11,13.86-0.16
											c8.92-0.1,17.2-0.2,24.74-0.29c15.07-0.19,27.16-0.34,35.49-0.44c2.08-0.03,3.93-0.05,5.52-0.07
											c0.8-0.01,1.54-0.02,2.21-0.03c0.34-0.01,0.66-0.01,0.95,0.05c0.29,0.07,0.56,0.17,0.79,0.31
											c0.94,0.57,1.24,1.45,1.3,1.98C477.02,386.08,476.92,386.37,476.94,386.37z"/>
									</g>
								</g>
							</g>
						</g>
					</g>
				</g>
			</g>
			<g>
				<g>
					<g>
						<g>
							<g>
								<path class="st3" d="M420.36,418.15c0,2.24,1.82,4.06,4.06,4.06c2.24,0,4.06-1.82,4.06-4.06c0-2.24-1.82-4.06-4.06-4.06
									C422.17,414.1,420.36,415.91,420.36,418.15z"/>
							</g>
						</g>
					</g>
				</g>
			</g>
			<g>
				<g>
					<g>
						<g>
							<g>
								<g>
									<path class="st7" d="M476.83,386.93c0,0-0.14-0.01-0.42-0.01c-0.29,0-0.7,0-1.24-0.01c-1.1,0-2.71,0-4.77,0.01
										c-4.16,0.02-10.15,0.05-17.56,0.08c-14.84,0.1-35.31,0.25-57.93,0.41c-2.83,0.02-5.62,0.05-8.38,0.07
										c-0.69,0.01-1.37,0.01-2.06,0.02c-0.33,0.01-0.69-0.01-1.05,0.06c-0.35,0.07-0.69,0.21-1,0.4c-0.61,0.39-1.06,1-1.25,1.69
										c-0.15,0.68-0.27,1.32-0.4,1.98c-1.04,5.23-2.04,10.28-2.99,15.09c-1.9,9.61-3.61,18.27-5.05,25.55
										c-1.42,7.27-2.58,13.15-3.38,17.23c-0.39,2.03-0.69,3.6-0.9,4.69c-0.1,0.53-0.17,0.93-0.23,1.22
										c-0.05,0.28-0.07,0.42-0.07,0.42s0.04-0.14,0.1-0.41c0.06-0.29,0.15-0.69,0.26-1.21c0.22-1.08,0.55-2.65,0.96-4.68
										c0.82-4.07,2.01-9.95,3.48-17.21c1.46-7.27,3.19-15.93,5.12-25.53c0.96-4.81,1.97-9.85,3.01-15.08
										c0.13-0.65,0.26-1.32,0.4-1.96c0.16-0.61,0.57-1.16,1.1-1.5c0.27-0.17,0.57-0.29,0.88-0.36c0.31-0.07,0.64-0.05,0.99-0.06
										c0.68-0.01,1.37-0.01,2.06-0.02c2.75-0.02,5.55-0.04,8.38-0.07c22.61-0.2,43.09-0.38,57.93-0.51
										c7.4-0.08,13.4-0.15,17.56-0.19c2.06-0.03,3.67-0.05,4.77-0.07c0.54-0.01,0.95-0.02,1.24-0.03
										C476.69,386.94,476.83,386.93,476.83,386.93z"/>
								</g>
							</g>
						</g>
					</g>
				</g>
			</g>
		</g>
	</g>
</g>
<g id="Character_1">
	<g>
		<g>
			<g>
				<g>
					<g>
						<g>
							<g>
								<g>
									<path class="st7" d="M277.54,202.76c3.42,2.03,8.31,1.05,10.67-2.15c2.37-3.2,1.88-8.16-1.06-10.84
										c3.28-1.29,5.53-4.8,5.34-8.32c-0.19-3.51-2.82-6.76-6.21-7.69c1.29-3.23,0.77-7.11-1.34-9.88
										c-2.1-2.77-5.71-4.31-9.16-3.93c-2.15-4.58-7.74-7.23-12.65-6c-2.82-1.95-6.92-1.82-9.61,0.3
										c-2.69,2.13-3.77,6.08-2.52,9.28"/>
								</g>
							</g>
						</g>
						<g>
							<g>
								<g>
									<g>
										<g>
											<g>
												<path class="st12" d="M278.14,204.28c6.04-16.9-1.91-35.61-18.27-42.99l-1.63-0.73c-17.99-6.88-33.89,4.55-40.28,22.73
													l-27.98,62.63l0,0l14.44,46.43l21.58-23.05l10.48-12.13c0,0,18.04,4.98,25.85-11.77
													C266.11,237.3,272.52,220,278.14,204.28z"/>
											</g>
										</g>
									</g>
								</g>
								<g>
									<g>
										<g>
											<g>
												<g>
													<g>
														<path class="st13" d="M236.65,257.2c0,0-11.05-4.21-19.16-16.42c0,0-1.77,13.92,15.73,19.98L236.65,257.2z"/>
													</g>
												</g>
											</g>
										</g>
									</g>
								</g>
								<g>
									<g>
										<g>
											<g>
												<g>
													<g>
														<g>
															<g>
																<g>
																	<path class="st7" d="M266.81,217.61c-0.53,1.29-2.06,1.91-3.42,1.38c-1.36-0.53-2.03-2-1.5-3.29
																		c0.53-1.29,2.06-1.91,3.41-1.38C266.66,214.85,267.34,216.32,266.81,217.61z"/>
																</g>
															</g>
														</g>
													</g>
												</g>
											</g>
										</g>
									</g>
								</g>
								<g>
									<g>
										<g>
											<g>
												<g>
													<g>
														<g>
															<g>
																<g>
																	<g>
																		<path class="st7" d="M270.8,210.89c-0.44,0.18-1.65-1.99-4.25-3.15c-2.57-1.2-5.07-0.72-5.21-1.17
																			c-0.07-0.2,0.48-0.63,1.58-0.86c1.09-0.23,2.74-0.19,4.35,0.55c1.61,0.74,2.7,1.94,3.2,2.9
																			C271,210.13,271.01,210.82,270.8,210.89z"/>
																	</g>
																</g>
															</g>
														</g>
													</g>
												</g>
											</g>
										</g>
									</g>
								</g>
								<g>
									<g>
										<g>
											<g>
												<g>
													<g>
														<g>
															<g>
																<g>
																	<path class="st7" d="M243.01,207.45c-0.53,1.29-2.06,1.91-3.42,1.38c-1.36-0.53-2.03-2-1.5-3.29
																		c0.53-1.29,2.06-1.91,3.41-1.38C242.87,204.69,243.54,206.16,243.01,207.45z"/>
																</g>
															</g>
														</g>
													</g>
												</g>
											</g>
										</g>
									</g>
								</g>
								<g>
									<g>
										<g>
											<g>
												<g>
													<g>
														<g>
															<g>
																<g>
																	<g>
																		<path class="st7" d="M245.13,199.89c-0.44,0.18-1.66-1.99-4.25-3.15c-2.57-1.2-5.07-0.72-5.21-1.17
																			c-0.07-0.2,0.48-0.63,1.58-0.86c1.08-0.23,2.74-0.19,4.35,0.54c1.61,0.74,2.7,1.94,3.2,2.9
																			C245.33,199.13,245.34,199.82,245.13,199.89z"/>
																	</g>
																</g>
															</g>
														</g>
													</g>
												</g>
											</g>
										</g>
									</g>
								</g>
								<g>
									<g>
										<g>
											<g>
												<g>
													<g>
														<g>
															<g>
																<g>
																	<path class="st7" d="M245.87,223.33c0.05-0.15,1.79,0.29,4.55,1.14c0.69,0.23,1.38,0.38,1.69-0.02
																		c0.37-0.41,0.42-1.24,0.44-2.16c0.1-1.88,0.21-3.85,0.32-5.92c0.52-8.39,1.21-15.17,1.55-15.15
																		c0.34,0.02,0.19,6.85-0.33,15.24c-0.14,2.06-0.28,4.03-0.41,5.91c-0.09,0.86-0.04,1.91-0.83,2.75
																		c-0.4,0.41-1.05,0.55-1.52,0.48c-0.48-0.06-0.86-0.22-1.19-0.35C247.44,224.21,245.81,223.49,245.87,223.33z"/>
																</g>
															</g>
														</g>
													</g>
												</g>
											</g>
										</g>
									</g>
								</g>
								<g>
									<g>
										<g>
											<g>
												<g>
													<path class="st7" d="M249.89,191.43c-0.64,0.5-2.54-1.21-5.23-2.53c-2.66-1.38-5.2-1.91-5.14-2.7
														c0.04-0.37,0.79-0.74,2.01-0.83c1.21-0.09,2.88,0.18,4.49,0.99c1.6,0.81,2.78,1.99,3.41,3
														C250.07,190.38,250.19,191.19,249.89,191.43z"/>
												</g>
											</g>
										</g>
									</g>
								</g>
								<g>
									<g>
										<g>
											<g>
												<g>
													<path class="st7" d="M275.25,201.87c-0.81,0.34-2.67-1.23-5.23-2.42c-2.52-1.26-4.92-1.75-5.15-2.59
														c-0.08-0.4,0.52-0.83,1.73-0.96c1.19-0.13,2.96,0.12,4.7,0.96c1.74,0.84,3.03,2.07,3.66,3.07
														C275.6,200.95,275.62,201.69,275.25,201.87z"/>
												</g>
											</g>
										</g>
									</g>
								</g>
								<g>
									<g>
										<g>
											<g>
												<path class="st12" d="M213.28,200.9c1.07-2.65-0.25-5.71-2.95-6.64c-3.28-1.12-7.58-0.91-10.3,5.68
													c-4.83,11.69,7.9,14.12,8.06,13.8C208.19,213.52,211.3,205.81,213.28,200.9z"/>
											</g>
										</g>
									</g>
								</g>
								<g>
									<g>
										<g>
											<g>
												<path class="st13" d="M207.36,208.29c-0.04-0.06-0.26,0.06-0.67,0.07c-0.4,0.02-1.02-0.12-1.53-0.6
													c-1.05-0.96-1.28-3.35-0.46-5.48c0.41-1.08,1.05-2,1.77-2.68c0.71-0.71,1.51-1.08,2.18-0.93
													c0.68,0.11,0.96,0.67,0.97,1.05c0.02,0.39-0.15,0.59-0.1,0.64c0.02,0.04,0.33-0.09,0.44-0.61
													c0.05-0.25,0.02-0.58-0.16-0.92c-0.19-0.34-0.55-0.63-1-0.76c-0.93-0.31-2.08,0.18-2.87,0.93
													c-0.85,0.73-1.59,1.76-2.05,2.97c-0.9,2.39-0.6,5.09,0.88,6.27c0.73,0.55,1.52,0.59,1.99,0.46
													C207.22,208.57,207.39,208.33,207.36,208.29z"/>
											</g>
										</g>
									</g>
								</g>
							</g>
							<g>
								<path class="st7" d="M279.38,176c0.03-0.33,0.01-0.67-0.03-1c-0.36-2.49-2.05-4.67-4.26-5.85
									c-1.06-1.33-2.17-2.51-3.27-3.52c-0.38-3.46-2.38-6.75-5.39-8.51c-3.42-2-7.92-1.91-11.31,0.11
									c-0.5-0.15-1.01-0.28-1.52-0.41c-1.59-2.79-4.41-4.87-7.56-5.5c-3.54-0.72-7.39,0.4-10,2.89c-2.47-2-6.15-2.36-8.96-0.87
									c-2.81,1.49-4.58,4.74-4.31,7.91c-2.6,0.25-5.31,1.51-6.42,3.87c-1.05,2.23,0.01,5.36,2.29,6.06
									c-2.9,5.34-5.24,12.11-7.53,17.97c-1.62,4.13,2.44,8.84,1.55,11.74c-4.51,14.79,3.54,9.12,18.35-19.02
									c0.39-0.09,0.79-0.2,1.21-0.33c0.85-0.27,1.31-0.9,2.11-1.28c0.96-0.46,2.02,0.3,2.94,0.84c3.19,1.87,7.69,1.04,10.01-1.83
									c0.28,1.66,2.3,2.51,3.96,2.26c1.67-0.25,3.12-1.24,4.65-1.94c1.53-0.7,3.42-1.1,4.85-0.19c0.8,0.51,1.37,1.37,2.26,1.68
									c1.57,0.55,3.11-0.89,4.02-2.29c0.76-1.18,1.58-2.54,2.8-3.08c1.12-0.01,2.22,0.1,3.3,0.49c0.54,0.32,1.07,0.7,1.59,1.04
									c0.24,0.16,0.51,0.29,0.79,0.41c0.29,0.26,0.57,0.56,0.86,0.89c3.98,4.76,3.66,17.32,3.66,17.32
									C283.38,189.3,282.26,182.09,279.38,176z"/>
							</g>
						</g>
					</g>
				</g>
			</g>
			<g>
				<g>
					<path class="st3" d="M246.28,157.5c-0.01-0.01,0.08-0.1,0.27-0.25c0.18-0.15,0.48-0.36,0.87-0.59
						c0.79-0.46,2.05-1.01,3.73-1.18c1.66-0.17,3.77,0.07,5.73,1.27c1.94,1.16,3.7,3.21,4.39,5.84l-0.34-0.18
						c1.13-0.42,2.37-0.72,3.65-0.83c3.11-0.31,6.18,0.66,8.21,2.48c2.07,1.77,3.1,4.24,3.07,6.29c0,2.06-0.74,3.64-1.42,4.54
						c-0.34,0.46-0.66,0.77-0.88,0.96c-0.23,0.19-0.36,0.28-0.37,0.26c-0.04-0.04,0.47-0.42,1.09-1.34c0.61-0.9,1.27-2.44,1.22-4.41
						c-0.02-1.95-1.03-4.26-3.01-5.93c-1.95-1.71-4.87-2.61-7.85-2.32c-1.24,0.11-2.43,0.4-3.52,0.79l-0.27,0.1l-0.07-0.27
						c-0.64-2.48-2.29-4.45-4.13-5.58c-1.85-1.16-3.86-1.44-5.47-1.32c-1.62,0.12-2.87,0.61-3.67,1.01
						C246.71,157.23,246.31,157.53,246.28,157.5z"/>
				</g>
			</g>
			<g>
				<g>
					<path class="st3" d="M220.99,161.16c0-0.01,0.06-0.05,0.18-0.12c0.13-0.07,0.31-0.18,0.57-0.29c0.52-0.21,1.32-0.46,2.39-0.5
						c1.06-0.02,2.39,0.14,3.74,0.81c1.35,0.63,2.75,1.8,3.56,3.53l-0.35-0.04c1.54-2.02,4.29-3.45,7.36-3.62
						c1.53-0.09,3.14,0.09,4.7,0.6c1.56,0.52,3.04,1.34,4.4,2.37c2.65,2.03,4.58,4.63,6.08,7.11l-0.38-0.05
						c2.23-2.14,5.12-3.09,7.65-3.1c2.56-0.03,4.73,0.9,6.23,1.95c1.52,1.06,2.44,2.26,2.97,3.1c0.27,0.43,0.44,0.77,0.55,1.01
						c0.11,0.24,0.15,0.36,0.14,0.37c-0.04,0.02-0.26-0.47-0.83-1.29c-0.57-0.8-1.5-1.93-3.01-2.94c-1.49-0.99-3.59-1.84-6.05-1.79
						c-2.43,0.04-5.2,0.98-7.32,3.04l-0.22,0.22l-0.16-0.26c-1.5-2.44-3.4-4.98-5.97-6.95c-1.32-1-2.76-1.8-4.25-2.3
						c-1.49-0.5-3.04-0.68-4.51-0.6c-2.95,0.15-5.58,1.48-7.07,3.38l-0.21,0.27l-0.14-0.32c-0.73-1.63-2.04-2.76-3.32-3.4
						c-1.29-0.67-2.57-0.86-3.59-0.87C222.05,160.52,221.01,161.26,220.99,161.16z"/>
				</g>
			</g>
			<g>
				<g>
					<path class="st6" d="M270.26,174.99c0.01,0.01-0.13,0.13-0.4,0.36c-0.25,0.24-0.62,0.61-1.04,1.13
						c-0.42,0.52-0.9,1.2-1.48,1.98c-0.6,0.75-1.25,1.71-2.41,2.33c-0.58,0.29-1.33,0.37-2.01,0.13c-0.68-0.22-1.28-0.64-1.9-1.01
						c-0.62-0.37-1.29-0.72-2.02-0.74c-0.74-0.02-1.51,0.23-2.26,0.54c-0.76,0.32-1.52,0.72-2.31,1.11
						c-0.77,0.38-1.57,0.9-2.56,1.06c-0.96,0.16-1.97,0.04-2.91-0.29c-0.47-0.17-0.94-0.39-1.35-0.72
						c-0.42-0.32-0.78-0.81-0.85-1.39l0.45,0.12c-0.47,0.59-1,1.15-1.64,1.6c-0.65,0.44-1.37,0.78-2.14,1
						c-1.54,0.41-3.23,0.36-4.8-0.12c-0.66-0.18-1.27-0.47-1.87-0.77c-0.61-0.34-1.09-0.71-1.67-0.75
						c-0.59-0.07-1.13,0.09-1.68,0.42c-0.57,0.31-1.16,0.56-1.76,0.77c-2.37,0.83-4.99,1.06-7.18,0.1
						c-2.15-1.03-3.57-2.89-4.36-4.76c-0.78-1.89-0.9-3.86-0.54-5.52l0.14,0.21c-1.61-0.35-2.77-1.46-3.34-2.59
						c-0.59-1.15-0.57-2.31-0.38-3.17c0.2-0.87,0.56-1.46,0.84-1.83c0.14-0.18,0.26-0.31,0.35-0.39c0.08-0.08,0.13-0.12,0.14-0.11
						c0.07,0.03-0.78,0.68-1.13,2.37c-0.16,0.83-0.14,1.93,0.44,3c0.56,1.05,1.67,2.07,3.16,2.37l0.17,0.04l-0.04,0.18
						c-0.32,1.6-0.18,3.48,0.58,5.28c0.76,1.78,2.17,3.55,4.16,4.48c2.02,0.88,4.53,0.67,6.82-0.14c0.58-0.21,1.14-0.45,1.69-0.74
						c0.53-0.33,1.28-0.58,1.98-0.48c0.35,0.04,0.7,0.15,1.01,0.32l0.85,0.49c0.57,0.28,1.16,0.55,1.78,0.73
						c1.49,0.46,3.08,0.51,4.51,0.13c0.71-0.2,1.38-0.52,1.98-0.92c0.6-0.41,1.09-0.93,1.53-1.48l0.37-0.47l0.08,0.59
						c0.11,0.85,1.03,1.41,1.87,1.71c0.87,0.31,1.8,0.43,2.66,0.29c0.87-0.13,1.63-0.61,2.43-1c0.8-0.38,1.56-0.78,2.35-1.1
						c0.78-0.32,1.6-0.58,2.44-0.55c0.86,0.04,1.58,0.44,2.21,0.82c0.63,0.39,1.2,0.8,1.81,1c0.61,0.22,1.24,0.16,1.76-0.09
						c1.05-0.53,1.74-1.46,2.35-2.19c0.6-0.76,1.1-1.42,1.55-1.93c0.44-0.52,0.83-0.87,1.11-1.09
						C270.09,175.07,270.25,174.98,270.26,174.99z"/>
				</g>
			</g>
		</g>
		<g>
			<path class="st7" d="M25.96,395.05c0,0-5.17,13.76-6.97,17.46c-1.81,3.69,0,43.48,0,43.48h117.7l1.66-34.99l-56.66-34.16
				L25.96,395.05z"/>
		</g>
		<g>
			<g>
				<path class="st12" d="M276.11,339.33l46.33,8.74c0,0-0.88,20.04-0.29,19.54c0.59-0.5-64.94-0.61-64.94-0.61L276.11,339.33z"/>
			</g>
			<g>
				<g>
					<path class="st12" d="M321.62,348.03l32.11,9.91l14.1,9.91l12.57,13.54c0,0-0.14,3.77-4.89,1.4c-4.75-2.37-9.35-6.84-9.35-6.84
						l9.35,17.17c0,0-3.77,3.77-6.84-1.68c-3.07-5.45-7.68-12.43-7.68-12.43l-2.79-2.09c0,0,2.93,5.17,2.93,6.56
						c0,1.4-2.93,9.22-2.93,9.22l-4.61,6.28c0,0-2.79-0.28-2.58-3.21c0.21-2.93,1.88-5.03,1.88-5.03l-5.58,4.89
						c0,0-1.95-1.12-0.28-4.75l2.09-2.23l0.7-3.49l-1.68-2.65c0,0-4.33,0.28-7.68-4.75c-3.35-5.03-8.52-4.05-15.78-8.38
						c-7.26-4.33-6.56-9.08-6.56-9.08L321.62,348.03z"/>
				</g>
				<g>
					<g>
						<path class="st13" d="M338.86,360.27c0.1-0.02,0.09,1.61,1.22,3.87c0.56,1.12,1.39,2.37,2.51,3.59c1.11,1.23,2.5,2.44,4,3.66
							c1.48,1.23,3.02,2.32,4.05,3.73c1.04,1.39,1.41,3.09,1.01,4.38c-0.42,1.31-1.42,1.98-2.11,2.17
							c-0.35,0.11-0.64,0.11-0.83,0.09c-0.19-0.02-0.29-0.05-0.28-0.07c0-0.05,0.41,0.03,1.05-0.22c0.62-0.24,1.5-0.91,1.82-2.08
							c0.32-1.17-0.05-2.71-1.04-4c-0.98-1.31-2.5-2.38-3.99-3.62c-1.5-1.22-2.91-2.46-4.03-3.74c-1.13-1.27-1.96-2.58-2.49-3.75
							c-0.54-1.17-0.77-2.2-0.86-2.91C338.8,360.66,338.83,360.27,338.86,360.27z"/>
					</g>
				</g>
				<g>
					<g>
						<path class="st13" d="M365.86,375.19c-0.02,0.03-0.33-0.1-0.87-0.38c-0.54-0.27-1.31-0.69-2.26-1.21
							c-1.89-1.05-4.47-2.57-7.26-4.34c-2.22-1.41-4.24-2.77-5.84-3.89l0.18,0.03c-1.43,0.44-2.62,0.79-3.45,1.02
							c-0.83,0.23-1.3,0.34-1.31,0.3c-0.01-0.04,0.43-0.23,1.24-0.53c0.81-0.3,1.97-0.71,3.39-1.19l0.09-0.03l0.09,0.06
							c1.7,1.09,3.71,2.39,5.89,3.8c2.78,1.77,5.32,3.33,7.16,4.46C364.76,374.42,365.89,375.13,365.86,375.19z"/>
					</g>
				</g>
				<g>
					<g>
						<path class="st13" d="M358.04,375.74c0.11,0.08-0.87,1.17-2.56,1.61c-1.68,0.45-3.08-0.02-3.02-0.14
							c0.03-0.15,1.35,0.06,2.89-0.36C356.89,376.45,357.94,375.62,358.04,375.74z"/>
					</g>
				</g>
				<g>
					<g>
						<path class="st13" d="M352.67,379.03c0.14-0.04,1.08,2.56,2.09,5.86c0.29,0.89,0.04,1.84-0.28,2.51
							c-0.32,0.7-0.67,1.26-0.9,1.76c-0.51,0.98-0.44,1.68-0.53,1.69c-0.05,0.03-0.26-0.75,0.19-1.83c0.2-0.54,0.52-1.14,0.8-1.8
							c0.28-0.67,0.46-1.41,0.21-2.19C353.26,381.77,352.53,379.07,352.67,379.03z"/>
					</g>
				</g>
			</g>
		</g>
		<g>
			<g>
				<path class="st6" d="M22.75,388.14l41.3-44.58c0,0,54.34-93.31,65.15-101.91c27.03-21.51,57.71-10.25,57.71-10.25l10.93-4.15
					l18.42,46.79c0,0-6.83,9.99-7.51,11.99c-0.68,2-82.59,125.92-82.59,125.92l-29.27,40.99c0,0-45.36-8.49-64.77-33.27
					C23.24,408.35,22.75,388.14,22.75,388.14z"/>
			</g>
			<g>
				<path class="st6" d="M220.83,273.01l6.06-5.17l0.07,15.76l10.48,14.79c0,0-30.66,36.93-36.96,43.08
					c-6.31,6.15-56.75,66.04-56.75,66.04s-2.67,28.4-6.06,36.45c-3.4,8.05-26.3,5.93-26.3,5.93l11.38-32.59l4.73-23.52l57.23-75.75
					l22.47-29.41L220.83,273.01z"/>
			</g>
			<g>
				<path class="st6" d="M205.5,323.68c0,0.94,31.15,30.71,31.15,30.71s2.25,5.64,4.82,6.58c2.57,0.94,15.41,6.9,15.41,6.9
					L277,339.04c0,0-10.17-9.4-13.06-10.97c-2.89-1.57-9.85-9.66-9.85-9.66l-23.31-27.99l-17.9,9.13L205.5,323.68z"/>
			</g>
			<g>
				<g>
					<path class="st7" d="M207.17,288.63c-0.01-0.01,0.04-0.1,0.14-0.28c0.12-0.21,0.27-0.47,0.45-0.78
						c0.43-0.72,1.03-1.71,1.78-2.96c1.59-2.59,3.83-6.24,6.54-10.67l0.23,0.31c-4.87,1.3-10.66,2.84-16.94,4.52l-0.25,0.07
						l-0.07-0.25c-0.57-2.18-1.17-4.45-1.78-6.77c-2.9-11.13-5.52-21.2-7.43-28.55c-0.92-3.62-1.66-6.57-2.19-8.67
						c-0.24-0.99-0.43-1.78-0.57-2.36c-0.13-0.54-0.18-0.83-0.16-0.83c0.02,0,0.11,0.27,0.27,0.81c0.16,0.58,0.39,1.36,0.67,2.34
						c0.57,2.09,1.37,5.02,2.35,8.62c1.95,7.34,4.63,17.4,7.58,28.51c0.61,2.32,1.21,4.59,1.78,6.77l-0.31-0.18
						c6.29-1.64,12.09-3.15,16.97-4.43l0.52-0.13l-0.28,0.45c-2.78,4.39-5.07,8-6.69,10.57c-0.79,1.22-1.42,2.2-1.88,2.9
						c-0.2,0.3-0.37,0.55-0.5,0.75C207.25,288.55,207.18,288.64,207.17,288.63z"/>
				</g>
			</g>
			<g>
				<g>
					<path class="st7" d="M226.96,283.04c0.01,0.02-0.17,0.2-0.54,0.52c-0.43,0.36-0.97,0.81-1.62,1.36
						c-1.49,1.21-3.49,2.83-5.85,4.75l-0.42,0.34l0.06-0.54c0.32-3.01,0.69-6.51,1.09-10.26c0.12-1.1,0.24-2.18,0.36-3.21l0.43,0.21
						c-3.6,3.42-6.78,6.41-9.08,8.54c-1.11,1.01-2.02,1.85-2.72,2.49c-0.65,0.58-1.01,0.88-1.03,0.86c-0.02-0.02,0.3-0.37,0.9-0.99
						c0.68-0.67,1.55-1.54,2.61-2.6c2.23-2.2,5.38-5.24,8.96-8.67l0.51-0.49l-0.08,0.7c-0.11,1.03-0.23,2.11-0.35,3.21
						c-0.42,3.74-0.82,7.24-1.16,10.25l-0.36-0.2c2.42-1.86,4.45-3.43,5.97-4.6c0.68-0.51,1.24-0.93,1.7-1.26
						C226.72,283.17,226.94,283.02,226.96,283.04z"/>
				</g>
			</g>
			<g>
				<g>
					<path class="st7" d="M230.78,305.29c0.01,0.01-0.08,0.16-0.28,0.43c-0.24,0.31-0.52,0.69-0.87,1.16c-0.76,1-1.89,2.43-3.3,4.18
						c-2.81,3.51-6.77,8.3-11.24,13.49c-4.48,5.2-8.63,9.82-11.68,13.13c-1.52,1.65-2.77,2.98-3.64,3.88
						c-0.41,0.41-0.74,0.75-1.01,1.03c-0.24,0.23-0.37,0.35-0.38,0.34c-0.01-0.01,0.09-0.15,0.3-0.41c0.25-0.3,0.57-0.66,0.94-1.1
						c0.88-1,2.07-2.35,3.52-3.99c2.98-3.37,7.08-8.02,11.56-13.22c4.47-5.2,8.47-9.94,11.35-13.39c1.41-1.67,2.57-3.05,3.43-4.07
						c0.38-0.44,0.69-0.8,0.95-1.09C230.65,305.4,230.77,305.28,230.78,305.29z"/>
				</g>
			</g>
			<g>
				<g>
					<path class="st7" d="M262.52,328.22c0.03,0.02-0.25,0.43-0.77,1.15c-0.52,0.72-1.3,1.75-2.28,3.01
						c-1.96,2.51-4.78,5.9-8.09,9.46c-3.31,3.56-6.49,6.61-8.85,8.75c-1.18,1.07-2.15,1.92-2.83,2.49c-0.68,0.57-1.07,0.88-1.1,0.85
						c-0.02-0.03,0.32-0.38,0.96-1c0.71-0.69,1.63-1.56,2.72-2.61c2.29-2.2,5.42-5.29,8.72-8.84c3.3-3.55,6.15-6.89,8.18-9.34
						c0.97-1.16,1.77-2.14,2.4-2.9C262.16,328.57,262.49,328.2,262.52,328.22z"/>
				</g>
			</g>
			<g>
				<g>
					<path class="st7" d="M106.69,440.31c0,0,0.07-0.14,0.24-0.4c0.18-0.28,0.43-0.66,0.75-1.16c0.69-1.03,1.67-2.52,2.94-4.42
						c2.59-3.85,6.31-9.38,10.9-16.21c9.22-13.67,22.02-32.52,36-53.44c13.95-20.95,26.54-39.94,34.87-54.18
						c4.29-7.05,8.01-12.6,10.81-16.27c1.38-1.85,2.51-3.24,3.29-4.17c0.38-0.45,0.68-0.8,0.9-1.05c0.2-0.23,0.32-0.35,0.32-0.35
						s-0.09,0.13-0.28,0.38c-0.21,0.26-0.49,0.62-0.86,1.08c-0.76,0.95-1.86,2.36-3.21,4.22c-2.74,3.71-6.41,9.28-10.65,16.34
						c-8.26,14.28-20.81,33.32-34.76,54.27c-13.98,20.92-26.83,39.74-36.13,53.36c-4.65,6.79-8.42,12.29-11.04,16.11
						c-1.3,1.88-2.32,3.35-3.02,4.37c-0.34,0.48-0.6,0.86-0.8,1.13C106.8,440.18,106.69,440.31,106.69,440.31z"/>
				</g>
			</g>
			<g>
				<g>
					<path class="st7" d="M108.99,390.67c-0.01,0.01-0.16-0.09-0.43-0.3c-0.31-0.25-0.69-0.56-1.16-0.94
						c-1-0.82-2.42-2.05-4.15-3.59c-3.46-3.08-8.11-7.49-12.96-12.62c-4.85-5.14-8.99-10.03-11.87-13.66
						c-1.44-1.81-2.58-3.3-3.35-4.35c-0.35-0.49-0.64-0.88-0.87-1.21c-0.19-0.28-0.29-0.43-0.28-0.44c0.01-0.01,0.14,0.12,0.36,0.38
						c0.26,0.31,0.57,0.69,0.95,1.15c0.87,1.06,2.04,2.49,3.47,4.24c2.95,3.56,7.12,8.4,11.96,13.54
						c4.85,5.13,9.44,9.56,12.83,12.71c1.66,1.53,3.02,2.78,4.03,3.71c0.44,0.41,0.8,0.74,1.09,1.01
						C108.88,390.53,109,390.66,108.99,390.67z"/>
				</g>
			</g>
		</g>
		<g>
			<g>
				<g>
					<path class="st7" d="M172.8,246.21c-0.05,0.03-0.44-0.65-1.33-1.75c-0.9-1.08-2.35-2.55-4.51-3.85
						c-2.15-1.32-4.97-2.39-8.21-3.19c-3.23-0.81-6.88-1.41-10.72-1.25c-3.83,0.16-7.43,1.15-10.34,2.75
						c-2.93,1.57-5.19,3.61-6.83,5.51c-1.64,1.91-2.68,3.68-3.34,4.93c-0.66,1.25-0.95,1.98-1,1.96c-0.02-0.01,0.04-0.19,0.18-0.54
						c0.13-0.35,0.33-0.87,0.64-1.51c0.61-1.28,1.62-3.1,3.24-5.08c1.63-1.96,3.9-4.07,6.88-5.69c2.96-1.66,6.64-2.68,10.54-2.85
						c3.91-0.16,7.61,0.46,10.86,1.31c3.26,0.84,6.12,1.97,8.28,3.35c2.17,1.37,3.61,2.9,4.47,4.03c0.42,0.58,0.73,1.04,0.91,1.37
						C172.72,246.03,172.82,246.2,172.8,246.21z"/>
				</g>
			</g>
			<g>
				<g>
					<path class="st6" d="M122.74,259.49c0,0-1.76,61.83,0,91.13c0.54,8.94,3.86,14.86,4.55,15.06c1.8,0.53,38.1-2.54,38.1-2.54
						s0.29-11.1,3.03-15.26c2.74-4.16-4.28-2.42-4.28-2.42s14.99-76.21,13.12-90.24"/>
				</g>
				<g>
					<g>
						<path class="st7" d="M177.26,255.22c0,0,0.1,0.59,0.17,1.74c0.05,1.15,0.07,2.86-0.06,5.07c-0.21,4.42-0.88,10.85-1.97,18.88
							c-2.18,16.07-6,38.58-11.02,64.59l-0.3-0.29c0.92-0.21,1.85-0.36,2.81-0.37c0.48,0,0.97,0.03,1.47,0.2
							c0.24,0.09,0.5,0.23,0.68,0.47c0.19,0.23,0.27,0.55,0.26,0.82c-0.04,0.55-0.28,1.01-0.53,1.43c-0.26,0.43-0.47,0.8-0.68,1.22
							c-0.38,0.84-0.7,1.73-0.94,2.65c-0.97,3.67-1.34,7.58-1.51,11.5l-0.01,0.23l-0.23,0.02c-4.94,0.4-10.17,0.82-15.46,1.25
							c-4.47,0.34-8.89,0.67-13.24,0.95c-2.18,0.13-4.34,0.27-6.49,0.35c-0.54,0.03-1.08,0.04-1.62,0.04
							c-0.28,0-0.52,0.02-0.83-0.01l-0.44-0.04c-0.1,0.04-0.4-0.17-0.45-0.26c-0.75-0.89-1.17-1.86-1.62-2.84
							c-1.68-3.93-2.51-8.08-2.77-12.16c-0.1-2.03-0.2-4.04-0.29-6.03c-0.06-1.99-0.13-3.95-0.19-5.89
							c-0.38-15.53-0.28-29.52-0.15-41.27c0.14-11.75,0.35-21.25,0.53-27.81c0.1-3.27,0.18-5.81,0.23-7.56
							c0.03-0.85,0.06-1.5,0.08-1.97c0.02-0.44,0.05-0.67,0.05-0.67s0.01,0.23,0.01,0.67c-0.01,0.46-0.01,1.11-0.03,1.97
							c-0.03,1.75-0.07,4.29-0.13,7.56c-0.11,6.57-0.27,16.07-0.36,27.81c-0.08,11.74-0.15,25.73,0.26,41.25
							c0.07,1.94,0.13,3.9,0.2,5.89c0.1,1.98,0.2,3.99,0.3,6.02c0.26,4.03,1.09,8.13,2.74,11.98c0.42,0.94,0.89,1.94,1.51,2.68
							c0.04,0.05,0.08,0.08,0.09,0.08c0,0.02,0.05,0.04,0.12,0.03l0.36,0.03c0.23,0.03,0.52,0.01,0.78,0.01
							c0.53,0,1.06-0.01,1.6-0.04c2.14-0.08,4.3-0.22,6.48-0.35c4.35-0.28,8.77-0.61,13.24-0.96c5.3-0.43,10.52-0.85,15.46-1.24
							l-0.24,0.25c0.18-3.96,0.55-7.87,1.54-11.62c0.24-0.94,0.57-1.85,0.97-2.73c0.41-0.89,1.09-1.65,1.16-2.45
							c0.02-0.39-0.22-0.66-0.61-0.8c-0.39-0.14-0.85-0.18-1.29-0.17c-0.9,0.01-1.82,0.15-2.69,0.35l-0.38,0.09l0.07-0.37
							c5.05-25.99,8.93-48.49,11.2-64.54c1.13-8.02,1.85-14.43,2.12-18.84c0.15-2.21,0.16-3.91,0.14-5.06
							c-0.01-0.58-0.06-1.01-0.07-1.3C177.26,255.38,177.26,255.22,177.26,255.22z"/>
					</g>
				</g>
			</g>
			<g>
				<g>
					<path class="st7" d="M165.29,345.84c0.01,0.04-0.55,0.15-1.57,0.32c-1.02,0.17-2.49,0.39-4.32,0.61
						c-3.65,0.45-8.73,0.91-14.34,1.15c-5.62,0.24-10.71,0.22-14.39,0.08c-1.84-0.06-3.33-0.15-4.35-0.24
						c-1.03-0.08-1.59-0.15-1.59-0.18c0-0.04,0.57-0.04,1.6-0.02c1.12,0.02,2.59,0.04,4.35,0.07c3.68,0.05,8.75,0,14.36-0.23
						c5.6-0.24,10.67-0.63,14.32-0.99c1.76-0.18,3.22-0.33,4.33-0.44C164.71,345.85,165.28,345.81,165.29,345.84z"/>
				</g>
			</g>
			<g>
				<g>
					<polygon class="st12" points="127.29,365.68 148.63,455.54 169.98,455.54 164.01,363.4 					"/>
				</g>
				<g>
					<path class="st12" d="M168.08,442.83l21.27,3.72l19.15,5.79c1.77,0.61,2.91,1.63,2.2,3.85l0,0l-62.08-0.65v-10.79
						L168.08,442.83z"/>
				</g>
				<g>
					<g>
						<path class="st13" d="M202.12,456.11c-0.06-0.01,0.09-0.45-0.04-1.21c-0.1-0.75-0.75-1.81-2.05-2.29
							c-1.28-0.48-3.02-0.47-4.89-0.7c-1.89-0.19-3.94-0.4-6.09-0.62c-4.32-0.45-8.23-0.9-11.06-1.24
							c-1.33-0.17-2.45-0.32-3.35-0.44c-0.79-0.11-1.22-0.19-1.22-0.23c0-0.04,0.45-0.02,1.24,0.03c0.9,0.07,2.03,0.16,3.36,0.27
							c2.84,0.25,6.75,0.63,11.08,1.09c2.15,0.23,4.2,0.46,6.09,0.66c0.93,0.11,1.82,0.21,2.66,0.3c0.83,0.1,1.63,0.24,2.32,0.53
							c1.41,0.56,2.08,1.79,2.12,2.6c0.04,0.41-0.02,0.73-0.06,0.94C202.17,456,202.13,456.11,202.12,456.11z"/>
					</g>
				</g>
			</g>
			<g class="st11">
				<path d="M165.29,382.36l7.51-32.77v-10.26l-2.82-1.8l6.6-67.23l-12.44,75.15l1.5-0.13c1.71-0.15,3.84-0.54,3.43,1.12l-2.34,5.14
					l-2.6,13.61L165.29,382.36z"/>
			</g>
		</g>
		<g>
			<g>
				<path class="st13" d="M235.75,224.22c-2.37,2.48-3.07,6.05-1.11,8.86c0.68,0.98,1.81,1.66,2.98,1.84
					c1.44,0.22,2.91,0.1,4.03-0.96c1.06-1,2.05-2.09,2.53-3.47C241.87,228.66,238.08,226.06,235.75,224.22z"/>
			</g>
			<g>
				<g>
					<path class="st7" d="M240.9,234.55c0.01,0.02-0.32,0.22-1,0.37c-0.67,0.13-1.71,0.18-2.89-0.26c-1.17-0.41-2.43-1.41-3.14-2.92
						c-0.74-1.49-0.84-3.46-0.13-5.24c0.35-0.9,0.86-1.71,1.46-2.39l0.16-0.18l0.19,0.14c2.43,1.8,4.55,3.39,6.05,4.55
						s2.38,1.87,2.34,1.93c-0.04,0.05-0.99-0.58-2.54-1.66c-1.55-1.08-3.71-2.63-6.15-4.41l0.34-0.04c-0.56,0.64-1.03,1.4-1.36,2.25
						c-0.66,1.66-0.58,3.46,0.07,4.84c0.64,1.41,1.76,2.35,2.84,2.78c1.08,0.45,2.07,0.47,2.72,0.4
						C240.53,234.64,240.88,234.51,240.9,234.55z"/>
				</g>
			</g>
		</g>
	</g>
	<g>
	</g>
	<g>
	</g>
	<g>
	</g>
	<g>
	</g>
	<g>
	</g>
	<g>
	</g>
</g>
</svg>
