<?xml version="1.0" encoding="utf-8"?>
<!-- Generator: Adobe Illustrator 24.0.1, SVG Export Plug-In . SVG Version: 6.00 Build 0)  -->
<svg version="1.1" xmlns="http://www.w3.org/2000/svg" xmlns:xlink="http://www.w3.org/1999/xlink" x="0px" y="0px"
	 viewBox="0 0 500 500" style="enable-background:new 0 0 500 500;" xml:space="preserve">
<g id="Background_Complete">
	<path style="fill:#E0E0E0;" d="M111.95,232.31l3.7,7.51c0.19,0.38,0.56,0.65,0.98,0.71l8.28,1.2c1.07,0.15,1.49,1.46,0.72,2.22
		l-5.99,5.84c-0.31,0.3-0.45,0.73-0.37,1.15l1.41,8.25c0.18,1.06-0.93,1.87-1.89,1.37l-7.41-3.89c-0.38-0.2-0.83-0.2-1.21,0
		l-7.41,3.89c-0.95,0.5-2.07-0.31-1.88-1.37l1.41-8.25c0.07-0.42-0.07-0.85-0.37-1.15l-5.99-5.84c-0.77-0.75-0.35-2.06,0.72-2.22
		l8.28-1.2c0.42-0.06,0.79-0.33,0.98-0.71l3.7-7.51C110.09,231.35,111.47,231.35,111.95,232.31z"/>
	<path style="fill:#E0E0E0;" d="M78.08,188.93l2.56,5.19c0.13,0.27,0.38,0.45,0.68,0.49l5.73,0.83c0.74,0.11,1.03,1.01,0.5,1.53
		l-4.15,4.04c-0.21,0.21-0.31,0.5-0.26,0.8l0.98,5.71c0.13,0.73-0.64,1.29-1.3,0.95l-5.13-2.69c-0.26-0.14-0.57-0.14-0.84,0
		l-5.13,2.69c-0.66,0.35-1.43-0.21-1.3-0.95l0.98-5.71c0.05-0.29-0.05-0.59-0.26-0.8L67,196.98c-0.53-0.52-0.24-1.43,0.5-1.53
		l5.73-0.83c0.29-0.04,0.55-0.23,0.68-0.49l2.56-5.19C76.8,188.26,77.75,188.26,78.08,188.93z"/>
	<path style="fill:#E0E0E0;" d="M263.48,54.77l1.78,3.6c0.09,0.18,0.27,0.31,0.47,0.34l3.97,0.58c0.51,0.07,0.71,0.7,0.35,1.06
		l-2.87,2.8c-0.15,0.14-0.21,0.35-0.18,0.55l0.68,3.95c0.09,0.51-0.45,0.9-0.9,0.66l-3.55-1.87c-0.18-0.1-0.4-0.1-0.58,0l-3.55,1.87
		c-0.46,0.24-0.99-0.15-0.9-0.66l0.68-3.95c0.03-0.2-0.03-0.41-0.18-0.55l-2.87-2.8c-0.37-0.36-0.17-0.99,0.35-1.06l3.97-0.58
		c0.2-0.03,0.38-0.16,0.47-0.34l1.78-3.6C262.59,54.3,263.25,54.3,263.48,54.77z"/>
	<path style="fill:#E0E0E0;" d="M418.52,240.27l1.78,3.6c0.09,0.18,0.27,0.31,0.47,0.34l3.97,0.58c0.51,0.07,0.71,0.7,0.35,1.06
		l-2.87,2.8c-0.15,0.14-0.21,0.35-0.18,0.55l0.68,3.95c0.09,0.51-0.45,0.9-0.9,0.66l-3.55-1.87c-0.18-0.1-0.4-0.1-0.58,0l-3.55,1.87
		c-0.46,0.24-0.99-0.15-0.9-0.66l0.68-3.95c0.03-0.2-0.03-0.41-0.18-0.55l-2.87-2.8c-0.37-0.36-0.17-0.99,0.35-1.06l3.97-0.58
		c0.2-0.03,0.38-0.16,0.47-0.34l1.78-3.6C417.63,239.8,418.29,239.8,418.52,240.27z"/>
	<path style="fill:#E0E0E0;" d="M377.47,223.69l2.93,5.94c0.15,0.3,0.44,0.51,0.77,0.56l6.55,0.95c0.84,0.12,1.18,1.16,0.57,1.75
		l-4.74,4.62c-0.24,0.24-0.35,0.58-0.3,0.91l1.12,6.52c0.14,0.84-0.74,1.48-1.49,1.08l-5.86-3.08c-0.3-0.16-0.66-0.16-0.96,0
		l-5.86,3.08c-0.75,0.4-1.63-0.24-1.49-1.08l1.12-6.52c0.06-0.33-0.05-0.67-0.3-0.91l-4.74-4.62c-0.61-0.59-0.27-1.63,0.57-1.75
		l6.55-0.95c0.33-0.05,0.62-0.26,0.77-0.56l2.93-5.94C376,222.93,377.09,222.93,377.47,223.69z"/>
	<path style="fill:#E0E0E0;" d="M78.84,296.22l2.11,4.28c0.11,0.22,0.32,0.37,0.56,0.41l4.73,0.69c0.61,0.09,0.85,0.84,0.41,1.26
		l-3.42,3.33c-0.17,0.17-0.25,0.42-0.21,0.66l0.81,4.71c0.1,0.61-0.53,1.07-1.08,0.78l-4.23-2.22c-0.22-0.11-0.47-0.11-0.69,0
		l-4.23,2.22c-0.54,0.29-1.18-0.18-1.08-0.78l0.81-4.71c0.04-0.24-0.04-0.49-0.21-0.66l-3.42-3.33c-0.44-0.43-0.2-1.18,0.41-1.26
		l4.73-0.69c0.24-0.04,0.45-0.19,0.56-0.41l2.11-4.28C77.78,295.67,78.57,295.67,78.84,296.22z"/>
	<g>
		<g>
			<g>
				<g>
					<g>
						<g>
							
								<rect x="168.16" y="59.67" transform="matrix(1 -5.357719e-03 5.357719e-03 1 -0.4702 0.933)" style="fill:#E0E0E0;" width="11.48" height="57.12"/>
						</g>
					</g>
				</g>
			</g>
		</g>
		<g>
			<g>
				<g>
					<g>
						<g>
							<g>
								
									<rect x="68.65" y="59.87" transform="matrix(1 -5.348974e-03 5.348974e-03 1 -0.4034 0.4478)" style="fill:#EBEBEB;" width="29.73" height="31.53"/>
							</g>
						</g>
					</g>
				</g>
			</g>
			<g>
				<g>
					<g>
						<g>
							<g>
								
									<rect x="98.23" y="59.71" transform="matrix(1 -5.352321e-03 5.352321e-03 1 -0.4024 0.6064)" style="fill:#F5F5F5;" width="29.73" height="31.53"/>
							</g>
						</g>
					</g>
				</g>
			</g>
			<g>
				<g>
					<g>
						<g>
							<g>
								<g>
									<path style="fill:#E0E0E0;" d="M68.61,68.66c19.75,0.16,39.56,0.05,59.31-0.27c0.41-0.01,0.4-0.63,0-0.63
										c-19.75-0.11-39.56-0.01-59.31,0.36C68.26,68.12,68.26,68.65,68.61,68.66L68.61,68.66z"/>
								</g>
							</g>
						</g>
					</g>
				</g>
			</g>
		</g>
		<g>
			<g>
				<g>
					<g>
						<g>
							<g>
								
									<rect x="50.1" y="90.94" transform="matrix(1 -5.356795e-03 5.356795e-03 1 -0.5549 0.4145)" style="fill:#EBEBEB;" width="54.01" height="25.7"/>
							</g>
						</g>
					</g>
				</g>
			</g>
			<g>
				<g>
					<g>
						<g>
							<g>
								
									<rect x="103.85" y="90.65" transform="matrix(1 -5.356795e-03 5.356795e-03 1 -0.5526 0.7024)" style="fill:#F5F5F5;" width="54.01" height="25.7"/>
							</g>
						</g>
					</g>
				</g>
			</g>
			<g>
				<g>
					<g>
						<g>
							<g>
								<g>
									<path style="fill:#E0E0E0;" d="M50.07,98.23c35.88,0.41,71.88,0.04,107.76-0.53c0.41-0.01,0.4-0.63,0-0.63
										c-35.88-0.19-71.88-0.17-107.76,0.62C49.72,97.7,49.72,98.23,50.07,98.23L50.07,98.23z"/>
								</g>
							</g>
						</g>
					</g>
				</g>
			</g>
		</g>
		<g>
			<g>
				<g>
					<g>
						<g>
							<rect x="29.87" y="116.78" style="fill:#E0E0E0;" width="209.23" height="9.21"/>
						</g>
					</g>
				</g>
			</g>
			<g>
				<g>
					<g>
						<g>
							<rect x="64.13" y="121.21" style="fill:#E0E0E0;" width="8.49" height="31.41"/>
						</g>
					</g>
				</g>
			</g>
			<g>
				<g>
					<g>
						<g>
							<rect x="190.92" y="121.21" style="fill:#E0E0E0;" width="8.49" height="31.41"/>
						</g>
					</g>
				</g>
			</g>
		</g>
		<g>
			<g>
				<g>
					<g>
						<g>
							
								<rect x="179.42" y="38.37" transform="matrix(1 -5.357719e-03 5.357719e-03 1 -0.4134 0.9931)" style="fill:#EBEBEB;" width="11.48" height="78.56"/>
						</g>
					</g>
				</g>
			</g>
		</g>
		<g>
			<g>
				<g>
					<g>
						<g>
							<g>
								
									<rect x="190.95" y="53.01" transform="matrix(1 -5.365506e-03 5.365506e-03 1 -0.4523 1.0736)" style="fill:#F5F5F5;" width="17.84" height="63.66"/>
							</g>
						</g>
					</g>
				</g>
			</g>
			<g>
				<g>
					<g>
						<g>
							<g>
								<path style="fill:#E0E0E0;" d="M208.5,65.23c0,0.17-3.99,0.31-8.92,0.31c-4.93,0-8.92-0.14-8.92-0.31s3.99-0.31,8.92-0.31
									C204.51,64.92,208.5,65.06,208.5,65.23z"/>
							</g>
						</g>
					</g>
				</g>
			</g>
			<g>
				<g>
					<g>
						<g>
							<g>
								<path style="fill:#E0E0E0;" d="M208.5,62.55c0,0.17-3.99,0.31-8.92,0.31c-4.93,0-8.92-0.14-8.92-0.31
									c0-0.17,3.99-0.31,8.92-0.31C204.51,62.25,208.5,62.38,208.5,62.55z"/>
							</g>
						</g>
					</g>
				</g>
			</g>
			<g>
				<g>
					<g>
						<g>
							<g>
								<path style="fill:#E0E0E0;" d="M208.5,107.05c0,0.17-3.99,0.31-8.92,0.31c-4.93,0-8.92-0.14-8.92-0.31
									c0-0.17,3.99-0.31,8.92-0.31C204.51,106.74,208.5,106.88,208.5,107.05z"/>
							</g>
						</g>
					</g>
				</g>
			</g>
			<g>
				<g>
					<g>
						<g>
							<g>
								<path style="fill:#E0E0E0;" d="M208.5,104.37c0,0.17-3.99,0.31-8.92,0.31c-4.93,0-8.92-0.14-8.92-0.31
									c0-0.17,3.99-0.31,8.92-0.31C204.51,104.06,208.5,104.2,208.5,104.37z"/>
							</g>
						</g>
					</g>
				</g>
			</g>
			<g>
				<g>
					<g>
						<g>
							<g>
								<path style="fill:#E0E0E0;" d="M199.87,98.54c-0.17,0-0.31-6.42-0.31-14.34c0-7.92,0.14-14.34,0.31-14.34
									c0.17,0,0.31,6.42,0.31,14.34C200.18,92.11,200.04,98.54,199.87,98.54z"/>
							</g>
						</g>
					</g>
				</g>
			</g>
		</g>
		<g>
			<g>
				<g>
					<g>
						<g>
							<rect x="208.69" y="68.6" style="fill:#EBEBEB;" width="19.41" height="48.05"/>
						</g>
					</g>
				</g>
			</g>
		</g>
		<g>
			<g>
				<g>
					<g>
						<path style="fill:#E0E0E0;" d="M188.07,51.75c0,1.82-1.48,3.3-3.3,3.3s-3.3-1.48-3.3-3.3c0-1.82,1.48-3.3,3.3-3.3
							S188.07,49.93,188.07,51.75z"/>
					</g>
				</g>
			</g>
		</g>
		<g>
			<g>
				<g>
					<g>
						<rect x="183.76" y="60.83" style="fill:#E0E0E0;" width="2.04" height="46.73"/>
					</g>
				</g>
			</g>
		</g>
	</g>
	<g>
		<g>
			<g>
				<g>
					<rect x="317.39" y="77.41" style="fill:#FAFAFA;" width="141.14" height="126.27"/>
				</g>
			</g>
			<g>
				<g>
					<g>
						<path style="fill:#E0E0E0;" d="M458.53,203.68c0,0-0.02-0.81-0.04-2.34c-0.01-1.55-0.02-3.81-0.04-6.77
							c-0.02-5.93-0.05-14.59-0.08-25.63c-0.04-22.06-0.1-53.59-0.16-91.53l0.32,0.32c-40.65,0.02-89.16,0.04-141.13,0.06h-0.01
							l0.38-0.38c-0.02,45.94-0.03,89.17-0.05,126.27l-0.33-0.33c42.11,0.07,77.35,0.13,102.08,0.17
							c12.38,0.04,22.12,0.07,28.79,0.09c3.32,0.02,5.88,0.03,7.62,0.04c0.85,0.01,1.51,0.01,1.97,0.02
							C458.29,203.67,458.53,203.68,458.53,203.68s-0.21,0.01-0.64,0.02c-0.45,0-1.09,0.01-1.93,0.02
							c-1.73,0.01-4.26,0.02-7.56,0.04c-6.65,0.02-16.37,0.05-28.72,0.09c-24.79,0.04-60.1,0.1-102.3,0.17l-0.33,0v-0.33
							c-0.01-37.1-0.03-80.33-0.05-126.27v-0.38h0.38h0.01c51.97,0.02,100.48,0.04,141.13,0.06h0.32l0,0.32
							c-0.07,38.03-0.12,69.62-0.16,91.73c-0.04,11.01-0.06,19.65-0.08,25.56c-0.02,2.92-0.03,5.17-0.04,6.7
							C458.55,202.92,458.53,203.68,458.53,203.68z"/>
					</g>
				</g>
			</g>
		</g>
		<g>
			<g>
				<g>
					<path style="fill:#E0E0E0;" d="M371.5,99.84c0,0.21-7.43,0.38-16.59,0.38c-9.17,0-16.59-0.17-16.59-0.38
						c0-0.21,7.43-0.38,16.59-0.38C364.07,99.47,371.5,99.64,371.5,99.84z"/>
				</g>
			</g>
		</g>
		<g>
			<g>
				<g>
					<path style="fill:#E0E0E0;" d="M431.31,109.32c0,0.21-20.41,0.38-45.58,0.38c-25.18,0-45.58-0.17-45.58-0.38
						c0-0.21,20.4-0.38,45.58-0.38C410.9,108.95,431.31,109.12,431.31,109.32z"/>
				</g>
			</g>
		</g>
		<g>
			<g>
				<rect x="338.56" y="125.39" style="fill:#E0E0E0;" width="5.95" height="5.95"/>
			</g>
		</g>
		<g>
			<g>
				<rect x="353.2" y="125.39" style="fill:#E0E0E0;" width="5.95" height="5.95"/>
			</g>
		</g>
		<g>
			<g>
				<rect x="368.11" y="125.12" style="fill:#E0E0E0;" width="5.95" height="5.95"/>
			</g>
		</g>
		<g>
			<g>
				<rect x="382.47" y="125.39" style="fill:#E0E0E0;" width="5.95" height="5.95"/>
			</g>
		</g>
		<g>
			<g>
				<rect x="397.11" y="125.39" style="fill:#E0E0E0;" width="5.95" height="5.95"/>
			</g>
		</g>
		<g>
			<g>
				<rect x="411.75" y="125.39" style="fill:#E0E0E0;" width="5.95" height="5.95"/>
			</g>
		</g>
		<g>
			<g>
				<rect x="426.38" y="125.39" style="fill:#EBEBEB;" width="5.95" height="5.95"/>
			</g>
		</g>
		<g>
			<g>
				<rect x="338.56" y="138.03" style="fill:#EBEBEB;" width="5.95" height="5.95"/>
			</g>
		</g>
		<g>
			<g>
				<rect x="353.2" y="138.03" style="fill:#E0E0E0;" width="5.95" height="5.95"/>
			</g>
		</g>
		<g>
			<g>
				<rect x="367.84" y="138.03" style="fill:#EBEBEB;" width="5.95" height="5.95"/>
			</g>
		</g>
		<g>
			<g>
				<rect x="382.47" y="138.03" style="fill:#E0E0E0;" width="5.95" height="5.95"/>
			</g>
		</g>
		<g>
			<g>
				<rect x="397.11" y="138.03" style="fill:#E0E0E0;" width="5.95" height="5.95"/>
			</g>
		</g>
		<g>
			<g>
				<rect x="412.02" y="137.76" style="fill:#E0E0E0;" width="5.95" height="5.95"/>
			</g>
		</g>
		<g>
			<g>
				<rect x="426.38" y="138.03" style="fill:#E0E0E0;" width="5.95" height="5.95"/>
			</g>
		</g>
		<g>
			<g>
				<rect x="338.56" y="150.67" style="fill:#E0E0E0;" width="5.95" height="5.95"/>
			</g>
		</g>
		<g>
			<g>
				<rect x="353.47" y="150.4" style="fill:#E0E0E0;" width="5.95" height="5.95"/>
			</g>
		</g>
		<g>
			<g>
				<rect x="367.84" y="150.67" style="fill:#E0E0E0;" width="5.95" height="5.95"/>
			</g>
		</g>
		<g>
			<g>
				<rect x="382.47" y="150.67" style="fill:#EBEBEB;" width="5.95" height="5.95"/>
			</g>
		</g>
		<g>
			<g>
				<rect x="397.11" y="150.67" style="fill:#E0E0E0;" width="5.95" height="5.95"/>
			</g>
		</g>
		<g>
			<g>
				<rect x="411.75" y="150.67" style="fill:#E0E0E0;" width="5.95" height="5.95"/>
			</g>
		</g>
		<g>
			<g>
				<rect x="426.38" y="150.67" style="fill:#E0E0E0;" width="5.95" height="5.95"/>
			</g>
		</g>
		<g>
			<g>
				<rect x="338.56" y="163.31" style="fill:#E0E0E0;" width="5.95" height="5.95"/>
			</g>
		</g>
		<g>
			<g>
				<rect x="353.2" y="163.31" style="fill:#E0E0E0;" width="5.95" height="5.95"/>
			</g>
		</g>
		<g>
			<g>
				<rect x="367.84" y="163.31" style="fill:#E0E0E0;" width="5.95" height="5.95"/>
			</g>
		</g>
		<g>
			<g>
				<rect x="382.74" y="163.04" style="fill:#E0E0E0;" width="5.95" height="5.95"/>
			</g>
		</g>
		<g>
			<g>
				<rect x="397.11" y="163.31" style="fill:#E0E0E0;" width="5.95" height="5.95"/>
			</g>
		</g>
		<g>
			<g>
				<rect x="411.75" y="163.31" style="fill:#EBEBEB;" width="5.95" height="5.95"/>
			</g>
		</g>
		<g>
			<g>
				<rect x="426.38" y="163.31" style="fill:#E0E0E0;" width="5.95" height="5.95"/>
			</g>
		</g>
		<g>
			<g>
				<rect x="338.56" y="175.95" style="fill:#E0E0E0;" width="5.95" height="5.95"/>
			</g>
		</g>
		<g>
			<g>
				<rect x="353.2" y="175.95" style="fill:#EBEBEB;" width="5.95" height="5.95"/>
			</g>
		</g>
		<g>
			<g>
				<rect x="367.84" y="175.95" style="fill:#E0E0E0;" width="5.95" height="5.95"/>
			</g>
		</g>
		<g>
			<g>
				<rect x="382.47" y="175.95" style="fill:#E0E0E0;" width="5.95" height="5.95"/>
			</g>
		</g>
		<g>
			<g>
				<rect x="397.11" y="175.95" style="fill:#E0E0E0;" width="5.95" height="5.95"/>
			</g>
		</g>
		<g>
			<g>
				<rect x="412.02" y="175.68" style="fill:#E0E0E0;" width="5.95" height="5.95"/>
			</g>
		</g>
		<g>
			<g>
				<rect x="426.38" y="175.95" style="fill:#E0E0E0;" width="5.95" height="5.95"/>
			</g>
		</g>
	</g>
	<g>
		<g>
			<g>
				<g>
					<g>
						<path style="fill:#EBEBEB;" d="M48.49,399.65c0,0.67,0,36.77,0,36.77h-6.14v3.99h6.14v24.61h114.75v-22.39h-8.5v-4.88h8.5
							v-7.32h3.78v-3.33h-4.49v-27.46H48.49z"/>
					</g>
				</g>
			</g>
			<g>
				<g>
					<g>
						<polygon style="fill:#E0E0E0;" points="132.77,399.76 132.77,464.61 163.24,464.61 163.24,442.21 154.74,442.21 
							154.74,437.75 163.24,437.9 163.24,430.58 167.09,430.59 167.02,426.81 162.53,426.7 162.53,399.65 						"/>
					</g>
				</g>
			</g>
			<g>
				<g>
					<g>
						<g>
							<path style="fill:#E0E0E0;" d="M134.94,439.88c0,0.23-20.76,0.41-46.37,0.41c-25.62,0-46.38-0.18-46.38-0.41
								c0-0.23,20.76-0.41,46.38-0.41C114.18,439.47,134.94,439.65,134.94,439.88z"/>
						</g>
					</g>
				</g>
			</g>
			<g>
				<g>
					<g>
						<g>
							<path style="fill:#E0E0E0;" d="M134.94,436.14c0,0.23-20.76,0.41-46.37,0.41c-25.62,0-46.38-0.18-46.38-0.41
								c0-0.22,20.76-0.41,46.38-0.41C114.18,435.74,134.94,435.92,134.94,436.14z"/>
						</g>
					</g>
				</g>
			</g>
			<g>
				<g>
					<g>
						<g>
							<path style="fill:#E0E0E0;" d="M140.9,426.09c0,0.23-20.76,0.41-46.37,0.41c-25.62,0-46.38-0.18-46.38-0.41
								c0-0.22,20.76-0.41,46.38-0.41C120.13,425.68,140.9,425.87,140.9,426.09z"/>
						</g>
					</g>
				</g>
			</g>
			<g>
				<g>
					<g>
						<g>
							<path style="fill:#E0E0E0;" d="M141.47,453.48c0,0.23-20.76,0.41-46.37,0.41c-25.62,0-46.38-0.18-46.38-0.41
								c0-0.22,20.76-0.41,46.38-0.41C120.7,453.08,141.47,453.26,141.47,453.48z"/>
						</g>
					</g>
				</g>
			</g>
		</g>
	</g>
	<g>
		<g>
			<g>
				<g>
					<g>
						<path style="fill:#F5F5F5;" d="M63.38,338.38c0,0.63,0,34.85,0,34.85h-5.82v3.78h5.82v23.32h108.75v-21.22h-8.06v-4.62h8.06
							v-6.93h3.58v-3.15h-4.25v-26.02H63.38z"/>
					</g>
				</g>
			</g>
			<g>
				<g>
					<g>
						<polygon style="fill:#E0E0E0;" points="143.25,338.49 143.25,399.95 172.13,399.95 172.13,378.73 164.08,378.73 
							164.08,374.49 172.13,374.63 172.13,367.7 175.78,367.71 175.71,364.12 171.46,364.02 171.46,338.38 						"/>
					</g>
				</g>
			</g>
			<g>
				<g>
					<g>
						<g>
							<path style="fill:#E0E0E0;" d="M145.31,376.51c0,0.21-19.68,0.39-43.95,0.39c-24.28,0-43.95-0.17-43.95-0.39
								c0-0.21,19.67-0.39,43.95-0.39C125.63,376.13,145.31,376.3,145.31,376.51z"/>
						</g>
					</g>
				</g>
			</g>
			<g>
				<g>
					<g>
						<g>
							<path style="fill:#E0E0E0;" d="M145.31,372.97c0,0.21-19.68,0.39-43.95,0.39c-24.28,0-43.95-0.17-43.95-0.39
								c0-0.21,19.67-0.39,43.95-0.39C125.63,372.59,145.31,372.76,145.31,372.97z"/>
						</g>
					</g>
				</g>
			</g>
			<g>
				<g>
					<g>
						<g>
							<path style="fill:#E0E0E0;" d="M150.95,363.45c0,0.21-19.68,0.39-43.95,0.39c-24.28,0-43.95-0.17-43.95-0.39
								c0-0.21,19.67-0.39,43.95-0.39C131.28,363.06,150.95,363.23,150.95,363.45z"/>
						</g>
					</g>
				</g>
			</g>
			<g>
				<g>
					<g>
						<g>
							<path style="fill:#E0E0E0;" d="M151.5,389.41c0,0.21-19.68,0.39-43.95,0.39c-24.28,0-43.95-0.17-43.95-0.39
								c0-0.21,19.68-0.39,43.95-0.39C131.82,389.02,151.5,389.19,151.5,389.41z"/>
						</g>
					</g>
				</g>
			</g>
		</g>
	</g>
	<g>
		<g>
			<g>
				<g>
					<path style="fill:#EBEBEB;" d="M395.18,353.56c-5.95-3.07-12.95-3.47-19.56-2.38c-3.55,0.59-7.25,1.65-9.66,4.31
						c-2.41,2.66-2.87,7.35-0.1,9.64c1.65,1.36,3.95,1.57,6.09,1.55c5.17-0.06,10.91-0.97,15.04,2.14c2.36,1.77,3.92,4.72,6.74,5.6
						c2.76,0.85,5.87-0.77,7.33-3.26c1.46-2.49,1.51-5.6,0.83-8.4C401.89,362.77,401.17,356.66,395.18,353.56z"/>
				</g>
			</g>
			<g>
				<g>
					<path style="fill:#EBEBEB;" d="M408.8,327.26c-3.64,5.19-10.71,3.47-13.98,0.3c-3.28-3.17-4.66-7.77-5.92-12.15
						c-2.88-10.01-5.79-20.52-3.64-30.71c0.64-3.05,1.78-6.09,3.92-8.35c2.14-2.26,5.44-3.61,8.45-2.81
						c3.56,0.94,5.78,4.43,7.38,7.75c4.71,9.76,7.2,20.58,7.23,31.42C412.26,317.77,411.66,323.08,408.8,327.26"/>
				</g>
			</g>
			<g>
				<g>
					<path style="fill:#EBEBEB;" d="M418.79,334.71c-3.95-4.69-4.7-11.52-2.94-17.39c1.76-5.87,5.73-10.87,10.3-14.94
						c5.36-4.78,11.67-8.5,18.45-10.89c2.67-0.94,5.48-1.68,8.3-1.41c2.82,0.27,5.65,1.71,6.96,4.21c1.94,3.7,0.08,8.19-1.93,11.86
						c-3.55,6.46-7.6,12.63-12.12,18.45c-3.63,4.68-7.79,9.3-13.33,11.42c-5.54,2.12-11.28,1.87-14.22-1.97"/>
				</g>
			</g>
			<g>
				<g>
					<g>
						<path style="fill:#E0E0E0;" d="M409.05,405.62c-0.07,0-0.18-0.84-0.33-2.36c-0.17-1.72-0.38-3.88-0.63-6.44
							c-0.3-2.71-0.7-5.94-1.45-9.45c-0.75-3.5-1.93-7.3-3.43-11.15c-1.56-3.83-3.47-7.31-5.69-10.09c-2.21-2.8-4.78-4.82-7.2-5.99
							c-2.41-1.19-4.57-1.67-6.06-1.89c-1.51-0.15-2.35-0.27-2.35-0.34c0-0.07,0.84-0.08,2.39-0.04c1.53,0.1,3.78,0.49,6.32,1.65
							c2.55,1.13,5.28,3.18,7.59,6.04c2.34,2.84,4.31,6.4,5.9,10.29c1.54,3.92,2.69,7.76,3.41,11.33c0.72,3.57,1.04,6.84,1.26,9.57
							c0.2,2.74,0.28,4.95,0.32,6.48C409.13,404.77,409.12,405.62,409.05,405.62z"/>
					</g>
				</g>
			</g>
			<g>
				<g>
					<g>
						<path style="fill:#E0E0E0;" d="M408.61,400.66c-0.03,0-0.05-0.38-0.06-1.1c0-0.82,0.01-1.86,0.01-3.13
							c0.01-2.72,0.01-6.65-0.14-11.51c-0.24-9.71-1.08-20.17-2.69-34.91c-1.53-13.86-3.58-29.99-5.75-40.48
							c-0.46-2.39-0.93-4.53-1.37-6.41c-0.42-1.88-0.78-3.51-1.13-4.82c-0.3-1.24-0.54-2.24-0.73-3.04
							c-0.16-0.7-0.22-1.07-0.19-1.08c0.03-0.01,0.16,0.34,0.38,1.03c0.24,0.79,0.54,1.78,0.91,3c0.4,1.3,0.82,2.92,1.29,4.79
							c0.49,1.87,1.01,4.01,1.52,6.39c2.14,9.5,4.41,22.78,6.05,37.56c1.62,14.77,2.35,28.22,2.41,37.96
							c0.06,4.87-0.05,8.81-0.17,11.53c-0.08,1.27-0.14,2.31-0.19,3.13C408.68,400.29,408.64,400.66,408.61,400.66z"/>
					</g>
				</g>
			</g>
			<g>
				<g>
					<g>
						<path style="fill:#E0E0E0;" d="M408.54,374.72c-0.07,0-0.06-1.16,0.02-3.27c0.12-2.1,0.41-5.14,1-8.86
							c0.63-3.71,1.51-8.12,2.88-12.92c0.6-2.19,2-7.44,5.4-15.28c4.48-10.63,10.57-19.31,15.86-24.7c1.24-1.43,2.63-2.46,3.73-3.47
							c0.57-0.48,1.08-0.97,1.59-1.35c0.52-0.36,1-0.69,1.45-1c1.74-1.19,2.72-1.82,2.75-1.76c0.16,0.21-3.9,2.6-9.03,8.05
							c-5.1,5.44-11.02,14.07-15.46,24.61c-2.48,5.72-4.21,10.81-5.43,15.14c-1.42,4.75-2.36,9.11-3.07,12.79
							c-0.68,3.68-1.07,6.69-1.3,8.78C408.75,373.57,408.61,374.73,408.54,374.72z"/>
					</g>
				</g>
			</g>
		</g>
		<g>
			<g>
				<polygon style="fill:#E0E0E0;" points="433.61,420.48 431.01,456.09 385.27,456.09 382.67,420.48 				"/>
			</g>
		</g>
		<g>
			<g>
				<rect x="377.21" y="406.44" style="fill:#E0E0E0;" width="60.82" height="14.04"/>
			</g>
		</g>
		<g>
			<g>
				<polygon style="fill:#EBEBEB;" points="438.03,454.73 438.03,458.62 435.17,458.62 378.21,458.62 378.21,454.73 				"/>
			</g>
		</g>
		<g>
			<g>
				<polygon style="fill:#E0E0E0;" points="432.37,465.47 435.17,458.62 380.39,458.62 383.66,465.47 				"/>
			</g>
		</g>
		<g>
			<g>
				<g>
					<path style="fill:#F5F5F5;" d="M383.52,432.12c-0.01,0.01,0.06,0.12,0.21,0.33c0.18,0.24,0.41,0.54,0.68,0.91
						c0.65,0.83,1.54,1.97,2.67,3.41l0.12,0.15l0.11-0.16c1.68-2.32,3.91-5.41,6.55-9.06h-0.38c1.95,2.76,4.12,5.83,6.45,9.13
						l0.2,0.29l0.23-0.27c2.38-2.83,4.96-5.9,7.64-9.1l-0.44-0.01c0.13,0.17,0.28,0.35,0.42,0.53c2.37,2.97,4.67,5.85,6.84,8.57
						l0.23,0.29l0.21-0.3c2.32-3.28,4.49-6.35,6.45-9.13l-0.38,0.02c3.18,3.62,5.87,6.69,7.94,9.05l0.14,0.16l0.11-0.18
						c1.05-1.76,1.88-3.16,2.49-4.18c0.26-0.45,0.47-0.82,0.64-1.11c0.14-0.25,0.21-0.39,0.19-0.4c-0.01-0.01-0.1,0.11-0.27,0.35
						c-0.19,0.28-0.42,0.63-0.71,1.07c-0.64,1-1.51,2.38-2.61,4.1l0.25-0.02c-2.04-2.39-4.69-5.49-7.82-9.16l-0.2-0.23l-0.18,0.25
						c-1.98,2.76-4.17,5.82-6.51,9.08l0.44-0.01c-2.16-2.72-4.45-5.61-6.82-8.58c-0.14-0.18-0.29-0.36-0.42-0.53l-0.22-0.27
						l-0.22,0.27c-2.67,3.2-5.25,6.28-7.62,9.11l0.43,0.02c-2.35-3.28-4.54-6.34-6.51-9.08l-0.19-0.27l-0.19,0.27
						c-2.58,3.68-4.77,6.81-6.41,9.15l0.23-0.01c-1.17-1.4-2.1-2.51-2.77-3.32c-0.3-0.35-0.55-0.63-0.74-0.86
						C383.62,432.21,383.53,432.11,383.52,432.12z"/>
				</g>
			</g>
		</g>
		<g>
			<g>
				<g>
					<path style="fill:#F5F5F5;" d="M382.03,420.25c0,0.16,11.46,0.28,25.6,0.28c14.14,0,25.6-0.13,25.6-0.28
						c0-0.16-11.46-0.28-25.6-0.28C393.49,419.96,382.03,420.09,382.03,420.25z"/>
				</g>
			</g>
		</g>
		<g>
			<g>
				<g>
					<path style="fill:#F5F5F5;" d="M379.72,459c0,0.16,12.46,0.28,27.82,0.28c15.37,0,27.82-0.13,27.82-0.28
						c0-0.16-12.45-0.28-27.82-0.28C392.18,458.72,379.72,458.85,379.72,459z"/>
				</g>
			</g>
		</g>
	</g>
</g>
<g id="Background_Simple" style="display:none;">
	<g style="display:inline;">
		<path style="fill:#F5F5F5;" d="M435.46,96.4l-2.43-4.01c-20.52-33.81-57.61-54.19-96.72-51.72c-5.03,0.32-10.03,1-14.97,2.06
			c-35.56,7.61-66.5,34.5-79.32,68.94c-7.54,20.25-9.65,43.57-23.96,59.65c-18.63,20.92-50.25,21.58-78.06,20.71
			c-27.8-0.87-59.45-0.13-77.99,20.88c-11.61,13.15-15.3,31.86-14.36,49.48c2.48,46.64,34.98,88.35,76.31,109.07
			c41.33,20.73,90,22.59,135.23,13.47c63.37-12.77,123.63-47.86,159.86-102.04C455.28,228.7,464.45,154.88,435.46,96.4z"/>
	</g>
	<g style="display:inline;">
		
			<ellipse transform="matrix(0.2327 -0.9726 0.9726 0.2327 8.4078 181.1326)" style="fill:#F5F5F5;" cx="118.99" cy="85.24" rx="29.28" ry="29.28"/>
	</g>
</g>
<g id="Table">
	<g>
		<g>
			<path style="fill:#263238;" d="M448.06,465.3c0,0.14-88.68,0.26-198.05,0.26c-109.41,0-198.07-0.12-198.07-0.26
				c0-0.14,88.66-0.26,198.07-0.26C359.38,465.04,448.06,465.16,448.06,465.3z"/>
		</g>
	</g>
</g>
<g id="Character_2">
	<g>
		<g>
			<g>
				<g>
					<g>
						<g>
							<g>
								<g>
									<g>
										<path style="fill:#263238;" d="M267.49,93.59c0.43-7.51,5.05-12.14,11.52-15.97c6.48-3.84,14.87-4.22,21.67-0.98
											c4.54,2.16,8.52,5.86,13.52,6.5c8.22,1.06,16-6.56,24.07-4.65c4.78,1.13,8.42,5.9,8.23,10.81
											c-0.18,4.9-4.17,9.4-9.02,10.16c5.38,0.78,8.43,7.59,6.44,12.65c-1.99,5.06-7.64,8-13.08,8.12
											c-5.44,0.12-10.67-2.1-15.37-4.83c-4.71-2.73-9.1-6.01-14-8.36c-4.91-2.35-10.55-3.72-15.81-2.32
											c-7.12,1.89-12.16,8.61-14.02,15.74c-1.86,7.13-1.06,14.66,0.05,21.94c1.11,7.28,2.51,14.63,1.82,21.96
											c-0.08,0.86-0.27,1.85-1.03,2.26c-1.09,0.6-2.35-0.43-3.15-1.38c-9.09-10.78-16.04-23.37-20.32-36.81
											c-2.48-7.81-3.85-15.4-0.87-23.03S261.17,90.49,267.49,93.59"/>
									</g>
								</g>
							</g>
						</g>
					</g>
				</g>
				<g>
					<g>
						<g>
							<g>
								<g>
									<g>
										<g>
											<g>
												<g>
													<g>
														<g>
															<g>
																<g>
																	<g>
																		<g>
																			<g>
																				<g>
																					<g>
																						<g>
																							<path style="fill:#FFBF9D;" d="M260.56,129.91l12.03,74.24c2.25,13.86,11.26,27.26,33.01,22.71l0,0
																								c18.58-5.37,17.2-18.74,14.78-35.21c0,0,0.06,0.64,0,0c0,0,20.44-5.32,18.61-26.1
																								c-0.88-10.04-4.39-30.58-7.78-49.12c-3.64-19.92-21.98-33.68-42.12-31.66l-2,0.2
																								C265.61,88.39,256.54,108.54,260.56,129.91z"/>
																						</g>
																					</g>
																				</g>
																			</g>
																		</g>
																	</g>
																</g>
															</g>
														</g>
													</g>
												</g>
											</g>
										</g>
										<g>
											<g>
												<g>
													<g>
														<g>
															<g>
																<g>
																	<g>
																		<g>
																			<g>
																				<g>
																					<g>
																						<g>
																							<path style="fill:#FF9A6C;" d="M320.38,191.64c0,0-13.01,2.08-27.83-5.27c0,0,8.15,15.44,28.67,11.49
																								L320.38,191.64z"/>
																						</g>
																					</g>
																				</g>
																			</g>
																		</g>
																	</g>
																</g>
															</g>
														</g>
													</g>
												</g>
											</g>
										</g>
									</g>
								</g>
							</g>
							<g>
								<g>
									<g>
										<g>
											<g>
												<g>
													<g>
														<g>
															<g>
																<g>
																	<g>
																		<g>
																			<g>
																				<g>
																					<g>
																						<g>
																							<g>
																								<g>
																									<g>
																										<path style="fill:#263238;" d="M324.17,137.21c0.21,1.56-0.93,3.03-2.56,3.28
																											c-1.62,0.25-3.11-0.81-3.32-2.37c-0.21-1.56,0.93-3.03,2.55-3.28
																											C322.47,134.59,323.96,135.65,324.17,137.21z"/>
																									</g>
																								</g>
																							</g>
																						</g>
																					</g>
																				</g>
																			</g>
																		</g>
																	</g>
																</g>
															</g>
														</g>
													</g>
													<g>
														<g>
															<g>
																<g>
																	<g>
																		<g>
																			<g>
																				<g>
																					<g>
																						<g>
																							<g>
																								<g>
																									<g>
																										<g>
																											<path style="fill:#263238;" d="M327.78,127.05c-0.33,0.42-2.74-1.01-5.93-0.68
																												c-3.19,0.28-5.37,2.16-5.75,1.8c-0.19-0.16,0.12-0.89,1.06-1.74c0.93-0.84,2.57-1.73,4.56-1.92
																												c1.99-0.19,3.73,0.37,4.77,1.03C327.54,126.19,327.94,126.86,327.78,127.05z"/>
																										</g>
																									</g>
																								</g>
																							</g>
																						</g>
																					</g>
																				</g>
																			</g>
																		</g>
																	</g>
																</g>
															</g>
														</g>
													</g>
												</g>
												<g>
													<g>
														<g>
															<g>
																<g>
																	<g>
																		<g>
																			<g>
																				<g>
																					<g>
																						<g>
																							<g>
																								<g>
																									<g>
																										<path style="fill:#263238;" d="M294.28,139.12c0.21,1.56-0.93,3.03-2.56,3.28
																											c-1.62,0.25-3.11-0.81-3.32-2.37c-0.21-1.56,0.93-3.03,2.55-3.28
																											C292.58,136.5,294.07,137.56,294.28,139.12z"/>
																									</g>
																								</g>
																							</g>
																						</g>
																					</g>
																				</g>
																			</g>
																		</g>
																	</g>
																</g>
															</g>
														</g>
													</g>
													<g>
														<g>
															<g>
																<g>
																	<g>
																		<g>
																			<g>
																				<g>
																					<g>
																						<g>
																							<g>
																								<g>
																									<g>
																										<g>
																											<path style="fill:#263238;" d="M296.48,130.8c-0.33,0.42-2.74-1.01-5.93-0.68
																												c-3.19,0.28-5.37,2.16-5.75,1.8c-0.19-0.16,0.11-0.89,1.06-1.73c0.93-0.84,2.57-1.73,4.55-1.92
																												c1.99-0.19,3.73,0.38,4.77,1.03C296.24,129.94,296.64,130.61,296.48,130.8z"/>
																										</g>
																									</g>
																								</g>
																							</g>
																						</g>
																					</g>
																				</g>
																			</g>
																		</g>
																	</g>
																</g>
															</g>
														</g>
													</g>
												</g>
												<g>
													<g>
														<g>
															<g>
																<g>
																	<g>
																		<g>
																			<g>
																				<g>
																					<g>
																						<g>
																							<g>
																								<g>
																									<g>
																										<path style="fill:#263238;" d="M310.44,153.29c-0.03-0.18,1.92-0.72,5.09-1.46
																											c0.81-0.17,1.56-0.41,1.64-0.98c0.13-0.61-0.3-1.45-0.79-2.36c-0.96-1.89-1.97-3.88-3.03-5.96
																											c-4.23-8.49-7.38-15.51-7.04-15.68c0.34-0.17,4.05,6.58,8.29,15.08c1.02,2.1,2,4.09,2.94,6.01
																											c0.4,0.89,1.04,1.89,0.74,3.15c-0.16,0.63-0.71,1.13-1.22,1.33c-0.51,0.21-0.96,0.27-1.36,0.33
																											C312.47,153.25,310.47,153.47,310.44,153.29z"/>
																									</g>
																								</g>
																							</g>
																						</g>
																					</g>
																				</g>
																			</g>
																		</g>
																	</g>
																</g>
															</g>
														</g>
													</g>
												</g>
											</g>
										</g>
									</g>
									<g>
										<g>
											<g>
												<g>
													<g>
														<g>
															<g>
																<g>
																	<g>
																		<g>
																			<g>
																				<g>
																					<g>
																						<path style="fill:#263238;" d="M296.05,118.22c-0.23,0.9-3.45,0.81-7.15,1.64c-3.71,0.75-6.62,2.15-7.2,1.42
																							c-0.26-0.35,0.18-1.22,1.32-2.18c1.12-0.96,2.98-1.95,5.2-2.43c2.22-0.47,4.31-0.32,5.73,0.1
																							C295.38,117.18,296.14,117.79,296.05,118.22z"/>
																					</g>
																				</g>
																			</g>
																		</g>
																	</g>
																</g>
															</g>
														</g>
													</g>
												</g>
											</g>
										</g>
									</g>
									<g>
										<g>
											<g>
												<g>
													<g>
														<g>
															<g>
																<g>
																	<g>
																		<g>
																			<g>
																				<g>
																					<g>
																						<path style="fill:#263238;" d="M325.67,117.94c-0.49,0.78-2.76,0.25-5.41,0.48
																							c-2.65,0.14-4.83,0.98-5.42,0.27c-0.26-0.35,0.02-1.11,0.92-1.89c0.89-0.78,2.45-1.5,4.27-1.63
																							c1.82-0.13,3.46,0.37,4.45,1.02C325.5,116.84,325.89,117.56,325.67,117.94z"/>
																					</g>
																				</g>
																			</g>
																		</g>
																	</g>
																</g>
															</g>
														</g>
													</g>
												</g>
											</g>
										</g>
									</g>
								</g>
							</g>
						</g>
					</g>
				</g>
				<g>
					<g>
						<g>
							<g>
								<g>
									<g>
										<g>
											<g>
												<g>
													<g>
														<g>
															<g>
																<g>
																	<g>
																		<path style="fill:#FFBF9D;" d="M263.8,145.11c-0.37-0.12-14.69-2.78-12.81,11.36
																			c1.88,14.15,15.69,9.34,15.66,8.93C266.63,164.99,263.8,145.11,263.8,145.11z"/>
																	</g>
																</g>
															</g>
														</g>
													</g>
												</g>
											</g>
										</g>
									</g>
								</g>
							</g>
						</g>
					</g>
					<g>
						<g>
							<g>
								<g>
									<g>
										<g>
											<g>
												<g>
													<g>
														<g>
															<g>
																<g>
																	<g>
																		<g>
																			<path style="fill:#FF9A6C;" d="M261.63,160.62c-0.07-0.04-0.22,0.21-0.61,0.45c-0.38,0.24-1.06,0.46-1.84,0.28
																				c-1.57-0.35-3.14-2.56-3.55-5.1c-0.21-1.28-0.1-2.54,0.22-3.62c0.29-1.09,0.87-1.9,1.6-2.14
																				c0.73-0.27,1.32,0.11,1.54,0.48c0.24,0.37,0.19,0.66,0.27,0.68c0.04,0.03,0.27-0.28,0.08-0.85
																				c-0.1-0.27-0.31-0.58-0.67-0.81c-0.38-0.23-0.89-0.31-1.41-0.18c-1.08,0.22-1.93,1.35-2.28,2.54
																				c-0.41,1.19-0.56,2.62-0.33,4.06c0.47,2.84,2.28,5.31,4.41,5.63c1.03,0.13,1.82-0.28,2.2-0.67
																				C261.65,160.96,261.68,160.63,261.63,160.62z"/>
																		</g>
																	</g>
																</g>
															</g>
														</g>
													</g>
												</g>
											</g>
										</g>
									</g>
								</g>
							</g>
						</g>
					</g>
				</g>
				<g>
					<path style="fill:#263238;" d="M329.52,97.06c-2.26-3.89-5.88-6.82-9.72-9.16c-8.29-5.04-18.11-7.71-27.78-6.89
						c-9.67,0.82-19.1,5.27-25.41,12.64c-5.05,5.9-7.97,13.45-8.9,21.16c-0.93,7.71,0.05,15.57,2.18,23.03
						c0.93,3.28,2.19,6.65,4.78,8.87c1.62,1.38,4.23,2.14,5.78,0.68c0.91-0.86,1.14-2.2,1.32-3.44c1.63-11.23,3.14-23.27-1.93-33.42
						c2.36-3.81,5.19-7.42,8.87-9.97c3.69-2.55,8.32-3.94,12.72-3.06c6.52,1.31,11.04,7.07,16.52,10.85
						c7.83,5.39,18.34,6.67,27.24,3.32L329.52,97.06z"/>
				</g>
			</g>
			<g>
				<g>
					<g>
						<g>
							<g>
								<path style="fill:#FF9A6C;" d="M313.24,161.91c-0.23,1.33-0.46,2.68-1.06,3.9c-0.6,1.21-1.61,2.29-2.92,2.63
									c-1.39,0.36-2.93-0.19-3.96-1.19c-1.03-1.01-1.6-2.41-1.83-3.83c-0.21-1.29,0.06-2.93,1.29-3.34
									c0.51-0.17,1.07-0.08,1.61,0.02c2.41,0.43,4.81,0.87,7.22,1.31"/>
							</g>
						</g>
					</g>
				</g>
				<g>
					<g>
						<g>
							<g>
								<g>
									<path style="fill:#263238;" d="M311.73,167.94c-0.08-0.2-1.41,0.7-3.64,0.3c-1.08-0.19-2.33-0.76-3.19-1.88
										c-0.86-1.1-1.32-2.74-1-4.33c0.07-0.39,0.22-0.77,0.37-1.12c0.21-0.33,0.16-0.31,0.46-0.33c0.29,0.02,0.77,0.13,1.15,0.2
										c0.4,0.07,0.8,0.15,1.19,0.22c1.54,0.28,2.94,0.51,4.11,0.69c2.35,0.36,3.82,0.5,3.85,0.33c0.03-0.16-1.38-0.6-3.68-1.17
										c-1.15-0.29-2.53-0.61-4.06-0.95c-0.39-0.08-0.78-0.17-1.18-0.26c-0.42-0.08-0.75-0.19-1.32-0.25
										c-0.28-0.02-0.65,0.02-0.98,0.23c-0.32,0.22-0.49,0.5-0.61,0.73c-0.21,0.46-0.39,0.92-0.48,1.42
										c-0.4,1.98,0.21,3.95,1.32,5.28c1.13,1.35,2.7,1.92,3.95,2.02c1.27,0.12,2.29-0.19,2.91-0.49
										C311.51,168.29,311.77,168,311.73,167.94z"/>
								</g>
							</g>
						</g>
					</g>
				</g>
			</g>
		</g>
		<g>
			<g>
				<path style="fill:#455A64;" d="M343.01,81.37c0.03-0.01,0.13,0.31,0.28,0.93c0.1,0.63,0.25,1.57,0.09,2.79
					c-0.23,2.39-1.63,5.97-5.13,8.69c-3.48,2.76-8.98,3.87-14.65,3.01c-5.74-0.79-11.48-3.55-17.49-6.02
					c-5.98-2.47-12.16-4.14-17.68-3.13c-5.52,0.94-9.8,4.11-12.61,7.22c-2.86,3.14-4.46,6.26-5.39,8.44
					c-0.91,2.21-1.22,3.5-1.31,3.48c-0.03-0.01,0.03-0.33,0.18-0.95c0.12-0.62,0.41-1.51,0.8-2.66c0.84-2.25,2.37-5.47,5.24-8.74
					c2.82-3.23,7.19-6.59,12.95-7.62c5.77-1.1,12.15,0.62,18.18,3.11c6.05,2.5,11.7,5.23,17.27,6.03c5.5,0.89,10.78-0.13,14.13-2.68
					c3.4-2.53,4.84-5.92,5.17-8.22C343.38,82.7,342.89,81.39,343.01,81.37z"/>
			</g>
		</g>
		<g>
			<g>
				<path style="fill:#455A64;" d="M250.13,124.47c-0.1-0.01-0.1-1.54,0.55-3.91c0.62-2.36,1.97-5.55,4.29-8.52
					c1.15-1.49,2.43-2.75,3.68-3.79c1.25-1.04,2.61-1.81,3.88-2.04c1.27-0.24,2.33,0.01,2.95,0.33c0.64,0.33,0.87,0.66,0.83,0.7
					c-0.04,0.14-1.36-0.98-3.65-0.39c-2.22,0.57-4.72,2.96-6.97,5.76c-2.24,2.86-3.63,5.89-4.4,8.14
					C250.51,123.01,250.28,124.49,250.13,124.47z"/>
			</g>
		</g>
		<g>
			<g>
				<path style="fill:#455A64;" d="M253.88,136.71c-0.1-0.02,0.03-1.55,0.8-3.9c0.76-2.34,2.29-5.46,4.72-8.37
					c2.44-2.9,5.24-4.96,7.41-6.13c2.17-1.18,3.66-1.57,3.69-1.48c0.06,0.14-1.32,0.75-3.36,2.04c-2.03,1.28-4.67,3.35-7.03,6.16
					c-2.35,2.82-3.91,5.78-4.82,8.01C254.38,135.28,254.03,136.75,253.88,136.71z"/>
			</g>
		</g>
	</g>
	<g>
		<g>
			<path style="fill:#455A64;" d="M330.08,216.82c0,0,15.17,19.57,18.82,26.92s29.81,88.56,29.81,88.56l-11.35,4.77L330.08,216.82z"
				/>
		</g>
		<g>
			<polygon style="fill:#EBEBEB;" points="269.05,198.5 269.05,188.69 324.17,206.61 338.93,230.25 350.31,263.26 318.41,215.31 			
				"/>
		</g>
		<g>
			<path style="fill:#455A64;" d="M265.77,207.93c0,0-23.39,27.98-22.88,46.16c0.5,17.91,24.79,126.74,24.79,126.74l-5.88,19.45
				l-6.37,64.82h132.49l-9.22-132.8c-1.47-0.09-29.05-76.11-29.05-76.11l-30.82-42.8l-50.75-18.29L265.77,207.93z"/>
		</g>
		<g>
			<path style="fill:#455A64;" d="M366.74,300.67c0,0,9.27-0.37,14.11,1.79c4.84,2.16,8.93,1.08,12.36,7.78
				c3.42,6.7,7.42,9.72,8.26,19.87c0.84,10.15-10.12,33.66-17.36,36.96C376.86,370.38,366.74,300.67,366.74,300.67z"/>
		</g>
		<g style="opacity:0.3;">
			<path d="M263.09,299.75c0,0,54.17,50.85,61.06,55.71c6.89,4.86,7.91,35.61,16.4,36.2c8.49,0.58,35.99-19.76,35.99-19.76
				l-81.49-76.77L263.09,299.75z"/>
		</g>
		<g>
			<g>
				<path style="fill:#FFBF9D;" d="M339.37,345.28c0,0-11.78,15.08-13.13,18.85c-1.35,3.78-2.66,6.29-1.22,7.55s2.69,1.41,4.13,0.86
					c1.92-0.73,11.39-13.22,11.39-13.22s-12.56,17.91-13.13,21c-0.57,3.11,1.89,4.59,4.77,4.05c2.88-0.54,8.36-8.64,8.36-8.64
					s-7.77,9-6.13,10.53c1.64,1.53,3.53,1.71,5.69,0.63c2.16-1.08,7.65-8.19,7.65-8.19s-3.78,4.05-1.71,5.04
					c2.07,0.99,2.25,1.1,4.05-0.4c1.8-1.49,17.68-17.04,17.68-17.04l-10.03-6.85L339.37,345.28z"/>
			</g>
			<g>
				<g>
					<path style="fill:#FF9A6C;" d="M344.2,354.49c0.06,0.05-0.67,1-1.85,2.53c-1.27,1.66-2.85,3.71-4.59,5.98
						c-1.81,2.33-3.5,4.4-4.77,5.86c-1.27,1.46-2.11,2.31-2.16,2.27c-0.06-0.05,0.68-0.99,1.88-2.5c1.28-1.65,2.88-3.69,4.64-5.95
						c1.8-2.33,3.46-4.42,4.72-5.89C343.32,355.31,344.15,354.44,344.2,354.49z"/>
				</g>
			</g>
			<g>
				<g>
					<path style="fill:#FF9A6C;" d="M352.55,361.71c0.11,0.09-2.7,3.59-6.28,7.82c-3.58,4.22-6.57,7.57-6.68,7.48
						c-0.11-0.09,2.7-3.59,6.28-7.82C349.45,364.97,352.44,361.62,352.55,361.71z"/>
				</g>
			</g>
			<g>
				<g>
					<path style="fill:#FF9A6C;" d="M359.24,366.24c0.11,0.1-2.84,3.49-6.58,7.57c-3.74,4.09-6.86,7.32-6.97,7.22
						c-0.11-0.1,2.84-3.49,6.58-7.57C356.01,369.37,359.13,366.14,359.24,366.24z"/>
				</g>
			</g>
		</g>
		<g>
			<g>
				<path style="fill:#455A64;" d="M272.94,225.34c7.61-1.61,17.27-2.29,24.63,1.88l40.19,36.26c0,0,56.65,63.55,58.87,67.1
					c2.22,3.54,5.21,24.46-3.37,35.12c-8.58,10.66-18.22,6.56-29.23,4.05c-8.72-1.99-69.63-46.74-94.66-65.33
					c-8.66-6.43-15.01-15.53-17.8-25.95c-1.67-6.25-2.77-13.49-2.02-20.66"/>
			</g>
			<g>
				<g>
					<path style="fill:#263238;" d="M249.55,257.8c0,0-0.01,0.35-0.07,1.04c-0.05,0.69-0.1,1.72-0.12,3.06
						c-0.02,2.69,0.18,6.68,1.18,11.71c0.51,2.51,1.17,5.28,2.2,8.22c1.02,2.94,2.48,6.01,4.38,9.1c1.92,3.07,4.32,6.16,7.28,9.03
						c2.91,2.92,6.53,5.37,10.2,8.12c14.75,10.87,32.35,23.78,52.16,37.73c4.96,3.48,10.06,7.02,15.31,10.56
						c5.26,3.53,10.65,7.13,16.34,10.43c1.43,0.8,2.87,1.62,4.39,2.25c0.74,0.33,1.52,0.51,2.35,0.7l2.44,0.59
						c3.25,0.81,6.53,1.64,9.89,1.96c3.34,0.29,6.85-0.08,9.81-1.79c2.97-1.64,5.46-4.2,7.25-7.13c2.89-5,3.95-10.81,4.14-16.43
						c0.1-2.83,0-5.65-0.35-8.42c-0.17-1.39-0.4-2.76-0.69-4.11c-0.35-1.32-0.63-2.72-1.35-3.83c-1.64-2.16-3.5-4.25-5.25-6.32
						c-1.79-2.06-3.56-4.11-5.32-6.14c-3.54-4.04-7.03-8.02-10.45-11.92c-13.76-15.54-26.46-29.9-37.68-42.57l0.02,0.02
						c-16.61-15.03-30.31-27.43-40.14-36.32l0.02,0.02c-3.57-2-7.2-2.7-10.29-3c-3.11-0.27-5.76-0.12-7.88,0.07
						c-2.12,0.21-3.71,0.48-4.78,0.66c-0.53,0.1-0.92,0.17-1.21,0.22c-0.27,0.05-0.41,0.06-0.41,0.06s0.54-0.13,1.6-0.35
						c1.07-0.2,2.66-0.49,4.78-0.72c2.12-0.21,4.77-0.39,7.91-0.13c3.11,0.28,6.78,0.97,10.4,2.98l0.01,0.01l0.01,0.01
						c9.86,8.86,23.59,21.22,40.25,36.2l0.01,0.01l0.01,0.01c11.27,12.63,24.02,26.95,37.75,42.52c3.42,3.9,6.91,7.87,10.46,11.92
						c1.76,2.03,3.54,4.08,5.33,6.14c1.77,2.09,3.59,4.12,5.3,6.37c0.22,0.28,0.34,0.64,0.51,0.95c0.14,0.33,0.24,0.67,0.36,1
						c0.23,0.67,0.38,1.36,0.55,2.04c0.3,1.37,0.53,2.76,0.7,4.17c0.35,2.8,0.46,5.65,0.35,8.5c-0.2,5.68-1.26,11.56-4.22,16.68
						c-1.85,3.02-4.37,5.61-7.45,7.32c-3.07,1.77-6.71,2.14-10.1,1.85c-3.42-0.32-6.72-1.17-9.97-1.97l-2.44-0.59
						c-0.8-0.18-1.65-0.39-2.43-0.73c-1.56-0.65-3-1.47-4.44-2.28c-5.72-3.32-11.1-6.93-16.37-10.46
						c-5.26-3.55-10.35-7.1-15.31-10.58c-19.8-13.97-37.37-26.92-52.1-37.82c-3.65-2.75-7.29-5.22-10.21-8.18
						c-2.96-2.9-5.37-6.01-7.29-9.11c-1.9-3.12-3.36-6.21-4.37-9.17c-1.02-2.96-1.67-5.74-2.16-8.26
						c-0.97-5.04-1.14-9.05-1.09-11.75C249.32,259.21,249.55,257.8,249.55,257.8z"/>
				</g>
			</g>
		</g>
		<g>
			<g>
				<path style="fill:#263238;" d="M351.45,260.85c-0.01,0.01-0.08-0.04-0.23-0.15c-0.17-0.12-0.38-0.28-0.64-0.47
					c-0.55-0.43-1.4-1.02-2.41-1.9c-2.06-1.68-4.9-4.29-8.29-7.62c-3.39-3.33-7.31-7.41-11.76-11.84c-2.24-2.19-4.6-4.5-7.17-6.74
					c-2.56-2.25-5.28-4.51-8.3-6.49c-1.21-0.88-2.54-1.55-3.77-2.3l-0.17-0.1l0.04-0.18c0.21-0.91,0.41-1.81,0.61-2.69l0.17,0.3
					c-12.2-3.84-22.99-7.24-30.78-9.69c-3.84-1.23-6.93-2.22-9.11-2.92c-1.04-0.34-1.85-0.61-2.45-0.81
					c-0.26-0.09-0.46-0.16-0.63-0.22c-0.14-0.05-0.21-0.08-0.21-0.09c0-0.01,0.08,0.01,0.22,0.04c0.17,0.05,0.38,0.1,0.65,0.18
					c0.6,0.18,1.43,0.42,2.48,0.72c2.19,0.66,5.3,1.61,9.16,2.77c7.8,2.41,18.6,5.75,30.83,9.52l0.23,0.07l-0.05,0.23
					c-0.2,0.88-0.4,1.78-0.61,2.69l-0.13-0.29c1.25,0.76,2.59,1.44,3.81,2.32c3.05,2,5.79,4.27,8.35,6.54
					c2.58,2.26,4.93,4.58,7.17,6.78c4.44,4.45,8.33,8.56,11.69,11.92c3.35,3.36,6.14,6.01,8.16,7.73c0.98,0.9,1.81,1.51,2.34,1.97
					c0.25,0.21,0.45,0.38,0.61,0.51C351.39,260.78,351.46,260.85,351.45,260.85z"/>
			</g>
		</g>
		<g>
			<g>
				<path style="fill:#263238;" d="M371.34,301.79c-0.02,0.07-0.44-0.71-1.13-2.05c-0.71-1.42-1.7-3.37-2.89-5.75
					c-2.42-4.86-5.72-11.6-9.34-19.06c-3.62-7.46-6.86-14.23-9.18-19.14c-1.13-2.41-2.05-4.39-2.72-5.83
					c-0.29-0.65-0.53-1.18-0.71-1.6c-0.16-0.37-0.23-0.56-0.22-0.57s0.12,0.17,0.31,0.53c0.21,0.41,0.48,0.92,0.8,1.55
					c0.71,1.42,1.68,3.37,2.87,5.76c2.41,4.94,5.69,11.65,9.32,19.07c3.58,7.44,6.82,14.18,9.2,19.13c1.14,2.41,2.07,4.38,2.75,5.82
					C371.03,301.02,371.39,301.82,371.34,301.79z"/>
			</g>
		</g>
		<g>
			<g>
				<path style="fill:#263238;" d="M277.71,411.49c0.01-0.01,0.13,0,0.36,0.01c0.26,0.02,0.6,0.04,1.03,0.07
					c0.93,0.08,2.25,0.18,3.96,0.32c3.46,0.3,8.43,0.73,14.62,1.26c12.41,1.11,29.68,2.65,49.29,4.4l-0.27,0.32
					c-1.02-4.13-2.09-8.44-3.18-12.84c-0.5-2.02-0.99-4.01-1.48-5.96l0.22,0.2c-22.03-2.56-41.6-4.83-55.19-6.4l0.17-0.09
					c-3.24,5.74-5.74,10.38-7.37,13.6c-0.81,1.61-1.41,2.87-1.76,3.75c-0.18,0.44-0.3,0.77-0.35,1.01
					C277.69,411.37,277.72,411.48,277.71,411.49c-0.04,0.02-0.05-0.52,0.31-1.4c0.33-0.89,0.89-2.17,1.68-3.79
					c1.58-3.25,4.03-7.92,7.24-13.69l0.06-0.1l0.11,0.01c13.6,1.53,33.18,3.74,55.21,6.23l0.18,0.02l0.04,0.18
					c0.48,1.95,0.98,3.95,1.48,5.96c1.09,4.4,2.16,8.72,3.18,12.84l0.09,0.35l-0.36-0.03c-19.66-1.84-36.98-3.46-49.42-4.62
					c-6.17-0.6-11.12-1.07-14.56-1.41c-1.68-0.17-2.99-0.3-3.9-0.4c-0.42-0.05-0.75-0.08-1-0.11
					C277.81,411.52,277.7,411.5,277.71,411.49z"/>
			</g>
		</g>
		<g style="opacity:0.3;">
			<polygon points="279.5,411.66 281.87,417.82 346.94,421.7 346.94,417.82 			"/>
		</g>
	</g>
</g>
<g id="Character_1">
	<g>
		<g>
			<g>
				<path style="fill:#263238;" d="M190.03,101.56c-0.2-3.48-3.09-6.39-6.41-7.44s-6.96-0.52-10.26,0.58
					c-7.21,2.39-13.27,7.3-19.15,12.1c-9.13,7.46-18,17.69-21.48,28.95c-2.63,8.48-3.39,14.02-0.69,23.04
					c2.39,7.98,4.28,15.71,3.8,22.38c-0.75,10.55-2.03,13.03-4.74,23.38c-1.7,6.48,4.07,23.4,4.07,23.4l36.49-13.96
					c13.03-6.12,41.07-17.54,41.07-17.54L190.03,101.56z"/>
			</g>
			<g>
				<g>
					<g>
						<g>
							<g>
								<g>
									<g>
										<g>
											<g>
												<g>
													<g>
														<g>
															<g>
																<g>
																	<g>
																		<g>
																			<g>
																				<g>
																					<g>
																						<g>
																							<g>
																								<path style="fill:#B56760;" d="M169.51,225.29c0.06-8.87,0.15-15.05,0.14-14.99c0,0-15.93-3.68-19.14-26.4
																									c-1.6-11.3-2.43-29.27-1.22-44.36c1.09-13.58,10.39-30.11,23.91-28.44l42.12,11.42
																									c4.11,0.51,5.48,4.01,5.33,8.15l0.31,1.94l-3.09,64.87l1.33,27.59c-0.54,12.33-12.74,23.54-25.06,24.1l0,0
																									C180.5,249.8,169.42,238.94,169.51,225.29z"/>
																							</g>
																						</g>
																					</g>
																				</g>
																			</g>
																		</g>
																	</g>
																</g>
															</g>
														</g>
													</g>
													<g>
														<g>
															<g>
																<g>
																	<g>
																		<g>
																			<g>
																				<g>
																					<g>
																						<g>
																							<g>
																								<g>
																									<path style="fill:#263238;" d="M158.83,157.63c-0.08,1.53,1.15,2.87,2.75,2.98
																										c1.6,0.11,2.96-1.04,3.04-2.57c0.08-1.53-1.15-2.87-2.75-2.98C160.27,154.95,158.91,156.1,158.83,157.63z"
																										/>
																								</g>
																							</g>
																						</g>
																					</g>
																				</g>
																			</g>
																		</g>
																	</g>
																</g>
															</g>
														</g>
														<g>
															<g>
																<g>
																	<g>
																		<g>
																			<g>
																				<g>
																					<g>
																						<g>
																							<g>
																								<g>
																									<g>
																										<path style="fill:#263238;" d="M155.01,149.76c0.35,0.38,2.58-1.21,5.71-1.14
																											c3.13,0.02,5.39,1.67,5.74,1.29c0.17-0.17-0.19-0.86-1.17-1.6c-0.97-0.74-2.64-1.47-4.59-1.5
																											c-1.95-0.02-3.6,0.67-4.55,1.38C155.17,148.9,154.83,149.58,155.01,149.76z"/>
																									</g>
																								</g>
																							</g>
																						</g>
																					</g>
																				</g>
																			</g>
																		</g>
																	</g>
																</g>
															</g>
														</g>
													</g>
													<g>
														<g>
															<g>
																<g>
																	<g>
																		<g>
																			<g>
																				<g>
																					<g>
																						<g>
																							<g>
																								<g>
																									<path style="fill:#263238;" d="M188.1,157.29c-0.08,1.53,1.15,2.87,2.75,2.98
																										c1.6,0.11,2.96-1.03,3.04-2.57c0.08-1.53-1.15-2.87-2.75-2.98C189.54,154.6,188.18,155.75,188.1,157.29z"
																										/>
																								</g>
																							</g>
																						</g>
																					</g>
																				</g>
																			</g>
																		</g>
																	</g>
																</g>
															</g>
														</g>
														<g>
															<g>
																<g>
																	<g>
																		<g>
																			<g>
																				<g>
																					<g>
																						<g>
																							<g>
																								<g>
																									<g>
																										<path style="fill:#263238;" d="M185,149.67c0.35,0.38,2.59-1.21,5.71-1.14c3.12,0.02,5.39,1.67,5.74,1.29
																											c0.17-0.17-0.18-0.86-1.17-1.6c-0.97-0.74-2.64-1.48-4.59-1.5c-1.95-0.02-3.6,0.67-4.55,1.38
																											C185.17,148.81,184.83,149.49,185,149.67z"/>
																									</g>
																								</g>
																							</g>
																						</g>
																					</g>
																				</g>
																			</g>
																		</g>
																	</g>
																</g>
															</g>
														</g>
													</g>
													<g>
														<g>
															<g>
																<g>
																	<g>
																		<g>
																			<g>
																				<g>
																					<g>
																						<g>
																							<g>
																								<g>
																									<path style="fill:#263238;" d="M172.45,173.32c0.02-0.18-1.92-0.55-5.06-1c-0.8-0.1-1.55-0.27-1.68-0.81
																										c-0.18-0.58,0.17-1.44,0.57-2.36c0.78-1.92,1.61-3.93,2.47-6.04c3.43-8.6,5.93-15.68,5.58-15.82
																										c-0.35-0.13-3.41,6.73-6.84,15.33c-0.83,2.12-1.62,4.14-2.37,6.08c-0.32,0.9-0.86,1.92-0.47,3.13
																										c0.2,0.6,0.78,1.04,1.29,1.19c0.51,0.17,0.96,0.18,1.35,0.21C170.47,173.45,172.43,173.5,172.45,173.32z"
																										/>
																								</g>
																							</g>
																						</g>
																					</g>
																				</g>
																			</g>
																		</g>
																	</g>
																</g>
															</g>
														</g>
													</g>
													<g>
														<g>
															<g>
																<g>
																	<g>
																		<g>
																			<g>
																				<g>
																					<g>
																						<g>
																							<g>
																								<path style="fill:#8A4A43;" d="M169.65,210.3c0,0,15.23,1.24,30.49-7.58c0,0-7.93,15.87-30.58,13.35
																									L169.65,210.3z"/>
																							</g>
																						</g>
																					</g>
																				</g>
																			</g>
																		</g>
																	</g>
																</g>
															</g>
														</g>
													</g>
												</g>
											</g>
										</g>
										<g>
											<g>
												<g>
													<g>
														<g>
															<g>
																<g>
																	<g>
																		<g>
																			<g>
																				<g>
																					<path style="fill:#263238;" d="M184,138.61c0.37,0.83,3.45,0.21,7.15,0.4c3.7,0.12,6.72,0.99,7.16,0.19
																						c0.19-0.38-0.38-1.14-1.63-1.88c-1.24-0.74-3.18-1.39-5.4-1.48c-2.21-0.09-4.2,0.4-5.5,1.03
																						C184.47,137.5,183.84,138.21,184,138.61z"/>
																				</g>
																			</g>
																		</g>
																	</g>
																</g>
															</g>
														</g>
													</g>
												</g>
											</g>
										</g>
										<g>
											<g>
												<g>
													<g>
														<g>
															<g>
																<g>
																	<g>
																		<g>
																			<g>
																				<g>
																					<path style="fill:#263238;" d="M154.13,139.99c0.64,0.72,3.2,0.03,6.27,0.05c3.07-0.07,5.65,0.57,6.26-0.16
																						c0.27-0.36-0.13-1.07-1.25-1.77c-1.11-0.69-2.97-1.27-5.07-1.25c-2.11,0.02-3.94,0.63-5.02,1.34
																						C154.22,138.91,153.85,139.64,154.13,139.99z"/>
																				</g>
																			</g>
																		</g>
																	</g>
																</g>
															</g>
														</g>
													</g>
												</g>
											</g>
										</g>
									</g>
								</g>
							</g>
						</g>
					</g>
				</g>
			</g>
			<g>
				<path style="fill:#8A4A43;" d="M173.19,181.03c0.71-1.31,3.31-3.17,6.06-2.78l0,0c0.08,0,0.15,0,0.22,0
					c1.3,0.1,2.59,0.89,3.05,2.11c0.42,1.12,0.09,2.43-0.65,3.36c-0.75,0.93-1.86,1.52-3.01,1.83c-1.49,0.4-3.17,0.36-4.45-0.5
					C173.13,184.2,172.46,182.39,173.19,181.03z"/>
			</g>
			<g>
				<path style="fill:#263238;" d="M181.94,176.29c-0.15-0.03-0.35,0.79-0.93,1.95c-0.57,1.16-1.61,2.66-3.2,3.77
					c-1.6,1.11-3.37,1.56-4.65,1.69c-1.29,0.14-2.12,0.03-2.15,0.19c-0.03,0.12,0.77,0.49,2.18,0.53c1.39,0.05,3.41-0.32,5.21-1.57
					c1.8-1.25,2.85-3.01,3.29-4.33C182.13,177.19,182.06,176.3,181.94,176.29z"/>
			</g>
			<g>
				<path style="fill:#263238;" d="M148.71,165.71l-4.7-19c-4.22-5.82-0.92-15.32,2.07-21.85c2.99-6.54,8.69-11.54,15.03-14.92
					c6.34-3.38,13.35-5.29,20.33-7.01c-2.59,8.47-9.11,16.65-16.75,21.14c0,0-11.57,7.91-13.66,17.23
					C148.76,151.49,148.71,165.71,148.71,165.71z"/>
			</g>
			<g>
				<path style="fill:#263238;" d="M175.07,114.93l33.07,19.87c0,0,1.02,15.06,7.05,29.74c6.1-5.22,9.87,4.84,11.7-2.89
					c0.1-0.4-1.68,16.22-8.07,16.74l-1.05,18.07l31.54-7.75c0,0-1.7-21.91-7.08-35.19c-3.35-8.26-5.12-15.19-8.42-23.47
					c-2.5-6.27-6.94-15.64-10.28-20.1c-7.17-9.58-33.69-10-33.69-10c-11.69,2.76-3.82,1.44-13.67,8.33l-3.37,9.04"/>
			</g>
			<g>
				<g>
					<g>
						<g>
							<g>
								<g>
									<g>
										<g>
											<g>
												<g>
													<g>
														<path style="fill:#B56760;" d="M215.18,164.41c-0.02-4.78,5.09-8.24,9.43-6.09c2.38,1.18,4.3,3.72,4.37,8.79
															c0.19,13.51-13.68,10.93-13.71,10.54C215.25,177.41,215.21,170.01,215.18,164.41z"/>
													</g>
												</g>
											</g>
										</g>
									</g>
								</g>
							</g>
						</g>
					</g>
				</g>
			</g>
			<g>
				<g>
					<g>
						<g>
							<g>
								<g>
									<g>
										<g>
											<g>
												<g>
													<g>
														<g>
															<path style="fill:#8A4A43;" d="M219.4,172.47c0.06-0.04,0.24,0.16,0.65,0.34c0.4,0.17,1.08,0.28,1.79,0.01
																c1.45-0.55,2.64-2.83,2.68-5.27c0.02-1.23-0.26-2.4-0.72-3.36c-0.43-0.98-1.09-1.66-1.83-1.78
																c-0.73-0.15-1.24,0.28-1.41,0.67c-0.18,0.38-0.09,0.65-0.16,0.67c-0.04,0.03-0.3-0.22-0.2-0.78
																c0.05-0.27,0.21-0.59,0.53-0.85c0.33-0.27,0.81-0.41,1.32-0.36c1.06,0.06,2.03,1,2.54,2.06
																c0.56,1.06,0.9,2.37,0.88,3.76c-0.05,2.72-1.44,5.29-3.42,5.89c-0.97,0.26-1.78-0.01-2.2-0.33
																C219.43,172.8,219.36,172.5,219.4,172.47z"/>
														</g>
													</g>
												</g>
											</g>
										</g>
									</g>
								</g>
							</g>
						</g>
					</g>
				</g>
			</g>
			<g>
				<g>
					<path style="fill:#455A64;" d="M190.84,99.9c0.03,0.02-0.17,0.31-0.57,0.81c-0.41,0.49-1.03,1.17-1.84,1.98
						c-1.6,1.62-3.91,3.74-6.47,6.07c-2.56,2.33-4.86,4.45-6.5,6.02c-1.64,1.57-2.61,2.58-2.67,2.53c-0.03-0.02,0.19-0.3,0.59-0.79
						c0.4-0.49,1.03-1.17,1.81-1.99c1.57-1.64,3.84-3.81,6.41-6.15c2.51-2.28,4.78-4.33,6.57-5.95
						C189.86,100.9,190.78,99.85,190.84,99.9z"/>
				</g>
			</g>
			<g>
				<g>
					<path style="fill:#455A64;" d="M154.05,111.35c-0.02-0.02,0.28-0.4,0.88-1.04c0.6-0.64,1.52-1.53,2.75-2.51
						c2.45-1.96,6.25-4.26,10.93-5.5c2.32-0.62,4.74-0.77,6.78-0.09c2.03,0.64,3.58,2.05,4.21,3.55c0.64,1.5,0.49,2.89,0.19,3.72
						c-0.14,0.43-0.33,0.72-0.46,0.92c-0.14,0.19-0.22,0.28-0.24,0.27c-0.05-0.03,0.28-0.41,0.5-1.24c0.23-0.81,0.3-2.12-0.34-3.51
						c-0.62-1.38-2.09-2.66-4.01-3.25c-1.93-0.62-4.23-0.47-6.5,0.13c-4.59,1.22-8.35,3.43-10.83,5.29
						C155.42,109.97,154.13,111.42,154.05,111.35z"/>
				</g>
			</g>
			<g>
				<g>
					<path style="fill:#455A64;" d="M146.49,124.95c-0.02-0.03,0.28-0.37,0.87-0.97c0.58-0.6,1.44-1.46,2.52-2.49
						c2.17-2.04,5.26-4.86,9.28-7.12c2.01-1.09,4.04-2.01,6.04-2.33c1.99-0.35,3.9-0.02,5.22,0.79c1.33,0.78,2.08,1.85,2.4,2.64
						c0.15,0.4,0.23,0.72,0.25,0.94c0.02,0.22,0.02,0.34,0.01,0.34c-0.05,0.01-0.09-0.46-0.44-1.2c-0.36-0.73-1.11-1.7-2.4-2.4
						c-1.27-0.71-3.06-0.99-4.96-0.63c-1.91,0.33-3.89,1.24-5.87,2.32c-3.95,2.22-7.05,4.97-9.28,6.93
						c-1.05,0.94-1.93,1.74-2.63,2.36C146.87,124.68,146.51,124.97,146.49,124.95z"/>
				</g>
			</g>
			<g>
				<path style="fill:#455A64;" d="M225.65,178.97c0.09,2.61-1.95,4.79-4.56,4.88c-2.61,0.09-4.79-1.95-4.88-4.56
					c-0.09-2.61,1.95-4.79,4.56-4.88C223.38,174.32,225.56,176.36,225.65,178.97z"/>
			</g>
		</g>
		<g>
			<g>
				<path style="fill:#FF725E;fill: var(--primary_color_light20);" d="M139.02,314.05c-1.13,0.76-13.6,3.78-16.63,11.71c-3.02,7.93-19.06,24.06-7.45,39.8l24.08-13.35
					V314.05z"/>
				<path style="fill:#263238;" d="M114.94,365.6l-0.01-0.02c-2.11-2.86-3.43-5.93-3.93-9.13c-0.44-2.81-0.27-5.7,0.51-8.84
					c1.43-5.71,4.68-11.04,7.29-15.32c1.55-2.55,2.9-4.75,3.58-6.54c2.47-6.49,11.26-9.7,15.01-11.07c0.83-0.3,1.42-0.52,1.63-0.66
					l0.04-0.03v38.22l-0.01,0.01L114.94,365.6z M139,314.09c-0.24,0.14-0.82,0.35-1.6,0.64c-3.74,1.37-12.51,4.57-14.98,11.04
					c-0.69,1.8-2.03,4-3.58,6.55c-2.61,4.28-5.85,9.6-7.28,15.3c-0.78,3.13-0.95,6.01-0.51,8.82c0.5,3.18,1.81,6.24,3.91,9.09
					L139,352.19V314.09z"/>
			</g>
			<g>
				<polygon style="fill:#E0E0E0;" points="166.8,248.28 168.77,221.05 218.33,200.37 220.09,210.53 186.33,227.71 				"/>
			</g>
			<g>
				<path style="fill:#FF725E;fill: var(--primary_color_light20);" d="M220.09,204.54c0,0-30.36,12.28-43.83,24.28c-12.67,11.29-39,55.76-41.82,67.89
					c-2.82,12.13-2.27,45.69-2.27,45.69s-0.07,34.62-0.07,35.46c0,0.85-21.72,56.7-17.77,87.16h123.83c0,0,3.67-42.87-4.8-59.52
					c-8.46-16.64-8.74-13.26-8.74-13.26s5.08-5.64,4.51-10.72c-0.56-5.08-3.67-9.31-3.67-9.31l21.72-67.7c0,0,2.26-34.13-3.67-56.98
					c-5.55-21.42-7.62-20.21-14.56-27.06c-0.15-0.15,0.09,0.19,0,0l-6.31-5.18L220.09,204.54z"/>
			</g>
			<g>
				<g>
					<path style="fill:#FF725E;fill: var(--primary_color_light10);" d="M139.02,411.49c-0.39-1.46,9.38-18.79,9.38-18.79l55.97,9.4l3.9,15.73L139.02,411.49z"/>
				</g>
				<g>
					<g>
						<path style="fill:#263238;" d="M139.02,411.49c0.01-0.01,0.13,0,0.36,0.01c0.26,0.02,0.6,0.04,1.03,0.07
							c0.93,0.08,2.26,0.18,3.96,0.32c3.46,0.3,8.44,0.73,14.63,1.26c12.41,1.11,29.69,2.65,49.27,4.4l-0.27,0.32
							c-0.95-3.81-1.94-7.81-2.94-11.88c-0.32-1.3-0.64-2.59-0.95-3.85l0.21,0.19c-22.31-3.78-42.2-7.15-55.95-9.48l0.18-0.09
							c-3.24,5.74-5.74,10.37-7.37,13.6c-0.81,1.61-1.41,2.88-1.76,3.75c-0.18,0.44-0.3,0.77-0.35,1.01
							C139.01,411.37,139.04,411.48,139.02,411.49c-0.04,0.02-0.05-0.52,0.31-1.4c0.33-0.89,0.9-2.17,1.68-3.8
							c1.58-3.26,4.03-7.92,7.23-13.68l0.06-0.11l0.12,0.02c13.76,2.29,33.66,5.6,55.98,9.31l0.17,0.03l0.04,0.17
							c0.31,1.25,0.63,2.55,0.95,3.85c1.01,4.07,2,8.07,2.94,11.88l0.09,0.35l-0.36-0.03c-19.63-1.84-36.95-3.46-49.39-4.62
							c-6.17-0.6-11.13-1.08-14.58-1.41c-1.68-0.17-2.99-0.3-3.91-0.4c-0.42-0.05-0.76-0.08-1-0.11
							C139.13,411.52,139.02,411.5,139.02,411.49z"/>
					</g>
				</g>
			</g>
			<g style="opacity:0.3;">
				<g>
					<path d="M127,384.6l1.25,10.14c8.93,6.32,21.55,5.12,31.09-0.22c9.54-5.34,16.63-14.11,23.18-22.87
						c19.84-26.55,37.13-55.22,48.92-86.2C200.69,322.38,158.07,347.92,127,384.6z"/>
				</g>
			</g>
			<g>
				<g>
					<path style="fill:#FF725E;fill: var(--primary_color_light20);" d="M226.98,233.19c10.39,8.27,19.45,34.15,3.36,56.52c0,0-70.3,95.38-81.94,102.99
						c-11.64,7.61-27.31,3.13-31.79-8.06c-4.48-11.19-2.69-21.94,3.58-29.55c6.27-7.61,47.46-80.15,47.46-80.15
						s9.4-33.62,25.4-43.39"/>
				</g>
				<g>
					<g>
						<path style="fill:#263238;" d="M193.06,231.55c0,0-0.24,0.18-0.72,0.51c-0.49,0.31-1.18,0.84-2.08,1.55
							c-1.77,1.45-4.17,3.86-6.77,7.4c-5.18,7.07-11.06,18.62-15.66,33.97l-0.01,0.02l-0.01,0.02
							c-9.04,15.91-20.33,35.72-33.46,57.95c-3.31,5.54-6.7,11.26-10.36,17.01c-0.95,1.42-1.82,2.89-2.88,4.28
							c-0.51,0.71-1.03,1.4-1.55,2.07c-0.52,0.68-0.98,1.41-1.43,2.15c-0.89,1.48-1.6,3.07-2.21,4.7c-0.55,1.65-0.99,3.36-1.24,5.11
							c-0.48,3.49-0.34,7.11,0.45,10.62c0.2,0.88,0.41,1.76,0.69,2.62c0.24,0.87,0.57,1.72,0.88,2.57c0.31,0.85,0.75,1.64,1.13,2.46
							l0.74,1.14c0.24,0.38,0.49,0.76,0.8,1.1c2.29,2.81,5.42,5.01,8.94,6.17c3.5,1.18,7.33,1.56,11.04,0.95
							c3.42-0.56,6.7-1.89,9.48-3.87c2.67-2.12,4.95-4.74,7.25-7.25c4.54-5.09,8.82-10.28,12.99-15.42
							c8.32-10.28,16.15-20.35,23.57-29.98c7.41-9.63,14.39-18.84,20.89-27.47c3.24-4.32,6.37-8.5,9.38-12.52
							c1.5-2.01,2.97-3.98,4.4-5.91c1.42-1.94,2.9-3.78,4.08-5.74c2.61-3.77,4.31-7.84,5.59-11.75c0.27-0.99,0.54-1.98,0.81-2.94
							c0.27-0.97,0.36-1.95,0.55-2.91c0.41-1.91,0.43-3.8,0.59-5.61c0.23-7.29-1.27-13.52-3.12-18.28
							c-1.87-4.78-4.18-8.11-5.93-10.15c-0.45-0.5-0.81-0.98-1.18-1.33c-0.37-0.35-0.69-0.64-0.95-0.88
							c-0.51-0.47-0.76-0.73-0.76-0.73s0.27,0.23,0.79,0.69c0.26,0.23,0.58,0.52,0.97,0.86c0.38,0.34,0.75,0.82,1.21,1.32
							c1.78,2.03,4.13,5.34,6.04,10.14c1.89,4.77,3.43,11.03,3.22,18.37c-0.16,1.82-0.17,3.73-0.58,5.65
							c-0.18,0.96-0.28,1.96-0.54,2.93c-0.26,0.97-0.53,1.96-0.8,2.97c-1.28,3.94-2.98,8.05-5.59,11.86
							c-1.19,1.98-2.67,3.82-4.08,5.77c-1.43,1.93-2.9,3.91-4.39,5.92c-3,4.02-6.12,8.2-9.36,12.53
							c-6.49,8.65-13.45,17.86-20.85,27.5c-7.41,9.64-15.23,19.72-23.55,30.01c-4.17,5.14-8.45,10.34-13,15.44
							c-1.13,1.28-2.31,2.53-3.5,3.78c-1.22,1.23-2.42,2.47-3.83,3.54c-2.86,2.04-6.2,3.39-9.7,3.97c-3.8,0.62-7.71,0.24-11.29-0.98
							c-3.6-1.19-6.82-3.44-9.18-6.34c-0.32-0.34-0.58-0.73-0.83-1.13l-0.76-1.17c-0.39-0.84-0.85-1.67-1.17-2.53
							c-0.31-0.87-0.65-1.72-0.89-2.61c-0.28-0.87-0.5-1.76-0.69-2.66c-0.8-3.57-0.94-7.25-0.45-10.81c0.25-1.78,0.7-3.52,1.27-5.2
							c0.62-1.66,1.35-3.29,2.26-4.79c0.46-0.75,0.93-1.49,1.46-2.19c0.54-0.69,1.06-1.39,1.55-2.08c1.03-1.35,1.92-2.83,2.86-4.24
							c3.65-5.74,7.05-11.45,10.37-16.98c13.16-22.21,24.48-41.99,33.57-57.88l-0.02,0.04c4.66-15.38,10.6-26.93,15.84-33.99
							c2.64-3.52,5.07-5.93,6.86-7.36c0.91-0.7,1.61-1.22,2.11-1.52C192.8,231.7,193.06,231.55,193.06,231.55z"/>
					</g>
				</g>
			</g>
			<g>
				<path style="fill:#B56760;" d="M162.06,305.38c0,0-1.81-4.74-5.42-5.36c-3.61-0.63-10.61,0.04-10.61,0.04s-3.08,2.32-3.05,5.5
					c0.03,3.18,0.65,5.41,0.65,5.41s-2.53-3.41-5.86-0.18c-3.33,3.23-6.25,9.78-6.25,9.78s-4.43,1.42-6.12,3.57
					c-1.69,2.15-2.68,5.63-2.68,5.63s-3.63,2.21-3.06,6.92c0.57,4.71,4.7,6.69,4.7,6.69s13.2,9.73,14.82,8.48
					c1.62-1.26,4.92-3.25,0.16-7.45c-4.75-4.2-7.73-6.86-7.73-6.86l2.24-3.45c0,0,12.92,8.88,15,8.46c2.07-0.43,5.6-0.5,4.16-3.69
					c-1.45-3.19-13.54-12.49-13.54-12.49l1.43-4.99c0,0,13.97,9.47,16.26,7.95c2.29-1.51,4.33-2.22,2.01-5.34
					c-2.32-3.12-12.42-10.57-12.42-10.57l4.14-3.86C150.88,309.56,160.64,311.21,162.06,305.38z"/>
			</g>
			<g>
				<g>
					<path style="fill:#263238;" d="M222.65,215.31c0,0.01-0.12,0.04-0.35,0.11c-0.26,0.07-0.6,0.16-1.03,0.27
						c-0.9,0.24-2.23,0.59-3.94,1.07c-3.41,0.97-8.34,2.42-14.22,4.77c-1.47,0.59-2.99,1.24-4.55,1.99
						c-0.78,0.37-1.57,0.75-2.36,1.18c-0.39,0.21-0.8,0.41-1.19,0.65c-0.37,0.25-0.77,0.47-1.13,0.76
						c-2.94,2.24-5.61,5.23-8.38,8.35c-5.48,6.33-11.07,13.67-16.79,21.45c-5.72,7.8-11.01,15.35-15.75,22.27
						c-2.37,3.46-4.59,6.76-6.65,9.87c-2.06,3.11-3.92,6.03-5.31,8.87c-2.81,5.67-4.47,10.54-5.57,13.91
						c-0.54,1.69-0.93,3.01-1.19,3.9c-0.12,0.43-0.22,0.76-0.29,1.02c-0.07,0.23-0.1,0.35-0.11,0.34c-0.01,0,0.01-0.12,0.06-0.36
						c0.06-0.26,0.14-0.6,0.25-1.03c0.23-0.91,0.59-2.24,1.1-3.93c1.04-3.39,2.65-8.29,5.43-14.01c1.37-2.87,3.23-5.83,5.28-8.94
						c2.04-3.12,4.25-6.44,6.61-9.91c4.72-6.93,10-14.49,15.72-22.3c5.73-7.8,11.34-15.13,16.85-21.46
						c2.79-3.13,5.47-6.11,8.49-8.39c0.37-0.29,0.79-0.52,1.18-0.78c0.4-0.24,0.81-0.43,1.21-0.65c0.79-0.43,1.59-0.81,2.38-1.18
						c1.57-0.74,3.11-1.39,4.58-1.97c5.92-2.31,10.87-3.71,14.3-4.62c1.71-0.46,3.06-0.77,3.97-0.98c0.44-0.09,0.78-0.17,1.04-0.22
						C222.52,215.32,222.64,215.3,222.65,215.31z"/>
				</g>
			</g>
			<g>
				<g>
					<path style="fill:#263238;" d="M214.79,386.24c-0.02,0.03-0.57-0.28-1.55-0.87c-0.98-0.58-2.37-1.49-4.05-2.66
						c-3.35-2.34-7.8-5.86-12.24-10.27c-4.43-4.41-7.98-8.84-10.34-12.19c-1.18-1.67-2.1-3.05-2.68-4.03
						c-0.6-0.98-0.91-1.52-0.88-1.54c0.03-0.02,0.4,0.49,1.05,1.43c0.64,0.94,1.6,2.29,2.81,3.93c2.43,3.27,6,7.64,10.4,12.03
						c4.41,4.38,8.8,7.93,12.09,10.34c1.64,1.21,2.99,2.16,3.94,2.79C214.29,385.84,214.81,386.21,214.79,386.24z"/>
				</g>
			</g>
			<g style="opacity:0.3;">
				<polygon points="140.82,411.66 142.51,417.82 205.89,417.6 				"/>
			</g>
		</g>
	</g>
</g>
</svg>
