<?xml version="1.0" encoding="utf-8"?>
<!-- Generator: Adobe Illustrator 24.0.1, SVG Export Plug-In . SVG Version: 6.00 Build 0)  -->
<svg version="1.1" xmlns="http://www.w3.org/2000/svg" xmlns:xlink="http://www.w3.org/1999/xlink" x="0px" y="0px"
	 viewBox="0 0 500 500" style="enable-background:new 0 0 500 500;" xml:space="preserve">
<g id="Background_Complete">
	<g>
		<g>
			<g>
				<g>
					<g>
						<g>
							<g>
								<path style="fill:#F5F5F5;" d="M65.98,463.59c-1.31-1.12-4.23-4.68-1.98-8.82c0.83-1.52,2.58-2.27,4.17-2.94
									c1.59-0.67,3.25-1.25,4.57-2.37c2.48-2.11,3.16-5.61,4.8-8.42c1.89-3.23,5.41-5.64,9.13-5.47c4.26,0.19,7.82,3.67,9.43,7.64
									c1.61,3.97,1.67,8.38,1.7,12.66c0.02,2.37-0.09,5.04-1.83,6.64c-1.6,1.48-4.02,1.49-6.19,1.43
									c-7.76-0.24-15.53-0.48-23.29-0.72"/>
							</g>
						</g>
					</g>
				</g>
			</g>
		</g>
		<g>
			<g>
				<g>
					<g>
						<g>
							<g>
								<g>
									<path style="fill:#E0E0E0;" d="M110.53,399.54H49.27l11.03,65.79c0.48,2.87,2.56,5.09,5.23,5.86
										c0.07,0.02,0.14,0.04,0.21,0.06c0.18,0.05,0.36,0.11,0.55,0.14c0.4,0.08,0.82,0.13,1.25,0.14c0,0.02,0.01,0.04,0.01,0.06
										l0.3-0.05c0,0,0,0,0,0h27.3c0.51,0,1.01-0.05,1.5-0.15c3.22-0.5,5.8-3.09,6.2-6.43l5.32-45.33l0.24-1.8h-0.03l2.11-17.95
										L110.53,399.54z M98.97,441.51h-6.29l0.63-19.09h7.28L98.97,441.51z M101.21,422.42h6.02l-2.24,19.09h-5.41L101.21,422.42z
										 M83.25,462.68l-0.38-16.59h9.05l-0.55,16.59H83.25z M73.47,446.09h8.8l0.38,16.59h-7.89L73.47,446.09z M74.15,462.68
										h-7.37c-0.7-4.48-1.61-10.3-2.6-16.59h8.69L74.15,462.68z M73.11,441.51l-1.48-19.09h10.09l0.44,19.09H73.11z
										 M82.77,441.51l-0.44-19.09h10.38l-0.63,19.09H82.77z M82.22,417.84l-0.41-17.68h11.64l-0.59,17.68H82.22z M81.61,417.84
										H71.27l-1.37-17.68h11.31L81.61,417.84z M70.66,417.84H59.72c-0.39-2.44-0.75-4.75-1.09-6.83
										c-1.14-7.15-1.57-9.84-1.81-10.85h12.46L70.66,417.84z M71.02,422.42l1.48,19.09h-9.05c-0.3-1.94-0.61-3.9-0.92-5.86
										c-0.71-4.51-1.42-9.01-2.09-13.24H71.02z M62.84,441.51h-5.91l-3.2-19.09h6.1C60.76,428.32,61.8,434.89,62.84,441.51z
										 M63.56,446.09c0.9,5.74,1.79,11.4,2.6,16.59h-5.68l-2.78-16.59H63.56z M91.98,462.68l0.55-16.59h6.05l-1.42,16.59H91.98z
										 M93.47,417.84l0.59-17.68h8.45l-1.51,17.68H93.47z M56.25,400.16c0.24,1.28,1.36,8.24,2.86,17.68h-6.15l-2.97-17.68H56.25
										z M102.51,462.68h-4.73l1.42-16.59h5.26L102.51,462.68z M107.77,417.84h-6.16l1.51-17.68h6.73L107.77,417.84z"/>
								</g>
							</g>
						</g>
					</g>
				</g>
			</g>
		</g>
	</g>
	<g>
		<g>
			<g>
				<g>
					<g>
						<g>
							<g>
								<g>
									<g>
										<g>
											<g>
												<rect x="151.33" y="353.47" style="fill:#F5F5F5;" width="157.32" height="72.56"/>
											</g>
										</g>
									</g>
								</g>
							</g>
						</g>
					</g>
				</g>
				<g>
					<g>
						<g>
							<g>
								<g>
									<g>
										<g>
											<g>
												<path style="fill:#E0E0E0;" d="M304.91,422.6H154.93v-65.32h149.98V422.6z M155.91,421.62h148.02v-63.36H155.91V421.62z
													"/>
											</g>
										</g>
									</g>
								</g>
							</g>
						</g>
					</g>
				</g>
				<g>
					<g>
						<g>
							<g>
								<g>
									<g>
										<g>
											<g>
												<rect x="308.66" y="353.47" style="fill:#E0E0E0;" width="38.43" height="72.56"/>
											</g>
										</g>
									</g>
								</g>
							</g>
						</g>
					</g>
				</g>
				<g>
					<g>
						<g>
							<g>
								<g>
									<g>
										<g>
											<g>
												<g>
													<path style="fill:#E0E0E0;" d="M155.42,377.5c16.85,0,33.71,0,50.56,0c26.63,0,53.26,0,79.89,0c6.18,0,12.37,0,18.55,0
														c0.25,0,0.25-0.39,0-0.39c-16.85,0-33.71,0-50.56,0c-26.63,0-53.26,0-79.89,0c-6.18,0-12.37,0-18.55,0
														C155.17,377.1,155.17,377.5,155.42,377.5L155.42,377.5z"/>
												</g>
											</g>
										</g>
									</g>
								</g>
							</g>
						</g>
					</g>
				</g>
				<g>
					<g>
						<g>
							<g>
								<g>
									<g>
										<g>
											<g>
												<g>
													<path style="fill:#E0E0E0;" d="M230.41,377.3c0.45-6.44,0.4-13.26,0.05-19.71c-0.01-0.26-0.39-0.26-0.4,0
														c-0.35,6.45-0.4,13.27,0.05,19.71C230.12,377.49,230.4,377.49,230.41,377.3L230.41,377.3z"/>
												</g>
											</g>
										</g>
									</g>
								</g>
							</g>
						</g>
					</g>
				</g>
				<g>
					<g>
						<g>
							<g>
								<g>
									<g>
										<g>
											<g>
												<path style="fill:#E0E0E0;" d="M270.52,367.45c0,1.12-0.91,2.03-2.03,2.03c-1.12,0-2.03-0.91-2.03-2.03
													c0-1.12,0.91-2.03,2.03-2.03C269.61,365.42,270.52,366.33,270.52,367.45z"/>
											</g>
										</g>
									</g>
								</g>
							</g>
						</g>
					</g>
				</g>
				<g>
					<g>
						<g>
							<g>
								<g>
									<g>
										<g>
											<g>
												<path style="fill:#E0E0E0;" d="M192.32,367.45c0,1.12-0.91,2.03-2.03,2.03c-1.12,0-2.03-0.91-2.03-2.03
													c0-1.12,0.91-2.03,2.03-2.03C191.41,365.42,192.32,366.33,192.32,367.45z"/>
											</g>
										</g>
									</g>
								</g>
							</g>
						</g>
					</g>
				</g>
				<g>
					<g>
						<g>
							<g>
								<g>
									<g>
										<g>
											<g>
												<path style="fill:#E0E0E0;" d="M231.95,389.94c0,1.12-0.91,2.03-2.03,2.03c-1.12,0-2.03-0.91-2.03-2.03
													c0-1.12,0.91-2.03,2.03-2.03C231.04,387.91,231.95,388.82,231.95,389.94z"/>
											</g>
										</g>
									</g>
								</g>
							</g>
						</g>
					</g>
				</g>
				<g>
					<g>
						<g>
							<g>
								<g>
									<g>
										<g>
											<g>
												<polygon style="fill:#E0E0E0;" points="170.14,426.02 162.04,471.57 166.6,471.57 181.53,426.02 												"/>
											</g>
										</g>
									</g>
								</g>
							</g>
						</g>
					</g>
				</g>
				<g>
					<g>
						<g>
							<g>
								<g>
									<g>
										<g>
											<g>
												<polygon style="fill:#E0E0E0;" points="297.53,426.02 304.3,471.65 299.74,471.65 286.14,426.02 												"/>
											</g>
										</g>
									</g>
								</g>
							</g>
						</g>
					</g>
				</g>
				<g>
					<g>
						<g>
							<g>
								<g>
									<g>
										<g>
											<g>
												<polygon style="fill:#E0E0E0;" points="327.94,426.02 335.61,471.65 331.06,471.65 316.55,426.02 												"/>
											</g>
										</g>
									</g>
								</g>
							</g>
						</g>
					</g>
				</g>
				<g>
					<g>
						<g>
							<g>
								<g>
									<g>
										<g>
											<g>
												<path style="fill:#E0E0E0;" d="M231.82,410.48c0,1.12-0.91,2.03-2.03,2.03c-1.12,0-2.03-0.91-2.03-2.03
													c0-1.12,0.91-2.03,2.03-2.03C230.91,408.45,231.82,409.36,231.82,410.48z"/>
											</g>
										</g>
									</g>
								</g>
							</g>
						</g>
					</g>
				</g>
				<g>
					<g>
						<g>
							<g>
								<g>
									<g>
										<g>
											<g>
												<g>
													<path style="fill:#E0E0E0;" d="M155.42,399.97c16.85,0,33.71,0,50.56,0c26.63,0,53.26,0,79.89,0
														c6.18,0,12.37,0,18.55,0c0.25,0,0.25-0.39,0-0.39c-16.85,0-33.71,0-50.56,0c-26.63,0-53.26,0-79.89,0
														c-6.18,0-12.37,0-18.55,0C155.17,399.57,155.17,399.97,155.42,399.97L155.42,399.97z"/>
												</g>
											</g>
										</g>
									</g>
								</g>
							</g>
						</g>
					</g>
				</g>
			</g>
		</g>
		<g>
			<g>
				<g>
					<g>
						<g>
							<g>
								<g>
									<g>
										<g>
											<g>
												
													<rect x="232.52" y="300.34" transform="matrix(5.277162e-03 1 -1 5.277162e-03 560.2344 85.053)" style="fill:#E0E0E0;" width="9.68" height="47.57"/>
											</g>
										</g>
									</g>
								</g>
							</g>
						</g>
					</g>
				</g>
			</g>
			<g>
				<g>
					<g>
						<g>
							<g>
								<g>
									<g>
										<g>
											<g>
												<g>
													
														<rect x="232.82" y="319.37" transform="matrix(5.290403e-03 1 -1 5.290403e-03 584.9471 103.7142)" style="fill:#F5F5F5;" width="15.05" height="53.02"/>
												</g>
											</g>
										</g>
									</g>
								</g>
							</g>
						</g>
					</g>
				</g>
				<g>
					<g>
						<g>
							<g>
								<g>
									<g>
										<g>
											<g>
												<g>
													<path style="fill:#E0E0E0;" d="M256.68,353.16c-0.14,0-0.26-3.37-0.26-7.52c0-4.16,0.12-7.52,0.26-7.52
														c0.14,0,0.26,3.37,0.26,7.52C256.93,349.79,256.82,353.16,256.68,353.16z"/>
												</g>
											</g>
										</g>
									</g>
								</g>
							</g>
						</g>
					</g>
				</g>
				<g>
					<g>
						<g>
							<g>
								<g>
									<g>
										<g>
											<g>
												<g>
													<path style="fill:#E0E0E0;" d="M258.9,353.16c-0.14,0-0.26-3.37-0.26-7.52c0-4.16,0.12-7.52,0.26-7.52
														c0.14,0,0.26,3.37,0.26,7.52C259.16,349.79,259.04,353.16,258.9,353.16z"/>
												</g>
											</g>
										</g>
									</g>
								</g>
							</g>
						</g>
					</g>
				</g>
				<g>
					<g>
						<g>
							<g>
								<g>
									<g>
										<g>
											<g>
												<g>
													<path style="fill:#E0E0E0;" d="M221.85,353.16c-0.14,0-0.26-3.37-0.26-7.52c0-4.16,0.12-7.52,0.26-7.52
														c0.14,0,0.26,3.37,0.26,7.52C222.11,349.79,221.99,353.16,221.85,353.16z"/>
												</g>
											</g>
										</g>
									</g>
								</g>
							</g>
						</g>
					</g>
				</g>
				<g>
					<g>
						<g>
							<g>
								<g>
									<g>
										<g>
											<g>
												<g>
													<path style="fill:#E0E0E0;" d="M224.08,353.16c-0.14,0-0.26-3.37-0.26-7.52c0-4.16,0.12-7.52,0.26-7.52
														c0.14,0,0.26,3.37,0.26,7.52C224.33,349.79,224.22,353.16,224.08,353.16z"/>
												</g>
											</g>
										</g>
									</g>
								</g>
							</g>
						</g>
					</g>
				</g>
				<g>
					<g>
						<g>
							<g>
								<g>
									<g>
										<g>
											<g>
												<g>
													<path style="fill:#E0E0E0;" d="M228.94,345.88c0-0.14,5.35-0.26,11.95-0.26c6.6,0,11.95,0.12,11.95,0.26
														c0,0.14-5.35,0.26-11.95,0.26C234.29,346.14,228.94,346.02,228.94,345.88z"/>
												</g>
											</g>
										</g>
									</g>
								</g>
							</g>
						</g>
					</g>
				</g>
			</g>
			<g>
				<g>
					<g>
						<g>
							<g>
								<g>
									<g>
										<g>
											<g>
												<g>
													
														<rect x="249.22" y="300.75" transform="matrix(5.276460e-03 1 -1 5.276460e-03 586.1805 77.6452)" style="fill:#EBEBEB;" width="9.68" height="65.42"/>
												</g>
											</g>
										</g>
									</g>
								</g>
							</g>
						</g>
					</g>
				</g>
				<g>
					<g>
						<g>
							<g>
								<g>
									<g>
										<g>
											<g>
												<path style="fill:#E0E0E0;" d="M277.43,336.93c-1.71,0-3.09-1.4-3.09-3.13c0-1.73,1.38-3.13,3.09-3.13
													c1.71,0,3.09,1.4,3.09,3.13C280.52,335.53,279.14,336.93,277.43,336.93z"/>
											</g>
										</g>
									</g>
								</g>
							</g>
						</g>
					</g>
				</g>
				<g>
					<g>
						<g>
							<g>
								<g>
									<g>
										<g>
											<g>
												
													<rect x="246.06" y="311.9" transform="matrix(-1.836970e-16 1 -1 -1.836970e-16 580.8317 86.7674)" style="fill:#E0E0E0;" width="1.94" height="43.79"/>
											</g>
										</g>
									</g>
								</g>
							</g>
						</g>
					</g>
				</g>
			</g>
		</g>
	</g>
	<g>
		<g>
			<g>
				
					<ellipse transform="matrix(0.7071 -0.7071 0.7071 0.7071 -25.9514 219.3663)" style="fill:#E0E0E0;" cx="251.82" cy="141.01" rx="106.41" ry="106.41"/>
			</g>
		</g>
		<g>
			<g>
				
					<ellipse transform="matrix(0.7071 -0.7071 0.7071 0.7071 -25.9514 219.3663)" style="fill:#FAFAFA;" cx="251.82" cy="141.01" rx="85.13" ry="85.13"/>
			</g>
		</g>
		<g>
			<g>
				
					<ellipse transform="matrix(0.2997 -0.954 0.954 0.2997 41.8165 338.9884)" style="fill:#E0E0E0;" cx="251.82" cy="141.01" rx="63.84" ry="63.84"/>
			</g>
		</g>
		<g>
			<g>
				
					<ellipse transform="matrix(0.4072 -0.9134 0.9134 0.4072 20.4978 313.5986)" style="fill:#FAFAFA;" cx="251.82" cy="141.01" rx="42.56" ry="42.56"/>
			</g>
		</g>
		<g>
			<g>
				
					<ellipse transform="matrix(0.8914 -0.4532 0.4532 0.8914 -36.56 129.4466)" style="fill:#E0E0E0;" cx="251.82" cy="141.01" rx="21.28" ry="21.28"/>
			</g>
		</g>
		<g>
			<g>
				<g>
					<g>
						<polygon style="fill:#EBEBEB;" points="255.1,144.15 225.56,136.36 233.12,128.6 172,78.41 175.38,75.12 236.82,125 
							242.75,116.89 						"/>
					</g>
				</g>
			</g>
			<g>
				<g>
					<g>
						<path style="fill:#EBEBEB;" d="M172,78.41l-0.93,0.52c-4.58,2.59-10.2,2.51-14.71-0.2l-25.6-15.39L148,60.64l-1.85-18.13
							l23.57,16.14c5.32,3.64,7.62,10.33,5.67,16.47l0,0L172,78.41z"/>
					</g>
				</g>
			</g>
		</g>
	</g>
	<g>
		<g>
			<g>
				<g>
					<g>
						<g>
							<g>
								<path style="fill:#EBEBEB;" d="M425.9,397.44c0.06-10.19,6.72-16.7,6.72-16.7C434.66,389.12,425.9,397.44,425.9,397.44z"/>
							</g>
						</g>
					</g>
				</g>
				<g>
					<g>
						<g>
							<g>
								<path style="fill:#EBEBEB;" d="M435.66,392.72c9.37-4.01,18-0.5,18-0.5C446.79,397.42,435.66,392.72,435.66,392.72z"/>
							</g>
						</g>
					</g>
				</g>
				<g>
					<g>
						<g>
							<g>
								<path style="fill:#EBEBEB;" d="M436.78,387.28c-1.63-7.87,2.45-13.99,2.45-13.99C442.17,379.43,436.78,387.28,436.78,387.28
									z"/>
							</g>
						</g>
					</g>
				</g>
				<g>
					<g>
						<g>
							<g>
								<path style="fill:#EBEBEB;" d="M399.03,367.69c14.27,3.8,21.92,16.21,21.92,16.21C408.75,383.9,399.03,367.69,399.03,367.69
									z"/>
							</g>
						</g>
					</g>
				</g>
				<g>
					<g>
						<g>
							<g>
								<path style="fill:#EBEBEB;" d="M421.82,373.54c-0.74-15.38,14.29-32.79,14.29-32.79
									C433.84,359.85,421.82,373.54,421.82,373.54"/>
							</g>
						</g>
					</g>
				</g>
				<g>
					<g>
						<g>
							<g>
								<path style="fill:#EBEBEB;" d="M421.74,329.73c0.64,12.47-5.4,22.03-5.4,22.03C414.22,341.87,421.74,329.73,421.74,329.73z"
									/>
							</g>
						</g>
					</g>
				</g>
				<g>
					<g>
						<g>
							<g>
								<path style="fill:#EBEBEB;" d="M415.95,360.98c-11.25-1.21-17.36-12.39-17.36-12.39
									C412.18,352.4,415.95,360.98,415.95,360.98z"/>
							</g>
						</g>
					</g>
				</g>
				<g>
					<g>
						<g>
							<g>
								<path style="fill:#EBEBEB;" d="M391.69,408.01c8.59-5.48,17.68-3.41,17.68-3.41C403.43,410.85,391.69,408.01,391.69,408.01z
									"/>
							</g>
						</g>
					</g>
				</g>
				<g>
					<g>
						<g>
							<g>
								<path style="fill:#EBEBEB;" d="M420.83,413.06c-2.13,5.88-7.56,8.51-7.56,8.51C413.76,416.38,420.83,413.06,420.83,413.06z"
									/>
							</g>
						</g>
					</g>
				</g>
				<g>
					<g>
						<g>
							<g>
								<path style="fill:#EBEBEB;" d="M419.39,411.4c-6.4,3.94-13.45,2.4-13.45,2.4C410.27,409.29,419.39,411.4,419.39,411.4z"/>
							</g>
						</g>
					</g>
				</g>
				<g>
					<g>
						<g>
							<g>
								<g>
									<path style="fill:#E0E0E0;" d="M425.14,432.11c-0.01,0-0.02-0.08-0.02-0.23c0-0.18-0.01-0.4-0.01-0.67
										c0-0.63,0-1.49-0.01-2.58c0.01-1.12,0.01-2.49-0.02-4.08c-0.03-1.59-0.03-3.4-0.11-5.4c-0.1-4-0.38-8.75-0.79-14.03
										c-0.46-5.27-1.1-11.05-1.98-17.08c-1.78-12.08-4.21-22.88-6.16-30.63c-0.98-3.88-1.81-7.01-2.42-9.16
										c-0.28-1.05-0.51-1.88-0.67-2.49c-0.07-0.26-0.12-0.48-0.16-0.65c-0.03-0.15-0.05-0.22-0.04-0.23
										c0.01,0,0.04,0.07,0.09,0.21c0.06,0.17,0.13,0.38,0.21,0.64c0.19,0.6,0.44,1.43,0.76,2.46c0.66,2.14,1.55,5.26,2.57,9.13
										c2.04,7.74,4.53,18.55,6.31,30.65c0.88,6.05,1.51,11.84,1.94,17.12c0.38,5.28,0.63,10.05,0.68,14.05
										c0.06,2,0.04,3.81,0.04,5.4c0.01,1.59-0.02,2.96-0.06,4.08c-0.04,1.09-0.07,1.95-0.09,2.58c-0.01,0.27-0.03,0.49-0.04,0.67
										C425.15,432.03,425.14,432.11,425.14,432.11z"/>
								</g>
							</g>
						</g>
					</g>
				</g>
				<g>
					<g>
						<g>
							<g>
								<g>
									<path style="fill:#E0E0E0;" d="M404.5,399.55c0.08-0.12,4.62,2.86,10.15,6.65c5.53,3.79,9.95,6.95,9.87,7.07
										c-0.08,0.12-4.62-2.86-10.15-6.65C408.84,402.83,404.42,399.66,404.5,399.55z"/>
								</g>
							</g>
						</g>
					</g>
				</g>
				<g>
					<g>
						<g>
							<g>
								<g>
									<path style="fill:#E0E0E0;" d="M424.51,401.19c-0.02-0.03,0.23-0.3,0.7-0.76c0.56-0.54,1.23-1.19,2.02-1.95
										c1.82-1.71,4.17-3.91,6.76-6.34c2.59-2.43,4.94-4.63,6.76-6.34c0.8-0.75,1.48-1.39,2.05-1.92
										c0.49-0.45,0.77-0.69,0.79-0.66c0.02,0.02-0.21,0.31-0.66,0.8c-0.44,0.5-1.11,1.19-1.94,2.04
										c-1.66,1.69-4.02,3.98-6.66,6.45c-2.65,2.47-5.08,4.67-6.86,6.23c-0.89,0.78-1.62,1.41-2.13,1.83
										C424.83,400.99,424.54,401.21,424.51,401.19z"/>
								</g>
							</g>
						</g>
					</g>
				</g>
				<g>
					<g>
						<g>
							<g>
								<path style="fill:#EBEBEB;" d="M390.06,392.26c0,0,11.62-0.22,16.54,8.93C406.6,401.18,396.68,401.51,390.06,392.26z"/>
							</g>
						</g>
					</g>
				</g>
				<g>
					<g>
						<g>
							<g>
								<path style="fill:#EBEBEB;" d="M405.93,387.59c0,0,9.46,6.75,7.96,17.02C413.89,404.62,405.73,398.97,405.93,387.59z"/>
							</g>
						</g>
					</g>
				</g>
				<g>
					<g>
						<g>
							<g>
								<path style="fill:#EBEBEB;" d="M455.77,370.96c0,0-3.73,13.01-15.6,15.35C440.17,386.31,443.21,375.16,455.77,370.96z"/>
							</g>
						</g>
					</g>
				</g>
				<g>
					<g>
						<g>
							<g>
								<path style="fill:#EBEBEB;" d="M400.77,322.6c0,0,14.83,9.67,13.19,25.4C413.95,348,401.19,339.92,400.77,322.6z"/>
							</g>
						</g>
					</g>
				</g>
			</g>
			<g>
				<g>
					<g>
						<g>
							<g>
								<path style="fill:#E0E0E0;" d="M450.12,408.63c0.02,0.03-0.33,0.3-0.96,0.77c-0.64,0.46-1.55,1.16-2.66,2.03
									c-2.21,1.75-5.15,4.34-8.03,7.54c-2.88,3.21-5.14,6.4-6.64,8.79c-0.75,1.19-1.34,2.18-1.74,2.86
									c-0.4,0.68-0.63,1.06-0.66,1.04c-0.03-0.02,0.15-0.42,0.49-1.13c0.34-0.72,0.89-1.73,1.61-2.96
									c1.44-2.45,3.67-5.71,6.57-8.94c2.91-3.23,5.9-5.8,8.19-7.49c1.14-0.85,2.09-1.5,2.77-1.91
									C449.72,408.82,450.1,408.6,450.12,408.63z"/>
							</g>
						</g>
					</g>
				</g>
			</g>
			<g>
				<g>
					<g>
						<g>
							<path style="fill:#EBEBEB;" d="M437.21,418.29c-1.89-10.01,3.4-17.68,3.4-17.68C442.21,411.63,437.21,418.29,437.21,418.29z"
								/>
						</g>
					</g>
				</g>
			</g>
			<g>
				<g>
					<g>
						<g>
							<path style="fill:#EBEBEB;" d="M447.19,412.85c6.39-3.75,12.94-2.01,12.94-2.01C452.98,414.64,447.19,412.85,447.19,412.85z"
								/>
						</g>
					</g>
				</g>
			</g>
		</g>
		<g>
			<g>
				<g>
					<g>
						<g>
							<g>
								<polygon style="fill:#EBEBEB;" points="403.52,433.32 409.08,469.87 441.4,469.87 448.9,433.84 								"/>
							</g>
						</g>
					</g>
				</g>
			</g>
			<g>
				<g>
					<g>
						<g>
							<g>
								<g>
									<g>
										<path style="fill:#FAFAFA;" d="M444.38,456.74c0,0.1-8.28,0.19-18.49,0.19c-10.22,0-18.5-0.08-18.5-0.19
											c0-0.1,8.28-0.19,18.5-0.19C436.1,456.55,444.38,456.64,444.38,456.74z"/>
									</g>
								</g>
							</g>
						</g>
					</g>
				</g>
				<g>
					<g>
						<g>
							<g>
								<g>
									<g>
										<path style="fill:#FAFAFA;" d="M444.51,454.95c0,0.1-8.34,0.19-18.62,0.19c-10.29,0-18.62-0.08-18.62-0.19
											c0-0.1,8.34-0.19,18.62-0.19C436.17,454.76,444.51,454.84,444.51,454.95z"/>
									</g>
								</g>
							</g>
						</g>
					</g>
				</g>
				<g>
					<g>
						<g>
							<g>
								<g>
									<g>
										<path style="fill:#FAFAFA;" d="M444.44,452.92c0,0.1-8.34,0.19-18.62,0.19c-10.29,0-18.62-0.08-18.62-0.19
											c0-0.1,8.34-0.19,18.62-0.19C436.11,452.73,444.44,452.81,444.44,452.92z"/>
									</g>
								</g>
							</g>
						</g>
					</g>
				</g>
				<g>
					<g>
						<g>
							<g>
								<g>
									<g>
										<path style="fill:#FAFAFA;" d="M412.79,467.79c-0.1,0.02-0.55-2.04-0.99-4.6c-0.44-2.56-0.72-4.65-0.62-4.67
											c0.1-0.02,0.55,2.04,0.99,4.6C412.62,465.68,412.9,467.77,412.79,467.79z"/>
									</g>
								</g>
							</g>
						</g>
					</g>
				</g>
				<g>
					<g>
						<g>
							<g>
								<g>
									<g>
										<path style="fill:#FAFAFA;" d="M414.99,467.4c-0.11,0-0.23-2.01-0.4-4.49c-0.17-2.48-0.32-4.49-0.21-4.5
											c0.1-0.01,0.42,1.99,0.59,4.48C415.14,465.37,415.09,467.4,414.99,467.4z"/>
									</g>
								</g>
							</g>
						</g>
					</g>
				</g>
				<g>
					<g>
						<g>
							<g>
								<g>
									<g>
										<path style="fill:#FAFAFA;" d="M419,467.4c-0.1,0.02-0.54-2.04-0.84-4.6c-0.3-2.57-0.35-4.67-0.25-4.67
											c0.11-0.01,0.32,2.07,0.62,4.63C418.83,465.31,419.1,467.38,419,467.4z"/>
									</g>
								</g>
							</g>
						</g>
					</g>
				</g>
				<g>
					<g>
						<g>
							<g>
								<g>
									<g>
										<path style="fill:#FAFAFA;" d="M421.81,467.59c-0.1,0.01-0.37-2.08-0.45-4.68c-0.09-2.6,0.04-4.7,0.14-4.7
											c0.11,0,0.15,2.1,0.24,4.69C421.82,465.48,421.92,467.58,421.81,467.59z"/>
									</g>
								</g>
							</g>
						</g>
					</g>
				</g>
				<g>
					<g>
						<g>
							<g>
								<g>
									<g>
										<path style="fill:#FAFAFA;" d="M426.79,467.4c-0.1,0-0.26-1.98-0.34-4.44c-0.08-2.46-0.07-4.45,0.04-4.45
											c0.1,0,0.26,1.98,0.34,4.44C426.91,465.4,426.9,467.39,426.79,467.4z"/>
									</g>
								</g>
							</g>
						</g>
					</g>
				</g>
				<g>
					<g>
						<g>
							<g>
								<g>
									<g>
										<path style="fill:#FAFAFA;" d="M430.43,467.59c-0.1,0-0.17-2.06-0.15-4.59c0.02-2.54,0.12-4.59,0.23-4.59
											c0.1,0,0.17,2.06,0.15,4.59C430.63,465.54,430.53,467.59,430.43,467.59z"/>
									</g>
								</g>
							</g>
						</g>
					</g>
				</g>
				<g>
					<g>
						<g>
							<g>
								<g>
									<g>
										<path style="fill:#FAFAFA;" d="M433.84,467.1c-0.1-0.01,0.02-2.16,0.28-4.8c0.26-2.64,0.55-4.77,0.65-4.76
											c0.1,0.01-0.02,2.16-0.28,4.8C434.23,464.98,433.94,467.11,433.84,467.1z"/>
									</g>
								</g>
							</g>
						</g>
					</g>
				</g>
				<g>
					<g>
						<g>
							<g>
								<g>
									<g>
										<path style="fill:#FAFAFA;" d="M438.24,466.62c-0.1-0.01,0.06-1.86,0.54-4.08c0.48-2.23,1.11-3.97,1.2-3.94
											c0.1,0.03-0.35,1.81-0.83,4.02C438.67,464.83,438.34,466.64,438.24,466.62z"/>
									</g>
								</g>
							</g>
						</g>
					</g>
				</g>
			</g>
			<g>
				<g>
					<g>
						<g>
							<g>
								<path style="fill:#EBEBEB;" d="M399.81,426.08v6.84c0,1.49,1.21,2.69,2.69,2.69h46.8c1.49,0,2.69-1.21,2.69-2.69v-6.84
									H399.81z"/>
							</g>
						</g>
					</g>
				</g>
			</g>
			<g>
				<g>
					<g>
						<g>
							<g>
								<polygon style="fill:#E0E0E0;" points="403.87,435.61 404.25,437.79 447.44,440.86 448.53,435.61 								"/>
							</g>
						</g>
					</g>
				</g>
			</g>
		</g>
	</g>
</g>
<g id="Background_Simple" style="display:none;">
	<g style="display:inline;">
		<g>
			<path style="fill:#F5F5F5;" d="M435.38,90.1l-2.43-4.01c-20.52-33.81-57.61-54.19-96.72-51.72c-5.03,0.32-10.03,1-14.97,2.06
				c-35.56,7.61-66.5,34.5-79.32,68.94c-7.54,20.25-9.65,43.57-23.96,59.65c-18.63,20.92-50.25,21.58-78.06,20.71
				c-27.8-0.87-59.45-0.13-77.99,20.88c-11.61,13.15-15.3,31.86-14.36,49.48c2.48,46.64,34.98,88.35,76.31,109.07
				c41.33,20.73,90,22.59,135.23,13.47c63.37-12.77,123.63-47.85,159.86-102.04C455.2,222.4,464.37,148.58,435.38,90.1z"/>
		</g>
	</g>
</g>
<g id="Floor">
	<g>
		<g>
			<g>
				<path style="fill:#263238;" d="M449.65,470.81c0,0.14-89.39,0.26-199.64,0.26c-110.29,0-199.66-0.12-199.66-0.26
					s89.37-0.26,199.66-0.26C360.26,470.55,449.65,470.67,449.65,470.81z"/>
			</g>
		</g>
	</g>
</g>
<g id="Plants">
	<g>
		<g>
			<g>
				<g>
					<g>
						<path style="fill:#455A64;" d="M34.36,174.74c0,0,10.25,41.98,56.13,32.36C90.49,207.1,77.2,164.59,34.36,174.74z"/>
					</g>
				</g>
			</g>
			<g>
				<g>
					<g>
						<path style="fill:#455A64;" d="M56.53,238.32c0,0,21.06,31.4,55.86,9.69C112.39,248,88.66,217.08,56.53,238.32z"/>
					</g>
				</g>
			</g>
			<g>
				<g>
					<g>
						<path style="fill:#455A64;" d="M90.09,286.23c0,0,30.73,26.13,60.16-6.25C150.25,279.97,116.92,255.1,90.09,286.23z"/>
					</g>
				</g>
			</g>
			<g>
				<g>
					<g>
						<path style="fill:#455A64;" d="M121.85,185.43c0,0-34.08,16.38-17.54,53.91C106.74,237.98,137.95,219.54,121.85,185.43z"/>
					</g>
				</g>
			</g>
			<g>
				<g>
					<g>
						<path style="fill:#455A64;" d="M129.25,230.69c0,0-17,22.95,8.33,42.66C139.16,270.89,154,248.98,129.25,230.69z"/>
					</g>
				</g>
			</g>
			<g>
				<g>
					<g>
						<path style="fill:#455A64;" d="M50.42,126.42c0,0-3.91,34.03,32.84,39.48C83.26,165.9,85.05,130.64,50.42,126.42z"/>
					</g>
				</g>
			</g>
			<g>
				<g>
					<g>
						<path style="fill:#455A64;" d="M103.13,92c0,0-29.73,12.42-16.82,47.26C86.31,139.25,116.1,124.39,103.13,92z"/>
					</g>
				</g>
			</g>
			<g>
				<g>
					<g>
						<path style="fill:#455A64;" d="M121.07,141.71c0,0-39.36,4.49-35.9,47.33C85.17,189.04,125.37,181.84,121.07,141.71z"/>
					</g>
				</g>
			</g>
			<g>
				<g>
					<g>
						<g>
							<path style="fill:#263238;" d="M177.09,291.25c0,0-0.17-0.06-0.5-0.15c-0.35-0.09-0.84-0.22-1.47-0.39
								c-1.3-0.34-3.22-0.79-5.64-1.59c-4.86-1.49-11.81-4.02-19.81-8.34c-8.01-4.29-16.96-10.54-25.67-18.82
								c-4.35-4.14-8.63-8.8-12.69-13.93c-0.98-1.31-1.96-2.63-2.95-3.97c-0.5-0.67-0.99-1.34-1.49-2.01
								c-0.48-0.68-0.92-1.4-1.39-2.11c-0.92-1.41-1.85-2.84-2.78-4.27c-0.85-1.49-1.7-2.98-2.56-4.49
								c-0.43-0.75-0.85-1.51-1.28-2.26c-0.38-0.77-0.76-1.54-1.14-2.31c-0.75-1.54-1.52-3.05-2.25-4.58
								c-0.66-1.55-1.31-3.1-1.96-4.63c-0.32-0.77-0.66-1.52-0.96-2.29c-0.28-0.78-0.55-1.55-0.83-2.32
								c-0.55-1.54-1.1-3.06-1.64-4.58c-0.45-1.54-0.91-3.06-1.35-4.57c-0.22-0.75-0.44-1.5-0.67-2.25
								c-0.22-0.74-0.37-1.51-0.55-2.25c-0.35-1.5-0.7-2.98-1.05-4.44c-2.58-11.75-3.15-22.65-2.93-31.72
								c0.21-9.1,1.53-16.38,2.39-21.38c0.54-2.49,1.01-4.4,1.3-5.71c0.14-0.64,0.25-1.14,0.33-1.49c0.07-0.34,0.1-0.51,0.1-0.51
								s-0.06,0.17-0.14,0.5c-0.09,0.35-0.21,0.84-0.38,1.48c-0.32,1.3-0.82,3.22-1.38,5.7c-0.91,5-2.29,12.28-2.54,21.41
								c-0.26,9.1,0.28,20.03,2.84,31.82c0.34,1.47,0.69,2.95,1.04,4.46c0.19,0.75,0.33,1.51,0.55,2.26
								c0.22,0.75,0.44,1.5,0.66,2.26c0.45,1.51,0.9,3.04,1.35,4.59c0.54,1.52,1.09,3.05,1.64,4.59c0.28,0.77,0.55,1.55,0.83,2.33
								c0.3,0.77,0.64,1.53,0.96,2.3c0.65,1.54,1.31,3.09,1.97,4.65c0.73,1.53,1.5,3.05,2.25,4.6c0.38,0.77,0.76,1.54,1.14,2.32
								c0.43,0.75,0.85,1.51,1.28,2.26c0.86,1.51,1.72,3.01,2.57,4.5c0.94,1.44,1.87,2.87,2.79,4.29c0.47,0.71,0.91,1.43,1.4,2.11
								c0.5,0.67,1,1.35,1.5,2.02c1,1.34,1.99,2.66,2.97,3.98c4.08,5.14,8.37,9.81,12.74,13.96c8.75,8.29,17.76,14.53,25.81,18.8
								c8.05,4.3,15.04,6.79,19.91,8.23c2.43,0.77,4.36,1.19,5.67,1.51c0.64,0.15,1.13,0.27,1.48,0.35
								C176.91,291.22,177.09,291.25,177.09,291.25z"/>
						</g>
					</g>
				</g>
			</g>
		</g>
		<g>
			<g>
				<g>
					<g>
						<path style="fill:#263238;" d="M132.93,249.19c-0.03,0-0.02,0.35,0.03,0.96c0.05,0.62,0.14,1.51,0.27,2.6
							c0.27,2.19,0.72,5.21,1.37,8.52c0.65,3.31,1.36,6.28,1.94,8.41c0.29,1.07,0.54,1.92,0.72,2.51c0.19,0.59,0.3,0.91,0.33,0.9
							c0.03-0.01-0.03-0.35-0.16-0.95c-0.16-0.7-0.36-1.54-0.59-2.55c-0.5-2.15-1.16-5.12-1.81-8.42c-0.64-3.3-1.15-6.3-1.49-8.48
							c-0.16-1.01-0.3-1.87-0.42-2.58C133.03,249.52,132.96,249.19,132.93,249.19z"/>
					</g>
				</g>
			</g>
		</g>
		<g>
			<g>
				<g>
					<g>
						<path style="fill:#263238;" d="M124.56,283.27c0.01,0.03,0.35,0,0.97-0.09c0.71-0.1,1.58-0.23,2.61-0.38
							c2.2-0.33,5.25-0.76,8.62-1.16c3.38-0.39,6.44-0.68,8.66-0.87c1.03-0.09,1.91-0.17,2.63-0.23c0.62-0.06,0.96-0.11,0.96-0.14
							c0-0.03-0.35-0.04-0.97-0.04c-0.62,0-1.53,0.03-2.64,0.09c-2.23,0.11-5.3,0.34-8.69,0.74c-3.38,0.4-6.43,0.88-8.62,1.29
							c-1.1,0.2-1.98,0.38-2.59,0.52C124.89,283.15,124.55,283.24,124.56,283.27z"/>
					</g>
				</g>
			</g>
		</g>
		<g>
			<g>
				<g>
					<g>
						<path style="fill:#263238;" d="M83.14,241.62c0,0.03,0.4,0.13,1.13,0.27c0.82,0.16,1.87,0.37,3.11,0.61
							c2.63,0.52,6.25,1.28,10.22,2.24c3.97,0.96,7.54,1.95,10.11,2.69c1.22,0.35,2.25,0.65,3.05,0.88
							c0.72,0.21,1.12,0.31,1.13,0.28c0.01-0.03-0.38-0.18-1.08-0.44c-0.7-0.26-1.73-0.61-3.01-1.02c-2.56-0.82-6.12-1.86-10.1-2.82
							c-3.98-0.96-7.62-1.67-10.27-2.11c-1.32-0.22-2.4-0.38-3.14-0.47C83.55,241.62,83.14,241.59,83.14,241.62z"/>
					</g>
				</g>
			</g>
		</g>
		<g>
			<g>
				<g>
					<g>
						<path style="fill:#263238;" d="M113.22,209.44c-0.03-0.02-0.27,0.36-0.7,1.04c-0.43,0.68-1.01,1.7-1.67,2.99
							c-1.33,2.56-2.93,6.25-4.15,10.49c-1.22,4.25-1.82,8.22-2.05,11.1c-0.12,1.44-0.17,2.61-0.17,3.42c0,0.81,0.01,1.25,0.04,1.25
							c0.03,0,0.08-0.44,0.13-1.25c0.05-0.8,0.15-1.96,0.31-3.39c0.31-2.86,0.96-6.79,2.17-11.01c1.22-4.21,2.75-7.89,4.01-10.47
							c0.62-1.29,1.16-2.33,1.54-3.04C113.05,209.86,113.25,209.45,113.22,209.44z"/>
					</g>
				</g>
			</g>
		</g>
		<g>
			<g>
				<g>
					<g>
						<path style="fill:#263238;" d="M67.57,189.86c-0.02,0.03,0.31,0.25,0.91,0.64c0.67,0.44,1.52,0.99,2.52,1.65
							c2.12,1.4,4.99,3.43,8,5.86c3.01,2.44,5.58,4.83,7.4,6.61c0.85,0.85,1.57,1.56,2.13,2.13c0.5,0.5,0.79,0.77,0.81,0.75
							c0.02-0.02-0.22-0.33-0.68-0.87c-0.46-0.54-1.15-1.31-2.04-2.23c-1.76-1.84-4.31-4.28-7.34-6.74
							c-3.03-2.45-5.94-4.44-8.11-5.78c-1.08-0.67-1.98-1.19-2.6-1.53C67.93,190.01,67.58,189.83,67.57,189.86z"/>
					</g>
				</g>
			</g>
		</g>
		<g>
			<g>
				<g>
					<g>
						<path style="fill:#263238;" d="M110.55,158.78c-0.01-0.01-0.12,0.07-0.32,0.25c-0.24,0.21-0.52,0.47-0.87,0.77
							c-0.75,0.68-1.81,1.68-3.09,2.95c-2.57,2.53-6.02,6.14-9.59,10.33c-3.57,4.19-6.59,8.17-8.67,11.11
							c-1.04,1.47-1.87,2.67-2.42,3.52c-0.25,0.39-0.45,0.71-0.63,0.98c-0.14,0.23-0.21,0.35-0.19,0.36c0.01,0.01,0.1-0.1,0.27-0.31
							c0.19-0.25,0.42-0.56,0.69-0.93c0.64-0.87,1.49-2.03,2.53-3.43c2.15-2.89,5.2-6.82,8.76-11.01c3.56-4.18,6.96-7.81,9.47-10.39
							c1.22-1.25,2.23-2.27,2.99-3.04c0.32-0.33,0.59-0.61,0.81-0.83C110.47,158.9,110.56,158.79,110.55,158.78z"/>
					</g>
				</g>
			</g>
		</g>
		<g>
			<g>
				<g>
					<g>
						<path style="fill:#263238;" d="M63.14,137.49c-0.02,0.02,0.28,0.4,0.85,1.06c0.61,0.73,1.42,1.68,2.39,2.82
							c2,2.39,4.69,5.76,7.46,9.63c2.77,3.87,5.08,7.51,6.7,10.17c0.77,1.29,1.41,2.35,1.9,3.17c0.45,0.75,0.7,1.16,0.73,1.14
							c0.03-0.01-0.18-0.45-0.58-1.23c-0.4-0.78-1-1.89-1.78-3.25c-1.55-2.71-3.83-6.39-6.6-10.27c-2.78-3.88-5.52-7.23-7.58-9.57
							c-1.03-1.17-1.89-2.1-2.5-2.73C63.51,137.8,63.16,137.46,63.14,137.49z"/>
					</g>
				</g>
			</g>
		</g>
		<g>
			<g>
				<g>
					<g>
						<path style="fill:#263238;" d="M98.73,105.18c-0.03-0.01-0.25,0.43-0.62,1.25c-0.37,0.81-0.89,2-1.51,3.47
							c-1.25,2.95-2.9,7.05-4.6,11.63c-1.69,4.58-3.11,8.77-4.08,11.82c-0.49,1.52-0.87,2.76-1.11,3.62
							c-0.25,0.86-0.37,1.34-0.34,1.35c0.03,0.01,0.21-0.45,0.51-1.3c0.32-0.92,0.74-2.12,1.25-3.58c1.05-3.02,2.51-7.19,4.2-11.77
							c1.69-4.57,3.3-8.69,4.47-11.67c0.56-1.43,1.03-2.62,1.38-3.53C98.59,105.66,98.76,105.19,98.73,105.18z"/>
					</g>
				</g>
			</g>
		</g>
	</g>
	<g>
		<g>
			<g>
				<g>
					<g>
						<path style="fill:#455A64;" d="M466.74,168.77c0,0-10.25,41.98-56.13,32.36C410.61,201.14,423.91,158.62,466.74,168.77z"/>
					</g>
				</g>
			</g>
			<g>
				<g>
					<g>
						<path style="fill:#455A64;" d="M444.57,232.35c0,0-21.06,31.4-55.86,9.69C388.71,242.04,412.44,211.12,444.57,232.35z"/>
					</g>
				</g>
			</g>
			<g>
				<g>
					<g>
						<path style="fill:#455A64;" d="M411.01,280.26c0,0-30.73,26.13-60.16-6.25C350.85,274.01,384.18,249.14,411.01,280.26z"/>
					</g>
				</g>
			</g>
			<g>
				<g>
					<g>
						<path style="fill:#455A64;" d="M379.25,179.47c0,0,34.08,16.38,17.54,53.91C394.37,232.02,363.15,213.58,379.25,179.47z"/>
					</g>
				</g>
			</g>
			<g>
				<g>
					<g>
						<path style="fill:#455A64;" d="M371.85,224.72c0,0,17,22.95-8.33,42.66C361.94,264.93,347.1,243.01,371.85,224.72z"/>
					</g>
				</g>
			</g>
			<g>
				<g>
					<g>
						<path style="fill:#455A64;" d="M450.69,120.46c0,0,3.91,34.03-32.85,39.48C417.84,159.94,416.05,124.68,450.69,120.46z"/>
					</g>
				</g>
			</g>
			<g>
				<g>
					<g>
						<path style="fill:#455A64;" d="M397.97,86.03c0,0,29.73,12.42,16.82,47.26C414.79,133.29,385,118.42,397.97,86.03z"/>
					</g>
				</g>
			</g>
			<g>
				<g>
					<g>
						<path style="fill:#455A64;" d="M380.03,135.75c0,0,39.36,4.49,35.9,47.33C415.93,183.08,375.73,175.88,380.03,135.75z"/>
					</g>
				</g>
			</g>
			<g>
				<g>
					<g>
						<g>
							<path style="fill:#263238;" d="M324.02,285.28c0,0,0.17-0.06,0.5-0.15c0.35-0.09,0.84-0.22,1.47-0.39
								c1.3-0.34,3.22-0.79,5.64-1.59c4.86-1.49,11.81-4.02,19.81-8.34c8.01-4.29,16.96-10.54,25.67-18.82
								c4.35-4.14,8.63-8.8,12.69-13.93c0.98-1.31,1.96-2.63,2.95-3.97c0.5-0.67,0.99-1.34,1.49-2.01c0.48-0.68,0.92-1.4,1.39-2.11
								c0.92-1.41,1.85-2.84,2.78-4.27c0.85-1.49,1.7-2.98,2.56-4.49c0.43-0.75,0.85-1.51,1.28-2.26c0.38-0.77,0.76-1.54,1.14-2.31
								c0.75-1.54,1.52-3.05,2.25-4.58c0.66-1.55,1.31-3.1,1.96-4.63c0.32-0.77,0.66-1.52,0.96-2.29c0.28-0.78,0.55-1.55,0.83-2.32
								c0.55-1.54,1.1-3.06,1.64-4.58c0.45-1.54,0.91-3.06,1.35-4.57c0.22-0.75,0.45-1.5,0.67-2.25c0.22-0.75,0.37-1.51,0.55-2.25
								c0.35-1.5,0.7-2.98,1.05-4.44c2.58-11.75,3.15-22.65,2.93-31.72c-0.21-9.1-1.53-16.38-2.39-21.38
								c-0.53-2.49-1.01-4.4-1.3-5.71c-0.14-0.64-0.25-1.14-0.33-1.49c-0.07-0.34-0.1-0.51-0.1-0.51s0.06,0.17,0.14,0.5
								c0.09,0.35,0.21,0.84,0.38,1.48c0.32,1.3,0.82,3.22,1.38,5.7c0.91,5,2.29,12.28,2.54,21.41c0.26,9.1-0.28,20.03-2.84,31.82
								c-0.34,1.47-0.69,2.95-1.04,4.46c-0.19,0.75-0.33,1.51-0.55,2.26c-0.22,0.75-0.44,1.5-0.66,2.26
								c-0.45,1.51-0.9,3.04-1.35,4.59c-0.54,1.52-1.09,3.05-1.64,4.59c-0.28,0.77-0.55,1.55-0.83,2.33
								c-0.3,0.77-0.64,1.53-0.96,2.3c-0.65,1.54-1.31,3.09-1.97,4.65c-0.73,1.53-1.5,3.05-2.25,4.6c-0.38,0.77-0.76,1.54-1.14,2.32
								c-0.43,0.75-0.85,1.51-1.28,2.26c-0.86,1.51-1.72,3.01-2.57,4.5c-0.94,1.44-1.87,2.87-2.79,4.29
								c-0.47,0.71-0.91,1.43-1.4,2.11c-0.5,0.67-1,1.35-1.5,2.02c-1,1.34-1.99,2.66-2.97,3.98c-4.08,5.14-8.37,9.81-12.74,13.96
								c-8.75,8.29-17.76,14.53-25.81,18.8c-8.05,4.3-15.04,6.79-19.91,8.23c-2.43,0.77-4.36,1.19-5.67,1.51
								c-0.64,0.15-1.13,0.27-1.48,0.35C324.19,285.26,324.02,285.28,324.02,285.28z"/>
						</g>
					</g>
				</g>
			</g>
		</g>
		<g>
			<g>
				<g>
					<g>
						<path style="fill:#263238;" d="M368.17,243.23c0.03,0,0.02,0.35-0.03,0.96c-0.05,0.62-0.14,1.5-0.27,2.6
							c-0.27,2.19-0.72,5.21-1.37,8.52c-0.65,3.31-1.36,6.28-1.94,8.41c-0.29,1.07-0.54,1.92-0.72,2.51
							c-0.19,0.59-0.3,0.91-0.33,0.9c-0.03-0.01,0.03-0.35,0.16-0.95c0.16-0.7,0.36-1.54,0.59-2.55c0.5-2.15,1.16-5.12,1.81-8.42
							c0.64-3.3,1.15-6.3,1.49-8.48c0.16-1.01,0.3-1.87,0.42-2.58C368.07,243.56,368.14,243.22,368.17,243.23z"/>
					</g>
				</g>
			</g>
		</g>
		<g>
			<g>
				<g>
					<g>
						<path style="fill:#263238;" d="M376.55,277.31c-0.01,0.03-0.35,0-0.97-0.09c-0.71-0.1-1.58-0.23-2.61-0.38
							c-2.2-0.33-5.25-0.76-8.62-1.16c-3.38-0.39-6.44-0.68-8.66-0.87c-1.03-0.09-1.91-0.17-2.63-0.23
							c-0.62-0.06-0.96-0.11-0.96-0.14c0-0.03,0.35-0.04,0.97-0.04c0.62,0,1.53,0.03,2.64,0.09c2.23,0.11,5.3,0.34,8.69,0.74
							c3.38,0.4,6.43,0.88,8.62,1.29c1.1,0.2,1.98,0.38,2.59,0.52C376.22,277.19,376.55,277.28,376.55,277.31z"/>
					</g>
				</g>
			</g>
		</g>
		<g>
			<g>
				<g>
					<g>
						<path style="fill:#263238;" d="M417.97,235.65c0,0.03-0.4,0.13-1.14,0.27c-0.82,0.16-1.87,0.37-3.11,0.61
							c-2.63,0.52-6.25,1.28-10.22,2.24c-3.97,0.96-7.54,1.95-10.12,2.69c-1.22,0.35-2.25,0.65-3.05,0.88
							c-0.72,0.21-1.12,0.31-1.13,0.28c-0.01-0.03,0.38-0.18,1.08-0.44c0.7-0.26,1.73-0.61,3.01-1.02c2.56-0.82,6.12-1.86,10.1-2.82
							c3.98-0.96,7.62-1.67,10.27-2.11c1.32-0.22,2.4-0.38,3.14-0.47C417.55,235.66,417.96,235.62,417.97,235.65z"/>
					</g>
				</g>
			</g>
		</g>
		<g>
			<g>
				<g>
					<g>
						<path style="fill:#263238;" d="M387.88,203.47c0.03-0.02,0.27,0.36,0.7,1.04c0.43,0.68,1.01,1.7,1.67,2.99
							c1.33,2.56,2.93,6.25,4.15,10.49c1.22,4.25,1.82,8.22,2.05,11.1c0.12,1.44,0.17,2.61,0.17,3.42c0,0.81-0.01,1.25-0.04,1.25
							c-0.03,0-0.08-0.44-0.13-1.25c-0.05-0.8-0.15-1.96-0.31-3.39c-0.31-2.86-0.96-6.79-2.17-11.01
							c-1.22-4.21-2.75-7.89-4.01-10.47c-0.62-1.29-1.16-2.33-1.54-3.04C388.05,203.89,387.86,203.49,387.88,203.47z"/>
					</g>
				</g>
			</g>
		</g>
		<g>
			<g>
				<g>
					<g>
						<path style="fill:#263238;" d="M433.54,183.89c0.02,0.03-0.31,0.25-0.91,0.64c-0.67,0.44-1.52,0.99-2.52,1.65
							c-2.12,1.4-4.99,3.43-8,5.86c-3.01,2.44-5.58,4.83-7.4,6.61c-0.85,0.85-1.57,1.56-2.13,2.13c-0.5,0.5-0.79,0.77-0.81,0.75
							c-0.02-0.02,0.22-0.33,0.68-0.87c0.46-0.54,1.15-1.31,2.04-2.23c1.76-1.84,4.31-4.28,7.34-6.74c3.03-2.45,5.94-4.44,8.11-5.78
							c1.08-0.67,1.98-1.19,2.6-1.53C433.17,184.04,433.52,183.87,433.54,183.89z"/>
					</g>
				</g>
			</g>
		</g>
		<g>
			<g>
				<g>
					<g>
						<path style="fill:#263238;" d="M390.56,152.82c0.01-0.01,0.12,0.07,0.32,0.25c0.24,0.21,0.52,0.47,0.87,0.77
							c0.75,0.68,1.81,1.68,3.09,2.95c2.57,2.53,6.02,6.14,9.59,10.33c3.57,4.19,6.59,8.17,8.67,11.11
							c1.04,1.47,1.87,2.67,2.42,3.52c0.25,0.39,0.45,0.71,0.63,0.98c0.14,0.23,0.21,0.35,0.19,0.36c-0.01,0.01-0.1-0.1-0.27-0.31
							c-0.19-0.25-0.42-0.56-0.69-0.93c-0.64-0.87-1.49-2.03-2.53-3.43c-2.15-2.89-5.2-6.82-8.76-11.01
							c-3.56-4.18-6.96-7.81-9.47-10.39c-1.22-1.25-2.23-2.27-2.99-3.04c-0.32-0.33-0.59-0.61-0.81-0.83
							C390.64,152.94,390.55,152.83,390.56,152.82z"/>
					</g>
				</g>
			</g>
		</g>
		<g>
			<g>
				<g>
					<g>
						<path style="fill:#263238;" d="M437.96,131.52c0.02,0.02-0.28,0.4-0.85,1.06c-0.61,0.73-1.42,1.68-2.39,2.82
							c-2,2.39-4.69,5.76-7.46,9.63c-2.77,3.87-5.08,7.51-6.7,10.17c-0.77,1.29-1.41,2.35-1.9,3.17c-0.45,0.75-0.7,1.16-0.73,1.14
							c-0.03-0.01,0.18-0.45,0.58-1.23c0.4-0.78,1-1.89,1.78-3.25c1.55-2.71,3.83-6.39,6.6-10.27c2.78-3.88,5.52-7.23,7.58-9.57
							c1.03-1.17,1.89-2.1,2.5-2.73C437.6,131.84,437.94,131.5,437.96,131.52z"/>
					</g>
				</g>
			</g>
		</g>
		<g>
			<g>
				<g>
					<g>
						<path style="fill:#263238;" d="M402.37,99.22c0.03-0.01,0.25,0.43,0.62,1.25c0.37,0.81,0.89,2,1.52,3.47
							c1.25,2.95,2.9,7.05,4.6,11.63c1.7,4.58,3.11,8.77,4.08,11.82c0.49,1.52,0.87,2.76,1.11,3.62c0.25,0.86,0.37,1.34,0.34,1.35
							c-0.03,0.01-0.21-0.45-0.51-1.3c-0.32-0.92-0.74-2.12-1.25-3.58c-1.05-3.02-2.51-7.19-4.2-11.77
							c-1.69-4.57-3.3-8.69-4.47-11.67c-0.56-1.43-1.03-2.62-1.38-3.53C402.51,99.69,402.35,99.23,402.37,99.22z"/>
					</g>
				</g>
			</g>
		</g>
	</g>
</g>
<g id="Character">
	<g>
		<g>
			<g>
				<g>
					<path style="fill:#FFBE9D;" d="M302.81,347.2c0,0,5.18,20.7,0,29.08c-0.22,0.35-0.44,0.7-0.68,1.05
						c-6.79,10.01-19.64,13.98-31.08,10.06l-58.27-19.96l4.45-15.65l37.41,4.62l39.92-10.86L302.81,347.2z"/>
				</g>
			</g>
			<g>
				<g>
					<path style="fill:#FFBE9D;" d="M276.83,315.25c0,0,18.67,54.37,17.74,67.41c-0.93,13.04-36.97,81.36-36.97,81.36l-15.8-7.26
						c0,0,6.06-19.17,10.1-35.94c2.04-8.47,2.84-18.75,4.41-22.92c4.66-12.42,10.25-18.89,10.25-18.89l-25.43-52.27L276.83,315.25z"
						/>
				</g>
			</g>
			<g>
				<g>
					<path style="fill:#263238;" d="M225.7,278.99c0,0-5.52,15.16-1.7,29.47c3.82,14.32,39.66,73.01,39.66,73.01l41.5-24.01
						c0,0-1.6-52.3-16.05-81.48L225.7,278.99z"/>
				</g>
			</g>
			<g>
				<g>
					<g>
						<path style="fill:#EB996E;" d="M294.23,363.7c0.02-0.01,0.1,0.15,0.24,0.46c0.14,0.31,0.34,0.77,0.55,1.38
							c0.43,1.22,0.95,3.03,1.19,5.34c0.25,2.3,0.21,5.08-0.23,8.11c-0.23,1.51-0.5,3.09-0.91,4.71c-0.42,1.61-0.95,3.25-1.54,4.91
							c-2.36,6.63-4.91,12.47-6.75,16.69c-0.93,2.11-1.7,3.8-2.25,4.97c-0.26,0.54-0.47,0.98-0.64,1.34
							c-0.15,0.3-0.24,0.46-0.26,0.45c-0.02-0.01,0.04-0.18,0.16-0.49c0.15-0.37,0.33-0.82,0.56-1.37c0.53-1.26,1.24-2.96,2.1-5.03
							c1.76-4.25,4.25-10.11,6.6-16.71c0.59-1.65,1.11-3.28,1.54-4.86c0.41-1.59,0.7-3.16,0.93-4.65c0.46-2.99,0.53-5.73,0.34-8.01
							c-0.2-2.28-0.65-4.09-1.02-5.31C294.46,364.37,294.18,363.72,294.23,363.7z"/>
					</g>
				</g>
			</g>
			<g>
				<g>
					<g>
						<path style="fill:#EB996E;" d="M253.32,413.68c-0.04,0,0-0.51,0.09-1.41c0.08-0.9,0.24-2.2,0.46-3.81
							c0.47-3.2,1.19-7.66,2.85-12.35c1.65-4.7,3.98-8.58,5.7-11.32c0.87-1.37,1.6-2.46,2.12-3.2c0.52-0.74,0.82-1.14,0.85-1.13
							c0.03,0.02-0.21,0.46-0.68,1.24c-0.52,0.86-1.18,1.96-1.98,3.28c-1.64,2.78-3.9,6.66-5.53,11.3
							c-1.64,4.64-2.42,9.05-2.98,12.23c-0.25,1.52-0.46,2.79-0.63,3.78C253.46,413.2,253.36,413.69,253.32,413.68z"/>
					</g>
				</g>
			</g>
			<g>
				<g>
					<g>
						<path style="fill:#455A64;" d="M293.98,352.32c-0.02,0-0.08-0.16-0.19-0.48c-0.12-0.38-0.27-0.83-0.45-1.39
							c-0.4-1.29-0.93-3.02-1.58-5.13c-1.34-4.33-3.23-10.3-5.47-16.85c-2.24-6.55-4.41-12.42-6.01-16.67
							c-0.78-2.07-1.42-3.76-1.9-5.02c-0.2-0.55-0.37-1-0.5-1.37c-0.11-0.32-0.16-0.49-0.14-0.49c0.02-0.01,0.1,0.15,0.24,0.45
							c0.16,0.36,0.36,0.8,0.59,1.34c0.51,1.16,1.21,2.86,2.05,4.97c1.69,4.21,3.91,10.08,6.16,16.63
							c2.24,6.55,4.08,12.55,5.33,16.91c0.62,2.18,1.11,3.95,1.42,5.18c0.14,0.57,0.26,1.04,0.35,1.42
							C293.97,352.14,294,352.31,293.98,352.32z"/>
					</g>
				</g>
			</g>
			<g>
				<g>
					<g>
						<path style="fill:#455A64;" d="M269.58,311.75c-0.06,0.08-1.3-0.94-3.51-2.27c-1.1-0.67-2.46-1.38-4.01-2.08
							c-1.56-0.67-3.32-1.32-5.21-1.84c-1.9-0.5-3.74-0.82-5.43-1.02c-1.69-0.17-3.23-0.24-4.51-0.21
							c-2.58,0.05-4.16,0.31-4.18,0.21c-0.01-0.04,0.39-0.12,1.1-0.25c0.71-0.14,1.76-0.26,3.06-0.33c1.3-0.08,2.86-0.05,4.57,0.1
							c1.72,0.17,3.59,0.48,5.52,0.99c1.92,0.53,3.7,1.2,5.27,1.91c1.56,0.73,2.92,1.49,4.01,2.21c1.09,0.71,1.94,1.34,2.49,1.82
							C269.31,311.45,269.6,311.72,269.58,311.75z"/>
					</g>
				</g>
			</g>
		</g>
		<g>
			<g>
				<g>
					<path style="fill:#FF725E;fill: var(--primary_color_light10);" d="M284.85,252.97c0.3-6.86,8.4-15.47,6.31-34.94c-2.19-20.41-5.3-38.4-5.3-38.4l-15.38,3.76
						l-2.65-3.76l-25.41,6.04l-3.95,3.78l-17.63,7.21c-2.11,0.86-3.77,2.55-4.61,4.67l-12.33,31.22l-26.69-17.95L167.1,228.3
						c0,0,33.6,30.83,42.38,29.94c7.87-0.8,14.46-12.73,17.73-19.88l5.06,21.09c0,0-8.03,14.1-9.61,38.04l52.78,2
						c3.3,0.13,6.47-1.3,8.56-3.86l9.98-12.21C293.98,283.41,284.55,259.82,284.85,252.97z"/>
				</g>
			</g>
			<g>
				<g>
					<path style="fill:#FF725E;fill: var(--primary_color_light10);" d="M278.67,183.43l6.81-3.12l26.75-23.33l9.62-40.66l17.02,7.11c0,0-1.63,30.55-3.75,41.06
						c-2.13,10.51-45.12,44.47-45.12,44.47L278.67,183.43z"/>
				</g>
			</g>
			<g>
				<g>
					<g>
						<path style="fill:#263238;" d="M288,189.66c0.07,0,0.22,1.33,0.49,3.47c0.29,2.29,0.66,5.19,1.06,8.39
							c0.4,3.28,0.73,6.25,0.92,8.41c0.09,1.08,0.16,1.95,0.18,2.56c0.03,0.61,0.02,0.94-0.01,0.95c-0.07,0.01-0.25-1.32-0.54-3.47
							c-0.29-2.29-0.66-5.19-1.07-8.39c-0.4-3.28-0.73-6.25-0.91-8.41c-0.09-1.08-0.14-1.96-0.16-2.56
							C287.95,190,287.96,189.67,288,189.66z"/>
					</g>
				</g>
			</g>
			<g>
				<g>
					<g>
						<path style="fill:#263238;" d="M269.74,244.27c-0.01,0.01-0.19-0.17-0.5-0.51c-0.34-0.39-0.8-0.9-1.36-1.54
							c-1.2-1.39-2.87-3.34-4.92-5.71c-4.15-4.9-9.82-11.59-16.08-18.98c-3.14-3.74-6.13-7.31-8.84-10.53l-0.11-0.13l0.08-0.14
							c0.67-1.18,1.32-2.33,1.94-3.42l0.25,0.33c-1.16,0.24-2.26,0.29-3.26,0.51l-0.29,0.06l0.04-0.29
							c0.54-4.25,0.98-7.75,1.3-10.26c0.16-1.18,0.29-2.12,0.39-2.83c0.1-0.65,0.16-0.99,0.18-0.99c0.02,0,0,0.35-0.06,1
							c-0.07,0.71-0.16,1.65-0.28,2.84c-0.27,2.51-0.65,6.03-1.12,10.28l-0.25-0.23c1.05-0.24,2.15-0.3,3.25-0.54l0.49-0.11
							l-0.24,0.44c-0.61,1.1-1.25,2.25-1.92,3.44l-0.03-0.27c2.72,3.22,5.72,6.77,8.87,10.5c6.22,7.43,11.84,14.15,15.96,19.08
							c2,2.42,3.62,4.4,4.79,5.82c0.53,0.66,0.96,1.19,1.28,1.6C269.61,244.06,269.76,244.26,269.74,244.27z"/>
					</g>
				</g>
			</g>
			<g>
				<g>
					<g>
						<path style="fill:#263238;" d="M273.69,241.38c-0.02,0,0-0.23,0.06-0.66c0.07-0.49,0.16-1.11,0.27-1.89
							c0.25-1.64,0.65-4.01,1.16-6.92c0.51-2.92,1.14-6.39,1.7-10.26c0.57-3.87,1.06-8.15,1.13-12.66c0.1-4.92-0.31-9.59-1.04-13.67
							l0.18,0.19c-1.21-0.29-2.37-0.57-3.49-0.84l-0.53-0.13l0.47-0.28c0.89-0.53,1.74-1.03,2.55-1.51l-0.06,0.3
							c-1.11-1.58-1.93-3.1-2.7-4.41c-0.75-1.31-1.4-2.44-1.94-3.4c-0.54-0.93-0.97-1.65-1.27-2.14c-0.3-0.49-0.47-0.73-0.45-0.75
							c0.01-0.01,0.06,0.05,0.15,0.16c0.09,0.11,0.23,0.29,0.39,0.52c0.33,0.47,0.8,1.17,1.36,2.09c0.57,0.94,1.25,2.06,2.03,3.35
							c0.79,1.29,1.65,2.81,2.75,4.33l0.13,0.18l-0.19,0.11c-0.8,0.49-1.64,1-2.53,1.54l-0.06-0.4c1.12,0.26,2.28,0.53,3.49,0.81
							l0.15,0.03l0.03,0.15c0.77,4.11,1.19,8.81,1.09,13.77c-0.08,4.54-0.58,8.84-1.18,12.72c-0.6,3.88-1.26,7.35-1.82,10.26
							c-0.55,2.86-1,5.2-1.33,6.89c-0.15,0.77-0.27,1.39-0.37,1.87C273.76,241.16,273.71,241.38,273.69,241.38z"/>
					</g>
				</g>
			</g>
			<g>
				<g>
					<g>
						<path style="fill:#263238;" d="M276.97,252.14c0.02,0.03-0.26,0.21-0.78,0.49c-0.52,0.29-1.28,0.68-2.23,1.14
							c-1.9,0.92-4.58,2.08-7.62,3.16c-3.04,1.07-5.86,1.86-7.92,2.34c-1.03,0.24-1.86,0.42-2.45,0.51
							c-0.58,0.1-0.91,0.14-0.91,0.11c-0.02-0.08,1.24-0.41,3.27-0.98c2.03-0.57,4.81-1.4,7.83-2.47c3.02-1.07,5.71-2.17,7.64-3
							C275.74,252.61,276.93,252.07,276.97,252.14z"/>
					</g>
				</g>
			</g>
			<g>
				<g>
					<g>
						<path style="fill:#263238;" d="M277.85,260.32c0,0.08-0.95,0.08-2.48,0.08c-1.53,0-3.64,0.02-5.97,0.12
							c-2.33,0.1-4.43,0.27-5.96,0.4c-1.52,0.13-2.47,0.21-2.48,0.14c-0.01-0.07,0.92-0.28,2.44-0.5c1.52-0.23,3.63-0.45,5.98-0.55
							c2.34-0.1,4.47-0.06,6,0.04C276.92,260.12,277.86,260.25,277.85,260.32z"/>
					</g>
				</g>
			</g>
			<g>
				<g>
					<g>
						<path style="fill:#263238;" d="M273.97,252.35c-0.14,0-0.32-2.45-0.4-5.48c-0.08-3.03-0.02-5.49,0.12-5.49
							c0.14,0,0.32,2.45,0.4,5.48C274.17,249.89,274.12,252.35,273.97,252.35z"/>
					</g>
				</g>
			</g>
			<g>
				<g>
					<g>
						<path style="fill:#263238;" d="M273.19,259.83c-0.14,0.02-0.45-1.25-0.69-2.83c-0.24-1.59-0.32-2.89-0.18-2.91
							c0.14-0.02,0.45,1.25,0.69,2.83C273.25,258.5,273.33,259.81,273.19,259.83z"/>
					</g>
				</g>
			</g>
			<g>
				<g>
					<g>
						<path style="fill:#263238;" d="M279.44,298.85c-0.04,0-0.09-0.53-0.16-1.49c-0.07-0.96-0.17-2.35-0.32-4.07
							c-0.29-3.44-0.81-8.17-1.59-13.38c-0.78-5.2-1.67-9.89-2.4-13.26c-0.36-1.69-0.67-3.05-0.88-3.99
							c-0.21-0.94-0.32-1.47-0.28-1.48c0.03-0.01,0.2,0.5,0.48,1.42c0.28,0.93,0.64,2.28,1.05,3.96c0.82,3.36,1.77,8.04,2.56,13.26
							c0.78,5.22,1.24,9.97,1.44,13.43c0.11,1.72,0.15,3.12,0.16,4.09C279.49,298.32,279.48,298.85,279.44,298.85z"/>
					</g>
				</g>
			</g>
			<g style="opacity:0.3;">
				<g>
					<path d="M236.74,204.07l1.17,0.49l-1.3,3.02c0,0,20.03,24.46,25.47,29.19c6.6,5.74,6.8,6.48,6.8,6.48l-30.65-36.41l1.93-3.43
						L236.74,204.07z"/>
				</g>
			</g>
			<g style="opacity:0.3;">
				<g>
					<g>
						<path d="M251.11,261.1c9.81-3.06,19.62-6.11,29.44-9.17c0.47,1.68-0.38,3.52-1.69,4.66c-1.32,1.15-3.02,1.73-4.7,2.2
							c-7.08,2.01-15.63,3.24-22.94,2.31"/>
					</g>
				</g>
			</g>
			<g>
				<g>
					<g>
						<path style="fill:#263238;" d="M211.17,238.98c-0.15,0.08-1.03-2.35-3.35-4.35c-2.29-2.03-4.82-2.57-4.76-2.73
							c0.01-0.06,0.65-0.01,1.63,0.32c0.98,0.32,2.27,0.98,3.47,2.02c1.19,1.04,2.02,2.24,2.48,3.16
							C211.09,238.33,211.22,238.96,211.17,238.98z"/>
					</g>
				</g>
			</g>
			<g>
				<g>
					<g>
						<path style="fill:#263238;" d="M221.64,211.67c0.02,0,0.07,0.16,0.16,0.47c0.1,0.37,0.21,0.83,0.36,1.38
							c0.31,1.28,0.72,3.01,1.21,5.1c1,4.31,2.35,10.28,3.82,16.88c1.43,6.57,2.72,12.51,3.68,16.91c0.44,2.11,0.8,3.84,1.06,5.14
							c0.11,0.56,0.2,1.02,0.27,1.4c0.06,0.32,0.08,0.49,0.07,0.49c-0.04,0.01-0.23-0.65-0.53-1.85c-0.31-1.28-0.72-3.01-1.23-5.1
							c-1.01-4.31-2.37-10.28-3.83-16.88c-1.46-6.6-2.76-12.58-3.67-16.91c-0.43-2.11-0.79-3.85-1.05-5.14
							c-0.1-0.56-0.19-1.02-0.26-1.4C221.65,211.84,221.63,211.67,221.64,211.67z"/>
					</g>
				</g>
			</g>
			<g>
				<g>
					<g>
						<path style="fill:#263238;" d="M171.44,227c0.08,0.03-0.24,0.52,0.07,1.25c0.15,0.34,0.46,0.72,0.9,0.85
							c0.43,0.14,0.97-0.08,1.31-0.52c0.33-0.44,0.39-1.02,0.14-1.4c-0.24-0.39-0.7-0.58-1.06-0.63c-0.78-0.1-1.16,0.35-1.22,0.28
							c-0.02-0.02,0.03-0.16,0.22-0.32c0.19-0.17,0.55-0.33,1.02-0.33c0.45,0.01,1.05,0.18,1.44,0.73c0.41,0.55,0.32,1.4-0.12,1.98
							c-0.43,0.59-1.22,0.9-1.87,0.67c-0.63-0.22-0.97-0.75-1.1-1.18c-0.13-0.45-0.07-0.84,0.03-1.07
							C171.29,227.07,171.42,226.98,171.44,227z"/>
					</g>
				</g>
			</g>
			<g>
				<g>
					<g>
						<path style="fill:#263238;" d="M324.09,122.04c-0.01-0.02,0.08-0.16,0.37-0.23c0.28-0.08,0.73,0.01,1.14,0.31
							c0.4,0.3,0.82,0.79,0.93,1.5c0.11,0.74-0.44,1.54-1.2,1.8c-0.74,0.3-1.63,0.15-2.14-0.38c-0.53-0.55-0.49-1.28-0.35-1.74
							c0.32-0.96,0.88-1.3,0.91-1.26c0.07,0.06-0.36,0.49-0.55,1.35c-0.08,0.42-0.05,0.96,0.33,1.31c0.37,0.35,1.03,0.47,1.61,0.23
							c0.59-0.21,0.96-0.76,0.91-1.26c-0.05-0.53-0.37-0.98-0.68-1.26c-0.32-0.28-0.66-0.4-0.89-0.39
							C324.24,122.02,324.11,122.09,324.09,122.04z"/>
					</g>
				</g>
			</g>
		</g>
		<g>
			<g>
				<g>
					<path style="fill:#455A64;" d="M182.89,190.64c6.56-8.37,15.42-14.99,26.12-16.7c5.52-0.88,10.87,0.04,16.12,1.81
						c5.56,1.88,10.89,4.13,16.76,4.9c6.74,0.89,13.51,0.27,20.23-0.5c1.3-0.15,6.11-1.37,6.11-2.79c0-1.2-4.8-2.21-6.11-2.06
						c-6.1,0.7-12.27,1.31-18.41,0.71c-5.99-0.58-11.45-2.94-17.08-4.87c-5.58-1.91-11.31-2.87-17.2-2.12
						c-5.83,0.73-11.41,2.75-16.41,5.84c-5.23,3.24-9.77,7.51-13.56,12.35c-0.81,1.03-1.01,2.43,0,3.43
						C180.29,191.48,182.07,191.68,182.89,190.64L182.89,190.64z"/>
				</g>
			</g>
		</g>
		<g style="opacity:0.3;">
			<g>
				<g>
					<path d="M182.91,190.71c6.56-8.37,15.42-14.99,26.12-16.7c5.52-0.88,10.87,0.04,16.12,1.81c5.56,1.88,10.89,4.13,16.76,4.9
						c6.74,0.89,13.51,0.27,20.23-0.5c1.3-0.15,6.09-0.99,6.09-2.41c0-1.2-4.77-2.6-6.09-2.45c-6.1,0.7-12.27,1.31-18.41,0.71
						c-5.99-0.58-11.45-2.94-17.08-4.87c-5.58-1.91-11.31-2.87-17.2-2.12c-5.83,0.73-11.41,2.75-16.41,5.84
						c-5.23,3.24-9.77,7.51-13.56,12.35c-0.81,1.03-1.01,2.43,0,3.43C180.32,191.55,182.1,191.75,182.91,190.71L182.91,190.71z"/>
				</g>
			</g>
		</g>
		<g>
			<g>
				<g>
					<path style="fill:#263238;" d="M278.03,131.61c2.28-1.29,2.74-4.76,1.18-6.89c-1.55-2.12-4.57-2.84-7.09-2.08
						c0.66-1.46-0.06-3.28-1.32-4.27c-1.26-0.99-2.93-1.29-4.53-1.3c-2.15-0.02-4.61,0.66-5.5,2.63c-0.34-1.28-1.79-1.93-3.11-2.02
						c-3.53-0.25-6.98,2.64-7.38,6.16c-1.21-0.6-2.57-1.06-3.9-0.84c-1.33,0.22-2.6,1.29-2.67,2.64c-0.77-1.09-2.29-1.34-3.62-1.23
						c-0.96,0.08-1.95,0.31-2.69,0.92c-0.74,0.61-1.17,1.68-0.82,2.58c-1.83-0.36-3.82,0.88-4.32,2.67c-0.51,1.8,0.55,3.9,2.29,4.56
						c-1.26,1.03-1.94,2.74-1.72,4.35c0.21,1.62,1.31,3.09,2.8,3.76c-0.78,0.2-0.99,1.35-0.51,2c0.48,0.65,0.16,0.7,0.97,0.68
						c0.16,2.8,0.38,4.95,0.54,7.75c0.11,1.81,0.07,4.18,0.73,5.86c0.66,1.68,3.02,3.51,4.77,3.95l33.38-12.46
						c2.24-2.3,2.96-5.97,1.74-8.95c-0.14-0.33-0.3-0.7-0.19-1.04c0.09-0.3,0.36-0.49,0.61-0.68c1.33-1.06,2.28-2.63,2.42-4.33
						C280.21,134.33,279.45,132.54,278.03,131.61z"/>
				</g>
			</g>
			<g>
				<g>
					<g>
						<g>
							<g>
								<g>
									<g>
										<g>
											<g>
												<g>
													<g>
														<g>
															<g>
																<g>
																	<g>
																		<g>
																			<path style="fill:#FFBE9D;" d="M274.98,142.96c-0.75-6.75-8.35-13.17-15.03-12.14l-21.59,5.2l0.25,3.64
																				l5.52,49.02l23.4,13.94l-1.38-24.09c0,0,8.55-1.85,9.78-13.22C276.55,159.66,275.82,150.46,274.98,142.96z"/>
																		</g>
																	</g>
																</g>
															</g>
														</g>
													</g>
												</g>
											</g>
										</g>
									</g>
								</g>
								<g>
									<g>
										<g>
											<g>
												<g>
													<g>
														<g>
															<g>
																<g>
																	<g>
																		<g>
																			<g>
																				<g>
																					<g>
																						<g>
																							<g>
																								<g>
																									<g>
																										<g>
																											<g>
																												<path style="fill:#263238;" d="M270.83,152.81c0.06,0.76-0.53,1.45-1.32,1.53
																													c-0.79,0.08-1.49-0.47-1.55-1.23c-0.06-0.76,0.53-1.45,1.32-1.53
																													C270.07,151.49,270.76,152.04,270.83,152.81z"/>
																											</g>
																										</g>
																									</g>
																								</g>
																							</g>
																						</g>
																					</g>
																				</g>
																			</g>
																		</g>
																	</g>
																</g>
															</g>
														</g>
													</g>
												</g>
											</g>
										</g>
									</g>
									<g>
										<g>
											<g>
												<g>
													<g>
														<g>
															<g>
																<g>
																	<g>
																		<g>
																			<g>
																				<g>
																					<g>
																						<g>
																							<g>
																								<g>
																									<g>
																										<g>
																											<g>
																												<g>
																													<path style="fill:#263238;" d="M273.23,147.84c-0.17,0.2-1.3-0.56-2.85-0.49
																														c-1.55,0.06-2.65,0.91-2.83,0.73c-0.09-0.08,0.08-0.43,0.56-0.82c0.47-0.38,1.29-0.77,2.25-0.82
																														c0.97-0.04,1.8,0.28,2.28,0.62C273.13,147.42,273.31,147.76,273.23,147.84z"/>
																												</g>
																											</g>
																										</g>
																									</g>
																								</g>
																							</g>
																						</g>
																					</g>
																				</g>
																			</g>
																		</g>
																	</g>
																</g>
															</g>
														</g>
													</g>
												</g>
											</g>
										</g>
									</g>
								</g>
								<g>
									<g>
										<g>
											<g>
												<g>
													<g>
														<g>
															<g>
																<g>
																	<g>
																		<g>
																			<g>
																				<g>
																					<g>
																						<g>
																							<g>
																								<g>
																									<g>
																										<g>
																											<g>
																												<path style="fill:#263238;" d="M257.25,153.24c0.06,0.76-0.53,1.45-1.32,1.53
																													c-0.79,0.08-1.49-0.47-1.55-1.23c-0.06-0.76,0.53-1.45,1.32-1.53
																													C256.5,151.92,257.19,152.47,257.25,153.24z"/>
																											</g>
																										</g>
																									</g>
																								</g>
																							</g>
																						</g>
																					</g>
																				</g>
																			</g>
																		</g>
																	</g>
																</g>
															</g>
														</g>
													</g>
												</g>
											</g>
										</g>
									</g>
									<g>
										<g>
											<g>
												<g>
													<g>
														<g>
															<g>
																<g>
																	<g>
																		<g>
																			<g>
																				<g>
																					<g>
																						<g>
																							<g>
																								<g>
																									<g>
																										<g>
																											<g>
																												<g>
																													<path style="fill:#263238;" d="M258.05,149.19c-0.17,0.2-1.3-0.56-2.85-0.48
																														c-1.55,0.06-2.65,0.91-2.83,0.73c-0.09-0.08,0.08-0.43,0.56-0.82c0.47-0.38,1.29-0.77,2.25-0.82
																														c0.97-0.04,1.8,0.28,2.28,0.62C257.95,148.77,258.13,149.1,258.05,149.19z"/>
																												</g>
																											</g>
																										</g>
																									</g>
																								</g>
																							</g>
																						</g>
																					</g>
																				</g>
																			</g>
																		</g>
																	</g>
																</g>
															</g>
														</g>
													</g>
												</g>
											</g>
										</g>
									</g>
								</g>
								<g>
									<g>
										<g>
											<g>
												<g>
													<g>
														<g>
															<g>
																<g>
																	<g>
																		<g>
																			<g>
																				<g>
																					<g>
																						<g>
																							<g>
																								<g>
																									<g>
																										<g>
																											<g>
																												<g>
																													<path style="fill:#263238;" d="M264.18,160.15c-0.01-0.09,0.94-0.3,2.5-0.58
																														c0.39-0.06,0.77-0.16,0.82-0.43c0.08-0.29-0.11-0.71-0.32-1.17c-0.42-0.95-0.86-1.94-1.32-2.97
																														c-1.84-4.24-3.19-7.73-3.02-7.8c0.17-0.07,1.8,3.3,3.63,7.54c0.44,1.04,0.87,2.04,1.27,2.99
																														c0.17,0.44,0.45,0.95,0.28,1.55c-0.09,0.3-0.37,0.53-0.62,0.61c-0.25,0.09-0.47,0.1-0.67,0.13
																														C265.17,160.18,264.19,160.23,264.18,160.15z"/>
																												</g>
																											</g>
																										</g>
																									</g>
																								</g>
																							</g>
																						</g>
																					</g>
																				</g>
																			</g>
																		</g>
																	</g>
																</g>
															</g>
														</g>
													</g>
												</g>
											</g>
										</g>
									</g>
								</g>
								<g>
									<g>
										<g>
											<g>
												<g>
													<g>
														<g>
															<g>
																<g>
																	<g>
																		<g>
																			<g>
																				<g>
																					<g>
																						<g>
																							<g>
																								<g>
																									<g>
																										<g>
																											<g>
																												<path style="fill:#EB996E;" d="M266.15,178.53c0,0-7.54,0.85-15.25-3.32c0,0,4.6,8.39,15.8,6.8
																													L266.15,178.53z"/>
																											</g>
																										</g>
																									</g>
																								</g>
																							</g>
																						</g>
																					</g>
																				</g>
																			</g>
																		</g>
																	</g>
																</g>
															</g>
														</g>
													</g>
												</g>
											</g>
										</g>
									</g>
								</g>
								<g>
									<g>
										<g>
											<g>
												<g>
													<g>
														<g>
															<g>
																<g>
																	<g>
																		<g>
																			<g>
																				<g>
																					<g>
																						<g>
																							<g>
																								<g>
																									<g>
																										<g>
																											<g>
																												<path style="fill:#EB996E;" d="M263.71,163.93c-0.59-0.71-1.59-1.08-2.56-0.92
																													c-0.67,0.1-1.33,0.46-1.72,1.03c-0.38,0.57-0.43,1.36-0.03,1.86c0.45,0.57,1.33,0.67,2.06,0.42
																													c0.73-0.25,1.34-0.77,1.93-1.28c0.16-0.14,0.33-0.29,0.42-0.48c0.1-0.19,0.11-0.43-0.03-0.58"/>
																											</g>
																										</g>
																									</g>
																								</g>
																							</g>
																						</g>
																					</g>
																				</g>
																			</g>
																		</g>
																	</g>
																</g>
															</g>
														</g>
													</g>
												</g>
											</g>
										</g>
									</g>
								</g>
								<g>
									<g>
										<g>
											<g>
												<g>
													<g>
														<g>
															<g>
																<g>
																	<g>
																		<g>
																			<g>
																				<g>
																					<g>
																						<g>
																							<g>
																								<g>
																									<g>
																										<g>
																											<g>
																												<g>
																													<path style="fill:#263238;" d="M259.67,161.44c0.25-0.03,0.34,1.66,1.84,2.8
																														c1.5,1.14,3.28,0.86,3.31,1.1c0.03,0.1-0.38,0.35-1.14,0.4c-0.74,0.06-1.84-0.13-2.76-0.82
																														c-0.92-0.69-1.34-1.66-1.43-2.35C259.39,161.86,259.55,161.44,259.67,161.44z"/>
																												</g>
																											</g>
																										</g>
																									</g>
																								</g>
																							</g>
																						</g>
																					</g>
																				</g>
																			</g>
																		</g>
																	</g>
																</g>
															</g>
														</g>
													</g>
												</g>
											</g>
										</g>
									</g>
								</g>
							</g>
						</g>
					</g>
					<g>
						<g>
							<g>
								<g>
									<g>
										<g>
											<g>
												<g>
													<g>
														<g>
															<g>
																<g>
																	<g>
																		<g>
																			<g>
																				<g>
																					<g>
																						<g>
																							<g>
																								<g>
																									<g>
																										<path style="fill:#263238;" d="M258.25,143.6c-0.13,0.43-1.69,0.3-3.5,0.61
																											c-1.82,0.27-3.26,0.87-3.52,0.51c-0.12-0.18,0.12-0.59,0.69-1.03c0.57-0.44,1.49-0.87,2.57-1.05
																											c1.09-0.17,2.1-0.04,2.77,0.19C257.95,143.08,258.3,143.4,258.25,143.6z"/>
																									</g>
																								</g>
																							</g>
																						</g>
																					</g>
																				</g>
																			</g>
																		</g>
																	</g>
																</g>
															</g>
														</g>
													</g>
												</g>
											</g>
										</g>
									</g>
								</g>
							</g>
						</g>
					</g>
					<g>
						<g>
							<g>
								<g>
									<g>
										<g>
											<g>
												<g>
													<g>
														<g>
															<g>
																<g>
																	<g>
																		<g>
																			<g>
																				<g>
																					<g>
																						<g>
																							<g>
																								<g>
																									<g>
																										<path style="fill:#263238;" d="M272.44,143.36c-0.26,0.37-1.34,0.05-2.63,0.09
																											c-1.29,0-2.36,0.35-2.63-0.01c-0.12-0.17,0.04-0.54,0.5-0.89c0.45-0.36,1.22-0.67,2.11-0.68
																											c0.88-0.01,1.67,0.27,2.13,0.61C272.38,142.83,272.55,143.18,272.44,143.36z"/>
																									</g>
																								</g>
																							</g>
																						</g>
																					</g>
																				</g>
																			</g>
																		</g>
																	</g>
																</g>
															</g>
														</g>
													</g>
												</g>
											</g>
										</g>
									</g>
								</g>
							</g>
						</g>
					</g>
				</g>
			</g>
			<g>
				<g>
					<path style="fill:#263238;" d="M269.72,130.17l-0.69-0.29c1.09-2.44-0.76-5.57-3.35-6.18c-2.6-0.61-5.4,0.99-6.62,3.37
						c-1.15-2.12-3.89-3.22-6.17-2.47c-1.89,0.62-3.24,2.25-4.54,3.76c-0.29,0.34-0.66,0.71-1.11,0.66
						c-0.33-0.04-0.58-0.29-0.82-0.52c-2.15-1.97-5.58-2.12-8.15-0.75c-2.57,1.37-4.3,4.01-5.07,6.82
						c-0.32,1.15-0.49,2.38-0.19,3.53c0.3,1.15,1.14,2.22,2.29,2.52c-1.01,1.42-1.32,3.32-0.81,4.99c0.51,1.67,1.83,3.07,3.46,3.67
						c0.11,0.39,0.29,0.75,0.49,1.09c-0.17,2.06-0.29,4.12-0.22,6.18c0.03,0.89,0.1,1.81,0.54,2.58c0.44,0.77,1.36,1.34,2.21,1.1
						c0.94-0.26,2.24-0.73,2.51-1.67c0.49-1.66-0.05-3.95,0.08-5.68c1.73-0.28,3.31-1.48,3.97-3.13c0.78-1.95,0.18-4.37-1.4-5.75
						c1.61,0.67,3.53,0.52,5.01-0.39c1.48-0.91,2.49-2.56,2.63-4.3c1.57,1.51,3.82,2.27,5.98,2.03c1.03-0.11,2.09-0.48,2.73-1.29
						c0.64-0.81,0.71-2.14-0.08-2.82c1.98,0.91,4.49,0.48,6.05-1.04C270.02,134.69,270.54,132.19,269.72,130.17z"/>
				</g>
			</g>
			<g>
				<g>
					<g>
						<g>
							<g>
								<g>
									<g>
										<g>
											<g>
												<g>
													<g>
														<g>
															<g>
																<g>
																	<g>
																		<g>
																			<g>
																				<g>
																					<g>
																						<g>
																							<g>
																								<g>
																									<path style="fill:#FFBE9D;" d="M241.51,154.65c-0.17-0.07-6.7-1.78-6.29,4.85
																										c0.41,6.63,6.96,4.86,6.96,4.67C242.17,163.98,241.51,154.65,241.51,154.65z"/>
																								</g>
																							</g>
																						</g>
																					</g>
																				</g>
																			</g>
																		</g>
																	</g>
																</g>
															</g>
														</g>
													</g>
												</g>
											</g>
										</g>
									</g>
								</g>
							</g>
						</g>
					</g>
				</g>
				<g>
					<g>
						<g>
							<g>
								<g>
									<g>
										<g>
											<g>
												<g>
													<g>
														<g>
															<g>
																<g>
																	<g>
																		<g>
																			<g>
																				<g>
																					<g>
																						<g>
																							<g>
																								<g>
																									<g>
																										<path style="fill:#EB996E;" d="M240,161.78c-0.03-0.02-0.11,0.09-0.3,0.19c-0.18,0.1-0.51,0.18-0.86,0.07
																											c-0.71-0.21-1.37-1.29-1.48-2.48c-0.05-0.6,0.04-1.18,0.22-1.67c0.17-0.5,0.46-0.86,0.81-0.94
																											c0.34-0.1,0.61,0.09,0.7,0.28c0.1,0.18,0.07,0.31,0.1,0.32c0.02,0.02,0.13-0.12,0.06-0.39
																											c-0.04-0.13-0.12-0.28-0.29-0.4c-0.17-0.12-0.4-0.17-0.65-0.13c-0.51,0.07-0.94,0.56-1.14,1.1
																											c-0.23,0.54-0.35,1.2-0.28,1.87c0.13,1.33,0.88,2.54,1.86,2.76c0.47,0.09,0.85-0.07,1.04-0.24
																											C240,161.94,240.02,161.79,240,161.78z"/>
																									</g>
																								</g>
																							</g>
																						</g>
																					</g>
																				</g>
																			</g>
																		</g>
																	</g>
																</g>
															</g>
														</g>
													</g>
												</g>
											</g>
										</g>
									</g>
								</g>
							</g>
						</g>
					</g>
				</g>
			</g>
			<g>
				<g>
					<g>
						<g>
							<g>
								<g>
									<g>
										<path style="fill:#FFFFFF;" d="M253.43,138.19c0,0.01,0.06,0.02,0.18,0.04c0.12,0.02,0.3,0.04,0.53,0.06
											c0.47,0.03,1.16,0.06,2.03-0.1c0.43-0.08,0.91-0.21,1.39-0.44c0.48-0.23,0.98-0.56,1.39-1.03
											c0.41-0.47,0.74-1.07,0.91-1.76c0.15-0.69,0.11-1.49-0.28-2.18l-0.18,0.17c1.26,0.82,2.91,1.3,4.65,1.17
											c0.87-0.06,1.75-0.28,2.58-0.66c0.41-0.19,0.82-0.43,1.17-0.76c0.35-0.32,0.64-0.75,0.77-1.22
											c0.16-0.56,0.14-1.14,0.06-1.68c-0.09-0.54-0.24-1.06-0.4-1.56c-0.16-0.5-0.36-1-0.67-1.43c-0.29-0.43-0.76-0.8-1.3-0.84
											l-0.05,0.27c1.02,0.26,2.07,0.13,2.95-0.26c0.88-0.38,1.6-1,2.1-1.71c0.48-0.72,0.74-1.54,0.73-2.29
											c0.01-0.76-0.17-1.45-0.43-2.02c-0.53-1.16-1.35-1.82-1.93-2.15c-0.6-0.33-0.97-0.38-0.97-0.38
											c-0.01,0.03,0.35,0.11,0.92,0.46c0.56,0.35,1.33,1.02,1.82,2.14c0.24,0.56,0.4,1.22,0.38,1.95
											c-0.01,0.72-0.25,1.49-0.72,2.16c-0.47,0.67-1.17,1.25-2,1.6c-0.83,0.36-1.82,0.48-2.77,0.23l-0.05,0.27
											c0.44,0.04,0.83,0.33,1.1,0.73c0.28,0.4,0.47,0.87,0.62,1.36c0.3,0.98,0.62,2.05,0.34,3.07c-0.24,0.87-1.01,1.44-1.79,1.8
											c-0.8,0.37-1.64,0.58-2.48,0.64c-1.67,0.13-3.27-0.32-4.49-1.1l-0.43-0.28l0.26,0.45c0.36,0.63,0.41,1.36,0.27,2
											c-0.15,0.65-0.45,1.22-0.84,1.67c-0.38,0.46-0.85,0.78-1.31,1c-0.46,0.23-0.92,0.37-1.35,0.46
											c-0.85,0.18-1.54,0.18-2,0.17C253.68,138.19,253.43,138.17,253.43,138.19z"/>
									</g>
								</g>
							</g>
						</g>
					</g>
				</g>
			</g>
			<g>
				<g>
					<g>
						<g>
							<g>
								<g>
									<g>
										<path style="fill:#FFFFFF;" d="M271.03,134.82c-0.01,0.02,0.13,0.09,0.39,0.16c0.26,0.07,0.67,0.13,1.16,0.07
											c0.49-0.07,1.09-0.24,1.6-0.71c0.24-0.23,0.46-0.57,0.48-0.97c0.02-0.38-0.15-0.84-0.57-1.04l-0.1,0.27
											c0.03,0.01,0.07,0.01,0.1,0.02c1.54,0.37,2.97-0.19,3.75-0.81c0.4-0.31,0.67-0.62,0.83-0.85
											c0.16-0.23,0.22-0.37,0.21-0.38c-0.05-0.04-0.36,0.51-1.16,1.06c-0.77,0.55-2.13,1.04-3.56,0.69
											c-0.03-0.01-0.06-0.01-0.09-0.02l-1.39-0.31l1.29,0.58c0.27,0.12,0.42,0.46,0.41,0.76c-0.01,0.3-0.17,0.58-0.38,0.79
											c-0.43,0.42-0.99,0.61-1.44,0.7C271.62,135.01,271.04,134.76,271.03,134.82z"/>
									</g>
								</g>
							</g>
						</g>
					</g>
				</g>
			</g>
		</g>
		<g>
			<g>
				<g>
					<g>
						<g>
							<g>
								<path style="fill:#FFBE9D;" d="M324.75,117.17l0.74-4.15c0,0-2.42-9-2.17-10.29c0.25-1.29,0.51-7.47,0.51-7.47l6.22-7.04
									c0,0,1.43-0.12,2.1,1.29c0,0,2.84-0.23,3.48,1.69c0,0,2.06-0.92,2.4,1.37c0.19,1.29,0.2,1.69,0.17,1.8
									c0.41,0.09,2.76,0.65,2.79,1.83c0.02,0.97-0.37,3.73-0.99,5.28c-0.24,0.62-0.79,1.06-1.44,1.19l0,0l-0.69,3.19
									c0,0-0.62,5.23-1.79,7.68l-0.89,1.45l-0.27,6.53L324.75,117.17z"/>
							</g>
						</g>
					</g>
				</g>
				<g>
					<g>
						<g>
							<path style="fill:#FFBE9D;" d="M333.95,93.93c-0.26-1.67-1.04-3.22-1.94-4.64l-2.38,1.51c0.23,0.89,0.61,1.49,0.97,2.36
								c0.36,0.88,1.06,1.67,1.97,1.91c0.52,0.13,1.2-0.01,1.37-0.52C334.01,94.35,333.99,94.13,333.95,93.93z"/>
						</g>
					</g>
					<g>
						<g>
							<g>
								<g>
									<g>
										<path style="fill:#EB996E;" d="M329.63,90.8c-0.01,0,0.01,0.18,0.11,0.49c0.09,0.31,0.28,0.74,0.52,1.26
											c0.12,0.27,0.24,0.56,0.37,0.86c0.15,0.31,0.35,0.63,0.61,0.92c0.26,0.29,0.59,0.55,0.99,0.72
											c0.39,0.17,0.88,0.24,1.32,0.05c0.22-0.09,0.41-0.28,0.49-0.51c0.08-0.24,0.04-0.47,0.01-0.67
											c-0.07-0.41-0.16-0.81-0.28-1.17c-0.23-0.73-0.51-1.36-0.78-1.88c-0.27-0.51-0.51-0.91-0.69-1.18
											c-0.18-0.27-0.28-0.41-0.3-0.4c-0.01,0.01,0.07,0.16,0.23,0.44c0.16,0.28,0.38,0.69,0.63,1.2
											c0.25,0.52,0.52,1.14,0.73,1.87c0.11,0.36,0.2,0.75,0.26,1.15c0.03,0.2,0.05,0.4-0.01,0.58c-0.06,0.17-0.2,0.32-0.39,0.39
											c-0.37,0.16-0.8,0.11-1.17-0.04c-0.37-0.15-0.68-0.39-0.93-0.66c-0.25-0.27-0.45-0.57-0.59-0.87
											c-0.14-0.3-0.26-0.6-0.39-0.85c-0.26-0.52-0.46-0.93-0.57-1.23C329.7,90.96,329.64,90.79,329.63,90.8z"/>
									</g>
								</g>
							</g>
						</g>
					</g>
				</g>
				<g>
					<g>
						<g>
							<g>
								<g>
									<path style="fill:#EB996E;" d="M333.42,95.04c-0.01,0-0.01,0.05-0.02,0.14c-0.01,0.09-0.01,0.23,0,0.41
										c0.02,0.35,0.11,0.87,0.39,1.44c0.29,0.57,0.75,1.18,1.45,1.67c0.35,0.23,0.82,0.4,1.3,0.28c0.23-0.06,0.47-0.18,0.63-0.38
										c0.17-0.2,0.24-0.47,0.24-0.72c0-0.51-0.14-0.95-0.23-1.39c-0.11-0.44-0.22-0.86-0.34-1.25c-0.24-0.78-0.46-1.49-0.65-2.1
										c-0.18-0.6-0.32-1.08-0.41-1.42c-0.09-0.34-0.14-0.52-0.15-0.52c-0.01,0,0.01,0.19,0.08,0.54
										c0.07,0.34,0.18,0.84,0.35,1.44c0.18,0.61,0.38,1.32,0.61,2.11c0.11,0.4,0.22,0.81,0.33,1.25
										c0.09,0.43,0.22,0.89,0.22,1.34c0,0.22-0.07,0.44-0.2,0.6c-0.13,0.16-0.32,0.27-0.52,0.32c-0.41,0.11-0.83-0.04-1.16-0.25
										c-0.66-0.45-1.14-1.05-1.42-1.59c-0.29-0.54-0.39-1.04-0.44-1.38C333.43,95.24,333.44,95.04,333.42,95.04z"/>
								</g>
							</g>
						</g>
					</g>
				</g>
				<g>
					<g>
						<g>
							<g>
								<g>
									<path style="fill:#EB996E;" d="M334.94,98.41c-0.01,0-0.03,0.05-0.06,0.16c-0.03,0.1-0.07,0.26-0.11,0.47
										c-0.07,0.41-0.12,1.03,0,1.77c0.12,0.73,0.41,1.65,1.17,2.34c0.37,0.34,0.88,0.61,1.46,0.6c0.28-0.01,0.59-0.12,0.79-0.35
										c0.21-0.23,0.3-0.53,0.34-0.82c0.1-1.15,0.01-2.23-0.05-3.21c-0.08-0.97-0.14-1.85-0.2-2.6c-0.06-0.74-0.09-1.34-0.1-1.75
										c-0.02-0.41-0.02-0.64-0.04-0.64c-0.01,0-0.01,0.06-0.02,0.17c-0.01,0.11-0.02,0.27-0.02,0.48c-0.01,0.42,0,1.02,0.04,1.76
										c0.05,0.75,0.1,1.63,0.16,2.61c0.05,0.98,0.13,2.07,0.04,3.17c-0.04,0.27-0.12,0.53-0.29,0.71
										c-0.16,0.19-0.41,0.28-0.65,0.29c-0.5,0.01-0.98-0.23-1.33-0.54c-0.72-0.64-1.02-1.52-1.15-2.23
										C334.66,99.32,334.99,98.41,334.94,98.41z"/>
								</g>
							</g>
						</g>
					</g>
				</g>
			</g>
			<g>
				<g>
					<g>
						<path style="fill:#E0E0E0;" d="M271.89,95.12l0.1-0.24l0.15,0.21c0.12,0.17,0.29,0.3,0.48,0.38l0.24,0.1l-0.21,0.15
							c-0.17,0.12-0.3,0.29-0.38,0.48l-0.1,0.24l-0.15-0.21c-0.12-0.17-0.29-0.3-0.48-0.38l-0.24-0.1l0.21-0.15
							C271.68,95.47,271.81,95.31,271.89,95.12z"/>
					</g>
				</g>
				<g>
					<g>
						<path style="fill:#E0E0E0;" d="M338.49,67.5l0.17-0.41l0.26,0.37c0.21,0.29,0.49,0.52,0.82,0.66l0.41,0.17l-0.37,0.26
							c-0.29,0.21-0.52,0.49-0.66,0.82l-0.17,0.41l-0.26-0.37c-0.21-0.29-0.49-0.52-0.82-0.66l-0.41-0.17l0.37-0.26
							C338.12,68.12,338.35,67.83,338.49,67.5z"/>
					</g>
				</g>
				<g>
					<g>
						<path style="fill:#E0E0E0;" d="M335.56,52.57l0.29-0.7l0.43,0.62c0.35,0.49,0.83,0.88,1.38,1.11l0.7,0.29l-0.62,0.43
							c-0.49,0.35-0.88,0.83-1.11,1.38l-0.29,0.7l-0.43-0.62c-0.35-0.49-0.83-0.88-1.38-1.11l-0.7-0.29l0.62-0.43
							C334.95,53.61,335.33,53.13,335.56,52.57z"/>
					</g>
				</g>
				<g>
					<g>
						<path style="fill:#E0E0E0;" d="M301.83,114.65l-0.24-0.71l0.73,0.18c0.59,0.14,1.2,0.12,1.77-0.08l0.71-0.24l-0.18,0.73
							c-0.14,0.58-0.12,1.2,0.08,1.77l0.24,0.71l-0.73-0.18c-0.59-0.14-1.2-0.12-1.77,0.08l-0.71,0.24l0.18-0.73
							C302.05,115.83,302.02,115.22,301.83,114.65z"/>
					</g>
				</g>
			</g>
			<g>
				<g>
					<g>
						<g>
							<g>
								<path style="fill:#FF725E;fill: var(--primary_color_light20);" d="M289.69,89.03c-1.27,1.52-2.58,3.02-3.81,4.58c-1.08,1.36-1.6,3.06-1.27,4.79
									c0.36,1.86,1.53,3.09,3.04,4.13c4.67,3.2,10.38,5.9,16.18,5.19c4.01-0.49,7.4-2.67,9.97-5.72c1.04-1.23-0.88-2.83-1.92-1.6
									c-1.94,2.29-4.42,4.11-7.41,4.69c-2.51,0.49-5.14,0.17-7.56-0.61c-2.32-0.75-4.54-1.86-6.6-3.17
									c-0.96-0.61-2.21-1.27-2.82-2.25c-0.76-1.24-0.58-2.72,0.3-3.84c1.23-1.56,2.54-3.05,3.81-4.58
									C292.65,89.4,290.73,87.79,289.69,89.03L289.69,89.03z"/>
							</g>
						</g>
					</g>
					<g>
						<g>
							<g>
								<path style="fill:#FF725E;fill: var(--primary_color_light20);" d="M315.69,61.41c1.2-1.44,2.39-2.88,3.59-4.31c0.72-0.85,1.57-1.49,2.74-1.49
									c1.47,0,2.41,1.01,3.36,1.99c3.36,3.46,6.48,7.9,6.82,12.86c0.23,3.4-1.11,6.52-3.24,9.12c-1.02,1.24,0.9,2.85,1.92,1.6
									c2.27-2.76,3.75-6.03,3.84-9.64c0.08-3.09-0.9-6.06-2.35-8.76c-1.34-2.5-3.12-4.73-5.07-6.78c-1.12-1.18-2.23-2.3-3.86-2.72
									c-1.81-0.46-3.79,0.02-5.18,1.25c-1.7,1.5-3.04,3.53-4.49,5.26C312.74,61.04,314.66,62.65,315.69,61.41L315.69,61.41z"/>
							</g>
						</g>
					</g>
					<g>
						<g>
							<path style="fill:#FF725E;fill: var(--primary_color_light20);" d="M333.64,96.59l-2.63,1.99l-0.03-0.03l-0.04,0.08l-0.07,0.05l0.03,0.03l-1.49,2.95
								c0,0,4.62,4.4,6.58,9.2l3.89-4.67l0.11-0.13l3.89-4.67C338.81,100.34,333.64,96.59,333.64,96.59z"/>
						</g>
					</g>
					<g>
						<g>
							<path style="fill:#FF725E;fill: var(--primary_color_light20);" d="M334.77,96.01l-5.72,6.87c-0.74,0.89-2.06,1.01-2.95,0.27l0,0c-0.89-0.74-1.01-2.06-0.27-2.95
								l5.72-6.87c0.74-0.89,2.06-1.01,2.95-0.27l0,0C335.39,93.81,335.51,95.13,334.77,96.01z"/>
						</g>
					</g>
					<g>
						<g>
							<g>
								<path style="fill:#FF725E;fill: var(--primary_color_light20);" d="M311.01,54.49L297.5,70.71l-0.72,0.86l-12.76,15.32c0.24,0.38,30.78,28.53,45.13,10.2
									l0.03-0.04C344.63,79.61,311.43,54.66,311.01,54.49z"/>
							</g>
						</g>
						<g>
							<g>
								<g>
									<path style="fill:#263238;" d="M311.01,54.49c-0.01-0.01,0.12,0.05,0.32,0.19c0.21,0.14,0.51,0.36,0.89,0.65
										c0.77,0.59,1.9,1.48,3.29,2.68c2.77,2.42,6.73,6.06,10.77,11.29c1.97,2.64,4.02,5.67,5.49,9.3
										c1.49,3.56,2.35,7.92,1.14,12.23c-0.59,2.13-1.68,4.19-3.19,5.93c-1.42,1.79-3.1,3.52-5.21,4.71
										c-2.09,1.21-4.52,1.87-6.99,2.01c-2.48,0.15-5-0.19-7.45-0.81c-5.37-1.41-10.19-3.95-14.54-6.68
										c-2.18-1.38-4.24-2.84-6.19-4.33c-0.98-0.75-1.92-1.5-2.84-2.27c-0.45-0.39-0.91-0.77-1.35-1.15
										c-0.46-0.41-0.85-0.73-1.33-1.24l-0.11-0.12l0.13-0.16c8.01-9.55,14.79-17.63,19.58-23.35c2.38-2.81,4.27-5.04,5.59-6.6
										c0.63-0.74,1.13-1.31,1.48-1.73c0.16-0.18,0.28-0.32,0.38-0.43C310.96,54.53,311.01,54.49,311.01,54.49
										c0,0.01-0.04,0.06-0.12,0.17c-0.1,0.12-0.22,0.28-0.37,0.47c-0.35,0.43-0.83,1.03-1.45,1.79
										c-1.29,1.57-3.14,3.84-5.48,6.69c-4.74,5.73-11.45,13.83-19.38,23.42l-0.15-0.17c0.05-0.03,0.21-0.12,0.18-0.11l0,0
										l0.01,0.01l0.01,0.01l0.03,0.02l0.06,0.06l0.16,0.15l0.32,0.29l0.65,0.58c0.45,0.38,0.89,0.76,1.35,1.14
										c0.91,0.76,1.86,1.51,2.83,2.25c1.94,1.48,4,2.92,6.16,4.29c4.32,2.71,9.11,5.23,14.4,6.61c2.41,0.61,4.88,0.94,7.29,0.8
										c2.41-0.14,4.75-0.78,6.77-1.94c2.04-1.15,3.66-2.81,5.08-4.58c1.48-1.7,2.54-3.69,3.12-5.74
										c1.19-4.15,0.37-8.41-1.08-11.93c-1.42-3.58-3.44-6.6-5.38-9.24c-3.98-5.23-7.89-8.9-10.62-11.36
										c-1.37-1.23-2.47-2.14-3.22-2.75c-0.36-0.29-0.65-0.52-0.86-0.69C311.1,54.57,311.02,54.5,311.01,54.49z"/>
								</g>
							</g>
						</g>
					</g>
					<g style="opacity:0.3;">
						<g>
							<g>
								<path d="M311.01,54.49c1.96,1.64,3.9,3.11,5.67,4.72c11.94,10.85,19.64,23.13,15.36,33.55l-3.3,5.04
									c0,0,3.47-12.78-3.03-22.01c-6.5-9.24-15.4-19.71-15.4-19.71L311.01,54.49z"/>
							</g>
						</g>
					</g>
					<g>
						<g>
							<path style="fill:#FF725E;fill: var(--primary_color_light20);" d="M352.14,98.82l-16.85,20.23l0,0c-2.76-2.3-3.14-6.4-0.83-9.17l8.52-10.22
								C345.28,96.89,349.38,96.52,352.14,98.82L352.14,98.82z"/>
						</g>
					</g>
					<g>
						<g>
							
								<rect x="332.19" y="105.78" transform="matrix(0.6401 -0.7683 0.7683 0.6401 38.1257 309.9398)" style="fill:#263238;" width="35.33" height="17"/>
						</g>
					</g>
					<g>
						<g>
							
								<rect x="337.36" y="110.23" transform="matrix(0.6401 -0.7683 0.7683 0.6401 38.0349 309.9828)" style="fill:#455A64;" width="24.99" height="8.33"/>
						</g>
					</g>
					<g>
						<g>
							<polygon style="fill:#FFFFFF;" points="305.81,77.16 312.11,78.68 316.94,74.35 317.44,80.81 323.06,84.06 317.06,86.54 
								315.71,92.89 311.5,87.95 305.05,88.62 308.44,83.09 							"/>
						</g>
					</g>
					<g>
						<g>
							<g>
								<path style="fill:#FFFFFF;" d="M322.26,100.12c0,0-0.02,0.02-0.08,0.06c-0.06,0.04-0.13,0.1-0.23,0.18
									c-0.2,0.16-0.52,0.36-0.96,0.58c-0.44,0.21-1.01,0.42-1.69,0.56c-0.68,0.14-1.47,0.22-2.35,0.21
									c-0.87-0.01-1.83-0.11-2.84-0.29c-0.5-0.1-1.03-0.2-1.56-0.3c-0.53-0.12-1.08-0.27-1.64-0.4c-2.23-0.6-4.62-1.48-7.03-2.61
									c-2.41-1.13-4.62-2.4-6.58-3.61c-1.96-1.22-3.67-2.39-5.1-3.39c-1.43-1.01-2.57-1.84-3.35-2.41
									c-0.39-0.29-0.69-0.51-0.9-0.67c-0.1-0.08-0.18-0.13-0.23-0.18c-0.05-0.04-0.08-0.06-0.08-0.06s0.03,0.02,0.08,0.05
									c0.06,0.04,0.14,0.1,0.24,0.17c0.21,0.15,0.52,0.37,0.91,0.65c0.79,0.57,1.94,1.39,3.37,2.39c1.44,0.99,3.15,2.16,5.11,3.37
									c1.96,1.21,4.16,2.47,6.57,3.6c2.41,1.13,4.79,2.01,7.01,2.61c0.56,0.14,1.1,0.29,1.63,0.41c0.54,0.11,1.05,0.21,1.56,0.31
									c1.01,0.19,1.96,0.28,2.83,0.3c0.87,0.01,1.66-0.06,2.33-0.19c0.68-0.13,1.24-0.34,1.68-0.54c0.44-0.21,0.76-0.41,0.97-0.56
									c0.1-0.07,0.18-0.13,0.24-0.17C322.23,100.14,322.26,100.12,322.26,100.12z"/>
							</g>
						</g>
					</g>
					<g>
						<g>
							<g>
								<path style="fill:#FFFFFF;" d="M326.42,100.83c0.02,0.01-0.1,0.15-0.11,0.43c-0.02,0.27,0.1,0.66,0.41,0.95
									c0.31,0.29,0.68,0.42,0.95,0.52c0.27,0.09,0.44,0.14,0.43,0.16c0,0.01-0.18-0.01-0.46-0.08c-0.27-0.08-0.67-0.2-1-0.51
									c-0.33-0.31-0.45-0.75-0.41-1.04c0.02-0.15,0.06-0.26,0.11-0.33C326.39,100.86,326.42,100.83,326.42,100.83z"/>
							</g>
						</g>
					</g>
					<g>
						<g>
							<g>
								<path style="fill:#FFFFFF;" d="M335.45,109.78c0.01,0.01-0.07,0.1-0.19,0.26c-0.13,0.17-0.3,0.41-0.49,0.74
									c-0.38,0.64-0.77,1.61-0.87,2.75c-0.09,1.14,0.14,2.16,0.41,2.85c0.13,0.35,0.27,0.62,0.36,0.8
									c0.1,0.18,0.16,0.29,0.15,0.29c0,0-0.02-0.02-0.05-0.07c-0.03-0.05-0.08-0.11-0.13-0.2c-0.11-0.18-0.25-0.45-0.4-0.8
									c-0.29-0.69-0.54-1.73-0.45-2.89c0.09-1.16,0.51-2.14,0.91-2.78c0.2-0.32,0.38-0.56,0.52-0.72
									c0.07-0.08,0.13-0.14,0.16-0.18C335.42,109.79,335.45,109.77,335.45,109.78z"/>
							</g>
						</g>
					</g>
				</g>
				<g>
					<g>
						<g>
							<path style="fill:#FFBE9D;" d="M329.95,102.87c1.07-1.2,2.17-2.44,2.7-3.96c0.52-1.52,0.33-3.41-0.89-4.45
								c-2.33,2.68-4.67,5.36-7,8.04l7.84,10.24C334.86,108.75,333.01,104.12,329.95,102.87z"/>
						</g>
					</g>
					<g>
						<g>
							<g>
								<g>
									<g>
										<path style="fill:#EB996E;" d="M334.04,111c0.01,0,0.02-0.06,0.05-0.18c0.02-0.12,0.08-0.3,0.11-0.53
											c0.07-0.47,0.12-1.18-0.02-2.05c-0.14-0.87-0.47-1.9-1.15-2.91c-0.66-1.01-1.69-1.98-3.05-2.55l0.03,0.15
											c0.54-0.6,1.1-1.23,1.62-1.94c0.51-0.71,0.98-1.51,1.21-2.42c0.2-0.76,0.22-1.56,0.05-2.3c-0.17-0.74-0.55-1.42-1.09-1.88
											l-0.07-0.06l-0.06,0.07c-2.01,2.33-3.75,4.35-5,5.79c-0.6,0.71-1.09,1.28-1.43,1.69c-0.16,0.19-0.28,0.34-0.38,0.46
											c-0.08,0.1-0.13,0.16-0.12,0.16c0,0,0.05-0.05,0.15-0.14c0.1-0.11,0.23-0.26,0.4-0.44c0.36-0.4,0.86-0.96,1.48-1.65
											c1.26-1.44,3.02-3.43,5.05-5.75l-0.13,0.01c0.51,0.44,0.87,1.07,1.02,1.78c0.16,0.71,0.14,1.47-0.05,2.21
											c-0.23,0.87-0.68,1.66-1.18,2.36c-0.5,0.7-1.06,1.33-1.6,1.93l-0.09,0.1l0.12,0.05c1.32,0.55,2.33,1.48,2.99,2.47
											c0.68,0.98,1.02,1.99,1.17,2.84c0.15,0.85,0.13,1.55,0.07,2.02C334.08,110.75,334.02,111,334.04,111z"/>
									</g>
								</g>
							</g>
						</g>
					</g>
				</g>
			</g>
		</g>
		<g>
			<g>
				<g>
					<path style="fill:#FF725E;" d="M334.37,110.43c2.85-3.76,6.36-7.65,9.21-11.41"/>
				</g>
			</g>
			<g>
				<g>
					<g>
						<path style="fill:#263238;" d="M343.58,99.02c0.12,0.09-1.8,2.77-4.41,5.87c-1.23,1.46-2.35,2.78-3.34,3.96
							c-0.86,1.01-1.4,1.62-1.46,1.58c-0.12-0.09,1.8-2.77,4.41-5.87c1.23-1.46,2.35-2.78,3.34-3.96
							C342.98,99.6,343.52,98.98,343.58,99.02z"/>
					</g>
				</g>
			</g>
		</g>
		<g>
			<g>
				<g>
					<g>
						<g>
							<g>
								<path style="fill:#455A64;" d="M215.57,371.53l-1.26-0.31c0,0-13.83,19.17-17.92,18.4l10.69-42.22l13.9,4.13
									C216.49,357.07,214.5,363.56,215.57,371.53z"/>
							</g>
						</g>
					</g>
				</g>
			</g>
			<g>
				<g>
					<g>
						<g>
							<g>
								<path style="fill:#FFFFFF;" d="M215.42,354.66c-0.02-0.87-0.79-1.67-1.67-1.69c-0.87-0.02-1.69,0.76-1.69,1.64
									c0,0.87,0.9,1.86,1.77,1.78c0.87-0.08,1.78-1.05,1.57-1.9"/>
							</g>
						</g>
					</g>
				</g>
			</g>
			<g>
				<g>
					<g>
						<g>
							<g>
								<path style="fill:#263238;" d="M207.09,347.39l3.34,0.99l-11.47,40.1c0,0-1.29,1.67-2.56,1.12L207.09,347.39z"/>
							</g>
						</g>
					</g>
				</g>
			</g>
			<g>
				<g>
					<g>
						<g>
							<g>
								<path style="fill:#263238;" d="M214.16,371.34c-0.2-0.06-0.04-1.11-0.44-2.3c-0.38-1.19-1.14-1.94-1.01-2.11
									c0.09-0.18,1.24,0.44,1.71,1.88C214.9,370.25,214.34,371.43,214.16,371.34z"/>
							</g>
						</g>
					</g>
				</g>
			</g>
			<g>
				<g>
					<g>
						<g>
							<g>
								<path style="fill:#263238;" d="M211.21,375.3c-0.21,0-0.34-0.99-1.03-1.91c-0.67-0.94-1.57-1.36-1.5-1.56
									c0.02-0.2,1.26-0.04,2.1,1.12C211.63,374.11,211.41,375.35,211.21,375.3z"/>
							</g>
						</g>
					</g>
				</g>
			</g>
			<g>
				<g>
					<g>
						<g>
							<g>
								<path style="fill:#263238;" d="M205.27,376.47c0-0.2,1.11-0.22,2.1,0.59c1,0.81,1.2,1.89,1.01,1.94
									c-0.2,0.07-0.65-0.71-1.47-1.36C206.09,376.96,205.24,376.68,205.27,376.47z"/>
							</g>
						</g>
					</g>
				</g>
			</g>
		</g>
		<g>
			<g>
				<g>
					<g>
						<g>
							<g>
								<path style="fill:#455A64;" d="M259.34,461.86l-0.48,1.11c0,0,15.49,15.66,14.15,19.3l-37.16-16.33l5.94-12.14
									C246.19,458.79,251.85,461.62,259.34,461.86z"/>
							</g>
						</g>
					</g>
				</g>
			</g>
			<g>
				<g>
					<g>
						<g>
							<g>
								<path style="fill:#FFFFFF;" d="M243.82,459.41c-0.81-0.12-1.66,0.47-1.81,1.27c-0.15,0.8,0.44,1.67,1.24,1.81
									c0.8,0.13,1.85-0.54,1.91-1.36c0.06-0.81-0.69-1.8-1.5-1.73"/>
							</g>
						</g>
					</g>
				</g>
			</g>
			<g>
				<g>
					<g>
						<g>
							<g>
								<path style="fill:#263238;" d="M235.85,465.95l1.43-2.92l35.09,16.72c0,0,1.34,1.45,0.64,2.53L235.85,465.95z"/>
							</g>
						</g>
					</g>
				</g>
			</g>
			<g>
				<g>
					<g>
						<g>
							<g>
								<path style="fill:#263238;" d="M258.95,463.13c-0.09,0.18-1.03-0.14-2.18,0.05c-1.15,0.16-1.96,0.74-2.09,0.6
									c-0.15-0.11,0.6-1.07,1.99-1.28C258.06,462.29,259.06,462.98,258.95,463.13z"/>
							</g>
						</g>
					</g>
				</g>
			</g>
			<g>
				<g>
					<g>
						<g>
							<g>
								<path style="fill:#263238;" d="M262.13,466.46c-0.04,0.19-0.96,0.16-1.91,0.65c-0.97,0.47-1.49,1.23-1.66,1.14
									c-0.18-0.05,0.16-1.16,1.36-1.76C261.11,465.89,262.21,466.28,262.13,466.46z"/>
							</g>
						</g>
					</g>
				</g>
			</g>
			<g>
				<g>
					<g>
						<g>
							<g>
								<path style="fill:#263238;" d="M262.3,472.09c-0.18-0.03-0.04-1.05,0.87-1.84c0.9-0.8,1.92-0.81,1.94-0.63
									c0.04,0.19-0.75,0.49-1.48,1.14C262.87,471.41,262.49,472.16,262.3,472.09z"/>
							</g>
						</g>
					</g>
				</g>
			</g>
		</g>
		<g>
			<g>
				<path style="fill:#455A64;" d="M241.04,164.38c-0.1-0.75-0.87-1.33-1.61-1.24l-0.11,0.02c-0.74,0.14-1.28,0.94-1.15,1.68
					c0.13,0.74,0.91,1.3,1.66,1.18C240.56,165.9,241.14,165.13,241.04,164.38z"/>
			</g>
		</g>
		<g>
			<g>
				<polygon style="fill:#FAFAFA;" points="242.42,185.67 251.21,209.97 272.32,244.27 272.95,207.88 266.87,179.76 266.39,179.76 
					262.03,198.35 256.24,191.35 243.08,182.18 				"/>
			</g>
		</g>
		<g>
			<g>
				<g>
					<path style="fill:#263238;" d="M270.25,195.39c-0.06,0.04-0.54-0.59-1.34-1.62c-0.4-0.51-0.88-1.13-1.44-1.79
						c-0.57-0.64-1.21-1.4-2-1.92l0.39-0.17c-0.08,0.32-0.18,0.65-0.31,0.97c-0.86,2.15-1.85,3.95-2.49,5.3
						c-0.67,1.33-0.96,2.19-1.02,2.18c-0.08-0.01,0.1-0.95,0.69-2.33c0.55-1.39,1.5-3.25,2.33-5.34c0.12-0.31,0.22-0.61,0.29-0.89
						l0.09-0.36l0.29,0.2c0.92,0.62,1.53,1.39,2.09,2.07c0.55,0.69,1,1.33,1.37,1.88C269.92,194.65,270.3,195.35,270.25,195.39z"/>
				</g>
			</g>
		</g>
		<g>
			<g>
				<g>
					<path style="fill:#263238;" d="M272.32,244.27c-0.04,0.01-0.17-0.61-0.39-1.73c-0.24-1.2-0.56-2.8-0.94-4.73
						c-0.81-3.99-2-9.49-3.35-15.56c-1.36-6.03-2.59-11.48-3.5-15.54c-0.43-1.93-0.78-3.52-1.04-4.71
						c-0.24-1.12-0.35-1.74-0.32-1.74c0.03-0.01,0.22,0.6,0.52,1.7c0.3,1.1,0.71,2.7,1.2,4.68c0.99,3.96,2.3,9.43,3.65,15.51
						c1.35,6.07,2.48,11.59,3.2,15.61c0.35,2.01,0.63,3.64,0.78,4.77C272.28,243.64,272.35,244.27,272.32,244.27z"/>
				</g>
			</g>
		</g>
		<g>
			<g>
				<path style="fill:#455A64;" d="M268.22,177.81c-5.85,4.27-18.64,5.06-24.05,4.7c-7.29-0.48-15.15-3.54-22.21-5.39
					c-7.29-1.91-14.04-1.79-21.27-0.75c-7.23,1.04-15.94,5.97-20.22,11.89l2.99,3.21c0,0,9.97-8.32,19.11-9.53
					c8.75-1.16,14.14,0.71,24.4,3.42c11.68,3.08,25.8,2.41,30.25,1.21c6.76-1.82,12.16-5.33,12.16-5.33L268.22,177.81z"/>
			</g>
		</g>
		<g>
			<g>
				<g>
					<path style="fill:#263238;" d="M244.51,191.46c0.02-0.03,0.33,0.19,0.86,0.6c0.53,0.41,1.3,1.03,2.23,1.79
						c1.87,1.53,4.43,3.67,7.23,6.07l0.15,0.13l-0.42,0.14c0.49-2.23,0.94-4.32,1.34-6.16l0.08-0.36l0.28,0.23
						c1.59,1.29,2.92,2.38,3.83,3.16c0.92,0.78,1.43,1.24,1.4,1.28c-0.03,0.04-0.6-0.35-1.56-1.07c-0.96-0.71-2.33-1.75-3.95-3.01
						l0.36-0.13c-0.38,1.84-0.81,3.93-1.28,6.17l-0.09,0.43l-0.33-0.29l-0.15-0.13c-2.81-2.39-5.33-4.58-7.13-6.18
						c-0.9-0.8-1.63-1.46-2.12-1.92C244.75,191.76,244.49,191.49,244.51,191.46z"/>
				</g>
			</g>
		</g>
		<g>
			<g>
				<g>
					<path style="fill:#EB996E;" d="M172.74,215.43c0.06-0.39-2.03-8.26-2.03-8.26l-9.99-4.57l1.75,9.13c0,0,3.4,3.26,3.59,3.19
						S172.74,215.43,172.74,215.43z"/>
				</g>
			</g>
			<g>
				<g>
					<g>
						<path style="fill:none;stroke:#F9DED0;stroke-width:0.05;stroke-miterlimit:10;" d="M161.72,198"/>
					</g>
				</g>
			</g>
			<g>
				<g>
					<g>
						<g>
							<path style="fill:#FF725E;fill: var(--primary_color_light20);" d="M187.77,198.66c0.62,7.34-4.82,13.8-12.16,14.42c-7.34,0.62-13.8-4.82-14.42-12.16
								c-0.62-7.34,4.82-13.8,12.16-14.42S187.14,191.32,187.77,198.66z"/>
						</g>
					</g>
					<g style="opacity:0.3;">
						<g>
							<path d="M187.77,198.66c0.62,7.34-4.82,13.8-12.16,14.42c-7.34,0.62-13.8-4.82-14.42-12.16c-0.62-7.34,4.82-13.8,12.16-14.42
								S187.14,191.32,187.77,198.66z"/>
						</g>
					</g>
				</g>
				<g>
					<g>
						<path style="fill:#FF725E;fill: var(--primary_color_light20);" d="M187.77,196.93c0.62,7.34-4.82,13.8-12.16,14.42c-7.34,0.62-13.8-4.82-14.42-12.16
							c-0.62-7.34,4.82-13.8,12.16-14.42S187.14,189.59,187.77,196.93z"/>
					</g>
				</g>
				<g style="opacity:0.3;">
					<g>
						<g>
							<path d="M165.16,199.41c-0.48-5.66,3.72-10.64,9.38-11.12c0.15-0.01,0.29-0.01,0.44-0.02c-0.45-0.02-0.91-0.02-1.37,0.02
								c-5.66,0.48-9.86,5.46-9.38,11.12c0.47,5.51,5.21,9.62,10.68,9.39C169.84,208.56,165.6,204.6,165.16,199.41z"/>
						</g>
					</g>
				</g>
				<g style="opacity:0.3;">
					<g>
						<polygon style="fill:#FFFFFF;" points="180.04,189.88 182.23,187.21 183.9,188.63 181.55,191.07 						"/>
					</g>
				</g>
				<g>
					<g>
						<g>
							<path style="fill:#263238;" d="M184.72,197.66c-0.07,0.01-0.09-0.91-0.63-2.44c-0.53-1.5-1.75-3.66-4.21-5.2
								c-1.22-0.75-2.71-1.35-4.39-1.49c-1.67-0.14-3.52,0.08-5.22,0.9c-0.86,0.39-1.68,0.93-2.41,1.58
								c-0.75,0.65-1.41,1.42-1.93,2.31c-1.09,1.74-1.6,3.9-1.44,6.07c0.2,2.17,1.07,4.21,2.44,5.74c0.67,0.78,1.45,1.44,2.29,1.95
								c0.84,0.52,1.73,0.92,2.64,1.15c1.82,0.52,3.68,0.42,5.3,0.01c1.63-0.43,3.01-1.27,4.08-2.22c2.16-1.93,3-4.27,3.27-5.84
								C184.79,198.57,184.66,197.66,184.72,197.66c0,0,0.21,0.9-0.01,2.55c-0.21,1.61-1.02,4.04-3.22,6.08
								c-1.09,1-2.51,1.89-4.21,2.36c-1.69,0.45-3.63,0.58-5.54,0.04c-0.96-0.24-1.9-0.65-2.78-1.19c-0.89-0.53-1.71-1.22-2.41-2.03
								c-1.44-1.61-2.36-3.76-2.58-6.03c-0.17-2.28,0.37-4.55,1.52-6.38c0.55-0.92,1.25-1.74,2.04-2.41
								c0.78-0.68,1.63-1.25,2.54-1.64c1.79-0.85,3.73-1.06,5.47-0.9c1.75,0.17,3.3,0.81,4.55,1.61c2.52,1.64,3.72,3.9,4.2,5.45
								C184.78,196.73,184.72,197.66,184.72,197.66z"/>
						</g>
					</g>
				</g>
				<g>
					<g>
						<g>
							<path style="fill:#FFFFFF;" d="M169.58,186.78c0.03,0.09-0.74,0.29-1.76,0.99c-1.03,0.69-2.21,1.95-3.35,3.48
								c-1.14,1.5-1.74,3.15-2.01,4.35c-0.28,1.21-0.29,2-0.37,2c-0.06,0-0.18-0.79,0.01-2.07c0.18-1.27,0.76-3.01,1.95-4.6
								c1.16-1.55,2.43-2.84,3.57-3.48C168.75,186.8,169.58,186.73,169.58,186.78z"/>
						</g>
					</g>
				</g>
				<g>
					<g>
						<g>
							<path style="fill:#FFFFFF;" d="M172.12,185.88c0.04,0.14-0.21,0.33-0.55,0.42c-0.34,0.09-0.65,0.05-0.68-0.09
								c-0.04-0.14,0.21-0.33,0.55-0.42C171.78,185.7,172.09,185.74,172.12,185.88z"/>
						</g>
					</g>
				</g>
				<g>
					<g>
						<g>
							<path style="fill:#FFFFFF;" d="M178.82,206.14c0.07,0.11-1.37,1.02-3.41,1.29c-2.04,0.28-3.67-0.22-3.63-0.35
								c0.03-0.15,1.62,0.1,3.56-0.17C177.28,206.66,178.76,206,178.82,206.14z"/>
						</g>
					</g>
				</g>
				<g>
					<g>
						<g>
							<path style="fill:#FFFFFF;" d="M184.75,202.77c-0.13-0.08,0.1-0.66,0.28-1.39c0.19-0.73,0.28-1.35,0.42-1.35
								c0.14-0.01,0.29,0.67,0.08,1.48C185.34,202.32,184.87,202.85,184.75,202.77z"/>
						</g>
					</g>
				</g>
				<g style="opacity:0.3;">
					<g>
						<g>
							<path d="M175.85,194.65v9.23h-2.14v-7.51h-1.85v-1.71H175.85z"/>
						</g>
					</g>
				</g>
			</g>
			<g>
				<g>
					<g>
						<path style="fill:#FFBE9D;" d="M173.36,214.26c-1.91-0.79-8.72-1.62-8.72-1.62l0.54-3.14c0,0,3.82-1.14,4.85-2.8
							c1.03-1.66,0.08-3.46,0.08-3.46l-2.11,0.61c1.05-1.08,0.45-3.19,0.45-3.19l-2.35,0.5c1.5-1.45,0.24-2.72,0.24-2.72l-1.82,0.59
							c1.11-1.2-0.85-2.51-0.85-2.51s-8.28,6.46-8.82,7.34c-0.54,0.89,0.65,3.26,0.65,3.26s-1.16,1.32-1.22,2.71
							c-0.06,1.39,1.69,1.89,1.69,1.89s-0.19,1.05,0.15,2.19c0.33,1.14,5.83,4.32,5.83,4.32l7.23,7.29l7.27-9.94
							C176.45,215.59,175.27,215.05,173.36,214.26z"/>
					</g>
				</g>
				<g>
					<g>
						<g>
							<path style="fill:#EB996E;" d="M170.03,203.35c0.02,0.06-0.65,0.39-1.8,0.73c-1.14,0.36-2.76,0.68-4.39,1.4
								c-0.81,0.36-1.52,0.81-2.08,1.32c-0.57,0.52-1.03,1.05-1.44,1.48c-0.82,0.88-1.48,1.28-1.51,1.22
								c-0.04-0.06,0.5-0.54,1.24-1.46c0.38-0.46,0.81-1.02,1.39-1.59c0.58-0.57,1.34-1.07,2.19-1.45c1.71-0.75,3.36-1.01,4.51-1.28
								C169.3,203.48,170,203.28,170.03,203.35z"/>
						</g>
					</g>
				</g>
				<g>
					<g>
						<g>
							<path style="fill:#EB996E;" d="M168.6,213.35c-0.03,0.13-1.71-0.25-4.04-0.15l-0.34,0.01l0.1-0.34
								c0.13-0.46,0.26-0.95,0.36-1.47c0.15-0.73,0.23-1.44,0.28-2.09l0.02-0.21l0.21-0.01c0.94-0.06,1.76-0.43,2.31-0.65
								c0.56-0.24,0.87-0.4,0.91-0.36c0.03,0.04-0.24,0.3-0.77,0.62c-0.55,0.3-1.32,0.75-2.42,0.87l0.23-0.23
								c-0.02,0.67-0.1,1.41-0.25,2.17c-0.11,0.54-0.24,1.05-0.39,1.52l-0.25-0.32C166.95,212.66,168.63,213.25,168.6,213.35z"/>
						</g>
					</g>
				</g>
				<g>
					<g>
						<g>
							<path style="fill:#EB996E;" d="M157.81,206.31c-0.05-0.05,0.41-0.57,1.19-1.36c0.45-0.44,0.91-0.9,1.4-1.37
								c0.26-0.24,0.55-0.56,0.92-0.78c0.35-0.23,0.74-0.42,1.14-0.59c1.61-0.66,3.12-0.99,4.21-1.24c1.09-0.23,1.76-0.37,1.79-0.3
								c0.02,0.07-0.62,0.33-1.69,0.66c-1.06,0.34-2.56,0.73-4.1,1.36c-0.38,0.16-0.75,0.34-1.07,0.54
								c-0.33,0.19-0.57,0.44-0.86,0.7c-0.51,0.45-1,0.88-1.47,1.29C158.41,205.94,157.86,206.36,157.81,206.31z"/>
						</g>
					</g>
				</g>
				<g>
					<g>
						<g>
							<path style="fill:#EB996E;" d="M156.43,204.19c-0.05-0.06,0.41-0.52,1.19-1.23c0.45-0.4,0.91-0.81,1.38-1.23
								c0.27-0.23,0.55-0.47,0.83-0.71l0.44-0.37l0.23-0.19c0.1-0.07,0.21-0.14,0.3-0.18c1.5-0.7,2.87-1.12,3.88-1.45
								c1.01-0.31,1.64-0.46,1.67-0.39c0.02,0.07-0.57,0.34-1.54,0.74c-0.96,0.41-2.35,0.9-3.76,1.56
								c-0.09,0.04-0.15,0.09-0.22,0.12l-0.23,0.19l-0.44,0.37c-0.29,0.23-0.57,0.46-0.85,0.69c-0.5,0.39-0.98,0.77-1.45,1.14
								C157.02,203.87,156.48,204.24,156.43,204.19z"/>
						</g>
					</g>
				</g>
			</g>
		</g>
	</g>
</g>
<g id="Stars">
	<g>
		<g>
			<g>
				<path style="fill:#FF725E;fill: var(--primary-color);" d="M187.11,146.57l0.38-0.92l0.57,0.81c0.46,0.65,1.09,1.16,1.83,1.46l0.92,0.38l-0.81,0.57
					c-0.65,0.46-1.16,1.09-1.46,1.83l-0.38,0.92l-0.57-0.81c-0.46-0.65-1.09-1.16-1.83-1.46l-0.92-0.38l0.81-0.57
					C186.3,147.94,186.8,147.3,187.11,146.57z"/>
			</g>
		</g>
		<g>
			<g>
				<path style="fill:#FF725E;fill: var(--primary-color);" d="M311.77,252.26l0.38-0.92l0.57,0.81c0.46,0.65,1.09,1.16,1.83,1.46l0.92,0.38l-0.81,0.57
					c-0.65,0.46-1.16,1.09-1.46,1.83l-0.38,0.92l-0.57-0.81c-0.46-0.65-1.09-1.16-1.83-1.46l-0.92-0.38l0.81-0.57
					C310.96,253.63,311.46,252.99,311.77,252.26z"/>
			</g>
		</g>
		<g>
			<g>
				<path style="fill:#FF725E;fill: var(--primary-color);" d="M333.28,209.6l0.38-0.92l0.57,0.81c0.46,0.65,1.09,1.16,1.83,1.46l0.92,0.38l-0.81,0.57
					c-0.65,0.46-1.16,1.09-1.46,1.83l-0.38,0.92l-0.57-0.81c-0.46-0.65-1.09-1.16-1.83-1.46L331,212l0.81-0.57
					C332.47,210.97,332.98,210.34,333.28,209.6z"/>
			</g>
		</g>
		<g>
			<g>
				<path style="fill:#FF725E;fill: var(--primary-color);" d="M151.26,141.54l0.22-0.53l0.33,0.47c0.27,0.38,0.63,0.67,1.06,0.85l0.53,0.22l-0.47,0.33
					c-0.38,0.27-0.67,0.63-0.85,1.06l-0.22,0.53l-0.33-0.47c-0.26-0.38-0.63-0.67-1.06-0.85l-0.53-0.22l0.47-0.33
					C150.79,142.34,151.08,141.97,151.26,141.54z"/>
			</g>
		</g>
		<g>
			<g>
				<path style="fill:#FF725E;fill: var(--primary-color);" d="M313.06,221.06l0.22-0.53l0.33,0.47c0.27,0.38,0.63,0.67,1.06,0.85l0.53,0.22l-0.47,0.33
					c-0.38,0.27-0.67,0.63-0.85,1.06l-0.22,0.53l-0.33-0.47c-0.26-0.38-0.63-0.67-1.06-0.85l-0.53-0.22l0.47-0.33
					C312.59,221.86,312.89,221.49,313.06,221.06z"/>
			</g>
		</g>
		<g>
			<g>
				<path style="fill:#FF725E;fill: var(--primary-color);" d="M168.11,113.39l0.84-1.44l0.76,1.49c0.61,1.19,1.55,2.18,2.7,2.85l1.44,0.84l-1.49,0.76
					c-1.19,0.61-2.18,1.55-2.85,2.7l-0.84,1.44l-0.76-1.49c-0.61-1.19-1.55-2.18-2.7-2.85l-1.44-0.84l1.49-0.76
					C166.45,115.48,167.44,114.55,168.11,113.39z"/>
			</g>
		</g>
	</g>
</g>
</svg>
