<?xml version="1.0" encoding="utf-8"?>
<svg version="1.1" id="Illustration" xmlns="http://www.w3.org/2000/svg" xmlns:xlink="http://www.w3.org/1999/xlink" x="0px"
	 y="0px" viewBox="0 0 3710 3710" style="enable-background:new 0 0 3710 3710;" xml:space="preserve">
<style type="text/css">
	.st0{fill:#ccffd86b;}
	.st1{fill:#0D6D06;}
	.st2{fill:#AAF9B2;}
	.st3{fill:#5FE846;}
	.st4{fill:#4141E0;}
	.st5{fill:url(#SVGID_1_);}
	.st6{fill:url(#SVGID_2_);}
	.st7{fill:#087208;}
	.st8{fill:url(#SVGID_3_);}
	.st9{fill:#4949DB;}
	.st10{fill:url(#SVGID_4_);}
	.st11{fill:url(#SVGID_5_);}
	.st12{fill:#3DAA31;}
	.st13{fill:#289618;}
	.st14{fill:#42B239;}
	.st15{fill:#32A826;}
	.st16{fill:#98F993;}
	.st17{fill:#4DEF48;}
	.st18{fill:#45DB45;}
	.st19{fill:#65F24C;}
	.st20{fill:#3EDB3E;}
	.st21{fill:#50FF58;}
	.st22{fill:#FFFFFF;}
	.st23{fill:#4F52FF;}
	.st24{fill:#7783FC;}
	.st25{opacity:0.37;fill:#FFFFFF;}
	.st26{fill:url(#SVGID_6_);}
	.st27{fill:url(#SVGID_7_);}
	.st28{fill:url(#SVGID_8_);}
	.st29{fill:url(#SVGID_9_);}
	.st30{fill:url(#SVGID_10_);}
	.st31{fill:url(#SVGID_11_);}
	.st32{fill:url(#SVGID_12_);}
	.st33{fill:#8389FF;}
	.st34{fill:url(#SVGID_13_);}
	.st35{fill:url(#SVGID_14_);}
	.st36{fill:url(#SVGID_15_);}
	.st37{fill:url(#SVGID_16_);}
	.st38{fill:url(#SVGID_17_);}
	.st39{fill:url(#SVGID_18_);}
	.st40{fill:url(#SVGID_19_);}
</style>
<g>
	<path class="st0" d="M2945.66,2851.66c-73,75.25-138.32,119.48-188.33,152.88c-487.75,325.68-1045.3,231.81-1217.68,199.72
		c-278.12-51.76-512.88-88.28-714.59-270.51C366.71,2519.66,389,1655.83,739.23,1120.72c41.53-63.45,391.22-581.81,949.98-654.85
		c13.67-1.79,23.86-2.8,32.79-3.75c86.44-9.15,622.08-57.45,1058.85,308.47c62.52,52.38,163.13,146.86,256.44,290.96
		C3378.44,1588.43,3379.52,2404.45,2945.66,2851.66z"/>
	<g>
		<g>
			<g>
				<path class="st1" d="M1154.72,585.58c-66.67,5.8-117.79,61.64-117.98,128.56c-1.16,409.28-3.08,1820.99,23.6,2320.66
					c2.83,52.94,46.22,94.52,99.23,95.09c262.18,2.82,1016.32,8.01,1444.45-19.38c89.17-5.7,158.56-79.56,158.46-168.91
					c-0.52-429.55-7.38-1637.6-66.22-2189.79c-7.05-66.16-60.23-117.8-126.57-122.97C2283.74,606.56,1524.41,553.43,1154.72,585.58z
					"/>
				<path class="st2" d="M1141.98,821.4c-5.15,350.1-19.81,1514.75,5.78,1944.6c3.74,62.83,52.54,112.43,112.81,114.53
					c248.11,8.65,884.36,25.38,1246.91-14.51c65.28-7.18,115.18-63.77,116.92-132.29c9.07-357.28,33.56-1442.01,8.69-1867.05
					c-3.97-67.81-55.77-121.91-120.71-126.29c-268.65-18.1-958.5-59.85-1266.8-34.17C1187.69,711.04,1142.87,760.79,1141.98,821.4z"
					/>
				<path class="st3" d="M1741.45,646.45c0.21,9.67,7.93,17.48,17.6,17.78c47.74,1.45,182.23,5.57,242.34,7.73
					c11.85,0.43,20.91-10.42,18.41-22.01c-0.21-0.37-1.75-15.23-16.93-16.28c-40.66-2.83-163.34-10.45-244.41-5.77
					C1741.81,628.85,1740.91,647.79,1741.45,646.45z"/>
			</g>
		</g>
		<g>
			<g>
				<path class="st4" d="M1433.2,1878.68c0,0,341.98-85.79,703.3-34.05c101.66,14.56,191.71,73.71,246.57,160.52
					c98.85,156.43,238.61,435.19,209.04,725.92l-155.15,38.36c0,0-107.22-345.02-227.91-485.43c0,0-142.92,325.78-135.7,504.68
					c0.2,5.06,0.53,10,0.98,14.81c16.4,175.03-686.08,32.66-686.08,32.66L1433.2,1878.68z"/>
				
					<linearGradient id="SVGID_1_" gradientUnits="userSpaceOnUse" x1="1752.4783" y1="1798.0168" x2="1745.3829" y2="1315.5149" gradientTransform="matrix(0.9329 0.3602 -0.3602 0.9329 756.8203 -140.6929)">
					<stop  offset="0" style="stop-color:#FEBBBA"/>
					<stop  offset="1" style="stop-color:#FF928E"/>
				</linearGradient>
				<path class="st5" d="M1802.9,1586.63l-72.81,231.91c-6.77,21.57-0.04,44.68,16.88,57.71c38.97,30.01,116,77.8,210.11,76.42
					c17.22-0.25,31.7-14.95,32.9-32.98l25.87-387.62L1802.9,1586.63z"/>
				<g>
					
						<linearGradient id="SVGID_2_" gradientUnits="userSpaceOnUse" x1="12712.5684" y1="1162.7728" x2="12290.875" y2="1485.4326" gradientTransform="matrix(0.9672 0.2541 -0.2541 0.9672 -9938.2715 -2874.2493)">
						<stop  offset="0" style="stop-color:#FEBBBA"/>
						<stop  offset="1" style="stop-color:#FF928E"/>
					</linearGradient>
					<path class="st6" d="M2084.81,1332.46c0,0,28.28,182.64,10.47,269.92s-13.94,147.97-117.95,139.16
						c-104.01-8.81-174.78-80.37-197.66-177.99c0,0-36.43-150.72-6.27-200.6C1803.56,1313.07,2084.81,1332.46,2084.81,1332.46z"/>
					<path class="st7" d="M1829.84,1510.87l12.57,3.3c0,0-23.89-119.88,26.54-126.59c50.43-6.71,240.41,3.9,296.12-49.86
						c53.71-51.83,41.2-140.29-2.99-175.74c-2.79-2.24-6.92-1.73-9.34,0.91l-6.21,6.75c-4.25,4.63-11.97,1.73-12.13-4.55l0,0
						c-0.15-5.96-7.29-9.13-11.62-5.03c-16.94,16-57.36,38.65-148.04,31.88c-128.68-9.59-222.86,18.76-247.14,103.05
						c-1.54,5.34-8.06,6.79-11.91,2.79c-7.61-7.9-21.43-14.3-45.09-3.1c-41.14,19.48-46.67,96.61,11.32,176.48
						c2.75,3.79,1.29,9.27-3.17,10.74c-15.68,5.2-41.09,20.7,3.37,61.94c45.48,42.19,77.61,47.33,90.22,47.41
						c3.39,0.02,6.29-2.31,6.95-5.64l15.11-76.38c0.78-3.95,4.73-6.42,8.63-5.4L1829.84,1510.87z"/>
					
						<linearGradient id="SVGID_3_" gradientUnits="userSpaceOnUse" x1="12660.2637" y1="1094.4091" x2="12238.5693" y2="1417.069" gradientTransform="matrix(0.9672 0.2541 -0.2541 0.9672 -9938.2715 -2874.2493)">
						<stop  offset="0" style="stop-color:#FEBBBA"/>
						<stop  offset="1" style="stop-color:#FF928E"/>
					</linearGradient>
					<path class="st8" d="M1828.8,1527.41c0,0,0.29-111.84-54.36-94.82c-54.65,17.02-6.46,123.7,30.24,137.53L1828.8,1527.41z"/>
				</g>
				<g>
					<path class="st9" d="M1447.47,2613.31c-15.15-106.97,83.48-301.39,129.3-361.05c13.11-17.07,20.44-37.93,20.62-59.45
						c1.34-151.49-62.27-248.79-164.19-314.12c0,0-369.91,430.96-275.72,762.44c10.16,35.77,25.91,66.51,45.88,92.92
						C1218.2,2609.14,1374.71,2619.07,1447.47,2613.31z"/>
					<path class="st4" d="M1442.22,2534.75l-14.09-1.61c11.95-104.9,104-234.4,143.02-285.21l11.25,8.64
						C1544.09,2306.45,1453.77,2433.38,1442.22,2534.75z"/>
					<linearGradient id="SVGID_4_" gradientUnits="userSpaceOnUse" x1="1403.78" y1="2480.2708" x2="1656.6187" y2="3145.6353">
						<stop  offset="0" style="stop-color:#FEBBBA"/>
						<stop  offset="1" style="stop-color:#FF928E"/>
					</linearGradient>
					<path class="st10" d="M1449.34,2608.29c-41.61,0.07-233,6.62-250.67,120.81c165.08,218.33,620.08,139.56,620.08,139.56v-84.96
						c0,0-285.22-51.8-357.73-168.9C1458.51,2610.75,1454.11,2608.28,1449.34,2608.29z"/>
				</g>
				<linearGradient id="SVGID_5_" gradientUnits="userSpaceOnUse" x1="1730.9702" y1="2326.3718" x2="2000.6095" y2="3035.9485">
					<stop  offset="0" style="stop-color:#FEBBBA"/>
					<stop  offset="1" style="stop-color:#FF928E"/>
				</linearGradient>
				<path class="st11" d="M1779.7,2850.15c0,0,67.18-158.53,185.56-102.3c118.38,56.23,109.07,93.03,109.07,93.03L1779.7,2850.15z"
					/>
				<path class="st12" d="M1764.61,2883.04L1764.61,2883.04c0.94,11.99,11.16,21.12,23.19,20.7l613.43-21.4
					c9.53-0.33,17.82-6.65,20.67-15.75l17.81-56.98c4.37-14-5.61-28.36-20.26-29.14l-223.7-11.88c-2.03-0.11-4.07,0.06-6.05,0.5
					l-407.54,90.26C1771.22,2861.76,1763.73,2871.87,1764.61,2883.04z"/>
				<polygon class="st13" points="2175.8,2860.65 2192.68,2782 2422.46,2792.96 2407.35,2858.22 				"/>
				<path class="st14" d="M2058.01,2014.07c-13,106.26-71.51,538-88.25,661.35c-2.36,17.35,11.42,32.61,28.92,32.1l992.42-28.4
					c12.99-0.37,24.06-9.52,26.88-22.2l154.38-695.25c4.08-18.38-10.55-35.56-29.35-34.46l-1058.51,62
					C2070.81,1990.02,2059.67,2000.46,2058.01,2014.07z"/>
				<path class="st15" d="M2456.92,2450.06l-146.67,416.3l341.05,7.23l28.4-421.04c1.33-19.76-15.05-36.16-34.81-34.85
					l-159.27,10.58C2472.56,2429.16,2461.27,2437.72,2456.92,2450.06z"/>
				<path class="st14" d="M2171.98,2872.3L2171.98,2872.3c-3.76,11.45,4.77,23.24,16.83,23.24h534.11c9.78,0,17.71-7.93,17.71-17.71
					v-22.91c0-10.08-8.4-18.13-18.47-17.7l-534.11,22.91C2180.68,2860.44,2174.28,2865.29,2171.98,2872.3z"/>
			</g>
			<path class="st16" d="M2043.01,2453.28l-7.04-0.89l48.76-384.54c3.02-23.86,22.63-42.21,46.63-43.66l914.72-55.24l0.43,7.08
				l-914.72,55.24c-20.59,1.24-37.43,17-40.02,37.47L2043.01,2453.28z"/>
			
				<rect x="1978.37" y="2600.45" transform="matrix(0.125 -0.9922 0.9922 0.125 -815.7615 4283.02)" class="st16" width="83.92" height="7.1"/>
			<g>
				<g>
					<g>
						<path class="st17" d="M1987.4,1645.31c-110.21,8.33-174.27-105.63-174.9-106.78l7.38-4.06
							c0.61,1.1,62.13,110.36,166.89,102.45L1987.4,1645.31z"/>
					</g>
					<path class="st18" d="M2032.33,1641.05c0,6.53-5.29,11.83-11.83,11.83h-31.54c-6.53,0-11.83-5.29-11.83-11.83l0,0
						c0-6.53,5.29-11.83,11.83-11.83h31.54C2027.04,1629.23,2032.33,1634.52,2032.33,1641.05L2032.33,1641.05z"/>
				</g>
				<g>
					<path class="st19" d="M1820.1,1412.11c0,0,39.56-202.89,156.09-222.03c0,0-33.01-16.62-67.41,1.41
						c-34.4,18.02-121.37,116.78-117.82,225.63C1814.61,1425.63,1820.1,1412.11,1820.1,1412.11z"/>
					<path class="st20" d="M1799.85,1402.51c-60.59,12.3-53.14,88.91-53.14,88.91c-4.37,55.6,11.86,83.16,32.66,96.3
						c14.21,8.97,32.09,9.8,47.09,2.24c15-7.57,24.93-22.45,26.17-39.21c1.12-15.13,2.4-29.51,3.52-34.62
						C1858.88,1503.75,1860.44,1390.21,1799.85,1402.51z"/>
				</g>
				<path class="st21" d="M1805.42,1421.88c-12.58-2.19-24.98,4.5-30.04,16.22c-36.21,83.88,8.25,138.44,30.07,139.58
					c23,1.2,22.54-109.47,17.65-137.84C1821.06,1427.95,1813.5,1423.29,1805.42,1421.88z"/>
			</g>
		</g>
	</g>
	<g>
		<circle class="st22" cx="2679.78" cy="1401.58" r="373.44"/>
		<g>
			<path class="st23" d="M2665.85,1636.3c-17.59,1.15-33.95-7.03-43.06-21.65l-152.91-245.53c-14.33-23.01-6.61-54.53,17.24-70.39
				c23.83-15.85,54.75-10.06,69.06,12.94l106.04,170.44l139.92-284.97c12.56-25.57,42.73-37.31,67.37-26.21
				c24.64,11.09,34.44,40.79,21.9,66.35l-180.82,368.56c-8.28,16.87-24.74,28.49-42.98,30.32
				C2667.03,1636.22,2666.44,1636.27,2665.85,1636.3z"/>
		</g>
	</g>
	<g>
		<g>
			<path class="st24" d="M1461.99,3142.8v-442.93c0-58.19-46.77-105.55-104.96-106.18c-174.64-1.9-534.84-2-829.56,22.84
				c-40.22,3.39-71.5,36.35-72.96,76.68l-27.54,428.22c-2.05,56.64,42.73,103.96,99.4,105.04l834.18,15.85
				C1416.26,3243.39,1461.99,3198.52,1461.99,3142.8z"/>
			<path class="st22" d="M1360.83,2747.8c0.74,37.69-0.38,97.49-1.29,136.12c-0.48,20.1-18.12,35.42-38.09,33.08l-143.73-16.85
				c-19.15-2.24-32.64-19.89-29.78-38.96l17.64-117.69c2.51-16.71,16.86-29.07,33.75-29.07h127.37
				C1345.27,2714.44,1360.47,2729.24,1360.83,2747.8z"/>
			<path class="st25" d="M985.23,2970.84l-119.89,12.93c-16.78,1.81-31.09-12.02-29.86-28.85l26.21-356.65
				c50.26-1.59,99.83-2.76,147.67-3.57v349.27C1009.36,2957.77,998.96,2969.36,985.23,2970.84z"/>
			<path class="st22" d="M936.09,2909.02c-0.37,6.42-5.68,11.36-12.03,11.36c-0.24,0-0.47-0.01-0.71-0.02
				c-6.65-0.38-11.73-6.08-11.34-12.74l18.08-311.27c8.11-0.2,16.15-0.38,24.19-0.56L936.09,2909.02z"/>
			<g>
				
					<linearGradient id="SVGID_6_" gradientUnits="userSpaceOnUse" x1="-1893.1522" y1="2736.4812" x2="-2150.4304" y2="3110.3381" gradientTransform="matrix(-1 0 0 1 -644.2802 0)">
					<stop  offset="0" style="stop-color:#09005D"/>
					<stop  offset="1" style="stop-color:#1A0F91"/>
				</linearGradient>
				<path class="st26" d="M1294.37,2860.15c2.1,0,3.88-1.63,4.01-3.77l6.22-98.04c0.14-2.21-1.54-4.12-3.76-4.26
					c-2.33-0.18-4.12,1.55-4.26,3.76l-6.22,98.04c-0.14,2.21,1.54,4.12,3.76,4.26C1294.2,2860.15,1294.29,2860.15,1294.37,2860.15z"
					/>
				
					<linearGradient id="SVGID_7_" gradientUnits="userSpaceOnUse" x1="-1883.9011" y1="2742.8479" x2="-2141.1797" y2="3116.7051" gradientTransform="matrix(-1 0 0 1 -644.2802 0)">
					<stop  offset="0" style="stop-color:#09005D"/>
					<stop  offset="1" style="stop-color:#1A0F91"/>
				</linearGradient>
				<path class="st27" d="M1281.57,2860.15c2.16,0,3.95-1.71,4.02-3.89l3.26-99.92c0.07-2.22-1.67-4.08-3.89-4.15
					c-2.56-0.13-4.08,1.67-4.15,3.89l-3.26,99.92c-0.07,2.22,1.67,4.08,3.89,4.15C1281.43,2860.15,1281.53,2860.15,1281.57,2860.15z
					"/>
				
					<linearGradient id="SVGID_8_" gradientUnits="userSpaceOnUse" x1="-1872.7391" y1="2750.5291" x2="-2130.0178" y2="3124.3865" gradientTransform="matrix(-1 0 0 1 -644.2802 0)">
					<stop  offset="0" style="stop-color:#09005D"/>
					<stop  offset="1" style="stop-color:#1A0F91"/>
				</linearGradient>
				<path class="st28" d="M1264.22,2860.14c-2.22-0.1-3.93-1.99-3.82-4.2c1.59-33.57,4.63-97.59,4.68-99.77
					c0.02-2.2,1.81-3.98,4.02-3.98c2.22,0,4.02,1.8,4.02,4.02c0,1.66-3.91,83.68-4.7,100.11c-0.1,2.16-1.88,3.83-4.01,3.83
					C1264.34,2860.15,1264.28,2860.15,1264.22,2860.14z M1264.99,2756.21h0.08H1264.99z"/>
				
					<linearGradient id="SVGID_9_" gradientUnits="userSpaceOnUse" x1="-1853.4324" y1="2763.8157" x2="-2110.7102" y2="3137.6719" gradientTransform="matrix(-1 0 0 1 -644.2802 0)">
					<stop  offset="0" style="stop-color:#09005D"/>
					<stop  offset="1" style="stop-color:#1A0F91"/>
				</linearGradient>
				<path class="st29" d="M1237.61,2864.17c4.31,0,7.88-3.42,8.02-7.76c3.4-96.81,2.8-98.99,2.41-100.44
					c-1.16-4.29-5.62-6.81-9.87-5.64c-3.93,1.08-6.39,4.89-5.86,8.82c0.26,5.82-1.54,62.14-2.75,96.69
					c-0.16,4.44,3.31,8.17,7.75,8.31C1237.41,2864.17,1237.51,2864.17,1237.61,2864.17z"/>
				
					<linearGradient id="SVGID_10_" gradientUnits="userSpaceOnUse" x1="-1840.7018" y1="2772.5764" x2="-2097.98" y2="3146.4333" gradientTransform="matrix(-1 0 0 1 -644.2802 0)">
					<stop  offset="0" style="stop-color:#09005D"/>
					<stop  offset="1" style="stop-color:#1A0F91"/>
				</linearGradient>
				<path class="st30" d="M1220.18,2860.15c2.22,0,4.02-1.8,4.02-4.02v-98.04c0-2.22-1.8-4.02-4.02-4.02c-2.22,0-4.02,1.8-4.02,4.02
					v98.04C1216.17,2858.35,1217.96,2860.15,1220.18,2860.15z"/>
				
					<linearGradient id="SVGID_11_" gradientUnits="userSpaceOnUse" x1="-1832.7987" y1="2778.0156" x2="-2090.0752" y2="3151.8701" gradientTransform="matrix(-1 0 0 1 -644.2802 0)">
					<stop  offset="0" style="stop-color:#09005D"/>
					<stop  offset="1" style="stop-color:#1A0F91"/>
				</linearGradient>
				<path class="st31" d="M1206.11,2860.15c2.18,0,3.97-1.74,4.02-3.93c0.77-34.07,2.57-89.71,4.18-96.4
					c0.71-1.26,0.7-2.87-0.15-4.17c-1.22-1.87-3.71-2.37-5.57-1.15c-2.19,1.44-4.27,2.8-6.5,101.54c-0.05,2.22,1.71,4.06,3.93,4.11
					H1206.11z"/>
				
					<linearGradient id="SVGID_12_" gradientUnits="userSpaceOnUse" x1="-1906.3901" y1="2727.3721" x2="-2163.6672" y2="3101.2275" gradientTransform="matrix(-1 0 0 1 -644.2802 0)">
					<stop  offset="0" style="stop-color:#09005D"/>
					<stop  offset="1" style="stop-color:#1A0F91"/>
				</linearGradient>
				<path class="st32" d="M1316,2869.07c4.25,0,7.8-3.33,8.02-7.62l5.36-102.95c0.23-4.44-3.18-8.21-7.62-8.45
					c-4.21-0.3-8.21,3.18-8.45,7.62l-5.36,102.95c-0.23,4.44,3.18,8.21,7.62,8.45C1315.71,2869.07,1315.85,2869.07,1316,2869.07z"/>
			</g>
		</g>
		<g>
			<path class="st33" d="M1242.51,2543.4v-311.06c0-40.87-32.84-74.12-73.71-74.57c-122.65-1.34-375.6-1.4-582.58,16.04
				c-28.24,2.38-50.21,25.53-51.24,53.85l-19.34,300.73c-1.44,39.78,30.01,73.01,69.81,73.77l585.82,11.13
				C1210.4,2614.04,1242.51,2582.53,1242.51,2543.4z"/>
			<path class="st22" d="M1171.47,2266c0.52,26.47-0.26,68.46-0.91,95.59c-0.34,14.11-12.73,24.87-26.75,23.23l-100.94-11.83
				c-13.45-1.58-22.92-13.97-20.91-27.36l12.39-82.65c1.76-11.73,11.84-20.41,23.7-20.41h89.45
				C1160.54,2242.57,1171.22,2252.97,1171.47,2266z"/>
			<path class="st25" d="M907.7,2422.63l-84.2,9.08c-11.78,1.27-21.83-8.44-20.97-20.26l18.41-250.46
				c35.3-1.12,70.11-1.94,103.7-2.51v245.28C924.64,2413.46,917.34,2421.59,907.7,2422.63z"/>
			<path class="st22" d="M873.19,2379.22c-0.26,4.51-3.99,7.98-8.45,7.98c-0.17,0-0.33-0.01-0.5-0.02
				c-4.67-0.27-8.24-4.27-7.96-8.94l12.7-218.6c5.69-0.14,11.34-0.27,16.99-0.39L873.19,2379.22z"/>
			<g>
				
					<linearGradient id="SVGID_13_" gradientUnits="userSpaceOnUse" x1="-1737.126" y1="2258.0503" x2="-1917.8059" y2="2520.6003" gradientTransform="matrix(-1 0 0 1 -644.2802 0)">
					<stop  offset="0" style="stop-color:#09005D"/>
					<stop  offset="1" style="stop-color:#1A0F91"/>
				</linearGradient>
				<path class="st34" d="M1124.79,2344.9c1.48,0,2.72-1.15,2.82-2.65l4.37-68.85c0.1-1.56-1.08-2.9-2.64-2.99
					c-1.64-0.13-2.89,1.09-2.99,2.64l-4.37,68.85c-0.1,1.55,1.08,2.89,2.64,2.99C1124.68,2344.9,1124.74,2344.9,1124.79,2344.9z"/>
				
					<linearGradient id="SVGID_14_" gradientUnits="userSpaceOnUse" x1="-1730.6294" y1="2262.5212" x2="-1911.3094" y2="2525.0715" gradientTransform="matrix(-1 0 0 1 -644.2802 0)">
					<stop  offset="0" style="stop-color:#09005D"/>
					<stop  offset="1" style="stop-color:#1A0F91"/>
				</linearGradient>
				<path class="st35" d="M1115.81,2344.9c1.52,0,2.77-1.2,2.82-2.73l2.29-70.17c0.05-1.56-1.17-2.87-2.73-2.92
					c-1.8-0.09-2.86,1.17-2.92,2.73l-2.29,70.17c-0.05,1.56,1.17,2.87,2.73,2.92C1115.71,2344.9,1115.78,2344.9,1115.81,2344.9z"/>
				
					<linearGradient id="SVGID_15_" gradientUnits="userSpaceOnUse" x1="-1722.7905" y1="2267.9155" x2="-1903.4709" y2="2530.4666" gradientTransform="matrix(-1 0 0 1 -644.2802 0)">
					<stop  offset="0" style="stop-color:#09005D"/>
					<stop  offset="1" style="stop-color:#1A0F91"/>
				</linearGradient>
				<path class="st36" d="M1103.62,2344.89c-1.56-0.07-2.76-1.4-2.69-2.95c1.12-23.57,3.25-68.53,3.29-70.07
					c0.01-1.54,1.27-2.8,2.82-2.8c1.56,0,2.82,1.26,2.82,2.82c0,1.16-2.75,58.77-3.3,70.3c-0.07,1.52-1.32,2.69-2.82,2.69
					C1103.71,2344.9,1103.67,2344.9,1103.62,2344.89z M1104.17,2271.9h0.05H1104.17z"/>
				
					<linearGradient id="SVGID_16_" gradientUnits="userSpaceOnUse" x1="-1709.2318" y1="2277.2466" x2="-1889.9117" y2="2539.7969" gradientTransform="matrix(-1 0 0 1 -644.2802 0)">
					<stop  offset="0" style="stop-color:#09005D"/>
					<stop  offset="1" style="stop-color:#1A0F91"/>
				</linearGradient>
				<path class="st37" d="M1084.93,2347.72c3.03,0,5.53-2.4,5.64-5.45c2.39-67.99,1.97-69.52,1.69-70.53
					c-0.82-3.02-3.95-4.79-6.93-3.96c-2.76,0.76-4.49,3.44-4.11,6.2c0.18,4.09-1.08,43.64-1.93,67.9c-0.11,3.11,2.33,5.73,5.44,5.84
					C1084.8,2347.72,1084.87,2347.72,1084.93,2347.72z"/>
				
					<linearGradient id="SVGID_17_" gradientUnits="userSpaceOnUse" x1="-1700.2915" y1="2283.3989" x2="-1880.9717" y2="2545.9492" gradientTransform="matrix(-1 0 0 1 -644.2802 0)">
					<stop  offset="0" style="stop-color:#09005D"/>
					<stop  offset="1" style="stop-color:#1A0F91"/>
				</linearGradient>
				<path class="st38" d="M1072.7,2344.9c1.56,0,2.82-1.26,2.82-2.82v-68.85c0-1.56-1.26-2.82-2.82-2.82
					c-1.56,0-2.82,1.26-2.82,2.82v68.85C1069.88,2343.64,1071.14,2344.9,1072.7,2344.9z"/>
				
					<linearGradient id="SVGID_18_" gradientUnits="userSpaceOnUse" x1="-1694.7412" y1="2287.2188" x2="-1875.4203" y2="2549.7678" gradientTransform="matrix(-1 0 0 1 -644.2802 0)">
					<stop  offset="0" style="stop-color:#09005D"/>
					<stop  offset="1" style="stop-color:#1A0F91"/>
				</linearGradient>
				<path class="st39" d="M1062.82,2344.9c1.53,0,2.79-1.22,2.82-2.76c0.54-23.92,1.8-63,2.93-67.7c0.5-0.89,0.49-2.01-0.1-2.93
					c-0.85-1.31-2.6-1.67-3.91-0.81c-1.54,1.01-3,1.96-4.57,71.31c-0.03,1.56,1.2,2.85,2.76,2.89H1062.82z"/>
				
					<linearGradient id="SVGID_19_" gradientUnits="userSpaceOnUse" x1="-1746.4226" y1="2251.6531" x2="-1927.1027" y2="2514.2034" gradientTransform="matrix(-1 0 0 1 -644.2802 0)">
					<stop  offset="0" style="stop-color:#09005D"/>
					<stop  offset="1" style="stop-color:#1A0F91"/>
				</linearGradient>
				<path class="st40" d="M1139.99,2351.17c2.98,0,5.48-2.34,5.64-5.35l3.77-72.3c0.16-3.12-2.23-5.77-5.35-5.93
					c-2.96-0.21-5.77,2.23-5.93,5.35l-3.77,72.3c-0.16,3.12,2.23,5.77,5.35,5.93C1139.79,2351.17,1139.89,2351.17,1139.99,2351.17z"
					/>
			</g>
		</g>
	</g>
</g>
</svg>
