<?xml version="1.0" encoding="utf-8"?>
<!-- Generator: Adobe Illustrator 24.0.1, SVG Export Plug-In . SVG Version: 6.00 Build 0)  -->
<svg version="1.1" xmlns="http://www.w3.org/2000/svg" xmlns:xlink="http://www.w3.org/1999/xlink" x="0px" y="0px"
	 viewBox="0 0 3710 3710" enable-background="new 0 0 3710 3710" xml:space="preserve">
<g id="Illustration">
	<g>
		<path fill="#F4F7FA" d="M3213.12,1650.97c-75.66-499.54-385.85-1113.26-998.66-1177.49c0,0-465.28-57.09-923.94,29.44
			c-272.22,51.35-510.91,204.22-661.94,423.92c-151.04,219.71-201.49,487.61-140.26,743.02c39.77,165.89,66.64,337.58,59.27,508.04
			c-9.3,214.98-26.81,441.02,67.4,641.49c138.04,293.73,474.84,380.25,768.73,407.84c108.3,10.17,217,14.27,325.39,22.91
			c207.94,16.58,441.13-10.25,641.54-64.86C3372,2906.96,3288.78,2150.51,3213.12,1650.97z"/>
		<g>
			<g>
				<path fill="#D8DEE8" d="M1641.31,1536.31l-3.05,89.69c-0.9,26.31,20.21,46.67,47.13,45.47l48.91-2.18
					c4.67,42.63,14.04,83.58,27.64,122.35l-41.32,24.78c-23.73,14.23-32.7,43.71-20.03,65.84l43.16,75.35
					c12.65,22.09,73.73,35.22,97.39,20.95l7.46-30.37c26.16,32.68,56.1,62.16,89.24,87.89l-22.61,37.39
					c-14.13,23.37-7.19,51.97,15.49,63.88l77.2,40.5c22.61,11.86,96.03,13.71,110.09-9.62l-22.03-47.07
					c40.09,13.68,82.43,22.99,126.47,27.46l-1.35,39.74c-0.89,26.08,19.84,46.06,46.27,44.65l89.95-4.82
					c26.34-1.41,48.4-23.63,49.28-49.63l1.35-39.62c44.2-9.05,86.91-22.74,127.58-40.5l19,33.57
					c12.33,21.78,88.03,32.98,111.12,18.83l31.6-53.2c23.02-14.11,31.73-43.16,19.46-64.9l-19.65-34.82
					c34.18-28.77,65.42-60.88,93.13-95.74l36.5,19.54c22.05,11.81,87.36,17.84,101.09-5.15l10.44-93.41
					c13.7-22.95,6.99-51.14-14.99-62.99l-38.36-20.67c15.76-39.44,27.54-80.62,34.89-123.03l47.1-2.1
					c25.86-1.15,47.52-22.97,48.4-48.74l2.99-87.82c0.88-25.77-19.36-45.77-45.22-44.69l-49.87,2.08
					c-5.67-40.78-15.68-79.93-29.6-117.01l45.64-27.51c22.86-13.79,31.51-42.64,19.33-64.47l8.68-87.27
					c-12.2-21.87-90.9-15.69-113.82-1.94l-48.03,28.81c-24.95-30.16-53.21-57.5-84.28-81.57l29.58-49.07
					c13.79-22.86,7.03-51.25-15.09-63.4l-32.9-47.61c-22.19-12.19-94.04,2.57-107.9,25.48l-30.41,50.29
					c-37.08-12.72-76.13-21.75-116.74-26.62l1.96-57.57c0.89-26-19.72-46.37-46.04-45.51l-89.89,2.95
					c-26.42,0.87-48.56,22.7-49.45,48.78l-1.97,57.73c-41.33,7.71-81.46,19.54-119.94,34.96l17.86-60.91
					c-12.51-22.18-86.99-16.67-110.48-2.82l-80.19,47.3c-23.56,13.9-32.47,43.19-19.89,65.4l26.96,47.61
					c-33.57,26.73-64.53,56.61-92.34,89.17l2.03-30.51c-22.76-12.26-102.35,1.49-116.54,24.74l-48.42,79.3
					c-14.22,23.29-7.23,52.08,15.6,64.31l45.49,24.35c-17.03,38.98-30.18,79.78-38.93,121.9l-51.78,2.16
					C1664.77,1487.76,1642.21,1510,1641.31,1536.31z M1870.27,1580.25c8.64-253.75,224.66-467.37,481.07-477.08
					c254.86-9.65,453.4,186.01,444.85,436.99c-8.55,250.97-221.02,464.43-475.97,476.85
					C2063.72,2029.5,1861.63,1833.99,1870.27,1580.25z"/>
				<path fill="#FFFFFF" d="M1701.55,1535.55l-3.05,89.69c-0.9,26.31,20.21,46.67,47.13,45.47l48.91-2.18
					c4.67,42.63,14.04,83.58,27.64,122.34l-41.32,24.78c-23.73,14.23-32.7,43.71-20.03,65.84l43.16,75.35
					c12.65,22.09,42.09,28.41,65.76,14.15l39.09-23.57c26.16,32.68,56.1,62.16,89.24,87.89l-22.61,37.39
					c-14.13,23.37-7.19,51.97,15.49,63.88l77.2,40.5c22.61,11.86,52.34,2.56,66.4-20.77l21.66-35.92
					c40.09,13.68,82.43,22.99,126.47,27.46l-1.35,39.74c-0.89,26.07,19.84,46.06,46.27,44.64l89.95-4.82
					c26.34-1.41,48.4-23.63,49.28-49.63l1.35-39.62c44.2-9.05,86.91-22.74,127.58-40.5l19,33.57c12.33,21.78,41.05,27.95,64.14,13.8
					l78.59-48.16c23.02-14.11,31.73-43.16,19.46-64.9l-19.64-34.82c34.18-28.77,65.42-60.88,93.13-95.74l36.5,19.54
					c22.05,11.8,51.05,2.73,64.77-20.27l46.75-78.3c13.7-22.95,7-51.14-14.99-62.99l-38.36-20.67
					c15.76-39.44,27.54-80.62,34.89-123.03l47.1-2.1c25.86-1.15,47.52-22.97,48.4-48.74l2.99-87.82
					c0.88-25.77-19.36-45.78-45.22-44.69l-49.87,2.08c-5.67-40.78-15.68-79.93-29.6-117.01l45.64-27.51
					c22.86-13.78,31.51-42.64,19.33-64.47l-41.55-74.49c-12.2-21.87-40.66-28.47-63.58-14.72l-48.03,28.81
					c-24.95-30.16-53.21-57.5-84.28-81.57l29.58-49.07c13.79-22.87,7.03-51.25-15.09-63.41l-75.53-41.51
					c-22.19-12.19-51.42-3.53-65.27,19.38l-30.41,50.28c-37.08-12.72-76.12-21.75-116.74-26.62l1.96-57.57
					c0.89-26-19.72-46.37-46.04-45.51l-89.89,2.95c-26.42,0.87-48.56,22.7-49.45,48.78l-1.97,57.73
					c-41.33,7.72-81.46,19.54-119.94,34.96l-27.44-48.63c-12.51-22.18-41.69-28.95-65.18-15.1l-80.19,47.3
					c-23.56,13.89-32.47,43.19-19.89,65.4l26.96,47.62c-33.57,26.73-64.53,56.61-92.34,89.17l-47.59-25.64
					c-22.76-12.26-52.72-3.37-66.92,19.87l-48.42,79.3c-14.22,23.29-7.23,52.08,15.6,64.31l45.49,24.35
					c-17.04,38.98-30.18,79.78-38.93,121.9l-51.78,2.16C1725.01,1487,1702.45,1509.24,1701.55,1535.55z M1910.87,1580.33
					c9.01-264.52,234.19-487.2,501.48-497.32c265.67-10.06,472.63,193.91,463.72,455.52c-8.91,261.62-230.4,484.13-496.16,497.08
					C2112.52,2048.65,1901.86,1844.85,1910.87,1580.33z"/>
			</g>
		</g>
		<g>
			<linearGradient id="SVGID_1_" gradientUnits="userSpaceOnUse" x1="1335.3496" y1="1852.8749" x2="2455.4302" y2="2501.343">
				<stop  offset="0" style="stop-color:#444B8C"/>
				<stop  offset="0.9964" style="stop-color:#26C44F"/>
			</linearGradient>
			<path fill="url(#SVGID_1_)" d="M2644.38,2109.1c1.14,514.62-272.4,934.59-759.55,948.4c-7.53,0.21-131.85-0.02-139.43,0
				c-497.65,1.21-902.01-421.44-903.16-944.01c-1.15-522.57,401.33-947.19,898.98-948.4c11.64-0.03,120.87,1.05,132.4,1.48
				C2355.21,1184.58,2643.26,1598.75,2644.38,2109.1z"/>
			<linearGradient id="SVGID_2_" gradientUnits="userSpaceOnUse" x1="2284.0784" y1="1560.4216" x2="481.7809" y2="4268.1016">
				<stop  offset="0" style="stop-color:#FFC444"/>
				<stop  offset="0.9964" style="stop-color:#F36F56"/>
			</linearGradient>
			<ellipse fill="url(#SVGID_2_)" cx="1911.77" cy="2119.76" rx="901.08" ry="946.21"/>
			<linearGradient id="SVGID_3_" gradientUnits="userSpaceOnUse" x1="2370.6069" y1="1478.1027" x2="1829.153" y2="2235.2937">
				<stop  offset="0" style="stop-color:#FFC444"/>
				<stop  offset="0.9964" style="stop-color:#F36F56"/>
			</linearGradient>
			<ellipse opacity="0.3" fill="url(#SVGID_3_)" cx="1911.77" cy="2119.76" rx="878.37" ry="922.37"/>
			<linearGradient id="SVGID_4_" gradientUnits="userSpaceOnUse" x1="1348.2992" y1="612.248" x2="2164.2703" y2="2795.2888">
				<stop  offset="0" style="stop-color:#FFC444"/>
				<stop  offset="0.9964" style="stop-color:#F36F56"/>
			</linearGradient>
			<ellipse fill="url(#SVGID_4_)" cx="1911.77" cy="2119.76" rx="851.86" ry="894.52"/>
			<linearGradient id="SVGID_5_" gradientUnits="userSpaceOnUse" x1="856.7274" y1="4914.269" x2="2481.5779" y2="534.9103">
				<stop  offset="3.597120e-03" style="stop-color:#EBEFF2"/>
				<stop  offset="1" style="stop-color:#FFFFFF"/>
			</linearGradient>
			<ellipse fill="url(#SVGID_5_)" cx="1893.56" cy="2119.76" rx="833.65" ry="875.4"/>
			<g>
				<linearGradient id="SVGID_6_" gradientUnits="userSpaceOnUse" x1="2495.1541" y1="1467.6667" x2="1528.6139" y2="3411.7322">
					<stop  offset="0" style="stop-color:#FFC444"/>
					<stop  offset="0.9964" style="stop-color:#F36F56"/>
				</linearGradient>
				<path fill="url(#SVGID_6_)" d="M1981.58,2094.69l635.02,246.25c20.67-69.57,31.82-143.55,31.82-220.27
					c0-395.04-295.37-717.63-666.85-737.55V2094.69z"/>
			</g>
			<g opacity="0.54">
				<path fill="#D8DEE8" d="M1684.25,2099.89c-65.93-213.51,172.43-367.6,134.85-616.47c-16.58-109.82-81.11-199.79-160.47-271.98
					c-375.18,115.11-648.87,479.45-647.92,910.5c1.15,522.57,405.51,945.22,903.16,944.01c122.02-0.3,238.29-26.1,344.32-72.51
					c-15.36-302-108-472.6-206.52-575.38C1899.83,2259.67,1734.52,2262.7,1684.25,2099.89z"/>
			</g>
			<linearGradient id="SVGID_7_" gradientUnits="userSpaceOnUse" x1="1433.0726" y1="1279.3865" x2="2471.1943" y2="3214.6479">
				<stop  offset="0" style="stop-color:#FF9085"/>
				<stop  offset="1" style="stop-color:#FB6FBB"/>
			</linearGradient>
			<ellipse fill="url(#SVGID_7_)" cx="1891.22" cy="2133.46" rx="53" ry="55.66"/>
			<linearGradient id="SVGID_8_" gradientUnits="userSpaceOnUse" x1="1525.0414" y1="1230.0521" x2="2563.1631" y2="3165.3137">
				<stop  offset="0" style="stop-color:#FF9085"/>
				<stop  offset="1" style="stop-color:#FB6FBB"/>
			</linearGradient>
			<path fill="url(#SVGID_8_)" d="M1891.22,1689.91c-18.5,0-33.5,15.75-33.5,35.17v375.19c0,19.43,15,35.17,33.5,35.17
				c18.5,0,33.5-15.75,33.5-35.17v-375.19C1924.71,1705.66,1909.72,1689.91,1891.22,1689.91z"/>
			<linearGradient id="SVGID_9_" gradientUnits="userSpaceOnUse" x1="443.7701" y1="-83.451" x2="2815.1077" y2="4337.1851">
				<stop  offset="0" style="stop-color:#FF9085"/>
				<stop  offset="1" style="stop-color:#FB6FBB"/>
			</linearGradient>
			<path fill="url(#SVGID_9_)" d="M1899.87,2128.21l-600.14-176.44c-10.58-3.23-22.2,2.64-25.96,13.1
				c-3.76,10.46,1.77,21.57,12.35,24.79l600.14,176.44c10.58,3.23,22.2-2.64,25.96-13.1
				C1915.98,2142.54,1910.45,2131.44,1899.87,2128.21z"/>
		</g>
		<g>
			
				<linearGradient id="SVGID_10_" gradientUnits="userSpaceOnUse" x1="3763.073" y1="502.8523" x2="4062.1929" y2="1128.2841" gradientTransform="matrix(-1 0 0 1 5830.6938 0)">
				<stop  offset="0" style="stop-color:#FF9085"/>
				<stop  offset="1" style="stop-color:#FB6FBB"/>
			</linearGradient>
			<path fill="url(#SVGID_10_)" d="M1922.27,746.43c-22.78-6.65-60.19,41.9-85.5,76.67c-37.87,52.02-82.11,112.81-70.19,185.79
				c11.73,71.81,73.29,127.73,90.83,119.73c15.01-6.84-13.85-55.14,8.26-119.73c17.83-52.12,47.39-52.14,67.2-103.24
				C1957.47,842.24,1950.3,754.62,1922.27,746.43z"/>
			
				<linearGradient id="SVGID_11_" gradientUnits="userSpaceOnUse" x1="-4480.6265" y1="1280.6444" x2="-4129.7563" y2="1280.6444" gradientTransform="matrix(1 0 0 1 5933.6426 0)">
				<stop  offset="0" style="stop-color:#444B8C"/>
				<stop  offset="0.9964" style="stop-color:#26264F"/>
			</linearGradient>
			<path fill="url(#SVGID_11_)" d="M1904.04,1083.91c-117.33,28.49-194.62,74.21-239.75,106.56c-24.46,17.53-35.76,28.46-41.86,44.4
				c-34.76,90.82,143.81,228.13,162.84,242.51c8.31-19.38,16.62-38.76,24.94-58.15c-18.45-101.28-49.17-133.05-74.88-142.5
				c-7.19-2.64-19.26-5.48-19.03-8.88c0.55-8.05,68.38,3.42,133.2-20.3c64.63-23.65,129.57-83.49,117.97-123.05
				C1965.35,1117.28,1956.48,1096.41,1904.04,1083.91z"/>
			
				<linearGradient id="SVGID_12_" gradientUnits="userSpaceOnUse" x1="7022.0137" y1="12.7166" x2="7037.1797" y2="285.7075" gradientTransform="matrix(-0.9565 0.2918 0.2918 0.9565 8467.3135 -392.2555)">
				<stop  offset="0" style="stop-color:#444B8C"/>
				<stop  offset="0.9964" style="stop-color:#26264F"/>
			</linearGradient>
			<path fill="url(#SVGID_12_)" d="M1790.26,1747.71c0,0,10.92,3.89,10.96,12.53c0.04,8.64-11.06,46.69-23.13,60.21
				c-12.06,13.52-13.14-6.65-12.39-19.64c0.75-12.99,3.91-42.08,6.89-47.7C1775.58,1747.48,1790.26,1747.71,1790.26,1747.71z"/>
			
				<linearGradient id="SVGID_13_" gradientUnits="userSpaceOnUse" x1="-4315.6948" y1="1293.8455" x2="-3964.8254" y2="1293.8455" gradientTransform="matrix(1 0 0 1 5933.6426 0)">
				<stop  offset="0" style="stop-color:#444B8C"/>
				<stop  offset="0.9964" style="stop-color:#3E4177"/>
			</linearGradient>
			<path opacity="0.3" fill="url(#SVGID_13_)" d="M1755.19,1216.69c-21.32-0.42-71.27-4.4-84.57,20.3
				c-11.09,20.6,8.34,51.83,20.3,71.04c32.5,52.22,64.04,57.56,86.26,89.64c8.6,12.42,16.39,29.76,18.87,54.55
				c4.72-10.99,9.43-21.99,14.14-32.98c-18.45-101.28-49.17-133.05-74.88-142.5c-7.19-2.64-19.26-5.48-19.03-8.88
				c0.55-8.05,68.38,3.42,133.2-20.3c58.92-21.56,117.89-73.14,119.11-112.07C1875.3,1202.4,1805.09,1217.66,1755.19,1216.69z"/>
			
				<linearGradient id="SVGID_14_" gradientUnits="userSpaceOnUse" x1="7023.8511" y1="432.47" x2="7015.7944" y2="63.8746" gradientTransform="matrix(-0.9565 0.2918 0.2918 0.9565 8467.3135 -392.2555)">
				<stop  offset="0" style="stop-color:#FFC444"/>
				<stop  offset="0.9964" style="stop-color:#F36F56"/>
			</linearGradient>
			<path fill="url(#SVGID_14_)" d="M1796.57,1711.01c-0.64,13.31-1.77,24.44-2.79,32.7c-2.25,18.28-4.33,25.52-7.16,32.11
				c-2.48,5.74-8.66,18.27-11.62,17.4c-3-0.88,0.09-14.76,2.42-53.35c0.34-5.6,1.37-23.43,1.37-23.43L1796.57,1711.01z"/>
			
				<linearGradient id="SVGID_15_" gradientUnits="userSpaceOnUse" x1="-4286.2148" y1="1056.983" x2="-3971.6167" y2="1439.2363" gradientTransform="matrix(1 0 0 1 5933.6426 0)">
				<stop  offset="0" style="stop-color:#444B8C"/>
				<stop  offset="0.9964" style="stop-color:#26264F"/>
			</linearGradient>
			<path fill="url(#SVGID_15_)" d="M1971.69,1091.52c-67.6,40.76-111.49,87.1-137,118.4c-30.12,36.94-75.93,93.14-92.52,176.93
				c-8.84,44.66-4.49,84.73,4.57,163.03c9,77.77,21.9,141.09,32,184.33c5.2,2.09,10.4,4.17,15.59,6.26
				c13.93-25.58,32.14-66.08,38.67-117.87c10.68-84.73-21.01-111.65-5.8-171.74c20.28-80.08,95.41-127.97,127.74-147.8
				c116.08-71.21,219.89-39.69,231.67-83.08c9.73-35.86-53.97-83.94-88.78-103.11C2045.29,1087.97,1994.23,1089.45,1971.69,1091.52z
				"/>
			
				<linearGradient id="SVGID_16_" gradientUnits="userSpaceOnUse" x1="-3330.6084" y1="332.0412" x2="-3746.6917" y2="680.4692" gradientTransform="matrix(0.9987 -0.0509 0.0509 0.9987 5839.4507 27.2223)">
				<stop  offset="0" style="stop-color:#444B8C"/>
				<stop  offset="0.9964" style="stop-color:#26264F"/>
			</linearGradient>
			<path fill="url(#SVGID_16_)" d="M2037.66,749.73c-17.55-3.77-46.4-3.02-73.92-24.69c-8.28-6.52-37.62-29.63-34.06-62.69
				c3.14-29.1,30.72-44.74,34.1-46.61c19.53-10.75,38.99-8.36,60.58-5.41c28,3.83,37.3,11.48,56.75,16.72
				c48.13,12.97,64.4-14.11,112.86-11.82c61.93,2.92,67.29,48.66,119.4,49.8c58.5,1.28,69.71-55.97,127.46-65.67
				c80.17-13.46,201.46,72.84,199.02,172.32c-1.41,57.46-44.2,123.31-98.85,143.08c-31.85,11.52-66.23,7.86-76.04,28.58
				c-6.98,14.74,8.72,26.1,7.23,51.79c-1.91,33.11-30.42,56.35-35.02,60.1c-42.74,34.83-138.55,17.24-203.98-32.05
				C2115.21,934.3,2133.07,770.25,2037.66,749.73z"/>
			
				<linearGradient id="SVGID_17_" gradientUnits="userSpaceOnUse" x1="3538.0813" y1="610.457" x2="3837.2007" y2="1235.8872" gradientTransform="matrix(-1 0 0 1 5830.6938 0)">
				<stop  offset="0" style="stop-color:#FF9085"/>
				<stop  offset="1" style="stop-color:#FB6FBB"/>
			</linearGradient>
			<path fill="url(#SVGID_17_)" d="M2161.19,746.19c-39.74-4.9-85.58-8.62-136.51-9.32c-107.63-1.46-123.04,12.19-126.98,22.29
				c-7.35,18.83,5.24,28.27-1.91,61.11c-4.27,19.63-0.23,28.58-8.5,49.68c-8.05,20.56-1.74,31.61,5.38,79.82
				c9.11,61.65,13.31,92.98-3.94,117.83c-11.99,17.27-25.4,18.73-24.12,26.93c2.72,17.48,63.14,7.84,139.64,41.39
				c22.14,9.71,42.53,21.68,59.62,31.71c40.03,23.5,47.43,32.48,65.96,43.13c58.62,33.67,146.67,36.92,192.82-3.81
				c17.21-15.18,29.74-37.5,24.1-45.67c-7.68-11.12-42.04,14.14-73.57-1.27c-20.89-10.21-16.92-26.73-41.07-46.18
				c-29.06-23.42-49.27-11.15-69.05-26.39c-30.86-23.77-16.82-80.69-8.16-176.11C2158.49,871.84,2162.09,815.43,2161.19,746.19z"/>
			
				<linearGradient id="SVGID_18_" gradientUnits="userSpaceOnUse" x1="3773.0222" y1="768.7131" x2="3849.4207" y2="709.1482" gradientTransform="matrix(-1 0 0 1 5830.6938 0)">
				<stop  offset="0" style="stop-color:#FFC444"/>
				<stop  offset="0.9964" style="stop-color:#F36F56"/>
			</linearGradient>
			<path fill="url(#SVGID_18_)" d="M2044.71,724.02c14.68,9.11,38.41,21.01,41.02,24.24c2.61,3.23-71.89,15.98-118.24-7.41
				c0,0-7.19-3.99,20.76-9.58c5.95-1.19,4.79-12.78,3.99-24.75l5.59-10.38C1997.83,696.14,2030.03,714.91,2044.71,724.02z"/>
			
				<linearGradient id="SVGID_19_" gradientUnits="userSpaceOnUse" x1="3872.1311" y1="585.6011" x2="3813.8616" y2="946.8745" gradientTransform="matrix(-1 0 0 1 5830.6938 0)">
				<stop  offset="0" style="stop-color:#FFC444"/>
				<stop  offset="0.9964" style="stop-color:#F36F56"/>
			</linearGradient>
			<path fill="url(#SVGID_19_)" d="M2003.42,684.8c0,0,5.86,24.86-16.03,37.14c-19.6,11-52.76-34.1-46.57-50.85
				c2.07-5.59,9.45-12.78,17.16-15.19c5.43-1.7,25.95-1.04,34.75,16.24c2.3-5.05,6.43-7.7,9.2-6.87c3.52,1.05,4.03,7.45,4.15,8.9
				C2006.49,679.19,2004.46,683.09,2003.42,684.8z"/>
			
				<linearGradient id="SVGID_20_" gradientUnits="userSpaceOnUse" x1="3659.1292" y1="1086.4706" x2="3997.0359" y2="782.6642" gradientTransform="matrix(-1 0 0 1 5830.6938 0)">
				<stop  offset="0" style="stop-color:#FF9085"/>
				<stop  offset="1" style="stop-color:#FB6FBB"/>
			</linearGradient>
			<path opacity="0.3" fill="url(#SVGID_20_)" d="M1974.32,1080.68c22.16,9.19,25.16,29.04,55.8,40.3
				c29.23,10.74,39.04-2.72,68.2,6.2c43.79,13.4,60.54,55.65,67.17,51.67c6.07-3.65,0.25-44.08-27.9-70.27
				c-32.33-30.08-67.15-16.3-87.83-47.53c-8.05-12.15-14.25-31.56-7.23-46.5c9.51-20.24,34.37-13.22,47.53-29.97
				c23.66-30.08-31.71-84.34-16.53-130.2c6.06-18.3,25.34-41.24,87.52-56.6c-0.84,45.97-3.49,84.39-6.14,113.57
				c-8.66,95.42-22.7,152.34,8.16,176.11c19.78,15.24,39.99,2.97,69.05,26.39c24.15,19.46,20.18,35.98,41.07,46.18
				c31.53,15.41,65.89-9.85,73.57,1.27c5.64,8.17-6.9,30.49-24.1,45.67c-46.15,40.72-134.2,37.48-192.82,3.81
				c-18.53-10.65-25.94-19.63-65.96-43.13c-17.09-10.04-37.48-22-59.62-31.71c-53.68-23.54-99.42-25.82-122.88-31.12
				C1927.95,1073.73,1956.33,1073.22,1974.32,1080.68z"/>
			<g>
				<linearGradient id="SVGID_21_" gradientUnits="userSpaceOnUse" x1="1939.9495" y1="895.1871" x2="1908.6405" y2="1151.6812">
					<stop  offset="0" style="stop-color:#311944"/>
					<stop  offset="1" style="stop-color:#893976"/>
				</linearGradient>
				<path fill="url(#SVGID_21_)" d="M1782.2,1120.14l243.43,11.85c3.35,0.16,6.41,1.96,8.18,4.81l6.74,10.81
					c3.35,5.38-0.68,12.32-7.01,12.08l-257.85-9.82L1782.2,1120.14z"/>
				
					<linearGradient id="SVGID_22_" gradientUnits="userSpaceOnUse" x1="3945.1724" y1="1068.9622" x2="4310.3828" y2="1068.9622" gradientTransform="matrix(-1 0 0 1 5830.6938 0)">
					<stop  offset="0" style="stop-color:#311944"/>
					<stop  offset="1" style="stop-color:#893976"/>
				</linearGradient>
				<path fill="url(#SVGID_22_)" d="M1529,984.58l251.49,4.87c7.44,0.14,14.26,4.2,17.93,10.67l87.09,153.23l-265.61-10.58
					c-7.29-0.29-13.94-4.24-17.69-10.5l-80.69-134.8C1518.1,991.73,1522.32,984.45,1529,984.58z"/>
				
					<linearGradient id="SVGID_23_" gradientUnits="userSpaceOnUse" x1="-2484.8914" y1="972.073" x2="-2310.4441" y2="1145.1249" gradientTransform="matrix(1 0 0 1 4090.4153 0)">
					<stop  offset="0" style="stop-color:#311944"/>
					<stop  offset="1" style="stop-color:#893976"/>
				</linearGradient>
				<path opacity="0.2" fill="url(#SVGID_23_)" d="M1798.43,1000.12c-3.68-6.47-10.49-10.52-17.93-10.67l-5.51-0.11
					c-0.82,8.12-3.31,15.54-8.28,21.54c-15.51,18.72-41.27,7.17-60.48,26.98c-21.09,21.76-1.61,47.66-20.47,67.92
					c-19.85,21.32-51.95,3.96-88.86,17.6l5.31,8.88c3.75,6.26,10.4,10.21,17.69,10.5l265.61,10.58L1798.43,1000.12z"/>
			</g>
			<g>
				
					<linearGradient id="SVGID_24_" gradientUnits="userSpaceOnUse" x1="3773.3154" y1="1105.679" x2="3219.5466" y2="361.3103" gradientTransform="matrix(-1 0 0 1 5830.6938 0)">
					<stop  offset="0" style="stop-color:#FF9085"/>
					<stop  offset="1" style="stop-color:#FB6FBB"/>
				</linearGradient>
				<path fill="url(#SVGID_24_)" d="M1995.52,1112.01c-3.17-8.37-6.34-16.73-9.51-25.1c35.02-9.6,83.45-23.79,133.13-41.54
					c12.27-4.39,16.77-10.06,20.05-14.41c25.47-33.78-39.35-93.37-38.18-170.69c0.8-53.6,31.54-113.38,60.18-114.07
					c58.2-1.41,188.28,244.01,80.2,349.41C2187.74,1147.92,2087.52,1153.99,1995.52,1112.01z"/>
			</g>
			
				<linearGradient id="SVGID_25_" gradientUnits="userSpaceOnUse" x1="3873.7329" y1="1136.3558" x2="3892.312" y2="991.8511" gradientTransform="matrix(-1 0 0 1 5830.6938 0)">
				<stop  offset="0" style="stop-color:#FFC444"/>
				<stop  offset="0.9964" style="stop-color:#F36F56"/>
			</linearGradient>
			<path fill="url(#SVGID_25_)" d="M1986.02,1086.9c-21.98-11.68-48.3,0.29-50,1.09c-4.83,2.28-11.86,6.34-18.96,13.6
				c-0.8,1.1-10.34,14.31-6.87,18.54c2.78,3.39,13.57,0.58,26.53-7.48c5.43-0.76,13.52-1.46,23.21-0.57
				c17.79,1.64,25.94,7.26,32.4,2.41c4.73-3.55,6.34-11.06,4.64-16.65C1995.15,1091.86,1989.74,1088.88,1986.02,1086.9z"/>
		</g>
		<g>
			<linearGradient id="SVGID_26_" gradientUnits="userSpaceOnUse" x1="1351.5461" y1="2568.4133" x2="1403.3467" y2="2502.822">
				<stop  offset="0" style="stop-color:#AA80F9"/>
				<stop  offset="0.9964" style="stop-color:#6165D7"/>
			</linearGradient>
			<path fill="url(#SVGID_26_)" d="M1482.59,2673.08c28.15-15.6,19.91-104.14-18.28-166.36c-54.23-88.34-173.07-130.51-197.44-104.2
				c-24.93,26.93,46.84,128,58.5,144.42C1367.67,2606.5,1449.3,2691.53,1482.59,2673.08z"/>
			
				<linearGradient id="SVGID_27_" gradientUnits="userSpaceOnUse" x1="1687.2601" y1="2999.1538" x2="1772.4728" y2="2999.1538" gradientTransform="matrix(-0.9294 0.369 0.369 0.9294 2317.0188 -232.6526)">
				<stop  offset="0" style="stop-color:#444B8C"/>
				<stop  offset="0.9964" style="stop-color:#26264F"/>
			</linearGradient>
			<path fill="url(#SVGID_27_)" d="M1776.96,3186.98c-4.59,6.35-4.61,17.1,0.51,21.84c5.03,4.65,11.32,0.06,30.43-1.47
				c20.47-1.64,26.33,2.59,39.77-2.76c5.43-2.17,14.91-7.01,14.28-10.99c-0.44-2.8-5.64-3.7-23.08-7.48
				c-24.76-5.37-24.7-5.82-29.86-6.1C1796.04,3179.31,1783.03,3178.6,1776.96,3186.98z"/>
			
				<linearGradient id="SVGID_28_" gradientUnits="userSpaceOnUse" x1="1523.3457" y1="3028.199" x2="1559.2771" y2="2953.8291" gradientTransform="matrix(-0.9527 0.304 0.304 0.9527 2337.1311 -152.086)">
				<stop  offset="0" style="stop-color:#FFC444"/>
				<stop  offset="0.9964" style="stop-color:#F36F56"/>
			</linearGradient>
			<path fill="url(#SVGID_28_)" d="M1786.37,3152.26l13.98,32.91c-0.57,1.91-10.3,9.15-19.66,6.27l-18.83-31.36L1786.37,3152.26z"/>
			
				<linearGradient id="SVGID_29_" gradientUnits="userSpaceOnUse" x1="1820.7546" y1="2993.6653" x2="1905.9672" y2="2993.6653" gradientTransform="matrix(-0.9294 0.369 0.369 0.9294 2317.0188 -232.6526)">
				<stop  offset="0" style="stop-color:#444B8C"/>
				<stop  offset="0.9964" style="stop-color:#26264F"/>
			</linearGradient>
			<path fill="url(#SVGID_29_)" d="M1650.87,3231.13c-4.59,6.35-4.61,17.1,0.51,21.84c5.03,4.65,11.32,0.06,30.43-1.47
				c20.47-1.64,26.33,2.59,39.77-2.76c5.43-2.17,14.91-7.01,14.28-10.99c-0.44-2.8-5.64-3.7-23.08-7.48
				c-24.76-5.37-24.7-5.82-29.86-6.1C1669.95,3223.47,1656.93,3222.76,1650.87,3231.13z"/>
			
				<linearGradient id="SVGID_30_" gradientUnits="userSpaceOnUse" x1="1656.8937" y1="3031.9358" x2="1692.8248" y2="2957.5664" gradientTransform="matrix(-0.9527 0.304 0.304 0.9527 2337.1311 -152.086)">
				<stop  offset="0" style="stop-color:#FFC444"/>
				<stop  offset="0.9964" style="stop-color:#F36F56"/>
			</linearGradient>
			<path fill="url(#SVGID_30_)" d="M1660.27,3196.42l13.98,32.91c-0.57,1.91-10.3,9.15-19.66,6.27l-18.83-31.36L1660.27,3196.42z"/>
			<linearGradient id="SVGID_31_" gradientUnits="userSpaceOnUse" x1="1061.7992" y1="2881.6274" x2="1274.3824" y2="2612.4473">
				<stop  offset="0" style="stop-color:#AA80F9"/>
				<stop  offset="0.9964" style="stop-color:#6165D7"/>
			</linearGradient>
			<path fill="url(#SVGID_31_)" d="M1041.1,2408.24c32.66-11.13,82.57-24.06,144.05-24.06c69.21,0.01,124.8,0.01,163.18,32.73
				c93.15,79.39-11.11,269.56,42.3,410.39c5.85,15.42,22.87,64.33,8.07,117.07c-2.73,9.72-8.35,18.15-17.96,32.41
				c-56.42,83.71-218.04,111.25-290.64,38.68c-38.37-38.36-69.75-52.02-70.67-95.78C1015.79,2746.9,1042.6,2574.57,1041.1,2408.24z"
				/>
			<linearGradient id="SVGID_32_" gradientUnits="userSpaceOnUse" x1="1061.8221" y1="2873.2283" x2="1267.4492" y2="2612.8564">
				<stop  offset="0" style="stop-color:#AA80F9"/>
				<stop  offset="0.9964" style="stop-color:#6165D7"/>
			</linearGradient>
			<path opacity="0.3" fill="url(#SVGID_32_)" d="M1077.93,2619.29c-13.19-36.13,0.48-77.48-28.94-95.53
				c-10.78-6.61-24.18-9.42-38.77-9.1c1.75,126.98,4.25,253.84,7.33,386.35c1.02,43.77,6.49,45.94,48.92,84.29
				c49.16,44.44,133.88,58.95,206.54,44.41c-95.16-58.52-163.06-119.15-153.33-171.11c11.32-60.52,122.15-78.38,117.69-121.41
				C1232.63,2691.61,1106.77,2698.26,1077.93,2619.29z"/>
			<linearGradient id="SVGID_33_" gradientUnits="userSpaceOnUse" x1="944.1066" y1="2766.4519" x2="1155.2548" y2="2499.0891">
				<stop  offset="0" style="stop-color:#AA80F9"/>
				<stop  offset="0.9964" style="stop-color:#6165D7"/>
			</linearGradient>
			<path fill="url(#SVGID_33_)" d="M1071.36,2412.15c-31.99-21.6-109.07,32.87-151.8,80.82c-19.86,22.28-89.01,99.87-71.83,204.09
				c2.8,16.98,15.69,96.39,83.66,135.29c60.86,34.83,143.04,25.87,208.89-23.46c9-7.99,18-15.97,27-23.95
				c8.85-9.57,17.71-19.14,26.56-28.71c-13.92-11.58-37.56-28.28-70.77-38.99c-50.6-16.33-83.87,7.9-95.97-8.05
				c-14.9-19.63,30.46-56.21,42.36-139.44C1072.68,2547.29,1107.1,2436.27,1071.36,2412.15z"/>
			
				<linearGradient id="SVGID_34_" gradientUnits="userSpaceOnUse" x1="904.4073" y1="2976.043" x2="1190.6934" y2="2613.5381" gradientTransform="matrix(0.994 -0.1094 0.1094 0.994 171.165 314.9103)">
				<stop  offset="0" style="stop-color:#444B8C"/>
				<stop  offset="0.9964" style="stop-color:#26264F"/>
			</linearGradient>
			<path fill="url(#SVGID_34_)" d="M1136.45,2973.97c-13.48,70.7,22.36,38.62,97.31-9.15c78.93-50.31,254.86-129.44,341.99-60.75
				c64.89,51.16,33.5,146.8,135.12,237.08c17.9,15.9,34.38,26.57,44.62,32.69c15.58-8.55,31.16-17.1,46.74-25.66
				c2.29-38.11,6.58-184.51-98.38-303.65c-25.38-28.8-73.71-84.15-147.92-101.64C1355.29,2695.59,1148.89,2908.76,1136.45,2973.97z"
				/>
			
				<linearGradient id="SVGID_35_" gradientUnits="userSpaceOnUse" x1="1074.8784" y1="2641.2317" x2="742.7329" y2="3009.147" gradientTransform="matrix(0.994 -0.1094 0.1094 0.994 171.165 314.9103)">
				<stop  offset="0" style="stop-color:#444B8C"/>
				<stop  offset="0.9964" style="stop-color:#26264F"/>
			</linearGradient>
			<path fill="url(#SVGID_35_)" d="M1052.38,2918.65c-9.28,40.78,7.94,84.57,33.25,110.17c56.2,56.83,166.26,38.08,232.93,7.47
				c81.11-37.25,94.31-90.26,128.8-81.39c53.59,13.79,30.93,144.51,135.12,237.08c17.9,15.9,34.38,26.57,44.62,32.69
				c15.58-8.55,31.16-17.1,46.74-25.66c2.74-88.45-13.95-157.24-28.25-200.78c-16.39-49.93-31.08-94.66-71.96-134.85
				c-50.79-49.94-111.38-62.77-146.09-69.66C1280.66,2764.59,1076.49,2812.69,1052.38,2918.65z"/>
			<g>
				<linearGradient id="SVGID_36_" gradientUnits="userSpaceOnUse" x1="1373.8595" y1="2943.9106" x2="1327.2262" y2="2811.7827">
					<stop  offset="0" style="stop-color:#311944"/>
					<stop  offset="1" style="stop-color:#893976"/>
				</linearGradient>
				<polygon fill="url(#SVGID_36_)" points="1509.34,2784.54 1123.85,2778.78 1226.36,2828.25 1510.33,2809.67 				"/>
				<linearGradient id="SVGID_37_" gradientUnits="userSpaceOnUse" x1="1170.1399" y1="2752.4775" x2="1187.2388" y2="2870.6152">
					<stop  offset="0" style="stop-color:#311944"/>
					<stop  offset="1" style="stop-color:#893976"/>
				</linearGradient>
				<path fill="url(#SVGID_37_)" d="M1110.24,2789.02L1110.24,2789.02c0,7.22,4.52,13.66,11.29,16.13l123.18,48.29l0.56-33.48
					l-121.43-41.18C1117.03,2776.82,1110.24,2781.94,1110.24,2789.02z"/>
			</g>
			<linearGradient id="SVGID_38_" gradientUnits="userSpaceOnUse" x1="1165.0109" y1="2778.3599" x2="1261.6495" y2="2778.3599">
				<stop  offset="0" style="stop-color:#FFC444"/>
				<stop  offset="0.9964" style="stop-color:#F36F56"/>
			</linearGradient>
			<path fill="url(#SVGID_38_)" d="M1165.28,2773.55c-2.37-0.53,11.53-28.21,22.43-25.01c10.9,3.2,64.24,34.11,69.09,46.84
				c4.85,12.73,4.85,12.73,4.85,12.73s-23.27,1.82-37.7-3.03C1209.52,2800.22,1184.52,2777.84,1165.28,2773.55z"/>
			<g>
				<g>
					<linearGradient id="SVGID_39_" gradientUnits="userSpaceOnUse" x1="1508.9451" y1="2762.8245" x2="1418.0273" y2="2633.7214">
						<stop  offset="0" style="stop-color:#444B8C"/>
						<stop  offset="0.9964" style="stop-color:#26264F"/>
					</linearGradient>
					<path fill="url(#SVGID_39_)" d="M1255.5,2585.06l-27.17,247.41c-0.94,8.54,11.01,21.26,19.59,20.85l398.62-24.47
						c6.55-0.31,12-5.13,13.11-11.59l50.03-238.95c1.49-8.7-14.14-17.68-22.96-17.43L1269,2572.62
						C1262.02,2572.81,1256.26,2578.13,1255.5,2585.06z"/>
					<linearGradient id="SVGID_40_" gradientUnits="userSpaceOnUse" x1="1334.5487" y1="2976.4878" x2="1533.5176" y2="2572.3325">
						<stop  offset="0" style="stop-color:#311944"/>
						<stop  offset="1" style="stop-color:#893976"/>
					</linearGradient>
					<path fill="url(#SVGID_40_)" d="M1264.61,2592.28l-27.17,247.41c-0.94,8.54,5.98,15.89,14.55,15.49l403.66-19.11
						c6.55-0.31,12-5.13,13.11-11.59l41.24-240.05c1.49-8.7-5.35-16.59-14.17-16.34l-417.73,11.75
						C1271.14,2580.03,1265.37,2585.34,1264.61,2592.28z"/>
				</g>
				<linearGradient id="SVGID_41_" gradientUnits="userSpaceOnUse" x1="1237.3529" y1="2717.0876" x2="1674.4611" y2="2717.0876">
					<stop  offset="0" style="stop-color:#311944"/>
					<stop  offset="1" style="stop-color:#893976"/>
				</linearGradient>
				<path opacity="0.3" fill="url(#SVGID_41_)" d="M1501.64,2778.09c-35.25-14.94-22.81-43.43-64.43-78.92
					c-54.91-46.83-110.88-26.52-130.47-62.82c-6.1-11.31-9.02-28.9,1.61-57.37l-30.25,0.85c-6.97,0.19-12.74,5.51-13.5,12.44
					l-27.17,247.41c-0.93,8.54,5.98,15.89,14.55,15.49l403.66-19.11c6.55-0.31,12-5.13,13.11-11.59l5.69-33.13
					c-12.25-6.82-26.88-13.01-43.96-16.48C1571.28,2762.86,1542.22,2795.29,1501.64,2778.09z"/>
			</g>
			<g>
				<linearGradient id="SVGID_42_" gradientUnits="userSpaceOnUse" x1="1107.4038" y1="2361.8943" x2="1280.2855" y2="2361.8943">
					<stop  offset="0" style="stop-color:#FFC444"/>
					<stop  offset="0.9964" style="stop-color:#F36F56"/>
				</linearGradient>
				<path fill="url(#SVGID_42_)" d="M1191.61,2289.62c0.21,25.66-2.65,46.01-5.36,59.95c-3.1,15.97-5.34,20.09-8.19,23.44
					c-4.29,5.04-10.8,9.27-47.57,18.38c-20.01,4.96-22.58,4.83-23.03,6.81c-2.16,9.69,52.41,42.7,108.77,34.74
					c34.5-4.87,65.89-24.55,63.96-34.89c-1.94-10.4-36.4-4.82-46.67-23.64c-7.14-13.09,0.86-31.68,10.33-47.07
					C1234.69,2310.17,1200.78,2306.8,1191.61,2289.62z"/>
				<g>
					
						<linearGradient id="SVGID_43_" gradientUnits="userSpaceOnUse" x1="780.2818" y1="2251.5356" x2="715.0194" y2="2085.781" gradientTransform="matrix(-0.9687 -0.2485 -0.2485 0.9687 2456.1904 427.3052)">
						<stop  offset="0" style="stop-color:#311944"/>
						<stop  offset="1" style="stop-color:#893976"/>
					</linearGradient>
					<path fill="url(#SVGID_43_)" d="M1264,2322.25c10.61-8.41,15.85-26.56,9.78-40.47c-5.22-11.97-17.15-16.59-24.29-19.36
						c-20.69-8.02-49.92-6.12-64.39,11.07c-8.58,10.19-2.87,37.48-2.13,42.32c0.85,5.47,4.26,8.16,6.87,12.8
						c3.6,6.44,9.21,16.65,18.28,33.64c2.03-3.79,4.83-8.4,8.62-13.21c1.46-1.85,7.25-9.05,14.56-14.37
						C1245.95,2324.01,1253.95,2330.22,1264,2322.25z"/>
					<linearGradient id="SVGID_44_" gradientUnits="userSpaceOnUse" x1="1224.4465" y1="2311.3574" x2="1203.501" y2="2492.8867">
						<stop  offset="0" style="stop-color:#FFC444"/>
						<stop  offset="0.9964" style="stop-color:#F36F56"/>
					</linearGradient>
					<path fill="url(#SVGID_44_)" d="M1193.1,2346.03c0,0,8.03,26.66,36.42,32.11c25.42,4.88,43.68-50.22,30.81-66.27
						c-4.29-5.35-14.53-9.78-23.84-9.61c-5.5,0.1-7.79,1.78-16.77,1.77c-8.29-0.01-10.26-1.44-13.11-0.08
						c-3.57,1.7-7.3,7.19-6.67,24.85c-3.51-6.07-8.75-9.41-13.31-8.55c-0.73,0.14-2.75,0.86-4.17,2.38
						C1177.3,2328.12,1181.02,2337.82,1193.1,2346.03z"/>
					
						<linearGradient id="SVGID_45_" gradientUnits="userSpaceOnUse" x1="760.3419" y1="2259.4702" x2="695.0158" y2="2093.554" gradientTransform="matrix(-0.9687 -0.2485 -0.2485 0.9687 2456.1904 427.3052)">
						<stop  offset="0" style="stop-color:#311944"/>
						<stop  offset="1" style="stop-color:#893976"/>
					</linearGradient>
					<path fill="url(#SVGID_45_)" d="M1206.35,2300.31c0.97,1.21-3.88,4.75-5.82,11.04c-3.75,12.22,4.89,30.3,17.32,34.88
						c7.35,2.71,10.61-1.3,23.42,0.63c7.93,1.19,14.1,3.85,17.92,5.79c0.39,14.57-6.82,27.12-17.51,31.03
						c-11.51,4.21-22.9-3.13-27.66-6.2c-3.19-2.05-13.4-8.6-16.57-20.36c-3.3-12.25,4.34-17.13-0.76-26.16
						c-2.57-4.56-6.78-7.34-9.44-15.55c-0.72-2.23-1.1-4.14-1.3-5.41C1194.19,2304.85,1204.95,2298.55,1206.35,2300.31z"/>
					<path fill="#FFFFFF" d="M1248.81,2355.31c0,0-6.13,1.41-15.32-1.54c-0.45-0.15-0.98-0.14-1.1,0.08
						c-0.44,0.83,4.51,6.35,10.42,6.24c4.2-0.08,8.21-2.99,7.93-4.07C1250.62,2355.56,1249.72,2355.38,1248.81,2355.31z"/>
				</g>
			</g>
		</g>
		<g>
			<defs>
				<path id="SVGID_46_" d="M2031.95,3057.59c1.83,0.77,342.14-50.57,635.84-254.08c207,49.37,225.79-18.17,225.79-18.17
					l183.04-109.7c0,0-54.41-615.01-247.15-712.61c-208.02-105.33-8.77-7.57-371.81-133.83l-338.98,693.9L2031.95,3057.59z"/>
			</defs>
			<clipPath id="SVGID_47_">
				<use xlink:href="#SVGID_46_"  overflow="visible"/>
			</clipPath>
			<g clip-path="url(#SVGID_47_)">
				<g>
					
						<linearGradient id="SVGID_48_" gradientUnits="userSpaceOnUse" x1="11491.2012" y1="-2823.8711" x2="11130.7578" y2="-1799.4531" gradientTransform="matrix(0.7704 0.6375 -0.6375 0.7704 -7715.8496 -2642.6792)">
						<stop  offset="0" style="stop-color:#AA80F9"/>
						<stop  offset="0.9964" style="stop-color:#6165D7"/>
					</linearGradient>
					<path fill="url(#SVGID_48_)" d="M2830.9,2440.32c-181.4-48.63-276.22,107.91-342.89,175.57
						c-66.67,67.67-180.11-16.03-216.7,103.75c-26.25,85.95-20.37,173.99-70.71,208.43c15.26,8.12,29.09,18.85,41.36,31.19
						c24.3-12.28,49.87-22.35,74.96-32.71c25.48-10.52,51.43-19.82,77.11-29.81c30.24-14,60.01-29.35,92.2-38.26
						c20.06-5.55,40.28-9.2,60.03-15.19c2.29-1.2,4.57-2.41,6.85-3.66c15.43-8.47,31.3-14.49,47.47-18.26
						c15.4-71.56,144-105.75,265.59-84.83C3008.77,2761.08,3134.66,2521.76,2830.9,2440.32z"/>
					<g opacity="0.5">
						<path fill="#BEB8F2" d="M2082.98,3202.48l3.34,1.87c1.16-2.07,117.6-208.5,294.74-378.34
							c163.2-156.47,412.8-312.99,675.16-170.1l1.83-3.36c-116.79-63.61-240.8-74.2-368.58-31.49
							c-102.08,34.12-206.75,102.17-311.11,202.23C2200.82,2993.54,2084.14,3200.41,2082.98,3202.48z"/>
						<path fill="#BEB8F2" d="M2636.84,2641.22l3.22,2.05c68.37-107.28,219.74-214.77,221.26-215.85l-2.2-3.12
							C2857.59,2425.38,2705.61,2533.31,2636.84,2641.22z"/>
						<path fill="#BEB8F2" d="M2722.76,2615.09c150.23,20.26,218.33,126.53,219,127.61l3.24-2.03
							c-0.68-1.09-69.65-108.85-221.72-129.37L2722.76,2615.09z"/>
						<path fill="#BEB8F2" d="M2271.3,2943.35c147.81-111.59,364.81,10.61,366.82,11.97l2.35-3.01
							c-1.85-1.53-222.35-124.59-371.47-12.01L2271.3,2943.35z"/>
						<path fill="#BEB8F2" d="M2319.07,2883.77l3.38,1.79c55.22-104.48,9.28-245.83,8.81-247.25l-3.63,1.2
							C2328.1,2640.91,2373.52,2780.74,2319.07,2883.77z"/>
						<path fill="#BEB8F2" d="M2105.35,3172.26c48.96-50.52,161.52-29.47,162.65-29.25l0.73-3.75
							c-4.7-0.91-115.71-21.67-166.12,30.35L2105.35,3172.26z"/>
					</g>
				</g>
				<g>
					
						<linearGradient id="SVGID_49_" gradientUnits="userSpaceOnUse" x1="-7719.064" y1="2821.406" x2="-7265.2666" y2="4013.7974" gradientTransform="matrix(-0.9916 0.1294 0.1294 0.9916 -5411.9272 101.4598)">
						<stop  offset="3.597120e-03" style="stop-color:#E38DDD"/>
						<stop  offset="1" style="stop-color:#9571F6"/>
					</linearGradient>
					<path fill="url(#SVGID_49_)" d="M2547.8,2820.72c30.23,38.51,19.03,84.65,5.69,116.77c-4.62,0.88-7.06,2.56-11.51,4.47
						c-40.18,17.26-61,16.06-103.29,26.82c-9.1,2.32-37.89,0.99-49.61-0.31l-21.82-2.77c0,0-58.19-96.5-7.26-135.46
						c50.93-38.97,7.29-137.63-9.39-192.74c-10.24-33.84-4.08-52.6-5.85-65.64c-18.7-138.04-67.77-170.4-46.27-219.02
						c23.73-53.68,90.3-29.6,119.2-86.63c32.63-64.4-30.36-138.33,14.13-192.37c7.63-9.27,15.72-18.58,29.93-25.95
						c35.08-18.2,69.56-2.44,90.11-38.25c41.31-71.99,125.01-110.47,191.27-56.38c65.4,53.39,28.82,190.3-106.89,319.89
						c-86.01,103.16-82.29,128.63-61.08,188.42c14.85,41.88,82.86,145.58,29.4,201.81C2551.09,2719.6,2513.24,2776.7,2547.8,2820.72
						z"/>
					<g>
						<defs>
							<path id="SVGID_50_" d="M2533.48,2977.25l-161.98-8.43c0,0-62.43-99.61-11.5-138.58s7.29-137.63-9.39-192.74
								c-45.25-149.54,135.03-168.33,93.47-364.82c-11.05-52.26-51.01-148.48-12.27-198.84c44.14-57.38,93.61-18.14,120.04-64.2
								c41.31-71.99,125.01-110.47,191.27-56.38c65.4,53.39,28.82,190.3-106.89,319.89c-86.01,103.16-82.28,128.63-61.08,188.42
								c14.85,41.88,82.86,145.58,29.4,201.81s-91.31,113.32-56.75,157.35C2600.38,2887.71,2533.48,2977.25,2533.48,2977.25z"/>
						</defs>
						<clipPath id="SVGID_51_">
							<use xlink:href="#SVGID_50_"  overflow="visible"/>
						</clipPath>
						<g opacity="0.5" clip-path="url(#SVGID_51_)">
							<path fill="#FCFDFE" d="M2461.37,2966.28l-3.21,0.21c-1.35-17.7-2.47-35.57-3.33-53.11c-6.4-129.86,0.53-255.59,20.59-373.71
								c17-100.08,43.64-196.11,79.18-285.42c28.58-71.82,63.06-139.7,102.46-201.76c27.7-43.62,57.53-83.94,88.67-119.83
								c5.43-6.26,11.35-12.37,17.08-18.29c7.64-7.88,15.53-16.03,22.3-24.57l2.59,1.76c-6.86,8.66-14.81,16.86-22.5,24.8
								c-5.7,5.89-11.6,11.97-16.97,18.16c-31.04,35.78-60.78,75.97-88.4,119.48c-39.31,61.9-73.7,129.62-102.21,201.28
								c-35.47,89.12-62.06,184.96-79.02,284.85c-20.03,117.92-26.94,243.45-20.55,373.11
								C2458.91,2930.75,2460.03,2948.6,2461.37,2966.28z"/>
							<path fill="#FCFDFE" d="M2519.23,2365.57l-3.12-0.71c33.41-124.11-61.7-324.57-62.66-326.58l2.94-1.21
								C2457.35,2039.08,2552.91,2240.47,2519.23,2365.57z"/>
							<path fill="#FCFDFE" d="M2458.62,2720.28l-3.19-0.37c12.05-86.79,163.3-179.86,164.82-180.79l1.77,2.49
								C2620.5,2542.52,2470.48,2634.85,2458.62,2720.28z"/>
							<path fill="#FCFDFE" d="M2456.38,2770.06l-3.21,0.15c-3.07-57.03-40.17-133.23-104.46-214.56c-3.23-4.09-3.23-4.09-3.27-4.65
								l3.21-0.19l-1.61,0.09l1.45-0.64c0.18,0.3,1.4,1.84,2.82,3.63C2415.96,2635.68,2453.27,2712.45,2456.38,2770.06z"/>
							<path fill="#FCFDFE" d="M2459.41,2933.94l-3.12-0.7c16.17-61.11,107.4-100.83,108.32-101.22l1.35,2.7
								C2565.05,2835.1,2475.21,2874.22,2459.41,2933.94z"/>
							<path fill="#FCFDFE" d="M2456.65,2967.38c-22.21-46.33-59.51-88.25-114.05-128.15l2-2.34c54.96,40.21,92.57,82.49,115,129.27
								L2456.65,2967.38z"/>
							<path fill="#FCFDFE" d="M2637.28,2090.91l-3.07-0.88c22.73-68.05,29.58-144.39,31.83-169.48c0.55-6.07,0.74-8.21,0.95-8.94
								l3.11,0.76c-0.15,0.56-0.46,4.03-0.86,8.43C2666.98,1945.96,2660.11,2022.55,2637.28,2090.91z"/>
							<path fill="#FCFDFE" d="M2582.66,2196.52l-2.66-1.68c40.65-55.2,182.43-79.73,188.44-80.75l0.57,2.93
								C2767.56,2117.27,2622.55,2142.34,2582.66,2196.52z"/>
						</g>
					</g>
				</g>
				<g>
					
						<linearGradient id="SVGID_52_" gradientUnits="userSpaceOnUse" x1="-2138.0627" y1="1911.9648" x2="-1576.4229" y2="2836.5686" gradientTransform="matrix(-0.9997 0.0246 0.0246 0.9997 510.0904 335.1722)">
						<stop  offset="0" style="stop-color:#FF9085"/>
						<stop  offset="1" style="stop-color:#FB6FBB"/>
					</linearGradient>
					<path fill="url(#SVGID_52_)" d="M2334.2,3132.63c-11.06-1.11-53.11,98.89-87.07,26.86c-8.48-17.99-19.23-80.72-101.01-81.51
						c-15.87-0.15-31.75-0.31-47.62-0.46c-14.57-35.27-21.76-71.22,26.01-86.11c74.19-23.12,71.04-147.85,48.71-191.43
						c-27.63-53.94-89.26-180.77,24.81-218.22c94.97-31.18,163.2-32.9,165.27-149.99c2.07-117.09,66.71-191.76,179.21-187.67
						c118.39,4.3,209.32-146.7,308.05-99.49c172.04,82.27,29.57,343.82-172.49,423.7c-202.06,79.88-81.66,146.68-72.32,242.22
						c0.36,8.92,0.24,22.77-3.01,39.1c-20,100.5-123.87,120.41-196.36,204.15C2307.53,3167.97,2352.84,3134.5,2334.2,3132.63z"/>
					<g>
						<defs>
							<path id="SVGID_53_" d="M2365.79,3100.69l-257.41,4.66c-16.08-34.15-37.23-97.31,16.13-113.94
								c74.19-23.12,71.04-147.85,48.71-191.43c-27.63-53.94-89.26-180.77,24.81-218.22c94.97-31.18,163.2-32.9,165.27-149.99
								c2.07-117.09,66.71-191.76,179.21-187.67c118.39,4.3,209.31-146.7,308.05-99.49c172.04,82.26,29.57,343.82-172.49,423.7
								c-202.06,79.88-81.66,146.68-72.32,242.22c12.76,130.43-175.26,107.29-222.59,159.87
								C2346.08,3011.61,2355.47,3066.94,2365.79,3100.69z"/>
						</defs>
						<clipPath id="SVGID_54_">
							<use xlink:href="#SVGID_53_"  overflow="visible"/>
						</clipPath>
						<g opacity="0.5" clip-path="url(#SVGID_54_)">
							<path fill="#FCFDFE" d="M2243.39,3064.63l-5.51-0.92c66.85-379.43,328.69-724.41,683.35-900.29l2.63,4.67
								C2570.7,2343.24,2309.96,2686.77,2243.39,3064.63z"/>
							<path fill="#FCFDFE" d="M2298.63,2860.9l-5.58,0.13c-5.48-151.39-146.93-266.35-148.36-267.49l3.58-4.01
								C2149.72,2590.68,2293.06,2707.12,2298.63,2860.9z"/>
							<path fill="#FCFDFE" d="M2257.7,2995.17l-5-2.39c72.25-136.8,366.73-162.49,369.7-162.73l0.54,5.25
								C2620.01,2835.54,2328.58,2860.97,2257.7,2995.17z"/>
							<path fill="#FCFDFE" d="M2484.83,2528.55l-5.19-1.98c47.24-112.84-36.14-283.01-36.99-284.72l5.04-2.2
								C2448.55,2241.37,2532.95,2413.62,2484.83,2528.55z"/>
							<path fill="#FCFDFE" d="M2656.29,2346.81l-3.08-4.42c122.48-75.43,317.7-39.61,319.66-39.24l-1.04,5.17
								C2969.89,2307.94,2776.86,2272.55,2656.29,2346.81z"/>
						</g>
					</g>
				</g>
			</g>
		</g>
		<g>
			<g>
				<linearGradient id="SVGID_55_" gradientUnits="userSpaceOnUse" x1="641.6101" y1="1507.8977" x2="1435.9685" y2="1507.8977">
					<stop  offset="0" style="stop-color:#311944"/>
					<stop  offset="1" style="stop-color:#893976"/>
				</linearGradient>
				<path fill="url(#SVGID_55_)" d="M1435.97,1246.77c0-25.97-22.21-47.11-49.54-47.23l-691.33-2.98
					c-29.2-0.13-53.49,21.63-53.49,48.57v526.58c0,26.94,24.21,48.2,53.41,47.5l15.81-0.42l0.74-1.17l674.34-23.81
					c27.33-0.66,50.05-13.41,50.05-39.38V1246.77z M827.35,1311.52c-25.34,0.02-45.92-19.02-45.92-42.53
					c0-23.51,20.58-42.5,45.92-42.43c25.28,0.08,45.73,19.12,45.73,42.53S852.63,1311.5,827.35,1311.52z M1046.11,1311.33
					c-24.83,0.02-45.01-18.83-45.01-42.1c0-23.27,20.18-42.08,45.01-42.01c24.78,0.07,44.82,18.92,44.82,42.1
					C1090.93,1292.5,1070.88,1311.31,1046.11,1311.33z M1260.54,1311.14c-24.34,0.02-44.12-18.64-44.12-41.69
					s19.78-41.66,44.12-41.59c24.29,0.07,43.94,18.74,43.94,41.68C1304.48,1292.5,1284.83,1311.12,1260.54,1311.14z"/>
				<linearGradient id="SVGID_56_" gradientUnits="userSpaceOnUse" x1="659.172" y1="1281.2201" x2="1450.8329" y2="1281.2201">
					<stop  offset="0" style="stop-color:#FF9085"/>
					<stop  offset="1" style="stop-color:#FB6FBB"/>
				</linearGradient>
				<path fill="url(#SVGID_56_)" d="M1450.83,1340.3v-94.06c0-25.95-21.6-46.53-48.89-46.65l-689.7-2.98
					c-12.29-0.05-23.76,3.55-32.76,10.05c-12.29,8.86-20.31,22.43-20.31,37.96v121.22L1450.83,1340.3z M1276.06,1227.91
					c24.25,0.07,43.89,18.71,43.89,41.67c0,22.93-19.64,41.53-43.89,41.55c-24.3,0.02-44.07-18.62-44.07-41.64
					C1231.99,1246.44,1251.76,1227.84,1276.06,1227.91z M1061.94,1227.27c24.73,0.07,44.77,18.9,44.77,42.08
					c0,23.16-20.03,41.94-44.77,41.96c-24.79,0.02-44.95-18.8-44.95-42.06C1016.99,1245.98,1037.15,1227.2,1061.94,1227.27z
					 M843.5,1226.61c25.24,0.08,45.67,19.09,45.67,42.51c0,23.39-20.44,42.36-45.67,42.38c-25.29,0.02-45.86-18.99-45.86-42.48
					C797.64,1245.51,818.21,1226.54,843.5,1226.61z"/>
				<path fill="#FFFFFF" d="M659.17,1338.3v432.96c0,26.91,22.85,48.23,52,47.53l690.37-16.47c27.29-0.65,49.29-22.19,49.29-48.15
					v-417.59L659.17,1338.3z"/>
				<g>
					<path fill="#BFC8D6" d="M1167.39,1409.53c0-6.11-4.64-11.03-11.13-11l-68.63,0.38c-6.54,0.03-14.68,5.09-14.68,11.22v61.93
						c0,6.14,8.46,11.02,14.99,10.96l66.73-0.61c6.49-0.06,12.72-5.09,12.72-11.2V1409.53z"/>
					<path fill="#BFC8D6" d="M1288.17,1408.86c0-6.08-5.39-10.96-11.81-10.93l-64.74,0.35c-6.47,0.03-11.39,5.03-11.39,11.14v61.6
						c0,6.1,4.83,10.99,11.3,10.93l65.03-0.59c6.42-0.06,11.61-5.05,11.61-11.13V1408.86z"/>
					<path fill="#BFC8D6" d="M1409.99,1408.21c0-6.04-5.64-10.9-11.99-10.87l-64.73,0.3c-6.39,0.03-11.98,4.96-11.98,11.02v61.25
						c0,6.07,5.34,10.97,11.74,10.91l64.89-0.56c6.35-0.06,12.07-5,12.07-11.04V1408.21z"/>
					<path fill="#BFC8D6" d="M1167.39,1522.37c0-6.11-4.64-11.01-11.13-10.94l-68.63,0.71c-6.54,0.07-14.68,5.13-14.68,11.27v61.93
						c0,6.14,8.46,11.01,14.99,10.92l66.73-0.94c6.49-0.09,12.72-5.14,12.72-11.25V1522.37z"/>
					<linearGradient id="SVGID_57_" gradientUnits="userSpaceOnUse" x1="1200.2271" y1="1552.3827" x2="1288.172" y2="1552.3827">
						<stop  offset="0" style="stop-color:#FF9085"/>
						<stop  offset="1" style="stop-color:#FB6FBB"/>
					</linearGradient>
					<path fill="url(#SVGID_57_)" d="M1288.17,1521.09c0-6.08-5.39-10.94-11.81-10.88l-64.74,0.68
						c-6.47,0.07-11.39,5.09-11.39,11.19v61.6c0,6.1,4.83,10.96,11.3,10.87l65.03-0.93c6.42-0.09,11.61-5.1,11.61-11.18V1521.09z"/>
					<path fill="#BFC8D6" d="M1409.99,1519.8c0-6.04-5.64-10.88-11.99-10.82l-64.73,0.63c-6.39,0.06-11.98,5.01-11.98,11.08v61.25
						c0,6.07,5.34,10.95,11.74,10.86l64.89-0.89c6.35-0.09,12.07-5.05,12.07-11.09V1519.8z"/>
					<path fill="#BFC8D6" d="M796.92,1526.4c0-6.22-5.92-11.23-12.64-11.16l-67.58,0.64c-6.77,0.07-11.76,5.13-11.76,11.38v63.02
						c0,6.24,4.76,11.27,11.52,11.17l68.19-0.91c6.72-0.09,12.27-5.17,12.27-11.38V1526.4z"/>
					<path fill="#BFC8D6" d="M921.71,1524.98c0-6.18-4.85-11.13-11.49-11.06l-68.25,0.69c-6.69,0.07-13.07,5.16-13.07,11.37v62.65
						c0,6.21,6.65,11.16,13.34,11.07l67.37-0.95c6.64-0.09,12.11-5.19,12.11-11.37V1524.98z"/>
					<path fill="#BFC8D6" d="M1044.01,1523.81c0-6.15-4.99-11.13-11.56-11.06l-68.31,0.66c-6.61,0.07-13.75,5.11-13.75,11.29v62.3
						c0,6.17,7.3,11.09,13.91,10.99l67.18-0.89c6.57-0.09,12.53-5.1,12.53-11.25V1523.81z"/>
					<path fill="#BFC8D6" d="M1167.39,1635.21c0-6.11-4.64-10.98-11.13-10.88l-68.63,1.04c-6.54,0.1-14.68,5.18-14.68,11.32v61.93
						c0,6.14,8.46,10.99,14.99,10.87l66.73-1.28c6.49-0.13,12.72-5.19,12.72-11.3V1635.21z"/>
					<path fill="#BFC8D6" d="M1288.17,1633.31c0-6.08-5.39-10.92-11.81-10.82l-64.74,1.02c-6.47,0.1-11.39,5.14-11.39,11.24v61.6
						c0,6.1,4.83,10.94,11.3,10.81l65.03-1.26c6.42-0.12,11.61-5.15,11.61-11.23V1633.31z"/>
					<path fill="#BFC8D6" d="M796.92,1641.18c0-6.22-5.92-11.19-12.64-11.09l-67.58,1c-6.77,0.1-11.76,5.2-11.76,11.44v63.02
						c0,6.24,4.76,11.24,11.52,11.11l68.19-1.27c6.72-0.13,12.27-5.24,12.27-11.45V1641.18z"/>
					<path fill="#BFC8D6" d="M921.71,1639.11c0-6.18-4.85-11.1-11.49-11l-68.25,1.04c-6.69,0.1-13.07,5.22-13.07,11.43v62.65
						c0,6.21,6.65,11.13,13.34,11.01l67.37-1.3c6.64-0.13,12.11-5.25,12.11-11.43V1639.11z"/>
					<path fill="#BFC8D6" d="M1044.01,1637.29c0-6.15-4.99-11.1-11.56-11l-68.31,1.01c-6.61,0.1-13.75,5.17-13.75,11.34v62.3
						c0,6.17,7.3,11.06,13.91,10.94l67.18-1.23c6.57-0.13,12.53-5.16,12.53-11.31V1637.29z"/>
				</g>
				<path fill="#BFC8D6" d="M839.24,1112.77c-42.51-0.35-77.6,34.79-80.98,84.05l35.8,0.16c2.92-29.5,22.44-52.03,45.18-51.88
					c24.62,0.17,45.38,27.25,45.38,59.31c0,32.05-20.76,59.04-45.38,59.01c-12.81-0.02-24.58-7.4-32.97-18.96
					c-4.86,6.7-13.22,22.01-5.3,40.36c11.42,6.93,24.45,10.86,38.27,10.86c44.56-0.01,80.68-40.82,80.68-91.13
					C919.92,1154.24,883.8,1113.14,839.24,1112.77z"/>
				<path fill="#BFC8D6" d="M1057.39,1114.45c-41.69-0.34-76.08,34.46-79.41,83.23l35.1,0.15c2.87-29.21,22-51.53,44.3-51.38
					c24.15,0.16,44.5,26.98,44.5,58.73c0,31.74-20.36,58.47-44.5,58.43c-12.56-0.02-24.11-7.33-32.32-18.77
					c-4.76,6.64-12.96,21.8-5.2,39.97c11.2,6.86,23.98,10.76,37.52,10.75c43.69-0.01,79.11-40.42,79.11-90.24
					C1136.5,1155.51,1101.08,1114.81,1057.39,1114.45z"/>
				<path fill="#BFC8D6" d="M1271.97,1116.32c-40.85-0.33-74.56,34.12-77.81,82.39l34.4,0.15c2.81-28.92,21.56-51.01,43.41-50.86
					c23.66,0.16,43.61,26.71,43.61,58.13c0,31.42-19.95,57.88-43.61,57.85c-12.31-0.02-23.62-7.25-31.68-18.58
					c-4.66,6.57-12.7,21.58-5.09,39.56c10.97,6.79,23.49,10.65,36.77,10.65c42.82-0.01,77.53-40.01,77.53-89.33
					C1349.5,1156.96,1314.79,1116.67,1271.97,1116.32z"/>
				<path opacity="0.2" fill="#BFC8D6" d="M1450.83,1737.1v17.09c0,25.95-21.6,47.5-48.89,48.15l-690.38,16.45
					c-29.15,0.7-52.4-20.61-52.4-47.52v-526.65c0-15.53,7.82-29.36,20.11-38.22c26.76,8.42,61.29,33.48,79.01,104.33
					c31.3,125.08,58.29,178.2,179.87,172.14c78.27-3.9,138.59-2.07,176.32,30.51c20.29,17.5,34.12,43.95,40.68,83.24
					c3.84,23,21.05,37.34,45.66,47.6c24.14,10.1,55.56,16.28,88.33,22.98C1349.52,1679.52,1417.41,1693.56,1450.83,1737.1z"/>
			</g>
			<g>
				<path fill="#FFFFFF" d="M1231.16,1578.22c-0.66,0.06-1.32-0.07-1.89-0.41l-15.57-9.47c-1.44-0.88-1.77-2.81-0.72-4.31
					c1.05-1.5,3.07-2.01,4.51-1.13l13.23,8.06l37.8-43.91c1.19-1.38,3.21-1.66,4.51-0.61c1.3,1.04,1.39,3.01,0.2,4.39l-39.7,46.16
					C1232.91,1577.71,1232.04,1578.14,1231.16,1578.22z"/>
			</g>
		</g>
		<g>
			<g>
				
					<linearGradient id="SVGID_58_" gradientUnits="userSpaceOnUse" x1="4071.2478" y1="631.7631" x2="4218.4009" y2="868.3469" gradientTransform="matrix(-1 0 0 1 5784 0)">
					<stop  offset="0" style="stop-color:#311944"/>
					<stop  offset="1" style="stop-color:#893976"/>
				</linearGradient>
				<path fill="url(#SVGID_58_)" d="M1481.36,673.2l275.43-14.83c22.69-1.22,41.17,15.48,41.17,37.31V846.6
					c0,21.83-18.49,39.98-41.17,40.54l-90.05,2.22l-42.02,49.66c-2.53,2.99-6.97,3.48-10.09,1.11l0,0l-40.41-48.49l-92.86,2.29
					c-21,0.52-37.94-15.96-37.94-36.81V712.99C1443.42,692.15,1460.36,674.34,1481.36,673.2z"/>
				<linearGradient id="SVGID_59_" gradientUnits="userSpaceOnUse" x1="1654.5836" y1="654.3575" x2="1459.5031" y2="1254.0483">
					<stop  offset="0" style="stop-color:#AA80F9"/>
					<stop  offset="0.9964" style="stop-color:#6165D7"/>
				</linearGradient>
				<path fill="url(#SVGID_59_)" d="M1475.87,668.82l275.43-14.83c22.69-1.22,41.17,15.48,41.17,37.31v150.92
					c0,21.83-18.49,39.98-41.17,40.54l-90.05,2.22l-41,48.45c-2.92,3.45-8.22,3.49-11.19,0.08l-40.34-46.25l-92.86,2.29
					c-21,0.52-37.94-15.96-37.94-36.81V708.61C1437.94,687.76,1454.87,669.95,1475.87,668.82z"/>
			</g>
			<g>
				<path fill="#FFFFFF" d="M1608.73,780.36c-0.84,0.62-1.64,0.94-2.58,0.99c-1,0.05-1.78-0.24-2.65-0.84l-104.26-72.59v137.99
					c0,2.62,2.05,4.65,4.76,4.52l203.97-9.79c2.68-0.13,4.5-2.34,4.5-4.95V703.79L1608.73,780.36z"/>
				<path fill="#FFFFFF" d="M1606.39,767.82l103.74-76.33c-0.59-0.23-1.25-0.34-1.94-0.31l-199.38,8.81L1606.39,767.82z"/>
			</g>
		</g>
	</g>
</g>
</svg>
