<?xml version="1.0" encoding="utf-8"?>
<!-- Generator: Adobe Illustrator 24.0.1, SVG Export Plug-In . SVG Version: 6.00 Build 0)  -->
<svg version="1.1" xmlns="http://www.w3.org/2000/svg" xmlns:xlink="http://www.w3.org/1999/xlink" x="0px" y="0px"
	 viewBox="0 0 500 500" style="enable-background:new 0 0 500 500;" xml:space="preserve">
<style type="text/css">
	@keyframes to_down {
		from {
			transform: translateY(0);
		}
		to {
			transform: translateY(20px);
		}
	}
	.to_down {
		animation: 1s to_down ease infinite alternate;
	}
	.st0{fill:#EBEBEB;}
	.st1{fill:#F5F5F5;}
	.st2{fill:#E0E0E0;}
	.st3{display:none;}
	.st4{display:inline;fill:#EBEBEB;}
	.st5{fill:#FAFAFA;}
	.st6{fill:#263238;}
	.st7{fill:#455A64;}
	.st8{fill:#77DB44;}
	.st9{opacity:0.3;fill:#77DB44;}
	.st10{fill:#94FF5E;}
	.st11{opacity:0.3;fill:#94FF5E;}
	.st12{opacity:0.3;}
	.st13{fill:#FF725E;}
	.st14{fill:#FFBE9D;}
	.st15{fill:#EB996E;}
	.st16{fill:#FFFFFF;}
</style>
<g id="Background_Complete">
	<polygon class="st0 to_down" points="293.5,395 293.5,428.2 282.1,428.2 306.7,456.8 329.7,428.7 318.1,428.7 318.1,395 	"/>
	<polygon class="st0 to_down" points="337,145 337,156.7 333,156.7 341.6,166.8 349.7,156.9 345.6,156.9 345.6,145 	"/>
	<polygon class="st0 to_down" points="440.7,253.4 440.7,277.3 432.5,277.3 450.2,298 466.9,277.8 458.5,277.8 458.5,253.4 	"/>
	<polygon class="st0 to_down" points="60.8,350.3 60.8,374.3 52.6,374.3 70.4,395 87,374.7 78.6,374.7 78.6,350.3 	"/>
	<polygon class="st0 to_down" points="208.3,389.5 208.3,407.4 202.2,407.4 215.4,422.9 227.9,407.7 221.6,407.7 221.6,389.5 	"/>
	<g>
		<g>
			<g>
				<path class="st1" d="M168.3,96.7c0.8-6.1-7.8-11.1-14.2-11.6c-3.1-0.2-6.3,0.2-9.2-0.8c-6.3-2.2-8.8-10.4-15-13
					c-4.6-1.9-9.9-0.2-14.4,2c-4.5,2.2-8.9,5.1-13.9,5.4c-4.3,0.3-9.1-1.3-12.9,0.8c-2.8,1.6-4.3,4.8-6.9,6.8
					c-2.6,1.9-5.9,2.3-9.1,2.5c-3.2,0.2-6.4,0.2-9.3,1.5c-2.9,1.3-5.3,4.4-4.7,7.5L168.3,96.7z"/>
			</g>
		</g>
	</g>
	<g>
		<g>
			<g>
				<path class="st1" d="M468.5,210.3c0.7-5.3-6.7-9.7-12.4-10.1c-2.7-0.2-5.5,0.2-8-0.7c-5.5-1.9-7.7-9-13.1-11.3
					c-4-1.7-8.6-0.2-12.5,1.8c-3.9,2-7.7,4.4-12.1,4.7c-3.8,0.2-7.9-1.2-11.2,0.7c-2.5,1.4-3.8,4.2-6,5.9c-2.2,1.6-5.1,2-7.9,2.1
					c-2.8,0.2-5.6,0.2-8.1,1.3c-2.5,1.1-4.6,3.8-4.1,6.5L468.5,210.3z"/>
			</g>
		</g>
	</g>
	<g>
		<g>
			<g>
				<path class="st2" d="M223.7,49c0.4-2.6-3.3-4.7-6-4.9c-1.3-0.1-2.7,0.1-3.9-0.3c-2.7-0.9-3.8-4.4-6.4-5.5
					c-2-0.8-4.2-0.1-6.1,0.9c-1.9,1-3.8,2.2-5.9,2.3c-1.8,0.1-3.9-0.6-5.5,0.3c-1.2,0.7-1.8,2.1-2.9,2.9c-1.1,0.8-2.5,1-3.9,1
					c-1.3,0.1-2.7,0.1-4,0.6c-1.2,0.6-2.2,1.9-2,3.2L223.7,49z"/>
			</g>
		</g>
	</g>
	<g>
		<g>
			<g>
				<path class="st2" d="M463.7,432.7c0.7-4.8-6.1-8.7-11.1-9.1c-2.4-0.2-4.9,0.2-7.2-0.6c-4.9-1.7-6.9-8.1-11.7-10.1
					c-3.6-1.5-7.8-0.2-11.3,1.6c-3.5,1.8-7,4-10.9,4.2c-3.4,0.2-7.1-1-10.1,0.6c-2.2,1.2-3.4,3.8-5.4,5.3c-2,1.5-4.6,1.8-7.1,1.9
					c-2.5,0.1-5,0.2-7.3,1.2c-2.3,1-4.1,3.4-3.7,5.9L463.7,432.7z"/>
			</g>
		</g>
	</g>
</g>
<g id="Background_Simple" class="st3">
	<path class="st4" d="M433.2,359c17.3,0.9,24.4,15.5,24.5,30.9c0.1,15.5-9.8,29.8-22.9,38.1c-13.1,8.3-28.9,11.2-44.4,11.6
		c-13.3,0.4-27.5-1.4-37.5-10.1c-10-8.7-12.9-26.3-2.9-34.9c9.6-8.2,26.9-4.4,39.2-7.5c10.2-2.5,13.9-8.5,18.7-15.4
		c4.2-5.9,10.2-10.2,17.2-12C427.6,359.2,430.4,358.8,433.2,359z"/>
	<path class="st4" d="M120.9,381.2c-0.9,17.1-15.2,24-30.5,24.1c-15.2,0.1-29.4-9.7-37.5-22.5c-8.1-12.9-11-28.5-11.4-43.7
		c-0.4-13,1.4-27.1,9.9-36.9c8.6-9.8,25.9-12.7,34.4-2.8c8.1,9.4,4.3,26.5,7.3,38.6c2.5,10,8.4,13.6,15.1,18.4
		c5.8,4.1,10.1,10,11.8,16.9C120.7,375.7,121,378.4,120.9,381.2z"/>
	
		<ellipse transform="matrix(0.162 -0.9868 0.9868 0.162 123.173 556.9434)" class="st4" cx="389.5" cy="205.9" rx="36.2" ry="36.2"/>
</g>
<g id="Speech_Bubble">
	<g>
		<g>
			<g>
				<path class="st5" d="M212.6,143.2l-7.7-13.6c3.4-5.5,5.4-12.1,5.4-19c0-20.1-16.3-36.4-36.4-36.4c-20.1,0-36.4,16.3-36.4,36.4
					c0,20.1,16.3,36.4,36.4,36.4c8.4,0,16.1-2.8,22.3-7.6l0,0L212.6,143.2z"/>
				<g>
					<path class="st6" d="M212.6,143.2c-0.9-0.2-6-1.4-16.5-3.7l-0.2,0l0.1-0.2l0,0l0.2,0.2c-4.1,3.2-10,6.4-17.5,7.4
						c-1.8,0.2-3.8,0.4-5.8,0.3c-1-0.1-2-0.1-3-0.2c-1-0.2-2-0.3-3.1-0.5c-4.1-0.8-8.3-2.4-12.3-4.8c-3.9-2.4-7.6-5.7-10.5-9.8
						c-2.9-4-5.1-8.8-6.2-14.1c-1-5.2-0.9-10.8,0.4-16.2c1.4-5.4,4-10.6,7.8-15c3.9-4.4,8.7-8,14-10c5.3-2.1,10.9-2.9,16.3-2.5
						c5.4,0.4,10.6,1.9,15,4.4c4.4,2.5,8.2,5.8,11.1,9.5c2.9,3.7,4.9,7.8,6.2,11.8c1.3,4.1,1.6,8.1,1.6,11.8
						c-0.2,7.5-2.7,13.7-5.4,18l0-0.1C209.8,138.3,212.2,142.5,212.6,143.2c-0.4-0.8-2.8-4.9-7.8-13.5l0-0.1l0-0.1
						c2.7-4.3,5.1-10.5,5.3-17.9c0-3.7-0.4-7.7-1.6-11.7c-1.3-4-3.3-8-6.2-11.6c-2.9-3.6-6.6-6.9-11-9.3c-4.4-2.5-9.5-4-14.8-4.3
						c-5.3-0.4-10.9,0.4-16.1,2.5c-5.2,2-10,5.5-13.8,9.9c-3.8,4.3-6.3,9.5-7.7,14.8c-1.4,5.3-1.4,10.8-0.4,16
						c1,5.1,3.2,9.9,6.1,13.9c2.9,4,6.5,7.3,10.3,9.7c3.9,2.4,8,4,12.1,4.8c1,0.2,2,0.3,3,0.5c1,0.1,2,0.1,3,0.2
						c2,0.1,3.9,0,5.7-0.3c7.4-1,13.2-4,17.3-7.2l0.8-0.6l-0.6,0.8l0,0l-0.1-0.2C206.6,141.8,211.7,143,212.6,143.2z"/>
				</g>
			</g>
		</g>
		<g>
			<path class="st6" d="M184.5,130.6H161c-1.1,0-2.1-0.9-2.1-2.1V93.7c0-1.1,0.9-2.1,2.1-2.1h23.6c1.1,0,2.1,0.9,2.1,2.1v34.8
				C186.6,129.7,185.7,130.6,184.5,130.6z"/>
			<rect x="160.2" y="94" class="st5" width="25" height="29.1"/>
			<circle class="st7" cx="172.7" cy="126.8" r="2.1"/>
			<polygon class="st8" points="176.3,102.9 185.5,113.8 194.1,102.9 189.6,102.9 189.6,87.9 180.7,87.8 180.8,102.9 			"/>
			<g>
				<path class="st6" d="M176.8,107c0.1,0.1-1.7,2.1-3.9,4.5c-2.3,2.4-4.2,4.2-4.3,4.1c-0.1-0.1,1.7-2.1,3.9-4.5
					C174.8,108.7,176.7,106.9,176.8,107z"/>
			</g>
			<g>
				<path class="st6" d="M175,105.7c0.1,0.1-0.9,1.2-2.2,2.5c-1.3,1.3-2.4,2.2-2.5,2.1c-0.1-0.1,0.9-1.2,2.2-2.5
					C173.8,106.5,174.9,105.6,175,105.7z"/>
			</g>
		</g>
	</g>
</g>
<g id="Cloud_3">
	<g>
		<g>
			<g>
				<polygon class="st8" points="402.4,102.2 402.4,119.1 396.6,119.1 409.1,133.7 420.9,119.4 414.9,119.4 414.9,102.2 				"/>
				<polygon class="st9" points="402.4,102.2 402.4,119.1 396.6,119.1 409.1,133.7 420.9,119.4 414.9,119.4 414.9,102.2 				"/>
			</g>
			<path class="st10" d="M443.2,64.5c-3.7-14.5-16.9-25.3-32.6-25.3c-10.6,0-20.1,4.9-26.3,12.6c-1.1-0.1-2.1-0.2-3.2-0.2
				c-15.4,0-28,12.5-28,28c0,15.4,12.5,28,28,28h60.9c11.9,0,21.6-9.7,21.6-21.6C463.6,74.5,454.6,65.1,443.2,64.5z"/>
			<g>
				<path class="st6" d="M449.7,100.1c-0.1-0.1,1.2-0.8,2.8-2.4c1.6-1.6,3.5-4.1,4.7-7.4c1.2-3.3,1.3-6.5,1.1-8.7
					c-0.2-2.3-0.7-3.6-0.6-3.6c0,0,0.2,0.3,0.4,0.9c0.2,0.6,0.4,1.5,0.6,2.7c0.3,2.3,0.2,5.6-1,8.9c-1.2,3.3-3.3,5.9-5,7.5
					c-0.8,0.8-1.6,1.3-2.1,1.7C450,99.9,449.7,100.1,449.7,100.1z"/>
			</g>
			<g>
				<path class="st6" d="M385.2,60c0,0.1-1.5-0.3-4-0.4c-2.5-0.1-6,0.3-9.5,1.9c-3.5,1.5-6.2,3.8-7.8,5.7c-1.7,1.9-2.4,3.3-2.5,3.2
					c0,0,0.1-0.4,0.5-1c0.4-0.6,0.9-1.5,1.7-2.5c1.6-2,4.3-4.4,7.9-6c3.6-1.6,7.2-1.9,9.7-1.7c1.3,0.1,2.3,0.2,3,0.4
					C384.8,59.9,385.2,60,385.2,60z"/>
			</g>
			<g>
				<path class="st6" d="M404,46.2c0,0.1-1.1,0.2-2.8,0.6c-1.7,0.4-4,1.4-6.2,3c-2.2,1.6-3.8,3.5-4.7,5c-1,1.5-1.4,2.5-1.5,2.5
					c0,0,0-0.3,0.2-0.8c0.2-0.5,0.5-1.1,0.9-1.9c0.4-0.8,1.1-1.7,1.9-2.6c0.8-0.9,1.8-1.8,2.9-2.6c1.1-0.8,2.3-1.4,3.4-1.9
					c1.1-0.5,2.2-0.8,3-1c0.9-0.2,1.6-0.3,2.1-0.3C403.8,46.2,404,46.2,404,46.2z"/>
			</g>
			<g>
				<path class="st6" d="M430.2,107.4c0,0.1-8.2,0.3-18.4,0.3c-10.1,0-18.4-0.1-18.4-0.3s8.2-0.3,18.4-0.3
					C422,107.1,430.2,107.2,430.2,107.4z"/>
			</g>
		</g>
		<g>
			<path class="st6" d="M432.3,157.8c-0.1,0-0.3-6.7-0.3-15c0-8.3,0.1-15,0.3-15c0.1,0,0.3,6.7,0.3,15
				C432.6,151,432.4,157.8,432.3,157.8z"/>
		</g>
		<g>
			<path class="st6" d="M438.2,170.9c-0.1,0-0.3-8.7-0.3-19.4c0-10.7,0.1-19.4,0.3-19.4c0.1,0,0.3,8.7,0.3,19.4
				C438.4,162.2,438.3,170.9,438.2,170.9z"/>
		</g>
	</g>
</g>
<g id="Cloud_2">
	<g>
		<polygon class="st8" points="243.3,362.7 243.3,411.2 226.6,411.2 262.5,453 296.2,412 279.2,412 279.2,362.7 		"/>
		<polygon class="st11" points="243.3,362.7 243.3,411.2 226.6,411.2 262.5,453 296.2,412 279.2,412 279.2,362.7 		"/>
		<path class="st10" d="M360.3,254.6c-10.7-41.6-48.4-72.4-93.4-72.4c-30.5,0-57.6,14.2-75.3,36.2c-3.1-0.4-6.1-0.6-9.3-0.6
			c-44.3,0-80.2,35.9-80.2,80.2s35.9,80.2,80.2,80.2h174.6c34.2,0,61.9-27.7,61.9-61.9C418.8,283.3,392.9,256.3,360.3,254.6z"/>
		<g>
			<path class="st10" d="M202.1,269.2c0,0,0-0.2-0.1-0.5c0-0.4-0.1-0.9-0.1-1.5c0-0.3,0-0.7-0.1-1.1c0-0.4-0.1-0.8-0.2-1.3
				c-0.1-0.9-0.2-2-0.5-3.1c-0.1-0.6-0.2-1.2-0.4-1.8c-0.1-0.6-0.3-1.3-0.5-1.9c-0.3-1.3-0.8-2.7-1.3-4.2c-1.1-2.9-2.6-6-4.5-9
				c-1.9-3-4.1-5.7-6.2-7.9c-1.1-1.1-2.1-2.1-3.2-3c-0.5-0.4-1-0.9-1.5-1.3c-0.5-0.4-1-0.7-1.5-1.1c-0.9-0.7-1.9-1.3-2.6-1.8
				c-0.4-0.2-0.8-0.5-1.1-0.7c-0.3-0.2-0.7-0.4-1-0.5c-0.5-0.3-1-0.5-1.3-0.7c-0.3-0.2-0.5-0.3-0.4-0.3c0,0,0.2,0.1,0.5,0.2
				c0.4,0.2,0.8,0.4,1.4,0.7c0.3,0.1,0.6,0.3,1,0.5c0.4,0.2,0.7,0.4,1.1,0.7c0.8,0.5,1.8,1,2.7,1.7c0.5,0.3,1,0.7,1.5,1.1
				c0.5,0.4,1,0.8,1.6,1.3c1.1,0.9,2.2,1.9,3.3,3c2.2,2.3,4.4,4.9,6.3,8c1.9,3.1,3.4,6.2,4.5,9.2c0.5,1.5,1,2.9,1.3,4.3
				c0.2,0.7,0.4,1.3,0.5,2c0.1,0.6,0.2,1.2,0.3,1.8c0.2,1.2,0.3,2.2,0.4,3.2c0,0.5,0.1,0.9,0.1,1.3c0,0.4,0,0.8,0,1.1
				c0,0.6,0,1.1,0,1.5C202.2,269,202.2,269.2,202.1,269.2z"/>
		</g>
		<g>
			<path class="st10" d="M169.3,253.7c-0.1,0.1-1.1-1-3-2.4c-1.9-1.4-4.7-3.1-8.1-4.4c-3.4-1.3-6.6-1.8-9-2
				c-2.4-0.2-3.8-0.1-3.8-0.2c0,0,0.4-0.1,1-0.1c0.7-0.1,1.6-0.1,2.8,0c2.4,0.1,5.7,0.6,9.2,1.9c3.4,1.3,6.3,3.1,8.1,4.6
				c0.9,0.8,1.7,1.4,2.1,1.9C169.1,253.4,169.4,253.6,169.3,253.7z"/>
		</g>
		<g>
			<path class="st10" d="M206.1,322.1c0,0-0.6,0.1-1.6,0c-1,0-2.5,0-4.3-0.1c-3.6-0.1-8.7-0.4-14.2-1c-5.5-0.5-10.5-1.2-14.1-1.8
				c-1.8-0.3-3.3-0.5-4.3-0.7c-1-0.2-1.6-0.3-1.5-0.4c0,0,0.6,0,1.6,0.2c1.1,0.1,2.5,0.3,4.3,0.6c3.6,0.5,8.6,1.1,14.1,1.7
				c5.5,0.5,10.5,0.9,14.2,1.1c1.7,0.1,3.2,0.2,4.3,0.3C205.5,322,206.1,322.1,206.1,322.1z"/>
		</g>
		<g>
			<path class="st10" d="M357.7,254.1c0,0-0.2,0-0.6,0.1c-0.4,0-1,0.1-1.6,0.1c-0.7,0-1.6,0.1-2.5,0.2c-1,0.1-2.1,0.2-3.3,0.4
				c-0.6,0.1-1.3,0.2-1.9,0.3c-0.7,0.1-1.4,0.3-2.1,0.4c-1.4,0.3-3,0.7-4.6,1.1c-3.2,0.9-6.6,2.2-10,3.7c-3.4,1.6-6.6,3.5-9.3,5.3
				c-1.3,1-2.6,1.8-3.8,2.8c-0.6,0.5-1.1,0.9-1.7,1.3c-0.5,0.4-1,0.9-1.5,1.3c-1,0.8-1.7,1.6-2.5,2.3c-0.7,0.7-1.3,1.3-1.8,1.8
				c-0.5,0.5-0.8,0.9-1.1,1.2c-0.3,0.3-0.4,0.4-0.4,0.4c0,0,0.1-0.2,0.3-0.5c0.3-0.3,0.6-0.7,1-1.2c0.5-0.5,1-1.2,1.7-1.9
				c0.7-0.7,1.5-1.5,2.4-2.4c0.5-0.4,1-0.9,1.5-1.3c0.5-0.5,1.1-0.9,1.7-1.4c1.1-1,2.4-1.9,3.8-2.8c2.8-1.9,5.9-3.7,9.4-5.4
				c3.5-1.6,6.9-2.8,10.1-3.7c1.6-0.4,3.1-0.8,4.6-1.1c0.7-0.1,1.4-0.3,2.1-0.4c0.7-0.1,1.3-0.2,2-0.3c1.2-0.2,2.4-0.3,3.4-0.3
				c1-0.1,1.9-0.1,2.6-0.1c0.7,0,1.2,0,1.6,0C357.5,254.1,357.7,254.1,357.7,254.1z"/>
		</g>
		<g>
			<path class="st10" d="M352.8,378.7c0,0.1-38.6,0.3-86.3,0.3c-47.7,0-86.3-0.1-86.3-0.3c0-0.1,38.6-0.3,86.3-0.3
				C314.1,378.5,352.8,378.6,352.8,378.7z"/>
		</g>
		<g>
			<path class="st10" d="M144.3,413.4c-0.1,0-0.3-7.2-0.3-16.1c0-8.9,0.1-16.1,0.3-16.1c0.1,0,0.3,7.2,0.3,16.1
				C144.6,406.2,144.5,413.4,144.3,413.4z"/>
		</g>
		<g>
			<path class="st10" d="M150.9,443.2c-0.1,0-0.3-10.2-0.3-22.7c0-12.5,0.1-22.7,0.3-22.7s0.3,10.2,0.3,22.7
				C151.1,433,151,443.2,150.9,443.2z"/>
		</g>
	</g>
</g>
<g id="Cloud_1">
	<g>
		<g>
			<g>
				<polygon class="st8" points="62.2,188.1 62.2,198.5 58.6,198.5 66.3,207.4 73.5,198.6 69.9,198.6 69.9,188.1 				"/>
				<polygon class="st9" points="62.2,188.1 62.2,198.5 58.6,198.5 66.3,207.4 73.5,198.6 69.9,198.6 69.9,188.1 				"/>
			</g>
			<path class="st10" d="M87.2,165c-2.3-8.9-10.3-15.5-20-15.5c-6.5,0-12.3,3-16.1,7.7c-0.7-0.1-1.3-0.1-2-0.1
				c-9.5,0-17.1,7.7-17.1,17.1c0,9.5,7.7,17.1,17.1,17.1h37.3c7.3,0,13.2-5.9,13.2-13.2C99.7,171.1,94.2,165.4,87.2,165z"/>
			<g>
				<path class="st6" d="M91.2,186.8c0-0.1,0.7-0.6,1.6-1.5c1-1,2.1-2.5,2.8-4.5c0.7-2,0.8-3.9,0.7-5.3c-0.1-1.4-0.4-2.2-0.3-2.2
					c0.1,0,0.4,0.8,0.6,2.2c0.2,1.4,0.2,3.4-0.6,5.5c-0.7,2.1-2,3.7-3.1,4.6C92,186.5,91.2,186.8,91.2,186.8z"/>
			</g>
			<g>
				<path class="st6" d="M51.6,162.3c0,0.1-1-0.1-2.5-0.1c-1.5,0-3.6,0.2-5.8,1.2c-2.1,0.9-3.8,2.3-4.8,3.5c-1,1.1-1.5,2-1.6,1.9
					c-0.1,0,0.3-0.9,1.3-2.2c1-1.2,2.6-2.7,4.8-3.7c2.2-1,4.4-1.2,6-1C50.7,161.9,51.7,162.2,51.6,162.3z"/>
			</g>
			<g>
				<path class="st6" d="M63.2,153.8c0,0.1-0.7,0.2-1.7,0.4c-1,0.3-2.4,0.9-3.8,1.8c-1.3,1-2.3,2.1-2.9,3c-0.6,0.9-0.9,1.5-1,1.5
					c-0.1,0,0.1-0.7,0.6-1.7c0.5-1,1.5-2.2,2.9-3.3c1.4-1,2.9-1.6,4-1.8C62.5,153.7,63.2,153.7,63.2,153.8z"/>
			</g>
			<g>
				<path class="st6" d="M79.3,191.3c0,0.1-5,0.3-11.3,0.3c-6.2,0-11.3-0.1-11.3-0.3c0-0.1,5-0.3,11.3-0.3
					C74.2,191,79.3,191.1,79.3,191.3z"/>
			</g>
		</g>
		<g>
			<path class="st6" d="M80.5,222.1c-0.1,0-0.3-4.1-0.3-9.2c0-5.1,0.1-9.2,0.3-9.2s0.3,4.1,0.3,9.2C80.8,218,80.7,222.1,80.5,222.1z
				"/>
		</g>
		<g>
			<path class="st6" d="M84.1,230.2c-0.1,0-0.3-5.3-0.3-11.9c0-6.6,0.1-11.9,0.3-11.9c0.1,0,0.3,5.3,0.3,11.9
				C84.4,224.9,84.3,230.2,84.1,230.2z"/>
		</g>
	</g>
</g>
<g id="Character">
	<g class="st12">
		<path d="M382.5,286.7c-2-11.4-17.1-23-30.2-20.4c-11.4,2.3-23.6,4.9-34.8,7.7c-4.6,1.2-9.4-4.5-13.3-7.2c-2-1.5-3.2-3.8-4.5-6
			c-7.2-12.3-19.1-21.5-32.4-26.7c-13.3-5.1-27.9-6.4-42.1-4.8c-11,1.2-23,5-28.2,14.8c-2.1,3.9-2.9,8.7-6.1,11.8
			c-4.3,4.1-11,3.8-16.6,5.9c-11.1,4.2-16.7,20-15.3,31.8c1.4,11.8,11.9,26.9,33.9,29.4c0,0,79.7,0.7,119.1,2.6
			c13.6,0.7,17.8-1.2,31.4-1.6C367.5,323.4,386.1,307.6,382.5,286.7z"/>
	</g>
	<g>
		<g>
			<g>
				<path class="st2" d="M236,344c1.3-0.3,2.8-1.7,4-2.5c2.8-1.8,5.6-3.7,8.4-5.6c-10-2.9-18.5-5.2-28.4-8c-0.3,3.9,0,8.1,1.1,11.9
					c0.9,3.1,2.7,6.4,5.8,7.2c2.8,0.7,5.7-0.8,8.2-2.4c0.2-0.1,0.5-0.3,0.7-0.4"/>
				<g>
					<path class="st6" d="M237.7,338.5c-0.2,0-0.1-1.3-0.4-2.8c-0.3-1.5-0.9-2.7-0.8-2.8c0.1-0.1,1,1,1.3,2.6
						C238.2,337.2,237.8,338.6,237.7,338.5z"/>
				</g>
				<g>
					<path class="st6" d="M239.9,338c-0.1,0,0-1-0.2-2.2c-0.1-1.2-0.4-2.2-0.3-2.2c0.1-0.1,0.7,0.9,0.8,2.2
						C240.4,337,240,338.1,239.9,338z"/>
				</g>
				<g>
					<path class="st7" d="M226.7,329.8c0.1,0-0.2,1-0.2,2.7c0,1.7,0.3,4,1.6,6.2c1.3,2.2,2.7,4,4.1,5c1.3,1,2.4,1.2,2.4,1.3
						c0,0-0.3,0-0.7-0.1c-0.5-0.1-1.1-0.4-1.8-0.9c-1.5-0.9-3-2.8-4.3-5.1c-1.3-2.3-1.6-4.8-1.5-6.5c0.1-0.9,0.2-1.5,0.3-2
						C226.5,330.1,226.6,329.8,226.7,329.8z"/>
				</g>
				<g>
					<path class="st7" d="M234.5,332.1c0.1,0,1.2,2.5,1.6,5.8c0.5,3.3,0.1,6.1,0,6.1c-0.2,0-0.1-2.7-0.5-6
						C235.1,334.8,234.3,332.2,234.5,332.1z"/>
				</g>
				<g>
					<path class="st13" d="M232.2,342.8c0,0-0.7-0.4-1.6-1.3c-0.9-0.9-2.1-2.2-3-3.9c-0.9-1.8-1.1-3.6-0.9-4.8
						c0.2-1.3,0.6-2,0.7-1.9c0.1,0-0.2,0.8-0.3,2c-0.1,1.2,0.2,2.9,1,4.6c0.8,1.7,2,3,2.8,3.9C231.7,342.2,232.3,342.7,232.2,342.8z
						"/>
				</g>
				<g>
					<path class="st13" d="M246.2,337.3c0.1,0.1-1.5,1.1-3.5,2.2c-2,1.1-3.7,1.9-3.8,1.7c-0.1-0.1,1.5-1.1,3.5-2.2
						C244.5,338,246.1,337.2,246.2,337.3z"/>
				</g>
				<g>
					<path class="st7" d="M230.3,342.9c0.1,0.1-1.1,1.3-3,2c-2,0.7-3.6,0.4-3.6,0.3c0-0.2,1.6-0.1,3.4-0.8
						C228.9,343.8,230.2,342.8,230.3,342.9z"/>
				</g>
				<g>
					<path class="st7" d="M226.9,337.8c0,0.2-1.3,0.3-2.9,1c-1.5,0.7-2.6,1.6-2.7,1.5c-0.1-0.1,0.8-1.2,2.4-1.9
						C225.4,337.6,226.9,337.7,226.9,337.8z"/>
				</g>
				<g>
					<path class="st7" d="M226.2,333.2c-0.1,0.1-1.4-0.7-3.3-0.9c-1.9-0.3-3.4,0.1-3.4,0c-0.1-0.1,1.5-0.8,3.5-0.5
						C225,332.1,226.3,333.1,226.2,333.2z"/>
				</g>
			</g>
			<path class="st14" d="M302.8,318.8c0.1,0.1-37.5,9.2-37.5,9.2l-5.5-13l2.5-3.9c0,0,15.9-3.6,28.8-10.9L302.8,318.8z"/>
			<path class="st6" d="M214.6,281.9c0,0-1.7-2.5-9-6.1c-6-3-21.6-5.4-27.9,6.7c-6.3,12.2-1.5,30.8,9,34.8c10.5,4,27.9,9.4,35,11.7
				c7.1,2.3,30.6,8.2,30.6,8.2l9.6-5.7l1.1-18c0,0-13.3-13.6-24.6-17.4C227.2,292.4,214.6,281.9,214.6,281.9z"/>
			<path class="st6" d="M192.9,273.5c0.1-0.1,10.7,0.1,18.4,3.1c2.9,1.1,5.7,2.3,5.7,2.3l4.3-12.1l31.9-10.6h35.4l11.5,22.8v1.2
				c0,0,13.8,0.2,19.8-2.5c6-2.8,24.6-10.8,29.4-12.4c4.8-1.6,26.5-4.7,31.3,8.5c4.8,13.2,1.4,26.9-6.7,31.9
				c-3.8,2.4-68.1,19-68.1,19l-15.2-24.2c0,0-23.1,11.5-30.9,10.2C252,309.1,192.9,273.5,192.9,273.5z"/>
			<g>
				<path class="st7" d="M258.1,261.9c0,0,0.1,0.2,0.2,0.5c0.1,0.4,0.2,0.8,0.4,1.4c0.3,1.2,0.7,2.9,1,5c0.8,4.3,1.6,10.2,2.2,16.9
					c0.6,6.6,0.9,12.6,1,17c0.1,2.2,0.1,3.9,0.1,5.1c0,0.6,0,1,0,1.4c0,0.3,0,0.5,0,0.5c0,0,0-0.2-0.1-0.5c0-0.4,0-0.8-0.1-1.4
					c-0.1-1.3-0.1-3-0.3-5.1c-0.2-4.3-0.6-10.3-1.2-16.9c-0.6-6.6-1.3-12.6-2-16.8c-0.3-2.1-0.6-3.9-0.9-5.1c-0.1-0.5-0.2-1-0.3-1.4
					C258.1,262,258.1,261.9,258.1,261.9z"/>
			</g>
			<g>
				<path class="st7" d="M299.7,280.5c0,0.1-8,1.2-17.9,2.3c-9.9,1.1-17.9,1.9-18,1.7c0-0.1,8-1.2,17.9-2.3
					C291.7,281.1,299.7,280.3,299.7,280.5z"/>
			</g>
			<g>
				<path class="st7" d="M294.5,280.5c0,0-0.4,0-1.1-0.1c-0.7-0.1-1.8-0.2-3.1-0.4c-2.6-0.3-6.2-0.5-10.2-0.5
					c-4,0.1-7.6,0.5-10.2,0.8c-1.3,0.2-2.3,0.3-3.1,0.5c-0.7,0.1-1.1,0.2-1.1,0.1c0,0,0.4-0.2,1.1-0.3c0.7-0.2,1.8-0.4,3.1-0.6
					c2.6-0.5,6.2-0.9,10.3-1c4-0.1,7.7,0.2,10.3,0.6c1.3,0.2,2.4,0.4,3.1,0.5C294.1,280.4,294.5,280.5,294.5,280.5z"/>
			</g>
			<g>
				<path class="st7" d="M299.3,279.2c-0.1,0.2-2.9-1.7-6.9-2.5c-4-0.9-7.3-0.4-7.3-0.6c0-0.1,0.8-0.3,2.2-0.4
					c1.3-0.1,3.2,0,5.2,0.4c2,0.4,3.8,1.2,4.9,1.8C298.7,278.6,299.4,279.1,299.3,279.2z"/>
			</g>
			<g>
				<path class="st7" d="M269.9,298.9c0.1,0.1-1.3,1.2-3.2,2c-2,0.8-3.7,0.9-3.7,0.8c0-0.2,1.6-0.5,3.5-1.3
					C268.4,299.7,269.8,298.8,269.9,298.9z"/>
			</g>
			<g>
				<path class="st7" d="M268.2,303.4c0,0.1-1.1,0.6-2.6,0.9c-1.5,0.2-2.8,0-2.8-0.1c0-0.1,1.2-0.2,2.7-0.4
					C267,303.6,268.1,303.3,268.2,303.4z"/>
			</g>
			<g>
				<path class="st7" d="M322.5,278.3c0,0-0.2,0.1-0.5,0.3c-0.4,0.2-0.8,0.5-1.4,0.8c-1.3,0.7-3,1.7-5.2,3
					c-4.5,2.5-10.5,5.9-17.2,9.7c-6.7,3.7-12.8,7.1-17.3,9.5c-2.2,1.2-4,2.1-5.3,2.8c-0.6,0.3-1.1,0.6-1.4,0.7
					c-0.3,0.2-0.5,0.2-0.5,0.2s0.2-0.1,0.5-0.3c0.4-0.2,0.8-0.5,1.4-0.8c1.3-0.7,3-1.7,5.2-3c4.5-2.5,10.5-5.9,17.2-9.7
					c6.7-3.7,12.8-7.1,17.3-9.5c2.2-1.2,4-2.1,5.3-2.8c0.6-0.3,1.1-0.6,1.4-0.7C322.3,278.3,322.5,278.3,322.5,278.3z"/>
			</g>
			<g>
				<path class="st7" d="M349.5,273.2c0,0-0.2,0.1-0.6,0.2c-0.5,0.1-1.1,0.2-1.9,0.4c-1.6,0.3-3.9,0.9-6.8,1.7
					c-5.7,1.6-13.4,4.4-21.4,8.5c-8.1,4-15,8.3-20.1,11.4c-2.5,1.5-4.5,2.8-6,3.7c-0.7,0.4-1.2,0.7-1.6,1c-0.4,0.2-0.6,0.3-0.6,0.3
					c0,0,0.2-0.2,0.5-0.4c0.4-0.3,0.9-0.6,1.6-1.1c1.4-0.9,3.4-2.2,5.9-3.8c5-3.2,12-7.5,20-11.5c8.1-4.1,15.8-6.9,21.5-8.4
					c2.9-0.8,5.2-1.2,6.8-1.5c0.8-0.2,1.5-0.2,1.9-0.3C349.3,273.2,349.5,273.2,349.5,273.2z"/>
			</g>
			<g>
				<path class="st7" d="M365.3,268.6c0,0.1-1.2,0-3,0c-1.9,0-4.4,0.3-7.2,1.1c-2.7,0.8-5.1,1.9-6.7,2.8c-1.6,0.9-2.6,1.6-2.6,1.5
					c0,0,0.2-0.2,0.6-0.6c0.4-0.3,1-0.8,1.8-1.3c1.6-1,4-2.2,6.7-3c2.8-0.8,5.4-1,7.3-0.9c0.9,0,1.7,0.1,2.2,0.2
					C365.1,268.5,365.3,268.6,365.3,268.6z"/>
			</g>
			<g>
				<path class="st7" d="M359.8,272.9c0,0.2-2.7-0.2-6-0.1c-3.3,0.1-5.9,0.6-5.9,0.5c0-0.1,2.6-0.9,5.9-1
					C357.1,272.2,359.8,272.7,359.8,272.9z"/>
			</g>
			<g>
				<path class="st7" d="M348.2,268.8c0.1,0.1-2.2,1.4-4.8,3.3c-2.6,1.9-4.4,3.7-4.5,3.6c-0.1-0.1,1.6-2.1,4.2-4.1
					C345.7,269.7,348.1,268.7,348.2,268.8z"/>
			</g>
			<g>
				<path class="st7" d="M382,280.2c0,0,0,0.1-0.1,0.2c-0.1,0.2-0.2,0.4-0.3,0.6c-0.3,0.5-0.8,1.3-1.4,2.2c-1.3,1.9-3.5,4.4-6.7,7
					c-3.3,2.5-7.5,5-12.4,7.3c-4.9,2.3-10.5,4.3-16.4,6.3c-11.8,4.1-22.4,7.8-30.1,10.5c-3.8,1.3-6.9,2.4-9.2,3.1
					c-1.1,0.3-1.9,0.6-2.5,0.8c-0.3,0.1-0.5,0.1-0.7,0.2c-0.1,0-0.2,0.1-0.2,0.1c0,0,0.1,0,0.2-0.1c0.2-0.1,0.4-0.2,0.6-0.3
					c0.6-0.2,1.4-0.5,2.5-0.9c2.2-0.8,5.3-1.9,9.1-3.3c7.7-2.7,18.4-6.5,30.1-10.7c5.9-2.1,11.5-4,16.4-6.3
					c4.9-2.2,9.1-4.7,12.4-7.1c3.2-2.5,5.4-5,6.8-6.8c0.7-0.9,1.2-1.6,1.5-2.1c0.2-0.2,0.3-0.4,0.4-0.6
					C381.9,280.3,382,280.2,382,280.2z"/>
			</g>
			<g>
				<path class="st7" d="M260.9,332.2c0,0-0.3-0.1-0.7-0.3c-0.5-0.2-1.2-0.5-2.1-0.8c-1.8-0.7-4.3-1.8-7.5-3.2
					c-6.3-2.8-15-6.7-24.4-11.3c-9.4-4.6-17.9-9-23.8-12.5c-3-1.7-5.4-3.2-7-4.2c-0.8-0.5-1.4-0.9-1.8-1.2c-0.4-0.3-0.6-0.4-0.6-0.5
					c0,0,0.2,0.1,0.7,0.4c0.5,0.3,1.1,0.7,1.9,1.1c1.6,1,4,2.4,7.1,4.1c6,3.4,14.5,7.7,23.9,12.4c9.4,4.6,18.1,8.6,24.3,11.5
					c3.1,1.4,5.6,2.5,7.4,3.4c0.8,0.4,1.5,0.7,2,0.9C260.7,332.1,260.9,332.2,260.9,332.2z"/>
			</g>
			<g>
				<path class="st7" d="M195.4,279.8c0,0,0.3-0.2,0.9-0.6c0.6-0.3,1.5-0.7,2.6-1.1c2.3-0.8,5.7-1.4,9.4-1c3.7,0.4,6.9,1.4,9.1,2.6
					c1.1,0.6,1.9,1.2,2.4,1.6c0.5,0.5,0.7,0.7,0.7,0.8c-0.1,0.1-1.1-1-3.3-2.1c-2.1-1.1-5.3-1.9-9-2.4c-3.6-0.5-6.9,0.1-9.2,0.8
					C196.8,279.1,195.5,279.9,195.4,279.8z"/>
			</g>
			<g>
				<path class="st7" d="M263.1,313.6c0,0-0.2-0.1-0.5-0.4c-0.3-0.3-0.8-0.7-1.3-1.1c-1.1-1-2.7-2.3-4.8-3.9
					c-4.1-3.3-9.8-7.6-16.2-12.5c-1.6-1.2-3.1-2.4-4.6-3.6c-1.5-1.1-3-2.1-4.5-3c-3-1.8-5.7-3.3-7.9-4.8c-2.2-1.5-3.8-2.9-4.8-3.9
					c-0.5-0.5-0.9-1-1.1-1.2c-0.2-0.3-0.4-0.5-0.4-0.5c0,0,0.6,0.6,1.6,1.6c1.1,1,2.7,2.3,4.9,3.8c2.2,1.4,4.9,2.9,7.9,4.7
					c1.5,0.9,3,1.9,4.6,3c1.5,1.1,3,2.3,4.6,3.6c6.3,4.9,12.1,9.3,16.1,12.6c2,1.7,3.6,3.1,4.7,4.1c0.5,0.5,0.9,0.9,1.2,1.2
					C263,313.4,263.1,313.6,263.1,313.6z"/>
			</g>
			<g>
				<path class="st7" d="M236.7,288.7c0-0.1,1.4,0.5,3.6,1.3c2.2,0.8,5.2,2,8.6,3c3.4,1.1,6.5,1.9,8.8,2.5c2.3,0.6,3.7,0.9,3.7,1
					c0,0-0.4,0-1-0.1c-0.7-0.1-1.6-0.3-2.7-0.5c-2.3-0.5-5.5-1.3-8.9-2.3c-3.4-1.1-6.5-2.3-8.6-3.2c-1.1-0.5-1.9-0.9-2.5-1.2
					C237,288.9,236.7,288.7,236.7,288.7z"/>
			</g>
			<g>
				<path class="st7" d="M247.8,279.8c0,0.1-1.4,0.3-3.6,0.6c-2.2,0.3-5.3,0.8-8.7,1.4c-3.4,0.6-6.4,1.2-8.6,1.7
					c-2.2,0.5-3.6,0.7-3.6,0.7c0,0,0.3-0.2,0.9-0.3c0.6-0.2,1.5-0.4,2.6-0.7c2.2-0.6,5.2-1.2,8.6-1.8c3.4-0.6,6.5-1,8.7-1.3
					c1.1-0.1,2-0.2,2.7-0.2C247.4,279.8,247.8,279.8,247.8,279.8z"/>
			</g>
			<g>
				<path class="st7" d="M243.1,273.9c0,0.1-1.4,0.2-3.6,0.5c-2.2,0.3-5.2,0.9-8.5,1.9c-3.2,1-6.1,2.2-8.1,3.2c-2,1-3.2,1.7-3.3,1.6
					c0,0,0.3-0.2,0.8-0.6c0.5-0.3,1.3-0.8,2.3-1.3c2-1.1,4.8-2.4,8.1-3.4c3.3-1,6.4-1.6,8.6-1.8c1.1-0.1,2-0.2,2.7-0.2
					C242.7,273.9,243.1,273.9,243.1,273.9z"/>
			</g>
			<g>
				<g>
					<g>
						<path class="st2" d="M283.2,324.4l-6,14c2.2,2,10.6,3.3,13.6,3.1c3-0.1,7.2-0.1,10.2-0.5c3.7-0.4,7.5-0.1,11.3,0.1
							c3.8,0.2,7.6,0.4,11.3-0.2c3.7-0.6,7.4-2.1,10-4.8c2.6-2.7,4.1-6.7,3.2-10.3c-0.8-3.2-3.3-5.7-6.3-7.1c-3-1.4-6.3-1.6-9.6-1.3
							c-3.2,0.3-6.4,1.2-9.5,2.2c-3.3,1-6.7,2-10.2,1.7c-0.7-0.1-1.4,0-2.1-0.2c-4.5-0.8-9.2-0.9-13.3,1.7
							C285,323.3,284.1,323.8,283.2,324.4z"/>
						<g>
							<path class="st7" d="M284.1,326c0,0,0.2-0.2,0.5-0.5c0.4-0.3,0.9-0.7,1.7-1.2c1.6-0.9,4.2-1.9,7.5-1.6
								c1.6,0.2,3.4,0.5,5.2,0.8c1.9,0.3,3.9,0.5,6,0.3c2.1-0.2,4.3-0.8,6.5-1.5c2.2-0.7,4.6-1.3,7.1-1.5c2.5-0.2,5,0,7.2,0.6
								c1.1,0.3,2.2,0.8,3.2,1.3c1,0.5,1.9,1.2,2.7,2c1.5,1.6,2.4,3.5,2.9,5.4c0.2,0.9,0.3,1.9,0.1,2.8c-0.2,0.9-0.5,1.7-1,2.4
								c-0.9,1.4-2,2.4-3.1,3.1c-1.1,0.7-2.1,1.2-2.9,1.5c-0.8,0.3-1.5,0.6-2,0.7c-0.5,0.2-0.7,0.2-0.7,0.2c0,0,0.2-0.1,0.7-0.3
								c0.4-0.2,1.1-0.4,1.9-0.8c0.8-0.4,1.8-0.9,2.9-1.6c1-0.7,2.2-1.7,3-3.1c0.8-1.3,1.3-3.1,0.8-4.9c-0.4-1.8-1.4-3.6-2.8-5.2
								c-1.4-1.6-3.5-2.5-5.7-3.2c-2.2-0.6-4.6-0.8-7-0.6c-4.9,0.4-9.2,2.6-13.6,3c-2.2,0.2-4.2-0.1-6.1-0.3
								c-1.9-0.3-3.6-0.7-5.2-0.8c-3.2-0.3-5.8,0.6-7.3,1.4C284.9,325.4,284.1,326.1,284.1,326z"/>
						</g>
						<g>
							<path class="st6" d="M325,340.9c0,0-0.2-0.2-0.5-0.6c-0.2-0.2-0.4-0.5-0.5-0.8c-0.2-0.3-0.4-0.7-0.6-1.1
								c-0.5-0.8-0.9-1.9-1.3-3.1c-0.4-1.2-0.6-2.5-0.8-4c-0.1-1.4-0.1-2.8,0-4c0.1-1.2,0.3-2.3,0.6-3.2c0.1-0.5,0.3-0.9,0.4-1.2
								c0.1-0.4,0.3-0.6,0.4-0.9c0.2-0.5,0.4-0.7,0.4-0.7c0.1,0-0.4,1.1-0.8,2.9c-0.2,0.9-0.4,2-0.5,3.2c-0.1,1.2-0.1,2.6,0.1,4
								c0.2,1.4,0.4,2.7,0.7,3.9c0.4,1.2,0.7,2.2,1.1,3C324.4,340,325.1,340.9,325,340.9z"/>
						</g>
						<g>
							<path class="st7" d="M286.9,322.5c0.1,0.1,0,0.6-0.3,1.2c-0.3,0.6-0.5,1.1-0.7,1c-0.1,0-0.1-0.6,0.2-1.2
								C286.4,322.8,286.8,322.4,286.9,322.5z"/>
						</g>
						<g>
							<path class="st7" d="M291.2,320.8c0.1,0.1,0,0.6-0.2,1.2c-0.2,0.6-0.4,1.1-0.6,1c-0.1,0-0.1-0.6,0.1-1.2
								C290.7,321.2,291.1,320.7,291.2,320.8z"/>
						</g>
						<g>
							<path class="st7" d="M296.7,320.7c0.1,0,0.1,0.6-0.2,1.3c-0.2,0.7-0.5,1.2-0.7,1.2c-0.1,0-0.1-0.6,0.2-1.3
								C296.3,321.2,296.5,320.7,296.7,320.7z"/>
						</g>
						<g>
							<path class="st7" d="M301.8,321.3c0.1,0,0.1,0.6-0.1,1.3c-0.2,0.7-0.5,1.2-0.6,1.2c-0.1,0-0.1-0.6,0.1-1.3
								C301.4,321.8,301.7,321.3,301.8,321.3z"/>
						</g>
						<g>
							<path class="st7" d="M306.2,324.1c-0.1,0-0.3-0.7-0.3-1.6c0-0.9,0.1-1.6,0.3-1.6c0.1,0,0.3,0.7,0.3,1.6
								C306.4,323.4,306.3,324.1,306.2,324.1z"/>
						</g>
						<g>
							<path class="st7" d="M311,322.8c-0.1,0-0.3-0.6-0.5-1.4c-0.1-0.8-0.1-1.4,0.1-1.5c0.1,0,0.3,0.6,0.5,1.4
								C311.2,322.2,311.2,322.8,311,322.8z"/>
						</g>
						<g>
							<path class="st7" d="M315.5,318.5c0.1,0,0.4,0.6,0.5,1.3c0.1,0.8,0.1,1.4,0,1.4c-0.1,0-0.4-0.6-0.5-1.3
								C315.3,319.1,315.3,318.5,315.5,318.5z"/>
						</g>
						<g>
							<path class="st7" d="M321.2,317.4c0.1,0,0.1,0.9-0.1,1.8c-0.2,1-0.5,1.8-0.6,1.7c-0.1,0-0.1-0.9,0.1-1.8
								C320.8,318.2,321.1,317.4,321.2,317.4z"/>
						</g>
						<g>
							<path class="st7" d="M326.2,317.5c0.1,0.1-0.2,1-0.8,2c-0.6,1.1-1.1,1.9-1.2,1.8c-0.1-0.1,0.2-1,0.8-2
								C325.5,318.3,326,317.5,326.2,317.5z"/>
						</g>
						<g>
							<path class="st7" d="M331.2,318.9c0.1,0.1-0.3,1-1,2.1c-0.7,1.1-1.3,1.9-1.5,1.8c-0.1-0.1,0.3-1,1-2.1
								C330.4,319.6,331.1,318.8,331.2,318.9z"/>
						</g>
						<g>
							<path class="st7" d="M334.4,321.9c0.1,0.1-0.3,0.9-1,1.9c-0.7,0.9-1.3,1.7-1.4,1.6c-0.1-0.1,0.3-0.9,1-1.9
								C333.7,322.5,334.3,321.8,334.4,321.9z"/>
						</g>
						<g>
							<path class="st7" d="M336.7,325.8c0.1,0.1-0.3,0.9-1.1,1.7c-0.8,0.8-1.5,1.4-1.6,1.3c-0.1-0.1,0.5-0.8,1.2-1.6
								C336,326.3,336.6,325.7,336.7,325.8z"/>
						</g>
						<g>
							<path class="st7" d="M336.4,331.7c0.1,0.1-0.1,0.6-0.7,0.8c-0.6,0.3-1.1,0.1-1.1,0c0-0.1,0.4-0.3,0.9-0.5
								C335.9,331.8,336.3,331.6,336.4,331.7z"/>
						</g>
						<g>
							<path class="st7" d="M333.2,336.7c0,0.1-0.1,0.3-0.3,0.3c-0.2,0-0.3-0.2-0.2-0.4c0.1-0.1,0.2-0.2,0.3-0.2
								C333,336.5,333.1,336.6,333.2,336.7z"/>
						</g>
					</g>
					<g>
						<path class="st6" d="M298.3,338.7c-0.1-0.1,1.2-2,1.6-4.7c0.5-2.7-0.1-4.9,0.1-5c0.1-0.1,0.9,2.2,0.4,5.1
							C299.9,337,298.4,338.8,298.3,338.7z"/>
					</g>
					<g>
						<path class="st6" d="M302.4,338.2c-0.1-0.1,1.1-1.8,1.5-4.3c0.4-2.5-0.2-4.5,0-4.6c0.1-0.1,1,2,0.5,4.7
							C304,336.6,302.5,338.3,302.4,338.2z"/>
					</g>
					<g>
						<path class="st6" d="M307.6,338.3c-0.1-0.1,1.3-1.9,1.8-4.6c0.5-2.7-0.2-5,0-5c0.1,0,0.3,0.5,0.5,1.4c0.2,0.9,0.3,2.2,0,3.7
							c-0.3,1.4-0.8,2.6-1.3,3.4C308.1,337.9,307.6,338.3,307.6,338.3z"/>
					</g>
					<g>
						<path class="st6" d="M313.5,337.9c-0.1-0.1,1-2.1,1.3-4.8c0.4-2.7-0.3-5-0.1-5c0.1-0.1,1,2.2,0.6,5.1
							C315,336,313.5,338,313.5,337.9z"/>
					</g>
					<g>
						<path class="st6" d="M297.2,333.5c0,0-0.3,0.1-0.8,0.1c-0.6,0-1.4-0.2-2.2-0.7c-0.9-0.5-1.7-1.4-2.5-2.4
							c-0.4-0.5-0.8-1.1-1.1-1.8c-0.1-0.4-0.2-0.8-0.1-1.2c0.1-0.4,0.3-0.8,0.6-1.1c0.7-0.5,1.5-0.6,2.3-0.4
							c0.7,0.2,1.3,0.7,1.8,1.1c0.9,0.9,1.5,2,1.9,2.9c0.3,0.9,0.5,1.7,0.5,2.3c0,0.5,0,0.9-0.1,0.9c-0.1,0,0-1.2-0.8-3
							c-0.4-0.9-1-1.8-1.9-2.7c-0.4-0.4-1-0.8-1.6-1c-0.6-0.2-1.3-0.1-1.8,0.3c-0.5,0.4-0.6,1.1-0.4,1.7c0.2,0.6,0.6,1.1,1,1.6
							c0.8,1,1.5,1.9,2.3,2.4C296,333.7,297.3,333.4,297.2,333.5z"/>
					</g>
					<g>
						<path class="st6" d="M297,333.4c0,0,0,0.3-0.2,0.8c-0.2,0.5-0.4,1.2-0.9,2c-0.4,0.8-1.1,1.7-2.2,2.3c-0.5,0.3-1.2,0.5-1.9,0.5
							c-0.7,0-1.5-0.2-1.9-0.9c-0.4-0.7-0.2-1.6,0.2-2.2c0.4-0.6,1-1,1.5-1.3c1.1-0.5,2.2-0.7,3.1-0.9c1.8-0.3,2.9-0.5,2.9-0.4
							c0,0.1-1.1,0.4-2.8,0.8c-0.9,0.2-1.9,0.4-2.9,0.9c-0.5,0.3-1,0.6-1.3,1.1c-0.3,0.5-0.5,1.1-0.2,1.6c0.3,0.5,0.9,0.7,1.5,0.7
							c0.6,0,1.2-0.2,1.7-0.4c1-0.5,1.7-1.4,2.1-2.1C296.5,334.4,296.9,333.3,297,333.4z"/>
					</g>
					<g>
						<path class="st6" d="M296.6,337.6c-0.1-0.1,0.5-0.9,0.6-2c0.2-1.1-0.1-2,0-2.1c0.1-0.1,0.7,0.9,0.5,2.2
							C297.5,337,296.7,337.7,296.6,337.6z"/>
					</g>
					<g>
						<path class="st6" d="M298.8,330.6c0.1,0,0,0.8-0.4,1.6c-0.4,0.8-1,1.3-1.1,1.3c-0.1-0.1,0.2-0.7,0.7-1.5
							C298.3,331.2,298.7,330.6,298.8,330.6z"/>
					</g>
					<g>
						<path class="st13" d="M314.8,323.2c0,0.1-0.8,0.5-2.2,1c-1.4,0.5-3.5,1.1-5.8,1.5c-2.3,0.3-4.4,0.4-5.9,0.3
							c-1.5-0.1-2.4-0.3-2.4-0.4c0-0.2,3.8,0.3,8.3-0.4C311.3,324.5,314.8,323,314.8,323.2z"/>
					</g>
					<g>
						<path class="st13" d="M312.3,339.4c0,0.1-2.4,0.4-5.5,0.6c-3,0.2-5.5,0.3-5.5,0.1c0-0.1,2.4-0.4,5.5-0.6
							C309.9,339.3,312.3,339.3,312.3,339.4z"/>
					</g>
					<g>
						<path class="st13" d="M325.6,339.8c0-0.1,1.6,0,3.5-1.3c1-0.7,2-1.7,2.6-3c0.7-1.4,0.9-3.1,0.5-4.8c-0.3-1.7-1.2-3.3-2.2-4.4
							c-1-1.1-2.2-1.9-3.3-2.4c-2.2-1-3.7-1-3.7-1.1c0,0,0.4-0.1,1,0c0.7,0.1,1.6,0.3,2.8,0.7c1.1,0.5,2.4,1.2,3.5,2.4
							c1.1,1.2,2,2.8,2.4,4.6c0.4,1.8,0.1,3.7-0.6,5.2c-0.7,1.5-1.8,2.5-2.8,3.1c-1,0.6-2,0.9-2.7,1
							C326,339.9,325.6,339.8,325.6,339.8z"/>
					</g>
				</g>
				<path class="st14" d="M262.4,315.2l26,11.5c0,0,0.5,5.3-1.6,9.7c-1.9,3.9-7.7,3.1-7.7,3.1l-22.9-5.3l5.1-3L262.4,315.2z"/>
				<path class="st2" d="M285.6,338.5c-1-0.8-2-1.5-2.8-2.5c-0.8-1-1.4-2.2-1.3-3.4c0-1.1,0.6-2.2,1.1-3.2c0.6-1.1,1.4-2.2,2.6-2.7
					c1.4-0.5,3,0.1,4.4,0.8l0.3,5.8L285.6,338.5z"/>
				<g>
					<path class="st15" d="M288.4,326.8c-0.1,0.1-5.9-2.3-13.1-5.5c-7.2-3.2-13-5.9-12.9-6c0.1-0.1,5.9,2.3,13.1,5.5
						C282.7,323.9,288.5,326.6,288.4,326.8z"/>
				</g>
			</g>
		</g>
		<g>
			<path class="st7" d="M318,221.9c1,0,1.9-0.8,2-1.8c0.3-8.2-5.1-26.8-7.7-34.6c-1.6-4.7-7-8.2-10.7-10.7
				c-4.5-3.1-20.6-6.8-25.9-8.3l-1.8,0l-24.5-1.8l-13.5,6.5c0,0-18.7,7.1-24.2,17c-5.4,9.9-9.6,38.9-9.6,38.9s-2.5,8.3,0,12
				c1.5,2.3,7.3,4.3,12.5,5.3c-2.8,9.4-0.6,16.3-0.7,17.5c-0.2,2.5-2.1,8.2,2.3,7.8c4.4-0.4,39.1-9.5,49.4-9.9
				c10.3-0.4,19.3,3,24.9,6.1c5.2,2.9,5.1,3.1,7-2c1.8-5.1-4.1-10.9-4.1-10.9s5.3-19.1,7.8-31.7L318,221.9z"/>
			<g>
				<path class="st6" d="M235.5,210.8c0,0-0.3-0.3-0.8-0.8c-0.5-0.6-1.2-1.4-2-2.4c-1.7-2-4-4.7-7-7.3c-1.5-1.3-3-2.4-4.5-3.3
					c-1.5-0.9-2.9-1.6-4.1-2c-2.4-0.9-4-1.2-4-1.3c0,0,0.4,0,1.1,0.1c0.4,0,0.8,0.1,1.3,0.3c0.5,0.1,1.1,0.3,1.7,0.5
					c1.3,0.4,2.7,1.1,4.2,1.9c1.5,0.9,3.1,2,4.6,3.3c3,2.6,5.3,5.5,7,7.5c0.8,1,1.4,1.9,1.9,2.5
					C235.3,210.4,235.5,210.8,235.5,210.8z"/>
			</g>
			<g>
				<path class="st6" d="M231,238.4c0,0-0.4,0.1-1.2,0.1c-0.8,0-1.9,0-3.3,0c-2.8,0-6.7-0.2-10.9-0.8c-4.2-0.6-8-1.7-10.6-2.7
					c-1.3-0.5-2.3-1-3-1.4c-0.7-0.4-1.1-0.6-1.1-0.6c0-0.1,1.6,0.7,4.2,1.6c2.6,0.9,6.3,2,10.5,2.6c4.2,0.6,8,0.8,10.8,0.9
					c1.3,0.1,2.4,0.1,3.3,0.1C230.6,238.4,231,238.4,231,238.4z"/>
			</g>
			<g>
				<path class="st6" d="M283,247.8c0,0-0.1,0.3-0.4,0.7c-0.3,0.5-0.7,1.1-1.2,1.9c-1.1,1.5-2.9,3.5-5.2,5.3c-2.3,1.8-4.6,3-6.4,3.7
					c-0.9,0.4-1.6,0.6-2.1,0.7c-0.5,0.1-0.8,0.2-0.8,0.2c0-0.1,1.1-0.5,2.8-1.2c1.7-0.8,4-2,6.2-3.8c2.2-1.8,4-3.6,5.2-5.1
					C282.3,248.8,282.9,247.8,283,247.8z"/>
			</g>
			<g>
				<path class="st6" d="M283.4,255.5c0,0.1-0.6,0.6-1.6,1.3c-1.1,0.7-2.7,1.5-4.5,2.2c-1.9,0.7-3.6,1-4.9,1.1
					c-1.3,0.1-2.1,0.1-2.1,0c0-0.2,3.2-0.3,6.8-1.6C280.7,257.2,283.3,255.4,283.4,255.5z"/>
			</g>
			<g>
				<path class="st6" d="M312.2,185.5c0,0,0,0.3-0.1,0.8c-0.1,0.5-0.3,1.3-0.6,2.2c-0.6,1.9-1.6,4.4-3.1,7c-1.5,2.6-3.2,4.7-4.6,6.2
					c-0.7,0.7-1.2,1.3-1.7,1.6c-0.4,0.4-0.7,0.5-0.7,0.5c-0.1-0.1,0.8-0.9,2.1-2.4c1.3-1.5,2.9-3.6,4.4-6.2c1.5-2.6,2.5-5,3.2-6.9
					C311.8,186.7,312.1,185.5,312.2,185.5z"/>
			</g>
			<g>
				<path class="st6" d="M318.5,217.5c0,0.1-0.9,0.1-2.4,0.2c-1.5,0-3.6,0-5.9,0c-2.3-0.1-4.3-0.2-5.8-0.4c-1.5-0.2-2.4-0.3-2.4-0.4
					c0-0.1,0.9-0.1,2.4,0c1.7,0.1,3.7,0.2,5.8,0.3c2.2,0.1,4.1,0.1,5.8,0.2C317.6,217.4,318.5,217.4,318.5,217.5z"/>
			</g>
			<g>
				<path class="st6" d="M299,188.8c0,0,0.2,0.5,0.3,1.3c0.2,1,0.5,2.2,0.8,3.6c0.6,3.1,1.5,7.3,2,12.1c0.5,4.8,0.4,9.2-0.1,12.3
					c-0.2,1.6-0.5,2.8-0.7,3.7c-0.2,0.9-0.3,1.3-0.4,1.3s0-0.5,0.2-1.4c0.2-0.9,0.3-2.1,0.5-3.7c0.3-3.1,0.4-7.4-0.1-12.2
					c-0.5-4.7-1.4-9-1.9-12.1c-0.3-1.5-0.5-2.8-0.6-3.7C299,189.3,298.9,188.8,299,188.8z"/>
			</g>
			<g>
				<path class="st6" d="M235.5,214.3c0,0,0,0.4-0.1,1.2c-0.1,0.7-0.2,1.8-0.4,3.1c-0.4,2.6-0.9,6.3-1.6,10.2
					c-0.7,4-1.6,7.6-2.4,10.1c-0.4,1.3-0.8,2.3-1.1,3c-0.3,0.7-0.5,1-0.6,1c-0.1,0,0.6-1.5,1.3-4.1c0.7-2.5,1.5-6.1,2.2-10.1
					c0.7-4,1.3-7.6,1.8-10.2c0.2-1.2,0.4-2.3,0.5-3.1C235.4,214.6,235.5,214.2,235.5,214.3z"/>
			</g>
			<g>
				<path class="st6" d="M232.1,198.3c0.1,0,0.5,0.7,1,2c0.5,1.3,1.2,3,1.7,5c0.5,2,0.8,3.9,0.9,5.2c0.1,1.4,0.1,2.2,0.1,2.2
					c-0.2,0-0.5-3.3-1.5-7.3C233.3,201.5,232,198.4,232.1,198.3z"/>
			</g>
			<g>
				<path class="st16" d="M260.4,233.8c0,0,0.1-0.2,0.3-0.6c0.2-0.4,0.5-0.9,0.9-1.6c0.8-1.4,2-3.5,3.4-6c2.9-5.1,7-12.2,11.7-20.3
					l0.3,0.4c-3,1.4-6.1,2.9-9.5,4.2c-4,1.6-8,2.9-11.7,4l-0.8,0.2l0.5-0.6c5.6-6.9,10.5-12.8,14-17c1.7-2.1,3.1-3.7,4.1-4.9
					c0.5-0.5,0.8-1,1.1-1.3c0.3-0.3,0.4-0.4,0.4-0.4c0,0-0.1,0.2-0.3,0.5c-0.3,0.3-0.6,0.8-1,1.3c-1,1.2-2.3,2.9-4,5
					c-3.5,4.3-8.3,10.2-13.9,17.1l-0.3-0.4c3.7-1.1,7.6-2.5,11.6-4c3.3-1.3,6.5-2.7,9.5-4.1l0.7-0.4l-0.4,0.7
					c-4.7,8.1-8.9,15.2-11.8,20.2c-1.5,2.5-2.7,4.5-3.5,5.9c-0.4,0.7-0.7,1.2-1,1.6C260.6,233.6,260.5,233.8,260.4,233.8z"/>
			</g>
			<g class="st12">
				<path d="M278.4,261.2c1.2,0.3,3.4-3.3,4.7-5.5c-4,2.2-7.9,4.9-12.3,3.9c5-1.2,9.1-5.2,10.8-10.1c-3.3,4.9-7.6,8.3-13.1,10.2
					C268.4,259.8,276.5,260.7,278.4,261.2z"/>
			</g>
		</g>
		<g>
			<g>
				<path class="st6" d="M232.1,154.9c0,0,0.7,0.3,2,0.6c1.3,0.3,3.3,0.5,5.4-0.5c1-0.5,2-1.4,2.7-2.5c0.7-1.2,1-2.7,0.4-4.1
					c-0.5-1.4-1.7-2.7-3.3-3c-1.6-0.2-3.3,0.8-4,2.3c-0.3,0.8-0.3,1.7,0.1,2.4c0.4,0.7,1,1.3,1.7,1.7c0.7,0.4,1.5,0.6,2.3,0.6
					c0.8,0,1.5-0.2,2.2-0.5c1.4-0.6,2.5-1.7,3.3-2.7c0.9-1.1,1.5-2.2,1.9-3.3c0.9-2.2,1-4.1,1-5.4c0-1.3-0.2-2-0.1-2.1
					c0,0,0.1,0.2,0.1,0.5c0.1,0.3,0.1,0.9,0.2,1.5c0.1,1.3,0,3.3-0.9,5.6c-0.4,1.1-1.1,2.3-1.9,3.4c-0.9,1.1-2,2.2-3.5,2.9
					c-0.7,0.3-1.6,0.6-2.4,0.6c-0.9,0-1.8-0.2-2.5-0.6c-0.8-0.4-1.5-1.1-1.9-1.9c-0.4-0.8-0.5-1.9-0.1-2.8c0.8-1.8,2.7-2.9,4.5-2.6
					c1.8,0.3,3.2,1.8,3.7,3.3c0.6,1.6,0.2,3.3-0.5,4.5c-0.7,1.2-1.8,2.1-2.9,2.6c-2.3,1-4.3,0.7-5.6,0.4c-0.6-0.2-1.1-0.4-1.5-0.5
					C232.3,155.1,232.1,155,232.1,154.9z"/>
			</g>
			<g>
				<g>
					<g>
						<path class="st6" d="M310.5,132.9c0.4-4.1-0.9-8.3-3.8-11.2c-2.8-2.9-7.2-4.4-11.2-3.4c-2.8,0.7-5.6,1.8-7.6,4
							c-0.8,0.9-1,1.1-1.5,2.2c-0.1,0.1-0.1,0.3-0.2,0.4c-0.1,0.2-0.2,0.3-0.2,0.5c0,0,0,0.1,0,0.1l0,0c-1.2,2.8-1.6,6-0.9,9
							c1.1,4.5,4.6,8.5,9,9.9c4.5,1.4,9.7,0.1,12.9-3.3C309.1,138.8,310.3,135.9,310.5,132.9z"/>
						<g>
							<path class="st7" d="M308.7,139.6c-0.1,0-0.3-1.1-1-2.8c-0.7-1.7-2-4-4.1-5.8c-2.1-1.9-4.5-2.9-6.3-3.4
								c-1.8-0.5-2.9-0.5-2.9-0.6c0,0,0.3-0.1,0.8,0c0.5,0,1.3,0.1,2.2,0.3c1.8,0.4,4.3,1.4,6.5,3.4c2.2,1.9,3.5,4.3,4.1,6.1
								c0.3,0.9,0.5,1.6,0.6,2.2C308.8,139.3,308.8,139.6,308.7,139.6z"/>
						</g>
						<g>
							<path class="st7" d="M304.8,131.7c0.1,0-0.2,1-0.9,2.3c-0.7,1.4-1.9,3.2-3.6,4.9c-1.7,1.7-3.5,2.9-4.9,3.6
								c-1.4,0.7-2.3,1-2.3,1c-0.1-0.2,3.6-1.6,6.9-4.9C303.3,135.3,304.7,131.6,304.8,131.7z"/>
						</g>
						<g>
							<path class="st13" d="M294.1,127.4c-0.2-0.1,1-2,2-4.6c1-2.6,0.9-4.8,1-4.8c0.1,0,0.2,0.6,0.2,1.5c0,0.9-0.2,2.2-0.7,3.5
								C295.5,125.7,294.1,127.5,294.1,127.4z"/>
						</g>
					</g>
					<g>
						<g>
							<g>
								<g>
									<g>
										<g>
											<g>
												<g>
													<g>
														<g>
															<g>
																<g>
																	<g>
																		<path class="st14" d="M276.6,176.3C276.6,176.3,276.6,176.5,276.6,176.3L276.6,176.3z"/>
																		<path class="st14" d="M294.2,123.9c0.5-11.7-8.2-22.2-20-23.4c-12.6-1.3-23.5,7.9-24.3,20.2l-2,49.4
																			c0,1,0.2,1.9,0.8,2.7c3,4.2,8.3,7.4,13,8c4.5,0.5,9.1-0.7,12.9-2.9c1.3-0.8,2.1-2.2,2.1-3.6l0-11
																			c0,0,0-0.1,0.1-0.1c0.7,0,2.4,0,3.1-0.1c2.9-0.8,10.3-3.8,12.6-14.7C293.1,144.5,293.8,134.2,294.2,123.9z"/>
																	</g>
																	<path class="st6" d="M278.3,140.4c0-0.1,1.2-0.3,3.2-0.4c0.5,0,1-0.1,1.1-0.4c0.1-0.3-0.1-0.9-0.3-1.5
																		c-0.4-1.2-0.8-2.5-1.3-3.8c-1.8-5.4-3.1-9.8-2.9-9.9c0.2-0.1,1.9,4.3,3.7,9.7c0.4,1.3,0.8,2.6,1.2,3.8
																		c0.2,0.6,0.5,1.2,0.2,1.9c-0.2,0.4-0.5,0.6-0.9,0.7c-0.3,0.1-0.6,0.1-0.8,0.1C279.5,140.5,278.3,140.5,278.3,140.4
																		z"/>
																</g>
															</g>
														</g>
													</g>
												</g>
											</g>
										</g>
									</g>
								</g>
							</g>
						</g>
					</g>
					<g>
						<g>
							<g>
								<g>
									<g>
										<g>
											<g>
												<g>
													<g>
														<g>
															<g>
																<path class="st6" d="M289.5,131.3c0,0.9-0.8,1.7-1.8,1.7c-1,0-1.8-0.8-1.8-1.7c0-0.9,0.8-1.7,1.8-1.7
																	C288.7,129.6,289.5,130.3,289.5,131.3z"/>
															</g>
														</g>
													</g>
												</g>
											</g>
										</g>
									</g>
								</g>
							</g>
						</g>
						<g>
							<g>
								<g>
									<g>
										<g>
											<g>
												<g>
													<g>
														<g>
															<g>
																<g>
																	<path class="st6" d="M291.3,125.9c-0.2,0.2-1.6,0.1-3.5,0.7c-1.8,0.6-3.1,1.6-3.3,1.5c-0.1,0,0-0.3,0.6-0.8
																		c0.5-0.4,1.4-1,2.6-1.4c1.2-0.4,2.2-0.5,2.8-0.4C291.1,125.6,291.3,125.8,291.3,125.9z"/>
																</g>
															</g>
														</g>
													</g>
												</g>
											</g>
										</g>
									</g>
								</g>
							</g>
						</g>
					</g>
					<g>
						<g>
							<g>
								<g>
									<g>
										<g>
											<g>
												<g>
													<g>
														<g>
															<g>
																<path class="st6" d="M270.7,130.1c0,0.9-0.8,1.7-1.8,1.7c-1,0-1.8-0.8-1.8-1.7c0-0.9,0.8-1.7,1.8-1.7
																	C269.9,128.4,270.7,129.1,270.7,130.1z"/>
															</g>
														</g>
													</g>
												</g>
											</g>
										</g>
									</g>
								</g>
							</g>
						</g>
						<g>
							<g>
								<g>
									<g>
										<g>
											<g>
												<g>
													<g>
														<g>
															<g>
																<g>
																	<path class="st6" d="M271.3,127.5c-0.3,0-1.3-1.1-3.2-2c-1.9-0.9-3.6-1.1-3.7-1.3c-0.1-0.1,0.3-0.2,1-0.1
																		c0.7,0.1,1.9,0.3,3,0.9c1.2,0.6,2.1,1.3,2.5,1.8C271.4,127.1,271.5,127.5,271.3,127.5z"/>
																</g>
															</g>
														</g>
													</g>
												</g>
											</g>
										</g>
									</g>
								</g>
							</g>
						</g>
					</g>
					<g>
						<g>
							<g>
								<g>
									<g>
										<g>
											<g>
												<g>
													<g>
														<g>
															<g>
																<path class="st15" d="M276.6,163c0,0-7.6,0.2-16.7-5.8c0,0,2.5,9.9,16.7,9.3L276.6,163z"/>
															</g>
														</g>
													</g>
												</g>
											</g>
										</g>
									</g>
								</g>
							</g>
						</g>
					</g>
					<g>
						<g>
							<g>
								<g>
									<g>
										<g>
											<g>
												<g>
													<g>
														<g>
															<g>
																<path class="st15" d="M277.3,144.9c-0.7-0.9-1.9-1.5-3.1-1.4c-0.8,0-1.7,0.4-2.3,1.1c-0.5,0.7-0.7,1.6-0.3,2.3
																	c0.5,0.8,1.6,1,2.5,0.8c0.9-0.2,1.8-0.8,2.6-1.3c0.2-0.2,0.4-0.3,0.6-0.5C277.4,145.5,277.5,145.2,277.3,144.9"/>
															</g>
														</g>
													</g>
												</g>
											</g>
										</g>
									</g>
								</g>
							</g>
						</g>
					</g>
					<g>
						<g>
							<g>
								<g>
									<g>
										<g>
											<g>
												<g>
													<g>
														<g>
															<g>
																<g>
																	<path class="st6" d="M272.5,141.4c0.3,0,0.2,2.1,2,3.6c1.7,1.6,4,1.5,4,1.7c0,0.1-0.5,0.4-1.5,0.4
																		c-0.9,0-2.3-0.4-3.4-1.3c-1.1-1-1.5-2.2-1.5-3C272.1,141.9,272.4,141.4,272.5,141.4z"/>
																</g>
															</g>
														</g>
													</g>
												</g>
											</g>
										</g>
									</g>
								</g>
							</g>
						</g>
					</g>
					<g>
						<g>
							<g>
								<g>
									<g>
										<g>
											<g>
												<g>
													<g>
														<path class="st6" d="M272.6,119.7c-0.3,0.5-2.2-0.1-4.5-0.2c-2.3-0.2-4.2,0.2-4.4-0.3c-0.1-0.2,0.3-0.7,1.1-1
															c0.8-0.4,2.1-0.6,3.4-0.6c1.4,0.1,2.6,0.5,3.3,1C272.4,119,272.8,119.5,272.6,119.7z"/>
													</g>
												</g>
											</g>
										</g>
									</g>
								</g>
							</g>
						</g>
					</g>
					<g>
						<g>
							<g>
								<g>
									<g>
										<g>
											<g>
												<g>
													<g>
														<path class="st6" d="M291.2,120c-0.4,0.4-1.7-0.1-3.3-0.2c-1.6-0.2-3,0.1-3.3-0.3c-0.1-0.2,0.1-0.7,0.7-1
															c0.6-0.4,1.6-0.7,2.7-0.6c1.1,0.1,2.1,0.5,2.6,1C291.2,119.4,291.4,119.8,291.2,120z"/>
													</g>
												</g>
											</g>
										</g>
									</g>
								</g>
							</g>
						</g>
					</g>
					<g>
						<path class="st6" d="M275.8,98c-1.1-1.7-3-2.5-5.1-2.8c-8.7-1.1-18.2,4.2-22.9,11.6c-4.7,7.4-4.8,18.2-1.1,26.1l3.2,0.5
							c6.7-0.5,17.7-19.5,27-30.1C278.2,102.1,276.8,99.5,275.8,98z"/>
						<path class="st6" d="M292.5,103.4c-3.7-4-9.7-8.9-17.1-5.9c-1.1,2.1,1.2,4.8,3.1,6.4c2.8,2.3,5.2,3.8,7,5.4
							c3.7,3.3,8.2,8.8,8.7,15c0,0.4,0.3,0.4,0.7,0.4c0.5-0.1,1.6-2.6,2.2-6C298.2,111.4,296.2,107.4,292.5,103.4z"/>
						<path class="st6" d="M250.6,122.2c-0.4-1.6-1.2-3.2-2.3-4.5c0,0,0,0,0,0l0,0c-0.7-0.9-1.6-1.6-2.5-2.2
							c-3.5-2.1-8.1-2.1-11.7-0.2c-3.6,1.9-6.2,5.5-7,9.5c-0.6,2.9-0.4,6.1,0.9,8.8c2,4.2,6.6,7,11.2,7.1c4.7,0,9.2-2.6,11.6-6.6
							C252.5,131.3,252,126.3,250.6,122.2z"/>
						<g>
							<g>
								<g>
									<g>
										<g>
											<g>
												<g>
													<g>
														<g>
															<g>
																<g>
																	<g>
																		<g>
																			<g>
																				<g>
																					<g>
																						<g>
																							<path class="st14" d="M252.1,129.5c-0.2-0.1-8.2-3.1-8.6,5.3c-0.3,8.4,8.2,7,8.2,6.8
																								C251.7,141.4,252.1,129.5,252.1,129.5z"/>
																						</g>
																					</g>
																				</g>
																			</g>
																		</g>
																	</g>
																</g>
															</g>
														</g>
													</g>
												</g>
											</g>
										</g>
									</g>
								</g>
							</g>
							<g>
								<g>
									<g>
										<g>
											<g>
												<g>
													<g>
														<g>
															<g>
																<g>
																	<g>
																		<g>
																			<g>
																				<g>
																					<g>
																						<g>
																							<g>
																								<path class="st15" d="M249.3,138.3c0,0-0.2,0.1-0.4,0.2c-0.2,0.1-0.7,0.2-1.1,0c-0.9-0.4-1.6-1.8-1.5-3.3
																									c0-0.8,0.2-1.5,0.5-2.1c0.3-0.6,0.7-1,1.1-1.1c0.4-0.1,0.8,0.2,0.8,0.4c0.1,0.2,0,0.4,0.1,0.4
																									c0,0,0.2-0.1,0.1-0.5c0-0.2-0.1-0.4-0.3-0.5c-0.2-0.2-0.5-0.3-0.8-0.2c-0.6,0-1.3,0.6-1.6,1.2
																									c-0.4,0.7-0.6,1.5-0.6,2.3c0,1.7,0.8,3.3,2,3.7c0.6,0.2,1.1,0,1.3-0.2C249.2,138.5,249.3,138.3,249.3,138.3
																									z"/>
																							</g>
																						</g>
																					</g>
																				</g>
																			</g>
																		</g>
																	</g>
																</g>
															</g>
														</g>
													</g>
												</g>
											</g>
										</g>
									</g>
								</g>
							</g>
						</g>
						<g>
							<path class="st7" d="M294.2,105.1c0,0.1-0.9,0.2-2.4,0.3c-1.5,0.1-3.6,0.1-6-0.2c-2.3-0.3-4.4-0.8-5.8-1.2
								c-1.5-0.5-2.3-0.8-2.3-0.9c0-0.1,0.9,0.2,2.4,0.5c1.5,0.4,3.5,0.8,5.8,1.1c2.3,0.3,4.4,0.3,5.9,0.3
								C293.3,105,294.2,105,294.2,105.1z"/>
						</g>
						<g>
							<path class="st7" d="M297,111.1c0,0.1-0.7,0.3-1.8,0.4c-1.2,0.1-2.8,0.1-4.5-0.2c-1.7-0.4-3.2-1.1-4.2-1.7
								c-1-0.6-1.5-1.1-1.5-1.2c0.1-0.1,2.4,1.6,5.8,2.3C294.2,111.5,297,110.9,297,111.1z"/>
						</g>
						<g>
							<path class="st7" d="M246.8,109.7c0-0.1,1.8,0.2,4.8,0.1c1.5,0,3.2-0.2,5.1-0.5c1.9-0.4,4-0.9,6.1-1.6
								c2.1-0.7,4.1-1.6,5.8-2.4c1.7-0.9,3.2-1.7,4.5-2.6c2.5-1.6,3.8-2.8,3.9-2.7c0,0-0.3,0.3-0.9,0.9c-0.3,0.3-0.7,0.6-1.2,1
								c-0.5,0.4-1,0.8-1.6,1.2c-1.2,0.9-2.7,1.8-4.5,2.7c-1.7,0.9-3.7,1.8-5.9,2.5c-2.1,0.7-4.2,1.2-6.2,1.6
								c-1.9,0.3-3.7,0.5-5.2,0.4c-0.7,0-1.4,0-2-0.1c-0.6,0-1.1-0.1-1.5-0.2C247.2,109.9,246.8,109.8,246.8,109.7z"/>
						</g>
						<g>
							<path class="st7" d="M276.4,103c0,0-0.2,0.4-0.7,1.2c-0.2,0.4-0.5,0.8-0.9,1.3c-0.4,0.5-0.8,1.1-1.3,1.7
								c-1,1.2-2.2,2.6-3.8,3.9c-1.5,1.4-3.4,2.7-5.4,3.9c-2.1,1.2-4.1,2.1-6.1,2.8c-1.9,0.7-3.7,1.1-5.3,1.4
								c-0.8,0.2-1.5,0.2-2.1,0.3c-0.6,0.1-1.1,0.1-1.6,0.1c-0.9,0-1.3,0-1.3,0c0-0.1,1.9-0.1,4.9-0.7c1.5-0.3,3.3-0.8,5.2-1.5
								c1.9-0.7,3.9-1.6,6-2.8c2-1.2,3.8-2.5,5.3-3.9c1.5-1.3,2.8-2.6,3.8-3.8C275.3,104.6,276.3,102.9,276.4,103z"/>
						</g>
						<g>
							<path class="st7" d="M270.8,95.3c0-0.1,0.7-0.1,1.7,0.1c1,0.3,2.4,1,3.5,2.2c0.3,0.3,0.5,0.6,0.7,1c0.2,0.3,0.3,0.7,0.4,1
								c0.2,0.6,0.4,1.2,0.5,1.8c0.2,1.1-0.1,1.7-0.1,1.7c-0.1,0,0-0.6-0.2-1.6c-0.1-0.5-0.3-1-0.6-1.7c-0.1-0.3-0.2-0.6-0.4-0.9
								c-0.2-0.3-0.4-0.6-0.7-0.9c-1-1.1-2.2-1.8-3.2-2.2C271.4,95.4,270.8,95.4,270.8,95.3z"/>
						</g>
						<g>
							<path class="st13" d="M248.6,128.8c-0.1,0,0.2-0.9,0.3-2.3c0.2-1.4,0.2-3.3-0.3-5.4c-0.5-2.1-1.6-3.7-2.5-4.7
								c-0.9-1-1.7-1.5-1.6-1.6c0,0,0.2,0.1,0.6,0.3c0.4,0.2,0.8,0.6,1.3,1c1.1,1,2.2,2.7,2.8,4.8c0.6,2.1,0.4,4.2,0.2,5.6
								C249,128,248.6,128.8,248.6,128.8z"/>
						</g>
						<g>
							<path class="st7" d="M249.2,127c0,0.1-1.1-0.6-2.8-1.5c-1.8-0.9-4.3-1.9-7.2-2.6c-2.9-0.6-5.7-0.8-7.6-0.8
								c-2,0-3.2,0.2-3.2,0.1c0,0,0.3-0.1,0.8-0.2c0.5-0.1,1.3-0.2,2.3-0.3c2-0.1,4.8,0,7.8,0.6c3,0.7,5.5,1.8,7.3,2.7
								c0.9,0.5,1.6,0.9,2,1.2C249,126.7,249.2,126.9,249.2,127z"/>
						</g>
						<g>
							<path class="st7" d="M241.6,123.6c0.1,0-0.1,1-0.6,2.5c-0.5,1.5-1.4,3.5-2.8,5.5c-1.4,2-2.9,3.5-4.1,4.5
								c-1.2,1-2.1,1.5-2.1,1.4c-0.1-0.1,3.1-2.4,5.8-6.3C240.4,127.4,241.4,123.6,241.6,123.6z"/>
						</g>
						<g>
							<path class="st7" d="M247.1,139.9c0.1-0.2,0.4-0.3,0.9-0.1c0.5,0.1,1.2,0.5,1.8,1.3c0.6,0.8,0.9,2.2,0.4,3.5
								c-0.2,0.7-0.7,1.3-1.3,1.8c-0.7,0.5-1.5,0.7-2.3,0.8c-0.8,0-1.7-0.2-2.3-0.6c-0.7-0.4-1.1-1-1.5-1.6
								c-0.3-0.6-0.5-1.2-0.5-1.9c0-0.6,0.2-1.1,0.4-1.6c0.4-0.9,1-1.4,1.5-1.6c0.5-0.2,0.9-0.1,0.9,0.1c0.1,0.4-0.6,0.8-0.7,2.1
								c0,0.3,0,0.6,0,0.9c0.1,0.2,0.2,0.6,0.4,0.8c0.4,0.5,1,0.9,1.7,0.9c0.7,0,1.2-0.3,1.5-0.9c0.3-0.6,0.3-1.2,0.2-1.7
								C247.8,140.9,247,140.3,247.1,139.9z"/>
						</g>
						<g>
							<path class="st6" d="M255.6,126.6c0-0.1,2,0.1,5.1-0.9c3-0.9,6.9-3.2,10-7c3-3.8,4.7-8,5.6-11c0.5-1.5,0.8-2.8,1-3.6
								c0.2-0.9,0.3-1.3,0.4-1.3c0,0,0,0.5-0.2,1.4c-0.2,0.9-0.4,2.2-0.9,3.7c-0.9,3.1-2.5,7.3-5.6,11.2c-3.1,3.9-7.2,6.2-10.3,7
								c-1.6,0.4-2.9,0.6-3.8,0.6c-0.4,0-0.8,0-1,0C255.7,126.7,255.6,126.7,255.6,126.6z"/>
						</g>
					</g>
				</g>
				<g>
					<path class="st6" d="M276.4,170.4c0,0,0.2,0.1,0.5,0.3c0.3,0.2,0.7,0.5,1.2,1.1c0.4,0.6,0.9,1.3,1.1,2.3c0.2,1,0.3,2.2-0.1,3.4
						c-0.7,2.5-3,4.9-6.1,6.1c-1.6,0.6-3.3,1-5.1,1.2c-1.8,0.2-3.7,0.3-5.6,0.2c-3.8-0.2-7.5-1.3-10.3-3.2c-2.8-1.9-4.7-4.4-5.6-6.7
						c-0.5-1.2-0.7-2.3-0.7-3.3c0-1,0.3-1.9,0.7-2.5c0.4-0.6,0.8-1,1.1-1.2c0.3-0.2,0.5-0.3,0.5-0.3c0,0-0.7,0.4-1.4,1.6
						c-0.3,0.6-0.6,1.4-0.6,2.4c0,1,0.2,2.1,0.7,3.2c0.9,2.3,2.8,4.7,5.5,6.5c2.7,1.8,6.2,2.9,10,3.1c1.9,0.1,3.7,0,5.5-0.2
						c1.8-0.2,3.5-0.6,5-1.2c3-1.1,5.2-3.4,6-5.8c0.7-2.4,0-4.4-0.8-5.5C277.1,170.8,276.3,170.4,276.4,170.4z"/>
				</g>
				<g>
					<path class="st6" d="M254.3,183.4c-0.1,0-0.2-1.2,0.5-2.4c0.6-1.2,1.6-1.9,1.7-1.8c0.1,0.1-0.6,0.9-1.2,2
						C254.7,182.3,254.5,183.4,254.3,183.4z"/>
				</g>
				<g>
					<path class="st6" d="M263.7,185.1c-0.1,0-0.2-0.9-0.2-2.1c0-1.2,0.2-2.1,0.3-2.1c0.1,0,0.2,0.9,0.2,2.1
						C264,184.2,263.9,185.1,263.7,185.1z"/>
				</g>
				<g>
					<path class="st6" d="M273.2,183.7c-0.1,0-0.5-1-0.7-2.3c-0.3-1.3-0.4-2.3-0.2-2.4c0.1,0,0.5,1,0.7,2.3
						C273.2,182.6,273.3,183.7,273.2,183.7z"/>
				</g>
				<g>
					<path class="st6" d="M278.7,177.7c-0.1,0.1-0.5-0.5-1.2-0.9c-0.6-0.4-1.3-0.6-1.3-0.7c0-0.1,0.8-0.2,1.5,0.3
						C278.5,176.9,278.8,177.7,278.7,177.7z"/>
				</g>
				<g>
					<path class="st6" d="M249.4,174c0,0.1-0.5,0.3-1.1,0.8c-0.5,0.4-0.9,0.9-1,0.9c-0.1,0,0-0.7,0.7-1.3
						C248.7,173.8,249.4,173.9,249.4,174z"/>
				</g>
			</g>
		</g>
		<g>
			<g>
				<g>
					<path class="st6" d="M265.8,240.9c-1.5,0-2.5-1.6-1.9-2.9c2.7-6.1,10.1-17.8,10.6-18.5c0.7-1.1,1.1-2.4,3.3-2.6
						c0.9-0.1,14.4-0.4,17.5-0.5c0.5,0,1,0.2,1.4,0.5c0.6,0.6,1.3,1.7,0.3,3.5c-1.1,2-9.3,14.7-12.6,19.6c-0.7,1-1.8,1.5-2.9,1.5
						L265.8,240.9z"/>
					<path class="st16" d="M286.7,220.7c-0.2-0.4-0.9-0.4-1.1-0.3c-0.4,0.1-0.7,0.3-0.9,0.6c-0.3,0.3-0.4,0.7-0.2,1.1
						c0.2,0.3,0.6,0.3,0.9,0.3c0.4,0,0.8-0.2,1.1-0.5C286.8,221.6,286.9,221.1,286.7,220.7z"/>
					<g>
						<path class="st7" d="M293.6,223.4c0,0,0.2-0.4,0.5-1.2c0.2-0.4,0.4-0.8,0.7-1.3c0.1-0.3,0.3-0.5,0.4-0.8
							c0.2-0.3,0.4-0.6,0.3-0.9c0-0.3-0.1-0.6-0.4-0.8c-0.3-0.2-0.6-0.2-1.1-0.2c-0.9,0-1.8,0.1-2.8,0.1c-2,0.1-4.1,0.1-6.3,0.2
							c-2.2,0.1-4.4,0.1-6.3,0.2c-0.2,0-0.5,0-0.7,0c-0.2,0-0.4,0.1-0.5,0.2c-0.3,0.2-0.5,0.7-0.7,1c-0.5,0.7-0.9,1.4-1.3,2
							c-0.8,1.2-1.4,2.1-1.9,2.9c-0.5,0.7-0.7,1-0.8,1c0,0,0.2-0.4,0.6-1.1c0.5-0.8,1.1-1.8,1.8-3c0.4-0.6,0.8-1.3,1.2-2.1
							c0.1-0.2,0.2-0.4,0.3-0.6c0.1-0.2,0.2-0.4,0.5-0.6c0.2-0.2,0.5-0.3,0.8-0.3c0.2,0,0.5,0,0.7,0c2-0.1,4.1-0.1,6.3-0.2
							c2.2-0.1,4.4-0.1,6.3-0.2c1,0,1.9,0,2.8-0.1c0.4,0,1,0,1.3,0.3c0.4,0.3,0.6,0.7,0.5,1.2c0,0.2-0.1,0.4-0.2,0.6
							c-0.1,0.2-0.2,0.3-0.3,0.4c-0.2,0.3-0.3,0.6-0.5,0.8c-0.3,0.5-0.5,0.9-0.8,1.3C293.9,223.1,293.6,223.5,293.6,223.4z"/>
					</g>
				</g>
				<g>
					<path class="st14" d="M316.2,221.9c0,0-1.4,9.5-2.8,15.6c-1.3,5.5-3.2,23.9-8.3,26.2c-5.1,2.3-11.4,0.9-13.7-3.6
						c-2.3-4.5-4.8-16.4-4.8-16.4l-10.6-4.5c0,0-2.4-8.9-1.1-9.9c1.4-1,15.1,0.5,15.1,0.5l3.7-0.8c0,0-5.8-0.8-7.1-1.2
						c-1.3-0.3-2.1-1.3-1.8-2.5c0.3-1.2,0.5-2.3,3.7-2.3s8.1-0.5,9-0.2c1.1,0.4,2.4,1,2.6,3.8c0.2,2.7-1.1,8-1.1,8l0.3,0.4l1.9-13.8
						L316.2,221.9z"/>
					<g>
						<path class="st15" d="M298.4,238.4c0,0-0.3,0.2-0.9,0.3c-0.6,0.2-1.4,0.4-2.4,0.7c-2.1,0.5-5,0.8-8.3,0.6
							c-3.3-0.2-6.1-1-8.1-1.8c-1-0.4-1.8-0.7-2.3-1c-0.5-0.3-0.8-0.4-0.8-0.5c0-0.1,1.2,0.5,3.2,1.2c2,0.7,4.8,1.4,8,1.6
							c3.2,0.2,6.1-0.1,8.2-0.5C297.1,238.6,298.4,238.3,298.4,238.4z"/>
					</g>
					<g>
						<path class="st15" d="M296.4,234.5c0,0-0.3,0.1-0.9,0.3c-0.6,0.1-1.4,0.3-2.4,0.5c-2,0.3-4.9,0.6-8.1,0.3
							c-3.2-0.3-5.9-1.3-7.8-2.3c-0.9-0.5-1.6-0.9-2.1-1.3c-0.5-0.4-0.7-0.6-0.7-0.6c0.1-0.1,1.1,0.7,2.9,1.6
							c1.8,0.9,4.6,1.8,7.7,2.1c3.1,0.3,6,0.1,8-0.1C295.1,234.7,296.4,234.5,296.4,234.5z"/>
					</g>
					<g>
						<path class="st15" d="M299.7,224.7c0.1,0,0.3,0.5,0.2,1.3c0,0.4-0.1,0.9-0.4,1.4c-0.1,0.3-0.4,0.5-0.7,0.6
							c-0.3,0.2-0.5,0.3-0.8,0.4c-1.2,0.4-2.3,0.5-3.1,0.5c-0.8,0-1.2,0.2-1.3,0.1c0-0.1,0.4-0.3,1.2-0.5c0.8-0.1,1.8-0.3,2.9-0.6
							c0.5-0.2,1.1-0.4,1.3-0.8c0.3-0.4,0.4-0.8,0.4-1.2C299.7,225.2,299.6,224.7,299.7,224.7z"/>
					</g>
					<g>
						<path class="st15" d="M294.7,240.7c0,0,0.4,0.7,0,1.7c-0.2,0.5-0.5,1.1-1.1,1.6c-0.6,0.5-1.3,0.8-2.1,1
							c-0.8,0.1-1.6,0.1-2.3-0.1c-0.7-0.2-1.3-0.5-1.7-0.7c-0.9-0.5-1.5-0.8-1.5-0.8c0-0.1,0.7,0.1,1.6,0.5c1,0.4,2.3,0.9,3.8,0.6
							c0.7-0.1,1.4-0.4,1.9-0.8c0.5-0.4,0.8-0.9,1-1.4C294.7,241.4,294.6,240.7,294.7,240.7z"/>
					</g>
					<g>
						<path class="st15" d="M299.1,223.8c0,0,0.1,0,0.2,0.1c0.1,0.1,0.3,0.3,0.4,0.5c0.3,0.5,0.5,1.3,0.6,2.3c0.1,2-0.2,4.9-1,8.1
							l0-0.1c0.5,1.3,1.1,2.6,1.9,3.9c1.1,1.9,2.3,3.5,3.4,5c1.1,1.5,2.4,2.7,3,4.1c0.6,1.3,0.6,2.6,0.3,3.4
							c-0.1,0.4-0.3,0.7-0.4,0.8c-0.1,0.2-0.2,0.2-0.2,0.2c0,0,0.3-0.4,0.5-1.1c0.2-0.7,0.2-1.9-0.4-3.2c-0.6-1.3-1.8-2.5-3-3.9
							c-1.2-1.5-2.4-3.2-3.5-5.1c-0.8-1.3-1.4-2.7-1.9-4l0-0.1l0-0.1c0.8-3.2,1.2-6,1.1-7.9c0-1-0.2-1.8-0.4-2.2
							C299.3,224,299,223.8,299.1,223.8z"/>
					</g>
				</g>
			</g>
			<g>
				<g>
					<path class="st14" d="M205.5,241.6c0,0-1.5,21.3,8.3,24.8c13.6,4.9,29.2-8.7,29.2-8.9c0.1-0.2,16.5-13.5,16.5-13.5l-5.1-14.1
						c0,0-2.1,0-5.4,2.4c-1.2,0.9-20.3,10.9-20.3,10.9S220.4,243.1,205.5,241.6z"/>
					<g>
						<path class="st15" d="M229.5,242.9c0.1,0.2-3.5,1.6-7.9,3.6c-2.2,1-4.1,2-5.5,2.7c-1.4,0.8-2.2,1.2-2.2,1.2
							c0-0.1,0.7-0.7,2.1-1.5c1.3-0.8,3.2-1.9,5.4-2.9c2.2-1,4.2-1.8,5.7-2.3C228.5,243.1,229.4,242.8,229.5,242.9z"/>
					</g>
				</g>
				<path class="st14" d="M272.7,222.2c0,0-2.6-3.7-3.6-3.6c-1,0-7.2,1-7.2,1l-8.7,9.4c0,0-0.6,3.1,1.3,4.2c0,0-0.6,4.8,1.7,6.2
					c0,0,1.7,4.5,3.3,4.6c1.6,0.1,2.1,0,2.1,0s-0.4,2.7,2.1,2.9c1.8,0.1,5.4-0.4,7.3-0.7c0.7-0.1,1.4-0.5,1.8-1.1l2.1-3
					c0.7-1,0.7-2.2,0-3.2l0,0c0,0,1-1.2,1.3-2.2c0.3-1,0-2.9,0-2.9s3.7-3.1,3.8-3.9c0.1-0.8-0.1-1.6-1.7-1.5c0,0-0.3-2.5-2.4-2.5
					c-2,0.1-11.8,0-11.8,0l1.8-1.8c0,0,4.8,1.8,5.3,0.6L272.7,222.2z"/>
				<g>
					<path class="st15" d="M258.8,233c0,0,0.6-0.1,1.6-0.1c1-0.1,2.5-0.1,4.3-0.4c1.8-0.2,4-0.6,6.4-1.1c1.2-0.3,2.4-0.6,3.7-1
						c1.2-0.3,2.3-1.3,3.4-2.2l0.1-0.1l0.1,0c0.4-0.1,0.9-0.1,1.4,0.1c0.2,0.1,0.4,0.4,0.5,0.6c0.1,0.3,0.1,0.5,0.1,0.7
						c0,0.1,0,0.2,0,0.3c0,0.2-0.1,0.3-0.1,0.4c-0.1,0.2-0.2,0.3-0.4,0.5c-0.3,0.3-0.5,0.6-0.8,0.9c-0.5,0.5-1.1,1.1-1.7,1.6l0,0
						l0,0c-2.1,1.6-4,3.1-6,4.3c-1.9,1.2-3.9,1.7-5.5,2c-1.7,0.2-3,0.1-3.9-0.1c-0.4-0.1-0.8-0.2-1-0.3c-0.2-0.1-0.3-0.1-0.3-0.2
						c0-0.1,1.9,0.8,5.2,0.2c1.6-0.3,3.5-0.9,5.4-2c1.9-1.1,3.8-2.7,5.9-4.3l0,0c0.5-0.5,1.1-1,1.6-1.5c0.3-0.3,0.5-0.5,0.8-0.8
						c0.1-0.1,0.2-0.3,0.3-0.4c0-0.1,0.1-0.2,0.1-0.2c0,0,0-0.2,0-0.3c0-0.4-0.1-0.8-0.3-0.9c-0.3-0.2-0.7-0.1-1.1-0.1l0.1-0.1
						c-0.5,0.5-1.1,1-1.7,1.4c-0.6,0.4-1.2,0.8-1.9,1c-1.3,0.4-2.6,0.7-3.8,1c-2.4,0.5-4.6,0.9-6.4,1c-1.8,0.2-3.3,0.2-4.3,0.2
						c-0.5,0-0.9,0-1.2,0C258.9,233.1,258.8,233.1,258.8,233z"/>
				</g>
				<g>
					<path class="st15" d="M276.2,233.8c0,0,0.2,0.5,0.2,1.5c0,0.2,0,0.5,0,0.8c0,0.1,0,0.3,0,0.5c0,0.2-0.1,0.4-0.1,0.5
						c-0.1,0.3-0.3,0.6-0.5,1c-0.1,0.2-0.2,0.3-0.3,0.5l-0.2,0.3c0,0.1,0,0.1-0.1,0.2c0,0,0,0-0.1,0.1c0,0,0,0.1-0.2,0
						c-0.1-0.1-0.1-0.3-0.1-0.3c0,0,0-0.1,0-0.1l0,0l0-0.1l0.4,0.2c-0.6,1.1-1.4,2.2-2.5,3.1c-2,1.8-4.5,2.5-6.2,2.6
						c-0.9,0.1-1.6,0-2-0.1c-0.5-0.1-0.7-0.1-0.7-0.2c0-0.1,1.1,0.1,2.7-0.1c1.7-0.2,4-0.9,5.9-2.6c1.1-0.9,1.9-1.9,2.5-3l0.4,0.2
						C276.5,236.2,276.1,233.8,276.2,233.8z"/>
				</g>
				<g>
					<path class="st15" d="M266.2,224.2c0,0.1-1-0.3-1.5-1.4c-0.2-0.6-0.2-1.1-0.1-1.5c0.1-0.4,0.2-0.6,0.3-0.5
						c0.2,0-0.1,0.9,0.3,1.9C265.6,223.5,266.3,224.1,266.2,224.2z"/>
				</g>
				<g>
					<path class="st15" d="M261.9,244.1c0,0-0.3,0.1-0.8,0.2c-0.5,0-1.3,0-2.1-0.4c-0.8-0.4-1.7-1.2-2.2-2.3
						c-0.2-0.6-0.4-1.3-0.4-1.9c0-0.3-0.1-0.5-0.3-0.7c-0.2-0.2-0.6-0.4-0.8-0.7c-0.6-0.8-0.9-1.7-1-2.5c-0.1-0.9,0-1.7,0.1-2.4
						l0.1,0.2c-1.4-0.9-1.7-2.3-1.7-3.2c0-0.9,0.4-1.3,0.4-1.3c0.1,0-0.2,0.5-0.1,1.3c0,0.8,0.4,2.1,1.6,2.8l0.1,0.1l0,0.1
						c-0.1,0.7-0.1,1.5,0,2.3c0.1,0.8,0.3,1.6,0.9,2.2c0.2,0.2,0.4,0.4,0.7,0.6c0.3,0.2,0.5,0.7,0.5,1c0,0.7,0.1,1.2,0.3,1.7
						c0.4,1,1.2,1.8,1.9,2.2C260.7,244.3,261.9,244,261.9,244.1z"/>
				</g>
			</g>
		</g>
		<g class="st12">
			<path d="M235.3,215.5c-1.2,10.6-2.8,18.7-5.3,26c3.5-2.9,5.8-7.1,6.5-11.6C237.2,225.4,236.1,220,235.3,215.5z"/>
		</g>
		<g class="st12">
			<path d="M303.4,209.7c-0.3-3.8-1.4-7.4-2.8-10.9c1.6,7.5,1.7,15.2,0.5,22.8l0.4-0.8C303.2,217.3,303.7,213.5,303.4,209.7z"/>
		</g>
	</g>
</g>
</svg>
