<svg id="Camada_1" data-name="Camada 1" xmlns="http://www.w3.org/2000/svg" xmlns:xlink="http://www.w3.org/1999/xlink" viewBox="0 0 324.47 106.94"><defs><style>.cls-1{fill:url(#linear-gradient);}.cls-2,.cls-4{fill:#f95e00;}.cls-2,.cls-6{opacity:0.21;}.cls-3{fill:#161933;}.cls-4{opacity:0.27;}.cls-5{fill:url(#Gradiente_sem_nome_17);}.cls-6{fill:#5a0096;}</style><linearGradient id="linear-gradient" x1="130.79" y1="54.9" x2="328.1" y2="54.9" gradientUnits="userSpaceOnUse"><stop offset="0" stop-color="#ffd200"/><stop offset="1" stop-color="#ffa400"/></linearGradient><linearGradient id="Gradiente_sem_nome_17" x1="3.63" y1="54.77" x2="184.35" y2="54.77" gradientUnits="userSpaceOnUse"><stop offset="0" stop-color="#5df75d"/><stop offset="1" stop-color="#0cb50c"/></linearGradient></defs><path class="cls-1" d="M327.61,30.17l-24.4,50.49a10.48,10.48,0,0,1-9.45,5.93h-163V23.21H323.24a4.41,4.41,0,0,1,.52,0h0a4.56,4.56,0,0,1,2,.65,2.61,2.61,0,0,1,.28.17,4.9,4.9,0,0,1,.89.81,2,2,0,0,1,.22.27,5.4,5.4,0,0,1,.44.69c.05.09.09.18.13.27a5.91,5.91,0,0,1,.28.84l.06.25A4.9,4.9,0,0,1,327.61,30.17Z" transform="translate(-3.63 -1.3)"/><path class="cls-2" d="M327.61,30.17l-24.4,50.49a10.48,10.48,0,0,1-9.45,5.93h-163V79.32H290.08a10.48,10.48,0,0,0,9.45-5.93l24.23-50.15h0a4.56,4.56,0,0,1,2,.65,2.61,2.61,0,0,1,.28.17,4.9,4.9,0,0,1,.89.81,2,2,0,0,1,.22.27,5.4,5.4,0,0,1,.44.69c.05.09.09.18.13.27a5.91,5.91,0,0,1,.28.84l.06.25A4.9,4.9,0,0,1,327.61,30.17Z" transform="translate(-3.63 -1.3)"/><path class="cls-3" d="M202.07,53.14a6.82,6.82,0,0,1-1.48,4.57,5.45,5.45,0,0,1-4.37,1.85c-.31,0-.77,0-1.4-.05s-1.09-.06-1.4-.06-.5.15-.5.44,0,.88.1,1.59.11,1.24.11,1.58c0,.18-.09.27-.25.27-.47,0-1.18,0-2.13,0l-2.13,0a.3.3,0,0,1-.34-.34c0-.86,0-2.15,0-3.88s0-3,0-3.88c0-2.44-.1-5-.31-7.69v-.17c0-.14.1-.23.35-.26a40,40,0,0,1,4-.12c1.22,0,2.39,0,3.51.05a6.37,6.37,0,0,1,4.45,1.73A6,6,0,0,1,202.07,53.14Zm-4.65.19c0-1.81-.88-2.72-2.64-2.72-1.24,0-1.9.07-2,.21a20,20,0,0,0-.08,2.69c0,.24,0,.6,0,1.07s0,.82,0,1.07.7.23,2.1.23A2.24,2.24,0,0,0,197.42,53.33Z" transform="translate(-3.63 -1.3)"/><path class="cls-3" d="M217.55,63.14s-.08.09-.23.11a19.42,19.42,0,0,1-2.23.07,18.8,18.8,0,0,1-2.07-.07.84.84,0,0,1-.29-.06s-.1-.1-.16-.23c-.12-.3-.29-.75-.52-1.35-.3-.78-.77-1.92-1.42-3.44a1,1,0,0,0-1-.5q.35,0-1.2,0c-.12,0-.18.19-.18.59s.05,1.32.15,2.36.14,1.84.14,2.37c0,.13,0,.21-.1.23l-.33,0c-.46,0-1.17,0-2.14,0a15,15,0,0,1-2-.07q-.33-.07-.33-.36,0-1.28.12-3.87t.12-3.87q0-4.93-.22-7.69v-.17c0-.13.11-.22.37-.26s1.43-.1,3.55-.14c1.44,0,2.59,0,3.44,0a7.27,7.27,0,0,1,4.33,1.2,4.48,4.48,0,0,1,1.9,3.9,6.27,6.27,0,0,1-.49,2.72,5.49,5.49,0,0,1-1.8,2c-.18.13-.27.24-.27.35l1.42,2.93A20.09,20.09,0,0,1,217.55,63.14Zm-4.89-10.45a2.09,2.09,0,0,0-.93-2,4.67,4.67,0,0,0-2.26-.42c-.74,0-1.13.11-1.18.34a21.92,21.92,0,0,0-.07,2.28c0,.18,0,.44,0,.79s0,.61,0,.78.12.08.37.12a10.17,10.17,0,0,0,1.49.1C211.81,54.71,212.66,54,212.66,52.69Z" transform="translate(-3.63 -1.3)"/><path class="cls-3" d="M230.79,59.63a15.05,15.05,0,0,1-.19,1.84,6.68,6.68,0,0,1-.38,1.73.43.43,0,0,1-.38.23l-.35,0c-.57-.08-2.22-.12-5-.12h-5.32c-.26,0-.39-.11-.39-.34,0-.87.05-2.17.15-3.92s.14-3.05.14-3.92,0-2.53-.14-5c0-.62-.06-1.54-.13-2.78v-.16c0-.18.08-.27.29-.27.58,0,1.44,0,2.59.05s2,0,2.6,0,1.42,0,2.56,0,2-.05,2.56-.05c.41,0,.64.15.7.45s.1.72.18,1.63.12,1.45.12,1.65-.07.24-.23.24H230c-2.07-.17-3.93-.26-5.57-.26-.41,0-.67.1-.76.29a3.65,3.65,0,0,0-.06.9,1.61,1.61,0,0,0,.24,1.05,1,1,0,0,0,.75.22l.46,0h.56q1.46,0,3-.09l.64-.05a6,6,0,0,1,.63,0,.25.25,0,0,1,.28.27,16.26,16.26,0,0,0-.21,1.78,16.56,16.56,0,0,0-.1,1.86q0,.24-.33.24l-1.05-.12c-.45-.05-1.45-.07-3-.07h-1.24c-.31,0-.5.08-.56.23s0,.28,0,.73a3.32,3.32,0,0,0,.12,1.14c.13.29.63.47,1.49.52h1.7c.41,0,1,0,1.84-.11s1.41-.11,1.82-.11C230.71,59.21,230.79,59.35,230.79,59.63Z" transform="translate(-3.63 -1.3)"/><path class="cls-3" d="M249.71,62.89c0,.24-.11.36-.34.36h-4.12c-.23,0-.34-.13-.34-.41,0-.78,0-2,.09-3.53s.09-2.74.09-3.52c0-.23,0-.35-.11-.37a37.36,37.36,0,0,0-1.56,3.6c-.56,1.39-1.12,2.76-1.68,4.14a.45.45,0,0,1-.29.31H241c-.41,0-.65-.07-.73-.23-.42-.85-1-2.1-1.65-3.73s-1.28-3-1.64-3.73a.32.32,0,0,0-.11-.13.57.57,0,0,0-.08.33c0,.77,0,1.91.06,3.43s.06,2.66.06,3.42c0,.28-.11.41-.33.41h-3.89c-.15,0-.25,0-.28-.07a.45.45,0,0,1-.06-.27c0-.84,0-2.11.13-3.81s.12-3,.12-3.82,0-2.59-.12-5.06c0-.65,0-1.61-.1-2.88l0-.2c0-.15.16-.23.49-.23s1.07,0,1.93,0,1.49,0,1.92,0c.08,0,.2.16.36.49l3.4,7.46c.24.51.44.76.61.76s.26-.29.54-.87q1.18-2.45,3.49-7.38c.13-.3.27-.45.43-.45l1,0c.45,0,.79,0,1,0s.49,0,.89-.06.69-.06.89-.06.35.1.35.28c0,.92,0,2.29-.1,4.11s-.1,3.19-.1,4.1,0,2.12.1,3.81S249.71,62.05,249.71,62.89Z" transform="translate(-3.63 -1.3)"/><path class="cls-3" d="M256.61,54.64q0,1.38.06,4.14c.05,1.84.08,3.22.08,4.13,0,.16,0,.26-.11.29l-.3,0a18.08,18.08,0,0,1-2,.09,15.53,15.53,0,0,1-2.17-.09q-.33-.07-.33-.36c0,.13,0-.56.1-2q.21-4.71.21-6.2c0-.83,0-2.07-.08-3.74S252,48,252,47.17a.24.24,0,0,1,.27-.26l1.08,0c.49,0,.85,0,1.09,0s.6,0,1.07,0l1.07,0c.22,0,.33.09.33.26,0,.83,0,2.07-.13,3.73S256.61,53.81,256.61,54.64Z" transform="translate(-3.63 -1.3)"/><path class="cls-3" d="M272.89,57.53a8.12,8.12,0,0,1-.71,4.06q-1.31,2-6.51,2A13.58,13.58,0,0,1,262,63.2,3.64,3.64,0,0,1,259.41,61a9.32,9.32,0,0,1-.3-2.87c0-.31,0-.79,0-1.42s0-1.09,0-1.41c0-.9,0-2.25-.13-4.05s-.13-3.15-.13-4c0-.19.08-.28.25-.28.47,0,1.19,0,2.15.06s1.67.06,2.15.06c.19,0,.29.08.29.25,0,1,0,2.56-.1,4.61s-.1,3.58-.1,4.61a5.46,5.46,0,0,0,.38,2.47,2.31,2.31,0,0,0,2.15.87,2.07,2.07,0,0,0,2.38-2.32c0-1.12,0-2.81-.08-5.07s-.08-3.94-.08-5.06c0-.24.1-.36.29-.36.46,0,1.15,0,2.08-.06s1.61-.06,2.07-.06c.22,0,.34.09.34.28,0,.89,0,2.24-.11,4s-.11,3.15-.11,4.05c0,.25,0,.63,0,1.13S272.89,57.28,272.89,57.53Z" transform="translate(-3.63 -1.3)"/><path class="cls-3" d="M292.55,62.89c0,.24-.11.36-.34.36h-4.12c-.23,0-.34-.13-.34-.41,0-.78,0-2,.09-3.53s.09-2.74.09-3.52c0-.23,0-.35-.11-.37a34.45,34.45,0,0,0-1.56,3.6l-1.68,4.14c-.08.18-.17.28-.29.31h-.46c-.41,0-.65-.07-.73-.23-.42-.85-1-2.1-1.65-3.73s-1.28-3-1.64-3.73a.32.32,0,0,0-.11-.13.57.57,0,0,0-.08.33c0,.77,0,1.91.06,3.43s.06,2.66.06,3.42c0,.28-.11.41-.33.41h-3.89c-.15,0-.25,0-.28-.07a.45.45,0,0,1-.06-.27c0-.84,0-2.11.13-3.81s.12-3,.12-3.82,0-2.59-.12-5.06c0-.65,0-1.61-.1-2.88l0-.2c0-.15.16-.23.49-.23s1.07,0,1.93,0,1.49,0,1.92,0c.08,0,.2.16.36.49l3.4,7.46c.24.51.44.76.61.76s.26-.29.54-.87q1.19-2.45,3.49-7.38c.13-.3.27-.45.43-.45l1,0c.45,0,.79,0,1,0s.49,0,.89-.06.69-.06.89-.06.35.1.35.28c0,.92,0,2.29-.1,4.11s-.1,3.19-.1,4.1,0,2.12.1,3.81S292.55,62.05,292.55,62.89Z" transform="translate(-3.63 -1.3)"/><path class="cls-4" d="M188.39,45.94,164,69.74l1.64,9.58,1.25,7.27H130.79V23.21h16.7l4,8,33.75,4.91A5.74,5.74,0,0,1,188.39,45.94Z" transform="translate(-3.63 -1.3)"/><path class="cls-5" d="M182.7,47.33,159.51,69.94,165,101.86a5.44,5.44,0,0,1-7.9,5.74l-5.51-2.9h0L128.42,92.53,99.75,107.6a5.44,5.44,0,0,1-7.9-5.74l1.63-9.54H62.27a6.54,6.54,0,1,1,0-13.07H95.72l1.6-9.31-7.74-7.55H10.16a6.54,6.54,0,0,1,0-13.07h66l-2-2a5.45,5.45,0,0,1,3-9.29l32.05-4.66,1.61-3.26H56.11a6.54,6.54,0,1,1,0-13.07h61.15l6.27-12.71a5.43,5.43,0,0,1,9.77,0l14.33,29L179.68,38A5.45,5.45,0,0,1,182.7,47.33Z" transform="translate(-3.63 -1.3)"/><path class="cls-6" d="M182.7,47.33,159.51,69.94,165,101.86a5.44,5.44,0,0,1-7.9,5.74l-5.51-2.9c4.28,2.25,11.45,2.32,10.34-3.12s-6.75-33.73-6.75-33.73C177,49,181.06,43.3,178.36,42.22s-33.18-5.4-33.18-5.4S136.54,18.2,130.79,8.76c-2.52-4.14-4.64-5.58-6.21-5.89a5.45,5.45,0,0,1,8.72,1.47l14.33,29L179.68,38A5.45,5.45,0,0,1,182.7,47.33Z" transform="translate(-3.63 -1.3)"/></svg>