<svg id="Capa_1" enable-background="new 0 0 512 512" height="512" viewBox="0 0 512 512" width="512" xmlns="http://www.w3.org/2000/svg"><g><path d="m452.222 219.181h-392.444v-134.907c0-8.531 6.916-15.447 15.447-15.447h361.549c8.531 0 15.447 6.916 15.447 15.447v134.907z" fill="#444"/><path d="m407.899 206.137h-303.798v-195.839c0-5.687 4.611-10.298 10.298-10.298h283.202c5.688 0 10.298 4.611 10.298 10.298z" fill="#d3e1f5"/><path d="m483.076 409.361h-454.152c-15.925 0-28.835-12.91-28.835-28.835v-174.389h511.823v174.389c-.001 15.925-12.91 28.835-28.836 28.835z" fill="#bfbfbf"/><path d="m65.482 409.361v-115.346c0-6.825 5.533-12.358 12.358-12.358h356.32c6.825 0 12.358 5.533 12.358 12.358v115.346z" fill="#5a5a5a"/><path d="m397.601 512h-283.202c-5.688 0-10.298-4.611-10.298-10.298v-185.615h303.798v185.615c0 5.687-4.611 10.298-10.298 10.298z" fill="#d3e1f5"/><g><path d="m356.672 366.156h-201.344c-4.266 0-7.724-3.458-7.724-7.724s3.458-7.724 7.724-7.724h201.345c4.266 0 7.724 3.458 7.724 7.724s-3.458 7.724-7.725 7.724z" fill="#528fd8"/></g><g><path d="m356.672 403.23h-94.493c-4.266 0-7.724-3.458-7.724-7.724s3.458-7.724 7.724-7.724h94.493c4.266 0 7.724 3.458 7.724 7.724s-3.457 7.724-7.724 7.724z" fill="#528fd8"/></g><g><path d="m356.672 440.304h-94.493c-4.266 0-7.724-3.458-7.724-7.724s3.458-7.724 7.724-7.724h94.493c4.266 0 7.724 3.458 7.724 7.724s-3.457 7.724-7.724 7.724z" fill="#528fd8"/></g><g><path d="m356.672 477.377h-94.493c-4.266 0-7.724-3.458-7.724-7.724s3.458-7.724 7.724-7.724h94.493c4.266 0 7.724 3.458 7.724 7.724s-3.457 7.724-7.724 7.724z" fill="#528fd8"/></g><path d="m224.326 469.654h-63.849c-2.844 0-5.149-2.305-5.149-5.149v-63.849c0-2.844 2.305-5.149 5.149-5.149h63.849c2.844 0 5.149 2.305 5.149 5.149v63.849c0 2.843-2.305 5.149-5.149 5.149z" fill="#528fd8"/><path d="m471.043 206.136v174.389c0 15.925-12.91 28.835-28.835 28.835h40.869c15.925 0 28.835-12.91 28.835-28.835v-174.389z" fill="#acacac"/><path d="m511.911 236.345h-511.822v-54.232c0-15.925 12.91-28.835 28.835-28.835h454.153c15.925 0 28.835 12.91 28.835 28.835v54.232z" fill="#838383"/><path d="m483.076 153.277h-40.869c15.925 0 28.835 12.91 28.835 28.835v54.232h40.869v-54.232c0-15.924-12.909-28.835-28.835-28.835z" fill="#5a5a5a"/><path d="m456.625 209.229h-37.589c-7.963 0-14.418-6.455-14.418-14.418 0-7.963 6.455-14.418 14.418-14.418h37.589c7.963 0 14.418 6.455 14.418 14.418 0 7.963-6.455 14.418-14.418 14.418z" fill="#e94444"/></g></svg>