<svg xmlns="http://www.w3.org/2000/svg" viewBox="0 0 476.72 426.18"><defs><style>.cls-1{fill:#f5f5f5;}.cls-2{fill:#e0e0e0;}.cls-3{fill:#e6e6e6;}.cls-4{fill:#ebebeb;}.cls-5{fill:#27debf;}.cls-11,.cls-12,.cls-20,.cls-22,.cls-6,.cls-7,.cls-8{fill:#fff;}.cls-6{opacity:0.5;}.cls-7{opacity:0.7;}.cls-8{opacity:0.85;}.cls-24,.cls-9{opacity:0.3;}.cls-10{opacity:0.15;}.cls-11{opacity:0.4;}.cls-12{opacity:0.8;}.cls-13{fill:#455a64;}.cls-14{fill:#37474f;}.cls-15{fill:#263238;}.cls-16{fill:#f0f0f0;}.cls-17{fill:#fafafa;}.cls-18{opacity:0.1;}.cls-19,.cls-23{opacity:0.2;}.cls-20{opacity:0.6;}.cls-21{fill:#ffa8a7;}.cls-25{fill:#f28f8f;}@keyframes to_down {from {transform: translateY(0);}to {transform: translateY(20px);}}.to_down {animation: 1s to_down ease infinite alternate;}</style></defs><title>upload</title><g id="Floor"><ellipse id="Floor-2" data-name="Floor" class="cls-1" cx="238.36" cy="281.88" rx="238.36" ry="144.31"/></g><g id="Shadows"><ellipse id="Shadow" class="cls-2" cx="391.41" cy="327.9" rx="44.77" ry="25.85"/><path id="Shadow-2" data-name="Shadow" class="cls-3" d="M30.6,342.89l130.87,75.56a10.37,10.37,0,0,0,9.35,0l170.75-98.34c2.58-1.49,2.58-3.9,0-5.38L210.09,239.07a10.34,10.34,0,0,0-9.35,0L30.59,337.5C28,339,28,341.4,30.6,342.89Z" transform="translate(-12.94 -51.8)"/></g><g id="Gears"><g id="Gear"><path class="cls-2" d="M169,85.41l-1.4-8.14-7.26,4.78a10,10,0,0,0-2.77-3.35l3.48-9.4-6.47-1.45L149.81,77a17.5,17.5,0,0,0-5,1.62l-2.06-6.86L135,77.81l.51,8.09a42.72,42.72,0,0,0-4.29,5.66l-6.4-.32-4.49,10.06,5.5,2.35a32.66,32.66,0,0,0-1.08,6.37l-7,6.42,1.4,8.14,7.26-4.78a10,10,0,0,0,2.76,3.35l-3.47,9.4L132.2,134l6.84-6.66c1.58-.25,1.2-3.22,2.92-4.06l2.07,6.86,7.75-6.09-.2-3.18c1.56-1.75,7.49-5.6,8.77-7.6l1.6-2.66,4.49-10.06-2.09-3.78L162,91.82Zm-23.67,26.82c-5.94,4.67-7.75,5.69-8.82-.55s2.4-15.76,8.34-20.44,8.22-5,9.3,1.22S151.29,107.55,145.34,112.23Z" transform="translate(-12.94 -51.8)"/><polygon class="cls-1" points="141.66 16.05 150.12 20.93 145.34 30.04 136.88 25.16 141.66 16.05"/><polygon class="cls-1" points="163.13 30.35 155.87 35.13 147.41 30.25 154.67 25.47 163.13 30.35"/><polygon class="cls-2" points="161.97 53.62 156.47 51.28 148.01 46.4 153.5 48.74 161.97 53.62"/><polygon class="cls-2" points="112.8 80.75 121.26 85.63 124.74 76.23 116.27 71.35 112.8 80.75"/><polygon class="cls-2" points="139.56 83.21 131.09 78.33 129.03 71.47 137.49 76.35 139.56 83.21"/><path class="cls-4" d="M177.47,90.29l-1.4-8.14-7.26,4.78a10,10,0,0,0-2.76-3.35l3.47-9.4-6.47-1.45-4.77,9.11a17.3,17.3,0,0,0-5,1.62l-2.07-6.86-7.75,6.09.51,8.09a42.66,42.66,0,0,0-4.28,5.66l-6.4-.32-4.49,10.06,5.49,2.35a32.66,32.66,0,0,0-1.08,6.37l-7,6.42,1.4,8.14,7.26-4.78a10,10,0,0,0,2.76,3.35l-3.47,9.4,6.47,1.44,4.78-9.1a17.66,17.66,0,0,0,5-1.62l2.07,6.86,7.75-6.09-.51-8.09a43.32,43.32,0,0,0,4.28-5.66l6.41.32,4.48-10.06-5.49-2.35a32.66,32.66,0,0,0,1.08-6.37Zm-23.66,26.82c-5.95,4.67-11.64,3.4-12.71-2.85S144,99.17,149.91,94.5s11.64-3.4,12.71,2.84S159.75,112.43,153.81,117.11Z" transform="translate(-12.94 -51.8)"/><polygon class="cls-1" points="138.29 24.8 129.83 19.92 122.08 26.01 130.55 30.89 138.29 24.8"/><polygon class="cls-2" points="122.08 26.01 122.59 34.1 131.05 38.98 130.55 30.89 122.08 26.01"/><polygon class="cls-1" points="126.77 44.64 118.31 39.76 111.91 39.44 120.37 44.32 126.77 44.64"/><polygon class="cls-2" points="111.91 39.44 107.42 49.5 115.88 54.38 120.37 44.32 111.91 39.44"/><polygon class="cls-1" points="120.29 63.1 111.83 58.22 104.85 64.64 113.31 69.52 120.29 63.1"/><polygon class="cls-2" points="114.72 77.66 106.25 72.78 104.85 64.64 113.31 69.52 114.72 77.66"/><polygon class="cls-1" points="150.12 20.93 141.66 16.05 148.12 17.5 156.59 22.38 150.12 20.93"/></g><g id="Gear-2" data-name="Gear"><path class="cls-2" d="M105.8,81.74V69.67L96.19,74a17.2,17.2,0,0,0-2.59-5.72l6.05-12.21L92.26,51.8,84.71,63.15a17.23,17.23,0,0,0-6.25.61L77.4,53.27,67,59.31,65.89,71a51.69,51.69,0,0,0-6.25,6.6L52.09,75,44.7,87.8l6,5.22a51.74,51.74,0,0,0-2.59,8.71l-9.61,6.77v12.08l9.61-4.34A17.11,17.11,0,0,0,50.75,122l-6,12.21,7.39,4.27,7.55-11.35a17,17,0,0,0,6.25-.61L67,137l10.45-6,1.06-11.7a19.66,19.66,0,0,0,8.38-5.88l5.42,1.9,7.39-12.8-4.54-3.91c1.14-2.89,1.26-7.51,1.08-10ZM72.18,111.9c-8,4.63-13,1.34-13-7.92s6.63-20.62,14.66-25.25,12.88-1.26,12.88,8S80.2,107.26,72.18,111.9Z" transform="translate(-12.94 -51.8)"/><polygon class="cls-1" points="87.73 4.85 79.32 0 71.77 11.35 80.18 16.2 87.73 4.85"/><polygon class="cls-1" points="101.28 22.72 92.87 17.87 83.26 22.2 91.67 27.05 101.28 22.72"/><polygon class="cls-2" points="62.42 90.02 54.01 85.17 52.96 74.68 61.37 79.53 62.42 90.02"/><polygon class="cls-2" points="31.76 82.37 40.17 87.22 46.23 75.01 37.82 70.16 31.76 82.37"/><path class="cls-4" d="M114.21,86.59V74.52l-9.61,4.33A17.2,17.2,0,0,0,102,73.13l6-12.21-7.39-4.27L93.12,68a17.23,17.23,0,0,0-6.25.61L85.81,58.12l-10.45,6L74.3,75.87a51.69,51.69,0,0,0-6.25,6.6L60.5,79.84,53.11,92.65l6,5.22a51.74,51.74,0,0,0-2.59,8.71L47,113.35v12.08l9.61-4.34a17.11,17.11,0,0,0,2.59,5.72l-6,12.21,7.39,4.27,7.55-11.35a17,17,0,0,0,6.25-.61l1.06,10.49,10.45-6,1.06-11.7a51.79,51.79,0,0,0,6.25-6.61l7.55,2.63,7.39-12.8-6-5.22a52.13,52.13,0,0,0,2.59-8.72ZM80.59,116.75c-8,4.63-14.53.87-14.53-8.39s6.5-20.53,14.53-25.16,14.52-.88,14.52,8.38S88.61,112.11,80.59,116.75Z" transform="translate(-12.94 -51.8)"/><polygon class="cls-1" points="46.7 25.82 55.12 30.67 47.57 28.04 39.16 23.19 46.7 25.82"/><rect class="cls-1" x="45.21" y="78.96" width="14.79" height="9.71" transform="translate(-59.22 35.71) rotate(-60.03)"/><polygon class="cls-2" points="31.76 36 40.17 40.85 46.23 46.06 37.82 41.22 31.76 36"/><polygon class="cls-1" points="35.22 49.93 43.63 54.78 34.02 61.55 25.61 56.7 35.22 49.93"/><polygon class="cls-2" points="25.61 56.7 34.02 61.55 34.02 73.62 25.61 68.77 25.61 56.7"/><polygon class="cls-1" points="72.88 6.32 64.47 1.47 54.01 7.51 62.42 12.36 72.88 6.32"/></g></g><g id="Device"><g id="Laptop"><g id="Laptop-2" data-name="Laptop"><path class="cls-5" d="M41.73,337.28a8.93,8.93,0,0,0,4.17,6.91L162.49,411.5a9.17,9.17,0,0,0,8.32,0l159.54-92.1a7.82,7.82,0,0,0,0-13.82l-116.6-67.32a9.17,9.17,0,0,0-8.32,0L45.89,330.37A9,9,0,0,0,41.73,337.28Z" transform="translate(-12.94 -51.8)"/><path class="cls-6" d="M166.65,403.49v9a8.56,8.56,0,0,1-4.16-1L45.89,344.19a7.79,7.79,0,0,1-.42-13.55c-1.86,1.33-1.72,3.29.42,4.53l116.6,67.32A8.45,8.45,0,0,0,166.65,403.49Z" transform="translate(-12.94 -51.8)"/><path class="cls-5" d="M37.83,330.52a8.92,8.92,0,0,1-3.9-7.06V184.32a9.19,9.19,0,0,1,4.16-7.21L197.62,85a7.82,7.82,0,0,1,12,6.91V231.05a9.19,9.19,0,0,1-4.16,7.21L45.89,330.37A8.92,8.92,0,0,1,37.83,330.52Z" transform="translate(-12.94 -51.8)"/><path class="cls-6" d="M45.4,330.62a8.89,8.89,0,0,1-7.57-.11,8.92,8.92,0,0,1-3.9-7.05V184.31a8.4,8.4,0,0,1,1.22-4.09l7.8,4.5h0a8.51,8.51,0,0,0-1.22,4.09V328C41.73,330.43,43.34,331.53,45.4,330.62Z" transform="translate(-12.94 -51.8)"/><path class="cls-7" d="M41.73,188.83V328c0,2.65,1.87,3.73,4.16,2.4l159.54-92.11a9.19,9.19,0,0,0,4.16-7.21V91.91c0-2.65-1.86-3.73-4.16-2.4L45.89,181.62A9.2,9.2,0,0,0,41.73,188.83Z" transform="translate(-12.94 -51.8)"/><path class="cls-5" d="M45.89,335.17l116.6,67.32a9.17,9.17,0,0,0,8.32,0l159.54-92.11c2.3-1.32,2.3-3.48,0-4.8l-116.6-67.32a9.17,9.17,0,0,0-8.32,0L45.89,330.37C43.6,331.7,43.6,333.85,45.89,335.17Z" transform="translate(-12.94 -51.8)"/><path class="cls-8" d="M45.89,335.17l116.6,67.32a9.17,9.17,0,0,0,8.32,0l159.54-92.11c2.3-1.32,2.3-3.48,0-4.8l-116.6-67.32a9.17,9.17,0,0,0-8.32,0L45.89,330.37C43.6,331.7,43.6,333.85,45.89,335.17Z" transform="translate(-12.94 -51.8)"/><path class="cls-5" d="M48.13,189.34,202,100.56c1.37-.8,2.49-.15,2.49,1.44V222.45a5.52,5.52,0,0,1-2.49,4.32L48.13,315.55c-1.38.8-2.49.15-2.49-1.44V193.66A5.51,5.51,0,0,1,48.13,189.34Z" transform="translate(-12.94 -51.8)"/><path class="cls-9" d="M48.13,189.34,202,100.56c1.37-.8,2.49-.15,2.49,1.44V222.45a5.52,5.52,0,0,1-2.49,4.32L48.13,315.55c-1.38.8-2.49.15-2.49-1.44V193.66A5.51,5.51,0,0,1,48.13,189.34Z" transform="translate(-12.94 -51.8)"/><path class="cls-5" d="M203.37,225.43a5.32,5.32,0,0,0,1.07-3V102c0-1.59-1.12-2.24-2.49-1.44l-107.45,62Z" transform="translate(-12.94 -51.8)"/><path class="cls-10" d="M203.37,225.43a5.32,5.32,0,0,0,1.07-3V102c0-1.59-1.12-2.24-2.49-1.44l-107.45,62Z" transform="translate(-12.94 -51.8)"/><path class="cls-5" d="M48.13,189.34a5.51,5.51,0,0,0-2.49,4.32V313l152.82-88.21a5.51,5.51,0,0,0,2.5-4.32V101.13Z" transform="translate(-12.94 -51.8)"/><path class="cls-5" d="M59.43,331.57l148.08-85.49a4.56,4.56,0,0,1,4.16,0l7.58,4.37a1.27,1.27,0,0,1,0,2.4L71.14,338.33a4.59,4.59,0,0,1-4.16,0L59.43,334A1.27,1.27,0,0,1,59.43,331.57Z" transform="translate(-12.94 -51.8)"/><path class="cls-11" d="M59.43,331.57l148.08-85.49a4.56,4.56,0,0,1,4.16,0l7.58,4.37a1.27,1.27,0,0,1,0,2.4L71.14,338.33a4.59,4.59,0,0,1-4.16,0L59.43,334A1.27,1.27,0,0,1,59.43,331.57Z" transform="translate(-12.94 -51.8)"/><path class="cls-5" d="M79,342.84,227,257.34a4.62,4.62,0,0,1,4.16,0l46.59,26.9a1.27,1.27,0,0,1,0,2.4L129.87,372a4.64,4.64,0,0,1-4.17,0L79,345.24A1.27,1.27,0,0,1,79,342.84Z" transform="translate(-12.94 -51.8)"/><path class="cls-11" d="M79,342.84,227,257.34a4.62,4.62,0,0,1,4.16,0l46.59,26.9a1.27,1.27,0,0,1,0,2.4L129.87,372a4.64,4.64,0,0,1-4.17,0L79,345.24A1.27,1.27,0,0,1,79,342.84Z" transform="translate(-12.94 -51.8)"/><path class="cls-5" d="M211.69,295.81l4.64-2.68c.19-.11.18-.3,0-.43l-5.36-3.09a.84.84,0,0,0-.74,0l-4.64,2.68c-.19.11-.18.31,0,.43l5.36,3.09A.81.81,0,0,0,211.69,295.81Zm-9.15-10.64-4.64,2.68c-.19.11-.18.3,0,.43l5.36,3.09a.84.84,0,0,0,.74,0l4.64-2.68c.2-.11.18-.31,0-.43l-5.36-3.09A.84.84,0,0,0,202.54,285.17Zm-15,8.65-7.84,4.53c-.2.11-.19.31,0,.43l5.36,3.09a.84.84,0,0,0,.74,0l7.85-4.53c.2-.12.18-.31,0-.43l-5.36-3.09A.81.81,0,0,0,187.56,293.82Zm8.2-4.74-4.63,2.68c-.2.11-.19.31,0,.43l5.37,3.09a.81.81,0,0,0,.74,0l4.63-2.68c.2-.11.19-.3,0-.43l-5.37-3.09A.84.84,0,0,0,195.76,289.08Zm-18.18,10.51-4.64,2.67c-.2.12-.19.31,0,.43l5.36,3.1a.84.84,0,0,0,.74,0l4.63-2.68c.2-.11.19-.3,0-.42l-5.36-3.1A.81.81,0,0,0,177.58,299.59Zm-6.78,3.91-4.64,2.68c-.19.11-.18.3,0,.42l5.36,3.1a.81.81,0,0,0,.74,0l4.64-2.67c.19-.12.18-.31,0-.43l-5.36-3.1A.81.81,0,0,0,170.8,303.5Zm21.09,12.59,4.63-2.68c.2-.11.19-.31,0-.43l-5.36-3.09a.81.81,0,0,0-.74,0l-4.64,2.68c-.2.11-.19.3,0,.43l5.36,3.09A.84.84,0,0,0,191.89,316.09ZM185.11,320l4.64-2.68c.19-.11.18-.3,0-.43l-5.36-3.09a.84.84,0,0,0-.74,0L179,316.46c-.19.11-.18.31,0,.43l5.36,3.09A.84.84,0,0,0,185.11,320Zm-6.78,3.91,4.64-2.68c.2-.11.19-.3,0-.42l-5.36-3.1a.81.81,0,0,0-.74,0l-4.63,2.67c-.2.12-.19.31,0,.43l5.37,3.1A.82.82,0,0,0,178.33,323.91Zm-6.77,3.91,4.64-2.67c.19-.12.18-.31,0-.43l-5.36-3.1a.81.81,0,0,0-.74,0l-4.64,2.68c-.2.11-.18.3,0,.42l5.36,3.1A.81.81,0,0,0,171.56,327.82Zm33.35-28.1,4.64-2.68c.2-.11.19-.3,0-.42l-5.36-3.1a.81.81,0,0,0-.74,0l-4.63,2.67c-.2.12-.19.31,0,.43l5.36,3.1A.84.84,0,0,0,204.91,299.72Zm-6.25,12.45,10.35-6c.19-.11.18-.3,0-.43l-13-7.51a.84.84,0,0,0-.74,0l-5.35,3.09c-.2.11-.18.31,0,.43l6.89,4c.21.12.22.31,0,.42l-4.28,2.48c-.2.11-.19.3,0,.42l5.36,3.1A.81.81,0,0,0,198.66,312.17ZM164,307.41l-4.63,2.68c-.2.11-.19.3,0,.42l5.36,3.1a.84.84,0,0,0,.74,0l4.64-2.68c.2-.12.19-.31,0-.43l-5.36-3.09A.81.81,0,0,0,164,307.41Zm-6.77,3.91L152.61,314c-.2.11-.19.3,0,.43l5.36,3.09a.84.84,0,0,0,.74,0l4.63-2.68c.2-.11.19-.3,0-.43L158,311.34A.84.84,0,0,0,157.25,311.32Zm-33.87,43.87a.81.81,0,0,0,.74,0l4.64-2.68c.2-.11.19-.3,0-.43L123.37,349a.84.84,0,0,0-.74,0L118,351.67c-.2.12-.19.31,0,.43ZM103,342.62,98.4,345.3c-.2.11-.19.3,0,.43l5.36,3.09a.84.84,0,0,0,.74,0l4.63-2.68c.2-.11.19-.31,0-.43l-5.37-3.09A.82.82,0,0,0,103,342.62Zm10.9,9.18a.84.84,0,0,0,.74,0l4.64-2.68c.2-.11.18-.31,0-.43l-5.36-3.09a.84.84,0,0,0-.74,0l-4.64,2.68c-.19.11-.18.3,0,.43Zm21.41,5.77,4.64-2.68c.19-.11.18-.3,0-.42l-5.36-3.1a.81.81,0,0,0-.74,0L129.22,354c-.19.12-.18.31,0,.43l5.36,3.1A.81.81,0,0,0,135.35,357.57Zm-7.52,3.9a.81.81,0,0,0,.74,0l4.64-2.67c.2-.12.18-.31,0-.43l-5.36-3.1a.84.84,0,0,0-.74,0L122.45,358c-.2.11-.19.3,0,.42Zm-18-22.76-4.63,2.68c-.2.11-.19.3,0,.42l5.36,3.1a.81.81,0,0,0,.74,0l4.64-2.67c.2-.12.18-.31,0-.43l-5.36-3.1A.84.84,0,0,0,109.81,338.71Zm33.88-19.56-4.63,2.67c-.2.12-.19.31,0,.43l5.36,3.1a.81.81,0,0,0,.74,0l4.64-2.67c.2-.12.19-.31,0-.43l-5.36-3.1A.81.81,0,0,0,143.69,319.15Zm-27.1,15.65L112,337.47c-.2.12-.18.31,0,.43l5.36,3.1a.81.81,0,0,0,.74,0l4.64-2.68c.19-.11.18-.3,0-.42l-5.36-3.1A.81.81,0,0,0,116.59,334.8Zm33.88-19.56-4.64,2.67c-.19.12-.18.31,0,.43l5.36,3.09a.81.81,0,0,0,.74,0l4.64-2.68c.19-.11.18-.3,0-.42l-5.36-3.1A.81.81,0,0,0,150.47,315.24Zm-13.55,7.82-4.64,2.68c-.2.11-.18.3,0,.42l5.36,3.1a.81.81,0,0,0,.74,0L143,326.6c.2-.12.19-.31,0-.43l-5.36-3.09A.81.81,0,0,0,136.92,323.06ZM130.14,327l-4.64,2.68c-.19.11-.18.3,0,.43l5.36,3.09a.84.84,0,0,0,.74,0l4.64-2.68c.19-.11.18-.31,0-.43L130.88,327A.84.84,0,0,0,130.14,327Zm-6.78,3.91-4.63,2.68c-.2.12-.19.31,0,.43l5.37,3.09a.81.81,0,0,0,.74,0l4.63-2.68c.2-.11.19-.3,0-.43l-5.37-3.09A.84.84,0,0,0,123.36,330.88ZM158,335.65l4.63-2.68c.2-.11.19-.3,0-.43l-5.37-3.09a.82.82,0,0,0-.73,0l-4.64,2.68c-.2.11-.19.3,0,.43l5.37,3.09A.84.84,0,0,0,158,335.65Zm59.51-59.13-4.64,2.68c-.19.11-.18.31,0,.43l5.36,3.09a.81.81,0,0,0,.74,0l4.64-2.68c.2-.11.18-.3,0-.43l-5.36-3.09A.84.84,0,0,0,217.52,276.52Zm-8.2,4.74-4.64,2.68c-.2.11-.18.3,0,.42l5.36,3.1a.81.81,0,0,0,.74,0l4.63-2.67c.2-.12.19-.31,0-.43l-5.36-3.1A.84.84,0,0,0,209.32,281.26Zm15-8.65-4.64,2.68c-.2.11-.18.3,0,.43l5.36,3.09a.84.84,0,0,0,.74,0l4.63-2.68c.2-.12.19-.31,0-.43L225,272.63A.81.81,0,0,0,224.3,272.61Zm-35.08,36.17,4.64-2.68c.2-.11.18-.3,0-.42l-5.36-3.1a.81.81,0,0,0-.74,0l-4.64,2.67c-.19.12-.18.31,0,.43l5.36,3.1A.84.84,0,0,0,189.22,308.78Zm42.59-40.07a.84.84,0,0,0-.74,0l-4.63,2.68c-.2.11-.19.3,0,.42l5.36,3.1a.81.81,0,0,0,.74,0l4.64-2.67c.2-.12.19-.31,0-.43Zm-67,63,4.64-2.67c.2-.12.18-.31,0-.43L164,325.54a.81.81,0,0,0-.74,0l-4.64,2.68c-.19.11-.18.3,0,.42l5.36,3.1A.81.81,0,0,0,164.78,331.73Zm83.1-48,4.64-2.68c.2-.11.18-.3,0-.43l-5.36-3.09a.84.84,0,0,0-.74,0l-4.64,2.68c-.19.11-.18.3,0,.43l5.36,3.09A.84.84,0,0,0,247.88,283.76Zm-14.43-.51,4.63-2.68c.2-.11.19-.3,0-.43l-5.36-3.09a.84.84,0,0,0-.74,0l-4.64,2.68c-.2.11-.19.3,0,.43l5.36,3.09A.84.84,0,0,0,233.45,283.25Zm6-10.11a.81.81,0,0,0-.74,0l-4.63,2.68c-.2.11-.19.3,0,.42l5.36,3.1a.84.84,0,0,0,.74,0l4.64-2.68c.2-.12.19-.31,0-.43Zm1.43-.83,13,7.52a.81.81,0,0,0,.74,0l4.63-2.67c.2-.12.19-.31,0-.43l-13-7.52a.84.84,0,0,0-.74,0l-4.64,2.68C240.68,272,240.69,272.19,240.9,272.31ZM225.18,281l-4.64,2.67c-.19.12-.18.31,0,.43l5.36,3.09a.81.81,0,0,0,.74,0l4.64-2.68c.19-.11.18-.3,0-.42l-5.36-3.1A.81.81,0,0,0,225.18,281Zm-51,29.44-4.64,2.68c-.2.11-.18.3,0,.42l5.36,3.1a.84.84,0,0,0,.74,0l4.64-2.68c.19-.12.18-.31,0-.43l-5.36-3.09A.81.81,0,0,0,174.18,310.39Zm66.19-22.74a.81.81,0,0,0,.74,0l4.63-2.68c.2-.11.19-.3,0-.42l-5.37-3.1a.82.82,0,0,0-.73,0L235,284.13c-.2.12-.19.31,0,.43ZM181,306.48l-4.63,2.68c-.2.11-.19.3,0,.42l5.36,3.1a.81.81,0,0,0,.74,0l4.63-2.67c.2-.12.19-.31,0-.43l-5.37-3.1A.84.84,0,0,0,181,306.48Zm-50.79,44.8a.84.84,0,0,0,.74,0l4.64-2.68c.19-.11.18-.31,0-.43l-5.36-3.09a.84.84,0,0,0-.74,0l-4.64,2.68c-.19.11-.18.3,0,.43ZM120,341.69l-4.64,2.68c-.2.11-.18.3,0,.42l5.36,3.1a.81.81,0,0,0,.74,0l4.63-2.67c.2-.12.19-.31,0-.43l-5.36-3.1A.84.84,0,0,0,120,341.69Zm17.71,5.69,4.63-2.67c.2-.12.19-.31,0-.43l-5.36-3.09a.81.81,0,0,0-.74,0l-4.64,2.68c-.2.11-.19.3,0,.42l5.36,3.1A.81.81,0,0,0,137.68,347.38Zm6.77-3.91,4.64-2.67c.2-.12.18-.31,0-.43l-5.36-3.1a.81.81,0,0,0-.74,0l-4.63,2.67c-.2.12-.19.31,0,.43l5.36,3.1A.81.81,0,0,0,144.45,343.47Zm6.78-3.91,4.64-2.68c.19-.11.18-.3,0-.42l-5.36-3.1a.81.81,0,0,0-.74,0L145.1,336c-.2.12-.18.31,0,.43l5.36,3.09A.81.81,0,0,0,151.23,339.56Zm-24.49-1.78-4.63,2.67c-.2.12-.19.31,0,.43l5.36,3.1a.81.81,0,0,0,.74,0l4.64-2.67c.2-.12.19-.31,0-.43l-5.36-3.1A.81.81,0,0,0,126.74,337.78Zm6.78-3.91-4.64,2.67c-.19.12-.18.31,0,.43l5.36,3.09a.81.81,0,0,0,.74,0l4.64-2.68c.19-.11.18-.3,0-.42l-5.36-3.1A.81.81,0,0,0,133.52,333.87Zm27.11-15.65L156,320.89c-.2.12-.19.31,0,.43l5.36,3.09a.81.81,0,0,0,.74,0l4.63-2.68c.2-.11.19-.3,0-.42l-5.36-3.1A.81.81,0,0,0,160.63,318.22Zm-6.78,3.91-4.64,2.68c-.19.11-.18.3,0,.42l5.36,3.1a.81.81,0,0,0,.74,0l4.64-2.67c.19-.12.18-.31,0-.43l-5.36-3.1A.81.81,0,0,0,153.85,322.13Zm13.55-7.83L162.77,317c-.2.11-.19.31,0,.43l5.36,3.09a.81.81,0,0,0,.74,0l4.64-2.68c.2-.11.18-.3,0-.43l-5.36-3.09A.84.84,0,0,0,167.4,314.3ZM140.3,330l-4.64,2.68c-.2.11-.19.3,0,.43l5.36,3.09a.84.84,0,0,0,.74,0l4.63-2.68c.2-.11.19-.3,0-.43L141,330A.84.84,0,0,0,140.3,330Zm6.77-3.91-4.63,2.68c-.2.11-.19.3,0,.42l5.36,3.1a.84.84,0,0,0,.74,0l4.64-2.68c.2-.12.19-.31,0-.43l-5.36-3.09A.81.81,0,0,0,147.07,326Zm-4.94,27.62,4.63-2.68c.2-.11.19-.3,0-.42l-5.37-3.1a.81.81,0,0,0-.74,0L136,350.12c-.2.12-.19.31,0,.43l5.37,3.09A.81.81,0,0,0,142.13,353.66Zm-39.77-4L97,346.55a.84.84,0,0,0-.74,0l-4.64,2.68c-.19.11-.18.31,0,.43L97,352.73a.81.81,0,0,0,.74,0l4.64-2.68C102.58,350,102.57,349.77,102.36,349.64Zm10.16,3-5.37-3.1a.84.84,0,0,0-.74,0l-7.13,4.12c-.2.12-.18.31,0,.43l5.36,3.09a.81.81,0,0,0,.74,0l7.13-4.12C112.74,352.94,112.73,352.75,112.52,352.63Zm-18.39-9-5.36-3.09a.81.81,0,0,0-.74,0l-5.7,3.29c-.2.12-.19.31,0,.43l5.36,3.1a.81.81,0,0,0,.74,0l5.71-3.29C94.36,344,94.35,343.78,94.13,343.66Zm4.38-2.53a.81.81,0,0,0,.74,0l4.64-2.68c.19-.11.18-.3,0-.42L98.5,335a.81.81,0,0,0-.74,0l-4.64,2.67c-.2.12-.18.31,0,.43ZM122,356l-5.36-3.1a.81.81,0,0,0-.74,0l-8.92,5.14c-.2.12-.18.31,0,.43l5.36,3.1a.81.81,0,0,0,.74,0l8.91-5.15C122.18,356.33,122.17,356.14,122,356Zm4.45,6.27-5.36-3.09a.84.84,0,0,0-.74,0l-5.71,3.3c-.2.11-.19.3,0,.42L120,366a.81.81,0,0,0,.74,0l5.7-3.29C126.63,362.61,126.62,362.41,126.41,362.29Zm22.48-50.24a.84.84,0,0,0,.74,0l4.64-2.68c.2-.11.18-.3,0-.42l-5.36-3.1a.81.81,0,0,0-.74,0l-4.63,2.67c-.2.12-.19.31,0,.43Zm-13.55,7.82a.84.84,0,0,0,.74,0l4.64-2.68c.19-.11.18-.31,0-.43l-5.36-3.09a.81.81,0,0,0-.74,0L130,316.35c-.19.11-.18.3,0,.43Zm-30,17.35a.84.84,0,0,0,.74,0l4.63-2.68c.2-.11.19-.3,0-.43L105.27,331a.84.84,0,0,0-.74,0L99.9,333.7c-.2.11-.19.3,0,.43ZM142.12,316a.81.81,0,0,0,.74,0l4.63-2.67c.2-.12.19-.31,0-.43l-5.37-3.1a.82.82,0,0,0-.73,0l-4.64,2.68c-.2.11-.19.3,0,.42Zm-13.56,7.82a.84.84,0,0,0,.74,0l4.64-2.68c.2-.11.18-.3,0-.43l-5.36-3.09a.84.84,0,0,0-.74,0l-4.63,2.68c-.2.11-.19.31,0,.43Zm1.57,39a.81.81,0,0,0-.74,0l-7.13,4.12c-.2.11-.19.3,0,.43l5.37,3.09a.84.84,0,0,0,.74,0l7.13-4.12c.2-.12.18-.31,0-.43Zm-11.29-33.4a.81.81,0,0,0,.74,0l4.63-2.67c.2-.12.19-.31,0-.43l-5.36-3.1a.81.81,0,0,0-.74,0l-4.64,2.68c-.2.11-.18.3,0,.42Zm-6.78,3.91a.84.84,0,0,0,.74,0l4.64-2.68c.2-.12.18-.31,0-.43l-5.36-3.09a.81.81,0,0,0-.74,0l-4.64,2.68c-.19.11-.18.3,0,.42Zm143.61-43a.84.84,0,0,0-.74,0l-11.41,6.59c-.2.11-.19.3,0,.43l5.36,3.09a.84.84,0,0,0,.74,0l11.41-6.59c.2-.12.19-.31,0-.43Zm-15,8.65a.81.81,0,0,0-.74,0l-4.63,2.67c-.2.12-.19.31,0,.43l5.36,3.1a.81.81,0,0,0,.74,0l4.64-2.68c.2-.11.19-.3,0-.42ZM148.9,349.75l4.64-2.68c.2-.11.18-.3,0-.43l-5.36-3.09a.84.84,0,0,0-.74,0l-4.64,2.68c-.19.11-.18.3,0,.43l5.36,3.09A.84.84,0,0,0,148.9,349.75Zm78.24-43a.81.81,0,0,0-.74,0l-4.64,2.68c-.19.11-.18.3,0,.43l5.36,3.09a.84.84,0,0,0,.74,0l4.64-2.68c.19-.11.18-.31,0-.43Zm35.31-20.39a.81.81,0,0,0-.74,0l-4.64,2.67c-.19.12-.18.31,0,.43l5.36,3.1a.84.84,0,0,0,.74,0l4.64-2.68c.19-.11.18-.3,0-.42Zm12.14-.81-13-7.52a.84.84,0,0,0-.74,0l-4.64,2.68c-.2.11-.19.3,0,.43l13,7.51a.81.81,0,0,0,.74,0l4.63-2.68C274.81,285.9,274.8,285.71,274.59,285.59Zm-72.77,35.82a.81.81,0,0,0-.74,0l-5.71,3.3c-.2.11-.18.3,0,.42l5.36,3.1a.81.81,0,0,0,.74,0l5.71-3.29c.19-.11.18-.31,0-.43Zm17.12-9.89a.81.81,0,0,0-.74,0l-7.14,4.12c-.19.11-.18.3,0,.42l5.36,3.1a.81.81,0,0,0,.74,0l7.13-4.11c.2-.12.19-.31,0-.43Zm-32.81,19a.81.81,0,0,0-.74,0l-38.17,22c-.19.12-.18.31,0,.43l5.36,3.1a.81.81,0,0,0,.74,0l38.16-22c.2-.11.19-.31,0-.43Zm-40.31,23.27a.81.81,0,0,0-.74,0l-5.7,3.29c-.2.12-.19.31,0,.43l5.36,3.1a.81.81,0,0,0,.74,0l5.71-3.29c.2-.12.19-.31,0-.43ZM194,325.94a.81.81,0,0,0-.74,0l-5.7,3.3c-.2.11-.19.3,0,.42l5.36,3.1a.81.81,0,0,0,.74,0l5.71-3.29c.2-.11.18-.31,0-.43Zm-56,32.33a.81.81,0,0,0-.74,0l-5.71,3.29c-.2.12-.18.31,0,.43l5.36,3.1a.81.81,0,0,0,.74,0l5.7-3.29c.2-.12.19-.31,0-.43Zm71.68-41.39a.81.81,0,0,0-.74,0l-5.7,3.3c-.2.11-.19.3,0,.42l5.37,3.1a.81.81,0,0,0,.74,0l5.7-3.29c.2-.11.19-.31,0-.43Zm24.26-14a.84.84,0,0,0-.74,0l-4.64,2.68c-.2.11-.18.3,0,.42l5.36,3.1a.81.81,0,0,0,.74,0l4.63-2.67c.2-.12.19-.31,0-.43Zm14.84-10.78,4.64-2.68c.2-.11.19-.3,0-.42l-5.36-3.1a.81.81,0,0,0-.74,0l-4.63,2.67c-.2.12-.19.31,0,.43l5.37,3.1A.79.79,0,0,0,248.76,292.09Zm-30.29-.19,4.63-2.68c.2-.11.19-.31,0-.43l-5.36-3.09a.81.81,0,0,0-.74,0l-4.64,2.68c-.2.11-.19.3,0,.43l5.36,3.09A.84.84,0,0,0,218.47,291.9Zm-15.36,26.55,13.56-7.83c.19-.11.18-.3,0-.42l-5.36-3.1a.81.81,0,0,0-.74,0L197,314.91c-.2.11-.19.31,0,.43l5.36,3.09A.81.81,0,0,0,203.11,318.45ZM241.25,296a.81.81,0,0,0,.74,0l4.63-2.67c.2-.12.19-.31,0-.43l-5.36-3.1a.84.84,0,0,0-.74,0l-4.64,2.68c-.2.11-.18.3,0,.42Zm-6.92-4.41L239,288.9c.19-.11.18-.3,0-.42l-5.36-3.1a.81.81,0,0,0-.74,0L228.2,288c-.19.12-.18.31,0,.43l5.36,3.1A.81.81,0,0,0,234.33,291.58Zm-38,30.78,4.63-2.68c.2-.11.19-.3,0-.42l-5.36-3.1a.81.81,0,0,0-.74,0l-4.64,2.67c-.2.12-.19.31,0,.43l5.36,3.1A.84.84,0,0,0,196.34,322.36Zm29.93-17.72a.81.81,0,0,0,.74,0l4.64-2.67c.19-.12.18-.31,0-.43l-5.36-3.1a.81.81,0,0,0-.74,0l-4.64,2.67c-.2.12-.18.31,0,.43Zm-63.82,37.28,4.64-2.67c.2-.12.19-.31,0-.43l-5.37-3.1a.81.81,0,0,0-.74,0l-4.63,2.68c-.2.11-.19.3,0,.42l5.37,3.1A.79.79,0,0,0,162.45,341.92Zm6.78-3.91,4.64-2.68c.19-.11.18-.3,0-.42l-5.36-3.1a.81.81,0,0,0-.74,0l-4.64,2.67c-.19.12-.18.31,0,.43l5.36,3.09A.81.81,0,0,0,169.23,338Zm-13.55,7.82,4.63-2.67c.2-.12.19-.31,0-.43l-5.36-3.09a.81.81,0,0,0-.74,0l-4.64,2.68c-.2.11-.18.3,0,.42l5.36,3.1A.81.81,0,0,0,155.68,345.83Zm27.1-15.64,4.64-2.68c.2-.12.19-.31,0-.43L182,324a.81.81,0,0,0-.74,0l-4.63,2.68c-.2.11-.19.3,0,.42l5.36,3.1A.84.84,0,0,0,182.78,330.19ZM176,334.1l4.63-2.68c.2-.11.19-.3,0-.43l-5.36-3.09a.84.84,0,0,0-.74,0l-4.64,2.68c-.2.11-.19.31,0,.43l5.36,3.09A.84.84,0,0,0,176,334.1Zm13.55-7.83,4.64-2.67c.19-.12.18-.31,0-.43l-5.36-3.1a.81.81,0,0,0-.74,0l-4.64,2.68c-.19.11-.18.3,0,.42l5.36,3.1A.81.81,0,0,0,189.56,326.27Zm31-57.87a.84.84,0,0,0,.74,0l4.64-2.68c.2-.11.18-.3,0-.42l-1.43-.83a.81.81,0,0,0-.74,0l-4.63,2.68c-.2.11-.19.3,0,.42Zm-33.34,21.52a.81.81,0,0,0,.74,0l4.64-2.67c.19-.12.18-.31,0-.43l-5.36-3.1a.81.81,0,0,0-.74,0l-4.64,2.67c-.19.12-.18.31,0,.43Zm13.55-7.83a.84.84,0,0,0,.74,0l4.64-2.68c.2-.11.18-.3,0-.43l-5.36-3.09a.84.84,0,0,0-.74,0l-4.63,2.68c-.2.11-.19.31,0,.43ZM179,294.69a.81.81,0,0,0,.74,0l4.63-2.68c.2-.11.19-.3,0-.42l-5.37-3.1a.79.79,0,0,0-.73,0l-4.64,2.67c-.2.12-.19.31,0,.43ZM194,286a.81.81,0,0,0,.74,0l4.63-2.68c.2-.11.19-.3,0-.42l-5.36-3.1a.81.81,0,0,0-.74,0l-4.64,2.67c-.2.12-.19.31,0,.43Zm-28.61,16.52a.81.81,0,0,0,.74,0l4.64-2.67c.2-.12.18-.31,0-.43l-5.36-3.1a.84.84,0,0,0-.74,0L160,299c-.2.11-.19.3,0,.42Zm6.78-3.91a.81.81,0,0,0,.74,0l4.64-2.68c.19-.11.18-.3,0-.42l-5.36-3.1a.81.81,0,0,0-.74,0l-4.64,2.67c-.19.12-.18.31,0,.43ZM207,276.22a.84.84,0,0,0,.74,0l4.64-2.68c.19-.11.18-.31,0-.43l-1.43-.82a.84.84,0,0,0-.74,0L205.56,275c-.2.11-.19.3,0,.43Zm20.33-11.74a.81.81,0,0,0,.74,0l4.63-2.68c.2-.11.19-.3,0-.43l-1.43-.82a.81.81,0,0,0-.74,0l-4.63,2.67c-.2.12-.19.31,0,.43ZM238.6,271a.84.84,0,0,0,.74,0l4.64-2.68c.19-.11.18-.3,0-.42l-5.36-3.1a.81.81,0,0,0-.74,0l-4.64,2.67c-.19.12-.18.31,0,.43Zm16.94,17.19,4.64-2.68c.19-.11.18-.3,0-.42l-5.36-3.1a.84.84,0,0,0-.74,0l-4.64,2.68c-.19.12-.18.31,0,.43l5.36,3.09A.81.81,0,0,0,255.54,288.18Zm-41.75-15.87a.81.81,0,0,0,.74,0l4.63-2.67c.2-.12.19-.31,0-.43l-1.43-.82a.81.81,0,0,0-.74,0l-4.64,2.68c-.19.11-.18.3,0,.42Zm-55.17,34.12a.84.84,0,0,0,.74,0l4.63-2.68c.2-.11.19-.31,0-.43l-5.36-3.09a.81.81,0,0,0-.74,0l-4.64,2.68c-.2.11-.19.3,0,.43Z" transform="translate(-12.94 -51.8)"/><path class="cls-12" d="M211.69,295.81l4.64-2.68c.19-.11.18-.3,0-.43l-5.36-3.09a.84.84,0,0,0-.74,0l-4.64,2.68c-.19.11-.18.31,0,.43l5.36,3.09A.81.81,0,0,0,211.69,295.81Zm-9.15-10.64-4.64,2.68c-.19.11-.18.3,0,.43l5.36,3.09a.84.84,0,0,0,.74,0l4.64-2.68c.2-.11.18-.31,0-.43l-5.36-3.09A.84.84,0,0,0,202.54,285.17Zm-15,8.65-7.84,4.53c-.2.11-.19.31,0,.43l5.36,3.09a.84.84,0,0,0,.74,0l7.85-4.53c.2-.12.18-.31,0-.43l-5.36-3.09A.81.81,0,0,0,187.56,293.82Zm8.2-4.74-4.63,2.68c-.2.11-.19.31,0,.43l5.37,3.09a.81.81,0,0,0,.74,0l4.63-2.68c.2-.11.19-.3,0-.43l-5.37-3.09A.84.84,0,0,0,195.76,289.08Zm-18.18,10.51-4.64,2.67c-.2.12-.19.31,0,.43l5.36,3.1a.84.84,0,0,0,.74,0l4.63-2.68c.2-.11.19-.3,0-.42l-5.36-3.1A.81.81,0,0,0,177.58,299.59Zm-6.78,3.91-4.64,2.68c-.19.11-.18.3,0,.42l5.36,3.1a.81.81,0,0,0,.74,0l4.64-2.67c.19-.12.18-.31,0-.43l-5.36-3.1A.81.81,0,0,0,170.8,303.5Zm21.09,12.59,4.63-2.68c.2-.11.19-.31,0-.43l-5.36-3.09a.81.81,0,0,0-.74,0l-4.64,2.68c-.2.11-.19.3,0,.43l5.36,3.09A.84.84,0,0,0,191.89,316.09ZM185.11,320l4.64-2.68c.19-.11.18-.3,0-.43l-5.36-3.09a.84.84,0,0,0-.74,0L179,316.46c-.19.11-.18.31,0,.43l5.36,3.09A.84.84,0,0,0,185.11,320Zm-6.78,3.91,4.64-2.68c.2-.11.19-.3,0-.42l-5.36-3.1a.81.81,0,0,0-.74,0l-4.63,2.67c-.2.12-.19.31,0,.43l5.37,3.1A.82.82,0,0,0,178.33,323.91Zm-6.77,3.91,4.64-2.67c.19-.12.18-.31,0-.43l-5.36-3.1a.81.81,0,0,0-.74,0l-4.64,2.68c-.2.11-.18.3,0,.42l5.36,3.1A.81.81,0,0,0,171.56,327.82Zm33.35-28.1,4.64-2.68c.2-.11.19-.3,0-.42l-5.36-3.1a.81.81,0,0,0-.74,0l-4.63,2.67c-.2.12-.19.31,0,.43l5.36,3.1A.84.84,0,0,0,204.91,299.72Zm-6.25,12.45,10.35-6c.19-.11.18-.3,0-.43l-13-7.51a.84.84,0,0,0-.74,0l-5.35,3.09c-.2.11-.18.31,0,.43l6.89,4c.21.12.22.31,0,.42l-4.28,2.48c-.2.11-.19.3,0,.42l5.36,3.1A.81.81,0,0,0,198.66,312.17ZM164,307.41l-4.63,2.68c-.2.11-.19.3,0,.42l5.36,3.1a.84.84,0,0,0,.74,0l4.64-2.68c.2-.12.19-.31,0-.43l-5.36-3.09A.81.81,0,0,0,164,307.41Zm-6.77,3.91L152.61,314c-.2.11-.19.3,0,.43l5.36,3.09a.84.84,0,0,0,.74,0l4.63-2.68c.2-.11.19-.3,0-.43L158,311.34A.84.84,0,0,0,157.25,311.32Zm-33.87,43.87a.81.81,0,0,0,.74,0l4.64-2.68c.2-.11.19-.3,0-.43L123.37,349a.84.84,0,0,0-.74,0L118,351.67c-.2.12-.19.31,0,.43ZM103,342.62,98.4,345.3c-.2.11-.19.3,0,.43l5.36,3.09a.84.84,0,0,0,.74,0l4.63-2.68c.2-.11.19-.31,0-.43l-5.37-3.09A.82.82,0,0,0,103,342.62Zm10.9,9.18a.84.84,0,0,0,.74,0l4.64-2.68c.2-.11.18-.31,0-.43l-5.36-3.09a.84.84,0,0,0-.74,0l-4.64,2.68c-.19.11-.18.3,0,.43Zm21.41,5.77,4.64-2.68c.19-.11.18-.3,0-.42l-5.36-3.1a.81.81,0,0,0-.74,0L129.22,354c-.19.12-.18.31,0,.43l5.36,3.1A.81.81,0,0,0,135.35,357.57Zm-7.52,3.9a.81.81,0,0,0,.74,0l4.64-2.67c.2-.12.18-.31,0-.43l-5.36-3.1a.84.84,0,0,0-.74,0L122.45,358c-.2.11-.19.3,0,.42Zm-18-22.76-4.63,2.68c-.2.11-.19.3,0,.42l5.36,3.1a.81.81,0,0,0,.74,0l4.64-2.67c.2-.12.18-.31,0-.43l-5.36-3.1A.84.84,0,0,0,109.81,338.71Zm33.88-19.56-4.63,2.67c-.2.12-.19.31,0,.43l5.36,3.1a.81.81,0,0,0,.74,0l4.64-2.67c.2-.12.19-.31,0-.43l-5.36-3.1A.81.81,0,0,0,143.69,319.15Zm-27.1,15.65L112,337.47c-.2.12-.18.31,0,.43l5.36,3.1a.81.81,0,0,0,.74,0l4.64-2.68c.19-.11.18-.3,0-.42l-5.36-3.1A.81.81,0,0,0,116.59,334.8Zm33.88-19.56-4.64,2.67c-.19.12-.18.31,0,.43l5.36,3.09a.81.81,0,0,0,.74,0l4.64-2.68c.19-.11.18-.3,0-.42l-5.36-3.1A.81.81,0,0,0,150.47,315.24Zm-13.55,7.82-4.64,2.68c-.2.11-.18.3,0,.42l5.36,3.1a.81.81,0,0,0,.74,0L143,326.6c.2-.12.19-.31,0-.43l-5.36-3.09A.81.81,0,0,0,136.92,323.06ZM130.14,327l-4.64,2.68c-.19.11-.18.3,0,.43l5.36,3.09a.84.84,0,0,0,.74,0l4.64-2.68c.19-.11.18-.31,0-.43L130.88,327A.84.84,0,0,0,130.14,327Zm-6.78,3.91-4.63,2.68c-.2.12-.19.31,0,.43l5.37,3.09a.81.81,0,0,0,.74,0l4.63-2.68c.2-.11.19-.3,0-.43l-5.37-3.09A.84.84,0,0,0,123.36,330.88ZM158,335.65l4.63-2.68c.2-.11.19-.3,0-.43l-5.37-3.09a.82.82,0,0,0-.73,0l-4.64,2.68c-.2.11-.19.3,0,.43l5.37,3.09A.84.84,0,0,0,158,335.65Zm59.51-59.13-4.64,2.68c-.19.11-.18.31,0,.43l5.36,3.09a.81.81,0,0,0,.74,0l4.64-2.68c.2-.11.18-.3,0-.43l-5.36-3.09A.84.84,0,0,0,217.52,276.52Zm-8.2,4.74-4.64,2.68c-.2.11-.18.3,0,.42l5.36,3.1a.81.81,0,0,0,.74,0l4.63-2.67c.2-.12.19-.31,0-.43l-5.36-3.1A.84.84,0,0,0,209.32,281.26Zm15-8.65-4.64,2.68c-.2.11-.18.3,0,.43l5.36,3.09a.84.84,0,0,0,.74,0l4.63-2.68c.2-.12.19-.31,0-.43L225,272.63A.81.81,0,0,0,224.3,272.61Zm-35.08,36.17,4.64-2.68c.2-.11.18-.3,0-.42l-5.36-3.1a.81.81,0,0,0-.74,0l-4.64,2.67c-.19.12-.18.31,0,.43l5.36,3.1A.84.84,0,0,0,189.22,308.78Zm42.59-40.07a.84.84,0,0,0-.74,0l-4.63,2.68c-.2.11-.19.3,0,.42l5.36,3.1a.81.81,0,0,0,.74,0l4.64-2.67c.2-.12.19-.31,0-.43Zm-67,63,4.64-2.67c.2-.12.18-.31,0-.43L164,325.54a.81.81,0,0,0-.74,0l-4.64,2.68c-.19.11-.18.3,0,.42l5.36,3.1A.81.81,0,0,0,164.78,331.73Zm83.1-48,4.64-2.68c.2-.11.18-.3,0-.43l-5.36-3.09a.84.84,0,0,0-.74,0l-4.64,2.68c-.19.11-.18.3,0,.43l5.36,3.09A.84.84,0,0,0,247.88,283.76Zm-14.43-.51,4.63-2.68c.2-.11.19-.3,0-.43l-5.36-3.09a.84.84,0,0,0-.74,0l-4.64,2.68c-.2.11-.19.3,0,.43l5.36,3.09A.84.84,0,0,0,233.45,283.25Zm6-10.11a.81.81,0,0,0-.74,0l-4.63,2.68c-.2.11-.19.3,0,.42l5.36,3.1a.84.84,0,0,0,.74,0l4.64-2.68c.2-.12.19-.31,0-.43Zm1.43-.83,13,7.52a.81.81,0,0,0,.74,0l4.63-2.67c.2-.12.19-.31,0-.43l-13-7.52a.84.84,0,0,0-.74,0l-4.64,2.68C240.68,272,240.69,272.19,240.9,272.31ZM225.18,281l-4.64,2.67c-.19.12-.18.31,0,.43l5.36,3.09a.81.81,0,0,0,.74,0l4.64-2.68c.19-.11.18-.3,0-.42l-5.36-3.1A.81.81,0,0,0,225.18,281Zm-51,29.44-4.64,2.68c-.2.11-.18.3,0,.42l5.36,3.1a.84.84,0,0,0,.74,0l4.64-2.68c.19-.12.18-.31,0-.43l-5.36-3.09A.81.81,0,0,0,174.18,310.39Zm66.19-22.74a.81.81,0,0,0,.74,0l4.63-2.68c.2-.11.19-.3,0-.42l-5.37-3.1a.82.82,0,0,0-.73,0L235,284.13c-.2.12-.19.31,0,.43ZM181,306.48l-4.63,2.68c-.2.11-.19.3,0,.42l5.36,3.1a.81.81,0,0,0,.74,0l4.63-2.67c.2-.12.19-.31,0-.43l-5.37-3.1A.84.84,0,0,0,181,306.48Zm-50.79,44.8a.84.84,0,0,0,.74,0l4.64-2.68c.19-.11.18-.31,0-.43l-5.36-3.09a.84.84,0,0,0-.74,0l-4.64,2.68c-.19.11-.18.3,0,.43ZM120,341.69l-4.64,2.68c-.2.11-.18.3,0,.42l5.36,3.1a.81.81,0,0,0,.74,0l4.63-2.67c.2-.12.19-.31,0-.43l-5.36-3.1A.84.84,0,0,0,120,341.69Zm17.71,5.69,4.63-2.67c.2-.12.19-.31,0-.43l-5.36-3.09a.81.81,0,0,0-.74,0l-4.64,2.68c-.2.11-.19.3,0,.42l5.36,3.1A.81.81,0,0,0,137.68,347.38Zm6.77-3.91,4.64-2.67c.2-.12.18-.31,0-.43l-5.36-3.1a.81.81,0,0,0-.74,0l-4.63,2.67c-.2.12-.19.31,0,.43l5.36,3.1A.81.81,0,0,0,144.45,343.47Zm6.78-3.91,4.64-2.68c.19-.11.18-.3,0-.42l-5.36-3.1a.81.81,0,0,0-.74,0L145.1,336c-.2.12-.18.31,0,.43l5.36,3.09A.81.81,0,0,0,151.23,339.56Zm-24.49-1.78-4.63,2.67c-.2.12-.19.31,0,.43l5.36,3.1a.81.81,0,0,0,.74,0l4.64-2.67c.2-.12.19-.31,0-.43l-5.36-3.1A.81.81,0,0,0,126.74,337.78Zm6.78-3.91-4.64,2.67c-.19.12-.18.31,0,.43l5.36,3.09a.81.81,0,0,0,.74,0l4.64-2.68c.19-.11.18-.3,0-.42l-5.36-3.1A.81.81,0,0,0,133.52,333.87Zm27.11-15.65L156,320.89c-.2.12-.19.31,0,.43l5.36,3.09a.81.81,0,0,0,.74,0l4.63-2.68c.2-.11.19-.3,0-.42l-5.36-3.1A.81.81,0,0,0,160.63,318.22Zm-6.78,3.91-4.64,2.68c-.19.11-.18.3,0,.42l5.36,3.1a.81.81,0,0,0,.74,0l4.64-2.67c.19-.12.18-.31,0-.43l-5.36-3.1A.81.81,0,0,0,153.85,322.13Zm13.55-7.83L162.77,317c-.2.11-.19.31,0,.43l5.36,3.09a.81.81,0,0,0,.74,0l4.64-2.68c.2-.11.18-.3,0-.43l-5.36-3.09A.84.84,0,0,0,167.4,314.3ZM140.3,330l-4.64,2.68c-.2.11-.19.3,0,.43l5.36,3.09a.84.84,0,0,0,.74,0l4.63-2.68c.2-.11.19-.3,0-.43L141,330A.84.84,0,0,0,140.3,330Zm6.77-3.91-4.63,2.68c-.2.11-.19.3,0,.42l5.36,3.1a.84.84,0,0,0,.74,0l4.64-2.68c.2-.12.19-.31,0-.43l-5.36-3.09A.81.81,0,0,0,147.07,326Zm-4.94,27.62,4.63-2.68c.2-.11.19-.3,0-.42l-5.37-3.1a.81.81,0,0,0-.74,0L136,350.12c-.2.12-.19.31,0,.43l5.37,3.09A.81.81,0,0,0,142.13,353.66Zm-39.77-4L97,346.55a.84.84,0,0,0-.74,0l-4.64,2.68c-.19.11-.18.31,0,.43L97,352.73a.81.81,0,0,0,.74,0l4.64-2.68C102.58,350,102.57,349.77,102.36,349.64Zm10.16,3-5.37-3.1a.84.84,0,0,0-.74,0l-7.13,4.12c-.2.12-.18.31,0,.43l5.36,3.09a.81.81,0,0,0,.74,0l7.13-4.12C112.74,352.94,112.73,352.75,112.52,352.63Zm-18.39-9-5.36-3.09a.81.81,0,0,0-.74,0l-5.7,3.29c-.2.12-.19.31,0,.43l5.36,3.1a.81.81,0,0,0,.74,0l5.71-3.29C94.36,344,94.35,343.78,94.13,343.66Zm4.38-2.53a.81.81,0,0,0,.74,0l4.64-2.68c.19-.11.18-.3,0-.42L98.5,335a.81.81,0,0,0-.74,0l-4.64,2.67c-.2.12-.18.31,0,.43ZM122,356l-5.36-3.1a.81.81,0,0,0-.74,0l-8.92,5.14c-.2.12-.18.31,0,.43l5.36,3.1a.81.81,0,0,0,.74,0l8.91-5.15C122.18,356.33,122.17,356.14,122,356Zm4.45,6.27-5.36-3.09a.84.84,0,0,0-.74,0l-5.71,3.3c-.2.11-.19.3,0,.42L120,366a.81.81,0,0,0,.74,0l5.7-3.29C126.63,362.61,126.62,362.41,126.41,362.29Zm22.48-50.24a.84.84,0,0,0,.74,0l4.64-2.68c.2-.11.18-.3,0-.42l-5.36-3.1a.81.81,0,0,0-.74,0l-4.63,2.67c-.2.12-.19.31,0,.43Zm-13.55,7.82a.84.84,0,0,0,.74,0l4.64-2.68c.19-.11.18-.31,0-.43l-5.36-3.09a.81.81,0,0,0-.74,0L130,316.35c-.19.11-.18.3,0,.43Zm-30,17.35a.84.84,0,0,0,.74,0l4.63-2.68c.2-.11.19-.3,0-.43L105.27,331a.84.84,0,0,0-.74,0L99.9,333.7c-.2.11-.19.3,0,.43ZM142.12,316a.81.81,0,0,0,.74,0l4.63-2.67c.2-.12.19-.31,0-.43l-5.37-3.1a.82.82,0,0,0-.73,0l-4.64,2.68c-.2.11-.19.3,0,.42Zm-13.56,7.82a.84.84,0,0,0,.74,0l4.64-2.68c.2-.11.18-.3,0-.43l-5.36-3.09a.84.84,0,0,0-.74,0l-4.63,2.68c-.2.11-.19.31,0,.43Zm1.57,39a.81.81,0,0,0-.74,0l-7.13,4.12c-.2.11-.19.3,0,.43l5.37,3.09a.84.84,0,0,0,.74,0l7.13-4.12c.2-.12.18-.31,0-.43Zm-11.29-33.4a.81.81,0,0,0,.74,0l4.63-2.67c.2-.12.19-.31,0-.43l-5.36-3.1a.81.81,0,0,0-.74,0l-4.64,2.68c-.2.11-.18.3,0,.42Zm-6.78,3.91a.84.84,0,0,0,.74,0l4.64-2.68c.2-.12.18-.31,0-.43l-5.36-3.09a.81.81,0,0,0-.74,0l-4.64,2.68c-.19.11-.18.3,0,.42Zm143.61-43a.84.84,0,0,0-.74,0l-11.41,6.59c-.2.11-.19.3,0,.43l5.36,3.09a.84.84,0,0,0,.74,0l11.41-6.59c.2-.12.19-.31,0-.43Zm-15,8.65a.81.81,0,0,0-.74,0l-4.63,2.67c-.2.12-.19.31,0,.43l5.36,3.1a.81.81,0,0,0,.74,0l4.64-2.68c.2-.11.19-.3,0-.42ZM148.9,349.75l4.64-2.68c.2-.11.18-.3,0-.43l-5.36-3.09a.84.84,0,0,0-.74,0l-4.64,2.68c-.19.11-.18.3,0,.43l5.36,3.09A.84.84,0,0,0,148.9,349.75Zm78.24-43a.81.81,0,0,0-.74,0l-4.64,2.68c-.19.11-.18.3,0,.43l5.36,3.09a.84.84,0,0,0,.74,0l4.64-2.68c.19-.11.18-.31,0-.43Zm35.31-20.39a.81.81,0,0,0-.74,0l-4.64,2.67c-.19.12-.18.31,0,.43l5.36,3.1a.84.84,0,0,0,.74,0l4.64-2.68c.19-.11.18-.3,0-.42Zm12.14-.81-13-7.52a.84.84,0,0,0-.74,0l-4.64,2.68c-.2.11-.19.3,0,.43l13,7.51a.81.81,0,0,0,.74,0l4.63-2.68C274.81,285.9,274.8,285.71,274.59,285.59Zm-72.77,35.82a.81.81,0,0,0-.74,0l-5.71,3.3c-.2.11-.18.3,0,.42l5.36,3.1a.81.81,0,0,0,.74,0l5.71-3.29c.19-.11.18-.31,0-.43Zm17.12-9.89a.81.81,0,0,0-.74,0l-7.14,4.12c-.19.11-.18.3,0,.42l5.36,3.1a.81.81,0,0,0,.74,0l7.13-4.11c.2-.12.19-.31,0-.43Zm-32.81,19a.81.81,0,0,0-.74,0l-38.17,22c-.19.12-.18.31,0,.43l5.36,3.1a.81.81,0,0,0,.74,0l38.16-22c.2-.11.19-.31,0-.43Zm-40.31,23.27a.81.81,0,0,0-.74,0l-5.7,3.29c-.2.12-.19.31,0,.43l5.36,3.1a.81.81,0,0,0,.74,0l5.71-3.29c.2-.12.19-.31,0-.43ZM194,325.94a.81.81,0,0,0-.74,0l-5.7,3.3c-.2.11-.19.3,0,.42l5.36,3.1a.81.81,0,0,0,.74,0l5.71-3.29c.2-.11.18-.31,0-.43Zm-56,32.33a.81.81,0,0,0-.74,0l-5.71,3.29c-.2.12-.18.31,0,.43l5.36,3.1a.81.81,0,0,0,.74,0l5.7-3.29c.2-.12.19-.31,0-.43Zm71.68-41.39a.81.81,0,0,0-.74,0l-5.7,3.3c-.2.11-.19.3,0,.42l5.37,3.1a.81.81,0,0,0,.74,0l5.7-3.29c.2-.11.19-.31,0-.43Zm24.26-14a.84.84,0,0,0-.74,0l-4.64,2.68c-.2.11-.18.3,0,.42l5.36,3.1a.81.81,0,0,0,.74,0l4.63-2.67c.2-.12.19-.31,0-.43Zm14.84-10.78,4.64-2.68c.2-.11.19-.3,0-.42l-5.36-3.1a.81.81,0,0,0-.74,0l-4.63,2.67c-.2.12-.19.31,0,.43l5.37,3.1A.79.79,0,0,0,248.76,292.09Zm-30.29-.19,4.63-2.68c.2-.11.19-.31,0-.43l-5.36-3.09a.81.81,0,0,0-.74,0l-4.64,2.68c-.2.11-.19.3,0,.43l5.36,3.09A.84.84,0,0,0,218.47,291.9Zm-15.36,26.55,13.56-7.83c.19-.11.18-.3,0-.42l-5.36-3.1a.81.81,0,0,0-.74,0L197,314.91c-.2.11-.19.31,0,.43l5.36,3.09A.81.81,0,0,0,203.11,318.45ZM241.25,296a.81.81,0,0,0,.74,0l4.63-2.67c.2-.12.19-.31,0-.43l-5.36-3.1a.84.84,0,0,0-.74,0l-4.64,2.68c-.2.11-.18.3,0,.42Zm-6.92-4.41L239,288.9c.19-.11.18-.3,0-.42l-5.36-3.1a.81.81,0,0,0-.74,0L228.2,288c-.19.12-.18.31,0,.43l5.36,3.1A.81.81,0,0,0,234.33,291.58Zm-38,30.78,4.63-2.68c.2-.11.19-.3,0-.42l-5.36-3.1a.81.81,0,0,0-.74,0l-4.64,2.67c-.2.12-.19.31,0,.43l5.36,3.1A.84.84,0,0,0,196.34,322.36Zm29.93-17.72a.81.81,0,0,0,.74,0l4.64-2.67c.19-.12.18-.31,0-.43l-5.36-3.1a.81.81,0,0,0-.74,0l-4.64,2.67c-.2.12-.18.31,0,.43Zm-63.82,37.28,4.64-2.67c.2-.12.19-.31,0-.43l-5.37-3.1a.81.81,0,0,0-.74,0l-4.63,2.68c-.2.11-.19.3,0,.42l5.37,3.1A.79.79,0,0,0,162.45,341.92Zm6.78-3.91,4.64-2.68c.19-.11.18-.3,0-.42l-5.36-3.1a.81.81,0,0,0-.74,0l-4.64,2.67c-.19.12-.18.31,0,.43l5.36,3.09A.81.81,0,0,0,169.23,338Zm-13.55,7.82,4.63-2.67c.2-.12.19-.31,0-.43l-5.36-3.09a.81.81,0,0,0-.74,0l-4.64,2.68c-.2.11-.18.3,0,.42l5.36,3.1A.81.81,0,0,0,155.68,345.83Zm27.1-15.64,4.64-2.68c.2-.12.19-.31,0-.43L182,324a.81.81,0,0,0-.74,0l-4.63,2.68c-.2.11-.19.3,0,.42l5.36,3.1A.84.84,0,0,0,182.78,330.19ZM176,334.1l4.63-2.68c.2-.11.19-.3,0-.43l-5.36-3.09a.84.84,0,0,0-.74,0l-4.64,2.68c-.2.11-.19.31,0,.43l5.36,3.09A.84.84,0,0,0,176,334.1Zm13.55-7.83,4.64-2.67c.19-.12.18-.31,0-.43l-5.36-3.1a.81.81,0,0,0-.74,0l-4.64,2.68c-.19.11-.18.3,0,.42l5.36,3.1A.81.81,0,0,0,189.56,326.27Zm31-57.87a.84.84,0,0,0,.74,0l4.64-2.68c.2-.11.18-.3,0-.42l-1.43-.83a.81.81,0,0,0-.74,0l-4.63,2.68c-.2.11-.19.3,0,.42Zm-33.34,21.52a.81.81,0,0,0,.74,0l4.64-2.67c.19-.12.18-.31,0-.43l-5.36-3.1a.81.81,0,0,0-.74,0l-4.64,2.67c-.19.12-.18.31,0,.43Zm13.55-7.83a.84.84,0,0,0,.74,0l4.64-2.68c.2-.11.18-.3,0-.43l-5.36-3.09a.84.84,0,0,0-.74,0l-4.63,2.68c-.2.11-.19.31,0,.43ZM179,294.69a.81.81,0,0,0,.74,0l4.63-2.68c.2-.11.19-.3,0-.42l-5.37-3.1a.79.79,0,0,0-.73,0l-4.64,2.67c-.2.12-.19.31,0,.43ZM194,286a.81.81,0,0,0,.74,0l4.63-2.68c.2-.11.19-.3,0-.42l-5.36-3.1a.81.81,0,0,0-.74,0l-4.64,2.67c-.2.12-.19.31,0,.43Zm-28.61,16.52a.81.81,0,0,0,.74,0l4.64-2.67c.2-.12.18-.31,0-.43l-5.36-3.1a.84.84,0,0,0-.74,0L160,299c-.2.11-.19.3,0,.42Zm6.78-3.91a.81.81,0,0,0,.74,0l4.64-2.68c.19-.11.18-.3,0-.42l-5.36-3.1a.81.81,0,0,0-.74,0l-4.64,2.67c-.19.12-.18.31,0,.43ZM207,276.22a.84.84,0,0,0,.74,0l4.64-2.68c.19-.11.18-.31,0-.43l-1.43-.82a.84.84,0,0,0-.74,0L205.56,275c-.2.11-.19.3,0,.43Zm20.33-11.74a.81.81,0,0,0,.74,0l4.63-2.68c.2-.11.19-.3,0-.43l-1.43-.82a.81.81,0,0,0-.74,0l-4.63,2.67c-.2.12-.19.31,0,.43ZM238.6,271a.84.84,0,0,0,.74,0l4.64-2.68c.19-.11.18-.3,0-.42l-5.36-3.1a.81.81,0,0,0-.74,0l-4.64,2.67c-.19.12-.18.31,0,.43Zm16.94,17.19,4.64-2.68c.19-.11.18-.3,0-.42l-5.36-3.1a.84.84,0,0,0-.74,0l-4.64,2.68c-.19.12-.18.31,0,.43l5.36,3.09A.81.81,0,0,0,255.54,288.18Zm-41.75-15.87a.81.81,0,0,0,.74,0l4.63-2.67c.2-.12.19-.31,0-.43l-1.43-.82a.81.81,0,0,0-.74,0l-4.64,2.68c-.19.11-.18.3,0,.42Zm-55.17,34.12a.84.84,0,0,0,.74,0l4.63-2.68c.2-.11.19-.31,0-.43l-5.36-3.09a.81.81,0,0,0-.74,0l-4.64,2.68c-.2.11-.19.3,0,.43Z" transform="translate(-12.94 -51.8)"/><path class="cls-5" d="M188.67,347.11l45.75-26.42a5.51,5.51,0,0,1,5,0l26.23,15.15c1.38.79,1.38,2.08,0,2.88L219.9,365.14a5.57,5.57,0,0,1-5,0L188.67,350C187.29,349.19,187.29,347.9,188.67,347.11Z" transform="translate(-12.94 -51.8)"/><path class="cls-11" d="M188.67,347.11l45.75-26.42a5.51,5.51,0,0,1,5,0l26.23,15.15c1.38.79,1.38,2.08,0,2.88L219.9,365.14a5.57,5.57,0,0,1-5,0L188.67,350C187.29,349.19,187.29,347.9,188.67,347.11Z" transform="translate(-12.94 -51.8)"/><path class="cls-5" d="M37.83,330.51a6.76,6.76,0,0,0,1.28.55,6.15,6.15,0,0,1-1.28-.54,2.65,2.65,0,0,1-.39-.26A3.73,3.73,0,0,0,37.83,330.51Z" transform="translate(-12.94 -51.8)"/><path class="cls-8" d="M209.55,91.24c-.3-2.16-2-2.94-4.12-1.73L45.89,181.62A8.51,8.51,0,0,0,43,184.71l-7.8-4.49a8.57,8.57,0,0,1,2.94-3.11L197.63,85a7.78,7.78,0,0,1,11.92,6.24Z" transform="translate(-12.94 -51.8)"/><path class="cls-5" d="M45.11,330.9l.07,0,0,0Z" transform="translate(-12.94 -51.8)"/><path class="cls-7" d="M334.51,312.49a8.92,8.92,0,0,1-4.16,6.91L170.81,411.5a8.39,8.39,0,0,1-4.16,1v-9a8.51,8.51,0,0,0,4.16-1l159.54-92.1c2.14-1.25,2.29-3.2.42-4.54A9,9,0,0,1,334.51,312.49Z" transform="translate(-12.94 -51.8)"/></g></g></g><g id="Folder"><g id="Folder-2" data-name="Folder"><path class="cls-13" d="M287.29,264.66,263.66,141.84a2.67,2.67,0,0,0-1.44-2l-3.28-1.92a6.86,6.86,0,0,0-2.63-1.25,2.11,2.11,0,0,0-.55.06l-.19.07a5.62,5.62,0,0,0-.82.39L105.94,223.08a4.72,4.72,0,0,0-1,.85c-.17.19-.33.39-.48.59s-.24.39-.34.58a5.43,5.43,0,0,0-.63,3.47l23.64,122.81a8.3,8.3,0,0,0,3.19,5.08,6.32,6.32,0,0,0,5.31-.19c-.06,0,.21-.1.4-.21l148.81-85.92A5.54,5.54,0,0,0,287.29,264.66Z" transform="translate(-12.94 -51.8)"/><path class="cls-14" d="M132.08,354.28,108.44,231.46A5.56,5.56,0,0,1,111,226l148.81-85.92a2.47,2.47,0,0,1,3.9,1.78l23.63,122.82a5.54,5.54,0,0,1-2.5,5.48L136,356.06A2.47,2.47,0,0,1,132.08,354.28Z" transform="translate(-12.94 -51.8)"/><path class="cls-15" d="M135.58,356.27a6.32,6.32,0,0,1-5.31.19,8.3,8.3,0,0,1-3.19-5.08L103.44,228.57a5.43,5.43,0,0,1,.63-3.47l5,2.89a5.39,5.39,0,0,0-.63,3.46l23.64,122.83A2.44,2.44,0,0,0,135.58,356.27Z" transform="translate(-12.94 -51.8)"/><path class="cls-13" d="M258.94,137.9l3.31,1.93v0a2.59,2.59,0,0,0-2.49.22L111,226a5.07,5.07,0,0,0-1.88,2l-5-2.89c.1-.19.22-.39.34-.58s.31-.4.48-.59a4.72,4.72,0,0,1,1-.85l148.81-85.91a5.62,5.62,0,0,1,.82-.39l.19-.07a2.11,2.11,0,0,1,.55-.06A6.86,6.86,0,0,1,258.94,137.9Z" transform="translate(-12.94 -51.8)"/><path class="cls-5" d="M137.55,327.14a4.55,4.55,0,0,1-3.82.14,6,6,0,0,1-2.3-3.65l-17-88.36a3.94,3.94,0,0,1,.45-2.49l3.61,2.08a3.87,3.87,0,0,0-.46,2.49l17,88.36A1.75,1.75,0,0,0,137.55,327.14Z" transform="translate(-12.94 -51.8)"/><path class="cls-6" d="M137.55,327.14a4.55,4.55,0,0,1-3.82.14,6,6,0,0,1-2.3-3.65l-17-88.36a3.94,3.94,0,0,1,.45-2.49l3.61,2.08a3.87,3.87,0,0,0-.46,2.49l17,88.36A1.75,1.75,0,0,0,137.55,327.14Z" transform="translate(-12.94 -51.8)"/><path class="cls-5" d="M135,325.71l-17-88.36a4,4,0,0,1,1.8-3.94l140-80.88a1.78,1.78,0,0,1,2.81,1.29l17,88.35a4,4,0,0,1-1.81,3.94L137.83,327A1.77,1.77,0,0,1,135,325.71Z" transform="translate(-12.94 -51.8)"/><path class="cls-7" d="M135,325.71l-17-88.36a4,4,0,0,1,1.8-3.94l140-80.88a1.78,1.78,0,0,1,2.81,1.29l17,88.35a4,4,0,0,1-1.81,3.94L137.83,327A1.77,1.77,0,0,1,135,325.71Z" transform="translate(-12.94 -51.8)"/><path class="cls-5" d="M259.28,151l2.38,1.39h0a1.88,1.88,0,0,0-1.79.16l-140,80.87a3.55,3.55,0,0,0-1.34,1.45l-3.61-2.08c.08-.14.16-.28.25-.42a3.54,3.54,0,0,1,.35-.42,3.35,3.35,0,0,1,.75-.61l140-80.88a5.18,5.18,0,0,1,.58-.28.33.33,0,0,1,.14,0,1.1,1.1,0,0,1,.39,0A4.84,4.84,0,0,1,259.28,151Z" transform="translate(-12.94 -51.8)"/><path class="cls-8" d="M259.28,151l2.38,1.39h0a1.88,1.88,0,0,0-1.79.16l-140,80.87a3.55,3.55,0,0,0-1.34,1.45l-3.61-2.08c.08-.14.16-.28.25-.42a3.54,3.54,0,0,1,.35-.42,3.35,3.35,0,0,1,.75-.61l140-80.88a5.18,5.18,0,0,1,.58-.28.33.33,0,0,1,.14,0,1.1,1.1,0,0,1,.39,0A4.84,4.84,0,0,1,259.28,151Z" transform="translate(-12.94 -51.8)"/><g id="Document" class="to_down" style="animation-delay: 0.2s"><path class="cls-16" d="M224.64,234.3a3.86,3.86,0,0,1-1.69-3.05V108.08a4,4,0,0,1,1.8-3.12l79.65-46.1a3.38,3.38,0,0,1,5.18,3V185a4,4,0,0,1-1.8,3.12l-79.65,46.1A3.87,3.87,0,0,1,224.64,234.3Z" transform="translate(-12.94 -51.8)"/><path class="cls-17" d="M227.32,234c-.48,0-.53-.57-.53-.82V110a3.52,3.52,0,0,1,1.57-2.72L308,61.2a1.14,1.14,0,0,1,.57-.18c.49,0,.54.58.54.83V185a3.53,3.53,0,0,1-1.57,2.72l-79.65,46.1a1.21,1.21,0,0,1-.58.18Z" transform="translate(-12.94 -51.8)"/><path class="cls-4" d="M308.58,61.47a.63.63,0,0,1,.08.38V185a3.07,3.07,0,0,1-1.34,2.32l-79.65,46.1a1,1,0,0,1-.35.14.66.66,0,0,1-.08-.38V110a3.05,3.05,0,0,1,1.35-2.32l79.65-46.1a.74.74,0,0,1,.34-.12h0m0-.91a1.6,1.6,0,0,0-.8.25l-79.65,46.1a4,4,0,0,0-1.8,3.11V233.2c0,.81.4,1.28,1,1.28a1.69,1.69,0,0,0,.81-.24l79.65-46.1a4,4,0,0,0,1.8-3.12V61.85c0-.82-.41-1.29-1-1.29Z" transform="translate(-12.94 -51.8)"/><path class="cls-2" d="M227.89,234.36a3.36,3.36,0,0,1-4.93-3.11V108.08a3.75,3.75,0,0,1,.52-1.78l3.38,2a3.62,3.62,0,0,0-.53,1.77V233.2C226.33,234.25,227,234.73,227.89,234.36Z" transform="translate(-12.94 -51.8)"/><path class="cls-2" d="M267.59,95.85,295.68,79.4c.87-.51,1.58-.1,1.58.92V81a3.53,3.53,0,0,1-1.58,2.75l-28.09,16.45c-.87.5-1.58.09-1.58-.92V98.6A3.53,3.53,0,0,1,267.59,95.85Z" transform="translate(-12.94 -51.8)"/><path class="cls-2" d="M267.59,106.58l28.09-16.45c.87-.51,1.58-.1,1.58.91v.63a3.5,3.5,0,0,1-1.58,2.75l-28.09,16.45c-.87.51-1.58.1-1.58-.91v-.64A3.5,3.5,0,0,1,267.59,106.58Z" transform="translate(-12.94 -51.8)"/><path class="cls-2" d="M267.59,117.3l28.09-16.45c.87-.5,1.58-.09,1.58.92v.63a3.53,3.53,0,0,1-1.58,2.75L267.59,121.6c-.87.5-1.58.09-1.58-.92v-.63A3.53,3.53,0,0,1,267.59,117.3Z" transform="translate(-12.94 -51.8)"/><path class="cls-2" d="M237.92,155.82l57.76-33.52c.87-.5,1.58-.09,1.58.92v.63a3.53,3.53,0,0,1-1.58,2.75l-57.76,33.52c-.87.5-1.58.09-1.58-.92v-.63A3.53,3.53,0,0,1,237.92,155.82Z" transform="translate(-12.94 -51.8)"/><path class="cls-2" d="M237.92,145.09l57.76-33.51c.87-.51,1.58-.1,1.58.91v.64a3.5,3.5,0,0,1-1.58,2.74l-57.76,33.52c-.87.51-1.58.1-1.58-.92v-.63A3.53,3.53,0,0,1,237.92,145.09Z" transform="translate(-12.94 -51.8)"/><path class="cls-2" d="M237.92,166.62l57.76-33.51c.87-.51,1.58-.1,1.58.91v.64a3.5,3.5,0,0,1-1.58,2.74l-57.76,33.52c-.87.51-1.58.1-1.58-.92v-.63A3.53,3.53,0,0,1,237.92,166.62Z" transform="translate(-12.94 -51.8)"/><path class="cls-2" d="M237.92,177.35l57.76-33.51c.87-.51,1.58-.1,1.58.91v.63a3.53,3.53,0,0,1-1.58,2.75l-57.76,33.52c-.87.5-1.58.09-1.58-.92v-.63A3.53,3.53,0,0,1,237.92,177.35Z" transform="translate(-12.94 -51.8)"/><path class="cls-2" d="M237.92,188.08l57.76-33.52c.87-.5,1.58-.09,1.58.92v.63a3.53,3.53,0,0,1-1.58,2.75l-57.76,33.51c-.87.51-1.58.1-1.58-.91v-.64A3.5,3.5,0,0,1,237.92,188.08Z" transform="translate(-12.94 -51.8)"/><path class="cls-2" d="M237.92,198.8l57.76-33.51c.87-.51,1.58-.1,1.58.91v.64a3.5,3.5,0,0,1-1.58,2.74L237.92,203.1c-.87.5-1.58.09-1.58-.92v-.63A3.53,3.53,0,0,1,237.92,198.8Z" transform="translate(-12.94 -51.8)"/><path class="cls-2" d="M237.92,209.53,295.68,176c.87-.5,1.58-.09,1.58.92v.63a3.53,3.53,0,0,1-1.58,2.75l-57.76,33.51c-.87.51-1.58.1-1.58-.91v-.63A3.5,3.5,0,0,1,237.92,209.53Z" transform="translate(-12.94 -51.8)"/><polygon class="cls-5" points="223.82 60.2 247.14 46.73 247.14 73.66 223.82 87.12 223.82 60.2"/><path class="cls-17" d="M240.26,114.69v8.08l.73-.44v-2.47a5.14,5.14,0,0,1,2.48-3.91l3.45-2v12a5.15,5.15,0,0,1-2.17,4.12l-2.16,1.25v.86l11.66-6.73v-.86l-2.17,1.25c-1.2.69-2.17,0-2.17-1.62v-12l3.45-2c1.38-.8,2.49-.33,2.49,1v2.47l.73-.41v-8.08Z" transform="translate(-12.94 -51.8)"/></g><path class="cls-2" d="M144.42,157.36v71a2.62,2.62,0,0,1-1.18,2L72.63,271.22c-.64.37-1.17.07-1.17-.68v-3.71l69.2-40V158.17l2.58-1.49C143.89,156.31,144.42,156.61,144.42,157.36Z" transform="translate(-12.94 -51.8)"/><path class="cls-5" d="M140.66,158.17v68.69l-69.2,40V199.51a2.29,2.29,0,0,1,.35-1.15,2.25,2.25,0,0,1,.82-.88Z" transform="translate(-12.94 -51.8)"/><path class="cls-12" d="M140.66,158.17v68.69l-69.2,40V199.51a2.29,2.29,0,0,1,.35-1.15,2.25,2.25,0,0,1,.82-.88Z" transform="translate(-12.94 -51.8)"/><path class="cls-5" d="M123.59,187.54a1.3,1.3,0,0,0-.23-.18h0l0,0,0,0-4.39-2.53h0l0,0h0a1.49,1.49,0,0,0-2,.49l-15.59,38.43L91,216.88a1.7,1.7,0,0,0-.22-.15h0l-.05,0h0l-4.33-2.5h0a1.49,1.49,0,0,0-2,.44L69.26,245.25v20.31l4.4,2.54,68-39.24a2.53,2.53,0,0,0,1.26-2.19V207.4Z" transform="translate(-12.94 -51.8)"/><path class="cls-10" d="M123.59,187.54a1.3,1.3,0,0,0-.23-.18h0l0,0,0,0-4.39-2.53h0l0,0h0a1.49,1.49,0,0,0-2,.49l-15.59,38.43L91,216.88a1.7,1.7,0,0,0-.22-.15h0l-.05,0h0l-4.33-2.5h0a1.49,1.49,0,0,0-2,.44L69.26,245.25v20.31l4.4,2.54,68-39.24a2.53,2.53,0,0,0,1.26-2.19V207.4Z" transform="translate(-12.94 -51.8)"/><path class="cls-5" d="M73.66,268.1V247.79l15.1-30.61a1.49,1.49,0,0,1,2.21-.3l14.49,9.53,15.86-38.61a1.48,1.48,0,0,1,2.27-.26l19.28,19.86v19.27a2.53,2.53,0,0,1-1.26,2.19Z" transform="translate(-12.94 -51.8)"/><polygon class="cls-10" points="92.52 174.61 87.95 185.73 90.85 173.52 92.52 174.61"/><path class="cls-16" d="M147.26,153a.58.58,0,0,0,0-.14,2.62,2.62,0,0,0-1.13-1.7L144,150a2.63,2.63,0,0,0-2.35,0L66,193.66a2.46,2.46,0,0,0-.84.88,2.41,2.41,0,0,0-.34,1.15v88.86a2.58,2.58,0,0,0,1.18,2l2,1.19a2.63,2.63,0,0,0,2.08.12l.08,0a.82.82,0,0,0,.19-.09l75.67-43.7a2.61,2.61,0,0,0,1.17-2V153.18A1.21,1.21,0,0,0,147.26,153Zm-2.84,75.4a2.62,2.62,0,0,1-1.18,2L72.63,271.22c-.64.37-1.17.07-1.17-.68v-71a2.59,2.59,0,0,1,1.17-2l70.61-40.79c.65-.38,1.18-.08,1.18.67Z" transform="translate(-12.94 -51.8)"/><path class="cls-2" d="M70.16,287.89a2.67,2.67,0,0,1-2.08-.12l-2-1.19a2.56,2.56,0,0,1-1.18-2V195.69a2.32,2.32,0,0,1,.35-1.15l4.4,2.54a2.45,2.45,0,0,0-.34,1.16v88.85C69.26,287.73,69.65,288.05,70.16,287.89Z" transform="translate(-12.94 -51.8)"/><path class="cls-1" d="M147.26,153a.68.68,0,0,1,0-.15c-.15-.49-.61-.65-1.14-.33l-75.67,43.7a2.4,2.4,0,0,0-.83.87,2.36,2.36,0,0,0-.35,1.16v88.85c0,.64.4,1,.91.81l.08,0,.19-.09,75.67-43.7a2.61,2.61,0,0,0,1.17-2V153.18A1.21,1.21,0,0,0,147.26,153Zm-2.84,75.4a2.62,2.62,0,0,1-1.18,2L72.63,271.22c-.64.37-1.17.07-1.17-.68v-71a2.29,2.29,0,0,1,.35-1.15,2.25,2.25,0,0,1,.82-.88l68-39.31,2.58-1.49c.65-.37,1.18-.07,1.18.68Z" transform="translate(-12.94 -51.8)"/><path class="cls-5" d="M99.1,198.33l1.71-2.9-3.51-2h0a3.35,3.35,0,0,0-3.35.33,10.47,10.47,0,0,0-4.74,8.21,3.36,3.36,0,0,0,1.36,3h0l0,0h0L94,207l1.63-2.77A11.09,11.09,0,0,0,99.1,198.33Z" transform="translate(-12.94 -51.8)"/><path class="cls-10" d="M99.1,198.33l1.71-2.9-3.51-2h0a3.35,3.35,0,0,0-3.35.33,10.47,10.47,0,0,0-4.74,8.21,3.36,3.36,0,0,0,1.36,3h0l0,0h0L94,207l1.63-2.77A11.09,11.09,0,0,0,99.1,198.33Z" transform="translate(-12.94 -51.8)"/><path class="cls-5" d="M97.4,195.73c2.62-1.52,4.74-.29,4.74,2.73a10.47,10.47,0,0,1-4.74,8.21c-2.62,1.51-4.74.29-4.74-2.73A10.46,10.46,0,0,1,97.4,195.73Z" transform="translate(-12.94 -51.8)"/><path class="cls-14" d="M290.8,153.29,290.86,267a7.35,7.35,0,0,1-3.34,5.78L137.74,359.2c-1.83,1.06-3.34,0-3.34-1.48V220.45a6.81,6.81,0,0,1,1-3.28,7.15,7.15,0,0,1,2.35-2.49l41-23.69a3,3,0,0,1,3-.13l.09,0h0a3.13,3.13,0,0,1,1.39,1.85L186,204.08l.44,1.22a2.92,2.92,0,0,0,4.45,1.77l96.55-55.7a2.48,2.48,0,0,1,2.19-.32l.13.07.08,0,0,0A2.38,2.38,0,0,1,290.8,153.29Z" transform="translate(-12.94 -51.8)"/><path class="cls-13" d="M181.75,190.85a3,3,0,0,0-3,.14l-41,23.68a7,7,0,0,0-2.35,2.5l-5-2.92a6.73,6.73,0,0,1,2.35-2.49l41-23.68a3,3,0,0,1,3-.08v0Z" transform="translate(-12.94 -51.8)"/><path class="cls-13" d="M289.65,151a2.49,2.49,0,0,0-2.18.32l-96.55,55.7a2.91,2.91,0,0,1-4.45-1.77l-.45-1.22,96.45-55.62A2.92,2.92,0,0,1,284,148a1.74,1.74,0,0,1,.86.22h0Z" transform="translate(-12.94 -51.8)"/><path class="cls-5" d="M200.75,258.46a2.3,2.3,0,0,0,3.06-1.09l6.52-13.81V268a2.3,2.3,0,1,0,4.6,0V238.72l7,6.74a2.3,2.3,0,1,0,3.19-3.31l-10.9-10.49a2.28,2.28,0,0,0-2-.6,2.31,2.31,0,0,0-1.66,1.28L199.66,255.4A2.29,2.29,0,0,0,200.75,258.46Z" transform="translate(-12.94 -51.8)"/><path class="cls-5" d="M228.28,251.26a2.3,2.3,0,0,0-2.3,2.3v13.86l-26.7,15.42V271.63a2.3,2.3,0,1,0-4.6,0v15.19a2.3,2.3,0,0,0,1.15,2,2.38,2.38,0,0,0,1.15.3,2.35,2.35,0,0,0,1.15-.3l31.3-18.07a2.3,2.3,0,0,0,1.15-2V253.56A2.3,2.3,0,0,0,228.28,251.26Z" transform="translate(-12.94 -51.8)"/><path class="cls-15" d="M135.61,359.53a.44.44,0,0,1-.15,0l-5.16-3a2.41,2.41,0,0,1-.9-2.12V217.54a6.8,6.8,0,0,1,1-3.28l5,2.91h0a6.69,6.69,0,0,0-1,3.28V357.72A1.94,1.94,0,0,0,135.61,359.53Z" transform="translate(-12.94 -51.8)"/></g></g><g id="Envelope" class="to_down"><g id="Letter"><path class="cls-5" d="M282.22,196a3.08,3.08,0,0,1,1.39-2.41l71-41a3.07,3.07,0,0,1,2.77,0l1.57.91a3.06,3.06,0,0,1,1.38,2.4v54.42a3.07,3.07,0,0,1-1.38,2.4l-71,41a3,3,0,0,1-2.78,0l-1.56-.9a3.06,3.06,0,0,1-1.39-2.4Z" transform="translate(-12.94 -51.8)"/><path class="cls-11" d="M282.62,194.61l3.94,2.27,73.37-42.36a3,3,0,0,0-1-1l-1.57-.9a3.07,3.07,0,0,0-2.77,0l-71,41A2.91,2.91,0,0,0,282.62,194.61Z" transform="translate(-12.94 -51.8)"/><path class="cls-18" d="M282.22,196V250.4a3.06,3.06,0,0,0,1.39,2.4l1.56.9a2.64,2.64,0,0,0,.38.18,4.76,4.76,0,0,0,.57.13,3.67,3.67,0,0,0,1.1,0l.27-.08a.44.44,0,0,0,.16-.06.83.83,0,0,1-.66,0,1,1,0,0,1-.43-.92V198.48a1.21,1.21,0,0,1,.73-1.18l-.73-.42-3.94-2.27A3,3,0,0,0,282.22,196Z" transform="translate(-12.94 -51.8)"/><path class="cls-19" d="M286.56,196.88l32.88,12.28a5.35,5.35,0,0,0,6.35-2.08l5.28-8.09,29.12-44.62-28.07,44.92,28.21,11a2.85,2.85,0,0,1-.43,1.39L332,199.42l-6.14,9.82a5.34,5.34,0,0,1-6.69,2l-4.37-1.93L287,253.82a1,1,0,0,1-.43-.92V252l28.15-42.7Z" transform="translate(-12.94 -51.8)"/></g></g><g id="Music_Icon" class="to_down" style="animation-delay: 0.1s" data-name="Music Icon"><g id="Music"><path class="cls-5" d="M357.81,74.64l-26.07,15v29.71a5.32,5.32,0,0,0-1.82.66,12.06,12.06,0,0,0-5.44,9.43c0,1.86.71,3.12,1.82,3.63h0l4.41,2.13h0a3.86,3.86,0,0,0,3.78-.42,12,12,0,0,0,5.45-9.42V98.13l14.26-8.21v16.53a5.49,5.49,0,0,0-1.82.67,12,12,0,0,0-5.44,9.42c0,1.86.7,3.12,1.82,3.63h0l4.36,2.1h0a3.86,3.86,0,0,0,3.83-.39,12.06,12.06,0,0,0,5.44-9.43h0V76.84Z" transform="translate(-12.94 -51.8)"/><path class="cls-10" d="M357.81,74.64l-26.07,15v29.71a5.32,5.32,0,0,0-1.82.66,12.06,12.06,0,0,0-5.44,9.43c0,1.86.71,3.12,1.82,3.63h0l4.41,2.13h0a3.86,3.86,0,0,0,3.78-.42,12,12,0,0,0,5.45-9.42V98.13l14.26-8.21v16.53a5.49,5.49,0,0,0-1.82.67,12,12,0,0,0-5.44,9.42c0,1.86.7,3.12,1.82,3.63h0l4.36,2.1h0a3.86,3.86,0,0,0,3.83-.39,12.06,12.06,0,0,0,5.44-9.43h0V76.84Z" transform="translate(-12.94 -51.8)"/><path class="cls-5" d="M339.48,128.07l-3.19-6.52-4.55-2.19a5.32,5.32,0,0,0-1.82.66,10.64,10.64,0,0,0-3.28,3.18l12.09,6.74A11.41,11.41,0,0,0,339.48,128.07Z" transform="translate(-12.94 -51.8)"/><path class="cls-11" d="M339.48,128.07l-3.19-6.52-4.55-2.19a5.32,5.32,0,0,0-1.82.66,10.64,10.64,0,0,0-3.28,3.18l12.09,6.74A11.41,11.41,0,0,0,339.48,128.07Z" transform="translate(-12.94 -51.8)"/><path class="cls-5" d="M361.92,115.16l-3.2-6.51-4.54-2.2a5.46,5.46,0,0,0-1.82.66,10.64,10.64,0,0,0-3.28,3.18L361.17,117A12.37,12.37,0,0,0,361.92,115.16Z" transform="translate(-12.94 -51.8)"/><path class="cls-11" d="M361.92,115.16l-3.2-6.51-4.54-2.2a5.46,5.46,0,0,0-1.82.66,10.64,10.64,0,0,0-3.28,3.18L361.17,117A12.37,12.37,0,0,0,361.92,115.16Z" transform="translate(-12.94 -51.8)"/><polygon class="cls-20" points="349.42 25.04 344.87 22.84 318.8 37.85 323.35 40.04 349.42 25.04"/><path class="cls-5" d="M336.28,91.84v29.71a5.49,5.49,0,0,0-1.82.67,12,12,0,0,0-5.44,9.42c0,3.47,2.44,4.88,5.44,3.14a12,12,0,0,0,5.45-9.42V98.13l18.8-10.82h0v21.34a5.2,5.2,0,0,0-1.81.66,12,12,0,0,0-5.45,9.43c0,3.47,2.44,4.87,5.45,3.14a12.06,12.06,0,0,0,5.44-9.43h0V76.84Z" transform="translate(-12.94 -51.8)"/></g></g><g id="Speech_Bubble" class="to_down" data-name="Speech Bubble"><g id="Speech_Bubble-2" data-name="Speech Bubble"><g id="Speech_Bubble-3" data-name="Speech Bubble"><path class="cls-5" d="M410.09,166.27l-3.42-6.43,2.75-7.93v-4.86L401,151.91v4.86l3.62,6.26a.5.5,0,0,0,.24.22h0Z" transform="translate(-12.94 -51.8)"/><path class="cls-19" d="M410.09,166.27l-3.42-6.43,2.75-7.93v-4.86L401,151.91v4.86l3.62,6.26a.5.5,0,0,0,.24.22h0Z" transform="translate(-12.94 -51.8)"/><path class="cls-5" d="M430.19,98.32a5.61,5.61,0,0,0-2.52-4.38l-2.06-1.18a5.53,5.53,0,0,0-5,0L389.06,111a5.57,5.57,0,0,0-2.53,4.37v44.77a5.56,5.56,0,0,0,2.53,4.37l2.05,1.19a5.55,5.55,0,0,0,5.05,0l10.13-5.85,3.61,6.25a.54.54,0,0,0,1-.09l3.82-11,13-7.51a5.59,5.59,0,0,0,2.52-4.37Z" transform="translate(-12.94 -51.8)"/><path class="cls-19" d="M386.53,160.12a5.59,5.59,0,0,0,2.53,4.38l2.05,1.18a5.63,5.63,0,0,0,4.62.2c-1.19.45-2.09-.22-2.09-1.66V119.45a5.2,5.2,0,0,1,.73-2.48l-7.1-4.1a5.22,5.22,0,0,0-.74,2.48Z" transform="translate(-12.94 -51.8)"/><path class="cls-6" d="M430.11,97.6c-.3-1.07-1.27-1.41-2.44-.74l-31.51,18.23a5,5,0,0,0-1.78,1.88l-7.1-4.1a5.05,5.05,0,0,1,1.78-1.88l31.5-18.23a5.61,5.61,0,0,1,5.05,0L427.67,94A5.56,5.56,0,0,1,430.11,97.6Z" transform="translate(-12.94 -51.8)"/></g><path class="cls-17" d="M405.13,137.12a1.13,1.13,0,0,1-.5-.13,1,1,0,0,1-.5-.87v-6.33a1,1,0,1,1,2,0v4.6l11.52-6.63V122a1,1,0,1,1,2,0v6.32a1,1,0,0,1-.5.87L405.63,137A1.09,1.09,0,0,1,405.13,137.12Z" transform="translate(-12.94 -51.8)"/><path class="cls-17" d="M407.27,126.09a1.15,1.15,0,0,1-.36-.07,1,1,0,0,1-.57-1.29l4.34-11.28a1,1,0,0,1,.82-.63,1,1,0,0,1,.94.42l4.2,6.21a1,1,0,0,1-.25,1.39,1,1,0,0,1-1.39-.25l-3.13-4.66-3.67,9.52A1,1,0,0,1,407.27,126.09Z" transform="translate(-12.94 -51.8)"/><path class="cls-17" d="M411.62,128.33a1,1,0,0,1-1-1v-12a1,1,0,0,1,2,0v12A1,1,0,0,1,411.62,128.33Z" transform="translate(-12.94 -51.8)"/><path class="cls-17" d="M397.75,148.83a.92.92,0,0,1,.07-.31.44.44,0,0,1,.17-.2l.69-.4a.14.14,0,0,1,.17,0,.29.29,0,0,1,.07.22v3.51a2.37,2.37,0,0,0,.23,1.2c.15.24.4.27.75.07a1.75,1.75,0,0,0,.72-.92,4,4,0,0,0,.26-1.48V147a.66.66,0,0,1,.07-.3.46.46,0,0,1,.17-.21l.68-.39a.12.12,0,0,1,.17,0,.29.29,0,0,1,.07.22v6.44a.73.73,0,0,1-.07.31.46.46,0,0,1-.17.21l-.68.39a.13.13,0,0,1-.17,0,.29.29,0,0,1-.07-.22v-.32a5.71,5.71,0,0,1-.52.87,2.37,2.37,0,0,1-.73.68,1.53,1.53,0,0,1-.91.26.82.82,0,0,1-.57-.37,2.12,2.12,0,0,1-.31-.86,7.08,7.08,0,0,1-.09-1.18Z" transform="translate(-12.94 -51.8)"/><path class="cls-17" d="M405.81,151.13a1.79,1.79,0,0,1-.5.21,1.3,1.3,0,0,1-.39,0,.77.77,0,0,1-.28-.1,1.08,1.08,0,0,1-.19-.17V154a.66.66,0,0,1-.07.3.54.54,0,0,1-.17.21l-.68.4a.15.15,0,0,1-.18,0,.32.32,0,0,1-.07-.22v-9.07a.82.82,0,0,1,.07-.3.48.48,0,0,1,.18-.21l.68-.39a.12.12,0,0,1,.17,0,.29.29,0,0,1,.07.22v.32c.05-.11.11-.24.19-.38a3.49,3.49,0,0,1,.28-.43,3.1,3.1,0,0,1,.39-.43,2.09,2.09,0,0,1,.5-.37,1.18,1.18,0,0,1,.81-.2,1,1,0,0,1,.62.36,2.22,2.22,0,0,1,.4.8,4.32,4.32,0,0,1,.17,1.13c0,.13,0,.29,0,.48s0,.35,0,.49a6.82,6.82,0,0,1-.17,1.32,7.52,7.52,0,0,1-.4,1.27,5.35,5.35,0,0,1-.62,1.07A2.8,2.8,0,0,1,405.81,151.13Zm.83-3.83a5,5,0,0,0,0-.77c0-.58-.16-.94-.36-1.09a.65.65,0,0,0-.74,0,2,2,0,0,0-.74.83,3.28,3.28,0,0,0-.35,1.35c0,.14,0,.32,0,.53s0,.39,0,.52a1.26,1.26,0,0,0,.35.93.61.61,0,0,0,.74,0,2,2,0,0,0,.74-.83A3.76,3.76,0,0,0,406.64,147.3Z" transform="translate(-12.94 -51.8)"/><path class="cls-17" d="M410,148.19a.82.82,0,0,1-.07.31.48.48,0,0,1-.18.21l-.68.39a.14.14,0,0,1-.17,0,.29.29,0,0,1-.07-.22V139.8a.73.73,0,0,1,.07-.31.5.5,0,0,1,.17-.2l.68-.4a.15.15,0,0,1,.18,0,.35.35,0,0,1,.07.23Z" transform="translate(-12.94 -51.8)"/><path class="cls-17" d="M413.3,139.34a1.73,1.73,0,0,1,.9-.28,1,1,0,0,1,.69.25,1.65,1.65,0,0,1,.46.7,3.28,3.28,0,0,1,.21,1.07c0,.08,0,.18,0,.31v.77c0,.12,0,.23,0,.32a7.33,7.33,0,0,1-.21,1.3,6,6,0,0,1-.46,1.23,5.53,5.53,0,0,1-.69,1,3.53,3.53,0,0,1-.9.75,1.72,1.72,0,0,1-.89.28,1,1,0,0,1-.69-.24,1.53,1.53,0,0,1-.46-.69,3.39,3.39,0,0,1-.21-1.07,2.73,2.73,0,0,1,0-.31c0-.12,0-.24,0-.37s0-.26,0-.39a3.22,3.22,0,0,1,0-.33,6,6,0,0,1,.2-1.31,6.51,6.51,0,0,1,.47-1.23,4.77,4.77,0,0,1,.69-1A3.32,3.32,0,0,1,413.3,139.34Zm1.09,2.48a1.93,1.93,0,0,0-.13-.64.71.71,0,0,0-.26-.3.46.46,0,0,0-.33,0,1.25,1.25,0,0,0-.37.15,2.17,2.17,0,0,0-.37.27,1.81,1.81,0,0,0-.33.42,2.35,2.35,0,0,0-.25.6,3,3,0,0,0-.13.79c0,.07,0,.17,0,.28v.7c0,.11,0,.2,0,.26a1.67,1.67,0,0,0,.13.64.55.55,0,0,0,.25.3.46.46,0,0,0,.33,0,1,1,0,0,0,.37-.15,1.84,1.84,0,0,0,.37-.27,1.81,1.81,0,0,0,.33-.42,2.78,2.78,0,0,0,.26-.6,3.52,3.52,0,0,0,.13-.79c0-.06,0-.15,0-.27v-.7C414.4,142,414.39,141.89,414.39,141.82Z" transform="translate(-12.94 -51.8)"/><path class="cls-17" d="M416.59,139.35a4,4,0,0,1,.16-.72,4.7,4.7,0,0,1,1-1.65,3.4,3.4,0,0,1,.8-.65,2.07,2.07,0,0,1,.83-.29.92.92,0,0,1,.63.18,1.4,1.4,0,0,1,.41.67,4.25,4.25,0,0,1,.14,1.17v4.06a.67.67,0,0,1-.07.31.54.54,0,0,1-.17.21l-.68.39a.13.13,0,0,1-.17,0,.29.29,0,0,1-.08-.22v-.46a3.92,3.92,0,0,1-.54,1,3,3,0,0,1-.9.8,1.59,1.59,0,0,1-.69.24.67.67,0,0,1-.51-.15,1,1,0,0,1-.32-.5,2.36,2.36,0,0,1-.12-.8,3.61,3.61,0,0,1,.44-1.75,5.25,5.25,0,0,1,1.18-1.41l1.46-1.23q0-.57-.24-.66a.7.7,0,0,0-.6.11,1.17,1.17,0,0,0-.35.3,2.49,2.49,0,0,0-.24.4,1.75,1.75,0,0,1-.15.24.87.87,0,0,1-.15.13l-.83.48c-.07,0-.12,0-.16,0S416.58,139.45,416.59,139.35Zm1.5,3a2.27,2.27,0,0,0,.54-.44,2.92,2.92,0,0,0,.4-.59,2.71,2.71,0,0,0,.24-.63,2.3,2.3,0,0,0,.08-.62V140l-1.22,1a2.51,2.51,0,0,0-.53.59,1.17,1.17,0,0,0-.16.6c0,.19.07.3.19.32A.83.83,0,0,0,418.09,142.38Z" transform="translate(-12.94 -51.8)"/><path class="cls-17" d="M423.51,133.45a1.68,1.68,0,0,1,.5-.21,1,1,0,0,1,.38,0,.62.62,0,0,1,.29.1,1.06,1.06,0,0,1,.19.16v-2.94a.7.7,0,0,1,.07-.31.46.46,0,0,1,.17-.21l.68-.39a.13.13,0,0,1,.17,0,.29.29,0,0,1,.07.22v9.07a.66.66,0,0,1-.07.3.38.38,0,0,1-.17.21l-.68.4a.13.13,0,0,1-.17,0,.29.29,0,0,1-.07-.22v-.32l-.19.38a3.25,3.25,0,0,1-.29.43,3,3,0,0,1-.38.43,2.7,2.7,0,0,1-.5.37,1.25,1.25,0,0,1-.81.2,1,1,0,0,1-.62-.36,2.2,2.2,0,0,1-.41-.81,4.72,4.72,0,0,1-.16-1.12c0-.14,0-.3,0-.48s0-.35,0-.49a7.66,7.66,0,0,1,.16-1.32,7.26,7.26,0,0,1,.41-1.27,5.16,5.16,0,0,1,.62-1.08A2.64,2.64,0,0,1,423.51,133.45Zm-.83,3.82a5.08,5.08,0,0,0,0,.78c0,.57.15.94.35,1.08a.65.65,0,0,0,.75,0,1.93,1.93,0,0,0,.74-.82,3.36,3.36,0,0,0,.35-1.35c0-.15,0-.32,0-.54s0-.38,0-.51a1.31,1.31,0,0,0-.35-.94.61.61,0,0,0-.74,0,2.08,2.08,0,0,0-.75.82A3.6,3.6,0,0,0,422.68,137.27Z" transform="translate(-12.94 -51.8)"/></g></g><g id="Character"><g id="Character-2" data-name="Character"><path class="cls-21" d="M420.13,225.35c3.71-.87,7.78,1.76,10.16,7.57s6.52,17.84,8,21.56c.63,1.59.52,2.62-.37,4.48-2.93,6.1-9.84,18.15-9.84,18.15l-6-6.66,4.73-14-3.64-9.58Z" transform="translate(-12.94 -51.8)"/><path class="cls-5" d="M392.7,235.89l77.93,45a4,4,0,0,1,1.82,3.16V358.3a4,4,0,0,1-1.82,3.15l-3,1.73a4,4,0,0,1-3.64,0l-77.93-45a4.05,4.05,0,0,1-1.82-3.16V240.78a4,4,0,0,1,1.82-3.16l3-1.73A4,4,0,0,1,392.7,235.89Z" transform="translate(-12.94 -51.8)"/><path class="cls-9" d="M392.7,235.89l77.93,45a4,4,0,0,1,1.82,3.16V358.3a4,4,0,0,1-1.82,3.15l-3,1.73a4,4,0,0,1-3.64,0l-77.93-45a4.05,4.05,0,0,1-1.82-3.16V240.78a4,4,0,0,1,1.82-3.16l3-1.73A4,4,0,0,1,392.7,235.89Z" transform="translate(-12.94 -51.8)"/><path class="cls-5" d="M384.31,240.23c.23-.75.93-1,1.76-.5l77.92,45a3.76,3.76,0,0,1,1.29,1.36l6.63-3.84a3.73,3.73,0,0,0-1.28-1.36l-77.93-45a4.11,4.11,0,0,0-3.65,0l-3,1.73A4.06,4.06,0,0,0,384.31,240.23Z" transform="translate(-12.94 -51.8)"/><path class="cls-19" d="M384.31,240.23c.23-.75.93-1,1.76-.5l77.92,45a3.76,3.76,0,0,1,1.29,1.36l6.63-3.84a3.73,3.73,0,0,0-1.28-1.36l-77.93-45a4.11,4.11,0,0,0-3.65,0l-3,1.73A4.06,4.06,0,0,0,384.31,240.23Z" transform="translate(-12.94 -51.8)"/><path class="cls-5" d="M386.06,239.72l77.93,45a4,4,0,0,1,1.82,3.15v74.25c0,1.16-.81,1.63-1.82,1.05l-77.93-45a4.05,4.05,0,0,1-1.82-3.16V240.78C384.24,239.61,385.06,239.14,386.06,239.72Z" transform="translate(-12.94 -51.8)"/><path class="cls-22" d="M432.35,329.74a16.29,16.29,0,0,1-8.09-2.42c-10.57-6.1-19.18-22.47-19.18-36.49,0-7.69,2.6-13.6,7.14-16.22,3.83-2.22,8.65-1.87,13.57,1,10.58,6.1,19.18,22.48,19.18,36.5,0,7.69-2.6,13.6-7.13,16.21A10.81,10.81,0,0,1,432.35,329.74Zm-14.64-53.49a7.84,7.84,0,0,0-4,1c-3.55,2.05-5.59,7-5.59,13.56,0,13,7.91,28.22,17.63,33.83,3.93,2.27,7.67,2.62,10.51,1,3.56-2.05,5.6-7,5.6-13.55,0-13.05-7.92-28.22-17.64-33.84A13.35,13.35,0,0,0,417.71,276.25Z" transform="translate(-12.94 -51.8)"/><path class="cls-22" d="M435.45,310.26l-15.29,1.36c-1.38.13-2.5-1.44-2.5-3.5V288.51c0-2.06,1.12-2.34,2.5-.62l15.29,19C436.84,308.64,436.84,310.13,435.45,310.26Z" transform="translate(-12.94 -51.8)"/><g id="Character-3" data-name="Character"><g id="Character-4" data-name="Character"><path class="cls-5" d="M419.93,221.93c5.84-1,9.05,3.56,10.47,8,2.13,6.6,4.89,13.5,6.44,18.47a21.3,21.3,0,0,1-13.06,5.45l-3.18-6.57Z" transform="translate(-12.94 -51.8)"/><g class="cls-23"><path d="M419.93,221.93c5.84-1,9.05,3.56,10.47,8,2.13,6.6,4.89,13.5,6.44,18.47a21.3,21.3,0,0,1-13.06,5.45l-3.18-6.57Z" transform="translate(-12.94 -51.8)"/></g><path class="cls-13" d="M377.17,386c-.47-.06-.47,1.32-.33,1.92s2,2.66,5.3,3.49,8,.38,10,.38,5.41,1.1,7.39,1.47,5.6-.16,6.82-1.24a2.13,2.13,0,0,0,.56-1.63c0-1.33-.1-1.6-.26-1.59Z" transform="translate(-12.94 -51.8)"/><path class="cls-5" d="M406.35,384.85c0,.26.09.53.13.8a13.62,13.62,0,0,1,.09,4.08,3.74,3.74,0,0,1-2.5,1.7,12.46,12.46,0,0,1-6.78-.21,19.89,19.89,0,0,0-5.13-.74,49,49,0,0,1-7,0,16.61,16.61,0,0,1-5.07-1.3,6.34,6.34,0,0,1-3-2.91,4.67,4.67,0,0,1,2.82-4.52,10.41,10.41,0,0,1,5.22-.85c1.95.1,3.41.42,5.14.38a8.58,8.58,0,0,0,3.47-.67,3.42,3.42,0,0,0,1.15-1.49c.31-.6.44-1.14,1-1.18,0,0,8.16.21,9,.32s.95,3.43,1,4.08.06,1,.17,1.54C406.22,384.19,406.29,384.52,406.35,384.85Z" transform="translate(-12.94 -51.8)"/><g class="cls-24"><path d="M406.35,384.85c0,.26.09.53.13.8a13.62,13.62,0,0,1,.09,4.08,3.74,3.74,0,0,1-2.5,1.7,12.46,12.46,0,0,1-6.78-.21,19.89,19.89,0,0,0-5.13-.74,49,49,0,0,1-7,0,16.61,16.61,0,0,1-5.07-1.3,6.34,6.34,0,0,1-3-2.91,4.67,4.67,0,0,1,2.82-4.52,10.41,10.41,0,0,1,5.22-.85c1.95.1,3.41.42,5.14.38a8.58,8.58,0,0,0,3.47-.67,3.42,3.42,0,0,0,1.15-1.49c.31-.6.44-1.14,1-1.18,0,0,8.16.21,9,.32s.95,3.43,1,4.08.06,1,.17,1.54C406.22,384.19,406.29,384.52,406.35,384.85Z" transform="translate(-12.94 -51.8)"/></g><path class="cls-17" d="M393.26,380.82a6,6,0,0,0-2.23,3.84c0,1-1.76,1-1.76,0a8.4,8.4,0,0,1,1.72-3.42A3.21,3.21,0,0,1,393.26,380.82Z" transform="translate(-12.94 -51.8)"/><path class="cls-17" d="M389.41,381.26a6.24,6.24,0,0,0-2.05,3.27c-.06.74-1.59.6-1.53-.14a4.74,4.74,0,0,1,2.06-3.25C388.39,380.82,389.27,381,389.41,381.26Z" transform="translate(-12.94 -51.8)"/><path class="cls-17" d="M386.41,381c-.8-.05-2.54,1-3.47,3.41a14,14,0,0,0-.59,5.57,7.91,7.91,0,0,1-4.38-2.3,3.33,3.33,0,0,1-.07-5.19c1.23-1.35,3.07-2.19,5.93-2.23,3.2,0,3.44.83,3.44.83Z" transform="translate(-12.94 -51.8)"/><path class="cls-21" d="M405.35,371.67s-.47,6.85-.47,8c0,.68-1.11,1.53-4.59,1.41C397.84,381,396,379.63,396,379l-.33-5.69Z" transform="translate(-12.94 -51.8)"/><path class="cls-13" d="M408.46,359.06a10.42,10.42,0,0,0,.29,4.7c.87,2.47,2.71,3.6,3.8,4.58a18.93,18.93,0,0,1,3.16,3.83,16.06,16.06,0,0,0,3.29,4.12c1,.89,3.93,1,5.33.38s1.86-1.11,1.78-3.35-6.86-3-6.86-3Z" transform="translate(-12.94 -51.8)"/><path class="cls-5" d="M425.23,366.67c.58.22.72,1.32.81,3.5.07,1.66.76,4.08-1.52,5.12a5.56,5.56,0,0,1-6-1.28c-1.55-1.94-2.6-3.65-4.81-6-1.92-2.06-3.92-2.75-4.77-6.87-.55-2.65-.12-3.74,1.66-4.5,2.45-1,6.3,2.37,8.22,2.9C420.46,360,424.65,366.45,425.23,366.67Z" transform="translate(-12.94 -51.8)"/><path class="cls-9" d="M425.23,366.67c.58.22.72,1.32.81,3.5.07,1.66.76,4.08-1.52,5.12a5.56,5.56,0,0,1-6-1.28c-1.55-1.94-2.6-3.65-4.81-6-1.92-2.06-3.92-2.75-4.77-6.87-.55-2.65-.12-3.74,1.66-4.5,2.45-1,6.3,2.37,8.22,2.9C420.46,360,424.65,366.45,425.23,366.67Z" transform="translate(-12.94 -51.8)"/><path class="cls-17" d="M418.81,359.51l-.33-.11a6.3,6.3,0,0,0-5.3,3.48c-.33.72.68,1.28,1.28.72a6.74,6.74,0,0,1,5.3-3.46A3.07,3.07,0,0,0,418.81,359.51Z" transform="translate(-12.94 -51.8)"/><path class="cls-17" d="M420.39,360.76a6.26,6.26,0,0,0-4.92,3.45c-.33.72.68,1.28,1.27.72a6.44,6.44,0,0,1,4.42-3.3C420.9,361.32,420.64,361,420.39,360.76Z" transform="translate(-12.94 -51.8)"/><path class="cls-21" d="M425.56,362.72l-.33,4.61a6.57,6.57,0,0,1-6.78.18c-.12-.26-.46-4.38-.46-4.38Z" transform="translate(-12.94 -51.8)"/><path class="cls-17" d="M410.05,364.16s.2-4.9,6.82-5.58l.38.21a5.72,5.72,0,0,0-3.26-2.51,4.5,4.5,0,0,0-5.1,1.46C407.74,359.23,408.91,363.2,410.05,364.16Z" transform="translate(-12.94 -51.8)"/><path class="cls-14" d="M427.49,332a66.33,66.33,0,0,0-2.62-12.89s1.13-11,1.79-21.52c.71-11.32.55-25.57.83-28.39,0,0-36.71-7.79-36.75,5-.05,14.75.77,47.13,1,51.24.3,5.76.32,11.75,1.3,21.1s2.58,30,2.58,30c4.68,1.68,9.77,0,9.77,0s2.71-25.08,2.59-31.73a56.85,56.85,0,0,0-2.19-14.54l3.54-29.63.82,15.76c.3,5.76,1.83,8.66,3.26,19.38,1.23,9.31,4.44,28.07,4.44,28.07a10.24,10.24,0,0,0,7.76,0S428.44,340.07,427.49,332Z" transform="translate(-12.94 -51.8)"/><path class="cls-15" d="M422.83,286.14s-2,5.69-10.36,9.14c0,0-2.53,18.17-2.51,17.78l-.65-12.44.82-6.84S418.07,291.25,422.83,286.14Z" transform="translate(-12.94 -51.8)"/><polygon class="cls-21" points="390.54 166.22 391.75 178.26 403.62 178.3 402.71 164.34 390.54 166.22"/><path class="cls-13" d="M427.68,228.26c-1-3.26-4.65-6.95-8.78-6.28-1,.16-1.87.24-2.77.4-.5,2-6.78,2.84-12.05,1.6l-7.39,1.21c-3.79,1.26-5.82,7.4-6.4,18.49s-.05,28.26.14,36a42.59,42.59,0,0,0,24,2.55c11.37-2.22,13.23-7.08,13.23-7.08l-.8-19.87c0-4.32,1.62-10.17,2-12.95C429.86,233.79,428.37,230.5,427.68,228.26Z" transform="translate(-12.94 -51.8)"/><path class="cls-21" d="M396.65,226s-7.8.55-10.32,4.95c-2.71,4.74-11.64,24.89-11.64,24.89-2.84.36-16.63,1.49-19.4,1.38a9,9,0,0,1-2.2-.17c-1.42-.45-2-1.94-2.91-3-1.17-1.35-2.44-2.6-3.7-3.86a1.42,1.42,0,0,0-.78-.47.87.87,0,0,0-.82.49,1.86,1.86,0,0,0-.16,1,4.34,4.34,0,0,0,.95,2.51,3.35,3.35,0,0,1,.78,1.21c.36,1.55-2.06,1-2.82.77a12.73,12.73,0,0,1-3-1.49l-3.7-2.06a2.29,2.29,0,0,0-2-.4c-.66.31-.85,1.16-.92,1.9-.26,2.48-.21,5.16,1.18,7.24a10.26,10.26,0,0,0,5.29,3.63,34.54,34.54,0,0,0,10.18,1.81c3.31.14,6.12.14,10.18.32,6,.26,11.68.71,17.66.73.53,0,1.05,0,1.57,0,3.09-.06,3.5-1.15,4-1.77C386.55,262.62,397,240,397,240,399.71,231.07,396.65,226,396.65,226Z" transform="translate(-12.94 -51.8)"/><path class="cls-5" d="M396.69,225.19c-2.31.21-7.73.58-10.36,5.76-3,5.89-10,20.45-10,20.45a22.18,22.18,0,0,0,12.86,7s5.78-11,7.88-15.54C399.3,238.15,399.33,228.25,396.69,225.19Z" transform="translate(-12.94 -51.8)"/><path class="cls-19" d="M396.69,225.19c-2.31.21-7.73.58-10.36,5.76-3,5.89-10,20.45-10,20.45a22.18,22.18,0,0,0,12.86,7s5.78-11,7.88-15.54C399.3,238.15,399.33,228.25,396.69,225.19Z" transform="translate(-12.94 -51.8)"/><path class="cls-25" d="M396.35,202.92s-3.06,4.12-2.76,4.56,2.35.93,2.35.93Z" transform="translate(-12.94 -51.8)"/><path class="cls-21" d="M404.86,191.53c-5.78.88-7.57,3.29-8.62,12.33-1.1,9.44-.31,12.47.87,13.82.79.91,5.45,1.33,7.84.81,3-.64,9.79-2.62,13.18-7.21,4-5.4,5.39-12.94,1.64-16.28C414.49,190.3,407.21,191.17,404.86,191.53Z" transform="translate(-12.94 -51.8)"/><path class="cls-14" d="M395.61,194.51a7.54,7.54,0,0,0,1.4,1.24,18.37,18.37,0,0,0,2.31,1.46,14.36,14.36,0,0,1,2.25,1.22,3.19,3.19,0,0,1,1,3c0,.78-.08,1.75-.13,2.8-.07,1.57.86,2.82,1.47.74,0,0,1.1-3.45,4-2.84s3,4,1.44,6.48c-1,1.54-3.22,1-3.22,1a10.36,10.36,0,0,0,2.63,8.12s2.27,1.36,7,.63c3.43-4.19,5.56-6.2,7.47-9.88,4-7.79,2.59-12.9-.06-15.17-.34-3.71-3.15-5.53-6.41-6.47-4.87-1.42-9.66,1.25-14.49-.12-.78-.23-1.59-.46-2.34-.76a1.26,1.26,0,0,0-1-.12,1.08,1.08,0,0,0-.53,1.06,3,3,0,0,0,1.31,2.4c-.1-.07-.58,0-.71,0l-.83,0a14.6,14.6,0,0,1-1.6-.21,3,3,0,0,0-1.11,0,2,2,0,0,0-1.38,1.94,5,5,0,0,0,.75,2.42,6.7,6.7,0,0,0,.54.88Z" transform="translate(-12.94 -51.8)"/><path class="cls-25" d="M397.11,217.68c.64.73,3.81,1.15,6.26,1h.17l-.16-1.35S399.45,218.27,397.11,217.68Z" transform="translate(-12.94 -51.8)"/></g></g></g></g></svg>