<?xml version="1.0" encoding="utf-8"?>
<!-- Generator: Adobe Illustrator 25.0.0, SVG Export Plug-In . SVG Version: 6.00 Build 0)  -->
<svg version="1.1" id="Camada_1" xmlns="http://www.w3.org/2000/svg" xmlns:xlink="http://www.w3.org/1999/xlink" x="0px" y="0px"
	 viewBox="0 0 104 145.4" style="enable-background:new 0 0 104 145.4;" xml:space="preserve">
<style type="text/css">
	.st0{fill:#62B246;}
	.st1{fill:#A4C3AC;}
	.st2{fill:#BBDDC8;}
	.st3{fill:#20D124;}
	.st4{fill:#A8D4B7;stroke:#BFDEC8;stroke-miterlimit:10;}
</style>
<path class="st0" d="M33.7,2.1c0,0-23.3,7-21.1,43.9v79.6h26.5L33.7,2.1z"/>
<path class="st0" d="M31.1,25.9v114.3h50.7V44c0,0,3.3-36.9-20.9-41.5C60.9,2.5,31.1-2.9,31.1,25.9z"/>
<rect x="29.8" y="99.1" class="st1" width="35.3" height="17.5"/>
<path class="st2" d="M103.9,145.4H80.1l-4.3-17.2c0,0-3.5-26.2,14.5-26.5c0,0,9.3,6.5,11.8,21.9
	C102.1,123.5,104.1,135.8,103.9,145.4z"/>
<path class="st2" d="M21.1,145.4l3.2-13c0,0,5.7-29-12.2-29.4c0,0-13,10.7-12,42.4L21.1,145.4"/>
<rect x="39.1" y="63.9" class="st2" width="21.8" height="31.9"/>
<path class="st1" d="M60.9,76.9v-13H39.1v18.7C46.3,82.4,54.8,81.1,60.9,76.9z"/>
<path class="st2" d="M10.3,105.9c3-4.5,7.4-7.9,12.6-9.6l18.4-6.8h17.5l22.5,6.8c5.2,1.7,9.6,5.1,12.6,9.6H10.3z"/>
<path class="st3" d="M14.8,131.8v13.6h70.7l-0.8-15.8c-0.9-30.5,2.5-30.5,2.5-30.5c-1.8-1.2-3.8-2.2-5.8-2.8l-17.7-5
	c0,0-3.8,16.5-18.4,16.5c0,0-11.3-6.1-8.2-16.7l-14,5.2c-4,1.4-7.7,3.7-10.7,6.7C12.2,103.1,14.6,104.6,14.8,131.8z"/>
<path class="st2" d="M63.3,66.4c-0.7,1.8-1.8,3.4-3.2,4.7c-3.6,3.5-7.8,6.3-12.5,8.2c-5.7,2.4-14.3,2.6-18.8-2.1
	c-3.7-3.8-5.7-9.6-7.3-14.5c-3.1-9.6-3-20.1-2.2-30.1c0.2-2.3,0.4-4.5,0.8-6.8C23.5,4.2,42.1,4.2,42.1,4.2c14-0.6,26.9,6,29,20.8
	c0.8,5.7-0.3,11.8-0.6,17.4c-0.1,4.2-0.8,8.3-2.1,12.3C67.2,58.8,64.9,62.5,63.3,66.4z"/>
<path class="st4" d="M65.1,49.8c0,0,1.9-7.7,7.8-4.5c0,0,2.7,1.4,0.8,6.7c0,0-2.8,7.6-8.6,4.8V49.8z"/>
<path class="st0" d="M17.8,28.4C16.8-1.4,45.1,0,45.1,0c27.8,1.1,29.2,13.7,29.2,13.7c3.4,16-1.4,31.5-1.4,31.5
	C67,44,66,51.9,66,51.9c0.6-12.7-0.4-13.5-0.4-13.5c-5.2,0-10.4-0.4-15.5-1.1l-0.4-8.9L47.5,37c-8.8-0.3-17.5-1.5-26.1-3.4
	c0,0-3.5,0.2-3.5,11L17.8,28.4z"/>
</svg>
