<svg xmlns="http://www.w3.org/2000/svg" viewBox="0 0 612 610.45"><defs><style>.cls-1{fill:#080405;fill-rule:evenodd;}#circle{animation: rotate 1s infinite;transform-origin: center;}@keyframes rotate {to {transform: rotate(360deg);}}</style></defs><title>box</title><g id="box"><path class="cls-1" d="M267.57,150.86c-30.74,15.55-52.42,26.8-84.59,43.92-7.06,3.81-13.06,7.05-13.3,7.3s22.23,14.87,79.71,51c22.43,14.06,51.54,32.11,55,34.05l2.5,1.44,8.87-4.75c4.93-2.56,27.42-14.18,50-25.74,56-28.68,77.78-40.17,77.28-40.92a31.82,31.82,0,0,0-4.5-2.81c-8.87-4.94-31.23-18.12-68.34-40.3-50.42-30.11-67.28-39.91-68.53-39.91C301.12,134.12,285.81,141.67,267.57,150.86Z" transform="translate(0 0)"/><path class="cls-1" d="M151.06,309v82.4l15.8,9.87c17.06,10.62,32.93,20.31,81.4,49.48,17.25,10.31,33.61,20.24,36.49,22s5.75,3.13,6.37,3.13c1.06,0,1.12-2.88,1.12-82.34V311.1l-19.17-11.75c-40.17-24.61-120.64-72.78-121.64-72.78C151.25,226.57,151.06,263.68,151.06,309Z" transform="translate(0 0)"/><path class="cls-1" d="M449.05,244.44c-17.74,9.31-64.53,33.42-95.71,49.35L321.61,310v82.59c0,54.91.18,82.65.62,82.65.81,0,54.54-26.86,78.4-39.23,17.68-9.12,43.48-22.93,54.23-28.86l4.81-2.75V340c0-62.72-.44-100.27-1.19-100.27C458.29,239.69,454.05,241.82,449.05,244.44Z" transform="translate(0 0)"/></g><g id="circle"><path class="cls-1" d="M281.62.43C215.34,6.55,162.3,27.1,115.45,64.83,80.34,93.07,50.17,131,30.18,171.91,1.63,230.32-6.87,296.6,5.56,363.7a324.94,324.94,0,0,0,16.49,57.47c4.19,10.62,15.5,33.43,21.81,44,36.92,61.6,94.89,107.39,165.48,130.69,20.18,6.69,42.67,11.19,68.85,13.81,10.93,1.06,52.41,1.06,62.47,0a295.33,295.33,0,0,0,62.78-13.87,291.37,291.37,0,0,0,56.35-25.42c21.56-12.69,27.49-19.18,27.55-30.12.07-6.93-1.43-10.74-5.81-15.18-4.56-4.49-10-6.43-17-6-5.12.37-7.62,1.43-17.12,7.56-37.23,24.11-76.4,37.67-118.63,41.1-11.75.94-40.11.44-51.48-.94-25.49-3.12-49.85-9.12-70.28-17.36a333,333,0,0,1-34.36-17.06,274.63,274.63,0,0,1-65.84-55.66A253.59,253.59,0,0,1,48.35,357.76c-3.68-18.61-4.37-27.3-4.43-51.54,0-23.48.5-30.29,3.5-47.79,6.12-35.73,22.11-73.65,44.73-106.07,35.54-50.92,87.46-86.46,149.93-102.58,35.23-9.12,69.59-10.31,108.58-3.69A266.68,266.68,0,0,1,465.6,96c17.5,13.11,36.92,32.73,51.67,52.35,28.67,37.92,44.66,79.71,50.29,131.37,1.5,14.19,1.5,41.67-.07,54.35a249.43,249.43,0,0,1-11.93,53.42C546,416.3,536.13,435.17,514,466.78c-3.87,5.43-5,8.74-5,14.12a21.33,21.33,0,0,0,12.62,19.61c5.31,2.38,12.43,2.56,16.93.38,6.56-3.19,10.5-7.94,23-27.55,9.69-15.06,13.75-22.12,19.62-33.8,19.8-39.48,29.61-79.34,30.67-125.19a312.91,312.91,0,0,0-32-145.56,283.85,283.85,0,0,0-54.67-77.34C475.1,40.1,413.31,10.11,339.41,1.3,329.35.11,291.37-.45,281.62.43Z" transform="translate(0 0)"/></g></svg>