<svg id="Camada_1" data-name="Camada 1" xmlns="http://www.w3.org/2000/svg" viewBox="0 0 200 278.18"><defs><style>.cls-1{fill:#a9cc70;}.cls-2{fill:#00a57c;}.cls-3{fill:#fafcfb;}</style></defs><polygon class="cls-1" points="123.74 0 0 0 0 278.18 200 278.18 200 76.26 123.74 0"/><path class="cls-2" d="M50.3,123.7v80.13H235V123.69H50.3Z" transform="translate(-50.3 -11.13)"/><path class="cls-2" d="M174,11.13,250.3,87.39h-60A16.27,16.27,0,0,1,174,71.12Z" transform="translate(-50.3 -11.13)"/><path class="cls-3" d="M82.76,181.33l14.4-18.28L83.5,145.82a3,3,0,0,1-.8-1.85,2.4,2.4,0,0,1,2.4-2.34,2.63,2.63,0,0,1,2.15,1.23l13,16.87L113,143.05a3,3,0,0,1,2.34-1.42,2.27,2.27,0,0,1,2.22,2.28,2.65,2.65,0,0,1-.68,1.72L103.19,163l14.22,18.15a2.67,2.67,0,0,1,.8,1.79,2.4,2.4,0,0,1-2.4,2.4,2.63,2.63,0,0,1-2.15-1.23l-13.6-17.66L86.64,183.91a3,3,0,0,1-2.4,1.42,2.26,2.26,0,0,1-2.16-2.28A2.65,2.65,0,0,1,82.76,181.33Z" transform="translate(-50.3 -11.13)"/><path class="cls-3" d="M128.37,144.09a2.43,2.43,0,1,1,4.86,0v36.44h22.34a2.27,2.27,0,0,1,2.22,2.28,2.21,2.21,0,0,1-2.22,2.21h-24.8a2.46,2.46,0,0,1-2.4-2.46Z" transform="translate(-50.3 -11.13)"/><path class="cls-3" d="M164.93,179.85A2.19,2.19,0,0,1,164,178a2.34,2.34,0,0,1,2.33-2.4,2.15,2.15,0,0,1,1.48.55,19.58,19.58,0,0,0,13.6,5.11c5.79,0,9.6-3.08,9.6-7.33v-.12c0-4-2.15-6.28-11.2-8.18-9.91-2.16-14.46-5.36-14.46-12.44v-.12c0-6.77,6-11.76,14.16-11.76a22,22,0,0,1,13.72,4.25,2.52,2.52,0,0,1,1,2,2.34,2.34,0,0,1-2.34,2.34,2.26,2.26,0,0,1-1.42-.43,18,18,0,0,0-11.14-3.76c-5.6,0-9.17,3.08-9.17,7v.12c0,4.06,2.22,6.34,11.7,8.37s14,5.6,14,12.19v.12c0,7.39-6.16,12.19-14.71,12.19A25.15,25.15,0,0,1,164.93,179.85Z" transform="translate(-50.3 -11.13)"/></svg>