<svg id="Camada_1" data-name="Camada 1" xmlns="http://www.w3.org/2000/svg" viewBox="0 0 196.74 273.65"><defs><style>.cls-1{fill:#87ccd5;}.cls-2{fill:#00a6c7;}.cls-3{fill:#fafcfb;}</style></defs><polygon class="cls-1" points="121.73 0 0 0 0 273.65 196.74 273.65 196.74 75.02 121.73 0"/><path class="cls-2" d="M54.13,123.91v78.83h181.7V123.9H54.13Z" transform="translate(-54.13 -13.17)"/><path class="cls-2" d="M175.85,13.17l75,75h-59a16,16,0,0,1-16-16Z" transform="translate(-54.13 -13.17)"/><path class="cls-3" d="M76.57,143.76a2.4,2.4,0,1,1,4.79,0v16.71h24.46V143.76a2.39,2.39,0,1,1,4.78,0V181.9a2.39,2.39,0,1,1-4.78,0V165H81.36v17a2.4,2.4,0,1,1-4.79,0Z" transform="translate(-54.13 -13.17)"/><path class="cls-3" d="M133.79,146.06H121.5a2.22,2.22,0,0,1-2.24-2.18,2.28,2.28,0,0,1,2.24-2.24h29.42a2.28,2.28,0,0,1,2.24,2.24,2.22,2.22,0,0,1-2.24,2.18H138.63V181.9a2.42,2.42,0,1,1-4.84,0Z" transform="translate(-54.13 -13.17)"/><path class="cls-3" d="M161.82,143.82a2.4,2.4,0,0,1,2.36-2.36h.55a2.62,2.62,0,0,1,2.24,1.27l15.14,22.76,15.13-22.76a2.57,2.57,0,0,1,2.24-1.27H200a2.4,2.4,0,0,1,2.36,2.36V181.9a2.42,2.42,0,0,1-2.36,2.42,2.47,2.47,0,0,1-2.43-2.42V150.3L184,170.22a2.35,2.35,0,0,1-2,1.21,2.44,2.44,0,0,1-2-1.21l-13.51-19.86V182a2.33,2.33,0,1,1-4.66,0Z" transform="translate(-54.13 -13.17)"/></svg>