<svg width="100" height="53" viewBox="0 0 100 53" fill="none" xmlns="http://www.w3.org/2000/svg">
<path d="M28.5334 16H6.49461C5.48317 16 4.79113 16.8681 5.05729 17.7844C5.32346 22.8483 6.49461 40.6369 6.49461 40.6369C6.49461 42.5177 9.10306 43 11.1792 43H25.2861C27.3623 43 28.214 41.9872 28.214 40.1064C28.214 40.1064 29.3852 24.4398 29.9175 17.7844C30.2369 16.8681 29.5981 16 28.5334 16Z" fill="#DCDCDC"/>
<path fill-rule="evenodd" clip-rule="evenodd" d="M5.15655 17.7676L5.15716 17.7792C5.2902 20.3104 5.64949 26.0228 5.97556 31.1032C6.13859 33.6432 6.2933 36.025 6.40725 37.7718C6.46423 38.6451 6.51101 39.3598 6.54356 39.8561L6.59434 40.6295C6.59435 40.6296 6.5944 40.6303 6.49461 40.6369C6.49461 40.6369 5.32346 22.8483 5.05729 17.7844C4.79113 16.8681 5.48317 16 6.49461 16H28.5334C29.5981 16 30.2369 16.8681 29.9175 17.7844C29.3852 24.4398 28.214 40.1064 28.214 40.1064C28.1554 40.102 28.1312 40.1001 28.1213 40.0994C28.1143 40.0988 28.1143 40.0988 28.1143 40.0987L28.3056 37.547C28.4237 35.9742 28.5867 33.8079 28.7664 31.4336C29.1257 26.6851 29.5516 21.1044 29.8178 17.7764L29.8188 17.7636L29.8231 17.7515C29.9722 17.3238 29.8967 16.913 29.665 16.6092C29.433 16.305 29.0379 16.1 28.5334 16.1H6.49461C5.54251 16.1 4.90772 16.911 5.15332 17.7565L5.15655 17.7676ZM28.214 40.1064L28.1143 40.0987L28.114 40.1064C28.114 41.0338 27.9038 41.7269 27.4568 42.189C27.0103 42.6504 26.3095 42.9 25.2861 42.9H11.1792C10.1462 42.9 8.98947 42.7797 8.0947 42.4306C7.20005 42.0815 6.59461 41.5171 6.59461 40.6369L6.59434 40.6295L6.49461 40.6369C6.49461 42.5177 9.10306 43 11.1792 43H25.2861C27.3623 43 28.214 41.9872 28.214 40.1064Z" fill="white"/>
<path fill-rule="evenodd" clip-rule="evenodd" d="M0.181036 0.217195C0.308332 0.0786554 0.486521 0 0.673078 0H34.3269C34.5148 0 34.6942 0.0798104 34.8216 0.220126C34.9491 0.360442 35.0129 0.548484 34.9978 0.738767L31.6061 43.4074C31.5243 45.2842 29.9219 46.6495 28.019 46.8517L27.0465 46.9681C27.0187 46.9714 26.9907 46.973 26.9627 46.9728C19.2635 46.9143 15.4174 46.9143 8.12346 47.0312C8.09594 47.0316 8.06842 47.0303 8.04105 47.0273L6.43394 46.8522C4.53195 46.6517 2.91322 45.2246 2.89862 43.3904L0.00159752 0.730791C-0.0112418 0.541729 0.0537406 0.355734 0.181036 0.217195ZM1.39419 1.36747L4.24308 43.3184C4.24414 43.334 4.24468 43.3497 4.24468 43.3654C4.24468 44.3257 5.14948 45.3422 6.57264 45.492L6.5751 45.4923L8.14357 45.6632C15.4106 45.547 19.2667 45.5469 26.9307 45.605L27.8756 45.4919C29.2999 45.3421 30.2208 44.3759 30.2616 43.3381C30.262 43.3289 30.2625 43.3196 30.2633 43.3104L33.5973 1.36747H1.39419Z" fill="#DCDCDC"/>
<path fill-rule="evenodd" clip-rule="evenodd" d="M31.5064 43.3995L34.8981 0.730843C34.9111 0.567856 34.8563 0.40707 34.7476 0.287355L34.8216 0.220126C34.9491 0.360442 35.0129 0.548484 34.9978 0.738767L31.6061 43.4074C31.5243 45.2842 29.9219 46.6495 28.019 46.8517L27.0465 46.9681C27.0187 46.9714 26.9907 46.973 26.9627 46.9728C19.2635 46.9143 15.4174 46.9143 8.12346 47.0312C8.09594 47.0316 8.06842 47.0303 8.04105 47.0273L6.43394 46.8522L6.44478 46.7528L8.05189 46.9279C8.07512 46.9305 8.09849 46.9315 8.12186 46.9312C15.4168 46.8143 19.2637 46.8143 26.9635 46.8728C26.9872 46.8729 27.011 46.8716 27.0346 46.8688L28.0084 46.7522C29.8747 46.554 31.427 45.2188 31.5062 43.403L31.5064 43.3995ZM2.89862 43.3904C2.91322 45.2246 4.53195 46.6517 6.43394 46.8522L6.44478 46.7528C4.5795 46.5562 3.01271 45.1601 2.99862 43.3897L0.101368 0.724016C0.0903703 0.562075 0.146071 0.403047 0.254672 0.284854C0.363213 0.166726 0.514781 0.1 0.673078 0.1H34.3269C34.4864 0.1 34.639 0.167706 34.7476 0.287355L34.8216 0.220126C34.6942 0.0798104 34.5148 0 34.3269 0H0.673078C0.486521 0 0.308332 0.0786554 0.181036 0.217195C0.0537406 0.355734 -0.0112418 0.541729 0.00159752 0.730791L2.89862 43.3904ZM1.32112 1.2992C1.34003 1.27896 1.36649 1.26747 1.39419 1.26747H33.5973C33.6252 1.26747 33.6518 1.27913 33.6708 1.29962C33.6897 1.32011 33.6992 1.34758 33.697 1.37539L30.363 43.3183C30.3623 43.3262 30.3619 43.3341 30.3616 43.3421C30.3184 44.4397 29.3489 45.4371 27.887 45.5913C27.8867 45.5913 27.8873 45.5913 27.887 45.5913L26.93 45.7058C19.2664 45.6477 15.4112 45.647 8.14517 45.7632L8.13265 45.7634L6.56456 45.5917L6.56218 45.5914C5.10041 45.4376 4.14468 44.3883 4.14468 43.3654C4.14468 43.352 4.14422 43.3386 4.14331 43.3251L1.29442 1.37425C1.29254 1.34661 1.30221 1.31944 1.32112 1.2992ZM6.57264 45.492L6.5751 45.4923L8.14357 45.6632C15.4106 45.547 19.2667 45.5469 26.9307 45.605L27.8756 45.4919C29.2999 45.3421 30.2208 44.3759 30.2616 43.3381C30.262 43.3289 30.2625 43.3196 30.2633 43.3104L33.5973 1.36747H1.39419L4.24308 43.3184C4.24414 43.334 4.24468 43.3497 4.24468 43.3654C4.24468 44.3257 5.14948 45.3422 6.57264 45.492Z" fill="white"/>
<path d="M19.7603 31.8398C19.7603 33.9541 18.0463 35.668 15.9321 35.668C13.8179 35.668 12.104 33.9541 12.104 31.8398C12.104 29.7256 13.8179 28.0117 15.9321 28.0117C18.0463 28.0117 19.7603 29.7256 19.7603 31.8398Z" fill="white"/>
<path d="M12.3531 19.3966C13.7674 20.1677 14.2888 21.9393 13.5178 23.3536C12.7467 24.7679 10.9751 25.2893 9.5608 24.5182C8.14651 23.7471 7.62508 21.9756 8.39615 20.5613C9.16723 19.147 10.9388 18.6255 12.3531 19.3966Z" fill="white"/>
<path fill-rule="evenodd" clip-rule="evenodd" d="M67.203 33.6354C65.1862 29.6519 65.6151 24.5863 70.3609 21.1539C70.6611 20.9371 70.9801 20.7384 71.2991 20.5397C75.1646 18.2637 84.622 14.3259 89.5946 22.1112C92.7788 27.1192 91.4526 30.8979 88.9717 33.6241C83.4453 33.6241 74.1008 33.6354 67.203 33.6354Z" fill="white"/>
<path fill-rule="evenodd" clip-rule="evenodd" d="M68.6026 18.723L68.6046 18.7216C68.9888 18.4442 69.3823 18.1992 69.6821 18.0124C69.6925 18.006 69.7027 17.9996 69.7128 17.9933L69.7445 17.9735L69.7768 17.9546C71.8942 16.7078 75.6739 14.9131 79.7766 14.5633C84.0547 14.1986 88.8888 15.4333 92.1226 20.4964L92.1259 20.5016C94.0144 23.4717 94.7325 26.363 94.3833 29.1027C94.039 31.8036 92.7056 33.9781 91.1903 35.6433L90.2977 36.6242H88.9715C86.3641 36.6242 82.906 36.6267 79.2545 36.6293L78.6036 36.6298C74.7146 36.6326 70.6529 36.6354 67.2027 36.6354H65.359L64.5262 34.9905C63.253 32.4756 62.7056 29.5269 63.3065 26.5872C63.9158 23.6065 65.664 20.8484 68.6026 18.723ZM70.3607 21.1539C70.6607 20.9372 70.9795 20.7387 71.2983 20.5401L71.2989 20.5397C75.1644 18.2637 84.6217 14.3259 89.5943 22.1112C92.7786 27.1192 91.4524 30.8979 88.9715 33.6242C86.3613 33.6242 82.8993 33.6267 79.2456 33.6293C75.1637 33.6323 70.8426 33.6354 67.2027 33.6354C65.186 29.6519 65.6149 24.5863 70.3607 21.1539Z" fill="white"/>
<path fill-rule="evenodd" clip-rule="evenodd" d="M89.7638 36.6464L89.7607 36.6474L89.7638 36.6464ZM29.1787 36.6565C28.8016 36.6565 28.5 36.9916 28.5 37.3906C28.5 37.6939 28.681 37.9652 28.9525 38.0609C29.0271 38.0874 29.1026 38.1141 29.1787 38.1411C29.1923 38.146 29.206 38.1508 29.2197 38.1557L29.222 38.1565C35.9545 40.5438 48.3033 44.9937 48.3033 45.4504V46.4718C48.3033 47.1102 48.801 47.6369 49.4043 47.6369H69.8109C70.4142 47.6369 70.9119 47.1102 70.9119 46.4718V45.4504C70.9119 44.9779 83.2753 40.5434 89.9938 38.1565L89.9982 38.1549C90.016 38.1486 90.0338 38.1422 90.0516 38.1359C90.1226 38.1107 90.193 38.0857 90.2627 38.0609C90.6247 37.9333 90.8057 37.5183 90.685 37.1353C90.5945 36.848 90.3381 36.6565 90.0516 36.6565H29.1787ZM90.7632 39.475C91.9903 39.0412 92.4447 37.7291 92.1157 36.6846C91.8381 35.8032 91.0244 35.1565 90.0516 35.1565H29.1787C27.8532 35.1565 27 36.2885 27 37.3906C27 38.2706 27.5279 39.1484 28.4522 39.4751C31.7831 40.6553 36.6111 42.3835 40.6034 43.8732C42.602 44.619 44.3778 45.3001 45.6485 45.8207C46.1175 46.0129 46.5048 46.1779 46.8033 46.3128V46.4718C46.8033 47.8575 47.8938 49.1369 49.4043 49.1369H69.8109C71.3214 49.1369 72.4119 47.8575 72.4119 46.4718V46.3079C72.7103 46.1725 73.0983 46.0068 73.5691 45.8138C74.8402 45.2927 76.617 44.6124 78.6166 43.8675C82.6106 42.3799 87.4379 40.6559 90.7632 39.475ZM71.8612 46.5801L71.8634 46.5787C71.8575 46.5827 71.8564 46.5831 71.8612 46.5801ZM47.3608 46.5869C47.3661 46.5902 47.365 46.5898 47.3588 46.5857L47.3608 46.5869Z" fill="#DCDCDC"/>
<path fill-rule="evenodd" clip-rule="evenodd" d="M90.264 38.0605C90.2646 38.0603 90.2652 38.0601 90.2658 38.0598C90.2664 38.0596 90.267 38.0594 90.2676 38.0592C90.6263 37.9295 90.8051 37.5166 90.685 37.1353C90.5945 36.848 90.3381 36.6565 90.0516 36.6565H29.1787C28.8016 36.6565 28.5 36.9916 28.5 37.3906C28.5 37.6937 28.6808 37.9649 28.9521 38.0608C28.9519 38.0607 28.9522 38.0608 28.9521 38.0608L29.222 38.1565C29.7802 38.3544 30.3771 38.5665 31.0023 38.7894C31.7734 39.0643 32.5876 39.3554 33.4258 39.6565C35.951 40.5633 38.6934 41.5595 41.1278 42.4679C42.8203 43.0994 44.3639 43.6885 45.5821 44.1758C45.8051 44.2649 46.0171 44.3507 46.2172 44.4327C46.6901 44.6264 47.0961 44.7991 47.4209 44.9459C47.736 45.0882 47.9746 45.2062 48.1238 45.2954C48.1317 45.3001 48.1393 45.3047 48.1467 45.3093C48.1509 45.3119 48.1551 45.3145 48.1592 45.3171C48.1592 45.317 48.1592 45.3171 48.1592 45.3171C48.1707 45.3243 48.1816 45.3314 48.1918 45.3382C48.2651 45.3872 48.3033 45.425 48.3033 45.4504V46.4718C48.3033 47.1102 48.801 47.6369 49.4043 47.6369H69.8109C70.4142 47.6369 70.9119 47.1102 70.9119 46.4718V45.4504C70.9119 45.4238 70.9509 45.3848 71.0257 45.3343C71.0348 45.3282 71.0444 45.3219 71.0546 45.3154C71.0552 45.315 71.0558 45.3147 71.0564 45.3143C71.0608 45.3115 71.0654 45.3086 71.07 45.3057C71.0773 45.3012 71.0848 45.2966 71.0925 45.2919C71.2414 45.2021 71.479 45.0839 71.7923 44.9418C72.1179 44.7941 72.5253 44.6206 73.0001 44.4259C73.2013 44.3435 73.4146 44.2572 73.6388 44.1676C74.8576 43.6802 76.4012 43.092 78.093 42.4619C80.5273 41.5552 83.2685 40.5616 85.791 39.6565C86.6336 39.3541 87.4519 39.0616 88.2262 38.7855C88.8471 38.5642 89.4396 38.3533 89.9938 38.1565L89.9982 38.1549C89.9982 38.1549 89.9982 38.1549 89.9982 38.1549L90.2612 38.0615L90.2622 38.0611C90.2622 38.0611 90.2622 38.0611 90.2622 38.0611C90.2623 38.0611 90.2638 38.0605 90.264 38.0605C90.2642 38.0604 90.2637 38.0606 90.264 38.0605ZM90.7632 39.475C90.7637 39.4748 90.7642 39.4746 90.7647 39.4744C90.7646 39.4745 90.7647 39.4744 90.7647 39.4744C91.9906 39.0401 92.4446 37.7286 92.1157 36.6846C91.8381 35.8032 91.0244 35.1565 90.0516 35.1565H29.1787C27.8532 35.1565 27 36.2885 27 37.3906C27 38.2704 27.5277 39.148 28.4515 39.4748C28.4513 39.4747 28.4517 39.4749 28.4515 39.4748C28.4519 39.475 28.4531 39.4754 28.4535 39.4755C28.5274 39.5017 28.6021 39.5282 28.6774 39.5549C28.6774 39.5549 28.6774 39.5549 28.6774 39.5549C28.6911 39.5597 28.7047 39.5646 28.7183 39.5694C28.7183 39.5694 28.7184 39.5694 28.7183 39.5694C28.7191 39.5697 28.7199 39.5699 28.7206 39.5702C28.7206 39.5702 28.7207 39.5702 28.7206 39.5702C32.0389 40.7469 36.7171 42.423 40.6034 43.8732C42.1039 44.4331 43.4788 44.9565 44.6086 45.403C44.8519 45.4991 45.0839 45.5917 45.3033 45.6803C45.3063 45.6815 45.3093 45.6828 45.3124 45.684C45.428 45.7307 45.5401 45.7763 45.6485 45.8207C46.1175 46.0129 46.5048 46.1779 46.8033 46.3128V46.4718C46.8033 46.7187 46.8379 46.9623 46.9034 47.1958C46.9081 47.2126 46.9129 47.2293 46.9179 47.246C46.921 47.2561 46.9241 47.2662 46.9273 47.2763C46.9273 47.2763 46.9273 47.2764 46.9273 47.2763C46.9279 47.2782 46.9285 47.2801 46.9291 47.282C47.219 48.1991 47.9879 48.9454 48.998 49.1052C49.1295 49.126 49.2651 49.1369 49.4043 49.1369H69.8109C69.9553 49.1369 70.0958 49.1252 70.2319 49.1028C71.2408 48.9372 72.0067 48.1857 72.2913 47.2654C72.2919 47.2635 72.2925 47.2615 72.2931 47.2595C72.2933 47.259 72.2934 47.2586 72.2936 47.2581C72.2964 47.2488 72.2992 47.2396 72.3019 47.2303C72.3068 47.2138 72.3115 47.1972 72.316 47.1805C72.3788 46.9517 72.4119 46.7133 72.4119 46.4718V46.3079C72.7103 46.1725 73.0983 46.0068 73.5691 45.8138C73.6769 45.7696 73.7884 45.7243 73.9033 45.6779C73.9062 45.6767 73.909 45.6755 73.9119 45.6744C74.1334 45.5849 74.3677 45.4914 74.6136 45.3944C75.7431 44.9483 77.1172 44.426 78.6166 43.8675C82.5046 42.4193 87.1824 40.7472 90.4955 39.5701C90.4953 39.5701 90.4956 39.57 90.4955 39.5701C90.4969 39.5696 90.4989 39.5689 90.5004 39.5683C90.5002 39.5684 90.5005 39.5683 90.5004 39.5683C90.518 39.5621 90.5361 39.5556 90.5536 39.5494C90.5536 39.5494 90.5537 39.5494 90.5536 39.5494C90.6236 39.5246 90.693 39.4999 90.7617 39.4755C90.7622 39.4753 90.7627 39.4752 90.7632 39.475ZM73.3969 48.4796C73.3611 48.5457 73.3235 48.6108 73.2842 48.675L73.5384 49.0674C73.5476 49.0612 73.5626 49.051 73.5808 49.0382L73.5819 49.0374C73.5876 49.0335 73.6065 49.0202 73.6332 49.0006L73.3969 48.4796ZM75.0504 48.45C74.2876 50.496 72.3707 52.1369 69.8109 52.1369H49.4043C46.8474 52.1369 44.9319 50.4998 44.1674 48.457C42.9701 47.9737 41.3666 47.36 39.5546 46.6839C35.5864 45.2032 30.7775 43.4817 27.4512 42.3031M45.5866 49.0057C45.6254 49.0343 45.6547 49.0544 45.6622 49.0596C45.6744 49.068 45.6849 49.0751 45.693 49.0805L45.942 48.6928C45.8999 48.6249 45.8598 48.5558 45.8216 48.4856L45.5866 49.0057ZM75.0504 48.45C76.2471 47.9669 77.8507 47.3542 79.6638 46.6788C83.6336 45.2002 88.4411 43.4832 91.7656 42.3026C94.7603 41.2424 95.7094 38.1077 94.9771 35.7832C94.3276 33.7213 92.4044 32.1565 90.0516 32.1565H29.1787C25.9089 32.1565 24 34.9346 24 37.3906C24 39.4103 25.2104 41.5101 27.4512 42.3031M47.3608 46.587C47.3651 46.5898 47.3654 46.5899 47.3608 46.587V46.587ZM91.2652 40.8885C91.2651 40.8885 91.2652 40.8885 91.2652 40.8885V40.8885ZM77.0301 39.6565H42.1747C42.2291 39.6768 42.2833 39.697 42.3374 39.7172C44.309 40.4539 46.0995 41.1411 47.4084 41.6787C48.0543 41.944 48.6319 42.1928 49.068 42.4042C49.2734 42.5037 49.5301 42.6344 49.7669 42.7842C49.8732 42.8515 50.087 42.9915 50.3089 43.1976C50.4188 43.2996 50.6142 43.4938 50.8007 43.7774C50.9064 43.9381 51.0792 44.2326 51.1921 44.6369H68.023C68.1306 44.2514 68.2923 43.9667 68.3966 43.8042C68.5806 43.5178 68.7748 43.3204 68.8862 43.2151C69.1101 43.0033 69.3266 42.8595 69.435 42.7901C69.6754 42.6363 69.9355 42.5031 70.1421 42.4024C70.5812 42.1884 71.1614 41.9381 71.8083 41.6722C73.1196 41.1334 74.9126 40.4462 76.885 39.7105C76.9333 39.6925 76.9816 39.6745 77.0301 39.6565Z" fill="white"/>
<path fill-rule="evenodd" clip-rule="evenodd" d="M28.9795 27.6522C27.5813 28.9352 27.7691 32.0719 28.9794 33.5178H58.0793C58.9557 31.7257 58 25.7993 56.1636 24.9236L55.7045 24.6996L59.5055 24.8946C59.5681 24.6502 59.6099 24.3854 59.6099 24.1411C59.6516 22.1656 61.1691 20.516 59.124 20.4549L76.6626 14.1462L76.8296 13.1521C76.8296 12.8873 76.8087 12.6226 76.767 12.3782C76.3913 10.4231 74.4715 9.11977 72.4682 9.48635L66.9382 10.4639L65.9574 6.85922C65.8113 6.32973 65.54 5.8206 65.1644 5.39293C63.7454 3.78408 61.283 3.60079 59.6344 4.96527L56.6086 7.49054L53.6244 4.92452C53.2071 4.53758 52.7063 4.27283 52.1637 4.13027C50.2021 3.60077 48.1571 4.72087 47.6145 6.63521L46.6128 9.95476L43.3574 8.97721C42.794 8.79393 42.2097 8.7532 41.6254 8.85503C39.6012 9.20124 38.2657 11.0545 38.5996 13.0095L38.996 15.4126L34.572 15.7996C34.3008 15.8199 34.0086 15.8811 33.7373 15.9625C31.8175 16.5938 30.7741 18.6507 31.421 20.5243L32.6939 24.2308L28.9795 27.6522ZM34.2184 17.5322C33.1326 17.9004 32.622 19.0282 32.9511 19.9813L32.952 19.9839L34.5773 24.7165L30.0673 28.8706C29.8613 29.0597 29.6034 29.5983 29.622 30.4891C29.633 31.0166 29.7401 31.4981 29.8893 31.8743H56.0523C58.4076 31.58 55.6944 31.6884 55.4736 31.5832L55.4671 31.58L58.1375 28.8706L58.9689 24.4893L58.9709 24.4814C59.0091 24.3323 59.0232 24.2103 59.0232 24.1411V24.1235L59.0236 24.1059C59.0452 23.0848 58.2147 22.1338 57.0073 22.0977L57.0034 22.0976L74.9889 15.7364L75.2084 13.1277C75.2072 12.9633 75.194 12.8082 75.1725 12.6758C74.9658 11.6497 73.9191 10.8909 72.7561 11.1037L72.7466 11.1054L65.7668 12.3392L64.3962 7.30189L64.3955 7.29926C64.3157 7.01183 64.1649 6.72682 63.9551 6.48739C63.1204 5.5422 61.6454 5.42443 60.6618 6.23651L60.6596 6.23834L56.593 9.63222L52.5528 6.15802L52.5304 6.13732C52.321 5.94316 52.0606 5.80096 51.757 5.72118L51.7466 5.71845C50.5835 5.4045 49.456 6.08915 49.1726 7.08907L49.1687 7.10255L47.693 11.9932L42.8795 10.5478L42.8621 10.5421C42.5491 10.4403 42.229 10.4174 41.9 10.4747L41.8951 10.4756C40.7005 10.6799 40.0257 11.7268 40.1969 12.7292L40.1985 12.7384L40.8846 16.897L34.7016 17.4378L34.6918 17.4386C34.5666 17.448 34.3989 17.4793 34.2184 17.5322Z" fill="#DCDCDC"/>
<path fill-rule="evenodd" clip-rule="evenodd" d="M27.5783 33.5178L26.951 34.5001C25.7848 33.1069 25.035 32.1744 25.0018 30.5865C24.9697 29.0449 25.3491 26.9134 26.9489 25.4438L26.951 25.4418L29.22 23.3519L28.5852 21.5034L28.5843 21.501C27.3754 17.9952 29.3418 14.2499 32.8001 13.1127L32.8371 13.1005L32.8745 13.0893C33.295 12.963 33.7972 12.8513 34.3257 12.8097L35.5541 12.7022C35.3994 9.37776 37.7947 6.46898 41.1149 5.89877C42.164 5.7167 43.229 5.78742 44.2481 6.11235L44.6061 6.21987L44.7361 5.78929C45.7566 2.24693 49.4707 0.301521 52.9357 1.23132C53.9028 1.48698 54.8284 1.96524 55.6161 2.6806L56.6375 3.55886L57.7215 2.65417C60.6095 0.263831 64.9161 0.576139 67.4142 3.40852L67.4184 3.41321C68.0953 4.18395 68.5835 5.09785 68.8493 6.0614L68.8521 6.07159L69.1136 7.03282L71.9281 6.53535C71.9315 6.53473 71.9349 6.53412 71.9382 6.53351C75.5215 5.88341 79.0205 8.20767 79.713 11.8122L79.7189 11.8426L79.7241 11.8732C79.7972 12.3013 79.8295 12.7362 79.8295 13.1521V13.4023L79.3303 16.3748L77.9025 16.8884L77.8158 17.9187L62.8207 23.2222C62.8095 23.2611 62.799 23.2976 62.7894 23.3312C62.7657 23.4138 62.7471 23.4786 62.7368 23.5171C62.6464 23.8542 62.6144 24.0532 62.6096 24.1888C62.6046 24.7304 62.5152 25.2346 62.4116 25.6391L61.8026 28.0164L61.3574 27.9935L61.1881 28.8858C61.3342 29.7839 61.413 30.7028 61.4078 31.5602C61.4021 32.4996 61.2984 30.7639 60.7742 31.8358L59.9516 33.5178H27.5783ZM58.1469 28.9189C58.1438 28.9028 58.1406 28.8867 58.1374 28.8706L58.8979 24.8634L59.5054 24.8946C59.5266 24.8119 59.5454 24.7269 59.561 24.6412C59.5615 24.6385 59.562 24.6358 59.5624 24.6332C59.5642 24.6232 59.566 24.613 59.5677 24.6029C59.5814 24.5225 59.5922 24.4416 59.5994 24.3615C59.603 24.3215 59.6057 24.2817 59.6075 24.2423C59.609 24.2082 59.6098 24.1745 59.6098 24.1411L59.6099 24.1358C59.61 24.1317 59.6101 24.1276 59.6102 24.1235L59.6103 24.1183C59.6251 23.5679 59.7533 23.0432 59.8854 22.5717C59.9104 22.4822 59.9356 22.3947 59.9602 22.3093C60.117 21.7647 60.2492 21.3054 60.1634 20.9799L74.9888 15.7364L75.0745 14.7174L76.6625 14.1462L76.8295 13.1521C76.8295 13.1401 76.8294 13.128 76.8294 13.116C76.8276 12.8767 76.8089 12.6382 76.7731 12.4155C76.7711 12.403 76.769 12.3906 76.7669 12.3782C76.7654 12.3706 76.764 12.3631 76.7624 12.3555C76.3764 10.4131 74.4636 9.1212 72.4681 9.48635L72.4606 9.48768L66.9381 10.4639L65.9602 6.87001L65.9595 6.86739L65.959 6.86551L65.9573 6.85923C65.8134 6.33777 65.5482 5.83608 65.1814 5.41248C65.1801 5.41096 65.1787 5.40945 65.1774 5.40793C65.1731 5.40292 65.1687 5.39793 65.1643 5.39294C63.7453 3.78408 61.2829 3.6008 59.6343 4.96527L56.6085 7.49055L53.6244 4.92453C53.6223 4.92263 53.6203 4.92074 53.6182 4.91885C53.2049 4.53756 52.7102 4.27565 52.1744 4.13314C52.171 4.13221 52.1672 4.13122 52.1637 4.13031C50.2027 3.60095 48.1581 4.72029 47.6148 6.6337L47.6144 6.63522L47.611 6.64644L46.6128 9.95476L43.3699 8.98099L43.3574 8.97722C43.3554 8.9766 43.3535 8.97598 43.3516 8.97536C42.79 8.79366 42.2076 8.75355 41.6253 8.85503C41.6229 8.85545 41.6205 8.85587 41.6181 8.85628L41.6131 8.85714C39.7934 9.17426 38.5334 10.7104 38.5485 12.4403C38.5501 12.6258 38.5664 12.8134 38.5982 13.0021C38.5986 13.0045 38.5991 13.0072 38.5995 13.0096L38.996 15.4126L34.572 15.7996L34.5689 15.7998C34.5655 15.8001 34.5618 15.8004 34.5583 15.8006C34.2975 15.8215 34.0181 15.8795 33.757 15.9566C33.7504 15.9586 33.7438 15.9605 33.7373 15.9625C33.7219 15.9676 33.7066 15.9727 33.6913 15.978C31.8053 16.6252 30.784 18.6561 31.4164 20.5111L31.4173 20.5137C31.4185 20.5172 31.4197 20.5208 31.4209 20.5243L32.6939 24.2308L28.9794 27.6522C28.9739 27.6572 28.9685 27.6622 28.9631 27.6673L28.9608 27.6694C28.2751 28.3131 27.9781 29.408 28.0012 30.523C28.0151 31.1975 28.1463 31.8793 28.3794 32.4732C28.5353 32.8703 28.7368 33.228 28.9794 33.5178H58.0792C58.1473 33.3785 58.2044 33.2142 58.2508 33.0293C58.5008 32.0337 58.4429 30.4393 58.1469 28.9189ZM58.1374 28.8706C58.0662 28.5114 57.9817 28.1566 57.8848 27.8154C57.493 26.4348 56.8989 25.2742 56.1635 24.9236L55.7044 24.6996L56.9276 24.7623L58.8979 24.8634L58.9688 24.4893L58.9709 24.4814C59.0091 24.3323 59.0232 24.2103 59.0232 24.1411V24.1235L59.0235 24.1059C59.0284 23.8739 58.9893 23.6455 58.9119 23.4307C58.8858 23.3583 58.8553 23.2875 58.8207 23.2186C58.5578 22.6949 58.0557 22.2818 57.4076 22.1451C57.3579 22.1346 57.3074 22.1257 57.256 22.1185C57.175 22.1073 57.0921 22.1002 57.0072 22.0977L57.0033 22.0976L60.1634 20.9799C60.0802 20.6646 59.7924 20.4749 59.1239 20.4549L75.0745 14.7174L75.2083 13.1277C75.2077 13.0412 75.2037 12.9573 75.197 12.8779C75.1912 12.8096 75.1834 12.7447 75.1738 12.6843C75.1733 12.6815 75.1729 12.6787 75.1724 12.6759C75.1708 12.6677 75.1691 12.6595 75.1673 12.6514C75.088 12.2832 74.9004 11.9505 74.6384 11.6861C74.1806 11.2242 73.4956 10.971 72.7638 11.1023C72.7612 11.1027 72.7586 11.1032 72.7561 11.1037L72.7466 11.1054L65.7667 12.3392L64.3961 7.30189L64.3954 7.29927C64.3946 7.29644 64.3938 7.29361 64.393 7.29079L64.3914 7.28528C64.3107 7.0026 64.1614 6.72294 63.955 6.4874C63.9504 6.48218 63.9457 6.47699 63.9411 6.47183L63.9388 6.4693C63.1071 5.54702 61.6588 5.43119 60.6817 6.22025C60.68 6.22165 60.6782 6.22304 60.6765 6.22444C60.6716 6.22845 60.6667 6.23247 60.6618 6.23652L60.6596 6.23835L56.5929 9.63223L52.5527 6.15802L52.5303 6.13732C52.5249 6.13227 52.5194 6.12726 52.5139 6.12228C52.3074 5.93581 52.0527 5.79889 51.7569 5.72119L51.7465 5.71845C51.7429 5.71749 51.7392 5.7165 51.7357 5.71556C50.5809 5.40992 49.4635 6.08708 49.1757 7.07773C49.1746 7.08151 49.1736 7.08529 49.1725 7.08907L49.1687 7.10256L47.6929 11.9932L42.8794 10.5478L42.8621 10.5421C42.8579 10.5408 42.8538 10.5394 42.8496 10.5381C42.5429 10.4404 42.2294 10.4185 41.9074 10.4735L41.9023 10.4743L41.9 10.4747L41.895 10.4756C40.7004 10.6799 40.0256 11.7268 40.1968 12.7292L40.1984 12.7384L40.8845 16.897L34.7015 17.4378L34.6917 17.4386C34.574 17.4474 34.4186 17.4757 34.2504 17.523C34.2398 17.526 34.2291 17.529 34.2183 17.5322C34.2154 17.5332 34.2124 17.5342 34.2095 17.5352C33.1298 17.9065 32.6228 19.0308 32.951 19.9813L32.9519 19.9839L34.5772 24.7166L30.0673 28.8706L30.0632 28.8743C30.0067 28.9273 29.9465 29.0064 29.8893 29.1116C29.7385 29.3888 29.6086 29.8477 29.6219 30.4891C29.6221 30.4987 29.6224 30.5083 29.6226 30.5178C29.6368 31.0341 29.7427 31.5049 29.8893 31.8743H56.0522C57.6018 31.6807 56.9576 31.6614 56.2725 31.6409C56.1987 31.6387 56.1243 31.6364 56.0522 31.634C56.0421 31.6336 56.0321 31.6333 56.0221 31.6329C55.759 31.6236 55.5312 31.6107 55.4735 31.5832L55.467 31.58L55.4825 31.5643L58.1374 28.8706ZM54.7882 27.995C54.7421 27.8748 54.6953 27.7648 54.6487 27.6661C54.6106 27.5857 54.5776 27.5227 54.5503 27.4745L54.3889 27.3957L55.8581 21.7035L56.3878 21.7307L56.003 19.2693L58.2429 18.477L58.1085 17.632L63.5638 15.6697L61.8015 9.19279L56.564 13.5639L51.6322 9.32314L49.6996 15.7281L43.4212 13.8428L44.3716 19.6035L36.2376 20.3149L38.0511 25.5955L34.4913 28.8743H53.9215L54.7882 27.995ZM54.4648 27.3423C54.4648 27.3423 54.4692 27.3468 54.4773 27.3578C54.4687 27.3482 54.4648 27.3423 54.4648 27.3423ZM52.5192 2.81964L52.5175 2.81921L52.5192 2.81964Z" fill="white"/>
<path fill-rule="evenodd" clip-rule="evenodd" d="M28.9795 27.6522C27.5813 28.9352 27.7691 32.0719 28.9794 33.5178H58.0793C58.9557 31.7257 58 25.7993 56.1636 24.9236L55.7045 24.6996L59.5055 24.8946C59.5681 24.6502 59.6099 24.3854 59.6099 24.1411C59.6516 22.1656 61.1691 20.516 59.124 20.4549L76.6626 14.1462L76.8296 13.1521C76.8296 12.8873 76.8087 12.6226 76.767 12.3782C76.3913 10.4231 74.4715 9.11977 72.4682 9.48635L66.9382 10.4639L65.9574 6.85922C65.8113 6.32973 65.54 5.8206 65.1644 5.39293C63.7454 3.78408 61.283 3.60079 59.6344 4.96527L56.6086 7.49054L53.6244 4.92452C53.2071 4.53758 52.7063 4.27283 52.1637 4.13027C50.2021 3.60077 48.1571 4.72087 47.6145 6.63521L46.6128 9.95476L43.3574 8.97721C42.794 8.79393 42.2097 8.7532 41.6254 8.85503C39.6012 9.20124 38.2657 11.0545 38.5996 13.0095L38.996 15.4126L34.572 15.7996C34.3008 15.8199 34.0086 15.8811 33.7373 15.9625C31.8175 16.5938 30.7741 18.6507 31.421 20.5243L32.6939 24.2308L28.9795 27.6522ZM34.2184 17.5322C33.1326 17.9004 32.622 19.0282 32.9511 19.9813L32.952 19.9839L34.5773 24.7165L30.0673 28.8706C29.8613 29.0597 29.6034 29.5983 29.622 30.4891C29.633 31.0166 29.7401 31.4981 29.8893 31.8743H56.0523C58.4076 31.58 55.6944 31.6884 55.4736 31.5832L55.4671 31.58L58.1375 28.8706L58.9689 24.4893L58.9709 24.4814C59.0091 24.3323 59.0232 24.2103 59.0232 24.1411V24.1235L59.0236 24.1059C59.0452 23.0848 58.2147 22.1338 57.0073 22.0977L57.0034 22.0976L74.9889 15.7364L75.2084 13.1277C75.2072 12.9633 75.194 12.8082 75.1725 12.6758C74.9658 11.6497 73.9191 10.8909 72.7561 11.1037L72.7466 11.1054L65.7668 12.3392L64.3962 7.30189L64.3955 7.29926C64.3157 7.01183 64.1649 6.72682 63.9551 6.48739C63.1204 5.5422 61.6454 5.42443 60.6618 6.23651L60.6596 6.23834L56.593 9.63222L52.5528 6.15802L52.5304 6.13732C52.321 5.94316 52.0606 5.80096 51.757 5.72118L51.7466 5.71845C50.5835 5.4045 49.456 6.08915 49.1726 7.08907L49.1687 7.10255L47.693 11.9932L42.8795 10.5478L42.8621 10.5421C42.5491 10.4403 42.229 10.4174 41.9 10.4747L41.8951 10.4756C40.7005 10.6799 40.0257 11.7268 40.1969 12.7292L40.1985 12.7384L40.8846 16.897L34.7016 17.4378L34.6918 17.4386C34.5666 17.448 34.3989 17.4793 34.2184 17.5322Z" fill="#DCDCDC"/>
<path fill-rule="evenodd" clip-rule="evenodd" d="M87.4565 10.4215C88.7956 8.23217 91.7486 7.50264 94.0514 8.7321L94.0642 8.73899L94.0769 8.74622C96.0362 9.86174 96.9306 12.122 96.2196 14.1966C98.3441 14.953 99.7093 16.9833 99.406 19.1914C99.3683 19.5225 99.2675 19.8222 99.1978 20.0188L99.1953 20.0257C98.3142 22.4555 95.5372 23.6618 93.0492 22.8644L93.0446 22.8629L91.6944 22.4235L82.6707 27.7921L76.6895 17.933L86.5095 12.727L87.0855 11.1701L87.0952 11.1474C87.1947 10.9135 87.3045 10.6785 87.4484 10.435L87.4524 10.4282L87.4565 10.4215ZM89.2931 11.4845C89.2174 11.6136 89.1509 11.7509 89.076 11.9255L88.2147 14.2534L79.5805 18.9231L82.6707 24.9754L91.5656 20.1839L93.7149 20.8834L93.7171 20.8841C95.1806 21.3519 96.7138 20.6172 97.1817 19.333C97.2446 19.1551 97.2757 19.041 97.2846 18.9576L97.2864 18.9403L97.2888 18.9231C97.4599 17.7098 96.6895 16.5191 95.3545 16.1112L95.3428 16.1076L93.4646 15.4872L94.1369 13.6882L94.1429 13.6736C94.6132 12.5241 94.1563 11.2126 93.0144 10.5547C91.6827 9.85233 90.0203 10.3035 89.2931 11.4845Z" fill="#DCDCDC"/>
<path fill-rule="evenodd" clip-rule="evenodd" d="M96.2196 14.1966C96.9306 12.122 96.0362 9.86174 94.0769 8.74622L94.0642 8.73899L94.0514 8.7321C91.7486 7.50264 88.7956 8.23217 87.4565 10.4215L87.4524 10.4282L87.4484 10.435C87.3045 10.6785 87.1947 10.9135 87.0952 11.1474L87.0855 11.1701L86.5095 12.727L76.6895 17.933L82.6707 27.7921L91.6944 22.4235L93.0446 22.8629L93.0492 22.8644C95.5372 23.6618 98.3142 22.4555 99.1953 20.0257L99.1978 20.0188C99.2675 19.8222 99.3683 19.5225 99.406 19.1914C99.7093 16.9833 98.3441 14.953 96.2196 14.1966ZM98.8208 19.8851C98.8889 19.693 98.9763 19.4293 99.0086 19.1462L99.0096 19.137C99.2845 17.1358 98.0505 15.273 96.0854 14.5734L95.713 14.4408L95.8412 14.0669C96.4868 12.183 95.6796 10.119 93.879 9.09382L93.871 9.08928L93.863 9.08496C93.863 9.08496 93.863 9.08496 93.863 9.08496C91.7355 7.94914 89.0196 8.63249 87.7977 10.6302L87.7952 10.6344L87.7928 10.6385C87.6611 10.8614 87.559 11.079 87.4633 11.304L87.4574 11.3178L86.8317 13.0089L77.2513 18.0879L82.807 27.2456L91.6458 21.9871L93.1675 22.4823L93.1713 22.4835C95.4761 23.2222 98.0182 22.0963 98.8188 19.8906C98.819 19.8902 98.8191 19.8898 98.8193 19.8893L98.8208 19.8851ZM88.7044 11.7771L88.7084 11.7678C88.7871 11.5843 88.861 11.4306 88.9481 11.2821L88.9524 11.2747C89.796 9.90471 91.6932 9.40567 93.201 10.2009L93.2076 10.2044L93.214 10.2081C94.521 10.9611 95.0628 12.4814 94.5131 13.8251L94.5095 13.834L93.9848 15.2378L95.464 15.7264L95.4714 15.7287C96.9761 16.1884 97.886 17.5522 97.6849 18.9789L97.6834 18.9894L97.6823 18.9998C97.6681 19.1334 97.6227 19.2856 97.5587 19.4664L97.5575 19.4699C97.0094 20.9744 95.244 21.7921 93.5953 21.2651L93.5911 21.2638L91.6046 20.6173L82.5004 25.5215L79.0467 18.7571L87.8919 13.9733L88.7044 11.7771ZM88.2147 14.2534L79.5805 18.9231L82.6707 24.9754L91.5656 20.1839L93.7149 20.8834L93.7171 20.8841C95.1806 21.3519 96.7138 20.6172 97.1817 19.333C97.2446 19.1551 97.2757 19.041 97.2846 18.9576L97.2864 18.9403L97.2888 18.9231C97.4599 17.7098 96.6895 16.5191 95.3545 16.1112L95.3428 16.1076L93.4646 15.4872L94.1369 13.6882L94.1429 13.6736C94.6132 12.5241 94.1563 11.2126 93.0144 10.5547C91.6827 9.85233 90.0203 10.3035 89.2931 11.4845C89.2174 11.6136 89.1509 11.7509 89.076 11.9255L88.2147 14.2534Z" fill="white"/>
<path fill-rule="evenodd" clip-rule="evenodd" d="M81.9345 20.1409C76.4541 11.4545 66.0309 15.8481 61.7707 18.3875C61.4193 18.6091 61.0673 18.831 60.7366 19.0727C55.5061 22.9025 54.777 28.5418 56.9998 32.9864C61.0113 32.9864 66.0302 32.9955 70.5289 32.9922C74.5557 32.9892 78.3713 32.9864 81.248 32.9864C83.9823 29.9447 85.444 25.7286 81.9345 20.1409Z" fill="white"/>
<path fill-rule="evenodd" clip-rule="evenodd" d="M62.2738 19.558C61.897 19.8003 61.5893 19.9995 61.3088 20.2084C58.9042 22.0029 57.6958 24.1322 57.2794 26.2341C56.9375 27.9596 57.1103 29.7685 57.7214 31.4812C61.4751 31.4806 65.7196 31.4776 69.8047 31.4745L70.5793 31.4739C74.4481 31.471 78.1351 31.4682 81.0772 31.4677C82.0259 30.2196 82.6571 28.8679 82.8391 27.3949C83.0526 25.6664 82.6823 23.4939 81.0115 20.7819C78.6004 16.8882 75.202 15.9142 71.6738 16.2246C68.0346 16.5447 64.429 18.252 62.2738 19.558ZM82.7872 19.6138C76.9153 10.1285 65.7477 14.9262 61.1831 17.6991C60.8066 17.9411 60.4295 18.1834 60.0752 18.4473C54.4711 22.6293 53.9646 28.8008 56.3461 33.6542C60.6442 33.6542 65.7469 33.6504 70.567 33.6468C74.8814 33.6435 78.9695 33.6404 82.0517 33.6404C84.9813 30.319 86.5474 25.7152 82.7872 19.6138Z" fill="#DCDCDC"/>
<path fill-rule="evenodd" clip-rule="evenodd" d="M61.0699 19.8875C61.3632 19.6691 61.6825 19.4626 62.0575 19.2215L62.0664 19.2158C64.2461 17.895 67.9128 16.1539 71.6388 15.8261C73.4491 15.6669 75.2515 15.8348 76.9209 16.5598C78.5946 17.2867 80.1073 18.5619 81.3516 20.5713C83.0606 23.3454 83.4627 25.6089 83.236 27.4439C83.0435 29.0022 82.3769 30.4188 81.3956 31.7098L81.2756 31.8677L81.0773 31.8677C78.1354 31.8682 74.4485 31.871 70.5796 31.8739L69.805 31.8745C65.72 31.8776 61.4753 31.8806 57.7215 31.8812L57.4395 31.8813L57.3447 31.6157C56.7118 29.842 56.5297 27.9598 56.887 26.1564C57.3236 23.9528 58.5898 21.7384 61.0699 19.8875ZM61.3088 20.2084C61.5893 19.9995 61.897 19.8003 62.2738 19.558C64.429 18.252 68.0346 16.5447 71.6738 16.2246C75.202 15.9142 78.6004 16.8882 81.0115 20.7819C82.6823 23.4939 83.0526 25.6664 82.8391 27.3949C82.6571 28.8679 82.0259 30.2196 81.0772 31.4677C78.1351 31.4682 74.4481 31.471 70.5793 31.4739L69.8047 31.4745C65.7196 31.4776 61.4751 31.4806 57.7214 31.4812C57.1103 29.7685 56.9375 27.9596 57.2794 26.2341C57.6958 24.1322 58.9042 22.0029 61.3088 20.2084ZM61.3951 18.0384C63.6535 16.667 67.523 14.8106 71.53 14.4581C75.5124 14.1077 79.6081 15.2386 82.4469 19.8239C84.2887 22.8126 84.8056 25.3986 84.5311 27.6205C84.2637 29.7854 83.2393 31.6501 81.8697 33.2404C78.8117 33.2406 74.8029 33.2436 70.5766 33.2467L70.5667 33.2468C65.8403 33.2503 60.8426 33.254 56.598 33.2542C54.4124 28.5838 54.9726 22.7541 60.3144 18.7679C60.6544 18.5147 61.0182 18.2806 61.3951 18.0384ZM60.0752 18.4473C60.4295 18.1834 60.8066 17.9411 61.1831 17.6991C65.7477 14.9262 76.9153 10.1285 82.7872 19.6138C86.5474 25.7152 84.9813 30.319 82.0517 33.6404C78.9721 33.6404 74.8883 33.6435 70.5779 33.6467L70.567 33.6468C65.7469 33.6504 60.6442 33.6542 56.3461 33.6542C53.9646 28.8008 54.4711 22.6293 60.0752 18.4473Z" fill="white"/>
</svg>
