<?xml version="1.0" encoding="utf-8"?>
<svg id="RAW-XP" viewBox="0 1.606 280.317 106.194" xmlns="http://www.w3.org/2000/svg">
  <style>.st0{clip-path:url(#SVGID_2_)}.st2{fill:#f8fafb}.st4{fill:#e3e9ed}.st5{fill:#cfd9e0}.st11{clip-path:url(#SVGID_2_);fill:none}.st12{fill:#e4e9ed}.st14{fill:#ec3a3b}.st15{fill:#c7ebff}.st16{fill:#92cdfa}.st17{fill:#ff8578}.st18{fill:#fb5252}.st20{fill:#fcbd24}.st21{fill:#2c8cf4}.st22{fill:#1273eb}.st23{fill:#ffdecc}.st24{fill:#ffa68f}.st25{fill:#5eb2fc}.st26{fill:#fcd250}.st27{fill:#fcdb7e}.st28{fill:#ffeeb6}.st29{fill:#194c80}.st30{fill:none}.st31{fill:#0161cd}.st33{fill:#b3b3fc}.st34{fill:#8080f1}.st36{fill:#69e781}.st37{fill:#2bc48a}.st38{fill:#4ad295}.st39{fill:#0353a7}.st40{fill:#00af80}.st41{fill:#d7d7ff}.st42{fill:#8df690}.st43{fill:#ffb229}</style>
  <defs>
    <path id="SVGID_1_" d="M-.8-.7h1005v108.8H-.8z"/>
  </defs>
  <clipPath id="SVGID_2_">
    <path d="M-.8-.7h1005v108.8H-.8z" transform="matrix(1, 0, 0, 1, 0, 0)" overflow="visible"/>
  </clipPath>
  <g class="st0" transform="matrix(1, 0, 0, 1, -40.16, -0.8032)">
    <defs>
      <path id="SVGID_5_" d="M18 0h960v107.8H18z"/>
    </defs>
    <clipPath id="SVGID_6_">
      <path d="M18 0h960v107.8H18z" transform="matrix(1, 0, 0, 1, 0, 0)" overflow="visible"/>
    </clipPath>
    <g id="XMLID_14471_" clip-path="url(#SVGID_6_)">
      <path class="st4" d="M135.4 26c1.4.2 2.9.4 4.4.7.2-1 .5-1.9.7-2.9.7-2.7 1-5.5 1.3-8.3.2-1.2.2-2.5-.6-3.3-1-1-3.4-1.2-4.8-1.4-1.6-.2-3.3-.3-4.9-.1-1.3.1-1.7.5-2.4 1.7-1.1 1.9-1.2 4.2-1.8 6.3-.6 2.2-1 4.4-1.3 6.7 3.2 0 6.3.2 9.4.6z" id="XMLID_14505_"/>
      <path class="st5" d="M130.9 15.1c-.3-.1-.6-.1-.8.1-1.5 1.4-2.5 4.7-2.2 6.6 0 .2.7 0 .8 0 .1.2.3.4.5.5.6.1 1.1.2 1.5-.3.4-.6.5-1.6.6-2.3.3-1.2 1-4-.4-4.6z" id="XMLID_14504_"/>
      <path class="st5" d="M136.5 16.6c0-.5-.1-1.2-.6-1.4-2.2-1.2-4.3 5.5-3.3 6.8.1.2.3.2.5.1.1.1.3.2.5.2.7 0 1.6.1 2.1-.4.5-.6.6-1.8.7-2.5.1-1 .2-1.9.1-2.8z" id="XMLID_14503_"/>
      <path class="st5" d="M139.7 15.4c-.9.1-1.4 1.6-1.7 2.3-.5 1.3-.9 2.9-.8 4.3 0 .3.3.5.6.4.1 0 .1.1.2.1.5.1 1.1.1 1.6 0 .3-.1.5-.3.6-.6.2-.7.2-1.5.3-2.2.1-.7.3-1.5.3-2.2 0-.8 0-2.2-1.1-2.1z" id="XMLID_14502_"/>
      <path class="st4" d="M135.6 21.7c-3.5 0-6.8 1.3-10.3 1.2-3.9 8.1-15.7 58.9-16.8 63.8l23.6.3s11.4-55.5 10.4-63.9c-2.3-.8-4.5-1.4-6.9-1.4z" id="XMLID_14501_"/>
      <path class="st2" d="M136.6 73.4c-1.7-.9-3.8-1.1-5.7-1.3-2.3-.3-4.7-.5-7-.5-4.4 0-9.2.4-13.3 2-.4.2-.5 1 .1.9 4.3-.5 8.5-1.4 12.8-1.4 2.1 0 4.2.1 6.3.3 2.2.2 4.4 1 6.5.9.5.1.8-.7.3-.9z" id="XMLID_14500_"/>
      <path class="st2" d="M138.5 60.8c-1.6-.9-3.6-1.1-5.4-1.3-2.2-.3-4.4-.5-6.7-.5-4.2 0-8.7.4-12.6 2-.4.2-.4 1 .1.9 4.1-.5 8-1.4 12.2-1.4 2 0 4 .1 6 .3 2.1.2 4.2 1 6.2.9.5.1.7-.7.2-.9z" id="XMLID_14499_"/>
      <path class="st2" d="M140.5 48.2c-1.6-.9-3.5-1.1-5.3-1.3-2.2-.3-4.3-.5-6.5-.5-4.1 0-8.5.4-12.3 2-.4.2-.4 1 .1.9 4-.5 7.8-1.4 11.9-1.4 1.9 0 3.9.1 5.8.3 2 .2 4.1 1 6.1.9.4.1.7-.7.2-.9z" id="XMLID_14498_"/>
      <path class="st2" d="M142.4 35.6c-1.5-.9-3.4-1.1-5.1-1.3-2-.3-4.1-.5-6.2-.5-3.9 0-8.1.4-11.7 2-.4.2-.4 1 .1.9 3.8-.5 7.5-1.4 11.3-1.4 1.8 0 3.7.1 5.5.3 1.9.2 3.9 1 5.8.9.6.1.8-.7.3-.9z" id="XMLID_14497_"/>
      <path class="st2" d="M144.4 23c-1.4-.9-3.1-1.1-4.6-1.3-1.9-.3-3.8-.5-5.7-.5-3.5 0-7.4.4-10.7 2-.4.2-.4 1 .1.9 3.5-.5 6.8-1.4 10.3-1.4 1.7 0 3.4.1 5.1.3 1.7.2 3.5 1 5.3.9.4.1.6-.6.2-.9z" id="XMLID_14496_"/>
      <path class="st5" d="M125.7 25.8c-.9 2.1-1.3 4.6-2 6.8-.3 1 1.2 1.3 1.5.3.6-2.2 1.5-4.6 1.5-6.9 0-.5-.8-.7-1-.2z" id="XMLID_14495_"/>
      <path class="st5" d="M129.3 25c-.8 2.2-1.1 4.6-1.7 6.8-.3 1 1.3 1.3 1.5.3.6-2.2 1.3-4.7 1.2-7-.1-.4-.8-.6-1-.1z" id="XMLID_14494_"/>
      <path class="st5" d="M136.3 25c-.7 2.2-.8 4.7-1.3 6.9-.2 1 1.4 1.2 1.5.2.4-2.2 1-4.7.7-7 .1-.5-.7-.6-.9-.1z" id="XMLID_14493_"/>
      <path class="st5" d="M132.8 24.6c-.7 2.2-.9 4.7-1.4 6.9-.2 1 1.4 1.2 1.5.2.4-2.2 1-4.7.8-7 .1-.5-.7-.6-.9-.1z" id="XMLID_14492_"/>
      <path class="st5" d="M123 38.2c-.9 2.1-1.3 4.6-2 6.8-.3 1 1.2 1.3 1.5.3.6-2.2 1.5-4.6 1.5-6.9 0-.4-.8-.6-1-.2z" id="XMLID_14491_"/>
      <path class="st5" d="M136.9 37.9c-.7 2.2-.9 4.7-1.4 6.9-.2 1 1.3 1.2 1.5.2.4-2.2 1.1-4.7.8-7 .1-.4-.7-.6-.9-.1z" id="XMLID_14490_"/>
      <path class="st5" d="M126.6 37.5c-.8 2.2-1.1 4.6-1.7 6.8-.3 1 1.3 1.3 1.5.3.6-2.2 1.3-4.7 1.2-7-.1-.5-.9-.6-1-.1z" id="XMLID_14489_"/>
      <path class="st5" d="M133.6 37.5c-.7 2.2-.8 4.7-1.3 6.9-.2 1 1.4 1.2 1.5.2.4-2.2 1-4.7.7-7 .1-.5-.7-.7-.9-.1z" id="XMLID_14488_"/>
      <path class="st5" d="M130.1 37.1c-.7 2.2-.9 4.7-1.4 6.9-.2 1 1.4 1.2 1.5.2.4-2.2 1-4.7.8-7 .1-.5-.7-.6-.9-.1z" id="XMLID_14487_"/>
      <path class="st5" d="M120.2 50.8c-.9 2.1-1.3 4.6-2 6.8-.3 1 1.2 1.3 1.5.3.6-2.2 1.5-4.6 1.5-6.9 0-.5-.8-.7-1-.2z" id="XMLID_14486_"/>
      <path class="st5" d="M134.1 50.5c-.7 2.2-.9 4.7-1.4 6.9-.2 1 1.3 1.2 1.5.2.4-2.2 1.1-4.7.8-7 .1-.5-.7-.6-.9-.1z" id="XMLID_14485_"/>
      <path class="st5" d="M123.8 50c-.8 2.2-1.1 4.6-1.7 6.8-.3 1 1.3 1.3 1.5.3.6-2.2 1.3-4.7 1.2-7 0-.4-.8-.6-1-.1z" id="XMLID_14484_"/>
      <path class="st5" d="M130.9 50c-.7 2.2-.8 4.7-1.3 6.9-.2 1 1.4 1.2 1.5.2.4-2.2 1-4.7.7-7 0-.5-.8-.6-.9-.1z" id="XMLID_14483_"/>
      <path class="st5" d="M127.4 49.6c-.7 2.2-.9 4.7-1.4 6.9-.2 1 1.4 1.2 1.5.2.4-2.2 1-4.7.8-7 0-.4-.8-.6-.9-.1z" id="XMLID_14482_"/>
      <path class="st5" d="M117.6 63.2c-.9 2.1-1.3 4.6-2 6.8-.3 1 1.2 1.3 1.5.3.6-2.2 1.5-4.6 1.5-6.9 0-.4-.8-.6-1-.2z" id="XMLID_14481_"/>
      <path class="st5" d="M131.5 62.9c-.7 2.2-.9 4.7-1.4 6.9-.2 1 1.3 1.2 1.5.2.4-2.2 1.1-4.7.8-7 .1-.4-.7-.6-.9-.1z" id="XMLID_14480_"/>
      <path class="st5" d="M121.2 62.5c-.8 2.2-1.1 4.6-1.7 6.8-.3 1 1.3 1.3 1.5.3.6-2.2 1.3-4.7 1.2-7-.1-.5-.8-.6-1-.1z" id="XMLID_14479_"/>
      <path class="st5" d="M128.2 62.5c-.7 2.2-.8 4.7-1.3 6.9-.2 1 1.4 1.2 1.5.2.4-2.2 1-4.7.7-7 .1-.5-.7-.6-.9-.1z" id="XMLID_14478_"/>
      <path class="st5" d="M124.7 62.1c-.7 2.2-.9 4.7-1.4 6.9-.2 1 1.4 1.2 1.5.2.4-2.2 1-4.7.8-7 .1-.5-.7-.6-.9-.1z" id="XMLID_14477_"/>
      <path class="st5" d="M115.2 76c-.9 2.1-1.3 4.6-2 6.8-.3 1 1.2 1.3 1.5.3.6-2.2 1.5-4.6 1.5-6.9 0-.5-.8-.7-1-.2z" id="XMLID_14476_"/>
      <path class="st5" d="M129.2 76c-.7 2.2-.9 4.7-1.4 6.9-.2 1 1.3 1.2 1.5.2.4-2.2 1.1-4.7.8-7 0-.5-.8-.6-.9-.1z" id="XMLID_14475_"/>
      <path class="st5" d="M118.8 76c-.8 2.2-1.1 4.6-1.7 6.8-.3 1 1.3 1.3 1.5.3.6-2.2 1.3-4.7 1.2-7 0-.4-.8-.6-1-.1z" id="XMLID_14474_"/>
      <path class="st5" d="M125.9 76c-.7 2.2-.8 4.7-1.3 6.9-.2 1 1.4 1.2 1.5.2.4-2.2 1-4.7.7-7 0-.5-.8-.6-.9-.1z" id="XMLID_14473_"/>
      <path class="st5" d="M122.4 76c-.7 2.2-.9 4.7-1.4 6.9-.2 1 1.4 1.2 1.5.2.4-2.2 1-4.7.8-7 0-.5-.8-.6-.9-.1z" id="XMLID_14472_"/>
    </g>
  </g>
  <g class="st0" transform="matrix(1, 0, 0, 1, -655.411194, 12.851199)">
    <defs>
      <path id="SVGID_7_" d="M18 0h960v107.8H18z"/>
    </defs>
    <clipPath id="SVGID_8_">
      <path d="M18 0h960v107.8H18z" transform="matrix(1, 0, 0, 1, 0, 0)" overflow="visible"/>
    </clipPath>
    <g id="XMLID_14459_" clip-path="url(#SVGID_8_)">
      <path class="st4" d="M883.1 73.3c-7.8-3.2-17.8-14.3-17.8-63.8h-2-2.9c0 49.5-10.1 60.5-17.8 63.8-.2.1-.1.4.1.4h11.7c.1 0 .2-.1.2-.2.1-6.4 3.2-10.2 8.3-10.2s8 3.8 8.1 10.2c0 .1.1.2.2.2h11.9c.1 0 .2-.3 0-.4zm-18.9-18c-1.2 0-2.5-.1-3.7 0 .1-.6.3-1.3.5-1.9.2-.7.5-1.5.7-2.2.1-.6.3-1.1.4-1.7v-.1c.3-.9.4-1.8.7-2.7.2.9.6 1.7.9 2.6.3 1 .5 1.9.8 2.9.1.5.3 1 .4 1.5.2.6.5 1.2.8 1.7-.6-.1-1-.1-1.5-.1z" id="XMLID_14468_"/>
      <path class="st5" d="M871.2 55h-17c-.5 0-.8.4-.8.8 0 .5.4.8.8.8h17c.5 0 .8-.4.8-.8s-.4-.8-.8-.8z" id="XMLID_14467_"/>
      <path class="st5" d="M868 40.5h-10.4c-.5 0-.8.4-.8.8 0 .5.4.8.8.8H868c.5 0 .8-.4.8-.8s-.3-.8-.8-.8z" id="XMLID_14466_"/>
      <path class="st4" d="M861.1 10V7.6c0-1.2 1.8-2.8 2.8-1.7s.6 4.5.6 4.5l-3.4-.4z" id="XMLID_14465_"/>
      <g id="XMLID_14464_">
        <path id="XMLID_11826_" class="st5" d="M877.5 73c-.1 0-.2 0-.2-.1-.4-.4-.2-.9-.1-1.3.1-.6.1-.7 0-.7-.3-.1-1.3.5-1.9.8-1.2.7-2 1.1-2.5.8-.1-.1-.2-.2-.2-.4-.1-.5.6-1.3 1.8-2.5.3-.3.6-.7.9-.9h-1c-2 .1-3.3.1-3.4-.6 0-.5.5-1 1.4-1.8.3-.2.6-.6.8-.8-.4 0-1.1.1-1.6.1-1.4.2-2.3.2-2.7-.1-.4-.4-.2-1.3.6-3.8.3-1 .7-2.3.8-2.8-.5.2-1.7 1.3-2.5 1.9-1.6 1.4-2.3 1.9-2.7 1.9-.5-.1-.8-.8-1.4-2.7-.2-.6-.5-1.4-.7-1.8-.1.4-.2 1.2-.3 1.8-.2 1.7-.4 2.5-.7 2.7-.1.1-.3.1-.4 0-.4-.2-1.4-1-3-2.4-.9-.8-1.7-1.5-2.3-2 .2.7.6 1.8.9 2.7.9 2.7 1.1 3.2.8 3.5-.1.1-.2.2-.4.1-.4-.1-1.3-.3-2.3-.6-.6-.2-1.3-.4-1.6-.5-.1.6.5 2.8 1.3 3.9.2.3.3.6.2.8-.2.5-1 .5-2 .5-.9 0-2 0-2.4.4-.1.1-.1.1-.1.2 0 .4 1.1 1 1.8 1.4.8.5 1.6.9 1.9 1.4.1.2.1.4 0 .6-.3.6-2.2.6-5.9.5-.7 0-1.3-.1-1.5 0-.2 0-.3-.1-.4-.3 0-.2.1-.3.3-.4h1.6c1.3.1 4.6.2 5.3-.1-.3-.3-1-.7-1.6-1.1-1.1-.6-2-1.2-2.1-1.9 0-.2 0-.4.3-.7.6-.6 1.8-.6 2.8-.6.5 0 1.3 0 1.5-.1 0 0 0-.1-.1-.2-.9-1.2-1.8-4-1.3-4.7.1-.2.3-.3.5-.2.3.1 1 .3 1.9.5.7.2 1.4.4 1.9.5-.1-.5-.5-1.7-.9-2.7-1-2.9-1.1-3.5-.8-3.7.1-.1.3-.2.5 0 .5.3 1.6 1.3 2.7 2.3 1 .9 2.2 1.9 2.6 2.2.1-.4.3-1.4.4-2.1.2-1.7.3-2.3.7-2.5.1-.1.3 0 .4 0 .4.2.6 1 1.1 2.4.3.8.7 2.1.9 2.2.2-.1 1.3-1 2.1-1.7 1.8-1.5 2.6-2.2 3.1-2.1.1 0 .3.1.3.2.3.4 0 1.3-.7 3.5-.4 1.1-.9 2.8-.8 3.1.2.1 1.5 0 2.2-.1 1.2-.1 1.9-.2 2.2 0 .1.1.2.2.2.3 0 .4-.4.8-1.1 1.5-.4.4-1.2 1.1-1.2 1.3.2.2 1.9.1 2.7 0 1.1 0 1.5-.1 1.7.1.1.1.2.2.2.3 0 .3-.2.6-1.2 1.7-.5.5-1.4 1.5-1.6 1.9.3 0 1.2-.5 1.7-.8 1.2-.7 2-1.1 2.5-.9.7.3.5 1 .4 1.5-.1.3-.1.6 0 .8.1.1.1.3 0 .5-.1-.2-.2-.1-.3-.1z"/>
      </g>
      <path class="st5" d="M865.3 9.6h-4.9c-.5 0-.8.4-.8.8 0 .5.4.8.8.8h4.9c.5 0 .8-.4.8-.8 0-.5-.4-.8-.8-.8z" id="XMLID_14463_"/>
      <g id="XMLID_14462_">
        <path id="XMLID_11824_" class="st5" d="M857 54.6h-.4c-.2-.1-.3-.2-.2-.4s.2-.3.4-.2c.7.2 2.7-.7 3.3-1.2-.8-.3-3-1.1-3.1-2.1 0-.3.1-.6.7-.9.6-.3 1.4-.6 2.2-.8.5-.2 1.2-.4 1.6-.6-1.5-.4-3.7-2.1-3.6-3.1 0-.2.1-.6.9-.6 1.2 0 2.3.3 3.1.7-.4-.7-1.1-1.6-1.7-2.5-.1-.1-.1-.3.1-.5.1-.1.3-.1.5.1 2.5 3.5 2.4 3.6 2.2 3.8-.1.1-.3.1-.4.1-.7-.4-2.1-1.1-3.6-1.1h-.3c0 .4 1.8 2 3.2 2.3.2 0 .7.1.7.5 0 .5-.6.7-2.3 1.3-.8.3-1.6.5-2.2.8-.2.1-.3.2-.3.3 0 .5 1.9 1.4 2.9 1.6.3.1.4.2.4.3.1.2 0 .4-.2.6-.8.6-2.7 1.6-3.9 1.6z"/>
      </g>
      <g id="XMLID_14461_">
        <path id="XMLID_11823_" class="st5" d="M869.2 54.5c-.1 0-.1 0 0 0-.3-.1-.7-.2-1.1-.3-2.7-.6-3.2-.9-3.3-1.3 0-.1 0-.3.3-.5.1-.1.3-.1.5-.2.5-.2 1.7-.7 2.3-1-1.2-.3-4.3-1.3-4.3-2.1 0-.3.3-.5.7-.5 1.1 0 2.3-1.5 2.7-2.2-1.1.3-3.8.7-4.1.1-.1-.1-.2-.4.3-.7.8-.5 1.7-2.6 2-3.3.1-.2.3-.3.4-.2.2.1.3.3.2.4 0 .1-1 2.5-2 3.5.8 0 2.5-.1 3.2-.5.3-.1.5-.1.6 0 .2.1.2.4.1.7-.3.8-1.8 2.7-3.3 2.8.8.5 2.9 1.3 3.7 1.4.4 0 .5.2.6.4.1.4-.3.7-3 1.8-.1 0-.1 0-.2.1.6.2 1.8.5 2.5.7.5.1.9.2 1.1.3.2.1.3.2.2.4.1.1 0 .2-.1.2z"/>
      </g>
      <g id="XMLID_14460_">
        <path id="XMLID_11822_" class="st5" d="M862.8 41.7c-3.5-1.2-3.4-1.6-3.4-1.9 0-.1.1-.3.4-.4.3-.1.9-.1 1.7-.2 1-.1 3-.3 3.9-.5-.2-.1-.4-.2-.7-.2-3.8-1.3-4.9-1.9-4.8-2.5 0-.4.6-.5.8-.6 1.7-.3 3.4-.8 4-1.1-.6-.1-4.9-1.1-5.1-2.1 0-.1 0-.4.4-.6.5-.2 1.4-.4 2.3-.6.6-.1 1.5-.3 2-.5-.3-.1-.6-.2-1-.4-2.2-.9-3.2-1.3-3.2-1.9 0-.1 0-.4.3-.5.5-.3 1.6-.4 2.6-.5.4 0 1-.1 1.3-.1-.5-.3-1.4-.6-2.1-.9-1.4-.5-1.8-.7-1.8-1.1 0-.1 0-.3.4-.4.3-.1 1-.2 1.6-.3.5-.1 1.2-.2 1.7-.3-.4-.2-.9-.4-1.5-.6-1.8-.7-2.1-.9-2.1-1.3 0-.1 0-.3.3-.4.2-.1.7-.1 1.2-.2s1.3-.2 1.8-.3c-.3-.1-.8-.3-1.2-.4-1.5-.5-2-.6-2-1 0-.1 0-.3.2-.4.3-.2.8-.3 1.5-.5.5-.2 1.3-.4 1.7-.6-.3-.1-.8-.3-1.2-.4-1.7-.6-2.1-.7-2.2-1.1 0-.1 0-.3.3-.4s.7-.2 1.3-.4c.5-.1 1.2-.4 1.7-.5-.2-.1-.4-.1-.6-.2-2.1-.6-2.6-.8-2.6-1.2 0-.1 0-.3.3-.4.3-.1.8-.2 1.4-.4.4-.1 1-.3 1.5-.4-2.9-.8-2.9-.8-2.9-1.2 0-.1.1-.3.5-.3.6 0 1.9-.6 2.3-.8.2-.1.4 0 .4.1.1.2 0 .4-.1.4-.1.1-.8.4-1.5.6.6.2 1.2.3 1.6.4l.5.1c.3.1.4.3.4.4 0 .4-.4.6-2.5 1.1-.3.1-.6.2-.9.2.5.2 1.3.4 1.8.6.5.1 1 .3 1.2.4.3.1.3.3.3.4 0 .4-.5.6-2.6 1.2-.3.1-.5.2-.8.2.4.2 1 .3 1.4.5.9.3 1.5.5 1.7.7.1.1.2.3.2.4-.1.4-.7.6-2.3 1.1-.4.1-.7.2-1 .3.4.1.9.3 1.3.4.9.3 1.5.5 1.8.7.2.2.2.4.2.5-.1.4-.7.6-2.6.9-.2 0-.4.1-.5.1.4.2.9.4 1.3.5 1 .4 1.6.6 1.9.9.2.2.2.4.2.5-.1.4-.7.5-2.5.8-.4.1-.7.1-1 .2.3.1.7.3 1 .4.9.3 1.9.7 2.4 1.1.3.2.3.5.3.6-.1.4-.7.5-2.1.6-.8.1-1.8.1-2.2.3.4.4 2 1 2.8 1.3.7.3 1.2.5 1.4.6.2.2.2.4.2.5-.1.4-.6.6-2.8 1-.8.2-1.6.3-2.1.5.6.4 2.9 1.2 4.4 1.5.2 0 .8.1.8.6 0 .9-4 1.7-4.8 1.9h-.2c.6.5 3.1 1.4 4.3 1.8.4.1.7.3 1 .4.1 0 .5.2.5.6-.1.5-.7.7-4.9 1.1-.4 0-.8.1-1.1.1.6.3 1.6.7 2.5 1.1.2.1.3.2.2.4-.2-.1-.3 0-.5 0z"/>
      </g>
    </g>
  </g>
  <g class="st0" transform="matrix(1, 0, 0, 1, -554.207947, 24.096001)">
    <defs>
      <path id="SVGID_13_" d="M18 0h960v107.8H18z"/>
    </defs>
    <clipPath id="SVGID_14_">
      <path d="M18 0h960v107.8H18z" transform="matrix(1, 0, 0, 1, 0, 0)" overflow="visible"/>
    </clipPath>
    <g id="XMLID_14425_" clip-path="url(#SVGID_14_)">
      <path class="st4" d="M815.6 68.1c-.1-1.7-.1-3.4-.2-5.1 0-.7-.6-1.1-1.2-1.1-1.1-.2-2.4-.3-3.6-.3.2-.2.4-.6.4-.9-.3-2.1-.8-4.3-.7-6.4v-.7c.8-1.4 1.8-3.1 2.7-4.5.4-.2.7-.5 1-.7.4-.4.5-.8.3-1.3-.4-1.2-1.3-2.2-1.8-3.3-.5-1.2-.8-2.5-1.3-3.7 0-.2-.1-.4-.3-.6-.1-.1-.2-.1-.3-.2-.1-.3-.3-.6-.6-.7-.1 0-.3-.1-.4-.1-.1 0-.2-.1-.3-.1.4-.3.5-.8.5-1.3.6-.3 1.2-.5 1.7-.8.2-.1.2-.4-.1-.4-.6-.1-1.2 0-1.9.1h-.2v-.1c0-.1-.1-.1-.1-.2.1-.2.3-.4.4-.6.3-.4.8-.8.9-1.3 0-.1-.1-.2-.2-.2-.5.1-.9.6-1.3.9-.1.1-.3.2-.5.4v-.1c.1-.8.2-1.5.2-2.3 0-.3-.4-.3-.5-.1-.3.7-.5 1.5-.7 2.3-.1 0-.3.1-.4.2-.3-.5-.6-1.1-1-1.5-.2-.2-.6 0-.4.3.2.5.5 1 .7 1.5 0 .1-.1.3-.1.4-.2.2-.4.5-.4.8-1.6-2.6-3.4-5.4-4.1-8.3.3-.1.5-.2.6-.5.1-.4 0-.7-.2-1 .9-.3 1.3-1.5 1.1-2.4v-.1c-.2.1-.4.3-.6.3-.3.1-.5-.2-.4-.5v-.1c-.7.4-1.3 1.1-1.4 1.9-.3-.1-.7 0-.9.3-.3.4-.2 1 .3 1.3-.2.4-.4.8-.6 1.1-.2.4-.5.9-.3 1.3.1.3.4.4.7.3.2-.1.5-.4.3-.6.1.1.1 0 0 0v-.1c.1-.2.2-.4.4-.6 0-.1.1-.2.1-.3.3 1.4.9 2.8 1.5 4.2.7 1.7 1 3.5.9 5.4v.5c0 .7.3 1.4.4 2.2.1.4.1.8.2 1.3-.1.1-.2.2-.2.4-.8 3.3.5 6.7 1 10v.1c0 1.2.1 2.3.2 3.4 0 .8-.1 1.8 0 2.8-.1.8-.2 1.6-.3 2.3 0 .3.1.6.3.8-.7.1-1.5.2-2.2.3-.1 0-.1.1-.1.1-.7 2.6-.5 5.6-.6 8.3 0 .5 0 1-.1 1.5 0 .7.5 1.4 1.2 1.5 2.2.3 4.3.6 6.6.6.8 0 1.7 0 2.6.1.2 0 .4 0 .5-.1.9-.3 1.9-.6 2.9-.9 0-.1.1-.2.1-.3.2-1.6-.1-3.2-.2-4.8z" id="XMLID_14430_"/>
      <path class="st5" d="M813.4 68.4c0-1.1-.1-2.3-.1-3.4 0-.7-.5-1.6-1.3-1.7-2.5-.4-5-.3-7.4.5-.6.2-1.1.7-1 1.4.1 1.6 0 3.3.6 4.8 0 .2 0 .4.1.6.2.9 1 1.3 1.8 1.4 1.9.2 4.8.3 6.5-.8.9-.6.8-1.7.8-2.8z" id="XMLID_14429_"/>
      <g id="XMLID_14428_">
        <path id="XMLID_11790_" class="st5" d="M805.7 61.4c-.3-.1-.4-.3-.3-.4.6-1.6.4-6.2.2-9.8-.1-2.7-.2-4.9 0-5.6 0-.2.2-.3.4-.2.2 0 .3.2.2.4-.2.7-.1 3 0 5.4.2 3.9.4 8.3-.3 10.1.1 0-.1.1-.2.1z"/>
      </g>
      <g id="XMLID_14427_">
        <path id="XMLID_11789_" class="st5" d="M811.2 48.7c-1.4 0-3.2-1.1-4-2.2-.1-.1-.1-.3.1-.5.1-.1.3-.1.5.1.8 1.1 3.1 2.3 4.1 1.8.9-.5.7-2.3-.5-5-.1-.2 0-.4.2-.4.2-.1.4 0 .4.2 1.3 3.2 1.4 5.1.2 5.8-.3.1-.6.2-1 .2z"/>
      </g>
      <g id="XMLID_14426_">
        <path id="XMLID_11788_" class="st5" d="M809.1 59.3c-.2 0-.3-.1-.3-.3 0-.3-.5-7.6.3-9.6.1-.2.3-.2.4-.2.2.1.2.3.2.4-.7 1.8-.2 9.2-.2 9.3-.1.2-.2.4-.4.4z"/>
      </g>
    </g>
  </g>
  <path class="st11" d="M18 0h960v107.8H18z"/>
  <g id="XMLID_14023_" class="st0" transform="matrix(1, 0, 0, 1, -7.228802, -0.8032)">
    <g id="XMLID_14286_">
      <path class="st5" d="M256.2 93.6c-2.4-.5-18.5 6.2-18.5 9.2 0 4.4 0 69.5 1.5 71.6s18.5 1.9 18.6-1.4c-.1-3.3 1.2-77.6-1.6-79.4" id="XMLID_14374_"/>
      <path class="st2" d="M256.2 93.6c2.4 0 25.5 5.3 27.4 7.7 1.9 2.3 2.3 71.8.2 73.2-2.1 1.4-25.9 3.6-27.1-.6-1.2-4.4-2.1-79.3-.5-80.3" id="XMLID_14373_"/>
      <path class="st4" d="M263.5 100.7c0-.1 0-.1-.1-.2-.4-.6-1.1-.8-1.8-.6-.1.1-.3.1-.4.2-.3.1-.6.1-.8.3-.6.3-.5 1.5.2 1.6.2 0 .4 0 .6.1.6.5 1.7.2 2.2-.3.3-.2.3-.8.1-1.1z" id="XMLID_14372_"/>
      <path class="st4" d="M269.4 101c-.2-.1-.4-.2-.6-.2-.1 0-.2-.1-.2-.1-.2-.1-.5-.1-.7-.1-.6 0-1.2.8-.8 1.4.5.8 1.5 1.1 2.4.5.4-.4.5-1.2-.1-1.5z" id="XMLID_14371_"/>
      <path class="st4" d="M274.5 102.7c-.2-.8-.9-1.4-1.7-1.4-.3 0-.6.2-.7.5v.2c-.3.4-.2 1 .2 1.4.5.5 1.3.4 1.9.1.2-.1.3-.5.3-.8z" id="XMLID_14370_"/>
      <path class="st4" d="M280.5 103.1c-.2-.5-.6-.8-1.2-.8-.3-.1-.6-.1-1-.1-.5.1-.7.7-.4 1.1.1.1.2.2.3.4.1.3.3.6.5.7.3.4 1 .3 1.4.1.4-.3.6-.9.4-1.4z" id="XMLID_14369_"/>
      <path class="st4" d="M263.3 106c0-1-1.6-.7-2.2-.7-.8 0-1 1.2-.2 1.4.4.1.8.1 1.2 0 .6 0 1.2-.1 1.2-.7z" id="XMLID_14368_"/>
      <path class="st4" d="M269.9 106.4c0-.2-.1-.5-.3-.6-.5-.3-1.2-.3-1.8-.2h-.7c-.6.1-.4.9.1 1.1.1.2.3.3.6.3s.6.1.9.1c.7.1 1.3 0 1.2-.7z" id="XMLID_14367_"/>
      <path class="st4" d="M274 106c-.5-.1-1 0-1.6 0-.9 0-.9 1.3 0 1.3.3 0 .6 0 1 .1H274c.7-.2.7-1.3 0-1.4z" id="XMLID_14366_"/>
      <path class="st4" d="M280.2 106.8c-.3-.3-.9-.4-1.2-.2-.1 0-.1.1-.2.1h-.3c-1 0-1 1.6 0 1.6h1.1c.2 0 .4-.1.5-.2.7-.2.7-1.1.1-1.3z" id="XMLID_14365_"/>
      <path class="st4" d="M283.8 101.6c-9.6-2.5-18.3-4.5-28-6.2-.3 0-.4.7-.1.8 9.7 2 18.5 3.6 28 6.2.4.1.6-.7.1-.8z" id="XMLID_14364_"/>
      <g id="XMLID_14355_">
        <path class="st4" d="M252.2 101.3c-.1 0-.1.1-.2.1-.1.1-.3.1-.4.2-.4 0-.7.4-.6.9.1.5.4.7.8.7.4-.1.8-.5 1-.9.2-.6-.1-1.2-.6-1z" id="XMLID_14363_"/>
        <path class="st4" d="M248.1 102.7s0 .1 0 0c-.3.1-.4.1-.6.2l-.1.1c-.1 0-.1.1-.2.1-.2.2-.3.5-.1.8.1.1.1.2.2.2h.2c.1.2.3.2.5.2.3-.1.5-.3.6-.6 0-.1.1-.1.1-.2v-.1c.4-.4-.1-1-.6-.7z" id="XMLID_14362_"/>
        <path class="st4" d="M245.9 104.7c-.1-.2-.2-.2-.3-.2-.2 0-.4.1-.6.1-.3-.1-.6 0-.8.4-.2.6.3 1.3.8.9.3-.2.6-.3.8-.5.2-.1.3-.4.1-.7z" id="XMLID_14361_"/>
        <path class="st4" d="M245.1 108.3l-.6.3c-.3.1-.5.2-.6.7 0 .1 0 .3.1.3.1.1.3.2.4.2.1 0 .2-.1.3-.1.1.1.2.3.4.3.4.1.8-.3.8-.8 0-.6-.4-1.1-.8-.9z" id="XMLID_14360_"/>
        <path class="st4" d="M248.3 106.6c-.3.2-.6.4-.9.7-.4.5.1 1.3.6 1h.1c.5 0 .8-.4.9-.9.3-.6-.3-1.1-.7-.8z" id="XMLID_14359_"/>
        <path class="st4" d="M241.4 105.7s0 .1 0 0c-.3.1-.4.1-.6.2l-.1.1c-.1 0-.1.1-.2.1-.2.2-.3.5-.1.8.1.1.1.2.2.2h.2c.1.2.3.2.5.2.3-.1.5-.3.6-.6 0-.1.1-.1.1-.2v-.1c.4-.4-.1-1-.6-.7z" id="XMLID_14358_"/>
        <path class="st4" d="M241.6 109.6c-.3.2-.6.4-.9.7-.4.5.1 1.3.6 1h.1c.5 0 .8-.4.9-.9.3-.6-.3-1.1-.7-.8z" id="XMLID_14357_"/>
        <path class="st4" d="M252.3 105.5c-.1 0-.3 0-.4.1h-.1c-.3 0-.5.1-.6.4 0 .1-.1.2-.1.3 0 .1-.1.1-.1.2-.1.4.1.7.4.8H252c.1 0 .2-.1.2-.1l.1-.1c.8-.4.7-1.5 0-1.6z" id="XMLID_14356_"/>
      </g>
      <path class="st4" d="M279.8 112.1H278.1c-.4 0-.6.6-.3.9.1.1.3.2.4.3.1.2.3.4.6.4s.5 0 .8.1c1.2.1 1.3-1.6.2-1.7z" id="XMLID_14338_"/>
      <path class="st4" d="M273.8 111.4c-.4 0-.8-.1-1.2-.1-.3 0-.6.1-.7.5-.1.4.1.8.5.9.4.2.9.2 1.4.2.4 0 .8-.3.8-.7-.1-.4-.4-.8-.8-.8z" id="XMLID_14337_"/>
      <path class="st4" d="M269 110.9c-.4 0-.8 0-1.2-.1-.3 0-.6.2-.7.5-.2.4.2.9.6.9.4 0 .8.1 1.2.1.4 0 .7-.3.8-.7 0-.3-.3-.7-.7-.7z" id="XMLID_14336_"/>
      <path class="st4" d="M262.7 110.2c-.2-.1-.4-.1-.6-.1h-.6c-.4 0-.7.2-.7.6s.3.7.6.7c.4.1.7.1 1.1.1.7.2.9-1 .2-1.3z" id="XMLID_14335_"/>
      <path class="st4" d="M284.6 110.4c-1.1-.1-4.4-.8-6.3-.9-2.5-.2-5-.4-7.5-.7-5.2-.6-10.2-1.2-15.4-1.9-.1 0-.7 0-.9.1-5.7 1.6-11.2 4.5-16.6 6.9-.4.2-.1.8.4.6 2.5-1.1 5.1-2.1 7.6-3.1 0 .1-.1.2 0 .3 0 .1 0 .2.1.3l.9-.3c0-.1 0-.2-.1-.3-.1-.2-.2-.2-.3-.3 1.8-.7 3.6-1.4 5.4-2.2 1-.4 3.1-.8 3.3-.8 13.5 1.4 20 2.2 29.5 3.3.3 0 .2-1-.1-1z" id="XMLID_14301_"/>
      <path class="st4" d="M255.5 95.4c-6.4 2.9-13.8 6-19.9 9.5-.2.1-.1.4.1.3 6.6-2.6 13.7-6.3 20.2-9.2.5-.1.1-.8-.4-.6z" id="XMLID_14300_"/>
    </g>
    <g id="XMLID_14244_">
      <g id="XMLID_14257_">
        <g id="XMLID_14283_">
          <path class="st5" d="M212.9 81.3c-7.5 3.1-21.2 7.2-23.5 10.6-3 4.4-1.8 79.7.3 82.2 2.1 2.4 25.2 2.2 25.2-1.6 0-3.9 1.8-89.1-2-91.2" id="XMLID_14285_"/>
          <path class="st2" d="M250.1 92.1c.2 0 .4-.1.5-.2 1.1-.9.5-2.3-.7-2.9-.4-.2-.8-.3-1.2-.4-5.5-3.1-25.9-6.9-35.8-7.3-2.2 1.2-1 87.2.6 92 1.6 4.9 34 2.3 36.8.7 2.6-1.4 0-69.1-.2-81.9z" id="XMLID_14284_"/>
        </g>
        <path class="st4" d="M249.9 90.8c-8.5-2.7-17.6-4.7-26.5-6.6-.8-.2-1.7-.4-2.5-.6-2.6-.6-5.5-1.2-8.4-1.4 0 .1-.1.2-.1.4v1.2c2.8.4 5.6.6 8.4 1.2-.6 7.7-.3 15.5-.3 23.2-.1 8.3 0 16.6-.1 24.8 0 16.3-.2 32.7.3 49 0 .4.7.4.7 0 .5-16.3.3-32.7.3-49 0-8.1 0-16.1-.1-24.2 0-7.9.3-15.9-.3-23.8 2 .4 3.9.9 5.8 1.3.3.1.6.2.9.2-.6 16.9-.3 33.8-.3 50.7 0 17-.3 33.9.3 50.9 0 .4.8.4.8 0 .6-17 .4-33.9.3-50.9 0-16.8.3-33.7-.3-50.5 3.3.9 6.5 1.8 9.8 2.6-1 15.1-.3 30.4-.3 45.5 0 15.4-.4 30.8.3 46.1 0 .5.9.5.9 0 .7-15.4.3-30.8.3-46.1 0-15.1.7-30.3-.3-45.3 1.4.3 2.9.7 4.3 1-.7 18.2-.3 36.4-.3 54.6 0 18.3-.3 36.7.2 55 0 .5 1 .5 1 0 .5-18.3.2-36.6.2-55 0-18.1.3-36.3-.3-54.4 1.7.4 3.3.7 5 1 .8.3 1.1-.7.3-.9z" id="XMLID_14282_"/>
        <path class="st4" d="M225.6 93c-.2-.9-.1-1.9-.3-2.8-.1-.7-1.3-.9-1.5-.2-.3 1-.3 2.2-.1 3.2.1 1.2 2.1 1 1.9-.2z" id="XMLID_14281_"/>
        <path class="st4" d="M242.9 95.6l-.3-1.5c-.1-.5-.1-.9-.4-1.3-.2-.3-.9-.4-1.1 0-.3.5-.2 1-.2 1.6.1.6.1 1.1.3 1.7.4.8 1.9.4 1.7-.5z" id="XMLID_14280_"/>
        <path class="st4" d="M225.2 98.4c-.1-.4-.9-.5-1.1 0-.4 1.6-.4 3.3-.5 4.9-.1 1 1.7 1 1.8 0 .2-1.5.3-3.4-.2-4.9z" id="XMLID_14279_"/>
        <path class="st4" d="M242 100.5c-.1-.3-.7-.3-.7.1-.1 1.3 0 2.6 0 3.9 0 .7 1.2.7 1.2 0 .1-1.3 0-2.8-.5-4z" id="XMLID_14278_"/>
        <path class="st4" d="M225.6 110.1c0-.9-1.8-1.2-2-.2-.3 1.6-.7 3.6.2 5.1.3.4 1 .3 1.2-.1 0-.1 0-.2.1-.2.2-.1.4-.2.4-.4.4-1.4.1-2.9.1-4.2z" id="XMLID_14277_"/>
        <path class="st4" d="M242.3 113.8c0-.8.2-1.7-.3-2.4-.1-.2-.4-.2-.6 0-.6.7-.5 1.6-.5 2.4 0 .9-.1 1.9.1 2.8.2.6 1.3.4 1.2-.2.2-.9.1-1.8.1-2.6z" id="XMLID_14276_"/>
        <path class="st4" d="M235.1 106.3c-.8 0-1.7-.1-2.5.1-.7.2-.9 1-.2 1.4.8.4 1.8.4 2.7.3 1.4 0 1.4-1.9 0-1.8z" id="XMLID_14270_"/>
        <path class="st4" d="M235.6 96.6c-1-.1-2.1-.2-3.1.1-.4.1-.5.6-.1.8 1 .5 2.1.5 3.2.6 1.2.2 1.2-1.4 0-1.5z" id="XMLID_14269_"/>
        <path class="st12" d="M214 83.2c0-.4-.4-.7-1-.5h-.4c-1 .2-1.9.6-2.9.9-.4.2-.9.3-1.4.5-2.6.9-5.2 2.2-7.5 3.2-4.2 1.8-8.7 3.4-12.8 5.5-.5.3-.1.9.4.7 4.3-1.4 8.3-3.2 12.5-4.9 4.1-1.6 9-2.6 12.7-4.7.6 0 .6-.4.4-.7z" id="XMLID_14266_"/>
        <path class="st12" d="M209.1 112.6c-6.3.3-12.7 1.8-18.8 3-.5.1-.3.7.2.6 6.2-1.1 12.6-1.8 18.7-3.2.3 0 .3-.4-.1-.4z" id="XMLID_14264_"/>
        <path class="st12" d="M208.9 99.3c-2.5.3-8.3 1.3-10.7 1.9-2.3.6-4.6 1.7-7 2.2-.2 0-1.2.4-.9.5 1.7.4 5-1.1 6.6-1.5 2.8-.8 9.2-1.9 12-2.6.4-.1.3-.6 0-.5z" id="XMLID_14260_"/>
        <path class="st12" d="M209.4 92.3c-2.9 0-5.6 1-8.2 1.9-3.7 1.3-7.4 2.6-11.2 3.6-.2.1-.1.4.1.3 6.6-1.6 12.7-4.1 19.4-5.4.3 0 .2-.4-.1-.4z" id="XMLID_14259_"/>
        <path class="st12" d="M209.2 106c-2.8.1-6.3.5-9 1-1.5.3-3 .6-4.5 1s-3.8 1.4-5.4 1.4c-.2 0-.3.3-.1.3 2.3.3 5.7-1.1 7.9-1.6 3.4-.7 7.7-1.1 11.1-1.6.5 0 .4-.5 0-.5z" id="XMLID_14258_"/>
      </g>
      <path class="st12" d="M217.2 88.1c-.8-.2-1.8-.4-2.7-.6.1-.3.2-.6 0-.9.4.1.9.1 1.3.1.1 0 .2-.2.1-.2-.7-.2-1.5-.3-2.2-.4-.2 0-.3.3-.1.3s.5.1.7.1v.1c-.1.2 0 .3 0 .5v.3c-.9-.1-1.9-.2-2.8-.3-.3 0-.3.3-.1.4 1.8.4 3.9.8 5.8.8.2.1.2-.1 0-.2z" id="XMLID_14256_"/>
      <path class="st12" d="M221.1 99.2c-.6-.1-1.2-.2-1.9-.2-.1-.1-.2-.1-.3 0h-.8c-.2 0-.2.2 0 .3.2 0 .4.1.7.1v.7c-.4 0-.9 0-1.3-.1-.2 0-.2.3 0 .3 1 0 2.1.1 3.1.2.2 0 .3-.3 0-.3-.5-.1-.9-.1-1.4-.2v-.3-.3c.6.1 1.2.1 1.8.1.2 0 .3-.3.1-.3z" id="XMLID_14255_"/>
      <path class="st12" d="M238.9 103.5h-1c-.3 0-.7 0-1-.1-.1 0-.1.1 0 .1.2.1.3.1.5.2.2 0 .3 0 .5.1.3 0 .7.1 1 0s.2-.3 0-.3z" id="XMLID_14254_"/>
      <path class="st12" d="M246.5 106.8c-.1-.1-.3-.1-.5-.1.2-.2.1-.5-.1-.8h-.1c-.1.2-.3.6-.1.8h-.1c-.4 0-.8-.1-1.2 0-.2 0-.2.3 0 .3.3.1.7.1 1.1.1.3 0 .7.1.9-.1.1 0 .2-.1.1-.2z" id="XMLID_14253_"/>
      <path class="st12" d="M233.2 111.1c-.8-.5-2.2-.6-3.1-.4-.1 0-.1.2 0 .2.3.1.7.1 1.1.1-.1.1-.1.3-.1.5-.8-.1-1.5-.1-2.2.1-.1 0-.1.2 0 .2.6.1 1.2 0 1.8.1h.5c.1.1.2 0 .3 0 .4 0 .8 0 1.2.1.1 0 .1-.1 0-.2-.4-.1-.8-.2-1.2-.2 0-.2-.1-.3-.1-.5h.3c.5.1 1 .2 1.5.2.1 0 .1-.2 0-.2z" id="XMLID_14252_"/>
      <path class="st12" d="M234.2 90.2c-.4-.2-.9-.1-1.4-.3-.1 0-.1.1-.1.1.4.2.9.5 1.4.3.2 0 .2-.1.1-.1z" id="XMLID_14251_"/>
    </g>
    <g id="XMLID_14155_">
      <path class="st5" d="M167.5 59.1c-3.5-.7-26.9 9-26.9 13.4 0 6.4-.1 101 2.2 104.1 2.2 3.1 27 2.8 27-2-.1-4.8 1.7-112.9-2.3-115.5" id="XMLID_14243_"/>
      <path class="st2" d="M167.5 59.1c3.4 0 37 7.8 39.8 11.1 2.8 3.4 3.3 104.3.3 106.3s-37.6 5.3-39.4-.9c-1.8-6.1-3.1-114.9-.7-116.5" id="XMLID_14242_"/>
      <path class="st4" d="M178 69.5c0-.1-.1-.2-.1-.2-.6-.9-1.6-1.2-2.6-.8-.2.1-.4.2-.5.3-.4.1-.8.2-1.2.4-.9.5-.8 2.1.3 2.3.3 0 .6.1.8.1.9.7 2.4.3 3.2-.4.5-.5.5-1.2.1-1.7z" id="XMLID_14241_"/>
      <path class="st4" d="M186.6 69.9c-.3-.2-.6-.3-.9-.3-.1-.1-.2-.1-.4-.2-.3-.1-.7-.2-1.1-.1-.9 0-1.7 1.1-1.1 2 .8 1.1 2.2 1.5 3.4.8.9-.5 1-1.8.1-2.2z" id="XMLID_14240_"/>
      <path class="st4" d="M194 72.4c-.3-1.1-1.2-2.1-2.5-2-.5.1-.9.3-1 .8 0 .1 0 .2-.1.3-.4.6-.3 1.5.3 2 .8.7 1.9.6 2.7.1.5-.2.7-.8.6-1.2z" id="XMLID_14239_"/>
      <path class="st4" d="M202.8 73c-.3-.7-.9-1.2-1.7-1.2-.4-.1-.9-.2-1.4-.1-.7.1-1 1.1-.6 1.6.1.2.2.4.4.5.1.5.4.9.8 1.1.4.6 1.4.5 2 .1.5-.4.8-1.2.5-2z" id="XMLID_14238_"/>
      <path class="st4" d="M177.7 77.2c0-1.4-2.3-1-3.1-1-1.1.1-1.4 1.7-.3 2 .6.2 1.2.2 1.7.1.9 0 1.7-.3 1.7-1.1z" id="XMLID_14237_"/>
      <path class="st4" d="M187.4 77.8c0-.3-.2-.7-.5-.8-.8-.4-1.7-.4-2.5-.3-.3 0-.7 0-1 .1-.9.2-.7 1.4.1 1.6.2.2.4.4.8.5.5 0 .9.1 1.4.1.9-.1 1.8-.3 1.7-1.2z" id="XMLID_14236_"/>
      <path class="st4" d="M193.3 77.2c-.8-.1-1.5 0-2.3 0-1.3 0-1.3 1.9 0 2 .5 0 .9.1 1.4.1.1 0 .2 0 .3-.1h.6c1-.2 1-1.9 0-2z" id="XMLID_14235_"/>
      <path class="st4" d="M202.4 78.3c-.5-.4-1.2-.5-1.8-.3-.1 0-.2.1-.3.1h-.4c-1.5 0-1.5 2.3 0 2.3h1.6c.3 0 .6-.1.8-.3.9-.2.9-1.5.1-1.8z" id="XMLID_14234_"/>
      <path class="st4" d="M207.5 70.7c-13.9-3.7-26.6-6.5-40.8-9-.4-.1-.6 1-.2 1.1 14 2.9 26.8 5.2 40.7 9 .7.3 1-.9.3-1.1z" id="XMLID_14233_"/>
      <g id="XMLID_14224_">
        <path class="st4" d="M161.6 70.3c-.1 0-.2.1-.3.2l-.6.3c-.5.1-1 .6-.9 1.3.1.8.6 1.1 1.2 1 .6-.1 1.2-.7 1.5-1.3.3-.8-.2-1.7-.9-1.5z" id="XMLID_14232_"/>
        <path class="st4" d="M155.7 72.4l-.1.1c-.3 0-.5.1-.8.3-.1 0-.1.1-.1.1-.1 0-.2.1-.3.1-.3.3-.4.8-.2 1.2l.3.3c.1 0 .2.1.3.1.2.3.5.4.8.3.4-.1.7-.4.9-.8 0-.1.1-.2.1-.3v-.1c.6-.9-.3-1.7-.9-1.3z" id="XMLID_14231_"/>
        <path class="st4" d="M152.5 75.3c-.1-.2-.3-.3-.5-.3-.3 0-.6.1-.9.2-.4-.1-.9.1-1.1.6-.3.9.4 1.9 1.1 1.4.4-.3.8-.4 1.2-.7.3-.3.4-.8.2-1.2z" id="XMLID_14230_"/>
        <path class="st4" d="M151.2 80.5c-.3.1-.6.2-.9.4-.4.2-.8.4-.9.9 0 .2 0 .4.1.5.2.2.4.3.6.3.2 0 .3-.1.5-.1.1.2.3.4.5.4.6.2 1.2-.4 1.2-1.2.1-.8-.4-1.4-1.1-1.2z" id="XMLID_14229_"/>
        <path class="st4" d="M156 78c-.4.3-.9.6-1.2 1.1-.6.7.2 1.9.9 1.4l.1-.1h.1c.7 0 1.2-.5 1.4-1.3.1-.8-.8-1.4-1.3-1.1z" id="XMLID_14228_"/>
        <path class="st4" d="M146 76.8l-.1.1c-.3 0-.5.1-.8.3-.1 0-.1.1-.1.1-.1 0-.2.1-.3.1-.3.3-.4.8-.2 1.2l.3.3c.1 0 .2.1.3.1.2.3.5.4.8.3.4-.1.7-.4.9-.8 0-.1.1-.2.1-.3v-.1c.5-.9-.3-1.7-.9-1.3z" id="XMLID_14227_"/>
        <path class="st4" d="M146.2 82.4c-.4.3-.9.6-1.2 1.1-.6.7.2 1.9.9 1.4l.1-.1h.1c.7 0 1.2-.5 1.4-1.3.1-.8-.7-1.5-1.3-1.1z" id="XMLID_14226_"/>
        <path class="st4" d="M161.8 76.5c-.2 0-.4 0-.6.2h-.1c-.4 0-.7.2-.9.6-.1.1-.1.3-.1.4s-.1.2-.1.3c-.2.6.2 1 .6 1.1.2.1.4 0 .7-.1.1 0 .2 0 .3-.1s.2-.1.4-.2l.1-.1c.9-.4.7-2-.3-2.1z" id="XMLID_14225_"/>
      </g>
      <g id="XMLID_14216_">
        <path class="st4" d="M162.8 83.3c-.1 0-.2.1-.3.1l-.6.3c-.6 0-1 .5-1 1.2 0 .8.5 1.1 1.1 1.1s1.3-.5 1.6-1.2c.3-.7-.1-1.6-.8-1.5z" id="XMLID_14223_"/>
        <path class="st4" d="M156.7 84.8s-.1 0-.1.1c-.3 0-.5 0-.8.2-.1 0-.1.1-.1.1-.1 0-.2.1-.3.1-.3.2-.5.7-.3 1.1l.3.3c.1.1.2.1.3.1.2.3.5.4.8.4.4-.1.7-.3 1-.7.1-.1.1-.2.1-.3l.1-.1c.4-.8-.3-1.7-1-1.3z" id="XMLID_14222_"/>
        <path class="st4" d="M152.2 87.3c-.1-.2-.3-.3-.5-.3-.3 0-.6.1-.9.1-.4-.2-.9 0-1.1.5-.4.8.2 1.9 1 1.5.4-.2.8-.3 1.2-.6.4-.3.5-.7.3-1.2z" id="XMLID_14221_"/>
        <path class="st4" d="M151.8 92.4c-.3 0-.6.2-.9.3-.4.2-.8.3-1 .9-.1.2 0 .4.1.5.2.2.3.4.6.4.2 0 .3 0 .5-.1.1.2.3.4.5.5.6.3 1.3-.3 1.3-1.1s-.5-1.5-1.1-1.4z" id="XMLID_14220_"/>
        <path class="st4" d="M146.6 88.1s-.1 0-.1.1c-.3 0-.5 0-.8.2-.1 0-.1.1-.1.1-.1 0-.2.1-.3.1-.3.2-.5.7-.3 1.1l.3.3c.1.1.2.1.3.1.2.3.5.4.8.4.4-.1.7-.3 1-.7.1-.1.1-.2.1-.3l.1-.1c.4-.7-.4-1.6-1-1.3z" id="XMLID_14219_"/>
        <path class="st4" d="M146.2 93.7c-.5.2-.9.5-1.3.9-.6.7 0 1.9.7 1.5l.1-.1h.1c.7.1 1.2-.4 1.5-1.1.3-.8-.5-1.5-1.1-1.2z" id="XMLID_14218_"/>
        <path class="st4" d="M162.3 89.4c-.2 0-.4 0-.6.1h-.1c-.4 0-.7.1-.9.5-.1.1-.1.3-.2.4-.1.1-.1.2-.1.3-.2.6.1 1 .4 1.2.2.1.4.1.7 0h.3c.1 0 .3-.1.4-.2.1 0 .1-.1.2-.1.9-.3.9-2-.1-2.2z" id="XMLID_14217_"/>
      </g>
      <g id="XMLID_14208_">
        <path class="st4" d="M162.4 96.3c-.1 0-.2.1-.3.1-.2.1-.4.1-.6.2-.5 0-1.1.4-1.1 1.1-.1.8.4 1.2 1 1.2s1.3-.4 1.7-1.1c.3-.6 0-1.6-.7-1.5z" id="XMLID_14215_"/>
        <path class="st4" d="M156.2 97.3s-.1 0-.1.1c-.3 0-.5 0-.8.1-.1 0-.1.1-.1.1-.1 0-.2 0-.3.1-.4.2-.6.7-.4 1.1.1.1.2.3.3.3.1.1.2.1.3.1.2.3.4.4.7.4.4 0 .7-.3 1-.6.1-.1.1-.2.1-.3l.1-.1c.6-.6-.1-1.5-.8-1.3z" id="XMLID_14214_"/>
        <path class="st4" d="M152.5 99.6c-.1-.2-.3-.3-.4-.4h-.9c-.4-.2-.9-.1-1.2.4-.5.8 0 2 .9 1.5.4-.2.9-.3 1.3-.5.3-.1.5-.5.3-1z" id="XMLID_14213_"/>
        <path class="st4" d="M150.4 104.5c-.3 0-.6.1-.9.2-.5.1-.8.2-1 .8-.1.2-.1.4 0 .5.2.2.3.4.6.4h.5c.1.2.3.4.5.5.6.3 1.3-.2 1.4-1 0-.7-.5-1.5-1.1-1.4z" id="XMLID_14212_"/>
        <path class="st4" d="M155.5 102.9c-.5.2-1 .4-1.4.8-.7.6-.2 1.9.6 1.5 0 0 .1 0 .1-.1h.1c.7.1 1.2-.3 1.6-1 .3-.7-.4-1.5-1-1.2z" id="XMLID_14211_"/>
        <path class="st4" d="M145.8 99.9s-.1 0 0 0c-.4.1-.6.1-.9.2-.1 0-.1.1-.1.1-.1 0-.2 0-.3.1-.4.2-.6.7-.4 1.1.1.1.2.3.3.3.1.1.2.1.3.1.2.3.4.4.7.4.4 0 .7-.3 1-.6.1-.1.1-.2.1-.3l.1-.1c.6-.6-.1-1.6-.8-1.3z" id="XMLID_14210_"/>
        <path class="st4" d="M145.1 105.5c-.5.2-1 .4-1.4.8-.7.6-.2 1.9.6 1.5 0 0 .1 0 .1-.1h.1c.7.1 1.2-.3 1.6-1 .3-.7-.4-1.5-1-1.2z" id="XMLID_14209_"/>
      </g>
      <path class="st4" d="M201.8 86.1l-1.2-.1H199.4c-.6.1-.8.9-.4 1.3.2.2.4.3.6.5.2.3.5.5.9.6.4 0 .8.1 1.2.1 1.5.2 1.7-2.3.1-2.4z" id="XMLID_14207_"/>
      <path class="st4" d="M193 85c-.6 0-1.2-.1-1.7-.1s-.9.2-1.1.7c-.2.6.1 1.1.7 1.4.6.3 1.4.3 2 .3s1.2-.4 1.2-1.1c-.1-.5-.5-1.2-1.1-1.2z" id="XMLID_14206_"/>
      <path class="st4" d="M186.1 84.3c-.6 0-1.2-.1-1.8-.1-.4 0-.9.2-1 .7-.2.6.2 1.3.9 1.4.6 0 1.2.1 1.8.1s1.1-.4 1.1-1-.5-1.1-1-1.1z" id="XMLID_14205_"/>
      <path class="st4" d="M176.8 83.3c-.3-.1-.6-.2-.9-.1h-.9c-.5 0-1 .3-1 .9 0 .5.4 1 .9 1 .5.1 1.1.1 1.6.2 1.1.2 1.4-1.6.3-2z" id="XMLID_14204_"/>
      <path class="st4" d="M177.2 89.2l-.6-.3c-.5-.1-.9 0-1.4 0h-.6c-1.3 0-1.5 1.9-.2 2.1.7.1 1.5.2 2.2 0h.2c1 .1 1.4-1.6.4-1.8z" id="XMLID_14203_"/>
      <path class="st4" d="M186.8 89.6c-.8-.5-2-.5-2.9-.5-.4.1-.7.3-.8.7-.2.5.1 1.3.7 1.4.9.3 2.1.5 3 .1.6-.1.7-1.2 0-1.7z" id="XMLID_14202_"/>
      <path class="st4" d="M193.4 90.2c-.2-.1-.4-.1-.6-.2h-.1c-.3-.1-.7-.2-1-.2-.2 0-.4-.1-.7 0-.8.1-1.3 1.2-.7 1.7.4.4.8.5 1.4.7.6.1 1 .2 1.6.2.5 0 .9-.6.9-1 0-.6-.3-1-.8-1.2z" id="XMLID_14201_"/>
      <path class="st4" d="M202.2 91.2c-.4-.2-.9-.3-1.4-.3-.1 0-.1 0-.2-.1-.4-.2-1 0-1.3.3-.5.3-.6 1-.3 1.5.1.2.3.4.5.4h.2c.3.1.6.3.9.4.2.1.5.1.7 0 .1 0 .2 0 .3.1 1.4.1 1.8-1.9.6-2.3z" id="XMLID_14200_"/>
      <path class="st4" d="M202 95.1c-.5-.1-1-.2-1.5-.1h-.4c-.6 0-1.1.5-1.1 1.1s.5 1.1 1.1 1.1H201.8c.5 0 1-.4 1.1-.9 0-.5-.3-1.1-.9-1.2z" id="XMLID_14199_"/>
      <path class="st4" d="M193.6 95.3c-.1-.2-.3-.3-.5-.3-.4-.1-.8 0-1.2-.1-.4 0-.7-.1-1 0-.6.1-.9.9-.6 1.4.2.3.4.5.7.6s.6.1.8.1c.6.1 1 .1 1.5-.2l.3-.3c.5-.2.5-.9 0-1.2z" id="XMLID_14198_"/>
      <path class="st4" d="M186.8 96.2c.1-.2.2-.3.2-.6 0-.6-.5-1-1-1-.9 0-2.1-.2-2.7.6-.1.2-.1.5 0 .6v.2c.1.4.5.8.9.8.6 0 1.1 0 1.7-.1H186.2c.3-.1.5-.3.6-.5z" id="XMLID_14197_"/>
      <path class="st4" d="M176.9 94.4H175.9c-.4 0-.9 0-1.3-.1-1.1 0-1.4 1.8-.3 2 .6.1 1.2.2 1.7.1.2 0 .4-.1.5-.2h.3c1.1.1 1.3-1.7.1-1.8z" id="XMLID_14196_"/>
      <path class="st4" d="M176.9 98.8c-.2 0-.3-.1-.4-.1-.8-.1-1.6 0-2.3 0-1.5-.1-1.5 2.1-.1 2.2.8.1 1.8.2 2.6-.1.1 0 .2-.1.3-.2.1 0 .2-.1.3-.1.9-.2.6-1.7-.4-1.7z" id="XMLID_14195_"/>
      <path class="st4" d="M186 99.3c-.7-.2-1.5-.3-2.2-.2-.5.1-.8.5-.7 1 0 .2.1.4.2.5.1.5.5 1 1.1 1 .7 0 1.4-.1 2-.5.6-.5.3-1.6-.4-1.8z" id="XMLID_14194_"/>
      <path class="st4" d="M192.6 99.4c-.3 0-.6-.1-.9-.1h-.4c-.6 0-1.2.4-1.2 1.1 0 .6.4 1.2 1.1 1.2.4 0 .7.1 1.1.1h.3c.6 0 1.2-.4 1.2-1.1-.1-.7-.5-1.1-1.2-1.2z" id="XMLID_14193_"/>
      <path class="st4" d="M201.9 99.4c-.2 0-.3-.1-.4-.1h-.5c-.5 0-.9 0-1.4.1-.7.2-1.1 1-.7 1.6.2.3.5.4.8.5h2.1c1.1-.1 1.2-1.8.1-2.1z" id="XMLID_14192_"/>
      <path class="st4" d="M177.5 103.8c-.1 0-.2-.1-.3-.1h-.6c-.5-.1-1-.1-1.5-.1h-.8c-.6-.1-1.2.5-1.2 1.1 0 .7.5 1.1 1.1 1.2.9.1 2 .3 2.9.1.3-.1.5-.2.6-.4.7-.5.6-1.6-.2-1.8z" id="XMLID_14191_"/>
      <path class="st4" d="M186.3 104.3c-.9-.1-1.9-.2-2.7 0-.7.2-1 1-.6 1.6.1.2.3.3.4.3.1.1.3.2.4.3.7.2 1.6.1 2.4.1 1.5 0 1.6-2.2.1-2.3z" id="XMLID_14190_"/>
      <path class="st4" d="M192.9 104.8c-.6-.1-1.3-.4-1.9-.2-.3.1-.6.3-.7.6-.3.4-.3.9.1 1.2.3.2.4.4.8.4.2 0 .4 0 .5.1h.3c.3 0 .6.1.8.1.6 0 1.1-.5 1.1-1 .1-.7-.4-1.2-1-1.2z" id="XMLID_14189_"/>
      <path class="st4" d="M201.6 104.3c-.5-.1-.9-.1-1.4-.2-.9-.1-1.4.9-1.1 1.6.2.4.6.6 1 .6.3.1.6.1 1 .2.1 0 .3.1.5.1.6 0 1.2-.5 1.2-1.1-.1-.6-.5-1.1-1.2-1.2z" id="XMLID_14188_"/>
      <path class="st4" d="M177.2 111.5h-.2c-.2-.2-.5-.3-.8-.3-.5 0-.9.1-1.4.1-.4 0-.7.2-.9.4h-.1c-1.4.5-.9 2.5.6 2.2 1-.2 2-.3 3-.5 1.3 0 1-2-.2-1.9z" id="XMLID_14187_"/>
      <path class="st4" d="M186.7 111.7c-.1-.1-.3-.2-.5-.3-.8-.2-1.8.1-2.6.3-1.3.3-1 2.4.3 2.3.9-.1 1.9-.1 2.7-.3 1.1-.3.9-1.7.1-2z" id="XMLID_14186_"/>
      <path class="st4" d="M193 111.6h-1.5c-.4 0-.7.2-.9.5 0 0-.1 0-.1.1-.2.1-.3.2-.4.4-.2.5 0 1.2.6 1.3.5.1 1.1.1 1.7 0h.6c1.5 0 1.5-2.2 0-2.3z" id="XMLID_14185_"/>
      <path class="st4" d="M202.5 111.7c-.2-.4-.6-.6-1-.6-.5 0-1 0-1.5.1-.7.2-1 1-.7 1.7.1.2.4.4.7.5.5.1 1 .1 1.5.1.8 0 1.4-1.1 1-1.8z" id="XMLID_14184_"/>
      <path class="st4" d="M209.3 109.3c-7.2-.3-15.9-.7-22.4-.8-7.1-.1-13.8-.4-21-.6-.5 0-.3 1.8.2 1.8 7.1.4 13.6 0 20.7.5 6.5.4 14.1.3 22.4.6.8-.1.8-1.5.1-1.5z" id="XMLID_14171_"/>
      <path class="st4" d="M208.6 83.5c-1.6-.2-6.3-1.1-9.1-1.3-3.6-.3-7.3-.6-10.9-1.1-7.5-.9-14.8-1.7-22.4-2.8-.1 0-1 0-1.3.1-8.2 2.3-16.3 6.5-24.1 10-.6.3-.1 1.2.5.9 3.6-1.6 7.4-3.1 11.1-4.5-.1.1-.1.3 0 .4 0 .1.1.3.1.5.4-.1.9-.3 1.3-.4 0-.1-.1-.3-.1-.4-.1-.2-.2-.4-.4-.4 2.6-1 5.3-2.1 7.8-3.2 1.4-.6 4.5-1.2 4.8-1.1 19.6 2.1 29.1 3.2 42.8 4.8.6 0 .5-1.4-.1-1.5z" id="XMLID_14170_"/>
      <path class="st4" d="M166.4 61.8c-9.3 4.2-20.1 8.6-28.9 13.9-.3.2-.1.6.2.5 9.6-3.7 19.9-9.1 29.3-13.3.7-.4.1-1.4-.6-1.1z" id="XMLID_14169_"/>
      <path class="st4" d="M154.8 109.3c-4.5.8-9 1.3-13.5 1.7.5 0 .5-.8 0-.8h-.4c-.3 0-.4.3-.4.5.4 1.4 3 1.3 4.1 1.2 3.4-.1 6.9-1 10.3-1.5.7 0 .6-1.2-.1-1.1z" id="XMLID_14168_"/>
      <path class="st4" d="M166 107.8c-.5.1-2.3.8-2.8.9s-1 .2-1.5.2c-.7 0-.7 1 0 1 1 0 3.7.4 4.5-.3.5-.4.4-1.9-.2-1.8z" id="XMLID_14167_"/>
      <path class="st4" d="M162.2 113c-.3 0-.6 0-.9.1-.3.1-.5.1-.8.1-.8.1-.8 1.2 0 1.2.3 0 .7.1 1 0 .4 0 .7-.2 1-.3.6-.2.4-1.2-.3-1.1z" id="XMLID_14166_"/>
      <path class="st4" d="M152.8 113.6c-.5-.1-.9 0-1.3.2-.4.1-.8.2-1.1.4-.4.3-.4 1 .1 1.1.8.2 2 .1 2.7-.4.3-.4.1-1.2-.4-1.3z" id="XMLID_14165_"/>
      <path class="st4" d="M145.8 114.9c-.2 0-.3 0-.5.1h-.1c-.4.1-.7.3-.7.7v.1c0 .3.3.7.6.8.7.1 1.4-.1 1.5-.9 0-.5-.4-.8-.8-.8z" id="XMLID_14164_"/>
    </g>
    <g id="XMLID_14113_">
      <g id="XMLID_14126_">
        <g id="XMLID_14152_">
          <path class="st5" d="M114.2 62.7c-9.2 3.9-26.1 8.9-29 13-3.7 5.4-2.2 98.3.4 101.3s31.1 2.7 31.1-2c.1-4.6 2.2-109.7-2.5-112.3" id="XMLID_14154_"/>
          <path class="st2" d="M160.1 76.1c.2 0 .4-.1.6-.3 1.4-1.1.7-2.8-.9-3.6-.5-.2-.9-.4-1.4-.5-6.7-3.8-31.9-8.5-44.1-9-2.8 1.6-1.3 107.5.7 113.5s41.9 2.8 45.4.9c3.2-1.8-.1-85.3-.3-101z" id="XMLID_14153_"/>
        </g>
        <path class="st4" d="M159.9 74.4c-10.5-3.4-21.7-5.8-32.7-8.1-1-.2-2.1-.5-3.1-.7-3.2-.7-6.8-1.5-10.3-1.8-.1.1-.1.3-.2.4v1.5c3.4.5 7 .8 10.4 1.5-.7 9.5-.3 19.2-.4 28.7-.1 10.2 0 20.4-.1 30.6 0 20.1-.3 40.3.4 60.4 0 .5.8.5.8 0 .7-20.1.4-40.3.4-60.4 0-9.9 0-19.9-.1-29.8-.1-9.7.3-19.7-.4-29.4 2.4.5 4.8 1.1 7.2 1.7.4.1.7.2 1.1.3-.7 20.8-.4 41.7-.4 62.5 0 20.9-.4 41.9.4 62.8 0 .5 1 .5 1 0 .8-20.9.5-41.9.4-62.8 0-20.7.3-41.5-.4-62.3 4 1.1 8 2.2 12.1 3.2-1.3 18.6-.4 37.5-.4 56.2 0 18.9-.5 38 .4 56.9 0 .6 1.1.6 1.2 0 .8-18.9.4-38 .4-56.9 0-18.6.9-37.3-.4-55.9 1.8.4 3.5.8 5.3 1.2-.8 22.4-.4 44.9-.4 67.3 0 22.6-.4 45.2.3 67.8 0 .7 1.2.7 1.2 0 .6-22.6.3-45.2.3-67.8 0-22.3.4-44.7-.4-67.1 2 .4 4.1.8 6.1 1.2.9.3 1.3-.9.3-1.2z" id="XMLID_14151_"/>
        <path class="st4" d="M129.9 77.1c-.2-1.2-.2-2.3-.3-3.5-.1-.8-1.5-1.1-1.9-.2-.4 1.3-.3 2.7-.2 4 .2 1.4 2.6 1.2 2.4-.3z" id="XMLID_14150_"/>
        <path class="st4" d="M151.3 80.3c-.1-.6-.3-1.2-.4-1.9-.1-.6-.1-1.2-.4-1.7-.3-.4-1.1-.5-1.3 0-.4.6-.3 1.3-.2 1.9.1.7.2 1.4.4 2.1.2 1.2 2.1.7 1.9-.4z" id="XMLID_14149_"/>
        <path class="st4" d="M129.4 83.8c-.2-.5-1.1-.6-1.3 0-.5 1.9-.4 4.1-.6 6.1-.1 1.2 2.1 1.2 2.2 0 .2-1.9.4-4.2-.3-6.1z" id="XMLID_14148_"/>
        <path class="st4" d="M150.2 86.4c-.1-.4-.9-.3-.9.1-.1 1.6 0 3.2 0 4.8 0 .8 1.5.8 1.5 0 0-1.6-.1-3.4-.6-4.9z" id="XMLID_14147_"/>
        <path class="st4" d="M129.9 98.2c0-1.2-2.3-1.5-2.5-.3-.4 1.9-.9 4.5.2 6.3.3.5 1.2.3 1.4-.2 0-.1.1-.2.1-.3.2-.1.4-.3.5-.5.7-1.5.4-3.4.3-5z" id="XMLID_14146_"/>
        <path class="st4" d="M150.5 102.7c0-1 .2-2.1-.4-3-.2-.2-.5-.2-.7 0-.7.8-.6 2-.7 3-.1 1.2-.1 2.3.1 3.5.2.8 1.6.5 1.5-.2.3-1.1.2-2.2.2-3.3z" id="XMLID_14145_"/>
        <path class="st4" d="M141.7 108.4c-.6-.1-1.2-.1-1.8-.1s-1.2-.1-1.8.1c-.7.2-1 1.1-.2 1.5.5.3 1.1.3 1.7.3s1.2.1 1.7.1c1.3-.1 1.7-1.7.4-1.9z" id="XMLID_14140_"/>
        <path class="st4" d="M141.6 93.5c-1 .1-2.1-.1-3 .1-.9.2-1.1 1.3-.3 1.7 1 .5 2.2.4 3.3.4 1.7 0 1.7-2.3 0-2.2z" id="XMLID_14139_"/>
        <path class="st4" d="M142.2 81.6c-1.3-.1-2.6-.2-3.8.2-.5.2-.7.7-.2 1 1.2.6 2.6.7 4 .8 1.5.1 1.5-1.9 0-2z" id="XMLID_14138_"/>
        <path class="st12" d="M115.6 65.1c0-.4-.5-.9-1.2-.7h-.5c-1.3.2-2.4.7-3.5 1.2-.5.2-1.1.4-1.7.6-3.2 1.2-6.4 2.8-9.3 4-5.2 2.2-10.7 4.2-15.7 6.8-.7.3-.2 1.1.5.9 5.3-1.7 10.3-4 15.4-6 5-2 11.1-3.2 15.7-5.7.5-.3.6-.8.3-1.1z" id="XMLID_14135_"/>
        <path class="st12" d="M109.6 101.3c-7.8.4-15.7 2.2-23.2 3.7-.6.1-.3.9.3.8 7.6-1.4 15.5-2.2 23-3.9.4-.1.3-.6-.1-.6z" id="XMLID_14133_"/>
        <path class="st12" d="M109.6 110.2c-7 0-15.9 1.1-22.7 2.4-.4.1-.3.7.1.6 7-.7 15.6-1.7 22.6-2.4.5 0 .5-.6 0-.6z" id="XMLID_14131_"/>
        <path class="st12" d="M109.3 84.9c-3 .3-10.3 1.6-13.2 2.4-2.9.8-5.7 2.1-8.6 2.7-.3.1-1.4.5-1.1.6 2.1.5 6.2-1.3 8.1-1.9 3.5-1 11.3-2.4 14.9-3.2.4-.1.3-.7-.1-.6z" id="XMLID_14129_"/>
        <path class="st12" d="M109.9 76.3c-3.6 0-6.9 1.2-10.1 2.4-4.6 1.6-9.1 3.3-13.8 4.5-.3.1-.2.5.1.4 8.1-1.9 15.7-5 23.9-6.7.4-.1.3-.6-.1-.6z" id="XMLID_14128_"/>
        <path class="st12" d="M109.7 93.2c-3.4.1-7.7.6-11.1 1.2-1.9.4-3.7.8-5.6 1.3-1.8.5-4.7 1.8-6.6 1.7-.3 0-.3.3-.1.4 2.8.4 7-1.4 9.7-1.9 4.2-.9 9.4-1.3 13.7-2 .5-.1.4-.7 0-.7z" id="XMLID_14127_"/>
      </g>
      <path class="st12" d="M119.6 71.1c-1-.3-2.2-.5-3.4-.7.1-.3.2-.8 0-1.1.5.1 1.1.2 1.6.1.1 0 .2-.2.1-.2-.8-.3-1.9-.3-2.7-.4-.3 0-.4.3-.1.4.3 0 .6.1.9.2l-.1.1c-.1.2 0 .4 0 .6v.4c-1.2-.2-2.3-.3-3.4-.3-.3 0-.4.4-.1.5 2.2.5 4.8 1 7.1 1 .3-.2.3-.5.1-.6z" id="XMLID_14125_"/>
      <path class="st12" d="M124.3 84.8c-.7-.1-1.5-.2-2.3-.3-.1-.1-.2-.1-.3 0h-.9c-.2 0-.3.3-.1.3.3 0 .6.1.8.1v.8c-.5 0-1.1-.1-1.6-.1-.3 0-.3.4 0 .4 1.3 0 2.5.2 3.8.3.3 0 .3-.3.1-.4-.6-.1-1.1-.1-1.7-.2v-.4-.4c.7.1 1.5.1 2.2.1.2.2.3-.1 0-.2z" id="XMLID_14124_"/>
      <path class="st12" d="M146.4 90.1h-1.2c-.4 0-.8 0-1.2-.1-.1 0-.2.1 0 .1.2.1.4.2.7.2.2 0 .4 0 .6.1.4 0 .9.1 1.3 0 0 0 0-.3-.2-.3z" id="XMLID_14123_"/>
      <path class="st12" d="M155.7 94.2c-.2-.1-.4-.2-.6-.2.3-.3.1-.7-.1-1 0-.1-.1-.1-.2 0-.2.3-.4.7-.1 1h-.1c-.5 0-1-.1-1.4 0-.3 0-.2.4 0 .4.4.1.9.1 1.3.1s.8.1 1.2-.1c0 0 .1-.1 0-.2z" id="XMLID_14122_"/>
      <path class="st12" d="M139.3 99.4c-.9-.6-2.7-.7-3.8-.5-.2 0-.2.2 0 .3.4.1.9.1 1.3.1-.1.2-.2.4-.2.6-.9-.1-1.9-.1-2.7.1-.1 0-.1.2 0 .2.7.1 1.5 0 2.2.1h.6l.1.1c.1.1.3.1.3 0 .5 0 1 .1 1.5.1.1 0 .2-.2 0-.2-.4-.1-1-.2-1.5-.3 0-.2-.1-.4-.1-.6h.3c.6.1 1.2.2 1.9.3.2 0 .2-.2.1-.3z" id="XMLID_14121_"/>
      <path class="st12" d="M140.5 73.7c-.5-.2-1.2-.2-1.7-.3-.1 0-.2.1-.1.2.5.3 1.2.6 1.8.3.1-.1.1-.2 0-.2z" id="XMLID_14120_"/>
      <path class="st12" d="M123.6 105.6c-.3-.1-.7-.1-1-.1 0-.3 0-.5-.1-.7-.1-.1-.2-.1-.3 0-.2.2-.1.4-.1.7-.3 0-.5-.1-.8-.1-.1 0-.2.1-.1.2.7.3 1.7.6 2.4.4.2-.2.2-.4 0-.4z" id="XMLID_14119_"/>
      <path class="st12" d="M156.2 108.3c-.6-.4-1.9-.6-2.6-.3-.1 0-.1.2 0 .2.4.1.9 0 1.3.1s.8.2 1.2.2c.1.1.2-.1.1-.2z" id="XMLID_14117_"/>
    </g>
    <g id="XMLID_14024_">
      <path class="st5" d="M46 18.6c-4.7-1-36.3 12.1-36.3 18.1 0 8.7-.1 136 2.9 140.2 3 4.1 36.3 3.8 36.3-2.7.1-6.5 2.6-152.1-2.9-155.6" id="XMLID_14112_"/>
      <path class="st2" d="M46 18.6c4.6 0 49.9 10.5 53.6 15s4.5 140.6.4 143.2c-4 2.7-50.7 7.1-53.1-1.2-2.3-8.3-4-154.9-.9-157" id="XMLID_14111_"/>
      <path class="st4" d="M60.2 32.6c0-.1-.1-.2-.1-.3-.7-1.2-2.1-1.6-3.4-1.1-.3.1-.5.3-.7.4-.6.1-1.1.3-1.6.6-1.2.6-1 2.8.4 3.1.4.1.7.1 1.1.1 1.2 1 3.3.5 4.3-.5.5-.6.5-1.6 0-2.3z" id="XMLID_14110_"/>
      <path class="st4" d="M71.8 33.1c-.4-.2-.8-.3-1.2-.4-.2-.1-.3-.1-.5-.2-.4-.2-1-.2-1.4-.2-1.2.1-2.3 1.5-1.5 2.6 1.1 1.5 3 2.1 4.6 1.1 1-.6 1.2-2.3 0-2.9z" id="XMLID_14109_"/>
      <path class="st4" d="M81.7 36.5c-.4-1.5-1.7-2.8-3.3-2.6-.7.1-1.2.4-1.4 1.1 0 .1-.1.3-.1.4-.5.9-.5 2 .4 2.7 1 1 2.5.8 3.7.2.6-.4.9-1.2.7-1.8z" id="XMLID_14108_"/>
      <path class="st4" d="M93.6 37.4c-.4-1-1.2-1.7-2.3-1.6h-.1c-.6-.2-1.2-.2-1.9-.1-.9.1-1.3 1.4-.9 2.1.2.2.3.5.5.7.1.7.5 1.1 1 1.5.6.8 1.9.7 2.7.2 1-.7 1.4-1.8 1-2.8z" id="XMLID_14107_"/>
      <path class="st4" d="M59.8 43c0-1.9-3.1-1.4-4.2-1.3-1.5.1-1.9 2.3-.4 2.7.8.2 1.6.2 2.3.1 1.2-.1 2.3-.4 2.3-1.5z" id="XMLID_14106_"/>
      <path class="st4" d="M72.9 43.8c0-.4-.2-.9-.6-1.1-1-.5-2.3-.5-3.4-.4-.5 0-.9 0-1.4.1-1.2.3-.9 1.8.1 2.1.2.3.6.6 1.1.6.6 0 1.2.1 1.8.1 1.3.1 2.5-.2 2.4-1.4z" id="XMLID_14105_"/>
      <path class="st4" d="M80.8 42.9c-1-.1-2 0-3 0-1.7.1-1.7 2.5 0 2.6.6 0 1.2.1 1.9.1.1 0 .3 0 .4-.1.3 0 .5 0 .8-.1 1.3 0 1.3-2.3-.1-2.5z" id="XMLID_14104_"/>
      <path class="st4" d="M93 44.5c-.6-.5-1.7-.7-2.4-.5-.1 0-.3.1-.4.2h-.5c-2-.1-2 3.1 0 3.1h2.2c.4 0 .8-.1 1-.4 1.3-.3 1.3-2 .1-2.4z" id="XMLID_14103_"/>
      <path class="st4" d="M100 34.3c-18.7-5-35.8-8.8-54.9-12.1-.5-.1-.8 1.4-.3 1.5 18.9 3.9 36.1 7 54.8 12.2.9.2 1.4-1.4.4-1.6z" id="XMLID_14102_"/>
      <g id="XMLID_14093_">
        <path class="st4" d="M38.1 33.7c-.2 0-.3.1-.4.2-.3.1-.5.3-.8.5-.7.1-1.3.8-1.2 1.8.1 1 .8 1.4 1.6 1.3.8-.1 1.6-.9 2-1.8.5-1.1-.2-2.3-1.2-2z" id="XMLID_14101_"/>
        <path class="st4" d="M30.2 36.5s-.1.1-.2.1c-.4 0-.7.1-1.1.4l-.2.2c-.1 0-.2.1-.3.2-.4.4-.6 1-.2 1.6.1.2.3.3.5.4.1.1.3.1.4.1.3.3.7.5 1.1.4.5-.1.9-.5 1.2-1.1.1-.1.1-.3.1-.4 0 0 0-.1.1-.1.6-1.2-.5-2.3-1.4-1.8z" id="XMLID_14100_"/>
        <path class="st4" d="M25.9 40.5c-.2-.3-.4-.4-.7-.4-.4 0-.8.2-1.1.3-.6-.2-1.2.1-1.5.8-.5 1.2.5 2.6 1.5 1.9.5-.4 1.1-.5 1.5-1s.6-1.1.3-1.6z" id="XMLID_14099_"/>
        <path class="st4" d="M24.2 47.4c-.4.1-.8.3-1.2.5-.6.3-1 .5-1.2 1.3-.1.3 0 .5.1.6.3.3.5.5.9.4.2 0 .4-.1.7-.2.2.3.4.5.7.6.8.3 1.6-.6 1.6-1.6s-.8-1.8-1.6-1.6z" id="XMLID_14098_"/>
        <path class="st4" d="M30.5 44.1c-.6.4-1.2.8-1.7 1.4-.8 1 .2 2.6 1.2 1.9l.1-.1h.1c.9 0 1.6-.7 1.9-1.7.3-1.2-.8-2-1.6-1.5z" id="XMLID_14097_"/>
        <path class="st4" d="M17.1 42.4s-.1.1-.2.1c-.4 0-.7.1-1.1.4 0 .1 0 .1-.1.2-.1 0-.2.1-.3.2-.4.4-.6 1-.2 1.6.1.2.3.3.5.4.1.1.3.1.4.1.3.3.7.5 1.1.4.5-.1.9-.5 1.2-1.1.1-.1.1-.3.1-.4 0 0 0-.1.1-.1.5-1.2-.7-2.3-1.5-1.8z" id="XMLID_14096_"/>
        <path class="st4" d="M17.4 50c-.6.4-1.2.8-1.7 1.4-.7 1 .3 2.6 1.2 1.9l.1-.1h.1c.9 0 1.6-.7 1.9-1.7.3-1.2-.8-2-1.6-1.5z" id="XMLID_14095_"/>
        <path class="st4" d="M38.4 42c-.3 0-.6.1-.8.2h-.1c-.5.1-.9.3-1.1.8-.1.2-.1.4-.2.6-.1.1-.2.2-.2.4-.2.8.2 1.4.8 1.5.3.1.6 0 .9-.1.2 0 .3 0 .5-.1s.3-.2.5-.3l.2-.2c1.1-.4.9-2.7-.5-2.8z" id="XMLID_14094_"/>
      </g>
      <g id="XMLID_14085_">
        <path class="st4" d="M39.7 51.2c-.2 0-.3.1-.4.2-.3.1-.6.2-.8.4-.7 0-1.4.7-1.4 1.6 0 1 .7 1.5 1.4 1.5.8-.1 1.7-.7 2.2-1.6.5-1 0-2.3-1-2.1z" id="XMLID_14092_"/>
        <path class="st4" d="M31.5 53.2s-.1.1-.2.1c-.4 0-.7.1-1.1.3-.1 0-.1.1-.2.2-.1 0-.3.1-.4.2-.5.3-.7 1-.4 1.5.1.2.2.3.4.4.1.1.3.1.4.1.2.4.6.6 1 .5.5-.1 1-.4 1.3-1 .1-.1.1-.2.2-.4l.1-.1c.8-1-.2-2.3-1.1-1.8z" id="XMLID_14091_"/>
        <path class="st4" d="M25.5 56.6c-.2-.3-.4-.4-.6-.5-.4 0-.8.1-1.2.1-.6-.2-1.2-.1-1.5.6-.6 1.1.2 2.6 1.3 2 .5-.3 1.1-.4 1.6-.8.5-.2.7-.8.4-1.4z" id="XMLID_14090_"/>
        <path class="st4" d="M24.9 63.5c-.4.1-.8.2-1.2.4-.6.1-1.1.3-1.3 1.1-.1.3 0 .5.1.6.2.3.4.5.8.5.2 0 .5-.1.7-.1.2.3.4.5.7.7.8.3 1.7-.4 1.8-1.4-.1-1-.8-2-1.6-1.8z" id="XMLID_14089_"/>
        <path class="st4" d="M17.9 57.7s-.1.1-.2.1c-.4 0-.7.1-1.1.3-.1 0-.1.1-.2.2-.1 0-.3.1-.4.2-.5.3-.7 1-.4 1.5.1.2.2.3.4.4.1.1.3.1.4.1.2.4.6.6 1 .5.5-.1 1-.4 1.3-1 .2-.1.3-.3.3-.4l.1-.1c.7-1.1-.3-2.3-1.2-1.8z" id="XMLID_14088_"/>
        <path class="st4" d="M17.4 65.2c-.6.3-1.3.7-1.8 1.2-.9.9-.1 2.6 1 2l.1-.1h.1c.9.1 1.6-.6 2-1.5.4-1-.6-2-1.4-1.6z" id="XMLID_14087_"/>
        <path class="st4" d="M39.1 59.5c-.3-.1-.6 0-.9.1h-.1c-.5 0-.9.2-1.2.7-.1.2-.2.4-.2.5-.1.1-.1.2-.2.4-.3.8.1 1.4.6 1.6.3.1.6.1.9 0h.5c.2-.1.3-.1.5-.2l.2-.2c1.3-.4 1.3-2.7-.1-2.9z" id="XMLID_14086_"/>
      </g>
      <g id="XMLID_14077_">
        <path class="st4" d="M39.1 68.7c-.2 0-.3.1-.4.1-.3.1-.6.2-.8.3-.7-.1-1.4.6-1.5 1.5-.1 1 .6 1.6 1.3 1.6.8 0 1.8-.6 2.3-1.4.6-.9.1-2.2-.9-2.1z" id="XMLID_14084_"/>
        <path class="st4" d="M30.9 70.1s-.1.1-.2.1c-.4 0-.7 0-1.1.2-.1 0-.1.1-.2.1s-.3.1-.4.1c-.5.3-.7.9-.5 1.5.1.2.2.3.4.4.1.1.3.1.4.2.2.4.6.6 1 .6.5 0 1-.4 1.4-.9.1-.1.1-.2.2-.4l.1-.1c.7-.9-.2-2.2-1.1-1.8z" id="XMLID_14083_"/>
        <path class="st4" d="M25.9 73.2c-.1-.3-.3-.5-.6-.5-.4-.1-.8 0-1.2.1-.5-.3-1.2-.1-1.6.5-.7 1.1 0 2.6 1.2 2.1.6-.3 1.2-.3 1.7-.7.4-.3.7-.9.5-1.5z" id="XMLID_14082_"/>
        <path class="st4" d="M23 79.7c-.4 0-.8.2-1.2.3-.6.2-1.1.3-1.4 1-.1.3-.1.5 0 .7.2.3.4.5.8.6.2 0 .5 0 .7-.1.1.4.3.6.6.8.8.4 1.7-.3 1.9-1.3.1-1.1-.6-2-1.4-2z" id="XMLID_14081_"/>
        <path class="st4" d="M29.8 77.6c-.7.3-1.3.6-1.9 1.1-.9.8-.2 2.6.8 2.1 0 0 .1 0 .1-.1h.1c.9.2 1.7-.4 2.1-1.4.6-1-.3-2-1.2-1.7z" id="XMLID_14080_"/>
        <path class="st4" d="M16.9 73.6s-.1.1-.2.1c-.4 0-.7 0-1.1.2-.1 0-.1.1-.2.1s-.3.1-.4.1c-.5.3-.7.9-.5 1.5.1.2.2.3.4.4.1.1.3.1.4.2.2.4.6.6 1 .6.5 0 1-.4 1.4-.9.1-.1.1-.2.2-.4l.1-.1c.7-.9-.2-2.2-1.1-1.8z" id="XMLID_14079_"/>
        <path class="st4" d="M15.9 81.1c-.7.3-1.3.6-1.9 1.1-.9.8-.2 2.6.8 2.1 0 0 .1 0 .1-.1h.1c.9.2 1.7-.4 2.1-1.4.6-1-.4-2.1-1.2-1.7z" id="XMLID_14078_"/>
      </g>
      <path class="st4" d="M92.3 55l-1.6-.1c-.2 0-.4 0-.6.1-.4 0-.7 0-1.1.1-.8.1-1.1 1.2-.6 1.8.2.3.5.5.8.6.2.4.6.7 1.3.7.5 0 1 .1 1.6.1 2.1.1 2.3-3.2.2-3.3z" id="XMLID_14076_"/>
      <path class="st4" d="M80.4 53.5c-.8 0-1.6-.1-2.3-.1-.6 0-1.2.3-1.5.9-.3.8.2 1.5.9 1.8.8.4 1.8.4 2.7.4.8 0 1.6-.6 1.6-1.4 0-.7-.5-1.6-1.4-1.6z" id="XMLID_14075_"/>
      <path class="st4" d="M71.1 52.5c-.8-.1-1.6-.1-2.4-.1-.6 0-1.2.3-1.4.9-.3.8.3 1.8 1.2 1.8.8.1 1.6.2 2.4.2s1.4-.5 1.5-1.3c0-.7-.6-1.5-1.3-1.5z" id="XMLID_14074_"/>
      <path class="st4" d="M58.7 51.3c-.4-.1-.8-.2-1.2-.1h-1.3c-.7 0-1.3.5-1.4 1.2 0 .7.5 1.3 1.2 1.4.7.1 1.4.2 2.1.2 1.6.1 2-2.2.6-2.7z" id="XMLID_14073_"/>
      <path class="st4" d="M59.2 59.1c-.2-.2-.5-.3-.8-.3-.6-.1-1.3-.1-1.9 0h-.8c-1.8 0-2 2.5-.2 2.8 1 .2 2 .2 3 0h.2c1.3 0 1.8-2.1.5-2.5z" id="XMLID_14072_"/>
      <path class="st4" d="M72.1 59.8c-1-.7-2.7-.7-4-.6-.5.1-1 .4-1.1.9-.3.7.1 1.7.9 1.9 1.2.3 2.8.6 4 .1 1-.3 1.1-1.8.2-2.3z" id="XMLID_14071_"/>
      <path class="st4" d="M81 60.5c-.3-.1-.5-.2-.8-.2-.1 0-.1 0-.2-.1-.5-.1-.9-.2-1.4-.3h-.1c-.3-.1-.6-.1-.9 0-1 .1-1.8 1.6-.9 2.3.6.5 1.1.7 1.9.9.7.2 1.4.3 2.2.3.7 0 1.2-.8 1.2-1.4.1-.6-.4-1.2-1-1.5z" id="XMLID_14070_"/>
      <path class="st4" d="M92.8 61.8c-.6-.2-1.2-.4-1.9-.4-.1 0-.2-.1-.3-.1-.6-.2-1.3 0-1.8.4-.7.4-.8 1.4-.4 2 .2.3.4.5.7.6H89.4c.4.2.8.4 1.2.5.3.1.6.1.9 0 .2 0 .3.1.5.1 1.9.2 2.5-2.5.8-3.1z" id="XMLID_14069_"/>
      <path class="st4" d="M92.6 67.1c-.6-.1-1.3-.2-2-.1H90c-.8 0-1.5.7-1.5 1.5S89.2 70 90 70h2.2c.7 0 1.3-.5 1.4-1.3.1-.7-.3-1.5-1-1.6z" id="XMLID_14068_"/>
      <path class="st4" d="M81.3 67.3c-.2-.2-.4-.4-.7-.5-.5-.1-1.1-.1-1.6-.1s-.9-.1-1.3 0c-.8.2-1.3 1.2-.8 1.9.2.3.5.6.9.8.3.1.8.1 1.1.2.7.1 1.4.1 2.1-.2.2-.1.3-.2.4-.3.4-.4.5-1.4-.1-1.8z" id="XMLID_14067_"/>
      <path class="st4" d="M72.1 68.5c.2-.2.2-.5.2-.8 0-.8-.6-1.3-1.4-1.4-1.2-.1-2.8-.3-3.7.8-.2.2-.1.6 0 .8V68.2c.2.6.6 1 1.3 1 .7 0 1.5 0 2.2-.1h.5c.5 0 .7-.2.9-.6z" id="XMLID_14066_"/>
      <path class="st4" d="M58.7 66.2c-.3 0-.6 0-.9-.1h-.5c-.6 0-1.2-.1-1.8-.1-1.5-.1-1.9 2.4-.4 2.6.8.1 1.6.3 2.3.2.2 0 .5-.1.7-.2h.4c1.5.1 1.9-2.2.2-2.4z" id="XMLID_14065_"/>
      <path class="st4" d="M58.8 72.1c-.2-.1-.4-.1-.5-.1-1-.1-2.1 0-3.1 0-2-.1-2 2.8-.2 3 1.1.1 2.4.2 3.5-.1.2-.1.3-.1.5-.2.1 0 .3-.1.4-.1 1-.5.7-2.6-.6-2.5z" id="XMLID_14064_"/>
      <path class="st4" d="M71 72.7c-1-.3-2-.4-3-.2-.6.1-1.1.7-1 1.3 0 .3.1.5.3.7.1.7.7 1.4 1.5 1.4 1 0 1.9-.2 2.7-.7.9-.7.5-2.2-.5-2.5z" id="XMLID_14063_"/>
      <path class="st4" d="M80 72.9c-.4-.1-.8-.1-1.2-.2h-.5c-.8 0-1.6.6-1.7 1.5 0 .8.6 1.6 1.5 1.7.5 0 1 .1 1.4.1h.4c.8 0 1.6-.6 1.6-1.4-.1-1-.7-1.6-1.5-1.7z" id="XMLID_14062_"/>
      <path class="st4" d="M92.5 72.9c-.2 0-.3-.1-.5-.1s-.5 0-.7-.1c-.6 0-1.3 0-1.8.2-1 .3-1.5 1.3-.9 2.2.3.4.7.6 1.1.6H91.1c.3 0 .5 0 .8.1h.5c1.3-.2 1.5-2.6.1-2.9z" id="XMLID_14061_"/>
      <path class="st4" d="M59.6 78.8c-.1 0-.1 0 0 0-.2 0-.3-.1-.4-.1h-.9c-.7-.1-1.3-.2-2-.1-.4 0-.7 0-1.1-.1-.9-.1-1.6.7-1.7 1.5 0 .9.7 1.5 1.5 1.7 1.2.2 2.7.4 3.9.1.4-.1.6-.3.8-.6 1.1-.6.9-2.1-.1-2.4z" id="XMLID_14060_"/>
      <path class="st4" d="M71.4 79.4c-1.2-.1-2.5-.3-3.7-.1-1 .2-1.4 1.3-.8 2.1.2.2.3.4.6.5.2.2.3.3.6.4 1 .3 2.2.2 3.2.2 2 0 2.1-2.8.1-3.1z" id="XMLID_14059_"/>
      <path class="st4" d="M80.3 80.1c-.8-.1-1.7-.5-2.5-.3-.5.1-.8.4-.9.8-.5.5-.3 1.2.1 1.6.3.3.6.5 1.1.5.2 0 .5.1.7.1h.4c.4 0 .8.1 1.1.1.8.1 1.5-.6 1.5-1.4 0-.7-.7-1.3-1.5-1.4z" id="XMLID_14058_"/>
      <path class="st4" d="M92.1 79.5c-.6-.1-1.3-.1-1.9-.2-1.2-.1-1.9 1.2-1.4 2.2.3.5.8.8 1.3.8.4.1.9.1 1.3.2.2.1.4.1.6.1.8 0 1.6-.6 1.6-1.5 0-.8-.7-1.5-1.5-1.6z" id="XMLID_14057_"/>
      <path class="st4" d="M59.1 89.2h-.3c-.3-.3-.6-.4-1-.4-.6.1-1.2.1-1.9.2-.5 0-.9.3-1.2.6-.1 0-.1 0-.2.1-1.9.7-1.2 3.4.8 3 1.3-.2 2.7-.4 4.1-.6 1.7-.4 1.4-3-.3-2.9z" id="XMLID_14056_"/>
      <path class="st4" d="M71.9 89.4c-.2-.2-.4-.3-.6-.4-1.1-.3-2.4.1-3.5.4-1.7.3-1.4 3.2.4 3.1 1.2-.1 2.5-.1 3.7-.4 1.4-.4 1.2-2.3 0-2.7z" id="XMLID_14055_"/>
      <path class="st4" d="M80.5 89.3h-2c-.6 0-1 .3-1.2.7-.1 0-.1 0-.2.1-.2.1-.4.3-.5.6-.3.7.1 1.6.8 1.7.7.1 1.5.1 2.3.1h.8c1.9-.1 1.9-3.1 0-3.2z" id="XMLID_14054_"/>
      <path class="st4" d="M93.2 89.4c-.3-.6-.9-.8-1.4-.8-.6 0-1.3 0-2 .1-1 .2-1.4 1.4-.9 2.2.2.3.5.6.9.7.6.2 1.3.1 2 .1 1.2.2 2-1.2 1.4-2.3z" id="XMLID_14053_"/>
      <path class="st4" d="M59.6 96.9c-1.3-.2-2.6-.1-3.9 0-.2 0-.5 0-.7.1-.3 0-.6.1-.8.3-.6.2-.8.7-.7 1.2-.1.8.4 1.5 1.4 1.6 1.5 0 3.2.2 4.6-.2 1.4-.4 1.6-2.7.1-3z" id="XMLID_14052_"/>
      <path class="st4" d="M71.7 97.3h-.3c-.7-.1-1.4-.1-2.1 0-.8 0-1.5.1-2.2.4-.9.1-1.3 1.6-.4 2.1.2.1.4.2.7.3.2.3.5.5.8.5 1.2.2 2.3.2 3.5.1 2.2-.2 2.3-3.5 0-3.4z" id="XMLID_14051_"/>
      <path class="st4" d="M82.2 98.4c-.1-.9-.8-1.4-1.7-1.5-.5 0-1 .1-1.5.1-.6 0-1.2 0-1.7.1-.8.3-1.3 1-1.2 1.8.1.7.6 1.1 1.2 1.3.5.2 1.2.2 1.8.2.3 0 .7 0 1.1-.1h.2c.2 0 .3-.1.5-.1h.1c.8-.1 1.3-.9 1.2-1.8z" id="XMLID_14050_"/>
      <path class="st4" d="M94 98.5c0-.4-.1-.7-.4-1s-.7-.6-1.2-.6h-2.8c-.5 0-1 .3-1.2.6-.2.3-.3.6-.3.9 0 .4.1.7.4 1 .3.4.7.6 1.2.6h2.8c.5 0 .9-.2 1.2-.6.2-.2.3-.5.3-.9z" id="XMLID_14049_"/>
      <path class="st4" d="M58.6 103.4c-.2-.1-.5-.1-.7-.1-.4 0-.7.1-1.1.1-.5.1-1 .1-1.5.2-2.1.3-2.2 3.2 0 3.4 1.1.1 2.2 0 3.3-.1.9-.1 1.7-.7 1.7-1.7.1-1-.7-1.8-1.7-1.8z" id="XMLID_14048_"/>
      <path class="st4" d="M71.9 103.6h-2.1c-.4 0-.8-.1-1.2 0-.4 0-.7.2-1 .4h-.2c-1 .1-2 1.8-.7 2.4 1.5.7 3.5.5 5.1.4 2.1-.2 2.1-3.2.1-3.2z" id="XMLID_14047_"/>
      <path class="st4" d="M81 103c-.4-.2-.7-.3-1.2-.3h-1.4c-.5 0-.8.2-1.1.5-.4.1-.8.3-1 .8-.2.3-.3.7 0 1.2.5.9 1.4.9 2.2.9s1.5 0 2.3.1c1.9-.1 2-3 .2-3.2z" id="XMLID_14046_"/>
      <path class="st4" d="M92.1 103.1c-.6-.2-1.1-.1-1.7-.1-.4 0-.8.2-1.1.5-.2.1-.4.2-.6.5-.2.2-.2.7 0 .9.2.2.4.4.6.5.3.3.7.6 1.1.5.6 0 1.1.1 1.6-.1.7 0 1.4-.7 1.4-1.4.1-.7-.5-1.2-1.3-1.3z" id="XMLID_14045_"/>
      <path class="st4" d="M102.4 86.2c-9.7-.4-21.4-1-30.1-1.1-9.6-.1-18.7-.6-28.2-.9-.7 0-.4 2.4.2 2.4 9.6.5 18.4 0 27.9.7 8.7.6 19 .5 30.1.8 1 .1 1.1-1.9.1-1.9z" id="XMLID_14040_"/>
      <path class="st4" d="M101.5 51.5c-2.2-.3-8.6-1.5-12.2-1.8-4.9-.4-9.8-.9-14.7-1.5-10.2-1.2-19.9-2.3-30.1-3.7-.2 0-1.3 0-1.8.1-11.1 3.1-22 8.7-32.4 13.5-.8.4-.1 1.6.7 1.2 4.9-2.2 9.9-4.1 15-6.1-.1.2-.1.4-.1.6.6 2.3.4 7.5 2.1 9.2 1.2 1.2 3.7.4 5.2.4 2.3.1 5-.3 6.4 1.9.8 1.2 1.1 5.8 1.1 7.2-.1 2.6-.1 3-2.7 4.2-2 .9-2.8 1.2-4.9 1.7-.5.1-.8.6-.8 1.1.1 4-1.6 7.9-1.5 11.9 0 1.7.7 3.9-.7 5.1-1.1.9-5.4.6-6.8.7-.5 0-1 .4-1 1 0 6.4-1 12.5-3 18.5-.4 1.2 1.5 1.8 1.9.5 1.3-4 2.2-8 2.7-12.1.2-1.8-.4-4.8 1.1-6.1 1-.8 5.7-.5 7.1-.6.6-.1 1.2-.5 1.1-1.1-.1-4 .2-8.1.8-12 .6-4.6 1.4-5.6 2.8-6.1 3.7-1.3 6.7-1.5 6.3-4.6-.4-2.9-.3-10.1-2.8-12.1-1.7-1.3-5.2-.9-7.1-1.2-2.9-.4-3.4-.3-4.6-3-.7-1.5-.4-3.5-.9-5.1-.1-.3-.3-.5-.5-.6 3.5-1.4 7.1-2.8 10.5-4.3 1.9-.8 6.1-1.6 6.4-1.5 26.4 2.8 39.2 4.3 57.7 6.5.6.3.4-1.7-.3-1.8z" id="XMLID_14039_"/>
      <path class="st4" d="M44.6 22.2C32.1 28 17.6 33.9 5.7 40.9c-.3.2-.1.8.3.7 13-5 26.7-12.3 39.5-18 .9-.4.1-1.8-.9-1.4z" id="XMLID_14038_"/>
      <path class="st4" d="M28.9 86.3c-6.1 1-12.1 1.8-18.2 2.3.7-.1.6-1.1-.1-1.1h-.5c-.4 0-.6.4-.5.7.5 1.9 4 1.7 5.5 1.7 4.6-.2 9.3-1.3 13.9-2 1-.1.9-1.8-.1-1.6z" id="XMLID_14037_"/>
      <path class="st4" d="M44 84.2c-.6.1-3.2 1-3.8 1.2-.7.2-1.4.2-2.1.2-.9 0-.9 1.4 0 1.4 1.4.1 5 .5 6.1-.4.8-.5.7-2.5-.2-2.4z" id="XMLID_14036_"/>
      <path class="st4" d="M39 91.2c-.4.1-.8 0-1.2.1-.4.1-.7.2-1.1.2a.85.85 0 0 0 0 1.7c.5 0 .9.1 1.4.1s.9-.2 1.4-.4c.7-.4.3-1.8-.5-1.7z" id="XMLID_14035_"/>
      <path class="st4" d="M26.2 92c-.6-.1-1.2.1-1.8.2-.5.1-1.1.3-1.5.6-.6.4-.5 1.3.2 1.5 1.1.3 2.7.1 3.6-.6.6-.4.3-1.6-.5-1.7z" id="XMLID_14034_"/>
      <path class="st4" d="M16.9 93.8c-.2 0-.4.1-.6.1h-.2c-.5.1-.9.4-.9 1v.1c0 .4.3.9.8 1 .9.2 1.9-.2 2-1.2-.1-.6-.6-1-1.1-1z" id="XMLID_14033_"/>
      <path class="st4" d="M38.7 97.5c-.8-.5-3.2-.7-3.2.8 0 1.4 2.2 1.8 3.2 1.2.8-.4.8-1.5 0-2z" id="XMLID_14032_"/>
      <path class="st4" d="M18.3 98.4c-.7-.1-1.5-.1-2.1.2-.4.2-.6.9-.3 1.3.6.8 1.6 1.1 2.5.7.5-.2.8-.6.8-1.1-.1-.5-.4-1-.9-1.1z" id="XMLID_14031_"/>
      <path class="st4" d="M17.9 105.3c-.7 0-1.3 0-2 .1-.4.1-.8.2-.9.6s-.1.9.2 1.1c.9.7 1.9 1 3 .6.6-.2 1-.7.9-1.3-.1-.6-.6-1.1-1.2-1.1z" id="XMLID_14030_"/>
      <path class="st4" d="M29.7 104.3c-.9-.2-1.8-.1-2.6 0-.9.1-1.4 1.2-.5 1.8.9.6 2.1.9 3.1.5.5-.2.9-.6.9-1.2 0-.4-.4-.9-.9-1.1z" id="XMLID_14029_"/>
      <path class="st4" d="M38.2 104.4c-1.1-.4-5-.2-4 1.8.4.7 1.2.8 1.9.9.7.1 1.5.1 2.1-.1 1.2-.6 1.2-2.1 0-2.6z" id="XMLID_14028_"/>
    </g>
  </g>
  <path class="st11" d="M18 0h960v107.8H18z"/>
  <g class="st0" transform="matrix(1, 0, 0, 1, -581.516846, -0.8032)">
    <defs>
      <path id="SVGID_19_" d="M18 0h960v107.8H18z"/>
    </defs>
    <clipPath id="SVGID_20_">
      <path d="M18 0h960v107.8H18z" transform="matrix(1, 0, 0, 1, 0, 0)" overflow="visible"/>
    </clipPath>
    <g id="XMLID_11591_" clip-path="url(#SVGID_20_)">
      <path class="st33" d="M675.8 69.9c1.9-10.5 8.8-13.2 28-15.3s27.5-1.8 31.6 5.2 4.3 14 4.3 14 8.3 61.9 3.5 74.3-58.4.2-66.7-3.3c-8.2-3.3-2.5-64.9-.7-74.9z" id="XMLID_12091_"/>
      <path class="st34" d="M735.4 59.8c-.1-.2-.3-.4-.4-.6-.6 0-1.2-.1-1.9-.1-7.7-.3-15.4-.2-23.1-.1-7.3.2-14.3.8-21.3 2.8-4.3 1.2-8.8 2.8-12.3 5.5-.2.8-.4 1.6-.6 2.5-1.8 9.9-7.5 71.5.7 74.9 8.2 3.4 61.8 15.7 66.7 3.3 4.8-12.5-3.5-74.3-3.5-74.3s-.2-6.9-4.3-13.9z" id="XMLID_12090_"/>
      <path class="st33" d="M740.9 159.9c-.1 7-2.7 62.8-5.4 67.8-2.7 5.1-16.8 20.9-24.6-9.2s-13.3-44.8-4.6-52c8.7-7.1 30.1-25.7 34.6-6.6z" id="XMLID_12089_"/>
      <path class="st34" d="M728.9 231.1c-1.6-11.1-2.8-22.3-4.6-33.4-1.4-9.1-3.1-18.4-6.1-27.2-.9-2.7-2.4-6.9-4.7-9.8-2.8 2.2-5.3 4.3-7.3 5.9-8.7 7.2-3.2 21.9 4.6 52 5.1 19.6 12.8 19.7 18.3 16 0-1.6-.1-2.9-.2-3.5z" id="XMLID_12088_"/>
      <path class="st33" d="M679.1 159.3c-2.9 10.9.8 15.3 2.4 30.7 1.6 15.4-1.6 15.1 3 23s3.4 15.7 3.4 15.7 22.8 18.8 22.9 3.4 7.5-39.8 6-46.3c6.9-.3 13.2-3.6 12.4-13.3-.9-9.7 4.4-16.9 4.4-16.9l-20.8-4.6-33.7 8.3z" id="XMLID_12087_"/>
      <path class="st34" d="M714.4 161.4c1 3.6 2.9 6.8 5.5 9.5 5.1 5.5 12.8 8.5 20.3 7.1.5-8.8.7-15.9.8-18.1-3.4-14.7-16.8-7.2-26.8.4 0 .4 0 .8.2 1.1z" id="XMLID_12086_"/>
      <path class="st34" d="M722.4 153.2l-9.6-2.1-33.7 8.1c-.5 1.8-.8 3.4-.9 4.9 2.4 2.8 4.6 5.7 6.9 8.5 3.5 4.3 7.1 8.6 10.9 12.7.7.7 1.5 1.4 2.2 2 .3.1.5.2.8.3.6.1 1.1.1 1.7 0 4.6-6 8.7-12.1 12.5-19 2.7-5.1 6.3-10.2 9.2-15.4z" id="XMLID_12085_"/>
      <path d="M723.3 161.5c2.3-.1 13.1-.4 13.1-.4l2 4.1s-10.7 1.3-15.1.8-16.2.4-18.2-.8 2.6-4.6 2.6-4.6 4.8 1.2 15.6.9z" fill="#5f5ff6" id="XMLID_12084_"/>
      <path class="st33" d="M724.7 161c-1.4 0-5.6-.1-6.5.1-1.3.4-.9 4.5-.2 5s4.7.2 6.3.1c1.2-.1 1.6-5.1.4-5.2z" id="XMLID_12083_"/>
      <path class="st21" d="M737.9 69.6c5.7-3.3 7.3-2.3 8.8.3 1.5 2.7 25.4 3.3 27.8 13.4 2.4 10.1 4.5 6.3-2.4 11.4s-25.2 4.4-33-5.2-1.2-19.9-1.2-19.9z" id="XMLID_12082_"/>
      <path class="st36" d="M767.7 49.9c-.2-4.6 2.9-7.8 5.1-9.3 2.2-1.5 5.4-7 8-6.5 2.5.4 4.4 2.2 2.3 4.4-2 2.3-5.5 11-5.8 12.5-.3 1.4-1 4.1-3.8 3.9-2.8-.2-5.6-1.5-5.8-5z" id="XMLID_12081_"/>
      <path class="st25" d="M673.9 73.9c-5.7 3.9-3.5-.7-7.3 12.1-3.4 11.5-6.7 28.2-8.5 34.6-1.8 6.3 4.6 15.1 11.7 13 7.2-2.1 9.7-23.5 11.1-32.8s7-28.4-7-26.9z" id="XMLID_12080_"/>
      <path class="st21" d="M673.9 73.9l-.9.6c2.4 5.4 2 11.3-.4 16.8-1.4 3.1-3.5 5.8-6 8-1.3 1.1-2.7 2.1-4.1 3.1-1.7 7.5-3.3 14.5-4.3 18.2-1.8 6.3 4.6 15.1 11.7 13 7.2-2.1 9.7-23.5 11.1-32.8 1.3-9.3 6.9-28.4-7.1-26.9z" id="XMLID_12079_"/>
      <path class="st36" d="M695.7 51.3c1.4 2 1 8.1.4 11.6s9.5 15.3 13.9 14c4.5-1.2 8.6-8.9 7.8-12.5s-1-4.8.4-6.4c1.4-1.7-3.3-7.6-3.3-7.6l-11.7-3.5-7.5 4.4z" id="XMLID_12078_"/>
      <path class="st37" d="M712.4 65.9c1.9-1.1 3.3-2.9 4.1-5.3.6-2 .5-4.3 1-6.3-1.1-1.9-2.6-3.8-2.6-3.8L703.2 47l-6 6.2c1.4 5.5 4.9 11 10.5 12.7 1.7.5 3.3.5 4.7 0z" id="XMLID_12077_"/>
      <path class="st36" d="M692.1 33.6c0 7.5 3 29.1 19.2 28.6 16.2-.6 13.4-27.6 9.5-32.5-3.8-4.8-28.7-12.6-28.7 3.9z" id="XMLID_12076_"/>
      <path class="st38" d="M700.6 31.7c4.5-.2 9-.7 13.5-.1 2.7.4 5.5.8 8.4 1.5-.5-1.5-1-2.7-1.6-3.4-3.8-4.7-27.8-12.2-28.7 3 2.7-.7 5.7-.9 8.4-1z" id="XMLID_12075_"/>
      <path class="st38" d="M721.9 49.4c-1 0-1.6-.5-2.5-1-1-.5-2.1-.8-3.4-1-.3.5-.9.7-1.4.7-.8 0-1.7-.3-2.3-.8-.7.1-1.4.1-2 .3-1.9.4-2.9 1.5-4.5 2.6-3.2 2.4-2.9-4.5-6.1-7.4-1.8-1.6-1.4-6.9-.8-8.9.8-2.5-1-.6-1.1-3.3-1.6-1.2-1.2-4-.6-5.9-3 1.4-5 4.1-5 8.8 0 7.5 2.5 29 19.2 28.6 10.4-.3 11.8-8 12.4-16-.6 1.2-.4 3.3-1.9 3.3z" id="XMLID_12074_"/>
      <path class="st37" d="M697.2 42.3c-.2-1.4 0-2.8.2-4.1.5-2.6 5.7-5.2 5.1-10.7-1.6-1.2-6-.8-5.4-2.7-3 1.4-5 4.1-5 8.8 0 1.9.2 4.7.7 7.8 1.1.6 3.2 1 4.4.9z" id="XMLID_12073_"/>
      <path class="st21" d="M692.1 34.1c-2.8-10.8-.9-14.9 10.2-17.9 15.1-3.9 17.9 1.2 19.3 10.1s-4 0-4 0-21.8 3.5-25.5 7.8z" id="XMLID_12072_"/>
      <path class="st16" d="M715.2 20.4c-.4-1.2-1.6-2.2-3.3-2.2-2 0-4.8 2.3-3.8 4.5.8 1.6 3.5 1.7 5 1.3 2-.7 2.5-2.2 2.1-3.6z" id="XMLID_12071_"/>
      <path class="st36" d="M696.4 40c-2.6-4.6-7.7-1.8-6.8 2.3s4.1 8.3 7.3 6.7c3.2-1.7-.5-9-.5-9z" id="XMLID_12070_"/>
      <path class="st22" d="M692.1 34.1c4-4.6 25.8-15.8 36.6-12.1s-4.2 10.4-6.2 11c-1.6-3.4-8.5-4.4-12.1-4.3-3.7.2-14.8 3.2-18.3 5.4z" id="XMLID_12069_"/>
      <g id="XMLID_12063_">
        <ellipse class="st39" cx="708.5" cy="41.4" rx="1.1" ry="1.1" id="XMLID_12068_"/>
        <ellipse class="st39" cx="718.6" cy="41.4" rx="1.1" ry="1.1" id="XMLID_12067_"/>
        <g id="XMLID_12066_">
          <path id="XMLID_11744_" class="st22" d="M702.8 38.1c-.3-.1-.4-.3-.4-.5.6-1.7 1.8-3.1 3.2-3.7 1.2-.5 2.4-.4 3.5.1.2.1.3.4.2.6-.1.2-.4.3-.6.2-.9-.5-1.9-.5-2.8-.1-1.2.5-2.2 1.7-2.8 3.2 0 .1-.1.2-.3.2z"/>
        </g>
        <g id="XMLID_12065_">
          <path id="XMLID_11743_" class="st40" d="M713.6 48.6c-.7 0-1.5-.2-2-.7-.2-.2-.1-.4 0-.6.2-.2.4-.1.6 0 .4.5 1.4.6 2.2.3.3-.1.8-.4.9-1 0-.4-.2-.9-.5-1.3-.1-.1-.2-.3-.3-.4-.2-.4-.4-1.8-.6-3.8-.1-.8-.2-1.7-.2-1.9-.1-.2.1-.4.3-.5s.4.1.5.3c.1.3.1 1 .2 2.1.1 1.2.3 3.2.5 3.5.1.1.2.3.2.4.3.5.6 1.1.6 1.8 0 .8-.6 1.4-1.4 1.7-.2 0-.6.1-1 .1z"/>
        </g>
        <g id="XMLID_12064_">
          <path id="XMLID_11741_" class="st22" d="M720.4 35.6c-.1 0-.2-.1-.3-.2-.7-.9-1.6-1.5-2.4-1.5-.7 0-1.4.4-2 1.3-.1.2-.4.2-.6.1-.2-.1-.2-.4-.1-.6.9-1.3 1.9-1.6 2.6-1.6 1.1 0 2.2.6 3.1 1.8.1.2.1.4-.1.6 0 .1-.1.1-.2.1z"/>
        </g>
      </g>
      <path class="st25" d="M696 62.2c-.2 3.4 7.2 12.5 14 12.5s7.5-11.7 7.5-11.7c.4-2.6 16.1 3.4 16.1 3.4s6.9 6.4 6.1 27.4c-.7 21-2.9 51.3 2.8 62.8.1 3.3-2 2.8-4.2 4.1s-6.4-3.1-10.6-1.8c-4.2 1.3-10.7.5-11.2 1.1s-12.2 18.1-14.5 24.3c-1.8 3.3-5-1.2-11.2-6.4s-14-14.2-15-18.6c-1-4.4 8.8-29.8 3.7-58.1-5-28.3-2.9-27.5 3-31.5 6-4.1 13.5-7.5 13.5-7.5z" id="XMLID_12062_"/>
      <path class="st21" d="M729.4 138.6c-6.9-.9-13.3-5.1-19.1-8.6-6.6-4-13-8.3-19.4-12.6-3.1-2-6.2-3.9-9.2-6l-.9-.6c.8 11.4-.4 22-1.9 30.4 3.3-.3 6.8-.5 9.2 1.7 2.3 2 4 5.1 5.9 7.6 2.3 3 4.7 6 7 9 1.1 1.4 2.1 1.3 3.8.9 1.6-.3 3.1-.9 4.7-1.2 2.6-.5 4.7-.3 7.3.2.4.1.9.2 1.4.3 2.3-.1 6.5 0 9.5-.9 4.2-1.3 8.5 3.1 10.6 1.8 2.2-1.3 4.3-.8 4.2-4.1-1.9-3.9-3-10-3.5-17.1-3.2-.1-6.4-.4-9.6-.8z" id="XMLID_12061_"/>
      <path class="st21" d="M702.8 82.7c.8-2.2 4-5.3 6.4-5.7 3.4-.6 3.7.3 5 2.4.3.6.3.8.5 1.1.6-.4 1.5-1.2 2-1.7 1.1-1 2.1-2.1 3-3.3 1.6-2.2 2.7-4.6 3.3-7.2.4-1.9.6-3.6.5-5.4-3.1-.8-5.8-1.2-6-.1 0 0-.7 11.7-7.5 11.7s-14.2-9-14-12.5c0 0-2.2 1-5.1 2.6.9 6.6 6.9 13.8 11.9 18.1z" id="XMLID_12060_"/>
      <path class="st21" d="M736.3 96.1c.9 3.5 1.9 6.9 2.9 10.3.2-4.4.4-8.7.5-12.7.7-21-6.1-27.4-6.1-27.4s-1.8-.7-4.1-1.5c2.5 10.4 4.1 21 6.8 31.3z" id="XMLID_12059_"/>
      <path class="st21" d="M680.8 111.2c.7-5.1 1.4-10.1 2.2-15.2.8-5.3 1.7-10.6 2.6-15.9.8-4.6 1.4-9.5 2.7-14.1-1.9 1.1-3.9 2.2-5.7 3.5-6 4-8.1 3.2-3 31.5.6 3.6.9 6.9 1.2 10.2z" id="XMLID_12058_"/>
      <path class="st41" d="M679.7 102.1c-1.9-11.1-5.1-21.4-6.4-27.4-.7-3.3 12.8-10.5 12.2-7.1-1 6.4-3.7 12.2-5.8 34.5z" id="XMLID_12057_"/>
      <path class="st41" d="M730.2 64.9c3-2.4 13.9-1.4 15.2 3.3s-4.5 27.6-5.2 34c-3.8-21.3-9.9-34.4-10-37.3z" id="XMLID_12056_"/>
      <path class="st33" d="M680.7 78.3c-3.1 3.2-5.9.3-7.3-3.4 1.3 6 4.5 16.2 6.4 27.3 1.9-21 4.4-27.3 5.6-33.3-1.1 3.2-2.3 6.9-4.7 9.4z" id="XMLID_12055_"/>
      <path class="st33" d="M739.5 72.6c-2.9-.3-6.6-2.4-8.8-5.2 1.6 5.3 6.3 17.3 9.3 34.7.6-5.4 4.9-23 5.4-30.9-1.8 1.1-3.8 1.7-5.9 1.4z" id="XMLID_12054_"/>
      <path class="st25" d="M666.9 134.3c-9.2-1.3-14.3-18.2-1.7-16.9 5 .3 6.6 2.5 10.2 3.1 3.6.6 8.6 6.5 4.6 9.2-4 2.7-6.4 5.5-13.1 4.6z" id="XMLID_12053_"/>
      <path class="st21" d="M679 127.6c-3.7 1.6-8.1 2.2-12 1.3-2.6-.6-7.8-2.7-9.3-5.8.1 4.6 4 10.4 9.2 11.2 6.6.9 9.1-1.9 13.1-4.6 1.2-.8 1.6-2 1.4-3.1-.8.3-1.6.6-2.4 1z" id="XMLID_12052_"/>
      <path class="st15" d="M696.6 60.7c-1.9-.2-5 2.2-5.8 4.1-.7 1.9 5.4 12.4 11.8 14.9.4.1 5.5-5.3 7.4-5.1-.2-.8-6.7-2.5-9.6-5.5-3-3-3.8-8.4-3.8-8.4z" id="XMLID_12051_"/>
      <path class="st15" d="M710 74.6c.5-2.2 7.5-8 7.5-11.7-.2-1.4-.3-2.2-.3-2.2 3.4-.3 5.6 1.2 6 2.3.4 1 2.3 5.5-7.9 14.8-1.3.5-3.2-3.4-5.3-3.2z" id="XMLID_12050_"/>
      <path class="st25" d="M777.3 51c-.9 3.2 6.3 28.9 4 34.2-2.3 5.2-7.2 10.8-15.2 9.7-8-1.1-.3-11-.9-21-.4-6.7.3-14 1.2-18.7.4-2.4.6-3.7 1-4.5.3-.7.6.2 1.3.9 1.5 1.4 4 1.7 5.6 1.4 2.6-.6 3-2 3-2z" id="XMLID_12049_"/>
      <path class="st21" d="M767.7 84.5c-1.2-1.1-2.2-2.5-3-4-1.5 7.4-4.7 13.5 1.5 14.4 7.5 1.1 12.2-3.8 14.7-8.7-3.7 3.1-9.5 1.7-13.2-1.7z" id="XMLID_12048_"/>
      <path class="st15" d="M766.2 56.2c-.7-2.1.5-7 1.2-7 .8 0 .7.2 1.1.9.4.8.7 2.5 4.7 2.5s3.4-1.5 4.1-1.6c.7-.1.6 4.6.4 5.2-.2.6-3.8 2.5-6.2 2.5-2.3 0-5-1.5-5.3-2.5z" id="XMLID_12047_"/>
      <path class="st38" d="M691.4 41.9c-.1-.8.6-1.6 1.4-1.6 1.2.1 2.6 1.1 3.3 3.6 1 3.8-3.8 5.3-4.7-2z" id="XMLID_12046_"/>
      <g id="XMLID_12043_">
        <g id="XMLID_12045_">
          <path id="XMLID_11740_" class="st40" d="M695.3 47.1c-.1 0-.3-.1-.4-.2-.1-.2-.1-.4.1-.6.6-.4.9-1.6.6-2.9-.2-1-1.3-3-3.5-2.8-.2 0-.4-.1-.5-.4 0-.2.1-.4.4-.5 2.6-.3 4.2 1.8 4.4 3.4.2 1.4 0 3.1-1 3.7.1.3 0 .3-.1.3z"/>
        </g>
        <g id="XMLID_12044_">
          <path id="XMLID_11739_" class="st40" d="M696.2 43.9h-.2c-.9-.4-2.5-1-3.1-.5-.2.1-.4.1-.6-.1-.1-.2-.1-.4.1-.6 1.3-.8 3.7.4 4 .5.2.1.3.4.2.6-.1 0-.3.1-.4.1z"/>
        </g>
      </g>
      <g id="XMLID_12042_">
        <path id="XMLID_11738_" class="st21" d="M710.9 87.2c-.3 0-.4-.2-.4-.4 0-.1.5-6.9-1-11.2-.1-.2 0-.5.3-.5.2-.1.5 0 .5.3 1.5 4.5 1 11.2 1 11.5 0 .1-.2.3-.4.3z"/>
      </g>
      <ellipse class="st21" cx="709" cy="80.1" rx="1" ry="1" id="XMLID_12041_"/>
      <ellipse class="st21" cx="709.2" cy="84" rx="1" ry="1" id="XMLID_12040_"/>
      <g id="XMLID_12039_">
        <path id="XMLID_11737_" class="st31" d="M710.4 53.9c-.2 0-.4-.2-.4-.4s.2-.4.4-.4c2.5-.1 4-.1 5-.2 1.3-.1 1.7-.1 2 0 .2.1.3.3.3.5-.1.2-.3.3-.5.3-.2-.1-.5-.1-1.8 0-1 .1-2.5.2-5 .2z"/>
      </g>
      <g id="XMLID_11638_">
        <g id="XMLID_12032_">
          <path class="st16" d="M710.3 129.7c-.1-16.8-2.4-33.4-3.3-50.2 0-.5-.9-.5-.8 0 .9 16.7 3.2 33.4 3.3 50.2 0 .5.8.5.8 0z" id="XMLID_11705_"/>
        </g>
        <g id="XMLID_12019_">
          <path class="st25" d="M705.2 160.3c3.9-9.8 5.1-20.2 5.1-30.7 0-.5-.8-.5-.8 0 0 10.4-1.2 20.8-5.1 30.4-.2.6.6.8.8.3z" id="XMLID_11704_"/>
        </g>
        <g id="XMLID_12012_">
          <path class="st16" d="M695.1 180.5c3-6.9 7.2-13.2 10.1-20.1.2-.5-.6-.7-.8-.2-2.9 6.9-7.1 13.1-10 19.9-.3.4.5.9.7.4z" id="XMLID_11703_"/>
        </g>
        <g id="XMLID_12005_">
          <path class="st16" d="M701.3 128.4c.3-8.2-.4-16.6-.8-24.8-.4-7.8-.8-15.7-1.1-23.5 0-.5-.8-.5-.8 0 .3 7.8.7 15.7 1.1 23.5.4 8.2 1.1 16.5.8 24.8-.1.5.7.5.8 0z" id="XMLID_11702_"/>
        </g>
        <g id="XMLID_11998_">
          <path class="st25" d="M695.9 154.6c2.8-8.5 4.9-17.2 5.3-26.2 0-.5-.8-.5-.8 0-.4 8.9-2.5 17.5-5.3 25.9-.1.6.7.8.8.3z" id="XMLID_11701_"/>
        </g>
        <g id="XMLID_11991_">
          <path class="st16" d="M689 175.2c2.5-6.8 4.6-13.8 6.9-20.6.2-.5-.6-.7-.8-.2-2.3 6.9-4.4 13.8-6.9 20.6-.2.5.6.7.8.2z" id="XMLID_11699_"/>
        </g>
        <g id="XMLID_11984_">
          <path class="st16" d="M692.9 126.1c.3-20-1.1-40.1-2.4-60 0-.5-.9-.5-.8 0 1.4 19.9 2.7 40 2.4 60-.1.5.8.5.8 0z" id="XMLID_11698_"/>
        </g>
        <g id="XMLID_11977_">
          <path class="st25" d="M689 143.7c2.4-5.9 3.7-11.3 3.8-17.6 0-.5-.8-.5-.8 0-.1 6.3-1.5 11.6-3.8 17.4-.2.5.6.7.8.2z" id="XMLID_11697_"/>
        </g>
        <g id="XMLID_11970_">
          <path class="st16" d="M682.8 167.7c1.1-8.1 3.2-16.4 6.3-24 .2-.5-.6-.7-.8-.2-3 7.6-5.1 15.9-6.3 24-.1.5.7.8.8.2z" id="XMLID_11696_"/>
        </g>
        <g id="XMLID_11963_">
          <path class="st16" d="M681.1 142c-1.3 6.5-2.1 13.2-3.4 19.7-.1.5.7.7.8.2 1.3-6.5 2.1-13.2 3.4-19.7.1-.5-.7-.7-.8-.2z" id="XMLID_11695_"/>
        </g>
        <g id="XMLID_11956_">
          <path class="st25" d="M684.5 122.4c-.3 6.6-2.1 13.1-3.4 19.5-.1.5.7.7.8.2 1.3-6.5 3.1-13.1 3.4-19.8 0-.4-.8-.4-.8.1z" id="XMLID_11694_"/>
        </g>
        <g id="XMLID_11949_">
          <path class="st16" d="M683.7 90.3c-.1 4.5-.2 8.9 0 13.4.2 6.2.9 12.5.8 18.7 0 .5.8.5.8 0 .1-6.2-.6-12.5-.8-18.7-.1-4.5-.1-8.9 0-13.4 0-.5-.8-.5-.8 0z" id="XMLID_11692_"/>
        </g>
        <g id="XMLID_11942_">
          <path class="st16" d="M716.4 130.9c-.5-8.4-.1-16.9 0-25.3 0-8.1.2-16.5-1.6-24.5-.1-.5-.9-.3-.8.2 1.9 8.1 1.6 16.7 1.6 25-.1 8.2-.5 16.4 0 24.6.1.5.9.5.8 0z" id="XMLID_11691_"/>
        </g>
        <g id="XMLID_11935_">
          <path class="st25" d="M717.6 158.7c1.6-4 1.3-8.1.7-12.3-.8-5.2-1.5-10.3-1.8-15.5 0-.5-.9-.5-.8 0 .3 4.4.7 8.8 1.4 13.1.8 4.9 1.6 9.8-.3 14.5-.2.5.6.7.8.2z" id="XMLID_11690_"/>
        </g>
        <g id="XMLID_11928_">
          <path class="st16" d="M721 74.2c2.7 17.4 2.2 35.1 4.2 52.6.1.5.9.5.8 0-2-17.5-1.5-35.3-4.2-52.8-.1-.6-.9-.3-.8.2z" id="XMLID_11689_"/>
        </g>
        <g id="XMLID_11921_">
          <path class="st16" d="M725.2 64.4c3.5 17.8 4 36 6.1 53.9.1.5.9.5.8 0-2.2-18-2.7-36.3-6.1-54.2-.1-.4-.9-.2-.8.3z" id="XMLID_11688_"/>
        </g>
        <g id="XMLID_11914_">
          <path class="st16" d="M730 72.8c1.9 7.3 2.8 14.6 3.7 22.1.9 7 1.7 14.1 3.6 20.9.1.5.9.3.8-.2-2-7.3-3-14.9-3.7-22.4-.7-6.9-1.8-13.8-3.6-20.6-.1-.5-.9-.3-.8.2z" id="XMLID_11687_"/>
        </g>
        <g id="XMLID_11907_">
          <path class="st25" d="M671.8 88.8c-2.9 9.1-5.9 18.3-8.8 27.4-.2.5.6.7.8.2 2.9-9.1 5.9-18.3 8.8-27.4.2-.5-.6-.7-.8-.2z" id="XMLID_11685_"/>
        </g>
        <g id="XMLID_11900_">
          <path class="st16" d="M674 81c-.8 2.6-1.4 5.2-2.2 7.8-.2.5.6.7.8.2.8-2.6 1.4-5.2 2.2-7.8.2-.5-.6-.7-.8-.2z" id="XMLID_11684_"/>
        </g>
        <g id="XMLID_11893_">
          <path class="st25" d="M676.3 90.7c-1.9 8.6-4.8 16.9-7.5 25.2-.2.5.6.7.8.2 2.7-8.4 5.6-16.7 7.5-25.2.1-.5-.7-.7-.8-.2z" id="XMLID_11683_"/>
        </g>
        <g id="XMLID_11883_">
          <path class="st25" d="M674.1 117c.8-2.2 1.9-4.2 3.1-6.2.3-.5-.4-.9-.7-.4-1.3 2-2.3 4.2-3.2 6.4-.2.5.6.7.8.2z" id="XMLID_11682_"/>
        </g>
        <g id="XMLID_11876_">
          <path class="st25" d="M660.6 126.8c.7 2.4 6.7 9.8 9.2 5.8.3-.5-.4-.9-.7-.4-1.2 2-4.2-.9-5.1-1.8-1.2-1.1-2.1-2.2-2.5-3.8-.2-.5-1-.3-.9.2z" id="XMLID_11681_"/>
        </g>
        <g id="XMLID_11869_">
          <path class="st16" d="M661.4 118.7c-1.5 2.2-1.3 5.6-.8 8.1.1.5.9.3.8-.2-.5-2.3-.6-5.5.7-7.5.3-.4-.4-.8-.7-.4z" id="XMLID_11680_"/>
        </g>
        <g id="XMLID_11862_">
          <path class="st16" d="M664.2 120.9c-.4 2.6-.1 7.7 3.5 7.9.5 0 .5-.8 0-.8-2.9-.2-3-4.9-2.7-6.9.1-.5-.7-.7-.8-.2z" id="XMLID_11678_"/>
        </g>
        <g id="XMLID_11855_">
          <path class="st25" d="M776.5 87.6c-1.8 2.8-4.4 4.9-7.4 6.3-.5.2-.1.9.4.7 3.2-1.4 5.8-3.7 7.7-6.5.3-.5-.4-.9-.7-.5z" id="XMLID_11677_"/>
        </g>
        <g id="XMLID_11848_">
          <path class="st16" d="M774.7 58.7c.6 4.7 1.2 9.4 1.7 14.1.3 2.4.4 4.8.6 7.2.1 2.4.7 5.5-.5 7.7-.3.5.4.9.7.4.9-1.5.8-3 .8-4.7-.1-2.9-.2-5.8-.5-8.7-.5-5.4-1.3-10.7-1.9-16-.1-.6-1-.6-.9 0z" id="XMLID_11676_"/>
        </g>
        <g id="XMLID_11841_">
          <path class="st16" d="M771.1 59.6c.9 4.9 1.6 9.8 1.8 14.8.1 2.5.2 5-.4 7.5-.7 2.8-2.4 4.8-4.3 6.9-.4.4.2 1 .6.6 1.6-1.7 3.2-3.5 4-5.7 1-2.4 1-5.1 1-7.7-.1-5.6-.9-11.1-1.9-16.6-.1-.6-.9-.4-.8.2z" id="XMLID_11675_"/>
        </g>
        <g id="XMLID_11834_">
          <path class="st16" d="M769.1 64.1c3 1.2 6.5-.3 9.2-1.6.5-.2.1-.9-.4-.7-2.5 1.2-5.8 2.5-8.6 1.5-.4-.2-.6.6-.2.8z" id="XMLID_11674_"/>
        </g>
        <g id="XMLID_11825_">
          <path class="st16" d="M770 69.2c3.1 0 6.7-.7 9.4-2.2.5-.3 0-1-.4-.7-2.5 1.4-6.1 2.1-9 2.1-.5 0-.5.8 0 .8z" id="XMLID_11673_"/>
        </g>
        <g id="XMLID_11805_">
          <path class="st16" d="M771.2 73.8c3.2.2 6.3-.3 9-2 .5-.3 0-1-.4-.7-2.6 1.6-5.6 2-8.6 1.8-.5 0-.5.8 0 .9z" id="XMLID_11671_"/>
        </g>
        <g id="XMLID_11798_">
          <path class="st16" d="M771.1 78.6c3.4.6 6.9 0 10-1.4.5-.2.1-.9-.4-.7-2.9 1.3-6.2 1.9-9.4 1.3-.5-.1-.7.7-.2.8z" id="XMLID_11670_"/>
        </g>
        <g id="XMLID_11791_">
          <path class="st16" d="M770.5 82.7c3.5 2.2 7.6 1.7 11.1-.3.5-.3 0-1-.4-.7-3.2 1.8-7 2.3-10.3.3-.5-.3-.9.4-.4.7z" id="XMLID_11669_"/>
        </g>
        <g id="XMLID_11784_">
          <path class="st25" d="M768.3 84.8c.7 1.7 1.1 3.3 2.8 4.2 2 1.1 4.1 1.4 6.4 1.4.5 0 .5-.8 0-.8-1.8 0-3.6-.3-5.3-1-1.9-.9-2.4-2.2-3.1-4-.2-.5-1-.3-.8.2z" id="XMLID_11668_"/>
        </g>
        <g id="XMLID_11777_">
          <path class="st25" d="M673.4 86.5c.9.2 1.8.4 2.7.7.5.1.7-.7.2-.8-.9-.2-1.8-.4-2.7-.7-.5-.1-.7.7-.2.8z" id="XMLID_11667_"/>
        </g>
        <g id="XMLID_11770_">
          <path class="st16" d="M667.5 85.4c2-.1 3.9.6 5.9 1.1.5.1.7-.7.2-.8-2-.5-4-1.3-6.1-1.1-.5 0-.5.8 0 .8z" id="XMLID_11666_"/>
        </g>
        <g id="XMLID_11763_">
          <path class="st25" d="M670.2 91.2c2.3.5 4.5 1 6.6 1.8.5.2.7-.6.2-.8-2.2-.8-4.4-1.3-6.6-1.8-.5-.1-.7.7-.2.8z" id="XMLID_11664_"/>
        </g>
        <g id="XMLID_11756_">
          <path class="st16" d="M665.8 90.7c1.4.2 2.9.2 4.4.5.5.1.7-.7.2-.8-1.4-.3-2.9-.2-4.4-.5-.5-.1-.7.7-.2.8z" id="XMLID_11663_"/>
        </g>
        <g id="XMLID_11749_">
          <path class="st25" d="M661.9 108.7c5.7-1 10.7 1 15.2 4.5.4.3 1-.3.6-.6-4.7-3.7-9.9-5.7-16-4.7-.5.1-.3.9.2.8z" id="XMLID_11662_"/>
        </g>
        <g id="XMLID_11742_">
          <path class="st25" d="M660.4 113.5c5.5-1 10.7 1.5 15.7 3.6.5.2.7-.6.2-.8-5.1-2.2-10.4-4.6-16.1-3.6-.5.1-.3.9.2.8z" id="XMLID_11661_"/>
        </g>
        <g id="XMLID_11735_">
          <path class="st16" d="M659.6 120.8c2.2-.4 4.4-.6 6.6-.6.5 0 .5-.8 0-.8-2.3 0-4.6.2-6.8.6-.6.1-.4.9.2.8z" id="XMLID_11660_"/>
        </g>
        <g id="XMLID_11728_">
          <path class="st16" d="M658.9 124.8c2.1-.6 4.2-1.3 6.4-1.9.5-.2.3-1-.2-.8-2.1.6-4.2 1.3-6.4 1.9-.5.1-.3.9.2.8z" id="XMLID_11659_"/>
        </g>
        <g id="XMLID_11721_">
          <path class="st16" d="M663.6 128c1-.5 1.9-1.1 2.8-1.7.4-.3 0-1-.4-.7-.9.6-1.9 1.2-2.8 1.7-.5.2-.1 1 .4.7z" id="XMLID_11657_"/>
        </g>
        <g id="XMLID_11714_">
          <path class="st25" d="M661.1 129.3c.9-.4 1.7-.8 2.6-1.3.5-.3 0-1-.4-.7-.8.5-1.7.9-2.6 1.3-.5.2-.1.9.4.7z" id="XMLID_11656_"/>
        </g>
        <g id="XMLID_11707_">
          <path class="st25" d="M665.5 132.5c.6-.7 1.1-1.4 1.7-2.1.3-.4-.3-1-.6-.6-.6.7-1.1 1.4-1.7 2.1-.4.5.2 1 .6.6z" id="XMLID_11655_"/>
        </g>
        <g id="XMLID_11700_">
          <path class="st16" d="M699.7 104.3c12.6-.6 25.1-2.4 37.7-3.4.5 0 .5-.9 0-.8-12.6 1-25.1 2.9-37.7 3.4-.5 0-.5.8 0 .8z" id="XMLID_11654_"/>
        </g>
        <g id="XMLID_11693_">
          <path class="st16" d="M681.2 96.5c13.8 1.2 28 .5 41.7-1.8.5-.1.3-.9-.2-.8-13.6 2.3-27.7 3-41.5 1.8-.6-.1-.6.7 0 .8z" id="XMLID_11653_"/>
        </g>
        <g id="XMLID_11686_">
          <path class="st16" d="M685 88.2c15.9 1.6 32.8 1.9 47.8-4.4.5-.2.3-1-.2-.8-15 6.3-31.7 6-47.6 4.4-.5 0-.5.8 0 .8z" id="XMLID_11652_"/>
        </g>
        <g id="XMLID_11679_">
          <path class="st25" d="M681.7 129.1c8.3 5.6 17.9 8.7 27.9 9.2.5 0 .5-.8 0-.8-9.8-.5-19.3-3.6-27.4-9.1-.5-.3-.9.4-.5.7z" id="XMLID_11650_"/>
        </g>
        <g id="XMLID_11672_">
          <path class="st25" d="M680.4 134.5c6.2 4.7 12.9 8.9 20.4 11.1 8 2.3 15.6.7 23.7-.3.5-.1.5-.9 0-.8-8 .9-15.6 2.6-23.5.3-7.5-2.1-14.1-6.3-20.2-11-.4-.3-.8.4-.4.7z" id="XMLID_11649_"/>
        </g>
        <g id="XMLID_11665_">
          <path class="st25" d="M695.2 155.5c4.8.8 10.1.6 14.9-.1 5.5-.8 10.5-3.7 16.2-3.5.5 0 .5-.8 0-.8-4.8-.2-9.1 1.9-13.6 3-5.3 1.2-11.8 1.5-17.2.6-.6 0-.8.7-.3.8z" id="XMLID_11648_"/>
        </g>
        <g id="XMLID_11658_">
          <path class="st16" d="M678.5 144.3c2.2 2.7 5 4.7 7.8 6.6 2.8 1.9 5.5 3.8 8.9 4.6.5.1.7-.7.2-.8-3.2-.7-6-2.6-8.7-4.5-2.8-1.9-5.5-3.9-7.7-6.5-.3-.4-.9.2-.5.6z" id="XMLID_11647_"/>
        </g>
        <g id="XMLID_11651_">
          <path class="st16" d="M711.6 165.6c-6.4.5-12.7-1.5-18.3-4.5-5.5-2.9-11.2-7.2-15-12.2-.3-.4-1 0-.7.4 3.8 5.1 9.6 9.5 15.3 12.5s12.2 5.1 18.7 4.6c.6 0 .6-.8 0-.8z" id="XMLID_11646_"/>
        </g>
        <g id="XMLID_11644_">
          <path class="st16" d="M676.4 154.4c4.8 5 10 9.5 15.4 14 4.1 3.4 7.9 6.8 12.8 9 .5.2.9-.5.4-.7-5.1-2.3-9.1-6-13.3-9.5-5.1-4.2-10.1-8.6-14.7-13.4-.4-.4-1 .2-.6.6z" id="XMLID_14517_"/>
        </g>
        <g id="XMLID_11643_">
          <path id="XMLID_11736_" class="st16" d="M694 80.7c-2.5 0-5.3-.1-7.3-.6-.2-.1-.4-.3-.3-.5.1-.2.3-.4.5-.3 3.9.9 11.9.4 11.9.4.3 0 .4.2.4.4s-.2.4-.4.4c0 0-2.2.2-4.8.2z"/>
        </g>
        <g id="XMLID_11642_">
          <path id="XMLID_11734_" class="st16" d="M720.1 77.2c-.2 0-.4-.2-.4-.4s.2-.4.4-.4c2.8 0 10.7-1.9 10.8-2 .2-.1.4.1.5.3.1.2-.1.4-.3.5-.4.1-8.2 2-11 2z"/>
        </g>
        <g id="XMLID_11641_">
          <path id="XMLID_11733_" class="st16" d="M729 67.2c-2-.6-4.7-1.5-4.7-1.5l.3-.8s2.7.9 4.6 1.5c.2.1.3.3.3.5-.1.2-.3.3-.5.3z"/>
        </g>
        <g id="XMLID_11640_">
          <path id="XMLID_11732_" class="st16" d="M687.5 69.6c-.1 0-.3-.1-.4-.2-.1-.2 0-.5.2-.6 1.3-.7 3.1-1.1 3.2-1.1.2 0 .4.1.5.3 0 .2-.1.4-.3.5 0 0-1.8.3-3 1-.1.1-.1.1-.2.1z"/>
        </g>
        <g id="XMLID_11639_">
          <path id="XMLID_11731_" class="st25" d="M722.1 159.5c-.2 0-.3-.1-.4-.2-.1-.2 0-.5.2-.5 1.8-.8 5.7-2.5 3.5-13.1-1.1-5.6-.8-8.2-.5-11 .2-1.8.4-3.6.2-6.5 0-.2.2-.4.4-.4s.4.2.4.4c.2 2.9 0 4.8-.2 6.6-.3 2.7-.6 5.2.5 10.7 2 10-1.1 12.8-4 14.1.1-.1 0-.1-.1-.1z"/>
        </g>
      </g>
      <g id="XMLID_11633_">
        <path class="st36" d="M674.1 119.3c.1-1.1 3.7-3.4 6.3-3.4s3.2.7 3.2 1.4c0 .8-2.6 1.9-3.7 2.6-1 .7-2.5.5-3.1.6-.5.2-2.7-1.2-2.7-1.2z" id="XMLID_11637_"/>
        <path class="st42" d="M686.8 123.2c-.2-2.8-2.3-3.7-3.5-4.2-1-.5-2.2-.4-3.1 0-1 .6-2.1.8-3.4.6-.3 0-.3-.4-.1-.5.8-.3 1.4-1.1 1.9-1.7l.1-.1c-1.7-1.6-4.4 1.2-5.5 2.3 0 0-1-.2-2.2.3-1.2.6-.7 4.3-.7 4.3s-.6 8.9 10.2 5c10.8-4 6.6-3.2 6.3-6z" id="XMLID_11636_"/>
        <path class="st15" d="M670 118.5c2.1-.5 3.2 1.2 3.2 1.2s-2.4 3.1-.5 6.9c1.9 3.8 7.8 2.2 8.1 2.8.3.6-2.5 2.4-4.3 2.7-1.8.4-6.8 1.4-8.5-4.4-1.6-5.9 1.5-9.1 2-9.2z" id="XMLID_11635_"/>
        <path class="st16" d="M680.9 129.3c-.3-.5-4.5.5-7-1.4-.4.2-.7.4-.9.5-.8.4-2.9.9-4.3.6 2.1 4.1 6.3 3.3 8 2.9 1.8-.2 4.6-2 4.2-2.6z" id="XMLID_11634_"/>
      </g>
      <g id="XMLID_11595_">
        <g id="XMLID_11600_">
          <path class="st26" d="M738.2 84c1.1-1.5-1.8-26.1.2-28.9 2-2.8-.8-1.1 1.3 22.7 2 23.8 7.9 54.3 7.9 54.3-1.2-1.9-9.4-48.1-9.4-48.1z" id="XMLID_11632_"/>
          <g id="XMLID_11616_">
            <path class="st27" d="M646.7 95.6c8.1-6.2 26.2-2.2 27.3-1.9 16.8 4.8 46 53 44.9 57-1 3.5-13.8 2.8-17.4 4.8-3.6 2-5-13-16.2-32.7s-41.4-25.1-38.6-27.2z" id="XMLID_11631_"/>
            <path class="st43" d="M692.8 120.9c-.1-.7-.1-1.3-.1-2-.5-1.1-.5-2.7-.8-4l-.6-1.5c-.5 0-.9 0-1.4-.1-.5.2-1.1.3-1.7.1 0 .1 0 .2-.1.3-1.2 1.2-2.8 2.1-4.4 2.3-.1.1-.2.1-.3.2-.8.6-1.3.5-3.2-.1l1.5 1.8c1.3 1.5 2.4 3.2 3.4 4.9 1.4 2.5 2.7 4.9 3.8 7.3.2-1.5.9-2.8 2.2-3.6.2-.1.5 0 .6.2 0-.1.1-.3.1-.4-.1-1.9.1-3.9 1-5.4z" id="XMLID_11630_"/>
            <g id="XMLID_11629_">
              <path id="XMLID_11730_" class="st43" d="M686.6 116.7c-1 0-4.6-.2-7.1-2.6-.2-.2-.2-.4 0-.6s.4-.2.6 0c2.7 2.6 6.8 2.4 6.8 2.4.2 0 .4.2.4.4s-.2.4-.4.4h-.3z"/>
            </g>
            <g id="XMLID_11628_">
              <path id="XMLID_11729_" class="st43" d="M693.7 134.9c-.1 0-.3-.1-.4-.2-2.9-5.2-2.5-16.2-2.5-16.7 0-.2.2-.4.4-.4s.4.2.4.4c0 .1-.4 11.3 2.4 16.3.1.2 0 .5-.2.6h-.1z"/>
            </g>
            <path class="st26" d="M698.9 103.3c-3.1-1.8-22.7-8.6-25-9.6 14 4.4 42.4 49.5 44.9 57 1.6 2.4 15.1 16.6 19.6 17.3-1.2-7.1-36.1-62.7-39.5-64.7z" id="XMLID_11627_"/>
            <path class="st27" d="M720.5 104.4c2.8-4.4.9-14.3 1.9-14.8 1-.6 19.5 51.7 23 58.2 1.4 5.3 4.3 11.6 6.8 18.9-5.1-3.6-22.2-32-22.2-32l-9.5-30.3z" id="XMLID_11626_"/>
            <path class="st26" d="M760.5 105.1c2.2 2 11.5 8.4 14.2 8.8s-9.6-58.2-.4-74.5c9.3-16.2 8.6-15.1 15-17.3 2.1-.6-10.5.4-19.8-13.2C764.2 25 756.6 48 756.6 48s-3.8 22.7-2.9 35.7c.8 12.9 6.8 21.4 6.8 21.4z" id="XMLID_11625_"/>
            <path class="st43" d="M773.6 23.6c-1.1.3-2.2.6-3.3.8-.3.1-.6.2-1 .3 0 2.3-.5 5.6-2.1 7.3 1.1 1.9 2.1 3.7 2.4 6 .1.5.1 1 .2 1.5 1.4 2.1 2.9 4 2.9 4l.5-1.4c.4-1 .8-1.9 1.2-2.7 2-3.4 3.5-6.1 4.7-8.2-2-3.8-3.6-6.5-5.5-7.6z" id="XMLID_11624_"/>
            <g id="XMLID_11623_">
              <path id="XMLID_11727_" class="st43" d="M769.3 49.6c-.3 0-.4-.2-.4-.5.4-4.4 1-14.6 0-17.7-.1-.2 0-.4.3-.5.2-.1.5 0 .5.3 1.1 3.5.4 14.5 0 18.1 0 .1-.2.3-.4.3z"/>
            </g>
            <g id="XMLID_11622_">
              <path id="XMLID_11726_" class="st43" d="M771.5 25.2c-.1 0-.3-.1-.4-.2-.1-.2 0-.5.2-.6.3-.2 6.8-3.7 12.2-2.6.2 0 .4.3.3.5 0 .2-.3.4-.5.3-5.1-1-11.6 2.5-11.6 2.5-.1.1-.1.1-.2.1z"/>
            </g>
            <g id="XMLID_11621_">
              <path id="XMLID_11725_" class="st43" d="M774.5 25.8c-.2 0-.3-.1-.4-.3-.1-.2 0-.5.2-.5.2-.1 4.6-1.7 6.8.1.2.1.2.4.1.6-.1.2-.4.2-.6.1-1.9-1.5-6 0-6 .1 0-.1-.1-.1-.1-.1z"/>
            </g>
            <path class="st28" d="M698.9 103.3c3.6-.7 9.1 4.4 21.6 1.1 1.5-.8 30.7 60.2 31.7 62.2 1.1 2-10.6 2.9-13.8 1.4-3.1-1.5-39.5-64.7-39.5-64.7z" id="XMLID_11620_"/>
            <path class="st28" d="M753.6 31.3c3.9-4 8.1 2.6 15.8-22.4 1.5-5.1-2.5 15-9.9 39.1-7.4 24-1.9 42.6.5 54.9 2.3 12.3-1.1 21.9-4 23.1s-6.4-14.2-6.4-14.2l-.9-61.4 4.9-19.1z" id="XMLID_11619_"/>
            <path class="st26" d="M738.4 55.1c2.8-6 6.6-3.4 15.2-23.8 3.3 6.4-2.5 11-3 34.7s3.5 49 4.3 52.9c.9 3.9 2.4 5.9 1.1 7-1.3 1-3 .2-8.4 5.2-4.7-1.4-8.3-48.2-8.3-48.2l-.9-27.8z" id="XMLID_11618_"/>
            <path class="st28" d="M745.4 147.7c1.4.7 3.9-.2 5.6-1.7 1.8-1.6-8.7-37.7-11.3-61.3-.4-2.2-3.2 1.1-9.5 3s-8.1-.2-7.8 1.8c3.2 20.2 23 58.2 23 58.2z" id="XMLID_11617_"/>
          </g>
          <path class="st42" d="M783.5 35.4c-1-1.8-1.7-1.5-1.7-2.1-1.4-6-5.8-9.3-10.2-9.5-.3.1-.5.2-.6.4-1.4-.2-.5 2.1.3 3.4.1.1.1.2.2.3-.3-.2-.6-.5-.8-.6-1.9-1.3-1.6.1-.7 2.4.3.8.9 1.8 1.6 2.9-.8-.8-1.5-1.4-2-1.8-1.6-1.1-1.4.1-.6 2 .8 2 3.5 5.4 5.2 6.6 0 0 .2 2.9 1.3 2.4.8-.4 1.3-.8 1.6-1.6.1 0 .2 0 .4-.1.7-.4 1.2-.7 1.6-1.3.1 0 .1 0 .2-.1 1-.5 1.7-1 2.1-2 .4.3.8.4 1.1.5 1.3.2 2-.1 1-1.8z" id="XMLID_11615_"/>
          <path class="st42" d="M681.2 118.7c1.8-.7 1.3.1 4.1-1.9 1.1-.8 2.7-3.2 4.1-3.5 1.4-.3 1.2 1.3 1.2 1.3.3-.3 2.2.4 1.2 2.1-.4.7-.6 1.3-.6 1.3.7-.7 2.1.4 1.1 1.5-.5.6-1.1 1.4-1.1 1.4.6-.8 1.8.2.9 1.6-1 1.4-3 2.6-4.6 3.6s-8.3 5.4-9.7.4c-1.6-6.2 3.4-7.8 3.4-7.8z" id="XMLID_11614_"/>
          <path class="st36" d="M691.3 120.9s.6-.8 1.1-1.4c1-1.2-.4-2.2-1.1-1.5 0 0 .2-.6.6-1.3 1-1.7-.9-2.4-1.2-2.1 0 0 .2-1.6-1.2-1.3h-.1c.4 3-1.9 8.1-2.6 9.5-.6 1.3-1.7 3.3-3 5.3 1.7-.7 3.2-1.7 3.9-2.1 1.6-.9 3.7-2.2 4.6-3.6.9-1.3-.4-2.2-1-1.5z" id="XMLID_11613_"/>
          <g id="XMLID_11612_">
            <path id="XMLID_11724_" class="st2" d="M734.9 164.2c-.8-1.6-4.5-7.5-9.2-15-9.3-14.9-22-35.3-24.7-41.4l.8-.3c2.6 6.1 15.4 26.4 24.6 41.3 4.7 7.5 8.4 13.4 9.2 15l-.7.4z"/>
          </g>
          <g id="XMLID_11611_">
            <path id="XMLID_11723_" class="st2" d="M738.1 138.6c-.1-.3-12.9-25.6-14.4-28.4l.7-.4c1.5 2.8 14.3 28.1 14.4 28.4l-.7.4z"/>
          </g>
          <g id="XMLID_11610_">
            <path id="XMLID_11722_" class="st43" d="M713.2 105.6c-3.4 0-8-.5-14.4-1.9-2.9-1.3-7.2-3-7.2-3-.2-.1-.3-.3-.2-.5s.3-.3.5-.2c0 0 4.3 1.7 7.2 3 12.6 2.9 18.2 1.7 21.2 1.1 1.6-2.3 1.5-7.5 1.5-11-.1-3.2-.1-4.5.7-4.6h.9c2.2.1 7.2.5 15.1-4.6-.4-5.7-.7-27.8-.7-28s.2-.4.4-.4.4.2.4.4.3 22.9.7 28.2c0 .2-.1.3-.2.4-8.2 5.3-13.7 5-15.8 4.9h-.7c-.2.4-.1 2.2-.1 3.8.1 3.9.2 9.3-1.7 11.7-.1.1-.1.1-.2.1-1.6.1-3.8.6-7.4.6z"/>
          </g>
          <g id="XMLID_11609_">
            <path id="XMLID_11720_" class="st2" d="M746.2 121.9c0-.2-3.6-17.1-5.5-25.2l.8-.2c1.9 8.1 5.5 25.1 5.5 25.3l-.8.1z"/>
          </g>
          <g id="XMLID_11608_">
            <path id="XMLID_11719_" class="st2" d="M750.3 77.9c-.1-2.3-.1-11.8 0-14.2h.8c-.1 2.4-.1 11.8 0 14.1l-.8.1z"/>
          </g>
          <g id="XMLID_11607_">
            <path id="XMLID_11718_" class="st28" d="M646.7 96c-.2 0-.3-.1-.4-.2-.1-.2 0-.5.2-.6 3.7-1.8 10.7-5.3 28.6-1.7.2 0 .4.3.3.5 0 .2-.3.4-.5.3-16.2-3.2-23-.9-28 1.6-.1.1-.2.1-.2.1z"/>
          </g>
          <g id="XMLID_11606_">
            <path id="XMLID_11717_" class="st36" d="M682.4 121.5c-.2 0-.3-.1-.4-.3-.1-.2 0-.5.3-.5 4.1-1.4 6.8-3.4 7.9-5.8.1-.2.3-.3.5-.2.2.1.3.3.2.5-1.2 2.6-4 4.7-8.4 6.2 0 .1 0 .1-.1.1z"/>
          </g>
          <g id="XMLID_11605_">
            <path id="XMLID_11716_" class="st36" d="M684.5 123.5c-.2 0-.4-.2-.4-.4s.2-.4.4-.4c1.4-.1 4.2-1.9 6.2-4.7.1-.2.4-.2.6-.1.2.1.2.4.1.6-2 2.7-4.9 4.9-6.9 5z"/>
          </g>
          <g id="XMLID_11604_">
            <path id="XMLID_11715_" class="st36" d="M686.1 125.5c-.2 0-.3-.1-.4-.3-.1-.2 0-.5.2-.5 0 0 4-1.5 5-3.9.1-.2.3-.3.5-.2.2.1.3.3.2.5-1.1 2.7-5.3 4.3-5.5 4.4.1 0 0 0 0 0z"/>
          </g>
          <g id="XMLID_11603_">
            <path id="XMLID_11713_" class="st36" d="M776.8 37.6c-.1 0-.2 0-.3-.1-.6-.7-3.8-3.8-5.1-4.6-.2-.1-.2-.4-.1-.6.1-.2.4-.2.6-.1 1.3.9 4.5 4 5.2 4.7.1.2.1.4 0 .6-.1.1-.2.1-.3.1z"/>
          </g>
          <g id="XMLID_11602_">
            <path id="XMLID_11712_" class="st36" d="M778.4 35.7c-.2 0-.3-.1-.4-.3-.4-1-4.7-5.7-6.8-7.2-.2-.1-.2-.4-.1-.6.1-.2.4-.2.6-.1 2.2 1.5 6.6 6.3 7.1 7.5.1.2 0 .5-.2.5-.1.1-.1.2-.2.2z"/>
          </g>
          <g id="XMLID_11601_">
            <path id="XMLID_11711_" class="st36" d="M780.2 34.1c-.2 0-.3-.1-.4-.3-1.4-3.3-4.7-7.4-8.5-9.1-.2-.1-.3-.3-.2-.5s.3-.3.5-.2c3.9 1.7 7.4 6.1 8.9 9.5.1.2 0 .5-.3.6.1 0 0 0 0 0z"/>
          </g>
        </g>
        <g id="XMLID_11597_">
          <path class="st27" d="M675.7 108.1l14.8 3.1 1.9 2-1.7 1c-4.2.5-15-6.1-15-6.1z" id="XMLID_11599_"/>
          <g id="XMLID_11598_">
            <path id="XMLID_11710_" class="st43" d="M691.3 114.7c-5.2-.1-16-6-16.5-6.3-.2-.1-.3-.4-.2-.6s.4-.3.6-.2c.1.1 11.1 6.1 16.1 6.2.2 0 .4.2.4.4 0 .3-.2.5-.4.5z"/>
          </g>
        </g>
      </g>
      <g id="XMLID_11594_">
        <path id="XMLID_11709_" class="st16" d="M668.6 82.4l-.7-.4c1.4-2.8 5.1-5.5 5.2-5.6l.5.7c-.1 0-3.7 2.7-5 5.3z"/>
      </g>
      <g id="XMLID_11593_">
        <path id="XMLID_11708_" class="st34" d="M717.6 180.4l-.8-.3c1.4-4.2 1.1-13.4 1.1-13.5h.8c.1.4.4 9.5-1.1 13.8z"/>
      </g>
      <g id="XMLID_11592_">
        <path id="XMLID_11706_" class="st34" d="M722.5 180.4l-.8-.3c1.4-4.2 1.1-13.4 1.1-13.5h.8c.1.4.4 9.5-1.1 13.8z"/>
      </g>
    </g>
  </g>
</svg>