<svg xmlns="http://www.w3.org/2000/svg" width="251" height="160" xmlns:v="https://vecta.io/nano"><path fill="#a4f58e32" d="M271.924 156.923c38.5-20.933 72.25-72.33 10.97-124.962C206.947-22.222 113.63 14.5 79.058 44.074c-61.033 52.3-57.1 148.276-14.086 174.614s132.09-21.06 206.952-61.765z" fill-rule="evenodd"/><g clip-path="url(#clip0)"><path fill="#287712" d="M101.295 118.2c-.314.256-.628 1.042-.85 2.067a30.25 30.25 0 0 0-.425 6.437l.167 14.687.424 31.513c.056 4.975 1.367 9.346 2.53 8.45l9.713-7.517c.998-.787 1.995-6.274 1.94-10.48l-.258-28.33-.37-23.356c0-1.92-.517-3.11-1.108-2.706l-11.763 9.236z"/><path d="M193.055 73.95l-.203 1.445c-.055.366-.258.677-.683.677-.314 0-.74-.3-.683-.677l.203-1.445c.055-.366.258-.677.683-.677.314 0 .74.3.683.677zm-3.715-.586l-.48 1.756c-.203.823-1.514.475-1.3-.366l.48-1.756c.203-.823 1.514-.457 1.3.366z" fill="#060213"/><g fill-rule="evenodd"><path fill="#41bf25" d="M213.304 77.926l11.032 21c.448.844 1.15 1.54 2.003 1.962l9.54 4.79c1.513.76 2.94-1.14 1.8-2.342l-24.366-25.398z"/><path fill="#bb7474" d="M198.565 59.53c1.747-.76 2.002-.2 4.558-.633 3.152-.696 4.047-1.772 6.56-.823 5.005 1.92 8.67 8.522 8.988 13.88.064 4.767-1.3 9.472-2.662 14.176 0 0 9.86 23.964 15.825 35.735-5.367 17.424-47.22 10.252-47.986 8.543-.256-.57 7.9-28.815 8.35-32.444l-.575.253c-5.73 1.14-12.61-3.375-13.163-9.303-1.086-7.067 2.343-13.353 5.176-19.407.958-2.49 2.513-5.2 4.58-6.814 1.49-1.33 4.558-.633 6.88-1.645.32-.823 3.472-1.52 3.472-1.52z"/><path fill="#774848" d="M191.278 98.156s12.615 0 17.332-7.307c0 0 1.804-.035 5.66-3.77l2.6-4.998 1.427.55-2.13 2.996 15.868 35.714s-9-6.518-24.132 1.477c-23.493 10.99-24.898 7.236-24.898 7.236l8.264-31.896z"/><path fill="#2e9418" d="M214.344 82.482S244.674 84.55 248.23 89c1.107.907 7.4 13.163 12.012 21.432.895 1.582-1 3.27-2.492 2.236l-43.407-30.187z"/><path fill="#58de3a" d="M183.8 69.003s13.497-2.65 32.357 15.25c0 0 19.814-17.9-6.603-27.323-16.528-4.388-24.157 7.938-25.754 12.072z"/><path fill="#bb7474" d="M206.725 80.282c3.06-5.942 17.254-5.686 7.544 6.797l-7.544-6.797z"/><path d="M186.704 84.57c.426-.2.915.02 1.107.464.362.823 1.853 1.75 3.79 1.37 3.77-.738 5.474-3.08 6.092-4.725a.8.8 0 0 1 1.086-.464c.426.2.66.675.5 1.118-.788 2.11-2.897 4.894-7.306 5.76-2.47.485-4.92-.59-5.708-2.405-.17-.443.022-.928.448-1.118z" fill="#774848"/></g><path fill="#774848" d="M197.37 76.386l-.32 2.215c-.085.55-.404 1.034-1.043 1.034-.5 0-1.13-.464-1.044-1.034l.32-2.215c.085-.55.404-1.034 1.043-1.034.47 0 1.108.485 1.044 1.034zm-3.9-.612l-.724 2.68c-.32 1.266-2.322.717-2.002-.55l.724-2.68c.32-1.266 2.322-.717 2.002.55z"/><path fill="#127715" d="M70.45 73.144c-1.736-.055-7.55 1.134-8.916 2.158-2.308 1.92-2.567 2.963-2.53 6.182l.314 18.326.794 31.97c.11 5.084 7.09 10.48 13.6 10.48l54.77.2c5.466 0 11.504-4.664 11.394-8.98l-.204-28.642-.94-23.72c-.056-1.975-2.79-3.585-6.04-3.585l-62.253-4.4z"/><path fill="#3c9e26" d="M71.526 73.07c-1.736-.055-3.416.42-4.783 1.445-2.308 1.92-2.567 2.963-2.53 6.182l.314 18.326.794 31.97c.11 5.084 7.09 10.48 13.6 10.48l54.79.2c5.466 0 11.505-4.664 11.394-8.98l-.203-28.64-.942-23.722c-.056-1.975-2.79-3.585-6.04-3.585L71.526 73.07z"/><path fill="#59d43d" d="M77.088 79.51c-1.422-.055-2.844.366-3.99 1.19-1.94 1.61-2.16 2.433-2.105 5.14l.26 15.254.628 25.788c.055 4.207 5.89 8.724 11.3 8.724l45.593.165c4.56 0 9.566-3.896 9.5-7.48l-.166-23.045-.794-19.716c-.055-1.664-2.308-2.963-5.04-2.963L77.088 79.51z"/><path fill="#29d989" d="M146.982 170.627s10.452-26.574 24.948-46.4c3.158-4.353 8.033-10.645 12.188-13.754 5.983-4.572 6.24-6.895 14.496-6.895 26.11 0 51.78 22.953 46.904 52.49-4.893 29.52-20.276 51.723-18.8 63.39s-83.578-.036-85.517-18.4V187.8s6.777 11.78 5.78-17.174z"/><path fill="#bb7474" d="M181.808 180.03c2.253-1.445 19.4-12.968 25.43-30.562 7.57-21.893-5.928-40.182-23.582-25.02-6.888 5.907-23.083 18.106-28.253 21.398-.998 1.92-9.732 11.925-11.837 12.4-5.78 1.243-18.393 3.11-35.456.512-13.13-1.92-18.706 4.645-18.706 4.645-6.408 4.756-6.666 13.827 0 13.37h.314c1.2-.1 12.077 1.756 13.185 2.286 7.663 3.42 28.992 15.107 44.08 13.242 17.118-2.122 23.692-3.53 34.292-11.888.166-.128.332-.238.535-.384z"/><path fill="#3bec9c" d="M184.115 110.437l-28.345 35.207s19.112 10.663 35.916 39.87c1.256 2.176-2.733-6.75-.997-8.56l36.342-42.45-42.916-24.07z"/><path fill="#247425" d="M212.032 225.875l17.396-1.646c16.582-1.573 30.377-17.266 30.635-34.86l.406-28.312c.296-20.43-15.234-35.665-34.476-33.836l-7.72.732c-19.242 1.8-35.252 20.027-35.548 40.456l-.406 28.312c-.24 17.576 13.13 30.708 29.712 29.154z"/><path fill="#32c132" d="M221.56 225.875l17.395-1.646c16.583-1.573 30.377-17.265 30.636-34.86l.406-28.33c.295-20.41-15.235-35.646-34.477-33.836l-7.72.732c-19.242 1.8-35.252 20.027-35.547 40.456l-.407 28.312c-.258 17.595 13.13 30.727 29.713 29.172z"/></g><g fill="#fff"><path d="M101.34 91.687c.045-.156.152-.284.294-.353a.53.53 0 0 1 .45-.008l2.717 1.208c.18.08.4.054.548-.07a.58.58 0 0 0 .216-.526.57.57 0 0 0-.331-.457l-3.28-1.457c-.288-.125-.614-.12-.898.015a1.14 1.14 0 0 0-.592.7l-1.25 4.314h1.15l.977-3.378zm-12.82 23.898h1.972l-1.972-2.044v2.044zm11.227-.335a1.17 1.17 0 0 0 .238-1.241 1.1 1.1 0 0 0-1.015-.704h-1.422l-2.2 2.28h3.622a1.07 1.07 0 0 0 .777-.335zm-2.427-3.085h1.1v-1.14c-.002-2.203-1.725-3.987-3.85-4h-11c-2.125.003-3.848 1.787-3.85 4v1.14h17.6zm-1.1-2.28a.56.56 0 0 1 .55.57.56.56 0 0 1-.55.57.56.56 0 0 1-.55-.57.56.56 0 0 1 .55-.57zm-1.65-1.7a.56.56 0 0 1 .55.57.56.56 0 0 1-.55.57.56.56 0 0 1-.55-.57.56.56 0 0 1 .55-.57zm-1.65 1.7a.56.56 0 0 1 .55.57.56.56 0 0 1-.55.57.56.56 0 0 1-.55-.57.56.56 0 0 1 .55-.57zm-1.65-1.7a.56.56 0 0 1 .55.57.56.56 0 0 1-.55.57.56.56 0 0 1-.55-.57.56.56 0 0 1 .55-.57zm-1.65 1.7a.56.56 0 0 1 .55.57.56.56 0 0 1-.55.57.56.56 0 0 1-.55-.57.56.56 0 0 1 .55-.57zm-6.05-.57c-.75.001-1.407.528-1.595 1.282-.063.252-.282.427-.532.427-.047 0-.093-.006-.138-.018-.14-.038-.262-.132-.336-.262a.59.59 0 0 1-.059-.432c.313-1.258 1.408-2.137 2.66-2.137a.56.56 0 0 1 .55.57.56.56 0 0 1-.55.57zm2.75 1.7a.56.56 0 0 1-.55-.57.56.56 0 0 1 .55-.57.56.56 0 0 1 .55.57.56.56 0 0 1-.55.57zm1.65-1.7a.56.56 0 0 1-.55-.57.56.56 0 0 1 .55-.57.56.56 0 0 1 .55.57.56.56 0 0 1-.55.57z"/><path d="M86.478 118.834a.53.53 0 0 0 .447.171.61.61 0 0 0 .495-.627v-5.073h-5.5v4.56a.58.58 0 0 0 .196.435c.124.1.3.157.45.126a.61.61 0 0 0 .454-.627v-1.074c.005-.942.74-1.705 1.65-1.7s1.65.766 1.65 1.7v1.7c-.002.15.055.294.158.4zm7.22-3.15l2.295-2.378h-6.145l2.295 2.378a1.1 1.1 0 0 0 1.555 0zm-1.595-12.638h15.385l.24-3.42H91.86l.24 3.42zm16.218-6.84H91.27a.56.56 0 0 0-.55.57v1.14a.56.56 0 0 0 .55.57h17.05a.56.56 0 0 0 .55-.57v-1.14a.56.56 0 0 0-.55-.57zm-27.5 17.1h-1.65c-.608 0-1.1.5-1.1 1.14s.492 1.14 1.1 1.14h1.65v-2.28zm11.484-7.4h2.266c2.733.003 4.947 2.298 4.95 5.13v1.22a2.23 2.23 0 0 1 1.572 1.602 2.33 2.33 0 0 1-.568 2.208c-.278.286-.625.5-1.005.588v.65h6.962l.924-13.1H92.183l.12 1.7zm7.216 13.1a4.06 4.06 0 0 1-1.16 2.85h7.288c.288-.002.526-.23.55-.528l.205-2.892H99.52v.57zm-1.1-2.28H94.2a2.11 2.11 0 0 1-2.558 0h-3.12v1.65c.012.902-.638 1.667-1.504 1.767-.047.004-.1.004-.14.004-.442.003-.866-.18-1.176-.506a1.7 1.7 0 0 1-.48-1.204v-1.7a.56.56 0 0 0-.55-.57c-.144-.001-.28.058-.382.164-.108.105-.17.252-.168.406v1.072c.013.853-.567 1.592-1.375 1.754a1.61 1.61 0 0 1-1.34-.38 1.74 1.74 0 0 1-.585-1.306v-1.14h-1.1v2.28c.002 1.573 1.232 2.848 2.75 2.85h13.2c1.518-.002 2.748-1.277 2.75-2.85v-2.28z"/></g><path stroke-opacity="NaN" d="M115 92.833h10M115 100h16m-16 4h15m-15 4h17m-17 4h18m-8 13h8" stroke-width="1.5" stroke="#fff" fill="none"/></svg>