<?xml version="1.0" encoding="UTF-8" standalone="no"?>
<svg
   xmlns:dc="http://purl.org/dc/elements/1.1/"
   xmlns:cc="http://creativecommons.org/ns#"
   xmlns:rdf="http://www.w3.org/1999/02/22-rdf-syntax-ns#"
   xmlns:svg="http://www.w3.org/2000/svg"
   xmlns="http://www.w3.org/2000/svg"
   viewBox="0 0 612.41333 605.17334"
   height="605.17334"
   width="612.41333"
   xml:space="preserve"
   id="svg2"
   version="1.1"><metadata
     id="metadata8"><rdf:RDF><cc:Work
         rdf:about=""><dc:format>image/svg+xml</dc:format><dc:type
           rdf:resource="http://purl.org/dc/dcmitype/StillImage" /></cc:Work></rdf:RDF></metadata><defs
     id="defs6" /><g
     transform="matrix(1.3333333,0,0,-1.3333333,0,605.17333)"
     id="g10"><g
       transform="scale(0.1)"
       id="g12"><path
         id="path14"
         style="fill:#f6f5fb;fill-opacity:1;fill-rule:nonzero;stroke:none"
         d="m 2420.56,414.91 c -378.97,0 -757.68,44.961 -1123.05,144.328 -263.04,71.532 -525.944,175.633 -721.885,365.133 -92.367,89.329 -165.949,195.919 -219.59,312.199 47.496,-43.37 99.406,-81.58 153.676,-113.64 58.184,-34.37 119.355,-62.37 182.496,-84.66 v -130.2 0 0 c 0,-55.679 38.922,-100.8 86.934,-100.8 h 755.489 v -253.918 0 c 0,-14.954 12.17,-27.114 27.12,-27.114 h 1268.69 c 14.96,0 27.12,12.16 27.12,27.114 v 3.66 c 29.93,-2.711 59.96,-4.063 89.99,-4.063 127.78,0 255.36,24.571 373.45,74.86 22.32,9.511 44.41,20.14 66.13,31.82 5.52,-13.09 15.33,-23.738 28.08,-30.359 8.81,-4.571 18.38,-6.891 28.02,-6.891 6.19,0 12.41,0.961 18.48,2.883 15.54,4.918 28.23,15.59 35.74,30.047 7.5,14.461 8.92,30.98 4,46.511 l -8.07,25.481 c 33.29,24.758 65.03,52.039 94.75,81.539 l 25.08,-13.012 c 8.82,-4.566 18.4,-6.887 28.05,-6.887 6.19,0 12.4,0.95 18.46,2.879 15.54,4.91 28.22,15.578 35.72,30.051 15.3,29.469 4.09,65.828 -24.94,81.649 12.97,17.378 25.26,35.269 36.77,53.609 67.54,18.601 132.87,43.301 194.98,74.701 11.88,-18.48 31.38,-31.92 54.77,-35.318 3.8,-0.551 7.59,-0.832 11.33,-0.832 38.35,0.011 72.01,28.22 77.67,67.26 l 9.56,65.76 c 51.32,2.78 100.72,15.32 147.11,37.32 l 39.74,-53.25 c 12.54,-16.81 30.89,-27.73 51.65,-30.75 3.82,-0.55 7.64,-0.83 11.44,-0.83 15.73,0 31.01,4.71 44.15,13.69 -16.19,-22.23 -33.15,-43.92 -50.88,-65.01 C 3969.6,638.262 3432.67,491.918 2923.66,440.59 2756.61,423.738 2588.59,414.898 2420.56,414.91 m 409.88,131.328 H 1561.75 c -3.92,0 -7.12,3.192 -7.12,7.114 V 807.27 h 490.09 v 0 h 215.85 v 0 h 24.33 c 69.3,-63.899 148.22,-116.692 232.1,-156.95 100.77,-48.379 209.71,-79.07 320.56,-91.308 v -5.66 c 0,-3.922 -3.19,-7.114 -7.12,-7.114 M 1696.48,662.961 c -5.52,0 -10,-4.473 -10,-10 0,-5.531 4.48,-10 10,-10 h 355.92 c 5.53,0 10,4.469 10,10 0,5.527 -4.47,10 -10,10 h -355.92 m 0,98.918 c -5.52,0 -10,-4.469 -10,-10 0,-5.52 4.48,-10 10,-10 h 527.76 c 5.53,0 10,4.48 10,10 0,5.531 -4.47,10 -10,10 H 1696.48 M 3443.24,642.391 c -6.48,0 -12.91,1.558 -18.82,4.629 -9.21,4.769 -16.12,12.679 -19.64,22.371 24.41,13.89 48.3,29.089 71.54,45.531 l 6.07,-19.141 c 3.3,-10.441 2.35,-21.543 -2.7,-31.261 -5.05,-9.719 -13.57,-16.879 -24.01,-20.192 -4.09,-1.297 -8.27,-1.937 -12.44,-1.937 m 198.03,166.558 c -6.49,0 -12.92,1.563 -18.84,4.629 l -19.62,10.184 c 19.46,20.277 37.97,41.527 55.34,63.648 l 2.04,-1.058 c 20.06,-10.422 27.91,-35.223 17.5,-55.274 -5.04,-9.719 -13.56,-16.887 -24,-20.199 -4.09,-1.289 -8.26,-1.93 -12.42,-1.93 m 327.06,206.741 c -2.79,0 -5.61,0.2 -8.44,0.61 -16.77,2.44 -30.87,11.81 -39.79,24.78 9.54,5.08 18.99,10.31 28.37,15.72 29.37,16.92 57.52,35.28 84.43,54.92 l -6.66,-45.91 c -4.23,-29.11 -29.32,-50.12 -57.91,-50.12 m 337.21,85.5 c -2.84,0 -5.71,0.2 -8.58,0.63 -15.48,2.24 -29.15,10.38 -38.5,22.91 l -49.7,66.59 -7.48,-3.74 c -37.34,-18.67 -76.83,-30.8 -117.79,-36.22 62.6,52.6 117.32,112.42 163.45,177.09 22.92,24.91 41.13,53.51 53.98,84.69 33.74,59.57 60.68,122.04 80.36,185.83 3.88,12.58 7.52,25.09 10.9,37.56 10.14,-32.15 15.83,-65.52 16.98,-99.75 l 0.27,-8.36 82.23,-11.95 c 21.95,-3.19 39.3,-18.25 46.51,-37.72 -6.9,-23.19 -14.45,-46.22 -22.61,-68.98 -9.37,-6.21 -20.54,-9.76 -32.31,-9.76 -2.78,0 -5.59,0.2 -8.42,0.6 l -82.22,11.95 -2.64,-7.93 c -17.18,-51.48 -44.66,-97.63 -81.67,-137.18 l -5.72,-6.11 49.69,-66.59 c 19.32,-25.86 13.98,-62.61 -11.88,-81.92 -10.22,-7.62 -22.33,-11.64 -34.85,-11.64 m 76.04,39.74 c 5.42,22.03 1.32,46.23 -13.27,65.78 l -39.74,53.25 c 34.28,38.2 60.35,82 77.63,130.42 l 65.76,-9.55 c 3.82,-0.56 7.62,-0.83 11.37,-0.83 7.72,0 15.25,1.15 22.41,3.3 -32.6,-85 -74.1,-166.46 -124.16,-242.37 m 164.32,364.89 c -12.03,15.94 -30.08,27.35 -51.36,30.44 l -65.77,9.56 c -2.35,43.38 -11.67,85.38 -27.78,125.35 2.73,11.53 5.24,23.03 7.54,34.5 l 36.17,27 c 34.71,25.89 41.88,75.2 15.98,109.9 -8.98,12.03 -20.78,20.76 -33.8,25.94 1.86,79.26 -6.62,159.1 -25.45,242.21 -41.1,181.47 -110.5,364.4 -88.94,553.48 0.44,3.9 0.92,7.8 1.45,11.69 146.56,-197.31 243.3,-431.49 270.96,-675.54 8.31,-73.32 10.22,-147.37 5.94,-221.07 -5.36,-92.39 -20.48,-184.26 -44.94,-273.46 m -132,228.82 c 6.37,37.51 10.44,74.82 12.21,112.2 7.17,-3.97 13.49,-9.46 18.53,-16.22 19.31,-25.87 13.97,-62.62 -11.9,-81.92 l -18.84,-14.06 M 3537,3846.23 c -6.98,2.38 -13.94,4.71 -20.94,7 -250.08,81.92 -507.01,144.21 -766.63,144.21 -39.09,0 -78.19,-1.41 -117.39,-4.38 -63.7,-4.82 -122.22,-8.11 -176.57,-9.97 -122.58,17.37 -244.74,26.71 -366.09,27.53 183.81,114.95 412.09,175.66 638.78,175.66 131.38,0 262.24,-20.4 383.56,-62.44 161.3,-55.89 308.41,-152.89 425.28,-277.61" /><path
         id="path16"
         style="fill:#f9f8fc;fill-opacity:1;fill-rule:nonzero;stroke:none"
         d="m 1973.92,4177.26 c -73.42,0 -132.93,59.52 -132.93,132.93 0,73.42 59.51,132.93 132.93,132.93 73.41,0 132.93,-59.51 132.93,-132.93 0,-73.41 -59.52,-132.93 -132.93,-132.93" /><path
         id="path18"
         style="fill:#f9f8fc;fill-opacity:1;fill-rule:nonzero;stroke:none"
         d="m 3770.15,4322.66 c -37.88,0 -68.59,30.72 -68.59,68.59 0,37.88 30.71,68.59 68.59,68.59 37.88,0 68.59,-30.71 68.59,-68.59 0,-37.87 -30.71,-68.59 -68.59,-68.59" /><path
         id="path20"
         style="fill:#f9f8fc;fill-opacity:1;fill-rule:nonzero;stroke:none"
         d="m 289.105,470.031 c -115.574,0 -209.2652,93.688 -209.2652,209.27 0,115.57 93.6912,209.269 209.2652,209.269 115.579,0 209.274,-93.699 209.274,-209.269 0,-115.582 -93.695,-209.27 -209.274,-209.27" /><path
         id="path22"
         style="fill:#f9fbfd;fill-opacity:1;fill-rule:nonzero;stroke:none"
         d="m 4346.01,3801.7 c -42.33,0 -84.94,21.64 -121.54,76.02 -72.93,108.37 -251.77,208.1 -192.11,324.3 35.51,69.19 129.02,98.73 223.42,98.73 64.14,0 128.71,-13.65 175.73,-37.79 116.2,-59.65 162.05,-202.21 102.39,-318.42 -38.19,-74.38 -112.6,-142.85 -187.89,-142.84" /><path
         id="path24"
         style="fill:#f5f3fa;fill-opacity:1;fill-rule:nonzero;stroke:none"
         d="m 4123.9,344.039 c -33.66,0 -67.73,9.379 -98.11,29 -84.08,54.27 -150.43,174.859 -27.51,240.949 73.26,39.403 147.51,135.032 218.76,135.032 14.48,0 28.83,-3.95 43.02,-13.11 84.08,-54.281 70.52,-224.859 16.24,-308.93 -34.66,-53.691 -92.91,-82.941 -152.4,-82.941" /><path
         id="path26"
         style="fill:#f5f3fa;fill-opacity:1;fill-rule:nonzero;stroke:none"
         d="m 293,4051.22 c -25.082,0.01 -48.527,7.84 -69.535,27.35 -92.473,85.88 -38.156,294.72 47.723,387.2 45.027,48.48 106.167,73.01 167.496,73.01 55.648,0 111.453,-20.21 155.441,-61.07 92.48,-85.87 148.391,-250.21 -18.789,-305.27 C 482.703,4141.92 378.328,4051.22 293,4051.22" /><path
         id="path28"
         style="fill:#f5f3fa;fill-opacity:1;fill-rule:nonzero;stroke:none"
         d="m 356.035,1236.57 c -22.605,20.64 -44.207,42.45 -64.601,65.33 3.421,-1.56 7.218,-2.43 11.218,-2.43 h 26.672 c 8.27,-21.24 17.176,-42.23 26.711,-62.9 m -79.402,82.38 c -118.473,140.14 -191.3322,317.56 -171.399,509.64 15.133,145.8 22.602,282.32 52.442,429.68 48.996,241.92 -92.1955,416.15 -138.6955,642.94 -39.5625,192.9 -17.04691,399.24 65.3945,578.22 18.43,39.99 39.844,78.62 64.227,115.43 211.539,319.28 593.652,599.93 961.898,599.93 48.02,0 95.81,-4.77 142.95,-14.85 343.45,-73.46 537.65,-136.02 742.45,-170.39 -360.25,-10.73 -713.08,-98.23 -1050.779,-275.5 -141.039,-74.03 -370.687,-294.63 -417.98,-446.74 -8.93,-28.7 -14.055,-57.67 -16.645,-86.81 -12.703,-142.93 35.5,-290.2 -4.793,-431.75 C 457.465,2599.3 317.828,2472.37 260.91,2306 c -75.617,-221.02 -79.988,-465.98 -5.875,-687.27 4.082,-46.42 10.934,-92.57 20.504,-138.13 v -154.01 0 c 0,-2.65 0.383,-5.21 1.094,-7.64 m 295.551,2385.1 c -8.282,0 -15,-6.71 -15,-15 0,-8.28 6.718,-15 15,-15 8.285,0 15,6.72 15,15 0,8.29 -6.715,15 -15,15 m 776.746,400.46 c -50.77,0 -91.91,-41.15 -91.91,-91.91 0,-50.76 41.14,-91.9 91.91,-91.9 50.75,0 91.9,41.14 91.9,91.9 0,50.76 -41.15,91.91 -91.9,91.91 M 321.758,1319.47 h -19.106 c -3.922,0 -7.113,3.2 -7.113,7.12 v 73.25 c 7.758,-27.13 16.496,-53.93 26.219,-80.37 M 4313.94,2675.89 c -26.08,35.1 -53.76,69.08 -82.88,101.69 2.92,22.9 5.13,45.89 6.64,68.94 0.15,2.26 0.29,4.53 0.43,6.8 6.15,103.76 -9.23,204.76 -42.68,298.24 v 202.18 0 c 0,24.89 -20.36,45.25 -45.25,45.25 h -100.87 c -33.17,37.66 -70.13,72.18 -110.42,102.92 v 124.93 c 0,18.4 -14.92,33.32 -33.33,33.32 h -232.37 c -12.48,24.39 -26.72,48.4 -43.24,71.89 -28.24,40.15 -59.35,78.31 -92.97,114.18 297.94,-101.52 577.79,-281.13 746.45,-546.41 47.28,-74.35 85.94,-156.74 93.27,-244.54 10.72,-128.24 -45.71,-251.79 -62.78,-379.39" /><path
         id="path30"
         style="fill:#eeebf7;fill-opacity:1;fill-rule:nonzero;stroke:none"
         d="m 3707.27,957.129 c 46.85,74.631 81,156.891 97.44,243.781 29.28,-20.8 61.2,-37.42 95.43,-49.63 l -9.55,-65.76 c -2.83,-19.46 1.77,-38.32 11.66,-53.69 -62.11,-31.4 -127.44,-56.1 -194.98,-74.701 M 692.207,1038.27 c -63.141,22.29 -124.312,50.29 -182.496,84.66 -54.27,32.06 -106.18,70.27 -153.676,113.64 -9.535,20.67 -18.441,41.66 -26.711,62.9 h 114.184 c 18.453,-18.42 38.047,-35.59 58.816,-51.29 57.574,-43.5 121.953,-74.09 189.883,-94.49 v -115.42 m 3227.893,2.81 c -8.07,11.73 -11.93,26.4 -9.72,41.57 l 11.94,82.21 -7.93,2.65 c -38.44,12.83 -73.92,31.41 -105.91,55.42 5.57,36.33 8.02,73.4 7,111.02 56.52,-65 137.05,-99.18 218.5,-99.18 60.16,0 120.81,18.65 172.62,57.31 14.7,10.97 28.18,23.15 40.34,36.37 -46.13,-64.67 -100.85,-124.49 -163.45,-177.09 -12.2,-1.61 -24.52,-2.62 -36.95,-3.04 l -8.36,-0.27 -5.28,-36.33 c -26.91,-19.64 -55.06,-38 -84.43,-54.92 -9.38,-5.41 -18.83,-10.64 -28.37,-15.72 m 113.84,213.68 c -82.13,0 -163.28,37.35 -216.06,108.07 -1.47,1.96 -2.91,3.95 -4.31,5.93 -3.11,38.52 -9.29,76.98 -16.09,115.35 l 12.77,69.25 29.04,48.98 219.79,-222.18 c 26.43,-26.73 61.08,-40.1 95.74,-40.1 34.65,0 69.3,13.37 95.74,40.1 v 0 c 26.44,26.72 39.65,61.75 39.65,96.78 0,35.03 -13.21,70.06 -39.65,96.79 l -217.02,219.39 c 12.86,-0.03 25.82,-0.98 38.78,-2.86 71.16,-10.33 134.03,-47.76 177.04,-105.39 43.01,-57.62 61.01,-128.55 50.66,-199.71 -10.33,-71.17 -47.76,-134.04 -105.38,-177.05 -48.24,-35.98 -104.69,-53.35 -160.7,-53.35 M 424.355,1319.47 H 321.758 c -9.723,26.44 -18.461,53.24 -26.219,80.37 v 117.1 C 329,1444.95 371.641,1377.03 424.355,1319.47 m 3876.565,93.67 c 9.03,21.9 15.4,45.09 18.9,69.15 11.1,76.44 -8.22,152.63 -54.43,214.54 -46.2,61.91 -113.74,102.12 -190.2,113.23 -14.1,2.05 -28.19,3.07 -42.18,3.07 -6.25,0 -12.47,-0.21 -18.67,-0.61 l -31.54,31.88 32.47,54.77 c 1.81,0.09 3.62,0.16 5.43,0.22 l 8.36,0.28 4.38,30.13 60.47,102.01 c 1.64,0.14 3.28,0.21 4.95,0.21 2.8,0 5.63,-0.2 8.49,-0.61 15.47,-2.25 29.14,-10.39 38.49,-22.92 9.35,-12.53 13.27,-27.95 11.02,-43.42 l -11.94,-82.23 7.93,-2.64 c 51.45,-17.17 97.61,-44.64 137.17,-81.67 l 6.12,-5.72 66.59,49.7 h -0.01 c 10.22,7.62 22.36,11.64 34.87,11.64 2.84,0 5.7,-0.21 8.56,-0.62 7.12,-1.04 13.85,-3.32 19.96,-6.69 -1.77,-37.38 -5.84,-74.69 -12.21,-112.2 l -47.74,-35.65 3.74,-7.48 c 8.93,-17.86 16.36,-36.21 22.28,-54.98 -3.38,-12.47 -7.02,-24.98 -10.9,-37.56 -19.68,-63.79 -46.62,-126.26 -80.36,-185.83 M 275.539,1480.6 c -9.57,45.56 -16.422,91.71 -20.504,138.13 6.27,-18.72 13.106,-37.29 20.504,-55.64 v -82.49 m 4125.451,190.57 c -2.95,7.32 -6.13,14.57 -9.53,21.75 l 17.07,12.75 c -2.3,-11.47 -4.81,-22.97 -7.54,-34.5 m -103.48,147.63 c -38.21,34.29 -82.01,60.36 -130.42,77.63 l 9.55,65.77 c 3.02,20.75 -2.22,41.44 -14.77,58.25 -12.55,16.81 -30.89,27.73 -51.65,30.74 -1.51,0.22 -3.01,0.4 -4.5,0.53 l 201.56,339.97 c 5.21,8.8 2.31,20.15 -6.48,25.37 l -31.29,18.55 9.35,15.78 c 5.22,8.8 2.32,20.15 -6.48,25.37 l -99.27,58.85 c 27.88,78.1 47.44,159.42 57.95,241.97 29.12,-32.61 56.8,-66.59 82.88,-101.69 -0.53,-3.89 -1.01,-7.79 -1.45,-11.69 -21.56,-189.08 47.84,-372.01 88.94,-553.48 18.83,-83.11 27.31,-162.95 25.45,-242.21 -9.32,3.71 -19.26,5.6 -29.25,5.6 -16.33,0 -32.8,-5.07 -46.86,-15.57 l -53.26,-39.74 m -624.3,1841.36 h -79.65 L 3014,3850.77 c -186.56,61.36 -373.08,106.03 -558.53,132.32 54.35,1.86 112.87,5.15 176.57,9.97 39.2,2.97 78.3,4.38 117.39,4.38 259.62,0 516.55,-62.29 766.63,-144.21 7,-2.29 13.96,-4.62 20.94,-7 33.62,-35.87 64.73,-74.03 92.97,-114.18 16.52,-23.49 30.76,-47.5 43.24,-71.89" /><path
         id="path32"
         style="fill:#f0edf8;fill-opacity:1;fill-rule:nonzero;stroke:none"
         d="m 1348.93,3920.7 c -50.77,0 -91.91,41.14 -91.91,91.9 0,50.76 41.14,91.91 91.91,91.91 50.75,0 91.9,-41.15 91.9,-91.91 0,-50.76 -41.15,-91.9 -91.9,-91.9" /><path
         id="path34"
         style="fill:#ebe7f6;fill-opacity:1;fill-rule:nonzero;stroke:none"
         d="m 2070.35,3998.42 c -25.14,3.28 -49.89,7.01 -74.45,11.13 25.34,0.75 50.72,1.13 76.13,1.13 5.79,0 11.55,-0.02 17.35,-0.06 -6.41,-4.01 -12.74,-8.06 -19.03,-12.2" /><path
         id="path36"
         style="fill:#e9e5f5;fill-opacity:1;fill-rule:nonzero;stroke:none"
         d="m 2947.55,552.949 c -30.03,0 -60.06,1.352 -89.99,4.063 v 433.09 c 42.25,-13.082 85.38,-24.692 129.09,-34.711 -9.18,-5.711 -16.7,-13.813 -21.82,-23.661 -7.5,-14.46 -8.93,-30.98 -4,-46.511 8.21,-25.957 32.28,-42.59 58.17,-42.578 6.09,0 12.27,0.91 18.38,2.847 l 45.14,14.301 c 18.2,-32.379 41.92,-60.59 70.68,-84.027 l -21.81,-42.032 c -7.51,-14.46 -8.93,-30.98 -4.01,-46.5 4.92,-15.539 15.58,-28.23 30.05,-35.73 8.95,-4.641 18.53,-6.84 27.99,-6.84 22.06,0 43.39,11.988 54.24,32.879 l 21.82,42.031 c 26.01,-7.3 52.54,-10.968 79.31,-10.968 10,0 20.03,0.507 30.07,1.539 l 14.3,-45.153 c 0.58,-1.828 1.24,-3.617 1.97,-5.359 -21.72,-11.68 -43.81,-22.309 -66.13,-31.82 -118.09,-50.289 -245.67,-74.86 -373.45,-74.86 m -109.99,6.063 c -110.85,12.238 -219.79,42.929 -320.56,91.308 -83.88,40.258 -162.8,93.051 -232.1,156.95 h 69.44 c 34.83,0 65.53,17.66 83.64,44.519 h 237.4 c 5.52,0 10,4.473 10,10 0,5.52 -4.48,10 -10,10 h -226.96 c 4.34,11.25 6.72,23.492 6.72,36.281 v 150.97 h 209.5 c 45.63,-17.21 91.16,-34.75 137.12,-50.66 11.85,-4.1 23.8,-8.1 35.8,-11.97 V 559.012 m -367.6,202.867 c -5.53,0 -10,-4.469 -10,-10 0,-5.52 4.47,-10 10,-10 h 205.42 c 5.52,0 10,4.48 10,10 0,5.531 -4.48,10 -10,10 h -205.42 m 0,213.543 c -5.53,0 -10,-4.473 -10,-10 0,-5.531 4.47,-10 10,-10 h 205.42 c 5.52,0 10,4.469 10,10 0,5.527 -4.48,10 -10,10 H 2469.96 M 3670.5,903.52 c -0.36,0.199 -0.72,0.39 -1.09,0.582 l -42.04,21.808 c 1.2,4.281 2.3,8.57 3.31,12.879 25.8,5.281 51.34,11.383 76.59,18.34 -11.51,-18.34 -23.8,-36.231 -36.77,-53.609 m -1059.68,175.52 h -155.68 v 49.05 c 52.86,-13.18 104.48,-30.43 155.68,-49.05 m -260.36,2902.17 c -105.35,0 -195.15,6.12 -280.11,17.21 6.29,4.14 12.62,8.19 19.03,12.2 121.35,-0.82 243.51,-10.16 366.09,-27.53 -36.78,-1.27 -71.68,-1.88 -105.01,-1.88" /><path
         id="path38"
         style="fill:#e8e4f5;fill-opacity:1;fill-rule:nonzero;stroke:none"
         d="m 255.035,1618.73 c -74.113,221.29 -69.742,466.25 5.875,687.27 56.918,166.37 196.555,293.3 244.793,462.75 40.293,141.55 -7.91,288.82 4.793,431.75 2.59,29.14 7.715,58.11 16.645,86.81 47.293,152.11 276.941,372.71 417.98,446.74 337.699,177.27 690.529,264.77 1050.779,275.5 24.56,-4.12 49.31,-7.85 74.45,-11.13 -77.56,-50.97 -146.67,-111.94 -203.59,-182.32 h -544.23 v 0 h -49.83 c -8.97,0 -16.24,-7.28 -16.24,-16.25 v -49.83 0 -370.8 c -21.61,-11.33 -37.07,-33.19 -39.06,-59.3 l -6.07,-79.58 c -59.93,-6.09 -116.42,-25.12 -166.38,-54.49 l -51.981,60.57 c -14.477,16.86 -34.973,25.53 -55.586,25.53 -16.871,0 -33.82,-5.8 -47.633,-17.65 -30.68,-26.33 -34.203,-72.54 -7.879,-103.22 l 51.977,-60.57 c -36.621,-44.92 -64,-97.87 -79.118,-156.18 l -79.582,6.07 c -1.898,0.15 -3.789,0.22 -5.66,0.22 -37.89,0 -69.965,-29.22 -72.894,-67.63 -3.078,-40.3 27.101,-75.48 67.41,-78.56 l 79.582,-6.07 c 0.82,-8.09 1.879,-16.12 3.164,-24.07 C 601.313,2612.68 409.113,2375.81 314.223,2098.05 h -11.571 c -14.953,0 -27.113,-12.17 -27.113,-27.12 V 1958.1 c -1.961,-9.19 -3.812,-18.42 -5.559,-27.68 -19.32,-102.44 -24.093,-207.68 -14.945,-311.69 m 40.504,419.7 v 32.5 c 0,3.92 3.191,7.12 7.113,7.12 h 4.926 c -4.226,-13.11 -8.25,-26.34 -12.039,-39.62 m 3935.521,739.15 c -38.24,42.84 -79,83.39 -122.06,121.33 -59.18,52.14 -123.56,100.82 -178.1,157.24 h 219.3 c 24.89,0 45.25,20.36 45.25,45.25 v 50.16 c 33.45,-93.48 48.83,-194.48 42.68,-298.24 -0.14,-2.27 -0.28,-4.54 -0.43,-6.8 -1.51,-23.05 -3.72,-46.04 -6.64,-68.94 m -181.73,621.41 h -110.42 v 102.92 c 40.29,-30.74 77.25,-65.26 110.42,-102.92" /><path
         id="path40"
         style="fill:#e7e3f4;fill-opacity:1;fill-rule:nonzero;stroke:none"
         d="m 3630.68,938.789 c 3.33,14.281 5.57,28.711 6.73,43.223 l 47.1,-8.684 c 1.13,-0.207 2.26,-0.308 3.37,-0.308 8.76,0 16.54,6.242 18.19,15.16 l 41.3,224.04 22.35,16.69 c 11.19,-10.04 22.87,-19.38 34.99,-28 -16.44,-86.89 -50.59,-169.15 -97.44,-243.781 -25.25,-6.957 -50.79,-13.059 -76.59,-18.34 m -644.03,16.602 c -43.71,10.019 -86.84,21.629 -129.09,34.711 v 135.658 l 185.99,-34.28 11.58,-6.01 c -10.03,-35.73 -13.19,-72.45 -9.43,-109.4 l -45.15,-14.289 c -4.94,-1.57 -9.6,-3.722 -13.9,-6.39 m -149.09,41.019 c -12,3.87 -23.95,7.87 -35.8,11.97 -45.96,15.91 -91.49,33.45 -137.12,50.66 h 10.74 c 5.52,0 10,4.48 10,10 0,5.53 -4.48,10 -10,10 h -64.56 c -51.2,18.62 -102.82,35.87 -155.68,49.05 v 71.85 l 382.42,-70.49 V 996.41 M 692.207,1153.69 c -67.93,20.4 -132.309,50.99 -189.883,94.49 -20.769,15.7 -40.363,32.87 -58.816,51.29 h 248.699 v -145.78 m 0,165.78 H 424.355 C 371.641,1377.03 329,1444.95 295.539,1516.94 v 521.49 c 3.789,13.28 7.813,26.51 12.039,39.62 h 393.723 c -5.828,-14.13 -9.094,-29.95 -9.094,-46.66 v 0 -175.72 H 479.063 c -5.524,0 -10,-4.47 -10,-10 0,-5.52 4.476,-10 10,-10 h 213.144 v -83.65 -19.87 H 479.063 c -5.524,0 -10,-4.47 -10,-10 0,-5.53 4.476,-10 10,-10 h 213.144 v -96.48 H 479.063 c -5.524,0 -10,-4.47 -10,-10 0,-5.52 4.476,-10 10,-10 h 213.144 v -96.46 H 479.063 c -5.524,0 -10,-4.47 -10,-10 0,-5.53 4.476,-10 10,-10 h 213.144 v -48.36 -111.38 m -416.668,243.62 c -7.398,18.35 -14.234,36.92 -20.504,55.64 -9.148,104.01 -4.375,209.25 14.945,311.69 1.747,9.26 3.598,18.49 5.559,27.68 v -395.01 m 436.465,534.96 H 314.223 c 94.89,277.76 287.09,514.63 532.527,666.24 8.25,-50.99 25.918,-99.09 51.328,-142.31 L 837.512,2570 c -30.68,-26.32 -34.211,-72.53 -7.883,-103.22 14.476,-16.87 34.969,-25.53 55.582,-25.53 16.871,0 33.828,5.8 47.637,17.66 l 60.566,51.97 c 44.926,-36.62 97.866,-64 156.176,-79.12 l -6.07,-79.58 c -3.08,-40.31 27.1,-75.48 67.41,-78.56 1.9,-0.14 3.78,-0.21 5.65,-0.21 14.6,0 28.34,4.33 39.88,11.86 V 2139.62 H 894.211 v 0 h -93.773 v 0 h -14.895 c -29.863,0 -56.453,-16.27 -73.539,-41.57 m 3461.106,437.56 -163.9,97.17 10.82,58.7 c 1.86,10.05 -4.79,19.71 -14.84,21.56 l -16.2,2.99 7.66,41.57 -220.76,40.69 c -29.12,95.4 -76.81,182.75 -138.85,257.86 h 293.86 c 54.54,-56.42 118.92,-105.1 178.1,-157.24 43.06,-37.94 83.82,-78.49 122.06,-121.33 -10.51,-82.55 -30.07,-163.87 -57.95,-241.97 M 2645.5,3203.37 v 592.99 c 0,10.9 -8.83,19.74 -19.73,19.74 h -5.23 v 0 h -21.59 v 0 h -732.19 c 56.92,70.38 126.03,131.35 203.59,182.32 84.96,-11.09 174.76,-17.21 280.11,-17.21 33.33,0 68.23,0.61 105.01,1.88 185.45,-26.29 371.97,-70.96 558.53,-132.32 l 579.56,-190.61 h -431.88 c -18.4,0 -33.33,-14.92 -33.33,-33.32 v -264.53 c 0,-18.41 14.93,-33.33 33.33,-33.33 h 119.52 v -33.72 c -70.02,21.73 -144.4,33.43 -221.47,33.43 -153.05,0 -295.53,-46.18 -414.23,-125.32" /><path
         id="path42"
         style="fill:#e9e5f5;fill-opacity:1;fill-rule:nonzero;stroke:none"
         d="m 3185.45,664.648 c -6.35,0 -12.79,1.481 -18.8,4.614 -9.73,5.039 -16.9,13.558 -20.21,24 -3.3,10.437 -2.34,21.539 2.71,31.25 l 29.45,56.789 -6.62,5.097 c -31.65,24.372 -57.14,54.672 -75.76,90.063 l -3.9,7.41 -60.98,-19.32 c -4.1,-1.301 -8.25,-1.922 -12.35,-1.922 -17.39,0 -33.58,11.191 -39.1,28.633 -3.3,10.437 -2.36,21.539 2.69,31.258 5.04,9.718 13.57,16.89 24.01,20.191 l 15.57,4.93 c 38.26,-7.942 76.92,-14.641 115.81,-20 19.05,-49.84 55.23,-90.43 102.97,-115.219 31.46,-16.32 65.62,-24.582 100.06,-24.582 22.1,0 44.32,3.398 65.99,10.262 55.45,17.558 100.73,55.66 127.53,107.277 3.19,6.141 6.07,12.391 8.64,18.723 22.09,2.929 44.05,6.41 65.84,10.457 -0.96,-3.598 -2,-7.18 -3.11,-10.758 l -2.48,-7.992 54.74,-28.399 c -17.37,-22.121 -35.88,-43.371 -55.34,-63.648 l -37.16,19.277 -5.1,-6.617 c -24.38,-31.652 -54.69,-57.141 -90.08,-75.774 l -7.4,-3.886 13.25,-41.84 c -23.24,-16.442 -47.13,-31.641 -71.54,-45.531 -0.2,0.539 -0.38,1.078 -0.56,1.629 l -19.3,60.992 -8.3,-1.082 c -11.94,-1.539 -23.86,-2.309 -35.74,-2.309 -27.54,0 -54.85,4.141 -81.51,12.418 l -7.99,2.481 -29.47,-56.758 c -7.29,-14.043 -21.63,-22.114 -36.46,-22.114 m 307.93,62.653 -6.23,19.66 c 32.38,18.199 60.58,41.918 84.04,70.68 l 16.94,-8.801 c -29.72,-29.5 -61.46,-56.781 -94.75,-81.539" /><path
         id="path44"
         style="fill:#e7e3f4;fill-opacity:1;fill-rule:nonzero;stroke:none"
         d="m 3543.16,924.102 c 9.45,23.269 14.73,47.699 15.76,72.378 l 58.7,-10.82 c -1.24,-17.199 -4.11,-34.269 -8.62,-51.101 -21.79,-4.047 -43.75,-7.528 -65.84,-10.457 m -405.19,3.539 c -38.89,5.359 -77.55,12.058 -115.81,20 l 45.41,14.379 -1.08,8.3 c -5.04,38.93 -1.86,77.67 9.48,115.18 l 2.88,-0.53 50.26,-29.8 c -8.87,-37.73 -7.45,-77.299 4.56,-115.221 1.31,-4.16 2.75,-8.269 4.3,-12.308" /><path
         id="path46"
         style="fill:#e9e5f5;fill-opacity:1;fill-rule:nonzero;stroke:none"
         d="m 3341.03,807.84 c -31.27,0.012 -62.31,7.512 -90.87,22.34 -40.07,20.789 -71.16,53.851 -89.31,94.461 65.53,-8.141 131.62,-12.442 197.38,-12.442 3.99,0 7.96,0.02 11.95,0.051 l 28.44,-16.859 c 2.96,-1.762 6.22,-2.59 9.43,-2.59 6.32,0 12.48,3.238 15.94,9.058 l 7.19,12.141 c 29.81,1.48 59.41,3.879 88.88,7.25 -1.05,-2.23 -2.15,-4.449 -3.3,-6.648 -24.32,-46.891 -65.46,-81.493 -115.82,-97.434 -19.67,-6.227 -39.84,-9.328 -59.91,-9.328" /><path
         id="path48"
         style="fill:#e7e3f4;fill-opacity:1;fill-rule:nonzero;stroke:none"
         d="m 3358.23,912.199 c -65.76,0 -131.85,4.301 -197.38,12.442 -3.09,6.91 -5.8,14.031 -8.12,21.359 -10.25,32.359 -12,66.04 -5.49,98.43 l 222.94,-132.18 c -3.99,-0.031 -7.96,-0.051 -11.95,-0.051 m 72.95,1.801 56.67,95.58 51.17,-9.43 c -0.73,-27.072 -7.09,-53.849 -18.96,-78.9 -29.47,-3.371 -59.07,-5.77 -88.88,-7.25 m 377.3,308.93 c -10.83,8.13 -21.26,16.88 -31.27,26.25 l -6.11,5.71 -18.4,-13.73 26.69,144.77 c 6.54,-12.04 14.02,-23.76 22.45,-35.06 4.37,-5.85 8.92,-11.49 13.64,-16.92 1.02,-37.62 -1.43,-74.69 -7,-111.02 m 5.09,145.83 c -11.35,16.09 -20.67,33.02 -28.04,50.5 l 11.95,64.85 c 6.8,-38.37 12.98,-76.83 16.09,-115.35" /><path
         id="path50"
         style="fill:#e8e4f5;fill-opacity:1;fill-rule:nonzero;stroke:none"
         d="m 955.281,2824.01 c -0.195,9.64 0.071,19.37 0.817,29.17 11.945,156.49 142.652,275.53 297.032,275.53 1.11,0 2.22,-0.01 3.33,-0.02 v -205.15 c -105.22,-19.52 -206.33,-53.42 -301.179,-99.53" /><path
         id="path52"
         style="fill:#e7e3f4;fill-opacity:1;fill-rule:nonzero;stroke:none"
         d="m 1253.77,2532.25 c -7.62,0 -15.29,0.29 -23.02,0.88 -154.42,11.79 -272.363,139.19 -275.469,290.88 94.849,46.11 195.959,80.01 301.179,99.53 v -391.28 c -0.9,-0.01 -1.79,-0.01 -2.69,-0.01" /><path
         id="path54"
         style="fill:#8f8ecb;fill-opacity:1;fill-rule:nonzero;stroke:none"
         d="m 4475.28,903.262 c -24.86,0 -45,20.148 -45,45 0,24.847 20.14,45 45,45 24.85,0 45,-20.153 45,-45 0,-24.852 -20.15,-45 -45,-45" /><path
         id="path56"
         style="fill:#8f8ecb;fill-opacity:1;fill-rule:nonzero;stroke:none"
         d="m 2396.51,4410.44 c -24.85,0 -45,20.15 -45,45 0,24.85 20.15,45 45,45 24.85,0 45,-20.15 45,-45 0,-24.85 -20.15,-45 -45,-45" /><path
         id="path58"
         style="fill:#8f8ecb;fill-opacity:1;fill-rule:nonzero;stroke:none"
         d="m 770.84,488.27 c -24.852,0 -45,20.148 -45,45 0,24.851 20.148,45 45,45 24.851,0 45,-20.149 45,-45 0,-24.852 -20.149,-45 -45,-45" /><path
         id="path60"
         style="fill:#f7b4c6;fill-opacity:1;fill-rule:nonzero;stroke:none"
         d="m 3611.15,309.039 c -19.33,0 -35,15.68 -35,35 0,19.332 15.67,35 35,35 19.32,0 35,-15.668 35,-35 0,-19.32 -15.68,-35 -35,-35" /><path
         id="path62"
         style="fill:#8987ca;fill-opacity:1;fill-rule:nonzero;stroke:none"
         d="m 572.184,3674.05 c -8.282,0 -15,6.72 -15,15 0,8.29 6.718,15 15,15 8.285,0 15,-6.71 15,-15 0,-8.28 -6.715,-15 -15,-15" /><path
         id="path64"
         style="fill:#f7b4c6;fill-opacity:1;fill-rule:nonzero;stroke:none"
         d="m 3714.6,4093.73 c -3.75,0 -7.54,0.39 -11.34,1.2 -29.19,6.24 -47.8,34.95 -41.57,64.14 5.43,25.38 27.85,42.76 52.8,42.76 3.74,0 7.54,-0.39 11.34,-1.2 29.18,-6.24 47.8,-34.95 41.56,-64.14 -5.42,-25.38 -27.84,-42.76 -52.79,-42.76" /><path
         id="path66"
         style="fill:#f7b4c6;fill-opacity:1;fill-rule:nonzero;stroke:none"
         d="m 858.789,4368.05 c -1.465,0 -2.953,0.15 -4.449,0.47 -11.449,2.44 -18.742,13.71 -16.297,25.15 2.125,9.96 10.918,16.77 20.703,16.77 1.465,0 2.953,-0.15 4.442,-0.47 11.453,-2.45 18.746,-13.7 16.3,-25.15 -2.125,-9.95 -10.914,-16.77 -20.699,-16.77" /><path
         id="path68"
         style="fill:#8f8ecb;fill-opacity:1;fill-rule:nonzero;stroke:none"
         d="m 4239.47,4459.6 c -1.25,0 -2.51,0.13 -3.78,0.4 -9.73,2.07 -15.93,11.64 -13.85,21.38 1.8,8.46 9.28,14.25 17.6,14.25 1.24,0 2.51,-0.13 3.78,-0.4 9.72,-2.08 15.93,-11.65 13.85,-21.38 -1.81,-8.46 -9.28,-14.25 -17.6,-14.25" /><path
         id="path70"
         style="fill:#8f8ecb;fill-opacity:1;fill-rule:nonzero;stroke:none"
         d="m 428.938,163.352 c -1.247,0 -2.504,0.128 -3.77,0.398 -9.727,2.078 -15.93,11.648 -13.855,21.379 1.808,8.461 9.281,14.262 17.593,14.262 1.25,0 2.516,-0.129 3.785,-0.411 9.731,-2.082 15.93,-11.648 13.852,-21.371 -1.805,-8.461 -9.285,-14.257 -17.605,-14.257" /><path
         id="path72"
         style="fill:#f9f8fd;fill-opacity:1;fill-rule:nonzero;stroke:none"
         d="m 846.75,2764.29 c -1.285,7.95 -2.344,15.98 -3.164,24.07 l -79.582,6.07 c -40.309,3.08 -70.488,38.26 -67.41,78.56 2.929,38.41 35.004,67.63 72.894,67.63 1.871,0 3.762,-0.07 5.66,-0.22 l 79.582,-6.07 c 15.118,58.31 42.497,111.26 79.118,156.18 l -51.977,60.57 c -26.324,30.68 -22.801,76.89 7.879,103.22 13.813,11.85 30.762,17.65 47.633,17.65 20.613,0 41.109,-8.67 55.586,-25.53 l 51.981,-60.57 c 49.96,29.37 106.45,48.4 166.38,54.49 l 6.07,79.58 c 1.99,26.11 17.45,47.97 39.06,59.3 v -250.53 c -1.11,0.01 -2.22,0.02 -3.33,0.02 -154.38,0 -285.087,-119.04 -297.032,-275.53 -0.746,-9.8 -1.012,-19.53 -0.817,-29.17 -37.199,-18.08 -73.386,-38.01 -108.531,-59.72" /><path
         id="path74"
         style="fill:#f9f7fc;fill-opacity:1;fill-rule:nonzero;stroke:none"
         d="m 1216.58,2273.41 c -1.87,0 -3.75,0.07 -5.65,0.21 -40.31,3.08 -70.49,38.25 -67.41,78.56 l 6.07,79.58 c -58.31,15.12 -111.25,42.5 -156.176,79.12 l -60.566,-51.97 c -13.809,-11.86 -30.766,-17.66 -47.637,-17.66 -20.613,0 -41.106,8.66 -55.582,25.53 -26.328,30.69 -22.797,76.9 7.883,103.22 l 60.566,51.98 c -25.41,43.22 -43.078,91.32 -51.328,142.31 35.145,21.71 71.332,41.64 108.531,59.72 3.106,-151.69 121.049,-279.09 275.469,-290.88 7.73,-0.59 15.4,-0.88 23.02,-0.88 0.9,0 1.79,0 2.69,0.01 v -246.99 c -11.54,-7.53 -25.28,-11.86 -39.88,-11.86" /><path
         id="path76"
         style="fill:#fcfdfe;fill-opacity:1;fill-rule:nonzero;stroke:none"
         d="m 3443.23,622.379 c -9.64,0 -19.21,2.32 -28.02,6.891 -12.75,6.621 -22.56,17.269 -28.08,30.359 5.91,3.172 11.8,6.43 17.65,9.762 3.52,-9.692 10.43,-17.602 19.64,-22.371 5.91,-3.071 12.34,-4.629 18.82,-4.629 4.17,0 8.35,0.64 12.44,1.937 10.44,3.313 18.96,10.473 24.01,20.192 5.05,9.718 6,20.82 2.7,31.261 l -6.07,19.141 c 5.73,4.047 11.42,8.18 17.06,12.379 l 8.07,-25.481 c 4.92,-15.531 3.5,-32.05 -4,-46.511 -7.51,-14.457 -20.2,-25.129 -35.74,-30.047 -6.07,-1.922 -12.29,-2.883 -18.48,-2.883 m 198.03,166.562 c -9.65,0 -19.23,2.321 -28.05,6.887 l -25.08,13.012 c 4.94,4.91 9.85,9.898 14.68,14.922 l 19.62,-10.184 c 5.92,-3.066 12.35,-4.629 18.84,-4.629 4.16,0 8.33,0.641 12.42,1.93 10.44,3.312 18.96,10.48 24,20.199 10.41,20.051 2.56,44.852 -17.5,55.274 l -2.04,1.058 c 4.19,5.328 8.29,10.68 12.35,16.11 29.03,-15.821 40.24,-52.18 24.94,-81.649 -7.5,-14.473 -20.18,-25.141 -35.72,-30.051 -6.06,-1.929 -12.27,-2.879 -18.46,-2.879" /><path
         id="path78"
         style="fill:#f9f8fc;fill-opacity:1;fill-rule:nonzero;stroke:none"
         d="m 3185.42,644.66 c -9.46,0 -19.04,2.199 -27.99,6.84 -14.47,7.5 -25.13,20.191 -30.05,35.73 -4.92,15.52 -3.5,32.04 4.01,46.5 l 21.81,42.032 c -28.76,23.437 -52.48,51.648 -70.68,84.027 l -45.14,-14.301 c -6.11,-1.937 -12.29,-2.847 -18.38,-2.847 -25.89,-0.012 -49.96,16.621 -58.17,42.578 -4.93,15.531 -3.5,32.051 4,46.511 5.12,9.848 12.64,17.95 21.82,23.661 11.8,-2.7 23.63,-5.282 35.51,-7.75 l -15.57,-4.93 c -10.44,-3.301 -18.97,-10.473 -24.01,-20.191 -5.05,-9.719 -5.99,-20.821 -2.69,-31.258 5.52,-17.442 21.71,-28.633 39.1,-28.633 4.1,0 8.25,0.621 12.35,1.922 l 60.98,19.32 3.9,-7.41 c 18.62,-35.391 44.11,-65.691 75.76,-90.063 l 6.62,-5.097 -29.45,-56.789 c -5.05,-9.711 -6.01,-20.813 -2.71,-31.25 3.31,-10.442 10.48,-18.961 20.21,-24 6.01,-3.133 12.45,-4.614 18.8,-4.614 14.83,0 29.17,8.071 36.46,22.114 l 29.47,56.758 7.99,-2.481 c 26.66,-8.277 53.97,-12.418 81.51,-12.418 11.88,0 23.8,0.77 35.74,2.309 l 8.3,1.082 19.3,-60.992 c 0.18,-0.551 0.36,-1.09 0.56,-1.629 -5.85,-3.332 -11.74,-6.59 -17.65,-9.762 -0.73,1.742 -1.39,3.531 -1.97,5.359 l -14.3,45.153 c -10.04,-1.032 -20.07,-1.539 -30.07,-1.539 -26.77,0 -53.3,3.668 -79.31,10.968 l -21.82,-42.031 c -10.85,-20.891 -32.18,-32.879 -54.24,-32.879 m 472.73,242.75 -54.74,28.399 2.48,7.992 c 1.11,3.578 2.15,7.16 3.11,10.758 7.25,1.351 14.47,2.761 21.68,4.23 -1.01,-4.309 -2.11,-8.598 -3.31,-12.879 l 42.04,-21.808 c 0.37,-0.192 0.73,-0.383 1.09,-0.582 -4.06,-5.43 -8.16,-10.782 -12.35,-16.11" /><path
         id="path80"
         style="fill:#f9f7fc;fill-opacity:1;fill-rule:nonzero;stroke:none"
         d="m 3609,934.559 c 4.51,16.832 7.38,33.902 8.62,51.101 l 19.79,-3.648 c -1.16,-14.512 -3.4,-28.942 -6.73,-43.223 -7.21,-1.469 -14.43,-2.879 -21.68,-4.23 m -586.84,13.082 c -11.88,2.468 -23.71,5.05 -35.51,7.75 4.3,2.668 8.96,4.82 13.9,6.39 l 45.15,14.289 c -3.76,36.95 -0.6,73.67 9.43,109.4 l -11.58,6.01 32.42,-5.98 c -11.34,-37.51 -14.52,-76.25 -9.48,-115.18 l 1.08,-8.3 -45.41,-14.379" /><path
         id="path82"
         style="fill:#f9f8fc;fill-opacity:1;fill-rule:nonzero;stroke:none"
         d="m 3476.32,714.922 -13.25,41.84 7.4,3.886 c 35.39,18.633 65.7,44.122 90.08,75.774 l 5.1,6.617 37.16,-19.277 c -4.83,-5.024 -9.74,-10.012 -14.68,-14.922 l -16.94,8.801 c -23.46,-28.762 -51.66,-52.481 -84.04,-70.68 l 6.23,-19.66 c -5.64,-4.199 -11.33,-8.332 -17.06,-12.379 M 3341,787.84 c -34.44,0 -68.6,8.262 -100.06,24.582 -47.74,24.789 -83.92,65.379 -102.97,115.219 7.61,-1.063 15.24,-2.063 22.88,-3 18.15,-40.61 49.24,-73.672 89.31,-94.461 28.56,-14.828 59.6,-22.328 90.87,-22.34 20.07,0 40.24,3.101 59.91,9.328 50.36,15.941 91.5,50.543 115.82,97.434 1.15,2.199 2.25,4.418 3.3,6.648 7.7,0.879 15.43,1.84 23.1,2.852 -2.57,-6.332 -5.45,-12.582 -8.64,-18.723 -26.8,-51.617 -72.08,-89.719 -127.53,-107.277 -21.67,-6.864 -43.89,-10.262 -65.99,-10.262" /><path
         id="path84"
         style="fill:#f9f7fc;fill-opacity:1;fill-rule:nonzero;stroke:none"
         d="m 3520.06,921.25 c 11.87,25.051 18.23,51.828 18.96,78.9 l 19.9,-3.67 c -1.03,-24.679 -6.31,-49.109 -15.76,-72.378 -7.67,-1.012 -15.4,-1.973 -23.1,-2.852 m -359.21,3.391 c -7.64,0.937 -15.27,1.937 -22.88,3 -1.55,4.039 -2.99,8.148 -4.3,12.308 -12.01,37.922 -13.43,77.491 -4.56,115.221 l 18.13,-10.74 c -6.51,-32.39 -4.76,-66.071 5.49,-98.43 2.32,-7.328 5.03,-14.449 8.12,-21.359" /><path
         id="path86"
         style="fill:#ffffff;fill-opacity:1;fill-rule:nonzero;stroke:none"
         d="m 4349.67,1094.88 c 10.99,15.1 21.64,30.46 31.91,46.05 -4.2,-17.06 -14.09,-32.82 -29.23,-44.13 -0.88,-0.66 -1.78,-1.3 -2.68,-1.92 m 156.07,288.42 c 3.37,8.79 6.64,17.6 9.82,26.47 13.41,8.89 23.12,23.22 25.62,40.36 1.44,9.99 0.27,19.76 -3.01,28.62 2.67,9 5.25,18.01 7.73,27.07 12.2,-16.17 18.19,-37 15.06,-58.56 -4.53,-31.16 -26.91,-55.43 -55.22,-63.96" /><path
         id="path88"
         style="fill:#fcfdfe;fill-opacity:1;fill-rule:nonzero;stroke:none"
         d="m 3968.35,995.68 c -3.74,0 -7.53,0.281 -11.33,0.832 -23.39,3.398 -42.89,16.838 -54.77,35.318 5.98,3.02 11.93,6.1 17.85,9.25 8.92,-12.97 23.02,-22.34 39.79,-24.78 2.83,-0.41 5.65,-0.61 8.44,-0.61 28.59,0 53.68,21.01 57.91,50.12 l 6.66,45.91 c 17.38,12.69 34.27,25.93 50.59,39.64 40.96,5.42 80.45,17.55 117.79,36.22 l 7.48,3.74 49.7,-66.59 c 9.35,-12.53 23.02,-20.67 38.5,-22.91 2.87,-0.43 5.74,-0.63 8.58,-0.63 12.52,0 24.63,4.02 34.85,11.64 25.86,19.31 31.2,56.06 11.88,81.92 l -49.69,66.59 5.72,6.11 c 37.01,39.55 64.49,85.7 81.67,137.18 l 2.64,7.93 82.22,-11.95 c 2.83,-0.4 5.64,-0.6 8.42,-0.6 11.77,0 22.94,3.55 32.31,9.76 -3.18,-8.87 -6.45,-17.68 -9.82,-26.47 -7.16,-2.15 -14.69,-3.3 -22.41,-3.3 -3.75,0 -7.55,0.27 -11.37,0.83 l -65.76,9.55 c -17.28,-48.42 -43.35,-92.22 -77.63,-130.42 l 39.74,-53.25 c 14.59,-19.55 18.69,-43.75 13.27,-65.78 -10.27,-15.59 -20.92,-30.95 -31.91,-46.05 -13.14,-8.98 -28.42,-13.69 -44.15,-13.69 -3.8,0 -7.62,0.28 -11.44,0.83 -20.76,3.02 -39.11,13.94 -51.65,30.75 l -39.74,53.25 c -46.39,-22 -95.79,-34.54 -147.11,-37.32 l -9.56,-65.76 c -5.66,-39.04 -39.32,-67.249 -77.67,-67.26 m 569.82,483.07 c -7.21,19.47 -24.56,34.53 -46.51,37.72 l -82.23,11.95 -0.27,8.36 c -1.15,34.23 -6.84,67.6 -16.98,99.75 3.15,11.59 6.09,23.13 8.81,34.64 16.11,-39.97 25.43,-81.97 27.78,-125.35 l 65.77,-9.56 c 21.28,-3.09 39.33,-14.5 51.36,-30.44 -2.48,-9.06 -5.06,-18.07 -7.73,-27.07 m -129.64,226.92 c 1.95,9.67 3.73,19.32 5.37,28.97 l 18.84,14.06 c 25.87,19.3 31.21,56.05 11.9,81.92 -5.04,6.76 -11.36,12.25 -18.53,16.22 0.34,7.22 0.6,14.44 0.77,21.67 13.02,-5.18 24.82,-13.91 33.8,-25.94 25.9,-34.7 18.73,-84.01 -15.98,-109.9 l -36.17,-27" /><path
         id="path90"
         style="fill:#fafafd;fill-opacity:1;fill-rule:nonzero;stroke:none"
         d="m 3902.25,1031.83 c -9.89,15.37 -14.49,34.23 -11.66,53.69 l 9.55,65.76 c -34.23,12.21 -66.15,28.83 -95.43,49.63 1.39,7.31 2.64,14.64 3.77,22.02 31.99,-24.01 67.47,-42.59 105.91,-55.42 l 7.93,-2.65 -11.94,-82.21 c -2.21,-15.17 1.65,-29.84 9.72,-41.57 -5.92,-3.15 -11.87,-6.23 -17.85,-9.25 m 130.65,79.89 5.28,36.33 8.36,0.27 c 12.43,0.42 24.75,1.43 36.95,3.04 -16.32,-13.71 -33.21,-26.95 -50.59,-39.64 m 359.28,524.81 c -5.92,18.77 -13.35,37.12 -22.28,54.98 l -3.74,7.48 47.74,35.65 c -1.64,-9.65 -3.42,-19.3 -5.37,-28.97 l -17.07,-12.75 c 3.4,-7.18 6.58,-14.43 9.53,-21.75 -2.72,-11.51 -5.66,-23.05 -8.81,-34.64 m -96.04,156.28 -6.12,5.72 c -39.56,37.03 -85.72,64.5 -137.17,81.67 l -7.93,2.64 11.94,82.23 c 2.25,15.47 -1.67,30.89 -11.02,43.42 -9.35,12.53 -23.02,20.67 -38.49,22.92 -2.86,0.41 -5.69,0.61 -8.49,0.61 -1.67,0 -3.31,-0.07 -4.95,-0.21 l 11.81,19.91 c 1.49,-0.13 2.99,-0.31 4.5,-0.53 20.76,-3.01 39.1,-13.93 51.65,-30.74 12.55,-16.81 17.79,-37.5 14.77,-58.25 l -9.55,-65.77 c 48.41,-17.27 92.21,-43.34 130.42,-77.63 l 53.26,39.74 c 14.06,10.5 30.53,15.57 46.86,15.57 9.99,0 19.93,-1.89 29.25,-5.6 -0.17,-7.23 -0.43,-14.45 -0.77,-21.67 -6.11,3.37 -12.84,5.65 -19.96,6.69 -2.86,0.41 -5.72,0.62 -8.56,0.62 -12.51,0 -24.65,-4.02 -34.87,-11.64 h 0.01 l -66.59,-49.7 m -280.87,106.36 18.17,30.63 -4.38,-30.13 -8.36,-0.28 c -1.81,-0.06 -3.62,-0.13 -5.43,-0.22" /><path
         id="path92"
         style="fill:#f9f7fc;fill-opacity:1;fill-rule:nonzero;stroke:none"
         d="m 3804.71,1200.91 c -12.12,8.62 -23.8,17.96 -34.99,28 l -22.35,-16.69 5.33,28.94 18.4,13.73 6.11,-5.71 c 10.01,-9.37 20.44,-18.12 31.27,-26.25 -1.13,-7.38 -2.38,-14.71 -3.77,-22.02" /><path
         id="path94"
         style="fill:#fcfdfe;fill-opacity:1;fill-rule:nonzero;stroke:none"
         d="m 4246.94,1328.45 c 19.55,27.41 37.58,55.72 53.98,84.69 -12.85,-31.18 -31.06,-59.78 -53.98,-84.69" /><path
         id="path96"
         style="fill:#fafafd;fill-opacity:1;fill-rule:nonzero;stroke:none"
         d="m 4033.98,1234.77 c -81.45,0 -161.98,34.18 -218.5,99.18 -0.12,4.4 -0.29,8.82 -0.5,13.24 -0.36,7.19 -0.83,14.38 -1.41,21.57 1.4,-1.98 2.84,-3.97 4.31,-5.93 52.78,-70.72 133.93,-108.07 216.06,-108.07 56.01,0 112.46,17.37 160.7,53.35 57.62,43.01 95.05,105.88 105.38,177.05 10.35,71.16 -7.65,142.09 -50.66,199.71 -43.01,57.63 -105.88,95.06 -177.04,105.39 -12.96,1.88 -25.92,2.83 -38.78,2.86 l -19.2,19.4 c 6.2,0.4 12.42,0.61 18.67,0.61 13.99,0 28.08,-1.02 42.18,-3.07 76.46,-11.11 144,-51.32 190.2,-113.23 46.21,-61.91 65.53,-138.1 54.43,-214.54 -3.5,-24.06 -9.87,-47.25 -18.9,-69.15 -16.4,-28.97 -34.43,-57.28 -53.98,-84.69 -12.16,-13.22 -25.64,-25.4 -40.34,-36.37 -51.81,-38.66 -112.46,-57.31 -172.62,-57.31 m 166.64,65.33 h 0.1 -0.1" /><path
         id="path98"
         style="fill:#f9f7fc;fill-opacity:1;fill-rule:nonzero;stroke:none"
         d="m 3815.48,1333.95 c -4.72,5.43 -9.27,11.07 -13.64,16.92 -8.43,11.3 -15.91,23.02 -22.45,35.06 l 6.14,33.33 c 7.37,-17.48 16.69,-34.41 28.04,-50.5 0.58,-7.19 1.05,-14.38 1.41,-21.57 0.21,-4.42 0.38,-8.84 0.5,-13.24" /><path
         id="path100"
         style="fill:#fbfcfe;fill-opacity:1;fill-rule:nonzero;stroke:none"
         d="m 2675.38,955.422 h -205.42 c -5.53,0 -10,4.469 -10,10 0,5.527 4.47,10 10,10 h 205.42 c 5.52,0 10,-4.473 10,-10 0,-5.531 -4.48,-10 -10,-10" /><path
         id="path102"
         style="fill:#fbfcfe;fill-opacity:1;fill-rule:nonzero;stroke:none"
         d="m 2675.38,741.879 h -205.42 c -5.53,0 -10,4.48 -10,10 0,5.531 4.47,10 10,10 h 205.42 c 5.52,0 10,-4.469 10,-10 0,-5.52 -4.48,-10 -10,-10" /><path
         id="path104"
         style="fill:#fefeff;fill-opacity:1;fill-rule:nonzero;stroke:none"
         d="M 2830.44,526.238 H 1561.75 c -14.95,0 -27.12,12.16 -27.12,27.114 V 807.27 h 20 v -253.918 0 c 0,-3.922 3.2,-7.114 7.12,-7.114 h 1268.69 c 3.93,0 7.12,3.192 7.12,7.114 v 5.66 c 6.65,-0.731 13.34,-1.403 20,-2 v -3.66 c 0,-14.954 -12.16,-27.114 -27.12,-27.114" /><path
         id="path106"
         style="fill:#fbfcfe;fill-opacity:1;fill-rule:nonzero;stroke:none"
         d="m 2857.56,557.012 c -6.66,0.597 -13.35,1.269 -20,2 V 996.41 c 6.65,-2.14 13.31,-4.242 20,-6.308 v -433.09" /><path
         id="path108"
         style="fill:#fbfcfe;fill-opacity:1;fill-rule:nonzero;stroke:none"
         d="m 2857.56,990.102 c -6.69,2.066 -13.35,4.168 -20,6.308 v 133.04 l 20,-3.69 V 990.102" /><path
         id="path110"
         style="fill:#fbfcfe;fill-opacity:1;fill-rule:nonzero;stroke:none"
         d="m 2664.64,1059.04 h -209.5 v 20 h 155.68 c 17.98,-6.54 35.9,-13.24 53.82,-20" /><path
         id="path112"
         style="fill:#fbfcfe;fill-opacity:1;fill-rule:nonzero;stroke:none"
         d="m 2675.38,1059.04 h -10.74 c -17.92,6.76 -35.84,13.46 -53.82,20 h 64.56 c 5.52,0 10,-4.47 10,-10 0,-5.52 -4.48,-10 -10,-10" /><path
         id="path114"
         style="fill:#fbfcfe;fill-opacity:1;fill-rule:nonzero;stroke:none"
         d="m 2675.38,851.789 h -237.4 c 4.19,6.211 7.7,12.91 10.44,20 h 226.96 c 5.52,0 10,-4.48 10,-10 0,-5.527 -4.48,-10 -10,-10" /><path
         id="path116"
         style="fill:#fefeff;fill-opacity:1;fill-rule:nonzero;stroke:none"
         d="m 2224.24,741.879 h -527.76 c -5.52,0 -10,4.48 -10,10 0,5.531 4.48,10 10,10 h 527.76 c 5.53,0 10,-4.469 10,-10 0,-5.52 -4.47,-10 -10,-10" /><path
         id="path118"
         style="fill:#fefeff;fill-opacity:1;fill-rule:nonzero;stroke:none"
         d="m 2052.4,642.961 h -355.92 c -5.52,0 -10,4.469 -10,10 0,5.527 4.48,10 10,10 h 355.92 c 5.53,0 10,-4.473 10,-10 0,-5.531 -4.47,-10 -10,-10" /><path
         id="path120"
         style="fill:#fbfcfe;fill-opacity:1;fill-rule:nonzero;stroke:none"
         d="M 692.207,1595.67 H 479.063 c -5.524,0 -10,4.48 -10,10 0,5.53 4.476,10 10,10 h 213.144 v -20" /><path
         id="path122"
         style="fill:#fbfcfe;fill-opacity:1;fill-rule:nonzero;stroke:none"
         d="M 692.207,1835.67 H 479.063 c -5.524,0 -10,4.48 -10,10 0,5.53 4.476,10 10,10 h 213.144 v -20" /><path
         id="path124"
         style="fill:#ffffff;fill-opacity:1;fill-rule:nonzero;stroke:none"
         d="m 291.434,1301.9 c -7.102,3.24 -12.571,9.46 -14.801,17.05 4.855,-5.74 9.793,-11.43 14.801,-17.05" /><path
         id="path126"
         style="fill:#fefeff;fill-opacity:1;fill-rule:nonzero;stroke:none"
         d="m 329.324,1299.47 h -26.672 c -4,0 -7.797,0.87 -11.218,2.43 -5.008,5.62 -9.946,11.31 -14.801,17.05 -0.711,2.43 -1.094,4.99 -1.094,7.64 v 154.01 c 5.703,-27.16 12.375,-54.11 20,-80.76 v -73.25 0 c 0,-3.92 3.191,-7.12 7.113,-7.12 h 19.106 c 2.457,-6.68 4.984,-13.37 7.566,-20" /><path
         id="path128"
         style="fill:#fdfdfe;fill-opacity:1;fill-rule:nonzero;stroke:none"
         d="M 443.508,1299.47 H 329.324 c -2.582,6.63 -5.109,13.32 -7.566,20 h 102.597 c 6.247,-6.82 12.625,-13.48 19.153,-20 m -147.969,100.37 c -7.625,26.65 -14.297,53.6 -20,80.76 v 82.49 c 2.422,-6.01 4.902,-11.99 7.445,-17.95 4.032,-9.46 8.215,-18.86 12.555,-28.2 v -117.1" /><path
         id="path130"
         style="fill:#fbfcfe;fill-opacity:1;fill-rule:nonzero;stroke:none"
         d="m 275.539,1958.1 v 112.83 c 0,14.95 12.16,27.12 27.113,27.12 h 11.571 c -2.27,-6.64 -4.489,-13.32 -6.645,-20 h -4.926 c -3.922,0 -7.113,-3.2 -7.113,-7.12 v -32.5 c -7.559,-26.46 -14.234,-53.24 -20,-80.33" /><path
         id="path132"
         style="fill:#fbfcfe;fill-opacity:1;fill-rule:nonzero;stroke:none"
         d="M 692.207,1299.47 H 443.508 c -6.528,6.52 -12.906,13.18 -19.153,20 h 267.852 v -20 m -396.668,217.47 c -4.34,9.34 -8.523,18.74 -12.555,28.2 -2.543,5.96 -5.023,11.94 -7.445,17.95 v 395.01 c 5.766,27.09 12.441,53.87 20,80.33 v -521.49 m 405.762,561.11 H 307.578 c 2.156,6.68 4.375,13.36 6.645,20 h 397.781 c -4.16,-6.17 -7.758,-12.87 -10.703,-20" /><path
         id="path134"
         style="fill:#fbfcfe;fill-opacity:1;fill-rule:nonzero;stroke:none"
         d="M 692.207,1479.21 H 479.063 c -5.524,0 -10,4.47 -10,10 0,5.53 4.476,10 10,10 h 213.144 v -20" /><path
         id="path136"
         style="fill:#fbfcfe;fill-opacity:1;fill-rule:nonzero;stroke:none"
         d="M 692.207,1712.15 H 479.063 c -5.524,0 -10,4.47 -10,10 0,5.53 4.476,10 10,10 h 213.144 v -20" /><path
         id="path138"
         style="fill:#d1cceb;fill-opacity:1;fill-rule:nonzero;stroke:none"
         d="m 3129.11,1055.17 -50.26,29.8 55.83,-10.29 c -2.17,-6.43 -4.02,-12.94 -5.57,-19.51" /><path
         id="path140"
         style="fill:#d2ceeb;fill-opacity:1;fill-rule:nonzero;stroke:none"
         d="m 3408.05,892.801 c -3.21,0 -6.47,0.828 -9.43,2.59 l -28.44,16.859 c 20.36,0.16 40.73,0.738 61,1.75 l -7.19,-12.141 c -3.46,-5.82 -9.62,-9.058 -15.94,-9.058" /><path
         id="path142"
         style="fill:#d1cceb;fill-opacity:1;fill-rule:nonzero;stroke:none"
         d="m 3370.18,912.25 -222.94,132.18 c 1.81,8.98 4.25,17.86 7.33,26.58 l 29.15,-5.37 186.48,-110.562 c 2.96,-1.758 6.21,-2.59 9.42,-2.59 6.33,0 12.49,3.242 15.95,9.071 l 34.76,58.621 57.52,-10.6 -56.67,-95.58 c -20.27,-1.012 -40.64,-1.59 -61,-1.75" /><path
         id="path144"
         style="fill:#dfddf2;fill-opacity:1;fill-rule:nonzero;stroke:none"
         d="m 3147.24,1044.43 -18.13,10.74 c 1.55,6.57 3.4,13.08 5.57,19.51 l 19.89,-3.67 c -3.08,-8.72 -5.52,-17.6 -7.33,-26.58" /><path
         id="path146"
         style="fill:#d7d3ee;fill-opacity:1;fill-rule:nonzero;stroke:none"
         d="m 3810.25,1553.36 12.17,66.03 16.87,-17.05 -29.04,-48.98 m 172.55,291.04 -39.9,40.33 2.69,4.53 c 22.72,5.47 45.99,8.78 69.68,9.91 l -32.47,-54.77 m -23.32,68.3 310.03,522.91 31.29,-18.55 c 8.79,-5.22 11.69,-16.57 6.48,-25.37 l -201.56,-339.97 c -2.3,0.2 -4.59,0.3 -6.86,0.3 -38.25,0 -71.97,-28.22 -77.64,-67.25 l -9.57,-65.76 c -17.62,-0.95 -35.03,-3.06 -52.17,-6.31 m 73.96,17.1 7.56,52.09 c 3.99,27.4 26.4,47.66 52.91,49.92 l -60.47,-102.01" /><path
         id="path148"
         style="fill:#e2dff2;fill-opacity:1;fill-rule:nonzero;stroke:none"
         d="m 3945.59,1889.26 13.89,23.44 c 17.14,3.25 34.55,5.36 52.17,6.31 l 9.57,65.76 c 5.67,39.03 39.39,67.25 77.64,67.25 2.27,0 4.56,-0.1 6.86,-0.3 l -11.81,-19.91 c -26.51,-2.26 -48.92,-22.52 -52.91,-49.92 l -7.56,-52.09 -18.17,-30.63 c -23.69,-1.13 -46.96,-4.44 -69.68,-9.91" /><path
         id="path150"
         style="fill:#f795b4;fill-opacity:1;fill-rule:nonzero;stroke:none"
         d="M 3370.2,955.078 2276.01,1603.81 c -8.79,5.21 -11.7,16.57 -6.48,25.37 L 3152.82,3119 c 5.21,8.8 16.57,11.7 25.37,6.48 l 1094.19,-648.72 c 8.8,-5.22 11.7,-16.57 6.48,-25.37 L 3395.57,961.559 c -5.21,-8.789 -16.57,-11.7 -25.37,-6.481" /><path
         id="path152"
         style="fill:#d7d3ee;fill-opacity:1;fill-rule:nonzero;stroke:none"
         d="m 3797.48,1484.11 c -2.16,12.2 -4.39,24.39 -6.6,36.58 l 19.37,32.67 -12.77,-69.25" /><path
         id="path154"
         style="fill:#d1cceb;fill-opacity:1;fill-rule:nonzero;stroke:none"
         d="m 3687.88,973.02 c -1.11,0 -2.24,0.101 -3.37,0.308 l -47.1,8.684 c 1.14,14.238 1.23,28.558 0.26,42.928 l 20.1,-3.7 c 0.15,-0.03 0.3,-0.05 0.45,-0.08 l 17.75,-3.27 3.29,17.85 c 0.03,0.12 0.05,0.24 0.07,0.35 l 2.48,13.47 0.14,0.04 c 32.06,10.16 49.88,44.49 39.73,76.55 -3.74,11.81 -10.8,21.97 -20.32,29.47 l 5,27.12 c 3.5,1.87 6.87,4.02 10.11,6.43 l 30.9,23.05 -41.3,-224.04 c -1.65,-8.918 -9.43,-15.16 -18.19,-15.16" /><path
         id="path156"
         style="fill:#d1cceb;fill-opacity:1;fill-rule:nonzero;stroke:none"
         d="m 3617.62,985.66 -58.7,10.82 c 0.6,14.46 -0.25,29.01 -2.58,43.46 l 61,-11.25 c 1.22,-14.4 1.31,-28.76 0.28,-43.03 m 68.63,87.95 10.68,57.95 c 2.45,-3.45 4.38,-7.29 5.69,-11.44 5.63,-17.8 -1.56,-36.64 -16.37,-46.51" /><path
         id="path158"
         style="fill:#d1cceb;fill-opacity:1;fill-rule:nonzero;stroke:none"
         d="m 3539.02,1000.15 -51.17,9.43 22.97,38.75 24.49,-4.52 c 2.88,-14.48 4.11,-29.12 3.71,-43.66 m 172.44,210.23 43.5,236.03 c 5.74,-20.73 13.86,-41.03 24.43,-60.48 l -26.69,-144.77 -41.24,-30.78 m 74.07,208.88 c -8.53,20.25 -14.43,41.23 -17.76,62.45 l 23.11,38.98 c 2.21,-12.19 4.44,-24.38 6.6,-36.58 l -11.95,-64.85" /><path
         id="path160"
         style="fill:#dfddf2;fill-opacity:1;fill-rule:nonzero;stroke:none"
         d="m 3637.41,982.012 -19.79,3.648 c 1.03,14.27 0.94,28.63 -0.28,43.03 l 20.33,-3.75 c 0.97,-14.37 0.88,-28.69 -0.26,-42.928 m 44.4,67.548 4.44,24.05 c 14.81,9.87 22,28.71 16.37,46.51 -1.31,4.15 -3.24,7.99 -5.69,11.44 l 4.43,24.06 c 9.52,-7.5 16.58,-17.66 20.32,-29.47 10.15,-32.06 -7.67,-66.39 -39.73,-76.55 l -0.14,-0.04" /><path
         id="path162"
         style="fill:#dfddf2;fill-opacity:1;fill-rule:nonzero;stroke:none"
         d="m 3558.92,996.48 -19.9,3.67 c 0.4,14.54 -0.83,29.18 -3.71,43.66 l 21.03,-3.87 c 2.33,-14.45 3.18,-29 2.58,-43.46" /><path
         id="path164"
         style="fill:#dfddf2;fill-opacity:1;fill-rule:nonzero;stroke:none"
         d="m 3706.36,1182.74 5.1,27.64 41.24,30.78 -5.33,-28.94 -30.9,-23.05 c -3.24,-2.41 -6.61,-4.56 -10.11,-6.43" /><path
         id="path166"
         style="fill:#dfddf2;fill-opacity:1;fill-rule:nonzero;stroke:none"
         d="m 3779.39,1385.93 c -10.57,19.45 -18.69,39.75 -24.43,60.48 l 3.67,19.88 9.14,15.42 c 3.33,-21.22 9.23,-42.2 17.76,-62.45 l -6.14,-33.33" /><path
         id="path168"
         style="fill:#d1cceb;fill-opacity:1;fill-rule:nonzero;stroke:none"
         d="m 3043.55,1091.48 -185.99,34.28 v 42.98 l 116.09,-21.39 9.91,-5.88 c 5.13,-14.84 15.56,-26.93 29.54,-34.19 l 30.45,-15.8" /><path
         id="path170"
         style="fill:#d1cceb;fill-opacity:1;fill-rule:nonzero;stroke:none"
         d="m 3078.85,1084.97 -2.88,0.53 c 0.1,0.34 0.2,0.67 0.3,1 l 2.58,-1.53" /><path
         id="path172"
         style="fill:#dfddf2;fill-opacity:1;fill-rule:nonzero;stroke:none"
         d="m 3075.97,1085.5 -32.42,5.98 -30.45,15.8 c -13.98,7.26 -24.41,19.35 -29.54,34.19 l 92.71,-54.97 c -0.1,-0.33 -0.2,-0.66 -0.3,-1" /><path
         id="path174"
         style="fill:#d1cceb;fill-opacity:1;fill-rule:nonzero;stroke:none"
         d="m 2837.56,1129.45 -382.42,70.49 v 19.01 h 130.03 l 252.39,-46.52 v -42.98 m -360.89,109.5 h -21.53 v 3.97 l 21.53,-3.97" /><path
         id="path176"
         style="fill:#e3e3f4;fill-opacity:1;fill-rule:nonzero;stroke:none"
         d="m 2857.56,1125.76 -20,3.69 v 42.98 l 20,-3.69 v -42.98 m -272.39,93.19 h -130.03 v 20 h 21.53 l 108.5,-20" /><path
         id="path178"
         style="fill:#d1cceb;fill-opacity:1;fill-rule:nonzero;stroke:none"
         d="m 4009.21,2632.78 -32.06,19.01 11.84,64.24 16.2,-2.99 c 10.05,-1.85 16.7,-11.51 14.84,-21.56 l -10.82,-58.7" /><path
         id="path180"
         style="fill:#bbb6e1;fill-opacity:1;fill-rule:nonzero;stroke:none"
         d="m 3487.85,1009.58 -57.52,10.6 22.97,38.75 57.52,-10.6 -22.97,-38.75" /><path
         id="path182"
         style="fill:#bbb6e1;fill-opacity:1;fill-rule:nonzero;stroke:none"
         d="m 2983.56,1141.47 -9.91,5.88 8.6,-1.59 c 0.24,-0.92 0.51,-1.84 0.8,-2.75 0.16,-0.52 0.33,-1.03 0.51,-1.54" /><path
         id="path184"
         style="fill:#bbb6e1;fill-opacity:1;fill-rule:nonzero;stroke:none"
         d="m 3134.68,1074.68 -55.83,10.29 -2.58,1.53 c 0.11,0.36 0.22,0.72 0.34,1.08 l 2.48,7.99 -56.77,29.47 c -7.26,3.76 -13.1,9.47 -16.97,16.46 l 73.16,-13.48 62.4,-37 c -2.31,-5.38 -4.38,-10.83 -6.23,-16.34" /><path
         id="path186"
         style="fill:#bbb6e1;fill-opacity:1;fill-rule:nonzero;stroke:none"
         d="m 3183.72,1065.64 -29.15,5.37 c 1.15,3.26 2.38,6.5 3.71,9.71 l 25.44,-15.08" /><path
         id="path188"
         style="fill:#c9c5e7;fill-opacity:1;fill-rule:nonzero;stroke:none"
         d="m 3076.27,1086.5 -92.71,54.97 c -0.18,0.51 -0.35,1.02 -0.51,1.54 -0.29,0.91 -0.56,1.83 -0.8,2.75 l 23.1,-4.26 c 3.87,-6.99 9.71,-12.7 16.97,-16.46 l 56.77,-29.47 -2.48,-7.99 c -0.12,-0.36 -0.23,-0.72 -0.34,-1.08" /><path
         id="path190"
         style="fill:#c9c5e7;fill-opacity:1;fill-rule:nonzero;stroke:none"
         d="m 3154.57,1071.01 -19.89,3.67 c 1.85,5.51 3.92,10.96 6.23,16.34 l 17.37,-10.3 c -1.33,-3.21 -2.56,-6.45 -3.71,-9.71" /><path
         id="path192"
         style="fill:#c2bce4;fill-opacity:1;fill-rule:nonzero;stroke:none"
         d="m 3790.88,1520.69 c -3.76,20.75 -7.48,41.46 -10.77,62.16 l 7.31,39.63 11.97,20.19 23.03,-23.28 -12.17,-66.03 -19.37,-32.67" /><path
         id="path194"
         style="fill:#bbb6e1;fill-opacity:1;fill-rule:nonzero;stroke:none"
         d="m 3767.77,1481.71 c -1.09,6.96 -1.9,13.93 -2.44,20.92 l 14.78,80.22 c 3.29,-20.7 7.01,-41.41 10.77,-62.16 l -23.11,-38.98" /><path
         id="path196"
         style="fill:#c9c5e7;fill-opacity:1;fill-rule:nonzero;stroke:none"
         d="m 3758.63,1466.29 6.7,36.34 c 0.54,-6.99 1.35,-13.96 2.44,-20.92 l -9.14,-15.42" /><path
         id="path198"
         style="fill:#df8ab2;fill-opacity:1;fill-rule:nonzero;stroke:none"
         d="m 3430.33,1020.18 -246.61,45.46 -25.44,15.08 -17.37,10.3 -62.4,37 374.79,-69.09 -22.97,-38.75 m 357.09,602.3 5.02,27.22 6.95,-7.03 -11.97,-20.19 m 95.15,323.24 -29.98,30.31 4.63,25.11 119.93,650.65 32.06,-19.01 -126.64,-687.06" /><path
         id="path200"
         style="fill:#ffffff;fill-opacity:1;fill-rule:nonzero;stroke:none"
         d="M 3675.97,1017.89 2388.59,1255.2 2709.27,2994.9 3996.65,2757.6 3675.97,1017.89" /><path
         id="path202"
         style="fill:#deb6dc;fill-opacity:1;fill-rule:nonzero;stroke:none"
         d="m 3658.22,1021.16 c -0.15,0.03 -0.3,0.05 -0.45,0.08 l -20.1,3.7 c 0,0.01 0,0.01 0,0.01 l 20.55,-3.79" /><path
         id="path204"
         style="fill:#deb6dc;fill-opacity:1;fill-rule:nonzero;stroke:none"
         d="m 3617.34,1028.69 -61,11.25 v 0 l 61,-11.24 c 0,0 0,0 0,-0.01" /><path
         id="path206"
         style="fill:#deb6dc;fill-opacity:1;fill-rule:nonzero;stroke:none"
         d="m 3535.31,1043.81 -24.49,4.52 h 0.01 l 24.48,-4.51 c 0,0 0,0 0,-0.01" /><path
         id="path208"
         style="fill:#e9c2dd;fill-opacity:1;fill-rule:nonzero;stroke:none"
         d="m 3637.67,1024.94 -20.33,3.75 c 0,0.01 0,0.01 0,0.01 l 20.33,-3.75 c 0,0 0,0 0,-0.01" /><path
         id="path210"
         style="fill:#e9c2dd;fill-opacity:1;fill-rule:nonzero;stroke:none"
         d="m 3556.34,1039.94 -21.03,3.87 c 0,0.01 0,0.01 0,0.01 l 21.03,-3.88 v 0" /><path
         id="path212"
         style="fill:#deb6dc;fill-opacity:1;fill-rule:nonzero;stroke:none"
         d="m 3679.26,1035.74 2.55,13.82 v 0 l -2.48,-13.47 c -0.02,-0.11 -0.04,-0.23 -0.07,-0.35 m 22.1,119.88 v 0 l 5,27.12 v 0 l -5,-27.12" /><path
         id="path214"
         style="fill:#deb6dc;fill-opacity:1;fill-rule:nonzero;stroke:none"
         d="m 3686.24,1073.61 10.69,57.95 v 0 l -10.68,-57.95 h -0.01" /><path
         id="path216"
         style="fill:#deb6dc;fill-opacity:1;fill-rule:nonzero;stroke:none"
         d="m 3711.45,1210.38 43.51,236.04 v -0.01 l -43.5,-236.03 h -0.01" /><path
         id="path218"
         style="fill:#e9c2dd;fill-opacity:1;fill-rule:nonzero;stroke:none"
         d="m 3681.81,1049.56 4.43,24.05 h 0.01 l -4.44,-24.05 v 0 m 15.12,82 v 0 l 4.43,24.06 v 0 l -4.43,-24.06" /><path
         id="path220"
         style="fill:#e9c2dd;fill-opacity:1;fill-rule:nonzero;stroke:none"
         d="m 3706.36,1182.74 5.09,27.64 h 0.01 l -5.1,-27.64 v 0" /><path
         id="path222"
         style="fill:#e9c2dd;fill-opacity:1;fill-rule:nonzero;stroke:none"
         d="m 3754.96,1446.41 v 0.01 l 3.67,19.87 v 0 l -3.67,-19.88" /><path
         id="path224"
         style="fill:#deb6dc;fill-opacity:1;fill-rule:nonzero;stroke:none"
         d="m 2973.65,1147.35 -116.09,21.39 v 0.01 l 116.08,-21.4 h 0.01 m -136.09,25.08 -252.39,46.52 h 0.02 l 252.37,-46.51 v -0.01 m -360.87,66.52 h -0.02 l -21.53,3.97 v 0.01 l 21.55,-3.98" /><path
         id="path226"
         style="fill:#ebc5dd;fill-opacity:1;fill-rule:nonzero;stroke:none"
         d="m 2857.56,1168.74 -20,3.69 v 0.01 l 20,-3.69 v -0.01 m -272.37,50.21 h -0.02 l -108.5,20 h 0.02 l 108.5,-20" /><path
         id="path228"
         style="fill:#d3aad6;fill-opacity:1;fill-rule:nonzero;stroke:none"
         d="m 3510.82,1048.33 -57.52,10.6 v 0.01 l 57.53,-10.61 h -0.01" /><path
         id="path230"
         style="fill:#d3aad6;fill-opacity:1;fill-rule:nonzero;stroke:none"
         d="m 2982.25,1145.76 -8.6,1.59 h -0.01 l 8.61,-1.58 c 0,-0.01 0,-0.01 0,-0.01" /><path
         id="path232"
         style="fill:#d3aad6;fill-opacity:1;fill-rule:nonzero;stroke:none"
         d="m 3078.51,1128.02 -73.16,13.48 c 0,0 0,0 0,0.01 l 73.15,-13.49 h 0.01" /><path
         id="path234"
         style="fill:#dab3d5;fill-opacity:1;fill-rule:nonzero;stroke:none"
         d="m 3005.35,1141.5 -23.1,4.26 c 0,0 0,0 0,0.01 l 23.1,-4.26 c 0,-0.01 0,-0.01 0,-0.01" /><path
         id="path236"
         style="fill:#d6aed6;fill-opacity:1;fill-rule:nonzero;stroke:none"
         d="m 3780.11,1582.85 v 0.01 l 7.31,39.62 v 0 l -7.31,-39.63" /><path
         id="path238"
         style="fill:#d3aad6;fill-opacity:1;fill-rule:nonzero;stroke:none"
         d="m 3765.33,1502.63 c 0,0.01 0,0 0,0.01 l 14.78,80.22 v -0.01 l -14.78,-80.22" /><path
         id="path240"
         style="fill:#dab3d5;fill-opacity:1;fill-rule:nonzero;stroke:none"
         d="m 3758.63,1466.29 6.7,36.35 c 0,-0.01 0,0 0,-0.01 l -6.7,-36.34 v 0" /><path
         id="path242"
         style="fill:#e98eb3;fill-opacity:1;fill-rule:nonzero;stroke:none"
         d="m 3453.3,1058.93 -374.79,69.09 h -0.01 l 374.8,-69.08 v -0.01 m 334.12,563.55 5.01,27.22 h 0.01 l -5.02,-27.22 v 0 m 65.17,353.55 v 0 l 4.63,25.11 -4.63,-25.11" /><path
         id="path244"
         style="fill:#fcd9e5;fill-opacity:1;fill-rule:nonzero;stroke:none"
         d="m 3661.15,1020.93 c -0.97,0 -1.95,0.08 -2.93,0.23 l -20.55,3.79 -20.33,3.75 -61,11.24 -21.03,3.88 -24.48,4.51 -57.53,10.61 -374.8,69.08 -73.15,13.49 -23.1,4.26 -8.61,1.58 -116.08,21.4 -20,3.69 -252.37,46.51 -108.5,20 -21.55,3.98 v 373.3 l 20.77,112.69 h 238.96 c 44.08,0 84.95,15.48 118.53,41.86 l 266.26,-49.08 1.83,-0.17 c 4.73,0 8.94,3.37 9.82,8.19 1.01,5.44 -2.58,10.65 -8.01,11.65 l -250.93,46.25 c 17.61,17.59 32.53,38.5 43.97,61.86 52.62,-11.76 107.29,-17.96 163.39,-17.96 86.9,0 171.45,14.65 251.18,43.11 l 316.78,-58.39 164.74,-166.54 -5.01,-27.22 -7.31,-39.62 -14.78,-80.22 -6.7,-36.35 -3.67,-19.87 -43.51,-236.04 -5.09,-27.64 -5,-27.12 -4.43,-24.06 -10.69,-57.95 -4.43,-24.05 -2.55,-13.82 c -1.78,-8.73 -9.48,-14.81 -18.11,-14.81 m -58.06,820.18 -256.55,47.29 c 53.68,22.37 104.94,51.19 152.97,86.19 -0.46,-7.77 2.28,-15.7 8.22,-21.64 l 34.77,-34.77 c 10.37,17.38 38.79,49.82 70.55,82.58 v 0 c -31.76,-32.76 -60.18,-65.2 -70.55,-82.58 -3.74,-6.25 -5.18,-10.59 -3.54,-12.24 l 64.13,-64.83 m 249.5,134.92 -122.15,123.47 v 0 c -0.42,0.43 -1.04,0.64 -1.83,0.64 -2.73,0 -7.56,-2.44 -13.95,-6.78 l -33.26,33.26 c -5.48,5.49 -12.64,8.21 -19.8,8.21 -0.08,0 -0.15,0 -0.22,0 48.94,65.94 86.12,138.12 110.83,214.44 0.45,0.87 0.78,1.81 0.97,2.81 0.02,0.14 0.05,0.27 0.06,0.4 20.67,64.85 32.37,132.7 34.66,202.24 1.9,1.45 3.29,3.59 3.76,6.13 0.67,3.67 -0.74,7.23 -3.41,9.47 0.04,3.26 0.07,6.53 0.07,9.79 0,75.85 -11.35,149.12 -32.43,218.18 l 202.55,-37.34 c 10.06,-1.85 16.71,-11.51 14.86,-21.56 l -136.08,-738.25 -4.63,-25.11" /><path
         id="path246"
         style="fill:#ffffff;fill-opacity:1;fill-rule:nonzero;stroke:none"
         d="m 3801.83,2552.66 -1.83,0.17 -313.14,57.72 c -5.43,1 -9.02,6.21 -8.02,11.64 1.01,5.43 6.15,9.02 11.65,8.02 l 313.15,-57.72 c 5.43,-1 9.02,-6.21 8.02,-11.64 -0.89,-4.82 -5.09,-8.19 -9.83,-8.19" /><path
         id="path248"
         style="fill:#ffffff;fill-opacity:1;fill-rule:nonzero;stroke:none"
         d="m 3783.39,2452.63 -1.82,0.16 -313.15,57.73 c -5.43,1 -9.02,6.21 -8.02,11.64 1.01,5.42 6.17,9.02 11.66,8.02 l 313.14,-57.72 c 5.43,-1 9.02,-6.22 8.02,-11.65 -0.89,-4.81 -5.09,-8.18 -9.83,-8.18" /><path
         id="path250"
         style="fill:#ffffff;fill-opacity:1;fill-rule:nonzero;stroke:none"
         d="m 3763.35,2343.9 -1.82,0.16 -313.15,57.72 c -5.43,1 -9.02,6.22 -8.01,11.65 0.99,5.42 6.14,9.01 11.65,8.02 l 313.14,-57.72 c 5.43,-1 9.02,-6.22 8.02,-11.65 -0.89,-4.82 -5.1,-8.18 -9.83,-8.18" /><path
         id="path252"
         style="fill:#6c92d3;fill-opacity:1;fill-rule:nonzero;stroke:none"
         d="m 3259.15,2284.94 -511.48,94.28 c -10.89,2 -18.08,12.46 -16.08,23.34 l 100.7,546.28 c 2,10.89 12.46,18.09 23.34,16.08 l 511.48,-94.28 c 10.89,-2.01 18.09,-12.46 16.09,-23.35 l -100.7,-546.28 c -2.01,-10.88 -12.46,-18.08 -23.35,-16.07" /><path
         id="path254"
         style="fill:#3c419f;fill-opacity:1;fill-rule:nonzero;stroke:none"
         d="m 2976.92,2625.6 c -3.88,0 -7.81,0.35 -11.76,1.08 l -7.63,1.41 c -40.49,7.46 -67.38,46.49 -59.92,87 l 19.24,104.39 c 1.5,8.15 9.38,13.55 17.47,12.03 8.16,-1.5 13.54,-9.32 12.04,-17.47 l -19.24,-104.39 c -4.47,-24.24 11.62,-47.59 35.85,-52.06 l 7.63,-1.41 c 18.85,-3.5 36.99,9.03 40.46,27.88 l 48.71,264.22 c 3.58,19.44 -9.32,38.18 -28.76,41.77 l -13.05,2.4 c -20.72,3.81 -40.53,-9.9 -44.35,-30.54 l -1.19,-6.52 c -1.52,-8.15 -9.43,-13.53 -17.47,-12.03 -8.15,1.5 -13.54,9.32 -12.04,17.46 l 1.2,6.53 c 6.82,36.92 42.4,61.42 79.28,54.6 l 13.05,-2.4 c 35.71,-6.58 59.41,-40.99 52.84,-76.7 l -48.71,-264.23 c -5.75,-31.16 -33.05,-53.02 -63.65,-53.02" /><path
         id="path256"
         style="fill:#ffffff;fill-opacity:1;fill-rule:nonzero;stroke:none"
         d="m 3028.99,2847.47 -0.92,0.08 -199.89,36.85 c -2.72,0.5 -4.51,3.1 -4.01,5.82 0.5,2.72 3.07,4.56 5.82,4.01 l 199.9,-36.84 c 2.71,-0.5 4.51,-3.11 4.01,-5.83 -0.45,-2.41 -2.55,-4.09 -4.91,-4.09" /><path
         id="path258"
         style="fill:#ffffff;fill-opacity:1;fill-rule:nonzero;stroke:none"
         d="m 3640.21,1814.1 -1.83,0.17 -956.83,176.37 c -5.43,1 -9.03,6.21 -8.02,11.65 1.01,5.42 6.14,9.05 11.65,8.02 l 956.84,-176.37 c 5.43,-1 9.02,-6.22 8.01,-11.66 -0.88,-4.81 -5.08,-8.18 -9.82,-8.18" /><path
         id="path260"
         style="fill:#ffffff;fill-opacity:1;fill-rule:nonzero;stroke:none"
         d="m 3571.8,1442.97 -1.82,0.16 -956.85,176.37 c -5.43,1 -9.02,6.21 -8.02,11.65 1,5.42 6.15,9.06 11.65,8.02 l 956.85,-176.37 c 5.43,-0.99 9.02,-6.21 8.02,-11.65 -0.89,-4.81 -5.1,-8.18 -9.83,-8.18" /><path
         id="path262"
         style="fill:#ffffff;fill-opacity:1;fill-rule:nonzero;stroke:none"
         d="m 3101.49,1721.53 -1.83,0.17 -452.32,83.38 c -5.43,0.99 -9.03,6.21 -8.02,11.65 1.01,5.42 6.15,9.07 11.65,8.02 l 452.33,-83.38 c 5.43,-1 9.02,-6.21 8.01,-11.65 -0.88,-4.82 -5.09,-8.19 -9.82,-8.19" /><path
         id="path264"
         style="fill:#ffffff;fill-opacity:1;fill-rule:nonzero;stroke:none"
         d="m 3163.81,2059.65 -1.82,0.16 -452.33,83.37 c -5.43,1.01 -9.02,6.22 -8.01,11.65 1,5.42 6.16,9.01 11.65,8.02 l 452.32,-83.37 c 5.43,-0.99 9.02,-6.21 8.02,-11.65 -0.89,-4.81 -5.09,-8.18 -9.83,-8.18" /><path
         id="path266"
         style="fill:#ffffff;fill-opacity:1;fill-rule:nonzero;stroke:none"
         d="m 3606.27,1629.98 -1.82,0.17 -430.97,79.44 c -5.43,1 -9.02,6.21 -8.02,11.65 1,5.42 6.15,9.04 11.65,8.02 l 430.97,-79.45 c 5.43,-0.99 9.02,-6.21 8.02,-11.65 -0.89,-4.81 -5.09,-8.18 -9.83,-8.18" /><path
         id="path268"
         style="fill:#6c92d3;fill-opacity:1;fill-rule:nonzero;stroke:none"
         d="m 3504.96,3595.52 h -531.81 c -18.41,0 -33.33,14.93 -33.33,33.33 v 177.87 c 0,18.41 14.92,33.33 33.33,33.33 h 531.81 c 18.4,0 33.33,-14.92 33.33,-33.33 v -177.87 c 0,-18.4 -14.93,-33.33 -33.33,-33.33" /><path
         id="path270"
         style="fill:#f795b4;fill-opacity:1;fill-rule:nonzero;stroke:none"
         d="m 3905.58,3328.98 h -743.9 c -18.4,0 -33.33,14.92 -33.33,33.33 v 264.53 c 0,18.4 14.93,33.32 33.33,33.32 h 743.9 c 18.41,0 33.33,-14.92 33.33,-33.32 v -264.53 c 0,-18.41 -14.92,-33.33 -33.33,-33.33" /><path
         id="path272"
         style="fill:#ffffff;fill-opacity:1;fill-rule:nonzero;stroke:none"
         d="m 3326.45,3398.99 h 823.75 c 24.89,0 45.25,-20.36 45.25,-45.25 V 3101.4 c 0,-24.89 -20.36,-45.25 -45.25,-45.25 h -823.75 c -24.89,0 -45.25,20.36 -45.25,45.25 v 252.34 c 0,24.89 20.36,45.25 45.25,45.25" /><path
         id="path274"
         style="fill:#958acc;fill-opacity:1;fill-rule:nonzero;stroke:none"
         d="m 4150.2,3056.15 h -513.16 c -91.79,111.11 -214.99,195.4 -355.84,239.11 v 58.48 c 0,24.89 20.36,45.25 45.25,45.25 h 823.75 c 24.89,0 45.25,-20.36 45.25,-45.25 V 3101.4 c 0,-24.89 -20.36,-45.25 -45.25,-45.25" /><path
         id="path276"
         style="fill:#ffffff;fill-opacity:1;fill-rule:nonzero;stroke:none"
         d="m 3905.23,3256.85 c -16.39,0 -29.72,-13.33 -29.72,-29.72 0,-16.38 13.33,-29.71 29.72,-29.71 16.39,0 29.72,13.33 29.72,29.71 0,16.39 -13.33,29.72 -29.72,29.72 z m 0,-69.43 c -21.9,0 -39.72,17.81 -39.72,39.71 0,21.9 17.82,39.72 39.72,39.72 21.9,0 39.72,-17.82 39.72,-39.72 0,-21.9 -17.82,-39.71 -39.72,-39.71" /><path
         id="path278"
         style="fill:#ffffff;fill-opacity:1;fill-rule:nonzero;stroke:none"
         d="m 3741.37,3256.85 c -16.38,0 -29.71,-13.33 -29.71,-29.72 0,-16.38 13.33,-29.71 29.71,-29.71 16.39,0 29.72,13.33 29.72,29.71 0,16.39 -13.33,29.72 -29.72,29.72 z m 0,-69.43 c -21.9,0 -39.71,17.81 -39.71,39.71 0,21.9 17.81,39.72 39.71,39.72 21.91,0 39.72,-17.82 39.72,-39.72 0,-21.9 -17.81,-39.71 -39.72,-39.71" /><path
         id="path280"
         style="fill:#ffffff;fill-opacity:1;fill-rule:nonzero;stroke:none"
         d="m 3588.62,3256.85 c -16.39,0 -29.72,-13.33 -29.72,-29.72 0,-16.38 13.33,-29.71 29.72,-29.71 16.38,0 29.71,13.33 29.71,29.71 0,16.39 -13.33,29.72 -29.71,29.72 z m 0,-69.43 c -21.91,0 -39.72,17.81 -39.72,39.71 0,21.9 17.81,39.72 39.72,39.72 21.9,0 39.71,-17.82 39.71,-39.72 0,-21.9 -17.81,-39.71 -39.71,-39.71" /><path
         id="path282"
         style="fill:#ffffff;fill-opacity:1;fill-rule:nonzero;stroke:none"
         d="m 1322.53,3816.1 h 1276.42 c 25.71,0 46.55,-20.85 46.55,-46.55 V 1889.51 c 0,-88.69 -71.89,-160.58 -160.58,-160.58 h -886.27 c -188.99,0 -342.19,153.2 -342.19,342.18 v 1678.91 c 0,36.49 29.58,66.08 66.07,66.08" /><path
         id="path284"
         style="fill:#bab0de;fill-opacity:1;fill-rule:nonzero;stroke:none"
         d="m 1256.46,3750.02 v 49.83 c 0,8.97 7.27,16.25 16.24,16.25 h 49.83 c -36.49,0 -66.07,-29.59 -66.07,-66.08" /><path
         id="path286"
         style="fill:#cbc2e6;fill-opacity:1;fill-rule:nonzero;stroke:none"
         d="m 1379.83,2087.52 c -18.98,31.23 -53.33,52.1 -92.55,52.1 h -30.82 v 1610.4 c 0,36.49 29.58,66.08 66.07,66.08 h 1276.42 v 0 H 1390.86 c -6.09,0 -11.03,-4.94 -11.03,-11.03 V 2087.52" /><path
         id="path288"
         style="fill:#a6a2d8;fill-opacity:1;fill-rule:nonzero;stroke:none"
         d="m 2645.5,3203.37 v 587.77 c 0,13.79 -11.17,24.96 -24.96,24.96 h 5.23 c 10.9,0 19.73,-8.84 19.73,-19.74 v -592.99 0" /><path
         id="path290"
         style="fill:#8883c9;fill-opacity:1;fill-rule:nonzero;stroke:none"
         d="m 2645.5,3203.37 v 566.18 c 0,25.7 -20.84,46.55 -46.55,46.55 h 21.59 c 13.79,0 24.96,-11.17 24.96,-24.96 v -587.77 0" /><path
         id="path292"
         style="fill:#938ecf;fill-opacity:1;fill-rule:nonzero;stroke:none"
         d="m 1766.7,1852.83 h -263.36 c -59.55,0 -107.83,48.28 -107.83,107.84 v 70.72 c 0,20.55 -5.73,39.76 -15.68,56.13 v 1717.55 c 0,6.09 4.94,11.03 11.03,11.03 h 1208.09 c 25.71,0 46.55,-20.85 46.55,-46.55 v -566.18 c -130.45,-86.98 -232.16,-213.76 -287.65,-362.89 H 1857 c -5.52,0 -10,-4.48 -10,-10 0,-5.52 4.48,-10 10,-10 h 493.73 c -18.67,-54.91 -31.12,-112.64 -36.52,-172.4 h -696.72 c -5.53,0 -10,-4.48 -10,-10 0,-5.52 4.47,-10 10,-10 h 695.18 c -1.01,-15.87 -1.52,-31.85 -1.52,-47.97 0,-207.04 84.47,-394.71 220.78,-530.36 h -738.36 v -88.32 c 0,-39.23 -9.71,-76.18 -26.87,-108.6" /><path
         id="path294"
         style="fill:#5e56b0;fill-opacity:1;fill-rule:nonzero;stroke:none"
         d="m 1573.68,1729.28 v -0.36 h 1115.68 c 128.41,0 232.51,104.1 232.51,232.51 v 88.32 h -1128.3 v -88.32 c 0,-124.17 -97.35,-225.6 -219.89,-232.15" /><path
         id="path296"
         style="fill:#c9add2;fill-opacity:1;fill-rule:nonzero;stroke:none"
         d="m 2714.87,1728.92 h -238.96 213.45 c 50.5,0 97.25,16.1 135.38,43.46 l 8.66,-1.6 c -33.58,-26.38 -74.45,-41.86 -118.53,-41.86 m 137.5,58.7 -7.11,1.31 c 19.33,17.48 35.69,38.14 48.28,61.18 0.92,-0.21 1.88,-0.42 2.8,-0.63 -11.44,-23.36 -26.36,-44.27 -43.97,-61.86" /><path
         id="path298"
         style="fill:#cccbe6;fill-opacity:1;fill-rule:nonzero;stroke:none"
         d="m 2833.4,1770.78 -8.66,1.6 c 7.16,5.13 14.01,10.66 20.52,16.55 l 7.11,-1.31 c -6.02,-6.01 -12.36,-11.64 -18.97,-16.84" /><path
         id="path300"
         style="fill:#5450ac;fill-opacity:1;fill-rule:nonzero;stroke:none"
         d="m 2689.36,1728.92 h -234.22 v 23.1 c 0,55.67 -45.13,100.81 -100.8,100.81 h -460.9 c 15.27,32.42 23.92,69.37 23.92,108.6 v 88.32 h 614.57 c 97.86,-97.39 222.42,-167.97 361.61,-199.64 -12.59,-23.04 -28.95,-43.7 -48.28,-61.18 -6.51,-5.89 -13.36,-11.42 -20.52,-16.55 -38.13,-27.36 -84.88,-43.46 -135.38,-43.46" /><path
         id="path302"
         style="fill:#ffffff;fill-opacity:1;fill-rule:nonzero;stroke:none"
         d="m 2434.67,2290.32 h -802.19 c -5.52,0 -10,4.48 -10,10 0,5.52 4.48,10 10,10 h 802.19 c 5.53,0 10,-4.48 10,-10 0,-5.52 -4.47,-10 -10,-10" /><path
         id="path304"
         style="fill:#ffffff;fill-opacity:1;fill-rule:nonzero;stroke:none"
         d="m 2451.5,2628.08 h -834.01 c -5.53,0 -10,4.48 -10,10 0,5.52 4.47,10 10,10 h 834.01 c 5.53,0 10,-4.48 10,-10 0,-5.52 -4.47,-10 -10,-10" /><path
         id="path306"
         style="fill:#ffffff;fill-opacity:1;fill-rule:nonzero;stroke:none"
         d="m 2033.57,2459.35 h -426.16 c -5.52,0 -10,4.47 -10,10 0,5.52 4.48,10 10,10 h 426.16 c 5.53,0 10,-4.48 10,-10 0,-5.53 -4.47,-10 -10,-10" /><path
         id="path308"
         style="fill:#ffffff;fill-opacity:1;fill-rule:nonzero;stroke:none"
         d="M 2001.29,2459.35 H 1639.7 c -5.53,0 -10,4.47 -10,10 0,5.52 4.47,10 10,10 h 361.59 c 5.52,0 10,-4.48 10,-10 0,-5.53 -4.48,-10 -10,-10" /><path
         id="path310"
         style="fill:#ffffff;fill-opacity:1;fill-rule:nonzero;stroke:none"
         d="m 2172.3,2989.22 h -549.01 c -5.53,0 -10,4.48 -10,10 0,5.52 4.47,10 10,10 h 549.01 c 5.52,0 10,-4.48 10,-10 0,-5.52 -4.48,-10 -10,-10" /><path
         id="path312"
         style="fill:#ffffff;fill-opacity:1;fill-rule:nonzero;stroke:none"
         d="m 2426.81,2989.22 h -167.23 c -5.53,0 -10,4.48 -10,10 0,5.52 4.47,10 10,10 h 167.23 c 5.53,0 10,-4.48 10,-10 0,-5.52 -4.47,-10 -10,-10" /><path
         id="path314"
         style="fill:#ffffff;fill-opacity:1;fill-rule:nonzero;stroke:none"
         d="M 2451.5,2820.48 H 1857 c -5.52,0 -10,4.48 -10,10 0,5.52 4.48,10 10,10 h 594.5 c 5.53,0 10,-4.48 10,-10 0,-5.52 -4.47,-10 -10,-10" /><path
         id="path316"
         style="fill:#ffffff;fill-opacity:1;fill-rule:nonzero;stroke:none"
         d="m 1798.28,2820.48 h -180.79 c -5.53,0 -10,4.48 -10,10 0,5.52 4.47,10 10,10 h 180.79 c 5.52,0 10,-4.48 10,-10 0,-5.52 -4.48,-10 -10,-10" /><path
         id="path318"
         style="fill:#ffffff;fill-opacity:1;fill-rule:nonzero;stroke:none"
         d="m 2434.67,3132.09 h -802.19 c -5.52,0 -10,4.48 -10,10 0,5.53 4.48,10 10,10 h 802.19 c 5.53,0 10,-4.47 10,-10 0,-5.52 -4.47,-10 -10,-10" /><path
         id="path320"
         style="fill:#ffffff;fill-opacity:1;fill-rule:nonzero;stroke:none"
         d="m 2434.67,3469.85 h -802.19 c -5.52,0 -10,4.48 -10,10 0,5.53 4.48,10 10,10 h 802.19 c 5.53,0 10,-4.47 10,-10 0,-5.52 -4.47,-10 -10,-10" /><path
         id="path322"
         style="fill:#ffffff;fill-opacity:1;fill-rule:nonzero;stroke:none"
         d="m 1926.9,3301.11 h -303.61 c -5.53,0 -10,4.48 -10,10 0,5.53 4.47,10 10,10 h 303.61 c 5.52,0 10,-4.47 10,-10 0,-5.52 -4.48,-10 -10,-10" /><path
         id="path324"
         style="fill:#ffffff;fill-opacity:1;fill-rule:nonzero;stroke:none"
         d="m 2428.57,3301.11 h -361.59 c -5.52,0 -10,4.48 -10,10 0,5.53 4.48,10 10,10 h 361.59 c 5.53,0 10,-4.47 10,-10 0,-5.52 -4.47,-10 -10,-10" /><path
         id="path326"
         style="fill:#ede9f6;fill-opacity:1;fill-rule:nonzero;stroke:none"
         d="m 2645.5,2648.96 v 125.45 c 10.15,23.14 21.98,45.33 35.38,66.48 l -35.38,-191.93 m 949.6,229.34 -416.91,247.18 c -2.97,1.76 -6.22,2.59 -9.43,2.59 -6.32,0 -12.48,-3.24 -15.94,-9.07 l -74.71,-126.01 c -9.59,13.45 -24.19,23.34 -41.67,26.56 l -13.05,2.4 c -4.15,0.77 -8.29,1.14 -12.37,1.14 -32.16,0 -60.86,-22.98 -66.91,-55.74 l -1.2,-6.53 c -0.6,-3.25 -0.1,-6.45 1.23,-9.21 l -136.53,25.17 c 82.72,60.88 184.83,96.89 295.19,96.89 22.09,0 40,17.91 40,40 0,22.09 -17.91,40 -40,40 -185.7,0 -351.26,-87.87 -457.3,-224.21 v 102.02 c 109.17,100.27 254.67,161.55 414.23,161.55 78.06,0 152.74,-14.67 221.47,-41.39 v -50.24 0 c 0,-24.89 20.36,-45.25 45.25,-45.25 h 118.95 c 60.46,-49.08 111.46,-109.46 149.7,-177.85 m -552.31,55.12 -74.84,13.8 c 2.24,2.11 3.86,4.92 4.47,8.17 l 1.19,6.52 c 3.39,18.32 19.37,31.18 37.41,31.18 2.29,0 4.61,-0.21 6.94,-0.64 l 13.05,-2.4 c 14.81,-2.73 25.82,-14.25 28.65,-28.18 l -16.87,-28.45" /><path
         id="path328"
         style="fill:#f9acc4;fill-opacity:1;fill-rule:nonzero;stroke:none"
         d="m 3620.76,2826.89 -534.69,98.56 3.21,17.4 c 3.36,18.23 -1.18,36.12 -11.17,50.14 l 74.71,126.01 c 3.46,5.83 9.62,9.07 15.94,9.07 3.21,0 6.46,-0.83 9.43,-2.59 L 3595.1,2878.3 c 9.33,-16.67 17.9,-33.83 25.66,-51.41 m -564.2,104 -13.77,2.53 16.87,28.45 c 0.88,-4.36 0.97,-8.95 0.11,-13.59 l -3.21,-17.39" /><path
         id="path330"
         style="fill:#ffffff;fill-opacity:1;fill-rule:nonzero;stroke:none"
         d="m 3620.76,2826.88 -534.69,98.56 v 0.01 l 534.69,-98.56 v -0.01 m -564.2,104 -88.61,16.34 v 0 l 74.84,-13.8 13.77,-2.53 v -0.01 m -112.41,20.72 -136.55,25.17 0.01,0.01 136.53,-25.17 c 0,0 0.01,0 0.01,-0.01" /><path
         id="path332"
         style="fill:#f2d2eb;fill-opacity:1;fill-rule:nonzero;stroke:none"
         d="m 2645.5,2648.96 v 0 l 35.38,191.93 v 0.01 l -35.38,-191.94" /><path
         id="path334"
         style="fill:#fde1ea;fill-opacity:1;fill-rule:nonzero;stroke:none"
         d="m 3059.73,1967.19 c -47.38,0 -93.54,5.4 -137.86,15.63 v 66.93 h -169.12 c -38.61,22.43 -74.56,48.96 -107.25,78.98 v 520.23 l 35.38,191.94 c 33.44,52.79 76.52,98.92 126.72,135.87 l 136.55,-25.17 c 0.2,-0.41 0.42,-0.82 0.65,-1.21 l -88.83,16.37 c -1.23,0.23 -2.45,0.34 -3.65,0.34 -9.49,0 -17.91,-6.76 -19.7,-16.42 l -96.96,-526 -4.07,-22.12 c -0.01,-0.02 -0.01,-0.05 -0.02,-0.08 l -5.31,-28.79 c -2,-10.89 5.2,-21.34 16.09,-23.35 l 536.52,-98.9 c 1.23,-0.22 2.46,-0.33 3.66,-0.33 9.48,0 17.91,6.76 19.68,16.41 l 106.36,577 c 2.01,10.88 -5.19,21.33 -16.07,23.34 l -306.62,56.52 0.19,1.06 534.69,-98.56 c 31.26,-70.77 49.49,-148.52 51.67,-230.2 l -181.94,33.53 c -0.61,0.11 -1.23,0.17 -1.83,0.17 -4.77,0 -8.92,-3.37 -9.82,-8.19 -1,-5.43 2.59,-10.64 8.02,-11.64 l 185.78,-34.25 c -0.17,-27.78 -2.2,-55.19 -5.97,-81.99 l -194.61,35.87 c -0.62,0.12 -1.23,0.17 -1.83,0.17 -4.77,0 -8.93,-3.38 -9.83,-8.19 -1,-5.43 2.59,-10.64 8.02,-11.64 l 195.13,-35.97 c -5.25,-30.13 -12.72,-59.54 -22.21,-88 l -189.32,34.9 c -0.62,0.11 -1.23,0.16 -1.83,0.16 -4.78,0 -8.94,-3.36 -9.82,-8.18 -1.01,-5.43 2.58,-10.65 8.01,-11.65 l 186.23,-34.33 C 3547.98,2134 3322.96,1967.19 3059.73,1967.19 m -348.25,195.82 c -4.77,0 -8.94,-3.36 -9.83,-8.18 -1.01,-5.43 2.58,-10.64 8.01,-11.65 l 452.33,-83.37 1.82,-0.16 c 4.74,0 8.94,3.37 9.83,8.18 1,5.44 -2.59,10.66 -8.02,11.65 l -452.32,83.37 c -0.62,0.11 -1.22,0.16 -1.82,0.16 m 344.89,766.81 -89.47,16.49 c 0.36,0.29 0.71,0.59 1.05,0.91 l 88.61,-16.34 -0.19,-1.06" /><path
         id="path336"
         style="fill:#ffffff;fill-opacity:1;fill-rule:nonzero;stroke:none"
         d="m 3672.64,2576.3 -185.78,34.25 c -5.43,1 -9.02,6.21 -8.02,11.64 0.9,4.82 5.05,8.19 9.82,8.19 0.6,0 1.22,-0.06 1.83,-0.17 l 181.94,-33.53 c 0.15,-5.52 0.22,-11.02 0.22,-16.57 0,-1.28 0,-2.53 -0.01,-3.81" /><path
         id="path338"
         style="fill:#ffffff;fill-opacity:1;fill-rule:nonzero;stroke:none"
         d="m 3663.55,2474.55 -195.13,35.97 c -5.43,1 -9.02,6.21 -8.02,11.64 0.9,4.81 5.06,8.19 9.83,8.19 0.6,0 1.21,-0.05 1.83,-0.17 l 194.61,-35.87 c -0.94,-6.64 -1.97,-13.2 -3.12,-19.76" /><path
         id="path340"
         style="fill:#ffffff;fill-opacity:1;fill-rule:nonzero;stroke:none"
         d="m 3634.61,2367.45 -186.23,34.33 c -5.43,1 -9.02,6.22 -8.01,11.65 0.88,4.82 5.04,8.18 9.82,8.18 0.6,0 1.21,-0.05 1.83,-0.16 l 189.32,-34.9 c -2.14,-6.42 -4.38,-12.77 -6.73,-19.1" /><path
         id="path342"
         style="fill:#ead0e4;fill-opacity:1;fill-rule:nonzero;stroke:none"
         d="m 3282.53,2251.11 c -1.2,0 -2.43,0.11 -3.66,0.33 l -536.52,98.9 c -10.89,2.01 -18.09,12.46 -16.09,23.35 l 5.31,28.79 c -1.95,-10.85 5.24,-21.26 16.1,-23.26 l 511.48,-94.28 c 1.23,-0.23 2.45,-0.34 3.66,-0.34 9.48,0 17.91,6.76 19.69,16.41 l 91.2,494.74 v 0 l 6.34,34.43 3.16,17.11 c 0,0.04 0.01,0.07 0.02,0.1 l 0.21,1.17 c 1.88,10.19 -4.86,19.97 -15.05,21.85 l -282.84,52.13 0.34,1.84 306.62,-56.52 c 10.88,-2.01 18.08,-12.46 16.07,-23.34 l -106.36,-577 c -1.77,-9.65 -10.2,-16.41 -19.68,-16.41 m -546.87,173.57 96.96,526 c 1.79,9.66 10.21,16.42 19.7,16.42 1.2,0 2.42,-0.11 3.65,-0.34 l 88.83,-16.37 c 0.47,-0.78 1.01,-1.52 1.61,-2.2 l -91.36,16.84 c -1.19,0.22 -2.38,0.32 -3.55,0.32 -9.2,0 -17.38,-6.55 -19.1,-15.93 l -1.26,-6.83 -95.48,-517.91 m 320.37,503.3 -91.42,16.85 c 0.8,0.43 1.57,0.92 2.29,1.48 l 89.47,-16.49 -0.34,-1.84" /><path
         id="path344"
         style="fill:#89ade0;fill-opacity:1;fill-rule:nonzero;stroke:none"
         d="m 3262.81,2284.6 c -1.21,0 -2.43,0.11 -3.66,0.34 l -511.48,94.28 c -10.86,2 -18.05,12.41 -16.1,23.26 0.01,0.03 0.01,0.06 0.02,0.08 l 4.07,22.12 95.48,517.91 -8.35,-45.3 220.1,-40.57 -31.83,-172.66 c -3.08,-16.72 -17.7,-28.47 -34.11,-28.47 -2.1,0 -4.22,0.2 -6.35,0.59 l -7.63,1.41 c -24.23,4.47 -40.32,27.82 -35.85,52.06 l 19.24,104.39 c 1.5,8.15 -3.88,15.97 -12.04,17.47 -0.92,0.17 -1.83,0.25 -2.74,0.25 -7.05,0 -13.4,-5.06 -14.73,-12.28 l -19.24,-104.39 c -7.46,-40.51 19.43,-79.54 59.92,-87 l 7.63,-1.41 c 3.95,-0.73 7.88,-1.08 11.76,-1.08 30.6,0 57.9,21.86 63.65,53.02 l 31.83,172.66 301.3,-55.53 -91.2,-494.74 c -1.78,-9.65 -10.21,-16.41 -19.69,-16.41 m -433.78,609.73 c -2.37,0 -4.42,-1.71 -4.86,-4.11 -0.5,-2.72 1.29,-5.32 4.01,-5.82 l 199.89,-36.85 0.92,-0.08 c 2.36,0 4.46,1.68 4.91,4.09 0.5,2.72 -1.3,5.33 -4.01,5.83 l -199.9,36.84 c -0.32,0.07 -0.65,0.1 -0.96,0.1 m 551.01,-64.15 3.18,17.21 c -0.01,-0.03 -0.02,-0.06 -0.02,-0.1 l -3.16,-17.11" /><path
         id="path346"
         style="fill:#ead4e6;fill-opacity:1;fill-rule:nonzero;stroke:none"
         d="m 3373.7,2795.75 v 0 l 6.34,34.43 -6.34,-34.43 m 9.52,51.64 c 1.94,10.85 -5.25,21.25 -16.11,23.25 l -281.57,51.9 v 0 l 282.84,-52.13 c 10.19,-1.88 16.93,-11.66 15.05,-21.85 l -0.21,-1.17" /><path
         id="path348"
         style="fill:#90b3e3;fill-opacity:1;fill-rule:nonzero;stroke:none"
         d="m 3373.7,2795.75 -301.3,55.53 13.14,71.26 281.57,-51.9 c 10.86,-2 18.05,-12.4 16.11,-23.25 l -3.18,-17.21 -6.34,-34.43" /><path
         id="path350"
         style="fill:#ead4e6;fill-opacity:1;fill-rule:nonzero;stroke:none"
         d="m 3056.03,2927.98 -91.43,16.85 h 0.01 l 91.42,-16.85 v 0 m -224.89,14.61 1.26,6.83 c 1.72,9.38 9.9,15.93 19.1,15.93 1.17,0 2.36,-0.1 3.55,-0.32 l 91.36,-16.84 v 0 l -90.78,16.73 c -1.23,0.23 -2.45,0.34 -3.65,0.34 -9.48,0 -17.91,-6.76 -19.69,-16.42 l -1.15,-6.25" /><path
         id="path352"
         style="fill:#90b3e3;fill-opacity:1;fill-rule:nonzero;stroke:none"
         d="m 3042.89,2856.72 -220.1,40.57 8.35,45.3 1.15,6.25 c 1.78,9.66 10.21,16.42 19.69,16.42 1.2,0 2.42,-0.11 3.65,-0.34 l 90.78,-16.73 c 2.15,-2.44 5.1,-4.2 8.54,-4.83 0.9,-0.17 1.81,-0.25 2.7,-0.25 2.46,0 4.84,0.61 6.95,1.72 l 91.43,-16.85 -13.14,-71.26" /><path
         id="path354"
         style="fill:#6465b6;fill-opacity:1;fill-rule:nonzero;stroke:none"
         d="m 2976.92,2625.6 c -3.88,0 -7.81,0.35 -11.76,1.08 l -7.63,1.41 c -40.49,7.46 -67.38,46.49 -59.92,87 l 19.24,104.39 c 1.33,7.22 7.68,12.28 14.73,12.28 0.91,0 1.82,-0.08 2.74,-0.25 8.16,-1.5 13.54,-9.32 12.04,-17.47 l -19.24,-104.39 c -4.47,-24.24 11.62,-47.59 35.85,-52.06 l 7.63,-1.41 c 2.13,-0.39 4.25,-0.59 6.35,-0.59 16.41,0 31.03,11.75 34.11,28.47 l 31.83,172.66 13.14,71.26 v 0 l 0.34,1.84 0.19,1.06 v 0.01 l 3.21,17.39 c 0.86,4.64 0.77,9.23 -0.11,13.59 -2.83,13.93 -13.84,25.45 -28.65,28.18 l -13.05,2.4 c -2.33,0.43 -4.65,0.64 -6.94,0.64 -18.04,0 -34.02,-12.86 -37.41,-31.18 l -1.19,-6.52 c -0.61,-3.25 -2.23,-6.06 -4.47,-8.17 v 0 c -0.34,-0.32 -0.69,-0.62 -1.05,-0.91 -0.72,-0.56 -1.49,-1.05 -2.29,-1.48 h -0.01 c -2.11,-1.11 -4.49,-1.72 -6.95,-1.72 -0.89,0 -1.8,0.08 -2.7,0.25 -3.44,0.63 -6.39,2.39 -8.54,4.83 v 0 c -0.6,0.68 -1.14,1.42 -1.61,2.2 -0.23,0.39 -0.45,0.8 -0.65,1.21 0,0.01 -0.01,0.01 -0.01,0.01 -1.33,2.76 -1.83,5.96 -1.23,9.21 l 1.2,6.53 c 6.05,32.76 34.75,55.74 66.91,55.74 4.08,0 8.22,-0.37 12.37,-1.14 l 13.05,-2.4 c 17.48,-3.22 32.08,-13.11 41.67,-26.56 9.99,-14.02 14.53,-31.91 11.17,-50.14 l -3.21,-17.4 v -0.01 l -0.19,-1.06 -0.34,-1.84 v 0 l -13.14,-71.26 -31.83,-172.66 c -5.75,-31.16 -33.05,-53.02 -63.65,-53.02" /><path
         id="path356"
         style="fill:#ffffff;fill-opacity:1;fill-rule:nonzero;stroke:none"
         d="m 3028.99,2847.47 -0.92,0.08 -199.89,36.85 c -2.72,0.5 -4.51,3.1 -4.01,5.82 0.44,2.4 2.49,4.11 4.86,4.11 0.31,0 0.64,-0.03 0.96,-0.1 l 199.9,-36.84 c 2.71,-0.5 4.51,-3.11 4.01,-5.83 -0.45,-2.41 -2.55,-4.09 -4.91,-4.09" /><path
         id="path358"
         style="fill:#ffffff;fill-opacity:1;fill-rule:nonzero;stroke:none"
         d="m 3163.81,2059.65 -1.82,0.16 -452.33,83.37 c -5.43,1.01 -9.02,6.22 -8.01,11.65 0.89,4.82 5.06,8.18 9.83,8.18 0.6,0 1.2,-0.05 1.82,-0.16 l 452.32,-83.37 c 5.43,-0.99 9.02,-6.21 8.02,-11.65 -0.89,-4.81 -5.09,-8.18 -9.83,-8.18" /><path
         id="path360"
         style="fill:#aea3d9;fill-opacity:1;fill-rule:nonzero;stroke:none"
         d="m 3445.4,3056.15 h -118.95 c -24.89,0 -45.25,20.36 -45.25,45.25 v 50.24 c 59.84,-23.27 115.14,-55.66 164.2,-95.49" /><path
         id="path362"
         style="fill:#aca6da;fill-opacity:1;fill-rule:nonzero;stroke:none"
         d="m 2645.5,2128.73 c -122.06,112.11 -198.69,272.97 -198.69,451.38 0,16.15 0.63,32.13 1.86,47.97 h 2.83 c 5.53,0 10,4.48 10,10 0,5.52 -4.47,10 -10,10 h -0.94 c 16.74,151.04 88.6,285.73 194.94,383.4 v -102.02 c -76.28,-98.08 -121.75,-221.25 -121.75,-354.84 0,-22.09 17.92,-40 40,-40 22.09,0 40.01,17.91 40.01,40 0,71 14.9,138.59 41.74,199.79 v -645.68" /><path
         id="path364"
         style="fill:#7974c1;fill-opacity:1;fill-rule:nonzero;stroke:none"
         d="m 2921.87,1982.82 c -60.24,13.9 -117.08,36.69 -169.12,66.93 h 169.12 v -66.93" /><path
         id="path366"
         style="fill:#ffffff;fill-opacity:1;fill-rule:nonzero;stroke:none"
         d="m 2451.5,2628.08 h -2.83 c 0.52,6.7 1.15,13.37 1.89,20 h 0.94 c 5.53,0 10,-4.48 10,-10 0,-5.52 -4.47,-10 -10,-10" /><path
         id="path368"
         style="fill:#fbfcfe;fill-opacity:1;fill-rule:nonzero;stroke:none"
         d="m 2645.5,2774.41 v 155.05 c 106.04,136.34 271.6,224.21 457.3,224.21 22.09,0 40,-17.91 40,-40 0,-22.09 -17.91,-40 -40,-40 -110.36,0 -212.47,-36.01 -295.19,-96.89 l -98.34,18.12 -3.3,-17.9 c -0.02,-0.1 -0.04,-0.2 -0.06,-0.31 l -25.03,-135.8 c -13.4,-21.15 -25.23,-43.34 -35.38,-66.48" /><path
         id="path370"
         style="fill:#ffffff;fill-opacity:1;fill-rule:nonzero;stroke:none"
         d="m 2807.6,2976.77 -80.12,14.77 c -1.14,0.21 -2.27,0.31 -3.38,0.31 -8.66,0 -16.36,-6.09 -18.13,-14.85 l 3.3,17.9 98.34,-18.12 -0.01,-0.01" /><path
         id="path372"
         style="fill:#fcf8fc;fill-opacity:1;fill-rule:nonzero;stroke:none"
         d="m 2680.88,2840.89 25.03,135.8 c 0.02,0.11 0.04,0.21 0.06,0.31 l -25.09,-136.1 v -0.01" /><path
         id="path374"
         style="fill:#fffafb;fill-opacity:1;fill-rule:nonzero;stroke:none"
         d="m 2680.88,2840.9 25.09,136.1 c 1.77,8.76 9.47,14.85 18.13,14.85 1.11,0 2.24,-0.1 3.38,-0.31 l 80.12,-14.77 c -50.2,-36.95 -93.28,-83.08 -126.72,-135.87" /><path
         id="path376"
         style="fill:#ededf8;fill-opacity:1;fill-rule:nonzero;stroke:none"
         d="m 2563.75,2534.62 c -22.08,0 -40,17.91 -40,40 0,133.59 45.47,256.76 121.75,354.84 v -155.05 c -26.84,-61.2 -41.74,-128.79 -41.74,-199.79 0,-22.09 -17.92,-40 -40.01,-40" /><path
         id="path378"
         style="fill:#8584ca;fill-opacity:1;fill-rule:nonzero;stroke:none"
         d="m 3611.85,2868.37 -16.75,9.93 c -38.24,68.39 -89.24,128.77 -149.7,177.85 h 15.67 c 61.62,-52.03 113.04,-115.78 150.78,-187.78" /><path
         id="path380"
         style="fill:#886cb2;fill-opacity:1;fill-rule:nonzero;stroke:none"
         d="m 3632.62,2824.7 -11.86,2.19 c -7.76,17.58 -16.33,34.74 -25.66,51.41 l 16.75,-9.93 c 7.47,-14.24 14.4,-28.8 20.77,-43.67" /><path
         id="path382"
         style="fill:#8f8ecb;fill-opacity:1;fill-rule:nonzero;stroke:none"
         d="m 3632.62,2824.7 -11.86,2.18 v 0.01 l 11.86,-2.19 v 0" /><path
         id="path384"
         style="fill:#8c80c1;fill-opacity:1;fill-rule:nonzero;stroke:none"
         d="m 3059.73,1957.19 c -47.36,0 -93.5,5.31 -137.86,15.37 v 10.26 c 44.32,-10.23 90.48,-15.63 137.86,-15.63 263.23,0 488.25,166.81 574.88,400.26 l 9.99,-1.83 C 3557,2127.47 3327.88,1957.19 3059.73,1957.19 m 591.54,427.53 -9.93,1.83 c 9.49,28.46 16.96,57.87 22.21,88 l 9.84,-1.82 c -5.26,-30.13 -12.68,-59.52 -22.12,-88.01 m 25.24,107.78 -9.84,1.81 c 3.77,26.8 5.8,54.21 5.97,81.99 l 9.99,-1.84 c -0.25,-27.78 -2.33,-55.15 -6.12,-81.96 m 5.97,102.33 -10.05,1.85 c -2.18,81.68 -20.41,159.43 -51.67,230.2 l 11.86,-2.18 c 30.37,-70.86 47.96,-148.48 49.86,-229.87" /><path
         id="path386"
         style="fill:#8f8ecb;fill-opacity:1;fill-rule:nonzero;stroke:none"
         d="m 3682.63,2574.46 -9.99,1.84 c 0.01,1.28 0.01,2.53 0.01,3.81 0,5.55 -0.07,11.05 -0.22,16.57 l 10.05,-1.85 c 0.11,-4.9 0.17,-9.8 0.17,-14.72 0,-1.89 -0.01,-3.76 -0.02,-5.65" /><path
         id="path388"
         style="fill:#8f8ecb;fill-opacity:1;fill-rule:nonzero;stroke:none"
         d="m 3673.39,2472.73 -9.84,1.82 c 1.15,6.56 2.18,13.12 3.12,19.76 l 9.84,-1.81 c -0.94,-6.63 -1.98,-13.21 -3.12,-19.77" /><path
         id="path390"
         style="fill:#8f8ecb;fill-opacity:1;fill-rule:nonzero;stroke:none"
         d="m 3644.6,2365.62 -9.99,1.83 c 2.35,6.33 4.59,12.68 6.73,19.1 l 9.93,-1.83 c -2.12,-6.4 -4.35,-12.79 -6.67,-19.1" /><path
         id="path392"
         style="fill:#8584ca;fill-opacity:1;fill-rule:nonzero;stroke:none"
         d="m 2645.5,3031.48 v 13.48 c 110.16,98.28 255.34,158.07 414.23,158.07 77.97,0 152.62,-14.4 221.47,-40.67 v -10.72 c -68.73,26.72 -143.41,41.39 -221.47,41.39 -159.56,0 -305.06,-61.28 -414.23,-161.55" /><path
         id="path394"
         style="fill:#6966ba;fill-opacity:1;fill-rule:nonzero;stroke:none"
         d="m 3461.07,3056.15 h -15.67 c -49.06,39.83 -104.36,72.22 -164.2,95.49 v 10.72 c 66.05,-25.21 126.75,-61.36 179.87,-106.21" /><path
         id="path396"
         style="fill:#8c80c1;fill-opacity:1;fill-rule:nonzero;stroke:none"
         d="m 2752.75,2049.75 h -19.45 c -31.2,19.27 -60.56,41.2 -87.8,65.5 v 13.48 c 32.69,-30.02 68.64,-56.55 107.25,-78.98" /><path
         id="path398"
         style="fill:#6868ba;fill-opacity:1;fill-rule:nonzero;stroke:none"
         d="m 2645.5,2115.25 c -127.98,114.16 -208.69,280.26 -208.69,464.86 0,16.14 0.62,32.13 1.83,47.97 h 10.03 c -1.23,-15.84 -1.86,-31.82 -1.86,-47.97 0,-178.41 76.63,-339.27 198.69,-451.38 v -13.48" /><path
         id="path400"
         style="fill:#6868ba;fill-opacity:1;fill-rule:nonzero;stroke:none"
         d="m 2450.56,2648.08 h -10.06 c 17.12,157.16 92.94,296.92 205,396.88 v -13.48 c -106.34,-97.67 -178.2,-232.36 -194.94,-383.4" /><path
         id="path402"
         style="fill:#5454ae;fill-opacity:1;fill-rule:nonzero;stroke:none"
         d="m 2921.87,1972.56 c -67.67,15.35 -131.2,41.75 -188.57,77.19 h 19.45 c 52.04,-30.24 108.88,-53.03 169.12,-66.93 v -10.26" /><path
         id="path404"
         style="fill:#8f8ecb;fill-opacity:1;fill-rule:nonzero;stroke:none"
         d="m 2448.67,2628.08 h -10.03 c 0.51,6.68 1.13,13.38 1.86,20 h 10.06 c -0.74,-6.63 -1.37,-13.3 -1.89,-20" /><path
         id="path406"
         style="fill:#3c419f;fill-opacity:1;fill-rule:nonzero;stroke:none"
         d="m 3059.73,1947.19 c -349.55,0 -632.92,283.37 -632.92,632.91 0,349.56 283.37,632.92 632.92,632.92 349.55,0 632.92,-283.36 632.92,-632.92 0,-349.54 -283.37,-632.91 -632.92,-632.91 m 581.75,179.43 c 0.93,0.94 1.97,1.68 3,2.45 96.38,124.78 153.84,281.16 153.84,451.03 0,407.91 -330.68,738.59 -738.59,738.59 -407.91,0 -738.58,-330.68 -738.58,-738.59 0,-407.9 330.67,-738.58 738.58,-738.58 169.16,0 324.87,57.08 449.4,152.75 l 85.44,85.45 46.91,46.9" /><path
         id="path408"
         style="fill:#3c419f;fill-opacity:1;fill-rule:nonzero;stroke:none"
         d="m 3059.73,3203.03 c -343.48,0 -622.92,-279.44 -622.92,-622.92 0,-343.49 279.44,-622.92 622.92,-622.92 343.48,0 622.92,279.43 622.92,622.92 0,343.48 -279.44,622.92 -622.92,622.92 m 0,-1265.84 c -354.51,0 -642.92,288.41 -642.92,642.92 0,354.5 288.41,642.92 642.92,642.92 354.51,0 642.92,-288.42 642.92,-642.92 0,-354.51 -288.41,-642.92 -642.92,-642.92 m 0,1371.5 c -401.74,0 -728.58,-326.84 -728.58,-728.58 0,-401.75 326.84,-728.59 728.58,-728.59 161.5,0 314.59,51.97 442.78,150.29 l 131.9,131.88 c 0.94,0.95 1.94,1.77 2.97,2.55 98.75,128.31 150.94,281.76 150.94,443.87 0,401.74 -326.85,728.58 -728.59,728.58 m 0,-1477.17 c -412.77,0 -748.58,335.81 -748.58,748.59 0,412.76 335.81,748.58 748.58,748.58 412.78,0 748.59,-335.82 748.59,-748.58 0,-167.02 -53.92,-325.1 -155.93,-457.15 l -1.88,-1.86 c -0.98,-0.74 -1.5,-1.08 -1.94,-1.53 l -133.35,-133.22 c -131.83,-101.29 -289.34,-154.83 -455.49,-154.83" /><path
         id="path410"
         style="fill:#4e5db3;fill-opacity:1;fill-rule:nonzero;stroke:none"
         d="m 3623.22,2011.14 -28.65,28.64 c -11.03,11.03 -11.03,28.91 0,39.94 l -85.44,-85.45 -1.4,-1.39 c -11.03,-11.02 -11.03,-28.91 0,-39.93 l 34.77,-34.77 c 11.47,19.22 45,56.85 80.72,92.96" /><path
         id="path412"
         style="fill:#4e5db3;fill-opacity:1;fill-rule:nonzero;stroke:none"
         d="m 3594.57,2079.72 c -11.03,-11.03 -11.03,-28.91 0,-39.94 l 28.65,-28.64 c 34.55,34.94 71.01,68.32 91.47,82.19 l -33.29,33.29 c -10.09,10.1 -25.86,10.84 -36.92,2.45 -1.03,-0.77 -2.07,-1.51 -3,-2.45 l -46.91,-46.9" /><path
         id="path414"
         style="fill:#4750ab;fill-opacity:1;fill-rule:nonzero;stroke:none"
         d="m 3623.21,2011.15 -28.64,28.63 c -5.52,5.52 -8.27,12.74 -8.27,19.97 0,7.23 2.75,14.45 8.27,19.97 l 46.91,46.9 c 0.93,0.94 1.97,1.68 3,2.45 5.05,3.83 11.09,5.76 17.12,5.76 7.16,0 14.32,-2.72 19.8,-8.21 l 33.26,-33.26 c -20.48,-13.91 -56.96,-47.33 -91.45,-82.21" /><path
         id="path416"
         style="fill:#6c92d3;fill-opacity:1;fill-rule:nonzero;stroke:none"
         d="m 4250.56,1573.73 -520.12,525.77 c -1.87,1.9 -7.56,-0.61 -15.75,-6.17 -20.46,-13.87 -56.92,-47.25 -91.47,-82.19 -35.72,-36.11 -69.25,-73.74 -80.72,-92.96 -3.74,-6.25 -5.18,-10.59 -3.54,-12.24 l 520.12,-525.78 c 52.87,-53.46 138.6,-53.46 191.48,0 52.87,53.45 52.87,140.11 0,193.57" /><path
         id="path418"
         style="fill:#e4c3dc;fill-opacity:1;fill-rule:nonzero;stroke:none"
         d="m 3613.05,2000.76 v 0 c 3.36,3.46 6.75,6.93 10.17,10.38 v 0 c 34.55,34.94 71.01,68.32 91.47,82.19 v 0 0 l -0.03,0.03 c 6.39,4.34 11.22,6.78 13.95,6.78 0.79,0 1.41,-0.21 1.83,-0.64 -0.41,0.42 -1.02,0.63 -1.8,0.63 -2.73,0 -7.59,-2.48 -13.95,-6.8 -20.46,-13.87 -56.92,-47.25 -91.47,-82.19 -3.42,-3.45 -6.81,-6.92 -10.17,-10.38" /><path
         id="path420"
         style="fill:#4c59b1;fill-opacity:1;fill-rule:nonzero;stroke:none"
         d="m 3613.05,2000.76 c 0.08,0.09 0.16,0.17 0.24,0.26 3.28,3.38 6.59,6.76 9.92,10.13 l 0.01,-0.01 c -3.42,-3.45 -6.81,-6.92 -10.17,-10.38" /><path
         id="path422"
         style="fill:#454eaa;fill-opacity:1;fill-rule:nonzero;stroke:none"
         d="m 3623.22,2011.14 v 0 l -0.01,0.01 c 34.49,34.88 70.97,68.3 91.45,82.21 l 0.03,-0.03 c -20.46,-13.87 -56.92,-47.25 -91.47,-82.19" /><path
         id="path424"
         style="fill:#6386cd;fill-opacity:1;fill-rule:nonzero;stroke:none"
         d="m 4241.34,1376.94 c -93.46,0.06 -667.4,579.03 -628.29,623.82 3.36,3.46 6.75,6.93 10.17,10.38 34.55,34.94 71.01,68.32 91.47,82.19 6.36,4.32 11.22,6.8 13.95,6.8 0.78,0 1.39,-0.21 1.8,-0.63 v 0 l 520.12,-525.77 c 26.44,-26.73 39.65,-61.76 39.65,-96.79 0,-35.03 -13.21,-70.06 -39.65,-96.78 v 0 c -2.15,-2.18 -5.24,-3.22 -9.22,-3.22" /><path
         id="path426"
         style="fill:#ffffff;fill-opacity:1;fill-rule:nonzero;stroke:none"
         d="M 2329.95,2226.52 H 620.289 c -99.883,0 -180.855,80.97 -180.855,180.85 0,99.89 80.972,180.86 180.855,180.86 H 2329.95 c 99.88,0 180.86,-80.97 180.86,-180.86 0,-99.88 -80.98,-180.85 -180.86,-180.85" /><path
         id="path428"
         style="fill:#6c92d3;fill-opacity:1;fill-rule:nonzero;stroke:none"
         d="m 2329.95,2226.52 h -278.07 l -1.35,361.71 h 279.42 c 99.88,0 180.86,-80.97 180.86,-180.86 0,-99.88 -80.98,-180.85 -180.86,-180.85" /><path
         id="path430"
         style="fill:#ffffff;fill-opacity:1;fill-rule:nonzero;stroke:none"
         d="m 2259.58,2482.21 c -32.6,0 -59.11,-26.52 -59.11,-59.11 0,-32.59 26.51,-59.11 59.11,-59.11 15.79,0 30.63,6.15 41.79,17.31 11.16,11.17 17.32,26.01 17.32,41.8 0,32.59 -26.52,59.11 -59.11,59.11 z m 0,-138.22 c -43.62,0 -79.11,35.49 -79.11,79.11 0,43.62 35.49,79.11 79.11,79.11 43.62,0 79.11,-35.49 79.11,-79.11 0,-21.13 -8.24,-41 -23.18,-55.94 -14.94,-14.94 -34.8,-23.17 -55.93,-23.17" /><path
         id="path432"
         style="fill:#ffffff;fill-opacity:1;fill-rule:nonzero;stroke:none"
         d="m 2370.86,2301.14 c -2.55,0 -5.11,0.97 -7.07,2.93 l -62.75,62.76 c -3.91,3.9 -3.91,10.23 0,14.14 3.9,3.91 10.23,3.9 14.14,0 l 62.75,-62.76 c 3.91,-3.91 3.91,-10.24 0,-14.14 -1.95,-1.96 -4.51,-2.93 -7.07,-2.93" /><path
         id="path434"
         style="fill:#f26690;fill-opacity:1;fill-rule:nonzero;stroke:none"
         d="m 2354.34,1852.83 h -851 c -59.55,0 -107.83,48.28 -107.83,107.84 v 70.72 c 0,59.77 -48.46,108.23 -108.23,108.23 H 894.211 c -59.773,0 -108.231,-48.46 -108.231,-108.23 V 1752.02 1430.85 908.07 c 0,-55.679 45.133,-100.8 100.805,-100.8 H 2354.34 c 55.67,0 100.8,45.121 100.8,100.8 v 843.95 c 0,55.67 -45.13,100.81 -100.8,100.81" /><path
         id="path436"
         style="fill:#f26690;fill-opacity:1;fill-rule:nonzero;stroke:none"
         d="m 2260.57,1852.83 h -851 c -59.56,0 -107.84,48.28 -107.84,107.84 v 70.72 c 0,59.77 -48.45,108.23 -108.22,108.23 H 800.438 c -59.774,0 -108.231,-48.46 -108.231,-108.23 V 1752.02 1430.85 908.07 c 0,-55.679 45.133,-100.8 100.805,-100.8 H 2260.57 c 55.67,0 100.8,45.121 100.8,100.8 v 843.95 c 0,55.67 -45.13,100.81 -100.8,100.81" /><path
         id="path438"
         style="fill:#f5799e;fill-opacity:1;fill-rule:nonzero;stroke:none"
         d="m 2260.57,807.27 h -215.85 c 48.01,0 86.93,45.121 86.93,100.8 v 843.95 c 0,55.67 -38.92,100.81 -86.93,100.81 h -733.88 c -51.36,0 -92.99,48.28 -92.99,107.84 v 70.72 c 0,59.77 -41.79,108.23 -93.34,108.23 H 800.438 v 0 h 393.072 c 59.77,0 108.22,-48.46 108.22,-108.23 v -70.72 0 c 0,-59.56 48.28,-107.84 107.84,-107.84 h 851 c 55.67,0 100.8,-45.14 100.8,-100.81 V 908.07 c 0,-55.679 -45.13,-100.8 -100.8,-100.8 v 0" /><path
         id="path440"
         style="fill:#f8f7fc;fill-opacity:1;fill-rule:nonzero;stroke:none"
         d="M 1534.63,807.27 H 779.141 c -48.012,0 -86.934,45.121 -86.934,100.8 v 0 c 0,-55.679 45.133,-100.8 100.805,-100.8 h 741.618" /><path
         id="path442"
         style="fill:#ebe7f6;fill-opacity:1;fill-rule:nonzero;stroke:none"
         d="m 692.207,2031.39 c 0,16.71 3.266,32.53 9.094,46.66 h 1.453 c -6.762,-14.13 -10.547,-29.95 -10.547,-46.66 m 22.957,66.66 h -3.16 c 17.086,25.3 43.676,41.57 73.539,41.57 h 14.895 c -34.629,0 -65.461,-16.27 -85.274,-41.57" /><path
         id="path444"
         style="fill:#fcfdfe;fill-opacity:1;fill-rule:nonzero;stroke:none"
         d="m 702.754,2078.05 h -1.453 c 2.945,7.13 6.543,13.83 10.703,20 h 3.16 c -4.824,-6.17 -8.996,-12.87 -12.41,-20" /><path
         id="path446"
         style="fill:#f68aab;fill-opacity:1;fill-rule:nonzero;stroke:none"
         d="M 2044.72,807.27 H 793.012 c -55.672,0 -100.805,45.121 -100.805,100.8 v 522.78 321.17 279.37 0 c 0,59.77 48.457,108.23 108.231,108.23 h 324.072 c 51.55,0 93.34,-48.46 93.34,-108.23 v -70.72 c 0,-59.56 41.63,-107.84 92.99,-107.84 h 733.88 c 48.01,0 86.93,-45.14 86.93,-100.81 V 908.07 c 0,-55.679 -38.92,-100.8 -86.93,-100.8" /><path
         id="path448"
         style="fill:#ffffff;fill-opacity:1;fill-rule:nonzero;stroke:none"
         d="m 770.84,1740.52 c -5.524,0 -10,4.47 -10,10 v 245.39 c 0,38.01 30.918,68.92 68.922,68.92 h 289.648 c 5.52,0 10,-4.47 10,-10 0,-5.52 -4.48,-10 -10,-10 H 829.762 c -26.973,0 -48.922,-21.94 -48.922,-48.92 v -245.39 c 0,-5.53 -4.477,-10 -10,-10" /></g></g></svg>