<?xml version="1.0" encoding="utf-8"?>
<!-- Generator: Adobe Illustrator 24.0.1, SVG Export Plug-In . SVG Version: 6.00 Build 0)  -->
<svg version="1.1" id="OBJECTS" xmlns="http://www.w3.org/2000/svg" xmlns:xlink="http://www.w3.org/1999/xlink" x="0px" y="0px"
	 viewBox="0 0 420 309" style="enable-background:new 0 0 420 309;" xml:space="preserve">
<style type="text/css">
	.st0{fill:#EAF0F4;}
	.st1{fill:#C7D7E2;}
	.st2{fill:#56548C;}
	.st3{fill:#FFC8AF;}
	.st4{fill:#F08879;}
	.st5{fill:#BD884C;}
	.st6{fill:#E5A288;}
	.st7{fill:#F9FBFC;}
	.st8{fill:#606BF1;}
	.st9{fill:#EC827D;}
	.st10{fill:#EDBA3A;}
	.st11{fill:#FBD15B;}
	.st12{fill:#878CF0;}
	.st13{fill:#BEE1F4;}
	.st14{fill:#141B56;}
	.st15{fill:#4E5FDD;}
	.st16{opacity:0.2;fill:#FBD15B;}
	.st17{opacity:0.2;}
	.st18{fill:#D1D3D4;}
	.st19{fill:#112B46;}
	.st20{opacity:0.3;}
	.st21{fill:#414042;}
	.st22{fill:#EFA954;}
	.shadow{fill:#778086;}
	#gear {
    	transform-origin: center;
    	transform-box: fill-box;
		animation: gear_spin 5s linear infinite;
	}
	@keyframes gear_spin {
		to {
			transform: rotate(360deg);
		}
	}
	#arrow_1 {
		transform-origin: left bottom;
		transform-box: fill-box;
		animation: arrow_1 6s ease infinite;
	}
	@keyframes arrow_1 {
		50% {
			transform: rotate(4deg);
		}
	}
	.floating {
		transform-box: fill-box;
		animation: floating 8s ease infinite;
	}
	@keyframes floating {
		50% {
			transform: translateY(4px);
		}
	}
	#magnify {
		transform-origin: right bottom;
		transform-box: fill-box;
		animation: magnify 8s ease infinite;
	}
	@keyframes magnify {
		50% {
			transform: rotate(-5deg);
		}
	}
	#hand_1 {
		transform-origin: right bottom;
		transform-box: fill-box;
		animation: hand_1 8s ease infinite;
	}
	@keyframes hand_1 {
		50% {
			transform: rotate(-20deg);
		}
	}
	#head_1 {
		transform-origin: bottom center;
		transform-box: fill-box;
		animation: head_1 10s ease infinite;
	}
	@keyframes head_1 {
		50% {
			transform: rotate(10deg);
		}
	}
	#arm_1 {
		transform-origin: top right;
		transform-box: fill-box;
		animation: arm_1 10s ease infinite;
	}
	@keyframes arm_1 {
		50% {
			transform: rotate(-10deg);
		}
	}
	#arrow-right {
		transform-origin: top right;
		transform-box: fill-box;
		animation: arrow-right 3s ease infinite;
	}
	@keyframes arrow-right {
		50% {
			transform: translateX(3px) scale(1.1);
		}
	}
</style>
<g>
	<g>
		<path class="st0" d="M406.2,252.6H13.6c-5.5,0-10-4.5-10-10v-77.9c0-5.5,4.5-10,10-10h392.6c5.5,0,10,4.5,10,10v77.9
			C416.2,248.1,411.7,252.6,406.2,252.6z"/>
		<path class="shadow floating" style="animation-delay: 400ms;" d="M207.5,297.1H51.8c-2,0-3.6-1.6-3.6-3.6v-0.6c0-2,1.6-3.6,3.6-3.6h155.7c2,0,3.6,1.6,3.6,3.6v0.6
			C211.1,295.5,209.5,297.1,207.5,297.1z"/>
		<path class="shadow floating" style="animation-delay: 400ms;" d="M356.4,297.1H242.1c-2.7,0-4.9-2.2-4.9-4.9v-0.8c0-2.7,2.2-4.9,4.9-4.9h114.3c2.7,0,4.9,2.2,4.9,4.9v0.8
			C361.4,294.9,359.2,297.1,356.4,297.1z"/>
		<path class="shadow floating" style="animation-delay: 400ms;" d="M320,305.3H132.2c-3.1,0-5.6-2.5-5.6-5.6v-0.9c0-3.1,2.5-5.6,5.6-5.6H320c3.1,0,5.6,2.5,5.6,5.6v0.9
			C325.6,302.8,323.1,305.3,320,305.3z"/>
		<g>
			<path class="st3" d="M181.7,94.8c-1.5,1.9-13.2-5.6-18-9.2c-4.7-3.6-7.9-7.2-6.1-9.5c1.8-2.3,6.1-0.2,10.7,3.5
				C173,83.4,183.2,92.9,181.7,94.8z"/>
			<path class="st4" d="M163.1,75.9c2.5,1.2,5.3,3.7,5.3,3.7l-3.9,5.5l-2-7.8L163.1,75.9z"/>
			<path class="st3" d="M160.9,156.1c3.3,0.1,5.8-18.2,6.3-26.1c0.5-7.9-0.6-14.1-4.7-14.3c-4-0.2-5.7,6-5.8,13.9
				C156.6,137.5,157.6,155.9,160.9,156.1z"/>
			<path class="st3" d="M159.4,195.3c2.9,0.1,4.8-26,5-31.8c0.2-5.8,0-12-3.3-12.2c-3.3-0.1-4,6-4.2,11.8
				C156.7,169.1,156.4,195.2,159.4,195.3z"/>
			<path class="st3" d="M145.5,156.1c3.3,0.3,6.8-17.9,7.6-25.7c0.9-7.8,0.1-14.1-3.9-14.5c-4-0.4-5.9,5.7-6.5,13.6
				S142.2,155.8,145.5,156.1z"/>
			<path class="st3" d="M142.4,195.2c2.9,0.3,5.6-25.7,6.2-31.5c0.5-5.8,0.6-12-2.6-12.3s-4.3,5.8-4.8,11.6
				C140.5,168.8,139.5,194.9,142.4,195.2z"/>
			<path class="st3" d="M143.8,121.8h23.3c0,0-2-10.4-2.1-14.1c-0.1-3.1-1.3-12.8-1.3-12.8s2.8-4.2,2.8-6.5c0-3.3-5.7-12.5-5.7-12.5
				l-8.2-2.5l-5.6,1.3c-3.5,0.7-3.6,4-3.6,7.5c0,10.7,4.5,18,4.1,24.1C147.3,110.2,143.8,121.8,143.8,121.8z"/>
			<g id="head_1">
				<path class="st2" d="M146.2,54.9c-0.4,7.3-1.6,18.1-1.6,18.1l16.8,0l-1.2-18.9l-6.1-3.2L146.2,57.9z"/>
				<path class="st3" d="M149.9,66.5v8.4c0,0,1.5,0.9,5,0.9c1.9,0,2.3-0.9,2.3-0.9v-2.6L149.9,66.5z"/>
				<path class="st3" d="M149.8,62.1c0,0.3,0,0.5,0,0.7c0,0.1,0,0.2,0,0.3c-0.2,4.2,0.3,7.5,5.1,9.2c0.9,0.1,3.9,0.8,5.1-0.5
					c1.4-1.5,2.4-5.4,2.4-6.7V65c0-1.3-0.2-1.7-0.2-2.4c0-0.6,0.3-2.4,0.3-3.2c0-1.3-0.5-2.9-1.1-4.1c-1.1-2.2-3-3.4-5.9-3.4
					C148.7,51.8,149.6,57.5,149.8,62.1z"/>
				<path class="st2" d="M151.4,60.9c-0.6,1.5-3.1,5.7-3.1,5.7s-2.4-5.1-2.1-8.7c0.4-5.2,3.8-4.5,3.8-4.5c2.4-3.3,8.3-2.5,11.1,1
					c1.5,1.9,2.2,4.5,1.9,5.7c-0.2,0.6-0.9,2.2-0.9,2.2l0.2-1.3c-0.5-3-5.6-2.7-8.4-5.1C154,55.8,152.1,59.2,151.4,60.9z"/>
				<path class="st5" d="M152.1,58.6C152.1,58.6,152.1,58.6,152.1,58.6"/>
				<g>
					<path class="st3" d="M149.9,62.3c-0.5-0.1-1.8-0.6-1.6,1.3c0.4,3.2,2.3,3,2.3,3c-0.1-0.5-0.3-1.1-0.4-1.9
						c0.5-0.3,0.1-0.7,0-1.1c0-0.1-0.1-0.2-0.1-0.3C150.1,63.1,149.9,62.8,149.9,62.3z"/>
					<path class="st6" d="M150,63.5c0,0-0.6-0.6-1-0.3c-0.4,0.2-0.1,1.3,0.2,1.9c0.4,0.6,0.7,0.7,0.8,0.5c0.1-0.2-0.7-0.5-0.4-0.8
						c0.3-0.3,0.6-0.3,0.5-0.5C150.1,64,150,63.5,150,63.5z"/>
					<path class="st2" d="M151.4,60.4c-0.2,1.2-1.2,3.8-1.2,3.8l-0.6-2.3L151.4,60.4z"/>
				</g>
				<path class="st6" d="M156.4,72.5c-1.4-0.2-3.7-1-4.9-2.3c0,0,0.3,1.2,1.5,1.9C154.2,72.7,156.4,72.5,156.4,72.5z"/>
			</g>
			<path class="st3" d="M157.3,194.1l-0.1,3c0,0.4,0.4,0.8,0.8,0.8h8.2c0.7,0,1.8-1.4,1.1-1.7c-1.4-0.8-3.8-2-5.2-2.7
				c-0.1-0.1-1.3-24.8-2.5-24.8C158.4,168.7,157.3,194.1,157.3,194.1z"/>
			<path class="st3" d="M140.5,193.9c0,0,0,0.1,0,0.4v2.5c0,0.3,1.4,1.4,1.9,1.6c2.1,0.9,5.2,0.3,5.4-0.4c0.2-0.7-2-3.3-2-3.3
				c-0.6-0.7-0.9-1.4-0.9-1.4s-1.1-24.8-2.3-24.8C141.5,168.7,140.5,193.9,140.5,193.9z"/>
			<path class="st4" d="M167.4,197.9h-10c-0.1,0-0.2-0.1-0.2-0.2v-1.6c2,0,6.6,0.1,6.9,0c0.3-0.1,1.2-1.1,1.4-1.3
				c0.8,0.4,1.9,1.1,2.5,1.5C168.6,196.9,168.3,197.9,167.4,197.9z"/>
			<path class="st4" d="M142.5,198.4c-0.6-0.2-1.9-1.4-1.9-1.6v-1.3l1.9,1.2c1.4-1.5,3.9-1.9,4.6-0.6l0,0c0.5,0.8,0.9,1.6,0.8,2
				C147.7,198.8,144.5,199.3,142.5,198.4z"/>
			<path class="st4" d="M168.1,154.6c0,0-0.4-23.6-0.7-31.3c-0.3-7.2-2.9-29.7-2.9-29.7c1.3-1.6,2.3-4.1,2.3-5.7
				c0-0.8-1.1-3.7-2.3-6.5c-0.4-0.8,0.1-4-1.3-5.5c-1.1-1.1-5.8-1.1-5.8-1.1c2.7,0.8,3.4,4.6,3,4.8c-0.4,0.3-5.6,0.2-6.6,0
				c-1-0.2-2.7-4.9-5.3-5.3c0,0-1.7-0.2-3.6,1c-1.9,1.2-2.7,4.5-2.7,4.5s7-0.2,6.6,3.9c0,0.1,0,0.2,0,0.3
				c-0.6,4.2-3.5,11.6-3.5,11.6s1.8,4.5,1.2,9.4c-0.8,6-9.2,49.5-9.2,49.5H168.1z"/>
			<path class="st4" d="M168.1,154.6c0,0-0.4-23.6-0.7-31.3c-0.3-7.2-2.9-29.7-2.9-29.7c1.3-1.6,2.3-4.1,2.3-5.7
				c0-0.8-1.1-3.7-2.3-6.5c-0.4-0.8,0.1-4-1.3-5.5c-1.1-1.1-5.8-1.1-5.8-1.1c2.7,0.8,3.4,4.6,3,4.8c-0.4,0.3-5.6,0.2-6.6,0
				c-1-0.2-2.7-4.9-5.3-5.3c0,0-1.7-0.2-3.6,1c-1.9,1.2-2.7,4.5-2.7,4.5s7-0.2,6.6,3.9c0,0.1,0,0.2,0,0.3
				c-0.6,4.2-3.5,11.6-3.5,11.6s1.8,4.5,1.2,9.4c-0.8,6-9.2,49.5-9.2,49.5H168.1z"/>
		</g>
		<path id="gear" class="st2" d="M364.4,112.8c-0.4-7.2-2.5-14.1-5.9-20.2l5.9-3.3c-2.9-5.3-6.8-10.1-11.3-14.1l-4.5,5
			c-5.2-4.6-11.4-8.1-18.4-10.1l1.8-6.4l-0.1,0c-4.9-1.4-9.9-2.1-14.7-2.1c-1.1,0-2.1,0-3.2,0.1l0.4,6.7c-7.2,0.4-14.1,2.5-20.2,5.9
			l-3.3-5.9c-5.3,2.9-10.1,6.7-14.1,11.3l5,4.5c-4.6,5.2-8.1,11.4-10.2,18.4l-6.4-1.8l0,0.1c-1.4,4.9-2.1,9.9-2.1,14.7
			c0,1,0,2.1,0.1,3.1l6.7-0.4c0.4,7.2,2.5,14.1,5.9,20.2l-5.9,3.3c2.9,5.3,6.7,10.1,11.3,14.1l4.5-5c5.1,4.6,11.4,8.1,18.4,10.2
			l-1.8,6.4l0.2,0c4.9,1.4,9.9,2.1,14.7,2.1c1.1,0,2.2,0,3.3-0.1l-0.4-6.7c7.2-0.4,14.1-2.5,20.2-5.9l3.3,5.9
			c5.3-2.9,10-6.8,14.1-11.3l-5-4.5c4.6-5.2,8.1-11.4,10.1-18.5l6.4,1.8l0,0c1.4-4.9,2.1-9.9,2.1-14.7c0-1.1,0-2.1-0.1-3.2
			L364.4,112.8z M305.4,157.1L305.4,157.1l0.3-1.2L305.4,157.1z M344.7,123.4c-3.6,12.6-15.1,20.8-27.5,20.8c-2.6,0-5.2-0.4-7.8-1.1
			c-12.6-3.6-20.8-15.1-20.8-27.5c0-2.6,0.4-5.2,1.1-7.8c3.6-12.6,15.1-20.8,27.5-20.8c2.6,0,5.2,0.4,7.8,1.1
			c12.6,3.6,20.8,15.1,20.8,27.5C345.8,118.2,345.5,120.8,344.7,123.4z"/>
		<g class="floating">
			<g>
				<path class="st7" d="M318.2,124.8v136.9c0,7.3-5.9,13.3-13.3,13.3H109.5c-7.3,0-13.3-5.9-13.3-13.3V124.8
					c0-7.3,5.9-13.3,13.3-13.3h195.4C312.3,111.5,318.2,117.4,318.2,124.8z"/>
				<path class="st2" d="M304.9,275.9H109.5c-7.9,0-14.3-6.4-14.3-14.3V124.8c0-7.9,6.4-14.3,14.3-14.3h195.4
					c7.9,0,14.3,6.4,14.3,14.3v136.9C319.2,269.5,312.8,275.9,304.9,275.9z M109.5,112.5c-6.8,0-12.3,5.5-12.3,12.3v136.9
					c0,6.8,5.5,12.3,12.3,12.3h195.4c6.8,0,12.3-5.5,12.3-12.3V124.8c0-6.8-5.5-12.3-12.3-12.3H109.5z"/>
			</g>
			<g>
				<path class="st1" d="M112.8,225.6h105.7c2.4,0,4.4-2,4.4-4.4v-62.6c0-2.4-2-4.4-4.4-4.4H112.8c-2.4,0-4.4,2-4.4,4.4v62.6
					C108.4,223.6,110.4,225.6,112.8,225.6z"/>
				<g>
					<g>
						<rect x="209.5" y="161" class="st7" width="1.1" height="57.9"/>
					</g>
					<g>
						<rect x="194.7" y="161" class="st7" width="1.1" height="57.9"/>
					</g>
					<g>
						<rect x="179.9" y="161" class="st7" width="1.1" height="57.9"/>
					</g>
					<g>
						<rect x="165.1" y="161" class="st7" width="1.1" height="57.9"/>
					</g>
					<g>
						<rect x="150.4" y="161" class="st7" width="1.1" height="57.9"/>
					</g>
					<g>
						<rect x="120.8" y="161" class="st7" width="1.1" height="57.9"/>
					</g>
					<g>
						<rect x="135.6" y="161" class="st7" width="1.1" height="57.9"/>
					</g>
				</g>
				<g>
					<g>
						<path class="st8" d="M121.4,208.2c-0.3,0-0.6-0.1-0.8-0.3c-0.4-0.4-0.4-1.1,0-1.5l15-14.5l14.8-3.7l15.1-14.9l15,6l14.3-7.2
							l14.7-8.1c0.5-0.3,1.2-0.1,1.5,0.4c0.3,0.5,0.1,1.2-0.4,1.5l-14.8,8.1l-15.2,7.7l-14.6-5.8l-14.5,14.3l-14.8,3.7l-14.6,14.1
							C121.9,208.1,121.6,208.2,121.4,208.2z"/>
					</g>
					<g>
						<rect x="118.4" y="204.2" class="st9" width="5.9" height="5.9"/>
						<rect x="133.2" y="189.9" class="st9" width="5.9" height="5.9"/>
						<rect x="148" y="186.2" class="st9" width="5.9" height="5.9"/>
						<rect x="162.7" y="171.6" class="st9" width="5.9" height="5.9"/>
						<rect x="177.5" y="177.4" class="st9" width="5.9" height="5.9"/>
						<rect x="192.3" y="170" class="st9" width="5.9" height="5.9"/>
						<rect x="207.1" y="161.9" class="st9" width="5.9" height="5.9"/>
					</g>
				</g>
				<rect x="237.1" y="154.8" class="st1" width="73.3" height="4.4"/>
				<rect x="237.1" y="165.9" class="st1" width="73.3" height="4.4"/>
				<rect x="237.1" y="199.1" class="st1" width="73.3" height="4.4"/>
				<rect x="237.1" y="177" class="st1" width="73.3" height="4.4"/>
				<rect x="108.4" y="237.1" class="st1" width="202" height="4.4"/>
				<rect x="108.4" y="248.1" class="st1" width="202" height="4.4"/>
				<rect x="237.1" y="188.1" class="st1" width="73.3" height="4.4"/>
				<rect x="237.1" y="210.2" class="st1" width="73.3" height="4.4"/>
				<rect x="237.1" y="221.3" class="st1" width="43.9" height="4.4"/>
			</g>
			<path class="st2" d="M318.2,124.8v11.8h-222v-11.8c0-7.3,5.9-13.3,13.3-13.3h195.4C312.3,111.5,318.2,117.4,318.2,124.8z"/>
			<g>
				<path class="st7" d="M308.7,124c0,3-2.4,5.3-5.3,5.3c-3,0-5.3-2.4-5.3-5.3c0-3,2.4-5.3,5.3-5.3
					C306.3,118.7,308.7,121.1,308.7,124z"/>
				<path class="st10" d="M286.8,124c0,3-2.4,5.3-5.3,5.3c-3,0-5.3-2.4-5.3-5.3c0-3,2.4-5.3,5.3-5.3
					C284.4,118.7,286.8,121.1,286.8,124z"/>
				<path class="st9" d="M264.8,124c0,3-2.4,5.3-5.3,5.3c-3,0-5.3-2.4-5.3-5.3c0-3,2.4-5.3,5.3-5.3
					C262.4,118.7,264.8,121.1,264.8,124z"/>
			</g>
		</g>
		<g class="floating" style="animation-duration: 5s;">
			<path class="st2" d="M393.9,215.3h-53.6c-1.2,0-2.2-1-2.2-2.2v-31.7c0-1.2,1-2.2,2.2-2.2h53.6c1.2,0,2.2,1,2.2,2.2v31.7
				C396.1,214.3,395.1,215.3,393.9,215.3z"/>
			<g>
				<path class="st7" d="M393.9,212.1h-53.6c-1.2,0-2.2-1-2.2-2.2v-31.7c0-1.2,1-2.2,2.2-2.2h53.6c1.2,0,2.2,1,2.2,2.2v31.7
					C396.1,211.1,395.1,212.1,393.9,212.1z"/>
				<path class="st2" d="M393.9,212.4h-53.6c-1.4,0-2.5-1.1-2.5-2.5v-31.7c0-1.4,1.1-2.5,2.5-2.5h53.6c1.4,0,2.5,1.1,2.5,2.5v31.7
					C396.4,211.3,395.3,212.4,393.9,212.4z M340.3,176.2c-1.1,0-2,0.9-2,2v31.7c0,1.1,0.9,2,2,2h53.6c1.1,0,2-0.9,2-2v-31.7
					c0-1.1-0.9-2-2-2H340.3z"/>
			</g>
			<g>
				<g>
					
						<rect x="383.7" y="181.3" transform="matrix(-1 -1.224647e-16 1.224647e-16 -1 771.7526 388.0977)" class="st1" width="4.4" height="25.5"/>
					
						<rect x="374.3" y="181.3" transform="matrix(-1 -1.224647e-16 1.224647e-16 -1 752.9825 388.0977)" class="st1" width="4.4" height="25.5"/>
					
						<rect x="364.9" y="181.3" transform="matrix(-1 -1.224647e-16 1.224647e-16 -1 734.2124 388.0977)" class="st1" width="4.4" height="25.5"/>
					
						<rect x="355.5" y="181.3" transform="matrix(-1 -1.224647e-16 1.224647e-16 -1 715.4422 388.0977)" class="st1" width="4.4" height="25.5"/>
					
						<rect x="346.1" y="181.3" transform="matrix(-1 -1.224647e-16 1.224647e-16 -1 696.6723 388.0977)" class="st1" width="4.4" height="25.5"/>
				</g>
				<g>
					
						<rect x="383.7" y="200.4" transform="matrix(-1 -1.224647e-16 1.224647e-16 -1 771.7526 407.2589)" class="st8" width="4.4" height="6.4"/>
					
						<rect x="374.3" y="191.9" transform="matrix(-1 -1.224647e-16 1.224647e-16 -1 752.9825 398.7527)" class="st8" width="4.4" height="14.9"/>
					
						<rect x="364.9" y="196" transform="matrix(-1 -1.224647e-16 1.224647e-16 -1 734.2124 402.777)" class="st8" width="4.4" height="10.9"/>
					
						<rect x="355.5" y="188.4" transform="matrix(-1 -1.224647e-16 1.224647e-16 -1 715.4422 395.2122)" class="st8" width="4.4" height="18.4"/>
					
						<rect x="346.1" y="185.1" transform="matrix(-1 -1.224647e-16 1.224647e-16 -1 696.6723 391.9169)" class="st8" width="4.4" height="21.7"/>
				</g>
			</g>
		</g>
		<g>
			<path class="st2" d="M39.8,203.8h66.8c1.5,0,2.8-1.2,2.8-2.8v-39.6c0-1.5-1.2-2.8-2.8-2.8H39.8c-1.5,0-2.8,1.2-2.8,2.8V201
				C37,202.6,38.3,203.8,39.8,203.8z"/>
			<g>
				<path class="st7" d="M39.8,200.1h66.8c1.5,0,2.8-1.2,2.8-2.8v-39.6c0-1.5-1.2-2.8-2.8-2.8H39.8c-1.5,0-2.8,1.2-2.8,2.8v39.6
					C37,198.8,38.3,200.1,39.8,200.1z"/>
				<path class="st2" d="M106.6,200.3H39.8c-1.7,0-3-1.4-3-3v-39.6c0-1.7,1.4-3,3-3h66.8c1.7,0,3,1.4,3,3v39.6
					C109.6,199,108.3,200.3,106.6,200.3z M39.8,155.2c-1.4,0-2.5,1.1-2.5,2.5v39.6c0,1.4,1.1,2.5,2.5,2.5h66.8
					c1.4,0,2.5-1.1,2.5-2.5v-39.6c0-1.4-1.1-2.5-2.5-2.5H39.8z"/>
			</g>
			<g>
				<rect x="42.9" y="161.2" class="st1" width="18.8" height="1.8"/>
				<rect x="42.9" y="165.5" class="st1" width="18.8" height="1.8"/>
				<rect x="42.9" y="169.7" class="st1" width="18.8" height="1.8"/>
				<rect x="42.9" y="174" class="st1" width="18.8" height="1.8"/>
				<rect x="42.9" y="178.3" class="st1" width="18.8" height="1.8"/>
				<rect x="42.9" y="182.5" class="st1" width="18.8" height="1.8"/>
				<rect x="42.9" y="191.1" class="st1" width="13.1" height="1.8"/>
				<rect x="42.9" y="186.8" class="st1" width="18.8" height="1.8"/>
			</g>
			<rect x="64.6" y="161.1" class="st1" width="37.1" height="31.8"/>
			<g>
				<g>
					<path class="st9" d="M70.7,165.1c0,0.9-0.8,1.7-1.7,1.7c-0.9,0-1.7-0.8-1.7-1.7c0-0.9,0.8-1.7,1.7-1.7
						C70,163.5,70.7,164.2,70.7,165.1z"/>
					<path class="st9" d="M76.4,165.1c0,0.9-0.8,1.7-1.7,1.7c-0.9,0-1.7-0.8-1.7-1.7c0-0.9,0.8-1.7,1.7-1.7
						C75.6,163.5,76.4,164.2,76.4,165.1z"/>
					<path class="st9" d="M82,165.1c0,0.9-0.8,1.7-1.7,1.7c-0.9,0-1.7-0.8-1.7-1.7c0-0.9,0.8-1.7,1.7-1.7
						C81.2,163.5,82,164.2,82,165.1z"/>
					<path class="st7" d="M87.6,165.1c0,0.9-0.8,1.7-1.7,1.7c-0.9,0-1.7-0.8-1.7-1.7c0-0.9,0.8-1.7,1.7-1.7
						C86.9,163.5,87.6,164.2,87.6,165.1z"/>
					<path class="st7" d="M93.3,165.1c0,0.9-0.8,1.7-1.7,1.7c-0.9,0-1.7-0.8-1.7-1.7c0-0.9,0.8-1.7,1.7-1.7
						C92.5,163.5,93.3,164.2,93.3,165.1z"/>
					<path class="st7" d="M98.9,165.1c0,0.9-0.8,1.7-1.7,1.7c-0.9,0-1.7-0.8-1.7-1.7c0-0.9,0.8-1.7,1.7-1.7
						C98.1,163.5,98.9,164.2,98.9,165.1z"/>
				</g>
				<g>
					<path class="st11" d="M70.7,171.1c0,0.9-0.8,1.7-1.7,1.7c-0.9,0-1.7-0.8-1.7-1.7c0-0.9,0.8-1.7,1.7-1.7
						C70,169.4,70.7,170.1,70.7,171.1z"/>
					<path class="st11" d="M76.4,171.1c0,0.9-0.8,1.7-1.7,1.7c-0.9,0-1.7-0.8-1.7-1.7c0-0.9,0.8-1.7,1.7-1.7
						C75.6,169.4,76.4,170.1,76.4,171.1z"/>
					<path class="st11" d="M82,171.1c0,0.9-0.8,1.7-1.7,1.7c-0.9,0-1.7-0.8-1.7-1.7c0-0.9,0.8-1.7,1.7-1.7
						C81.2,169.4,82,170.1,82,171.1z"/>
					<path class="st11" d="M87.6,171.1c0,0.9-0.8,1.7-1.7,1.7c-0.9,0-1.7-0.8-1.7-1.7c0-0.9,0.8-1.7,1.7-1.7
						C86.9,169.4,87.6,170.1,87.6,171.1z"/>
					<path class="st7" d="M93.3,171.1c0,0.9-0.8,1.7-1.7,1.7c-0.9,0-1.7-0.8-1.7-1.7c0-0.9,0.8-1.7,1.7-1.7
						C92.5,169.4,93.3,170.1,93.3,171.1z"/>
					<path class="st7" d="M98.9,171.1c0,0.9-0.8,1.7-1.7,1.7c-0.9,0-1.7-0.8-1.7-1.7c0-0.9,0.8-1.7,1.7-1.7
						C98.1,169.4,98.9,170.1,98.9,171.1z"/>
				</g>
				<g>
					<path class="st12" d="M70.7,177c0,0.9-0.8,1.7-1.7,1.7c-0.9,0-1.7-0.8-1.7-1.7c0-0.9,0.8-1.7,1.7-1.7
						C70,175.3,70.7,176.1,70.7,177z"/>
					<path class="st12" d="M76.4,177c0,0.9-0.8,1.7-1.7,1.7c-0.9,0-1.7-0.8-1.7-1.7c0-0.9,0.8-1.7,1.7-1.7
						C75.6,175.3,76.4,176.1,76.4,177z"/>
					<path class="st12" d="M82,177c0,0.9-0.8,1.7-1.7,1.7c-0.9,0-1.7-0.8-1.7-1.7c0-0.9,0.8-1.7,1.7-1.7C81.2,175.3,82,176.1,82,177
						z"/>
					<path class="st12" d="M87.6,177c0,0.9-0.8,1.7-1.7,1.7c-0.9,0-1.7-0.8-1.7-1.7c0-0.9,0.8-1.7,1.7-1.7
						C86.9,175.3,87.6,176.1,87.6,177z"/>
					<path class="st12" d="M93.3,177c0,0.9-0.8,1.7-1.7,1.7c-0.9,0-1.7-0.8-1.7-1.7c0-0.9,0.8-1.7,1.7-1.7
						C92.5,175.3,93.3,176.1,93.3,177z"/>
					<path class="st7" d="M98.9,177c0,0.9-0.8,1.7-1.7,1.7c-0.9,0-1.7-0.8-1.7-1.7c0-0.9,0.8-1.7,1.7-1.7
						C98.1,175.3,98.9,176.1,98.9,177z"/>
				</g>
				<g>
					<path class="st2" d="M70.7,182.9c0,0.9-0.8,1.7-1.7,1.7c-0.9,0-1.7-0.8-1.7-1.7c0-0.9,0.8-1.7,1.7-1.7
						C70,181.3,70.7,182,70.7,182.9z"/>
					<path class="st2" d="M76.4,182.9c0,0.9-0.8,1.7-1.7,1.7c-0.9,0-1.7-0.8-1.7-1.7c0-0.9,0.8-1.7,1.7-1.7
						C75.6,181.3,76.4,182,76.4,182.9z"/>
					<path class="st2" d="M82,182.9c0,0.9-0.8,1.7-1.7,1.7c-0.9,0-1.7-0.8-1.7-1.7c0-0.9,0.8-1.7,1.7-1.7
						C81.2,181.3,82,182,82,182.9z"/>
					<path class="st2" d="M87.6,182.9c0,0.9-0.8,1.7-1.7,1.7c-0.9,0-1.7-0.8-1.7-1.7c0-0.9,0.8-1.7,1.7-1.7
						C86.9,181.3,87.6,182,87.6,182.9z"/>
					<path class="st7" d="M93.3,182.9c0,0.9-0.8,1.7-1.7,1.7c-0.9,0-1.7-0.8-1.7-1.7c0-0.9,0.8-1.7,1.7-1.7
						C92.5,181.3,93.3,182,93.3,182.9z"/>
					<path class="st7" d="M98.9,182.9c0,0.9-0.8,1.7-1.7,1.7c-0.9,0-1.7-0.8-1.7-1.7c0-0.9,0.8-1.7,1.7-1.7
						C98.1,181.3,98.9,182,98.9,182.9z"/>
				</g>
				<g>
					<path class="st13" d="M70.7,188.9c0,0.9-0.8,1.7-1.7,1.7c-0.9,0-1.7-0.8-1.7-1.7c0-0.9,0.8-1.7,1.7-1.7
						C70,187.2,70.7,187.9,70.7,188.9z"/>
					<path class="st13" d="M76.4,188.9c0,0.9-0.8,1.7-1.7,1.7c-0.9,0-1.7-0.8-1.7-1.7c0-0.9,0.8-1.7,1.7-1.7
						C75.6,187.2,76.4,187.9,76.4,188.9z"/>
					<path class="st13" d="M82,188.9c0,0.9-0.8,1.7-1.7,1.7c-0.9,0-1.7-0.8-1.7-1.7c0-0.9,0.8-1.7,1.7-1.7
						C81.2,187.2,82,187.9,82,188.9z"/>
					<path class="st7" d="M87.6,188.9c0,0.9-0.8,1.7-1.7,1.7c-0.9,0-1.7-0.8-1.7-1.7c0-0.9,0.8-1.7,1.7-1.7
						C86.9,187.2,87.6,187.9,87.6,188.9z"/>
					<path class="st7" d="M93.3,188.9c0,0.9-0.8,1.7-1.7,1.7c-0.9,0-1.7-0.8-1.7-1.7c0-0.9,0.8-1.7,1.7-1.7
						C92.5,187.2,93.3,187.9,93.3,188.9z"/>
					<path class="st7" d="M98.9,188.9c0,0.9-0.8,1.7-1.7,1.7c-0.9,0-1.7-0.8-1.7-1.7c0-0.9,0.8-1.7,1.7-1.7
						C98.1,187.2,98.9,187.9,98.9,188.9z"/>
				</g>
			</g>
		</g>
		<g>
			<path class="st3" d="M111.6,197.7c2.4-0.6,0.1-14.6-1.3-20.5c-1.4-5.9-3.6-10.3-6.4-9.5c-2.9,0.7-2.6,5.6-1,11.5
				C104.5,184.9,109.3,198.3,111.6,197.7z"/>
			<g>
				<path class="st3" d="M125.5,200.1c0.5-1.6-9.9-5.5-12.8-6.5c-3-1-3.6-1.4-4.1,0.3c-0.6,1.7-0.1,2.6,2.8,3.6
					C114.3,198.6,125,201.7,125.5,200.1z"/>
			</g>
			<path class="st3" d="M98.3,288.4l-0.1,3c0,0.4,0.4,0.8,0.8,0.8h8.2c0.7,0,1.1-0.9,0.5-1.4c-1.2-0.9-3-2-4.5-2.3
				c-0.1,0-1.3-25.6-2.5-25.6C99.3,262.9,98.3,288.4,98.3,288.4z"/>
			<path class="st3" d="M80.4,288.2c0,0,0,0.1,0,0.4v2.5c0,0.3,0.6,1.4,1.2,1.6c2.1,0.9,6,0.4,6.2-0.4c0.2-0.7-0.9-2.3-1.8-3.4
				c0,0,0,0,0,0c-0.6-0.7-1-1.2-1-1.2s-1.1-24.8-2.3-24.8C81.4,263,80.4,288.2,80.4,288.2z"/>
			<path class="st3" d="M100.3,249.2c3.4,0,5.2-18.9,5.4-27c0.2-8.1-1.2-14.5-5.4-14.5c-4.2,0-5.6,6.4-5.4,14.5
				C95,230.3,96.9,249.2,100.3,249.2z"/>
			<path class="st3" d="M100.3,289.5c3,0,3.9-26.7,3.9-32.7c0-6-0.5-12.3-3.9-12.3c-3.4,0-3.9,6.3-3.9,12.3
				C96.4,262.7,97.2,289.5,100.3,289.5z"/>
			<path class="st3" d="M85.6,249.2c3.4,0.3,7-18.4,7.8-26.4c0.9-8,0.1-14.5-4.1-14.9s-6.1,5.9-6.7,13.9
				C82.1,229.9,82.2,248.9,85.6,249.2z"/>
			<path class="st3" d="M82.5,289.3c3,0.3,5.8-26.3,6.3-32.3c0.5-6,0.7-12.3-2.7-12.6c-3.4-0.3-4.4,6-5,11.9
				C80.6,262.3,79.4,289,82.5,289.3z"/>
			<path class="st3" d="M83,213.9h22.5l0.9-36.2l-1.7-10.2l-10.9-3.4l-6.3,1.2c-3.6,0.7-6.1,3.9-6,7.5l2.3,25.6L83,213.9z"/>
			<path class="st3" d="M76.6,196.1c2.3,0.7,7.9-12.5,9.9-18.2c2-5.8,2.5-10.7-0.4-11.6c-2.9-0.9-5.3,3.4-7,9.2
				C77.3,181.4,74.3,195.4,76.6,196.1z"/>
			<path class="st3" d="M91.5,159.3v7.3c0,0,1.5,0.9,5.1,0.9c1.9,0,2.4-0.9,2.4-0.9v-2.7L91.5,159.3z"/>
			<path class="st3" d="M90.6,153.9c0,0.3,0,0.5,0,0.7c0,0.1,0,0.2,0,0.3c-0.2,4.3,2.6,8.9,6.8,9.6c0,0,0,0,0.1,0c0,0,0.1,0,0.1,0
				c0.9,0.1,4.1,0.4,5.3-0.9c1.4-1.5,2.6-4.3,2.6-6.3c0-1.9-0.3-2.4-0.3-3.1c0-0.6,0.3-2.5,0.3-3.3c0-3.9-2.6-7.7-7.2-7.7
				C91.5,143.2,90.4,149.2,90.6,153.9z"/>
			<g>
				<path class="st3" d="M92.7,153.9c-0.5-0.1-1.8-0.6-1.6,1.3c0.4,3.3,2.4,3.1,2.4,3.1c-0.1-0.5-0.3-1.1-0.4-1.9
					c0.5-0.3-0.1-0.7-0.2-1.1c0-0.1,0-0.1,0-0.2C92.7,154.8,92.7,154.4,92.7,153.9z"/>
				<path class="st6" d="M92.8,155.1c0,0-0.6-0.6-1.1-0.4c-0.5,0.2-0.1,1.3,0.2,1.9c0.4,0.6,0.8,0.7,0.8,0.5
					c0.1-0.2-0.7-0.5-0.5-0.8c0.3-0.3,0.6-0.4,0.6-0.5C92.8,155.7,92.8,155.1,92.8,155.1z"/>
			</g>
			<path class="st6" d="M100,164.6c-2.1,0.1-4.9-1.9-5.7-2.9c-0.8-0.9-1.2-3.3-1.2-3.3s-0.6,0.1-1.1-0.6c0,0,0.1,1,0.5,1.4
				c0.4,0.4,0.7,0.4,0.8,0.7c0.1,0.3,0.6,3.5,2.3,4.5C97.3,165.3,100,164.6,100,164.6z"/>
			<path class="st14" d="M98.1,288.9v2.8c0,0.3,0.2,0.5,0.5,0.5h9.1c0.8,0,1.1-1,0.5-1.5c-1.3-1-3.5-2-5-2.7
				c-0.4,0.3-0.9,1.3-1.6,1.5C101,289.6,98.1,288.9,98.1,288.9z"/>
			<path class="st14" d="M80.4,288.6v2.5c0,0.3,0.6,1.4,1.2,1.6c2.1,0.9,6,0.4,6.2-0.4c0.2-0.7-0.9-2.3-1.8-3.4c0,0,0,0,0,0
				c-0.4-0.4-2.6-0.2-3,0c-0.4,0.2-1.2,0.7-1.4,0.7C81.4,289.6,80.4,288.6,80.4,288.6z"/>
			<polygon class="st14" points="94.3,218.2 94.3,220 86,286.5 79.5,286.5 82.4,218.2 			"/>
			<polygon class="st14" points="106.1,218.2 103.4,286.5 97,286.5 94.3,220 94.3,218.2 			"/>
			<path class="st15" d="M110,174.8c1.3,4.4,2.1,9.3,2.1,9.3s-0.9,1.5-4.9,2.3h0c0-4.9,0.1-8.8,0-10.2c-0.3-4.9-2.1-8.8-2.1-8.8
				C107.1,168.1,108.7,170.4,110,174.8z"/>
			<path class="st15" d="M85.4,165.7c2.9,0.3,4.4,3,3.4,7.1c-1.1,4.8-4.9,13.6-4.9,13.6c-0.2,0-0.5-0.1-0.7-0.1
				c-5.8-1.2-6.6-3-6.6-3c1.6-7.1,4.4-14.8,6.6-16.4C83.8,166.3,84.6,166,85.4,165.7z"/>
			<path class="st8" d="M99,166.7"/>
			<path class="st8" d="M99,165.7l6.1,1.7c0,0,1.8,3.9,2.1,8.8c0.1,1.4,0.1,5.3,0,10.2c-0.1,12.6-0.5,31.9-0.5,31.9h-0.6H94.3H82.4
				h-0.5c0,0,1.1-14.3,1.3-18.7c0.2-4.4-0.8-11.6-0.8-11.6l0.8-1.7c0.2,0,0.5,0.1,0.7,0.1c0,0,3.8-8.8,4.9-13.6
				c1-4.1-0.5-6.8-3.4-7.1c2.3-0.7,4.9-0.9,4.9-0.9s1.1,3.3,5.8,3.4C100.7,168.3,99,165.7,99,165.7z"/>
			<g id="arrow_1">
				<g>
					<polygon class="st11" points="178.8,150.4 155.4,150.2 171.6,172.7 					"/>
				</g>
				<polygon class="st11" points="62.7,225.2 71.2,237 71.2,237 167.8,167.4 167.8,167.4 167.9,167.3 167.9,167.3 159.3,155.4 
					159.2,155.5 				"/>
				<polygon class="st16" points="69.8,235 71.2,237 71.2,237 167.9,167.3 166.5,165.4 166.4,165.5 				"/>
				<path class="st3" d="M125.5,200.5c1.1-0.5,1.8-1.8,1.9-3.8c0.1-1.9-0.3-2.6-0.9-2.4c-0.7,0.2-2.9,1.9-2.9,2.7
					c0,0.8,0.1,1.6,0,1.9c-0.1,0.3-0.7,0.5-0.8,0.9C122.7,200.2,124.1,201.2,125.5,200.5z"/>
			</g>
			<path class="st2" d="M91.5,159.5c-0.4,0.2-0.8,0.3-1.1,0.1c-0.4-0.3-0.4-1,0.1-1.5c-0.1,0-1-0.2-1.3-0.9
				c-0.4-0.7-0.1-1.7,0.6-2.3c-0.3-0.1-0.7-0.4-1-0.9c-0.5-0.8-0.4-2,0.3-3c-0.1-0.1-0.4-0.4-0.4-0.8c0-0.5,0.3-1,0.8-1.2
				c-0.1-0.1-0.6-0.6-0.6-1.4c0-0.8,0.7-1.5,1.6-1.8c-0.3-0.7-0.3-1.5,0.1-2c0.6-0.8,1.8-1,2.8-0.4c0-0.7,0.4-1.2,1-1.5
				c0.8-0.4,1.5,0.1,1.6,0.1c0.1-0.3,0.3-0.5,0.5-0.6c0.7-0.5,1.9-0.3,3,0.4c0.3-0.4,0.6-0.6,0.8-0.6c1-0.4,2.4,0.2,3.4,1.4
				c0.6-0.4,1.4-0.4,2,0.1c0.5,0.4,0.7,1.1,0.5,1.7c0.6,0.1,1,0.5,1.2,1c0.1,0.6-0.1,1.2-0.6,1.5c0.1,0.6-0.1,1.2-0.6,1.4
				c-0.6,0.3-1.4,0.2-1.8-0.4c0,0-0.2,0.4-0.7,0.5c-0.4,0.1-0.8-0.1-1-0.5c-0.1,0.2-0.5,0.8-1.2,0.9c-0.9,0.2-1.9-0.3-2.5-1.3
				c-0.1,0.1-0.3,0.6-0.8,0.9c-0.7,0.4-1.4,0.1-1.5,0c0.1,0.2,0.2,0.6,0.1,1.1c-0.2,0.9-1.1,1.3-1.2,1.3c0.3,0.6,0.2,1.2-0.1,1.6
				c-0.4,0.5-1,0.4-1.1,0.4c0,0-0.2,3-0.5,3c-0.3,0-1.1-2.1-1.1-2.1s-1.1-0.3-1.4,0.4c-0.3,0.7,0,2,0.4,2.7c0.4,0.7,0.6,0.9,0.6,0.9
				L91.5,159.5z"/>
			<path class="st3" d="M79.9,221.1c2.2-0.2,1.4-16.2,1.1-20.7c-0.4-4.5-1.1-9.3-3.5-9c-2.4,0.2-2.4,5-2,9.5
				C75.8,205.3,77.7,221.3,79.9,221.1z"/>
			<path class="st3" d="M79.6,216.9c-2.6,0-2,4.6-1.8,6.1c0.4,2.5,3.3,4.7,4.2,4.6c1-0.1-0.4-5.8-0.2-6c0.2-0.2,0.6,2.9,1.5,2.6
				c0.9-0.2,0.2-3.9-0.6-5.3C82,217.6,81.3,216.9,79.6,216.9z"/>
		</g>
		<g id="arm_1">
			<path class="st3" d="M130.3,100.4c1.9,1.4,11.1-9.2,14.6-13.9c3.5-4.8,5.5-9.2,3.1-10.8c-2.4-1.7-5.9,1.6-9.3,6.4
				C135.4,86.9,128.3,99,130.3,100.4z"/>
			<path class="st3" d="M127,125.4c2.1,0.4,5.4-14.9,6.1-19.2c0.8-4.3,1.3-9-1.1-9.4c-2.3-0.4-3.5,4.1-4.2,8.4
				C127,109.6,124.9,125.1,127,125.4z"/>
			<g>
				<path class="st3" d="M130.3,124.1c-0.5-1.5-1-2.3-2.5-2.7c-2.4-0.6-3.3,4.4-3.5,5.9c-0.1,1.3,1.6,4.3,2.6,4.4
					c1,0.1,1.5-5,1.8-5.1c0.2,0,0.3,0.2,0.4,0.6h1.4C130.6,126.2,130.5,124.9,130.3,124.1z"/>
			</g>
		</g>
		<path class="st4" d="M146.8,74.5c-2.8,0.6-5.3,3.7-8.4,6.7c0,0,1.9,2.8,6.5,5.2l-1.3,1.6c0,0,0.4,3.9,1.4,7.7c1,3.7,4-8.8,4-8.8
			l0.9-10.9L146.8,74.5z"/>
		<path class="st3" d="M182.6,120.8c-2.1,0.2-4.3-15.2-4.8-19.6c-0.5-4.4-0.6-9,1.7-9.3c2.4-0.3,3.2,4.3,3.6,8.7
			C183.7,105,184.7,120.6,182.6,120.8z"/>
		<g>
			<path class="st3" d="M179.4,120.1c0.5-1.5,1-2.3,2.5-2.7c2.4-0.6,3.3,4.4,3.5,5.9c0.1,1.3-1.6,4.3-2.6,4.4c-1,0.1-1.5-5-1.8-5.1
				c-0.2,0-0.3,0.2-0.4,0.6h-1.4C179.1,122.1,179.2,120.8,179.4,120.1z"/>
		</g>
		<g>
			<path class="st3" d="M275.1,191c0.6-2.1,16,1.4,20.4,2.5c4.3,1.1,8.8,2.7,8.2,5c-0.6,2.3-5.3,1.4-9.6,0.3
				C289.7,197.7,274.5,193.1,275.1,191z"/>
			<path class="st3" d="M279.1,192c-0.5,2.5-4.8,1.2-6.2,0.7c-2.4-0.8-3.6-4.3-3.2-5.3c0.3-0.9,4.9,1.7,5.1,1.6
				c0.3-0.2-2.5-1.1-2.1-2c0.4-0.8,3.9,0.5,5.1,1.5C278.8,189.6,279.4,190.4,279.1,192z"/>
			<path class="st3" d="M300.8,198.4c-2.3,0.6-7.2-12.6-8.8-18.3c-1.6-5.8-1.9-10.6,0.9-11.3c2.8-0.8,5,3.6,6.4,9.4
				C300.7,183.9,303.1,197.7,300.8,198.4z"/>
			<path class="st11" d="M292.7,168.5c2.2,0,3.8,2.5,4.2,7.4c0.4,4.8,0,15.8,0,15.8H289c0,0-0.6-13.2-0.7-16.8
				C288.2,171.3,289.8,168.5,292.7,168.5z"/>
			<path class="st11" d="M289,191.7c0,0-4.9-1.4-5.7-1.4c-0.8,0-3.7,0-3.7,0s-0.6,1.4-1.3,3.3c0,0,1.4,0.8,1.7,1.1
				c0.3,0.3,0,0.5,1.9,1.4c1.9,0.9,9.7,4.6,12.5,4.4c2.8-0.2,2.5-5.9,2.6-8.8c0.1-2.9-5.8-3.6-5.8-3.6L289,191.7z"/>
			<g id="magnify">
				<g class="st17">
					<path class="st18" d="M215.3,158.5c-13.1-1-22.9-12.5-21.9-25.5s12.5-22.9,25.5-21.9c13.1,1,22.9,12.5,21.9,25.5
						S228.4,159.5,215.3,158.5z"/>
				</g>
				<g>
					<g>
						<g>
							
								<rect x="255.7" y="139.6" transform="matrix(0.6454 -0.7638 0.7638 0.6454 -38.3806 258.3922)" class="st12" width="6.9" height="62"/>
						</g>
						<g>
							<path class="st19" d="M215,162.6c-15.4-1.2-26.9-14.6-25.7-30c1.2-15.4,14.6-26.9,30-25.7c15.4,1.2,26.9,14.6,25.7,30
								C243.8,152.3,230.3,163.8,215,162.6z M218.7,113.8c-11.6-0.9-21.7,7.8-22.6,19.4c-0.9,11.6,7.8,21.7,19.4,22.6
								c11.6,0.9,21.7-7.8,22.6-19.4C238.9,124.8,230.2,114.7,218.7,113.8z"/>
						</g>
						<g>
							<path class="st19" d="M278.8,193.8c-1.4-0.1-2.7-0.6-3.9-1.6l-23-19.1c-2.9-2.4-3.3-6.8-0.9-9.8c2.4-2.9,6.8-3.3,9.8-0.9
								l23,19.1c2.9,2.4,3.3,6.8,0.9,9.8C283.1,193.1,280.9,193.9,278.8,193.8z"/>
						</g>
						<g class="st20">
							<circle class="st8" cx="217.1" cy="134.8" r="24.7"/>
						</g>
					</g>
				</g>
			</g>
			<path class="st3" d="M314.5,214.6h-22.3l-0.9-35.8l1.7-10.1l10.8-3.3l6.2,1.2c3.5,0.7,6.1,3.8,5.9,7.4l-2.3,25.4L314.5,214.6z"/>
			<g>
				<path class="st3" d="M306.1,160.6v7.2c0,0-1.5,0.9-5.1,0.9c-1.9,0-2.4-0.9-2.4-0.9v-2.7L306.1,160.6z"/>
				<g>
					<path class="st6" d="M297.6,154.1c-0.7,0.2-1,2.6-0.9,2.6c0.1,0,0.6-2,1.2-2.2C298.6,154.2,297.6,154.1,297.6,154.1z"/>
					<path class="st6" d="M294.9,154.2c0.4,0.5,0.1,2.3,0.1,2.4c0,0.2-0.2-2.2-0.2-2.2L294.9,154.2z"/>
					<g>
						<path class="st21" d="M300.7,154.2v0.3c0,0-3.1,0-3.1,0s-0.1-0.3,0-0.4C298.2,153.6,300.7,154.2,300.7,154.2z"/>
						<path class="st21" d="M292.7,154.2v0.3c0,0,2.2,0,2.2,0c0,0,0.1-0.3,0-0.4C294.5,153.6,292.7,154.2,292.7,154.2z"/>
						<path class="st21" d="M299.6,156.1c0,0.3-0.3,0.6-0.6,0.6c-0.3,0-0.6-0.3-0.6-0.6c0-0.3,0.3-0.6,0.6-0.6
							C299.3,155.5,299.6,155.7,299.6,156.1z"/>
						<path class="st21" d="M300.3,155.6c-0.3-0.2-0.8-0.4-1.3-0.4c-0.5,0-1,0.2-1.3,0.4H300.3z"/>
						<path class="st21" d="M294.5,156.1c0,0.3-0.3,0.6-0.6,0.6c-0.3,0-0.6-0.3-0.6-0.6c0-0.3,0.3-0.6,0.6-0.6
							C294.2,155.5,294.5,155.7,294.5,156.1z"/>
						<path class="st21" d="M294.8,155.6c-0.2-0.2-0.5-0.4-0.9-0.4c-0.4,0-0.7,0.2-0.9,0.4H294.8z"/>
					</g>
					<path class="st3" d="M295.7,159.2c0.6,0,1.1-0.1,1.1,0.1c0,0.2-0.5,0.4-1.1,0.4c-0.6,0-1.1-0.2-1.1-0.4
						C294.6,159.2,295.1,159.2,295.7,159.2z"/>
					<path class="st6" d="M295.7,161.7c0.5,0,0.8,0,0.8,0.1c0,0.1-0.4,0.4-0.8,0.4c-0.5,0-0.8-0.3-0.8-0.4
						C294.9,161.7,295.3,161.7,295.7,161.7z"/>
					<g>
						<path class="st6" d="M293.6,160.7c-0.1,0-0.1,0-0.1,0.1c0,0.1,0,0.2,0.1,0.2c0,0,1.1,0.3,2.1,0.3c1,0,2.1-0.3,2.1-0.3
							c0.1,0,0.1-0.1,0.1-0.2c0-0.1-0.1-0.1-0.2-0.1c0,0-1.1,0.3-2.1,0.3C294.7,161,293.7,160.7,293.6,160.7
							C293.7,160.7,293.6,160.7,293.6,160.7z"/>
					</g>
				</g>
				<path class="st3" d="M307,155.2c0,0.3,0,0.5,0,0.7c0,0.1,0,0.2,0,0.3c0.2,4.3-2.6,8.8-6.7,9.5c0,0,0,0-0.1,0c0,0-0.1,0-0.1,0
					c-0.9,0.1-4.1,0.4-5.2-0.9c-1.4-1.5-2.6-4.3-2.6-6.2c0-1.9,0.3-2.3,0.3-3.1c0-0.6-0.3-2.5-0.3-3.3c0-3.8,2.5-7.6,7.1-7.6
					C306.1,144.6,307.2,150.6,307,155.2z"/>
				<path class="st19" d="M303.8,155.6c-0.3-1.6-1.6-2.1-1.7-3.1c-0.2-0.9-0.2-2.3-0.6-3.2c-0.4-0.9-3.8-0.7-4.9-0.5
					c-1.1,0.2-3.4,0.3-4.4-0.2c-1-0.5-1.7-2.8-0.8-3.8l0.4,0.4c0,0,1.6-1.9,3.4-2.1l-0.3,0.9c0,0,4.8-0.5,6.6-0.3
					c1.8,0.2,3.3,1.8,3.3,1.8s2.1-0.7,3,1.4c0.5,1.2,2.7,7.2-1.6,14.8l-1.4-6L303.8,155.6z"/>
				<g>
					<path class="st3" d="M305,155.3c0.5-0.1,1.8-0.6,1.6,1.3c-0.4,3.3-2.3,3.1-2.3,3.1c0.1-0.5,0.3-1.1,0.4-1.9
						c-0.5-0.3,0.1-0.7,0.2-1.1c0-0.1,0-0.1,0-0.2C304.9,156.1,304.9,155.7,305,155.3z"/>
					<path class="st6" d="M304.8,156.4c0,0,0.6-0.6,1.1-0.4c0.5,0.2,0.1,1.3-0.2,1.9c-0.4,0.6-0.8,0.7-0.8,0.5
						c-0.1-0.2,0.7-0.5,0.4-0.8c-0.3-0.3-0.6-0.3-0.5-0.5C304.8,157,304.8,156.4,304.8,156.4z"/>
					<path class="st19" d="M303.7,153.9c0.2,1.2,0,5.5,0,5.5l0.6,0l0.9-4.5L303.7,153.9z"/>
				</g>
				<path class="st6" d="M297.7,165.8c2.1,0.1,4.8-1.9,5.6-2.8c0.8-0.9,1.2-3.3,1.2-3.3s0.6,0.1,1.1-0.5c0,0-0.1,1-0.5,1.4
					c-0.4,0.4-0.7,0.4-0.8,0.7c-0.1,0.3-0.6,3.5-2.3,4.4C300.3,166.5,297.7,165.8,297.7,165.8z"/>
			</g>
			<g>
				<path class="st3" d="M317,288.1c0,0,0,0.1,0,0.4v2.5c0,0.3-0.6,1.4-1.2,1.6c-2,0.9-5.9,0.4-6.1-0.4c-0.2-0.7,0.9-2.2,1.8-3.3
					c0,0,0,0,0,0c0.6-0.7,1-1.2,1-1.2s1.1-24.5,2.3-24.5C316.1,263.1,317,288.1,317,288.1z"/>
				<path class="st3" d="M297.4,249.5c-3.4,0-5.2-18.7-5.3-26.7c-0.2-8,1.2-14.3,5.3-14.3c4.1,0,5.5,6.3,5.3,14.3
					C302.6,230.8,300.8,249.5,297.4,249.5z"/>
				<path class="st3" d="M297.4,289.3c-3,0-3.8-26.4-3.8-32.4c0-5.9,0.5-12.2,3.8-12.2c3.4,0,3.8,6.3,3.8,12.2
					C301.2,262.9,300.4,289.3,297.4,289.3z"/>
				<path class="st3" d="M311.9,249.5c-3.4,0.3-6.9-18.2-7.8-26.1c-0.9-8-0.1-14.4,4-14.8c4.1-0.4,6.1,5.8,6.6,13.8
					C315.4,230.4,315.3,249.2,311.9,249.5z"/>
				<path class="st3" d="M315.1,289.2c-3,0.3-5.7-26-6.3-31.9c-0.5-5.9-0.7-12.2,2.7-12.5c3.3-0.3,4.4,5.9,4.9,11.8
					C316.9,262.5,318,288.9,315.1,289.2z"/>
				<g>
					<path class="st3" d="M299.4,288.3l0.1,3c0,0.4-0.3,0.8-0.8,0.8h-8.1c-0.7,0-1-0.9-0.5-1.4c1.2-0.9,2.9-2,4.5-2.3
						c0.1,0,1.3-25.3,2.5-25.3C298.4,263.1,299.4,288.3,299.4,288.3z"/>
					<path class="st19" d="M299.6,288.8v2.8c0,0.3-0.2,0.5-0.5,0.5h-9c-0.8,0-1.1-1-0.5-1.5c1.3-1,3.4-2,5-2.7
						c0.4,0.3,0.9,1.3,1.6,1.5C296.7,289.5,299.6,288.8,299.6,288.8z"/>
				</g>
				<path class="st19" d="M317,288.4v2.5c0,0.3-0.6,1.4-1.2,1.6c-2,0.9-5.9,0.4-6.1-0.4c-0.2-0.7,0.9-2.2,1.8-3.3c0,0,0,0,0,0
					c0.4-0.4,2.6-0.2,2.9,0c0.4,0.2,1.2,0.7,1.4,0.7C316.1,289.5,317,288.4,317,288.4z"/>
			</g>
			<polygon class="st11" points="297.7,166 298.7,167.9 298.7,167.8 298.7,166 298.3,165.9 			"/>
			<path class="st11" d="M302.7,165.7l1,3c1.5-1.2,3.6-2.7,3.6-2.7l-1.2-1.9L302.7,165.7z"/>
			<polygon class="st22" points="297.5,167 297.1,168.7 298.7,167.9 298.7,167.9 297.7,166 			"/>
			<path class="st10" d="M297.1,168.7l0.3-1.7l-4.8,1.5c0,0-1.8,3.9-2.1,8.7c-0.1,1.4-0.1,5.2,0,10.1c0.1,12.5,0.5,31.6,0.5,31.6
				h0.6h11.6h11.8h0.5c0,0-0.5-14.3-0.7-18.6c-0.4-9.3,1.3-18.6,1.8-27.8c0-0.7,0.1-1.4-0.1-2.1c-0.4-1.6-1.8-2.2-3.1-2.9
				c-1.1-0.6-2.4-1-3.6-1.2c-0.5-0.1-2.2-0.5-2.6-0.3c0,0-2,1.4-3.6,2.7l-1-3l-2.6,5.3l-1.5-3.2c0,0,0,0.1,0,0.2L297.1,168.7z"/>
			<path class="st3" d="M289.4,185.3c-1.3-2.1,10.1-10.6,15.2-13.8c5.1-3.3,9.7-4.9,11.2-2.4c1.6,2.5-2,5.9-7.2,8.9
				C303.4,181.1,290.7,187.4,289.4,185.3z"/>
			<path class="st3" d="M265.1,176c0.7-2.1,16,2.2,20.2,3.6c4.3,1.4,8.7,3.1,7.9,5.4c-0.7,2.3-5.3,1.2-9.6-0.2
				C279.4,183.5,264.5,178.1,265.1,176z"/>
			<path id="hand_1" class="st3" d="M269.1,177.2c-0.6,2.5-4.8,0.9-6.3,0.4c-2.3-0.9-1.2-3.5-0.9-4.4c0.4-0.9,2.4,1.3,2.7,1.1
				c0.3-0.1-2.1-1.6-1.7-2.4c0.4-0.8,3.8,0.7,5,1.8C269,174.8,269.4,175.6,269.1,177.2z"/>
			<polygon class="st2" points="303.3,218.9 315.1,218.9 318,286.4 311.6,286.4 303.3,220.6 300.7,286.4 294.4,286.4 291.7,218.9 
							"/>
			<path class="st11" d="M316.3,169.5c-1.6-3-5.1-2.2-9.3,0c-4.3,2.2-14.8,10-15,10.2c-0.2,0.1-9.4-1.2-12.3-2.3
				c-2.8-1.1-4.7-1.4-6.9-1.5c-0.1,0-2.7-0.4-2.9-0.5c0,0-0.8,1.7-1.5,3.9c0,0,1.3,0.6,1.7,0.9c0.2,0.1,0.4,0,1.3,1.3
				c0.8,1.3,16.9,5.7,19.4,6.2c2.5,0.5,11.8-3.5,18.4-7.3C315.7,176.4,317.9,172.6,316.3,169.5z"/>
		</g>
		<path class="st1" d="M118.4,82.4h-3.3c-0.1-1.6-1.5-2.9-3.1-2.9h-4.9c0.1-0.4,0.2-0.7,0.2-1.1c0-2.4-1.9-4.3-4.3-4.3h-7.5
			c-2.4,0-4.3,1.9-4.3,4.3c0,0.4,0.1,0.8,0.2,1.1h-0.7c-1.6,0-3,1.3-3.1,2.9h-1c-2.2,0-4.1,1.8-4.1,4.1s1.8,4.1,4.1,4.1h31.9
			c2.2,0,4.1-1.8,4.1-4.1S120.7,82.4,118.4,82.4z"/>
		<path class="st1 floating" style="animation-delay: 500ms;" d="M299.9,36.8h-4.5c-0.2-2.2-2-4-4.3-4h-6.8c0.1-0.5,0.2-1,0.2-1.6c0-3.2-2.7-5.9-5.9-5.9h-10.4
			c-3.2,0-5.9,2.7-5.9,5.9c0,0.5,0.1,1.1,0.2,1.6h-0.9c-2.3,0-4.1,1.8-4.3,4H256c-3.1,0-5.6,2.5-5.6,5.6c0,3.1,2.5,5.6,5.6,5.6h43.9
			c3.1,0,5.6-2.5,5.6-5.6C305.5,39.3,303,36.8,299.9,36.8z"/>
		<g>
			<path class="st1" d="M61.5,151.7c-0.3,0-0.5-0.2-0.5-0.5v-2c0-0.3,0.2-0.5,0.5-0.5c0.3,0,0.5,0.2,0.5,0.5v2
				C62,151.4,61.7,151.7,61.5,151.7z M61.5,147.7c-0.3,0-0.5-0.2-0.5-0.5v-2c0-0.3,0.2-0.5,0.5-0.5c0.3,0,0.5,0.2,0.5,0.5v2
				C62,147.4,61.7,147.7,61.5,147.7z M61.5,143.7c-0.3,0-0.5-0.2-0.5-0.5v-2c0-0.3,0.2-0.5,0.5-0.5c0.3,0,0.5,0.2,0.5,0.5v2
				C62,143.4,61.7,143.7,61.5,143.7z M61.5,139.7c-0.3,0-0.5-0.2-0.5-0.5v-2c0-0.3,0.2-0.5,0.5-0.5c0.3,0,0.5,0.2,0.5,0.5v2
				C62,139.4,61.7,139.7,61.5,139.7z M61.5,135.7c-0.3,0-0.5-0.2-0.5-0.5v-2c0-0.3,0.2-0.5,0.5-0.5c0.3,0,0.5,0.2,0.5,0.5v2
				C62,135.4,61.7,135.7,61.5,135.7z M61.5,131.7c-0.3,0-0.5-0.2-0.5-0.5v-2c0-0.3,0.2-0.5,0.5-0.5c0.3,0,0.5,0.2,0.5,0.5v2
				C62,131.4,61.7,131.7,61.5,131.7z M91.1,128h-1.3c-0.3,0-0.5-0.2-0.5-0.5c0-0.3,0.2-0.5,0.5-0.5h1.3c0.3,0,0.5,0.2,0.5,0.5
				C91.6,127.7,91.4,128,91.1,128z M87.8,128h-2c-0.3,0-0.5-0.2-0.5-0.5c0-0.3,0.2-0.5,0.5-0.5h2c0.3,0,0.5,0.2,0.5,0.5
				C88.3,127.7,88,128,87.8,128z M83.8,128h-2c-0.3,0-0.5-0.2-0.5-0.5c0-0.3,0.2-0.5,0.5-0.5h2c0.3,0,0.5,0.2,0.5,0.5
				C84.3,127.7,84,128,83.8,128z M79.8,128h-2c-0.3,0-0.5-0.2-0.5-0.5c0-0.3,0.2-0.5,0.5-0.5h2c0.3,0,0.5,0.2,0.5,0.5
				C80.3,127.7,80,128,79.8,128z M75.8,128h-2c-0.3,0-0.5-0.2-0.5-0.5c0-0.3,0.2-0.5,0.5-0.5h2c0.3,0,0.5,0.2,0.5,0.5
				C76.3,127.7,76,128,75.8,128z M71.8,128h-2c-0.3,0-0.5-0.2-0.5-0.5c0-0.3,0.2-0.5,0.5-0.5h2c0.3,0,0.5,0.2,0.5,0.5
				C72.3,127.7,72,128,71.8,128z M67.8,128h-2c-0.3,0-0.5-0.2-0.5-0.5c0-0.3,0.2-0.5,0.5-0.5h2c0.3,0,0.5,0.2,0.5,0.5
				C68.3,127.7,68,128,67.8,128z M63.8,128h-2c-0.3,0-0.5-0.2-0.5-0.5c0-0.3,0.2-0.5,0.5-0.5h2c0.3,0,0.5,0.2,0.5,0.5
				C64.3,127.7,64,128,63.8,128z"/>
		</g>
		<g>
			<path class="st1" d="M328.9,219.3h-1.6c-0.3,0-0.5-0.2-0.5-0.5c0-0.3,0.2-0.5,0.5-0.5h0.6v-0.4c0-0.3,0.2-0.5,0.5-0.5
				s0.5,0.2,0.5,0.5V219.3z M325.3,219.3h-2c-0.3,0-0.5-0.2-0.5-0.5c0-0.3,0.2-0.5,0.5-0.5h2c0.3,0,0.5,0.2,0.5,0.5
				C325.8,219.1,325.5,219.3,325.3,219.3z M321.3,219.3h-1.5c-0.3,0-0.5-0.2-0.5-0.5c0-0.3,0.2-0.5,0.5-0.5h1.5
				c0.3,0,0.5,0.2,0.5,0.5C321.8,219.1,321.5,219.3,321.3,219.3z M328.4,216.4c-0.3,0-0.5-0.2-0.5-0.5v-2c0-0.3,0.2-0.5,0.5-0.5
				s0.5,0.2,0.5,0.5v2C328.9,216.2,328.6,216.4,328.4,216.4z M328.4,212.4c-0.3,0-0.5-0.2-0.5-0.5v-2c0-0.3,0.2-0.5,0.5-0.5
				s0.5,0.2,0.5,0.5v2C328.9,212.2,328.6,212.4,328.4,212.4z M328.4,208.4c-0.3,0-0.5-0.2-0.5-0.5v-2c0-0.3,0.2-0.5,0.5-0.5
				s0.5,0.2,0.5,0.5v2C328.9,208.2,328.6,208.4,328.4,208.4z M328.4,204.4c-0.3,0-0.5-0.2-0.5-0.5v-2c0-0.3,0.2-0.5,0.5-0.5
				s0.5,0.2,0.5,0.5v2C328.9,204.2,328.6,204.4,328.4,204.4z M328.4,200.4c-0.3,0-0.5-0.2-0.5-0.5v-2.4h0.5c0.3,0,0.5,0.2,0.5,0.5
				c0,0.1,0,0.1,0,0.2v1.7C328.9,200.2,328.6,200.4,328.4,200.4z M336.4,198.5h-2c-0.3,0-0.5-0.2-0.5-0.5c0-0.3,0.2-0.5,0.5-0.5h2
				c0.3,0,0.5,0.2,0.5,0.5C336.9,198.3,336.7,198.5,336.4,198.5z M332.4,198.5h-2c-0.3,0-0.5-0.2-0.5-0.5c0-0.3,0.2-0.5,0.5-0.5h2
				c0.3,0,0.5,0.2,0.5,0.5C332.9,198.3,332.7,198.5,332.4,198.5z"/>
		</g>
		<g>
			<path class="st8" d="M52.3,109.9c0,3.7-6.8,14.6-6.8,14.6s-6.8-10.8-6.8-14.6s3-6.8,6.8-6.8C49.3,103.1,52.3,106.1,52.3,109.9z"
				/>
			<path class="st7" d="M49.2,109.9c0,2-1.6,3.6-3.6,3.6c-2,0-3.6-1.6-3.6-3.6c0-2,1.6-3.6,3.6-3.6
				C47.5,106.2,49.2,107.8,49.2,109.9z"/>
		</g>
		<g class="floating">
			<path class="st9" d="M179.6,14.9v5.5c3,0,5.7,1.2,7.7,3.2c2,2,3.2,4.7,3.2,7.7c0,3-1.2,5.7-3.2,7.7l3.9,3.9c3-3,4.8-7.1,4.8-11.6
				C196,22.2,188.7,14.9,179.6,14.9z"/>
			<path class="st11" d="M187.3,39l3.9,3.9c-3,3-7.1,4.8-11.6,4.8c-9.1,0-16.4-7.3-16.4-16.4c0-9.1,7.3-16.4,16.4-16.4v5.5
				c-3,0-5.7,1.2-7.7,3.2c-2,2-3.2,4.7-3.2,7.7c0,3,1.2,5.7,3.2,7.7c2,2,4.7,3.2,7.7,3.2C182.6,42.2,185.3,41,187.3,39z"/>
		</g>
		<g id="arrow-right">
			<polygon class="st2" points="129.2,62.3 121.9,58.2 121.9,66.5 			"/>
			<polygon class="st2" points="121.2,62.3 113.9,58.2 113.9,66.5 			"/>
		</g>
		<g>
			<path class="st1" d="M118.8,109c-0.3,0-0.5-0.2-0.5-0.5v-2c0-0.3,0.2-0.5,0.5-0.5c0.3,0,0.5,0.2,0.5,0.5v2
				C119.3,108.7,119.1,109,118.8,109z M118.8,105c-0.3,0-0.5-0.2-0.5-0.5v-0.9h-0.1c-0.3,0-0.5-0.2-0.5-0.5c0-0.3,0.2-0.5,0.5-0.5
				h1.1v1.9C119.3,104.7,119.1,105,118.8,105z M116.2,103.6h-2c-0.3,0-0.5-0.2-0.5-0.5c0-0.3,0.2-0.5,0.5-0.5h2
				c0.3,0,0.5,0.2,0.5,0.5C116.7,103.4,116.5,103.6,116.2,103.6z M112.2,103.6h-2c-0.3,0-0.5-0.2-0.5-0.5c0-0.3,0.2-0.5,0.5-0.5h2
				c0.3,0,0.5,0.2,0.5,0.5C112.7,103.4,112.5,103.6,112.2,103.6z M108.2,103.6h-2c-0.3,0-0.5-0.2-0.5-0.5c0-0.3,0.2-0.5,0.5-0.5h2
				c0.3,0,0.5,0.2,0.5,0.5C108.7,103.4,108.5,103.6,108.2,103.6z M104.2,103.6h-2c-0.3,0-0.5-0.2-0.5-0.5c0-0.3,0.2-0.5,0.5-0.5h2
				c0.3,0,0.5,0.2,0.5,0.5C104.7,103.4,104.5,103.6,104.2,103.6z M100.2,103.6h-0.7v-2.3c0-0.3,0.2-0.5,0.5-0.5
				c0.3,0,0.5,0.2,0.5,0.5v1.4c0.1,0.1,0.2,0.2,0.2,0.4C100.7,103.4,100.5,103.6,100.2,103.6z M100,99.8c-0.3,0-0.5-0.2-0.5-0.5v-2
				c0-0.3,0.2-0.5,0.5-0.5c0.3,0,0.5,0.2,0.5,0.5v2C100.5,99.5,100.3,99.8,100,99.8z M100,95.8c-0.3,0-0.5-0.2-0.5-0.5v-2
				c0-0.3,0.2-0.5,0.5-0.5c0.3,0,0.5,0.2,0.5,0.5v2C100.5,95.5,100.3,95.8,100,95.8z"/>
		</g>
		<g>
			<path class="st1" d="M101.7,112h-0.2c-0.3,0-0.5-0.2-0.5-0.5c0-0.3,0.2-0.5,0.5-0.5h0.2c0.3,0,0.5,0.2,0.5,0.5
				C102.2,111.8,101.9,112,101.7,112z M99.5,112h-2c-0.3,0-0.5-0.2-0.5-0.5c0-0.3,0.2-0.5,0.5-0.5h2c0.3,0,0.5,0.2,0.5,0.5
				C100,111.8,99.7,112,99.5,112z M95.5,112h-2c-0.3,0-0.5-0.2-0.5-0.5c0-0.3,0.2-0.5,0.5-0.5h2c0.3,0,0.5,0.2,0.5,0.5
				C96,111.8,95.7,112,95.5,112z M91.5,112h-2c-0.3,0-0.5-0.2-0.5-0.5c0-0.3,0.2-0.5,0.5-0.5h2c0.3,0,0.5,0.2,0.5,0.5
				C92,111.8,91.7,112,91.5,112z M87.5,112h-2c-0.3,0-0.5-0.2-0.5-0.5c0-0.3,0.2-0.5,0.5-0.5h2c0.3,0,0.5,0.2,0.5,0.5
				C88,111.8,87.7,112,87.5,112z M83.5,112h-2c-0.3,0-0.5-0.2-0.5-0.5c0-0.3,0.2-0.5,0.5-0.5h2c0.3,0,0.5,0.2,0.5,0.5
				C84,111.8,83.7,112,83.5,112z M79.5,112h-2c-0.3,0-0.5-0.2-0.5-0.5c0-0.3,0.2-0.5,0.5-0.5h2c0.3,0,0.5,0.2,0.5,0.5
				C80,111.8,79.7,112,79.5,112z M75.5,112h-2c-0.3,0-0.5-0.2-0.5-0.5c0-0.3,0.2-0.5,0.5-0.5h2c0.3,0,0.5,0.2,0.5,0.5
				C76,111.8,75.7,112,75.5,112z M71.5,112h-2c-0.3,0-0.5-0.2-0.5-0.5c0-0.3,0.2-0.5,0.5-0.5h2c0.3,0,0.5,0.2,0.5,0.5
				C72,111.8,71.7,112,71.5,112z M67.5,112h-2c-0.3,0-0.5-0.2-0.5-0.5c0-0.3,0.2-0.5,0.5-0.5h2c0.3,0,0.5,0.2,0.5,0.5
				C68,111.8,67.7,112,67.5,112z M63.5,112h-2c-0.3,0-0.5-0.2-0.5-0.5c0-0.3,0.2-0.5,0.5-0.5h2c0.3,0,0.5,0.2,0.5,0.5
				C64,111.8,63.7,112,63.5,112z M59.5,112h-2c-0.3,0-0.5-0.2-0.5-0.5c0-0.3,0.2-0.5,0.5-0.5h2c0.3,0,0.5,0.2,0.5,0.5
				C60,111.8,59.7,112,59.5,112z"/>
		</g>
		<g>
			<path class="st1" d="M179.6,85.1c-0.3,0-0.5-0.2-0.5-0.5v-1.3c0-0.3,0.2-0.5,0.5-0.5c0.3,0,0.5,0.2,0.5,0.5v1.3
				C180.1,84.9,179.9,85.1,179.6,85.1z M179.6,81.8c-0.3,0-0.5-0.2-0.5-0.5v-2c0-0.3,0.2-0.5,0.5-0.5c0.3,0,0.5,0.2,0.5,0.5v2
				C180.1,81.5,179.9,81.8,179.6,81.8z M179.6,77.8c-0.3,0-0.5-0.2-0.5-0.5v-2c0-0.3,0.2-0.5,0.5-0.5c0.3,0,0.5,0.2,0.5,0.5v2
				C180.1,77.5,179.9,77.8,179.6,77.8z M179.6,73.8c-0.3,0-0.5-0.2-0.5-0.5v-2c0-0.3,0.2-0.5,0.5-0.5c0.3,0,0.5,0.2,0.5,0.5v2
				C180.1,73.5,179.9,73.8,179.6,73.8z M179.6,69.8c-0.3,0-0.5-0.2-0.5-0.5v-2c0-0.3,0.2-0.5,0.5-0.5c0.3,0,0.5,0.2,0.5,0.5v2
				C180.1,69.5,179.9,69.8,179.6,69.8z M179.6,65.8c-0.3,0-0.5-0.2-0.5-0.5v-2c0-0.3,0.2-0.5,0.5-0.5c0.3,0,0.5,0.2,0.5,0.5v2
				C180.1,65.5,179.9,65.8,179.6,65.8z M179.6,61.8c-0.3,0-0.5-0.2-0.5-0.5v-2c0-0.3,0.2-0.5,0.5-0.5c0.3,0,0.5,0.2,0.5,0.5v2
				C180.1,61.5,179.9,61.8,179.6,61.8z M179.6,57.8c-0.3,0-0.5-0.2-0.5-0.5v-2c0-0.3,0.2-0.5,0.5-0.5c0.3,0,0.5,0.2,0.5,0.5v2
				C180.1,57.5,179.9,57.8,179.6,57.8z M179.6,53.8c-0.3,0-0.5-0.2-0.5-0.5v-2c0-0.3,0.2-0.5,0.5-0.5c0.3,0,0.5,0.2,0.5,0.5v2
				C180.1,53.5,179.9,53.8,179.6,53.8z"/>
		</g>
		<g>
			<path class="st1" d="M250,36.3h-2c-0.3,0-0.5-0.2-0.5-0.5c0-0.3,0.2-0.5,0.5-0.5h2c0.3,0,0.5,0.2,0.5,0.5
				C250.5,36,250.2,36.3,250,36.3z M246,36.3h-2c-0.3,0-0.5-0.2-0.5-0.5c0-0.3,0.2-0.5,0.5-0.5h2c0.3,0,0.5,0.2,0.5,0.5
				C246.5,36,246.2,36.3,246,36.3z M242,36.3h-2c-0.3,0-0.5-0.2-0.5-0.5c0-0.3,0.2-0.5,0.5-0.5h2c0.3,0,0.5,0.2,0.5,0.5
				C242.5,36,242.2,36.3,242,36.3z M238,36.3h-2c-0.3,0-0.5-0.2-0.5-0.5c0-0.3,0.2-0.5,0.5-0.5h2c0.3,0,0.5,0.2,0.5,0.5
				C238.5,36,238.2,36.3,238,36.3z M234,36.3h-2c-0.3,0-0.5-0.2-0.5-0.5c0-0.3,0.2-0.5,0.5-0.5h2c0.3,0,0.5,0.2,0.5,0.5
				C234.5,36,234.2,36.3,234,36.3z M230,36.3h-2c-0.3,0-0.5-0.2-0.5-0.5c0-0.3,0.2-0.5,0.5-0.5h2c0.3,0,0.5,0.2,0.5,0.5
				C230.5,36,230.2,36.3,230,36.3z M226,36.3h-2c-0.3,0-0.5-0.2-0.5-0.5c0-0.3,0.2-0.5,0.5-0.5h2c0.3,0,0.5,0.2,0.5,0.5
				C226.5,36,226.2,36.3,226,36.3z M222,36.3h-2c-0.3,0-0.5-0.2-0.5-0.5c0-0.3,0.2-0.5,0.5-0.5h2c0.3,0,0.5,0.2,0.5,0.5
				C222.5,36,222.2,36.3,222,36.3z M218,36.3h-2c-0.3,0-0.5-0.2-0.5-0.5c0-0.3,0.2-0.5,0.5-0.5h2c0.3,0,0.5,0.2,0.5,0.5
				C218.5,36,218.2,36.3,218,36.3z M214,36.3h-2c-0.3,0-0.5-0.2-0.5-0.5c0-0.3,0.2-0.5,0.5-0.5h2c0.3,0,0.5,0.2,0.5,0.5
				C214.5,36,214.2,36.3,214,36.3z M210,36.3h-2c-0.3,0-0.5-0.2-0.5-0.5c0-0.3,0.2-0.5,0.5-0.5h2c0.3,0,0.5,0.2,0.5,0.5
				C210.5,36,210.2,36.3,210,36.3z M206,36.3h-2c-0.3,0-0.5-0.2-0.5-0.5c0-0.3,0.2-0.5,0.5-0.5h2c0.3,0,0.5,0.2,0.5,0.5
				C206.5,36,206.2,36.3,206,36.3z M202,36.3h-2c-0.3,0-0.5-0.2-0.5-0.5c0-0.3,0.2-0.5,0.5-0.5h2c0.3,0,0.5,0.2,0.5,0.5
				C202.5,36,202.2,36.3,202,36.3z"/>
		</g>
		<g>
			<path class="st1" d="M274,87.5h-0.9c-0.3,0-0.5-0.2-0.5-0.5s0.2-0.5,0.5-0.5h0.9c0.3,0,0.5,0.2,0.5,0.5S274.2,87.5,274,87.5z
				 M271.1,87.5h-2c-0.3,0-0.5-0.2-0.5-0.5s0.2-0.5,0.5-0.5h2c0.3,0,0.5,0.2,0.5,0.5S271.4,87.5,271.1,87.5z M267.1,87.5h-2
				c-0.3,0-0.5-0.2-0.5-0.5s0.2-0.5,0.5-0.5h2c0.3,0,0.5,0.2,0.5,0.5S267.4,87.5,267.1,87.5z M263.1,87.5c-0.3,0-0.5-0.2-0.5-0.5v-2
				c0-0.3,0.2-0.5,0.5-0.5c0.3,0,0.5,0.2,0.5,0.5v2C263.6,87.2,263.4,87.5,263.1,87.5z M263.1,83.5c-0.3,0-0.5-0.2-0.5-0.5v-2
				c0-0.3,0.2-0.5,0.5-0.5c0.3,0,0.5,0.2,0.5,0.5v2C263.6,83.2,263.4,83.5,263.1,83.5z M263.1,79.5c-0.3,0-0.5-0.2-0.5-0.5v-2
				c0-0.3,0.2-0.5,0.5-0.5c0.3,0,0.5,0.2,0.5,0.5v2C263.6,79.2,263.4,79.5,263.1,79.5z M263.1,75.5c-0.3,0-0.5-0.2-0.5-0.5v-2
				c0-0.3,0.2-0.5,0.5-0.5c0.3,0,0.5,0.2,0.5,0.5v2C263.6,75.2,263.4,75.5,263.1,75.5z M263.1,71.5c-0.3,0-0.5-0.2-0.5-0.5v-2
				c0-0.3,0.2-0.5,0.5-0.5c0.3,0,0.5,0.2,0.5,0.5v2C263.6,71.2,263.4,71.5,263.1,71.5z M263.1,67.5c-0.3,0-0.5-0.2-0.5-0.5v-2
				c0-0.3,0.2-0.5,0.5-0.5c0.3,0,0.5,0.2,0.5,0.5v2C263.6,67.2,263.4,67.5,263.1,67.5z M263.1,63.5c-0.3,0-0.5-0.2-0.5-0.5v-2
				c0-0.3,0.2-0.5,0.5-0.5c0.3,0,0.5,0.2,0.5,0.5v2C263.6,63.2,263.4,63.5,263.1,63.5z M263.1,59.5c-0.3,0-0.5-0.2-0.5-0.5v-2
				c0-0.3,0.2-0.5,0.5-0.5c0.3,0,0.5,0.2,0.5,0.5v2C263.6,59.2,263.4,59.5,263.1,59.5z M263.1,55.5c-0.3,0-0.5-0.2-0.5-0.5v-2
				c0-0.3,0.2-0.5,0.5-0.5c0.3,0,0.5,0.2,0.5,0.5v2C263.6,55.2,263.4,55.5,263.1,55.5z"/>
		</g>
		<g>
			<path class="st1" d="M375.6,173.2c-0.3,0-0.5-0.2-0.5-0.5v-2c0-0.3,0.2-0.5,0.5-0.5c0.3,0,0.5,0.2,0.5,0.5v2
				C376.1,173,375.9,173.2,375.6,173.2z M375.6,169.2c-0.3,0-0.5-0.2-0.5-0.5v-2c0-0.3,0.2-0.5,0.5-0.5c0.3,0,0.5,0.2,0.5,0.5v2
				C376.1,169,375.9,169.2,375.6,169.2z M375.6,165.2c-0.3,0-0.5-0.2-0.5-0.5v-2c0-0.3,0.2-0.5,0.5-0.5c0.3,0,0.5,0.2,0.5,0.5v2
				C376.1,165,375.9,165.2,375.6,165.2z M375.6,161.2c-0.3,0-0.5-0.2-0.5-0.5v-2c0-0.3,0.2-0.5,0.5-0.5c0.3,0,0.5,0.2,0.5,0.5v2
				C376.1,161,375.9,161.2,375.6,161.2z M375.6,157.2c-0.3,0-0.5-0.2-0.5-0.5v-2c0-0.3,0.2-0.5,0.5-0.5c0.3,0,0.5,0.2,0.5,0.5v2
				C376.1,157,375.9,157.2,375.6,157.2z M375.6,153.2c-0.3,0-0.5-0.2-0.5-0.5v-2c0-0.3,0.2-0.5,0.5-0.5c0.3,0,0.5,0.2,0.5,0.5v2
				C376.1,153,375.9,153.2,375.6,153.2z M375.6,149.2c-0.3,0-0.5-0.2-0.5-0.5v-2c0-0.3,0.2-0.5,0.5-0.5c0.3,0,0.5,0.2,0.5,0.5v2
				C376.1,149,375.9,149.2,375.6,149.2z M375.6,145.2c-0.3,0-0.5-0.2-0.5-0.5v-2c0-0.3,0.2-0.5,0.5-0.5c0.3,0,0.5,0.2,0.5,0.5v2
				C376.1,145,375.9,145.2,375.6,145.2z M374.4,142.4h-2c-0.3,0-0.5-0.2-0.5-0.5c0-0.3,0.2-0.5,0.5-0.5h2c0.3,0,0.5,0.2,0.5,0.5
				C374.9,142.2,374.7,142.4,374.4,142.4z M370.4,142.4h-2c-0.3,0-0.5-0.2-0.5-0.5c0-0.3,0.2-0.5,0.5-0.5h2c0.3,0,0.5,0.2,0.5,0.5
				C370.9,142.2,370.7,142.4,370.4,142.4z M366.4,142.4h-2c-0.3,0-0.5-0.2-0.5-0.5c0-0.3,0.2-0.5,0.5-0.5h2c0.3,0,0.5,0.2,0.5,0.5
				C366.9,142.2,366.7,142.4,366.4,142.4z M362.4,142.4h-2c-0.3,0-0.5-0.2-0.5-0.5c0-0.3,0.2-0.5,0.5-0.5h2c0.3,0,0.5,0.2,0.5,0.5
				C362.9,142.2,362.7,142.4,362.4,142.4z"/>
		</g>
		<g class="floating" style="animation-duration: 5s;">
			<rect x="103.6" y="23.7" class="st10" width="37.9" height="17.6"/>
			<path class="st11" d="M105.2,36.5v-8.1c1.7,0,3.1-1.4,3.1-3.1l28.4,0c0,1.7,1.4,3.1,3.1,3.1l0,8.1c-1.7,0-3.1,1.4-3.1,3.1h-28.4
				C108.3,37.9,106.9,36.5,105.2,36.5z"/>
			<path class="st10" d="M127.8,32.5c0,2.9-2.4,5.3-5.3,5.3c-2.9,0-5.3-2.4-5.3-5.3c0-2.9,2.4-5.3,5.3-5.3
				C125.4,27.2,127.8,29.6,127.8,32.5z"/>
			<g>
				<path class="st11" d="M124.5,33.7c0,0.4-0.2,0.7-0.5,1c-0.3,0.3-0.7,0.4-1.3,0.5v1h-0.6v-1c-0.3,0-0.7,0-1-0.1
					c-0.3-0.1-0.6-0.1-0.8-0.2v-0.7c0.2,0.1,0.5,0.2,0.9,0.3c0.3,0.1,0.6,0.1,0.9,0.1v-2c-0.6-0.2-1-0.4-1.3-0.7
					c-0.2-0.3-0.4-0.6-0.4-1c0-0.4,0.2-0.7,0.5-1c0.3-0.3,0.7-0.4,1.2-0.5v-0.8h0.6l0,0.8c0.6,0,1.1,0.1,1.6,0.3l-0.2,0.6
					c-0.4-0.2-0.9-0.3-1.4-0.3v1.9c0.5,0.1,0.8,0.3,1.1,0.4c0.2,0.1,0.4,0.3,0.5,0.5C124.5,33.2,124.5,33.4,124.5,33.7z M121.3,31
					c0,0.2,0.1,0.4,0.2,0.5c0.1,0.1,0.4,0.3,0.7,0.4v-1.7c-0.3,0-0.5,0.1-0.7,0.3C121.4,30.6,121.3,30.8,121.3,31z M123.8,33.8
					c0-0.2-0.1-0.4-0.2-0.5c-0.1-0.1-0.4-0.3-0.8-0.4v1.7C123.4,34.5,123.8,34.2,123.8,33.8z"/>
			</g>
		</g>
		<g class="floating" style="animation-delay: 2s">
			
				<rect x="212.7" y="214.5" transform="matrix(0.7071 -0.7071 0.7071 0.7071 -90.0574 229.1653)" class="st10" width="37.9" height="17.6"/>
			<path class="st11" d="M222.2,238.4l-5.7-5.7c1.2-1.2,1.2-3.2,0-4.4l20.1-20.1c1.2,1.2,3.2,1.2,4.4,0l5.7,5.7
				c-1.2,1.2-1.2,3.2,0,4.4l-20.1,20.1C225.4,237.2,223.4,237.2,222.2,238.4z"/>
			<path class="st10" d="M235.4,219.5c2.1,2.1,2.1,5.4,0,7.5c-2.1,2.1-5.4,2.1-7.5,0c-2.1-2.1-2.1-5.4,0-7.5
				C229.9,217.5,233.3,217.5,235.4,219.5z"/>
			<g>
				<path class="st11" d="M233.9,222.7c0.3,0.3,0.4,0.6,0.4,1c0,0.4-0.2,0.8-0.6,1.3l0.7,0.7l-0.4,0.4l-0.7-0.7
					c-0.2,0.2-0.5,0.4-0.7,0.6c-0.3,0.2-0.5,0.3-0.7,0.4l-0.5-0.5c0.3-0.1,0.5-0.2,0.8-0.4c0.3-0.2,0.5-0.4,0.7-0.6l-1.4-1.4
					c-0.6,0.3-1,0.4-1.4,0.4c-0.4,0-0.7-0.2-1-0.4c-0.3-0.3-0.4-0.6-0.4-1c0-0.4,0.2-0.8,0.5-1.2l-0.6-0.6l0.4-0.4l0.6,0.6
					c0.4-0.4,0.9-0.7,1.4-0.9l0.3,0.6c-0.4,0.2-0.8,0.4-1.2,0.7l1.4,1.4c0.4-0.2,0.8-0.4,1.1-0.4s0.5-0.1,0.7,0
					C233.5,222.4,233.7,222.5,233.9,222.7z M229.7,223.1c0.2,0.2,0.3,0.2,0.5,0.2c0.2,0,0.4-0.1,0.8-0.2l-1.2-1.2
					c-0.2,0.2-0.3,0.5-0.3,0.7C229.5,222.7,229.5,222.9,229.7,223.1z M233.4,223.3c-0.2-0.2-0.3-0.2-0.5-0.2c-0.2,0-0.5,0.1-0.8,0.3
					l1.2,1.2C233.7,224,233.7,223.6,233.4,223.3z"/>
			</g>
		</g>
		<g class="floating" style="animation-delay: 1s">
			<rect x="194.8" y="202.6" class="st10" width="37.9" height="17.6"/>
			<path class="st11" d="M196.4,215.4l0-8.1c1.7,0,3.1-1.4,3.1-3.1l28.4,0c0,1.7,1.4,3.1,3.1,3.1l0,8.1c-1.7,0-3.1,1.4-3.1,3.1
				l-28.4,0C199.5,216.8,198.1,215.4,196.4,215.4z"/>
			<path class="st10" d="M219,211.4c0,2.9-2.4,5.3-5.3,5.3s-5.3-2.4-5.3-5.3c0-2.9,2.4-5.3,5.3-5.3C216.6,206,219,208.4,219,211.4z"
				/>
			<g>
				<path class="st11" d="M215.7,212.6c0,0.4-0.2,0.7-0.5,1c-0.3,0.3-0.7,0.4-1.3,0.5v1h-0.6v-1c-0.3,0-0.7,0-1-0.1
					c-0.3-0.1-0.6-0.1-0.8-0.2v-0.7c0.2,0.1,0.5,0.2,0.9,0.3c0.3,0.1,0.6,0.1,0.9,0.1v-2c-0.6-0.2-1-0.4-1.3-0.7
					c-0.2-0.3-0.4-0.6-0.4-1c0-0.4,0.2-0.7,0.5-1c0.3-0.3,0.7-0.4,1.2-0.5v-0.8h0.6l0,0.8c0.6,0,1.1,0.1,1.6,0.3l-0.2,0.6
					c-0.4-0.2-0.9-0.3-1.4-0.3v1.9c0.5,0.1,0.8,0.3,1.1,0.4c0.2,0.1,0.4,0.3,0.5,0.5C215.7,212.1,215.7,212.3,215.7,212.6z
					 M212.5,209.8c0,0.2,0.1,0.4,0.2,0.5c0.1,0.1,0.4,0.3,0.7,0.4V209c-0.3,0-0.5,0.1-0.7,0.3S212.5,209.6,212.5,209.8z M215,212.6
					c0-0.2-0.1-0.4-0.2-0.5c-0.1-0.1-0.4-0.3-0.8-0.4v1.7C214.6,213.3,215,213.1,215,212.6z"/>
			</g>
		</g>
		<g class="floating" style="animation-delay: 0.5s">
			
				<rect x="214.7" y="177.5" transform="matrix(0.7071 0.7071 -0.7071 0.7071 195.8292 -106.6139)" class="st10" width="23.8" height="11.1"/>
			<path class="st11" d="M217.9,176.4l2-2c1.2,1.2,3.2,1.2,4.4,0l11,11c-1.2,1.2-1.2,3.2,0,4.4l-2,2c-1.2-1.2-3.2-1.2-4.4,0l-11-11
				C219.1,179.6,219.1,177.6,217.9,176.4z"/>
			<path class="st10" d="M229,185.4c-1.3,1.3-3.4,1.3-4.7,0c-1.3-1.3-1.3-3.4,0-4.7c1.3-1.3,3.4-1.3,4.7,0
				C230.3,182,230.3,184.1,229,185.4z"/>
			<g>
				<path class="st11" d="M227,184.5c-0.2,0.2-0.4,0.3-0.7,0.2c-0.3,0-0.5-0.1-0.8-0.3l-0.5,0.5l-0.3-0.3l0.4-0.4
					c-0.1-0.1-0.3-0.3-0.4-0.5c-0.1-0.2-0.2-0.3-0.2-0.4l0.3-0.3c0.1,0.2,0.1,0.3,0.3,0.5c0.1,0.2,0.2,0.3,0.3,0.4l0.9-0.9
					c-0.2-0.4-0.3-0.7-0.3-0.9c0-0.2,0.1-0.4,0.3-0.6c0.2-0.2,0.4-0.3,0.6-0.2c0.2,0,0.5,0.1,0.7,0.3l0.4-0.4l0.3,0.3l-0.4,0.4
					c0.2,0.3,0.4,0.5,0.6,0.9l-0.4,0.2c-0.1-0.3-0.3-0.5-0.5-0.7l-0.9,0.9c0.1,0.3,0.2,0.5,0.3,0.7c0,0.2,0,0.3,0,0.4
					C227.2,184.3,227.1,184.4,227,184.5z M226.8,181.9c-0.1,0.1-0.2,0.2-0.2,0.3c0,0.1,0,0.3,0.1,0.5l0.8-0.8
					c-0.2-0.1-0.3-0.2-0.4-0.2C227,181.7,226.9,181.8,226.8,181.9z M226.6,184.2c0.1-0.1,0.1-0.2,0.1-0.3c0-0.1-0.1-0.3-0.2-0.5
					l-0.8,0.8C226.1,184.4,226.4,184.4,226.6,184.2z"/>
			</g>
		</g>
		<g>
			<g id="XMLID_73_" class="floating" style="animation-duration: 4s;">
				<g>
					<path class="st10" d="M102.8,44.5c3.5,0,6.3,2.8,6.3,6.3c0,3.5-2.8,6.3-6.3,6.3c-3.5,0-6.3-2.8-6.3-6.3
						C96.4,47.3,99.3,44.5,102.8,44.5z M108.2,50.8c0-3-2.4-5.4-5.4-5.4c-3,0-5.4,2.4-5.4,5.4c0,3,2.4,5.4,5.4,5.4
						C105.8,56.3,108.2,53.8,108.2,50.8z"/>
					<path class="st11" d="M102.8,45.4c3,0,5.4,2.4,5.4,5.4c0,3-2.4,5.4-5.4,5.4c-3,0-5.4-2.4-5.4-5.4
						C97.3,47.8,99.8,45.4,102.8,45.4z M107.8,50.8c0-2.8-2.3-5-5-5c-2.8,0-5,2.3-5,5s2.3,5,5,5C105.5,55.9,107.8,53.6,107.8,50.8z"
						/>
					<path class="st10" d="M102.8,45.8c2.8,0,5,2.3,5,5s-2.3,5-5,5c-2.8,0-5-2.3-5-5S100,45.8,102.8,45.8z M107.1,50.8
						c0-2.4-1.9-4.3-4.3-4.3c-2.4,0-4.3,1.9-4.3,4.3c0,2.4,1.9,4.3,4.3,4.3C105.2,55.2,107.1,53.2,107.1,50.8z"/>
					<path class="st11" d="M102.8,46.5c2.4,0,4.3,1.9,4.3,4.3c0,2.4-1.9,4.3-4.3,4.3c-2.4,0-4.3-1.9-4.3-4.3
						C98.4,48.4,100.4,46.5,102.8,46.5z"/>
				</g>
			</g>
			<g>
				<path class="st10" d="M103.5,48.8c0.5,0.2,0.8,0.7,0.8,1.3v0.1h-0.7c0-0.4-0.1-0.6-0.3-0.8l-0.3,1.2c0.8,0.1,1.3,0.5,1.3,1.1
					v0.1c0,0.8-0.6,1.3-1.5,1.3c-0.1,0-0.2,0-0.3,0l-0.2,0.7h-0.5l0.2-0.9c-0.5-0.2-0.8-0.7-0.8-1.3v0h0.7c0,0.3,0.1,0.5,0.3,0.7
					l0.3-1.2c-0.9-0.1-1.2-0.5-1.2-1.1v-0.1c0-0.8,0.6-1.2,1.5-1.2c0.1,0,0.2,0,0.2,0l0.2-0.7h0.5L103.5,48.8z M102.6,50.5l0.3-1.3
					c0,0-0.1,0-0.1,0h0c-0.5,0-0.8,0.2-0.8,0.6v0C101.9,50.2,102.1,50.4,102.6,50.5z M103.7,51.8L103.7,51.8c0-0.4-0.2-0.6-0.7-0.7
					l-0.3,1.4c0.1,0,0.1,0,0.2,0h0C103.3,52.5,103.7,52.2,103.7,51.8z"/>
			</g>
		</g>
		<g>
			<g id="XMLID_6_">
				<g>
					<path class="st10" d="M229.8,51.7c2.3,0,4.2,1.9,4.2,4.2s-1.9,4.2-4.2,4.2s-4.2-1.9-4.2-4.2S227.5,51.7,229.8,51.7z
						 M233.4,55.9c0-2-1.6-3.6-3.6-3.6c-2,0-3.6,1.6-3.6,3.6s1.6,3.6,3.6,3.6C231.8,59.5,233.4,57.9,233.4,55.9z"/>
					<path class="st11" d="M229.8,52.3c2,0,3.6,1.6,3.6,3.6s-1.6,3.6-3.6,3.6c-2,0-3.6-1.6-3.6-3.6S227.9,52.3,229.8,52.3z
						 M233.2,55.9c0-1.8-1.5-3.3-3.3-3.3c-1.8,0-3.3,1.5-3.3,3.3s1.5,3.3,3.3,3.3C231.7,59.3,233.2,57.8,233.2,55.9z"/>
					<path class="st10" d="M229.8,52.6c1.8,0,3.3,1.5,3.3,3.3s-1.5,3.3-3.3,3.3c-1.8,0-3.3-1.5-3.3-3.3S228,52.6,229.8,52.6z
						 M232.7,55.9c0-1.6-1.3-2.9-2.9-2.9c-1.6,0-2.9,1.3-2.9,2.9c0,1.6,1.3,2.9,2.9,2.9C231.4,58.8,232.7,57.5,232.7,55.9z"/>
					<path class="st11" d="M229.8,53c1.6,0,2.9,1.3,2.9,2.9c0,1.6-1.3,2.9-2.9,2.9c-1.6,0-2.9-1.3-2.9-2.9
						C227,54.3,228.2,53,229.8,53z"/>
				</g>
			</g>
			<g>
				<path class="st10" d="M230.3,54.5c0.4,0.1,0.5,0.4,0.5,0.9v0.1h-0.4c0-0.2-0.1-0.4-0.2-0.5l-0.2,0.8c0.5,0.1,0.8,0.3,0.8,0.8v0
					c0,0.5-0.4,0.8-1,0.8c-0.1,0-0.1,0-0.2,0l-0.1,0.5h-0.4l0.1-0.6c-0.4-0.1-0.5-0.4-0.5-0.8v0h0.4c0,0.2,0.1,0.4,0.2,0.5l0.2-0.8
					c-0.6-0.1-0.8-0.3-0.8-0.7v0c0-0.5,0.4-0.8,1-0.8c0.1,0,0.1,0,0.2,0l0.1-0.5h0.4L230.3,54.5z M229.7,55.7l0.2-0.8c0,0,0,0-0.1,0
					h0c-0.3,0-0.6,0.1-0.6,0.4v0C229.3,55.5,229.4,55.6,229.7,55.7z M230.4,56.5L230.4,56.5c0-0.3-0.1-0.4-0.5-0.5l-0.2,0.9
					c0,0,0.1,0,0.1,0h0C230.2,57,230.4,56.8,230.4,56.5z"/>
			</g>
		</g>
		<g>
			<g id="XMLID_1_" class="floating" style="animation-duration: 9s;">
				<g>
					<path class="st10" d="M91.7,34.6c3.5,0,6.3,2.8,6.3,6.3s-2.8,6.3-6.3,6.3c-3.5,0-6.3-2.8-6.3-6.3S88.2,34.6,91.7,34.6z
						 M97.1,40.9c0-3-2.4-5.4-5.4-5.4c-3,0-5.4,2.4-5.4,5.4s2.4,5.4,5.4,5.4C94.7,46.3,97.1,43.9,97.1,40.9z"/>
					<path class="st11" d="M91.7,35.5c3,0,5.4,2.4,5.4,5.4s-2.4,5.4-5.4,5.4c-3,0-5.4-2.4-5.4-5.4S88.7,35.5,91.7,35.5z M96.7,40.9
						c0-2.8-2.3-5-5-5c-2.8,0-5,2.3-5,5s2.3,5,5,5C94.5,45.9,96.7,43.7,96.7,40.9z"/>
					<path class="st10" d="M91.7,35.9c2.8,0,5,2.3,5,5s-2.3,5-5,5c-2.8,0-5-2.3-5-5S88.9,35.9,91.7,35.9z M96,40.9
						c0-2.4-1.9-4.3-4.3-4.3c-2.4,0-4.3,1.9-4.3,4.3s1.9,4.3,4.3,4.3C94.1,45.2,96,43.3,96,40.9z"/>
					<path class="st11" d="M91.7,36.6c2.4,0,4.3,1.9,4.3,4.3s-1.9,4.3-4.3,4.3c-2.4,0-4.3-1.9-4.3-4.3S89.3,36.6,91.7,36.6z"/>
				</g>
			</g>
			<g>
				<path class="st10" d="M92.4,38.8c0.5,0.2,0.8,0.7,0.8,1.3v0.1h-0.7c0-0.4-0.1-0.6-0.3-0.8L92,40.6c0.8,0.1,1.3,0.5,1.3,1.1v0.1
					c0,0.8-0.6,1.3-1.5,1.3c-0.1,0-0.2,0-0.3,0l-0.2,0.7h-0.5l0.2-0.9c-0.5-0.2-0.8-0.7-0.8-1.3v0h0.7c0,0.3,0.1,0.5,0.3,0.7
					l0.3-1.2c-0.9-0.1-1.2-0.5-1.2-1.1v-0.1c0-0.8,0.6-1.2,1.5-1.2c0.1,0,0.2,0,0.2,0l0.2-0.7h0.5L92.4,38.8z M91.5,40.6l0.3-1.3
					c0,0-0.1,0-0.1,0h0c-0.5,0-0.8,0.2-0.8,0.6v0C90.8,40.3,91,40.5,91.5,40.6z M92.6,41.9L92.6,41.9c0-0.4-0.2-0.6-0.7-0.7
					l-0.3,1.4c0.1,0,0.1,0,0.2,0h0C92.2,42.5,92.6,42.3,92.6,41.9z"/>
			</g>
		</g>
		<g>
			<path class="st1" d="M158.2,33.3h-2c-0.3,0-0.5-0.2-0.5-0.5c0-0.3,0.2-0.5,0.5-0.5h2c0.3,0,0.5,0.2,0.5,0.5
				C158.7,33.1,158.4,33.3,158.2,33.3z M154.2,33.3h-2c-0.3,0-0.5-0.2-0.5-0.5c0-0.3,0.2-0.5,0.5-0.5h2c0.3,0,0.5,0.2,0.5,0.5
				C154.7,33.1,154.4,33.3,154.2,33.3z M150.2,33.3h-2c-0.3,0-0.5-0.2-0.5-0.5c0-0.3,0.2-0.5,0.5-0.5h2c0.3,0,0.5,0.2,0.5,0.5
				C150.7,33.1,150.4,33.3,150.2,33.3z M146.2,33.3h-2c-0.3,0-0.5-0.2-0.5-0.5c0-0.3,0.2-0.5,0.5-0.5h2c0.3,0,0.5,0.2,0.5,0.5
				C146.7,33.1,146.4,33.3,146.2,33.3z"/>
		</g>
		<g>
			<path class="st9" d="M78.1,69.1h-2.8v-3.3c0-3.2,3.2-3.1,3.2-4.7c0-1.2-0.9-1.5-1.7-1.5c-1.2,0-1.9,0.7-1.8,2H72
				c0-3,1.9-4.5,4.6-4.5c2.3,0,4.5,1.3,4.5,4c0,2.6-3.1,3.2-3.1,4.7V69.1z M76.7,70.3c1.1,0,1.9,0.9,1.9,1.9c0,1.1-0.9,1.9-1.9,1.9
				c-1.1,0-1.9-0.9-1.9-1.9C74.7,71.1,75.6,70.3,76.7,70.3z"/>
		</g>
		<path class="st8 floating" d="M324.6,28.2c-6.3,0-11.5,5.1-11.5,11.5c0,6.3,5.1,11.5,11.5,11.5c6.3,0,11.5-5.1,11.5-11.5
			C336.1,33.3,331,28.2,324.6,28.2z M331.3,46.3c-1.7,1.7-4.1,2.8-6.7,2.8c-2.6,0-5-1.1-6.7-2.8c-1.7-1.7-2.8-4.1-2.8-6.7
			c0-2.6,1.1-5,2.8-6.7c1.7-1.7,4.1-2.8,6.7-2.8c2.6,0,5,1.1,6.7,2.8c1.7,1.7,2.8,4.1,2.8,6.7C334.1,42.3,333,44.6,331.3,46.3z
			 M325.1,31.4c-0.6,0-1,0.5-1,1l0,0v7.2l-3.2,3.4c-0.4,0.4-0.4,1.1,0,1.5c0.4,0.4,1.1,0.4,1.5,0l3.5-3.7c0.2-0.2,0.3-0.4,0.3-0.7
			v-7.6C326.1,31.8,325.7,31.4,325.1,31.4z"/>
		<g>
			<rect x="240.2" y="72.1" class="st1" width="5" height="19.1"/>
			<rect x="223.4" y="80.2" class="st1" width="5" height="11"/>
			<rect x="214.9" y="84.9" class="st1" width="5" height="6.3"/>
			<rect x="206.5" y="84.9" class="st1" width="5" height="6.3"/>
			<rect x="198.1" y="88.1" class="st1" width="5" height="3.2"/>
			<rect x="231.8" y="77.4" class="st1" width="5" height="13.8"/>
			<path class="st1" d="M196,85.4c0,0,0.2,0,0.5,0c1.7,0,8.3-0.2,17.1-3.1c8.7-2.9,19.6-8.4,29.9-19.1l-1.6-1.5
				c-10,10.4-20.6,15.8-29,18.6c-8.5,2.8-14.8,3-16.4,3c-0.1,0-0.2,0-0.3,0l-0.1,0L196,85.4L196,85.4z"/>
			<polygon class="st1" points="245.1,60.2 238.7,61.6 243.8,66.7 			"/>
		</g>
		<path class="st8" d="M374.3,242.4c-1,0-1.9,0.8-1.9,1.9c0,1,0.8,1.9,1.9,1.9c1,0,1.9-0.8,1.9-1.9
			C376.2,243.3,375.3,242.4,374.3,242.4z M370,239.7l1.6,1.7c0.7-0.7,1.7-1.1,2.7-1.1c1.1,0,2,0.4,2.7,1.1l1.6-1.7
			c-1.1-1.1-2.7-1.7-4.3-1.7C372.6,238,371.1,238.7,370,239.7z M374.3,228.1c-4.4,0-8.3,1.7-11.2,4.5l1.6,1.7
			c2.5-2.4,5.9-3.8,9.6-3.8c3.7,0,7.1,1.5,9.6,3.8l1.6-1.7C382.6,229.8,378.7,228.1,374.3,228.1z M366.6,236.2l1.6,1.7
			c1.6-1.5,3.7-2.5,6.1-2.5c2.4,0,4.5,0.9,6.1,2.5l1.6-1.7c-2-1.9-4.7-3.1-7.7-3.1C371.3,233.1,368.6,234.3,366.6,236.2z"/>
		<path class="st11" d="M229.2,16.5h6.2l4.5-11.8L229.2,16.5z M241.6,16.5h-6.2l-4.5,11.8L241.6,16.5z"/>
		<path class="st1" d="M329.4,241.4c0.6,0,1.1-0.2,1.5-0.6c0.4-0.4,0.6-1,0.6-1.5c0-0.6-0.2-1.1-0.6-1.5c-0.4-0.4-1-0.6-1.5-0.6
			c-0.6,0-1.1,0.2-1.5,0.6c-0.4,0.4-0.6,1-0.6,1.5c0,0.6,0.2,1.1,0.6,1.5C328.3,241.2,328.8,241.4,329.4,241.4"/>
		<path class="st1" d="M351.6,241.4L351.6,241.4c1.2,0,2.2-1,2.2-2.2c0-1.2-1-2.2-2.2-2.2h0c-1.2,0-2.2,1-2.2,2.2
			C349.5,240.4,350.4,241.4,351.6,241.4z"/>
		<path class="st1" d="M340.5,241.4L340.5,241.4c1.2,0,2.2-1,2.2-2.2c0-1.2-1-2.2-2.2-2.2h0c-1.2,0-2.2,1-2.2,2.2
			C338.3,240.4,339.3,241.4,340.5,241.4z"/>
		<path class="st1" d="M329.4,232.6c0.6,0,1.1-0.2,1.5-0.6c0.4-0.4,0.6-1,0.6-1.5c0-0.6-0.2-1.1-0.6-1.5c-0.4-0.4-1-0.6-1.5-0.6
			c-0.6,0-1.1,0.2-1.5,0.6c-0.4,0.4-0.6,1-0.6,1.5c0,0.6,0.2,1.1,0.6,1.5C328.3,232.3,328.8,232.6,329.4,232.6"/>
		<path class="st1" d="M351.6,232.6L351.6,232.6c1.2,0,2.2-1,2.2-2.2c0-1.2-1-2.2-2.2-2.2h0c-1.2,0-2.2,1-2.2,2.2
			C349.5,231.6,350.4,232.6,351.6,232.6z"/>
		<path class="st1" d="M340.5,232.6L340.5,232.6c1.2,0,2.2-1,2.2-2.2c0-1.2-1-2.2-2.2-2.2h0c-1.2,0-2.2,1-2.2,2.2
			C338.3,231.6,339.3,232.6,340.5,232.6z"/>
		<path class="st1" d="M329.4,250.3c0.6,0,1.1-0.2,1.5-0.6c0.4-0.4,0.6-1,0.6-1.5c0-0.6-0.2-1.1-0.6-1.5c-0.4-0.4-1-0.6-1.5-0.6
			c-0.6,0-1.1,0.2-1.5,0.6c-0.4,0.4-0.6,1-0.6,1.5c0,0.6,0.2,1.1,0.6,1.5C328.3,250,328.8,250.3,329.4,250.3"/>
		<path class="st1" d="M351.6,250.3L351.6,250.3c1.2,0,2.2-1,2.2-2.2c0-1.2-1-2.2-2.2-2.2h0c-1.2,0-2.2,1-2.2,2.2
			C349.5,249.3,350.4,250.3,351.6,250.3z"/>
		<path class="st1" d="M340.5,250.3L340.5,250.3c1.2,0,2.2-1,2.2-2.2c0-1.2-1-2.2-2.2-2.2h0c-1.2,0-2.2,1-2.2,2.2
			C338.3,249.3,339.3,250.3,340.5,250.3z"/>
		<path class="st1" d="M68.1,215.3c-2.2,0-3.4-1.3-4.4-2.4c-0.9-1-1.6-1.9-3.1-1.9c-1.5,0-2.2,0.8-3.2,1.9c-1,1.1-2.1,2.4-4.4,2.4
			c-2.2,0-3.4-1.3-4.4-2.4c-0.9-1-1.6-1.9-3.1-1.9c-1.5,0-2.2,0.8-3.2,1.9c-1,1.1-2.1,2.4-4.4,2.4c-2.2,0-3.4-1.3-4.4-2.4
			c-0.9-1-1.6-1.9-3.2-1.9c-1.5,0-2.2,0.8-3.2,1.9c-1,1.1-2.1,2.4-4.4,2.4c-0.4,0-0.8-0.4-0.8-0.8c0-0.4,0.4-0.8,0.8-0.8
			c1.5,0,2.2-0.8,3.2-1.9c1-1.1,2.1-2.4,4.4-2.4s3.4,1.3,4.4,2.4c0.9,1,1.6,1.9,3.2,1.9c1.5,0,2.2-0.8,3.2-1.9
			c1-1.1,2.1-2.4,4.4-2.4c2.2,0,3.4,1.3,4.4,2.4c0.9,1,1.6,1.9,3.1,1.9c1.5,0,2.2-0.8,3.1-1.9c1-1.1,2.1-2.4,4.4-2.4
			c2.2,0,3.4,1.3,4.4,2.4c0.9,1,1.6,1.9,3.1,1.9c0.4,0,0.8,0.4,0.8,0.8C68.9,215,68.5,215.3,68.1,215.3z"/>
		<path class="st1" d="M198.2,63.3c-3.9,0-7.1-3.2-7.1-7.1s3.2-7.1,7.1-7.1c3.9,0,7.1,3.2,7.1,7.1S202.1,63.3,198.2,63.3z
			 M198.2,50.8c-3,0-5.5,2.4-5.5,5.5c0,3,2.4,5.5,5.5,5.5c3,0,5.5-2.4,5.5-5.5C203.6,53.2,201.2,50.8,198.2,50.8z"/>
		<polygon class="st11" points="63,253.9 63,248.3 59.9,248.3 59.9,253.9 54.3,253.9 54.3,257.1 59.9,257.1 59.9,262.7 63,262.7 
			63,257.1 68.7,257.1 68.7,253.9 		"/>
		<path class="st9" d="M41.8,224.1c-2.8,2.8-3.1,7-1,10.2l-5.2,5.2c-0.2,0.2-0.2,0.6,0,0.8l1.4,1.4c0.2,0.2,0.6,0.2,0.8,0l5.2-5.2
			c3.3,2.2,8,1.7,10.7-1.6c2.4-2.9,2.4-7.2,0.1-10.1C50.8,221,45.2,220.8,41.8,224.1z M43.5,225.8c2.2-2.2,5.8-2.2,8.1,0
			c2.2,2.2,2.2,5.8,0,8.1c-2.2,2.2-5.8,2.2-8.1,0C41.3,231.6,41.3,228,43.5,225.8z"/>
		<polygon class="st11" points="344.7,266.9 358.4,259 358.4,274.8 		"/>
		
			<rect x="356.2" y="262.7" transform="matrix(-1 -1.224647e-16 1.224647e-16 -1 726.9963 533.8585)" class="st11" width="14.5" height="8.5"/>
		<path class="st1" d="M213.6,58.4L213.6,58.4c1.2,0,2.2-1,2.2-2.2c0-1.2-1-2.2-2.2-2.2h0c-1.2,0-2.2,1-2.2,2.2
			C211.5,57.4,212.4,58.4,213.6,58.4z"/>
		<path class="st1" d="M221.2,58.4L221.2,58.4c1.2,0,2.2-1,2.2-2.2c0-1.2-1-2.2-2.2-2.2h0c-1.2,0-2.2,1-2.2,2.2
			C219.1,57.4,220,58.4,221.2,58.4z"/>
		<g>
			<path class="st1" d="M349.3,64.2h-5.2V59h5.2V64.2z M345.1,63.2h3.2V60h-3.2V63.2z"/>
		</g>
		<rect x="352.5" y="59.5" class="st1" width="4.2" height="4.2"/>
		<rect x="359.7" y="59.5" class="st1" width="4.2" height="4.2"/>
		<g>
			<path class="st1" d="M50.6,277.5h-5.2v-5.2h5.2V277.5z M46.4,276.5h3.2v-3.2h-3.2V276.5z"/>
		</g>
		<rect x="53.7" y="272.8" class="st1" width="4.2" height="4.2"/>
		<rect x="61" y="272.8" class="st1" width="4.2" height="4.2"/>
	</g>
</g>
</svg>
