<?xml version="1.0" encoding="UTF-8" standalone="no"?>
<svg
   xmlns:dc="http://purl.org/dc/elements/1.1/"
   xmlns:cc="http://creativecommons.org/ns#"
   xmlns:rdf="http://www.w3.org/1999/02/22-rdf-syntax-ns#"
   xmlns:svg="http://www.w3.org/2000/svg"
   xmlns="http://www.w3.org/2000/svg"
   viewBox="0 0 611.18665 612.01331"
   height="612.01331"
   width="611.18665"
   xml:space="preserve"
   id="svg2"
   version="1.1"><metadata
     id="metadata8"><rdf:RDF><cc:Work
         rdf:about=""><dc:format>image/svg+xml</dc:format><dc:type
           rdf:resource="http://purl.org/dc/dcmitype/StillImage" /></cc:Work></rdf:RDF></metadata><defs
     id="defs6" /><g
     transform="matrix(1.3333333,0,0,-1.3333333,0,612.01333)"
     id="g10"><g
       transform="scale(0.1)"
       id="g12"><path
         id="path14"
         style="fill:#f6f5fb;fill-opacity:1;fill-rule:nonzero;stroke:none"
         d="m 2069.97,435.34 c -84.23,0 -168.39,2.14 -252.44,6.308 C 1300.05,467.371 749.441,589.68 396.266,976.43 207.867,1182.73 92.2813,1453.97 62.1953,1734.62 c -8.1406,75.88 -10.0234,152.45 -5.4062,228.61 13.3125,219.65 79.4999,434.46 186.7339,625.56 69.079,-167.84 162.032,-329.85 139.68,-516.53 -17.844,-149.06 -14.668,-285.7 -18.262,-432.16 -2.586,-105.45 21.575,-204.55 64.664,-294.15 v -9.31 c 0,-0.28 0.004,-0.56 0.004,-0.84 v -48.95 0 -3.52 c 0,-31.9 21.411,-57.77 47.813,-57.77 h 25.187 c 81.707,-110.19 192.403,-199.53 311.59,-259.779 160.582,-81.179 338.821,-114.422 516.471,-114.422 34.46,0 68.89,1.25 103.18,3.641 0.93,-12.238 6.16,-23.629 14.94,-32.41 l 46.36,-46.36 c 9.73,-9.738 22.67,-15.101 36.43,-15.101 13.76,0 26.7,5.363 36.43,15.101 l 43.29,43.282 c 29.11,-16.18 58.67,-31.992 88.55,-47.364 v -50.527 c 0,-28.41 23.11,-51.531 51.52,-51.531 h 65.57 c 18.56,0 34.85,9.859 43.93,24.621 13.82,-6.199 27.65,-12.301 41.61,-18.352 L 2428.36,448.531 C 2309.14,439.648 2189.53,435.34 2069.97,435.34 m 1433.81,232.422 c 65.19,91.519 116.88,192.297 153.11,297.57 188.3,19.777 369.43,77.348 521.58,182.858 44.23,30.67 85.08,64.9 122.39,102.1 -37.8,-65.63 -82.35,-127.17 -133.49,-183.15 C 3990.4,873.449 3749.77,754.398 3503.78,667.762 M 1816.94,690.09 h -65.57 c -17.38,0 -31.52,14.14 -31.52,31.531 v 40.32 c 40.19,-20.332 81.05,-39.961 122.56,-58.882 -5.74,-7.86 -15.02,-12.969 -25.47,-12.969 m -285.35,91.34 c -8.17,0 -16.34,2.98 -22.3,8.941 l -46.36,46.359 c -5.36,5.372 -8.56,12.321 -9.14,19.801 2.67,0.219 5.34,0.449 8.01,0.68 23.6,2.078 47.16,4.648 70.66,7.668 20.07,-11.949 40.26,-23.668 60.72,-35.219 l -39.31,-39.289 c -5.95,-5.961 -14.12,-8.941 -22.28,-8.941 M 2697.53,3984.8 c -99.13,105.56 -239.96,171.48 -396.2,171.48 -57.88,0 -113.64,-9.05 -165.96,-25.81 -94.01,65.61 -200.19,111.89 -316.26,120.79 -13.92,1.07 -27.87,1.58 -41.85,1.58 -107.84,0 -216.81,-30.85 -317.12,-78.09 -61.66,-29.04 -120.06,-64.33 -174.54,-104.88 -26.24,2.93 -52.39,4.36 -78.36,4.36 -12.7,0 -25.39,-0.35 -38.01,-1.01 81.08,66.88 171.51,121.87 267.89,161.79 140.78,58.3 296.3,86.81 451.81,86.81 312.93,0 626.13,-115.31 821.14,-335.43 -4.2,-0.51 -8.35,-1.04 -12.54,-1.59" /><path
         id="path16"
         style="fill:#f9f8fc;fill-opacity:1;fill-rule:nonzero;stroke:none"
         d="m 2835.91,4154.68 c -68.81,0 -126.25,55.07 -129.8,126.04 -3.66,73.32 51.57,135.84 123.39,139.65 2.3,0.12 4.59,0.18 6.86,0.18 68.8,0 126.25,-55.07 129.8,-126.04 3.67,-73.32 -51.57,-135.84 -123.39,-139.65 -2.3,-0.12 -4.59,-0.18 -6.86,-0.18" /><path
         id="path18"
         style="fill:#f9f8fc;fill-opacity:1;fill-rule:nonzero;stroke:none"
         d="m 697.211,4219.02 c -35.5,0 -65.145,28.42 -66.977,65.04 -1.894,37.83 26.614,70.08 63.664,72.05 1.188,0.07 2.364,0.1 3.54,0.1 35.503,0 65.144,-28.42 66.976,-65.04 1.891,-37.83 -26.613,-70.08 -63.664,-72.05 -1.187,-0.07 -2.363,-0.1 -3.539,-0.1" /><path
         id="path20"
         style="fill:#f9f8fc;fill-opacity:1;fill-rule:nonzero;stroke:none"
         d="m 4539.32,2691.1 c -23.5,0 -43.12,18.81 -44.33,43.05 -1.26,25.04 17.6,46.39 42.14,47.69 0.78,0.04 1.56,0.06 2.34,0.06 23.49,0 43.12,-18.8 44.33,-43.04 1.25,-25.04 -17.61,-46.4 -42.14,-47.7 -0.79,-0.04 -1.57,-0.06 -2.34,-0.06" /><path
         id="path22"
         style="fill:#f9f8fc;fill-opacity:1;fill-rule:nonzero;stroke:none"
         d="m 4082.37,240.5 c -108.31,0 -198.75,86.699 -204.34,198.422 -5.77,115.43 81.2,213.859 194.25,219.84 3.62,0.199 7.22,0.289 10.81,0.289 108.31,0 198.75,-86.699 204.34,-198.422 5.77,-115.418 -81.19,-213.848 -194.25,-219.84 -3.62,-0.199 -7.22,-0.289 -10.81,-0.289" /><path
         id="path24"
         style="fill:#f9fbfd;fill-opacity:1;fill-rule:nonzero;stroke:none"
         d="m 215.801,3650.87 c -71.637,0 -144.6487,62.86 -184.5315,133.08 -64.1523,112.95 -26.43356,257.71 84.2535,323.31 50.149,29.72 122.461,47.45 192.524,47.45 84.574,0 165.871,-25.83 200.961,-87.61 64.152,-112.96 -105.809,-221.83 -171.727,-333.83 -34.785,-59.11 -77.883,-82.4 -121.48,-82.4" /><path
         id="path26"
         style="fill:#f5f3fa;fill-opacity:1;fill-rule:nonzero;stroke:none"
         d="m 602.895,209.23 c -55.079,0 -109.336,26.09 -143.993,75.168 -57.289,81.153 -79.074,250.793 0.457,309.364 14.727,10.847 29.954,15.437 45.551,15.437 68.625,0 144.426,-88.758 216.606,-123.609 123.539,-59.641 64.652,-183.5 -14.879,-242.07 -31.422,-23.149 -67.762,-34.29 -103.742,-34.29" /><path
         id="path28"
         style="fill:#f5f3fa;fill-opacity:1;fill-rule:nonzero;stroke:none"
         d="m 4167.85,4110.27 c -82.48,0 -186.05,81.55 -275.86,106.58 -166.28,46.32 -119.8,213.33 -33.62,303.89 43.92,46.17 102.28,69.36 160.67,69.36 56.16,0 112.36,-21.45 155.8,-64.54 88.62,-87.9 152.19,-293.64 66.02,-384.2 -21.25,-22.34 -46.01,-31.09 -73.01,-31.09" /><path
         id="path30"
         style="fill:#f9f8fc;fill-opacity:1;fill-rule:nonzero;stroke:none"
         d="m 4300.86,1250.29 c 148.75,258.23 193.05,579.54 123.7,872.12 -18.98,80.06 -45.52,157.29 -78.76,230.92 35.6,173.63 11.86,359.46 -57.57,511.73 -69.39,152.18 -181.4,281.74 -318.29,376.33 v 1.52 c 0,32.77 -26.66,59.43 -59.44,59.43 h -41.39 c -29.07,15.24 -58.91,28.99 -89.45,41.2 -1.69,4.03 -3.46,8.04 -5.29,12 -7.05,15.2 -3.96,33.24 7.69,44.89 l 62.1,62.09 c 23.16,23.18 23.16,60.88 0,84.05 l -55.2,55.2 c -11.58,11.59 -26.8,17.38 -42.02,17.38 -15.22,0 -30.45,-5.8 -42.03,-17.38 l -62.09,-62.1 c -7.48,-7.48 -17.6,-11.43 -27.92,-11.43 -5.74,0 -11.55,1.23 -16.98,3.75 -8.96,4.14 -18.15,7.94 -27.29,11.3 -15.5,5.68 -25.91,20.56 -25.91,37.02 v 87.81 c 0,32.77 -26.66,59.43 -59.43,59.43 h -78.06 c -32.76,0 -59.42,-26.66 -59.42,-59.43 v -87.81 c 0,-16.46 -10.41,-31.34 -25.9,-37.02 -9.15,-3.36 -18.34,-7.16 -27.3,-11.31 -5.44,-2.52 -11.25,-3.74 -16.99,-3.74 -10.31,0 -20.43,3.95 -27.91,11.43 l -62.09,62.1 c -11.58,11.59 -26.8,17.38 -42.03,17.38 -2.03,0 -4.07,-0.11 -6.1,-0.31 -57.38,33.74 -124.24,53.1 -195.62,53.1 h -63.95 c -32.53,121.17 -91.7,226.25 -169.85,314.45 67.71,8.33 136.29,12.21 205.19,12.21 233.44,0 470.6,-44.55 689.91,-111.54 262.47,-80.17 514.95,-216.43 692.32,-430.13 65.78,-79.25 121.23,-170.28 140.58,-271.44 21.03,-109.92 -1.75,-222.76 -17.03,-333.62 -31.03,-225.37 54.79,-408.71 119.06,-620.23 104.39,-343.5 12.78,-730.17 -239.24,-981.35 M 243.523,2588.79 c -22.843,55.51 -43.082,111.68 -55.668,169.56 -37.671,173.24 -21.792,356.34 36.383,523.93 19.766,56.93 44.414,112.07 73.504,164.43 170.961,307.72 503.246,607.04 871.488,626.51 -92.51,-76.31 -172.863,-168.08 -236.035,-270.58 -118.402,-192.1 -99.824,-407.43 -193.308,-600.58 -5.442,-11.24 -11.336,-22.16 -17.629,-32.8 H 605.012 c -14.953,0 -27.114,-12.16 -27.114,-27.11 v -142.72 c -28.796,-27.66 -58.14,-54.83 -86.183,-82.8 -97.027,-96.79 -180.727,-207.61 -248.192,-327.84 m 354.375,430.05 v 123.31 c 0,3.92 3.192,7.11 7.114,7.11 h 104.742 c -31.41,-47.69 -70.59,-89.87 -111.856,-130.42 m 3349.662,237.55 c -13.84,9.01 -27.91,17.66 -42.2,25.95 h 5.14 c 17.02,0 31.54,-10.83 37.06,-25.95 m -193.85,97.08 c -21.76,7.97 -43.83,15.15 -66.16,21.51 -11.38,3.24 -22.84,6.27 -34.36,9.09 -50.37,57.76 -124.45,94.31 -206.92,94.31 -53.78,0 -103.99,-15.54 -146.38,-42.37 -11.42,26.98 -25.83,52.41 -42.79,75.85 6.58,-2.39 13.55,-3.61 20.57,-3.61 8.58,0 17.24,1.82 25.34,5.58 8.47,3.92 17.14,7.51 25.79,10.68 23.33,8.56 39.01,30.99 39.01,55.8 v 87.81 c 0,21.74 17.68,39.43 39.42,39.43 h 78.06 c 21.75,0 39.43,-17.69 39.43,-39.43 v -87.81 c 0,-24.81 15.69,-47.24 39.03,-55.8 8.63,-3.17 17.3,-6.76 25.76,-10.67 8.11,-3.76 16.77,-5.59 25.36,-5.58 15.52,0 30.79,5.97 42.09,17.27 l 62.09,62.1 c 7.69,7.68 17.79,11.52 27.9,11.52 10.09,0 20.19,-3.84 27.87,-11.52 l 55.2,-55.2 c 15.36,-15.37 15.36,-40.39 0,-55.77 l -62.1,-62.09 c -15.96,-15.96 -21.29,-39.79 -14.21,-61.1 m -136.29,38.6 c -60.48,12.31 -122.58,18.76 -185.02,18.76 -40.04,0 -80.24,-2.65 -120.21,-8.12 -1.52,4.81 -3.15,9.59 -4.86,14.31 39.97,26.14 87.72,41.36 138.94,41.36 65.84,0 125.92,-25.13 171.15,-66.31" /><path
         id="path32"
         style="fill:#f1eff9;fill-opacity:1;fill-rule:nonzero;stroke:none"
         d="m 1330.67,851.359 c -177.65,0 -355.889,33.243 -516.471,114.422 -119.187,60.249 -229.883,149.589 -311.59,259.779 h 551.751 c 123.09,-117.67 259.42,-223.22 407.37,-317.169 l -12.94,-12.942 c -9.74,-9.73 -15.1,-22.668 -15.1,-36.429 0,-1.348 0.05,-2.688 0.16,-4.02 -34.29,-2.391 -68.72,-3.641 -103.18,-3.641 m 123.12,5.172 c -0.06,0.821 -0.1,1.649 -0.1,2.489 0,8.421 3.28,16.339 9.24,22.289 l 16.15,16.152 c 17.63,-11.02 35.43,-21.879 53.38,-32.582 -23.5,-3.02 -47.06,-5.59 -70.66,-7.668 -2.67,-0.231 -5.34,-0.461 -8.01,-0.68 m 2203.1,108.801 c 21.83,63.428 38.04,128.488 48.2,194.118 8.06,52.02 14.73,107.36 22.66,163.6 h 302.78 c 14.95,0 27.12,12.17 27.12,27.12 v 565.4 c 37.52,29.26 74.51,59.13 107.76,92.53 95.88,96.32 154.2,217.48 180.39,345.23 33.24,-73.63 59.78,-150.86 78.76,-230.92 69.35,-292.58 25.05,-613.89 -123.7,-872.12 -37.31,-37.2 -78.16,-71.43 -122.39,-102.1 -152.15,-105.51 -333.28,-163.081 -521.58,-182.858 m 373.64,377.718 h -299.9 c 15.48,105.69 36.48,213.51 80.37,307.53 h 127.38 c 5.52,0 10,4.47 10,10 0,5.53 -4.48,10 -10,10 h -117.59 c 6.35,12.36 13.14,24.43 20.4,36.21 10.45,16.95 22.07,32.89 34.6,48.04 h 62.59 c 5.52,0 10,4.47 10,10 0,5.53 -4.48,10 -10,10 h -45.13 c 42.59,46.37 93.43,85.69 144.4,125.2 v -549.86 c 0,-3.92 -3.19,-7.12 -7.12,-7.12 m -222.52,216.96 c -5.52,0 -10,-4.48 -10,-10.01 0,-5.52 4.48,-10 10,-10 h 130.37 c 5.52,0 10,4.48 10,10 0,5.53 -4.48,10.01 -10,10.01 H 3808.01 M 429.605,1345.95 c -43.089,89.6 -67.25,188.7 -64.664,294.15 3.594,146.46 0.418,283.1 18.262,432.16 22.352,186.68 -70.601,348.69 -139.68,516.53 67.465,120.23 151.165,231.05 248.192,327.84 28.043,27.97 57.387,55.14 86.183,82.8 v -130.3 c -22.312,-22.48 -43.578,-45.78 -62.566,-70.83 -17.664,-23.31 -33.367,-48.14 -46.117,-75.27 -44.211,-94.03 -51.262,-260.89 -36.004,-406.28 -2.324,-7.03 -3.606,-14.7 -3.606,-22.73 v -76.58 -126.38 -745.11 m 168.293,1542.9 v 129.99 c 41.266,40.55 80.446,82.73 111.856,130.42 h 104.492 c -3.957,-9.32 -8.199,-18.55 -12.766,-27.69 -25.652,-51.35 -61.75,-94.5 -101.378,-134.83 h -2.875 c -5.52,0 -10,-4.48 -10,-10 0,-0.89 0.117,-1.75 0.336,-2.57 -29.293,-28.94 -60.059,-56.68 -89.665,-85.32 M 822.27,3169.26 H 722.258 c 6.293,10.64 12.187,21.56 17.629,32.8 93.484,193.15 74.906,408.48 193.308,600.58 63.172,102.5 143.525,194.27 236.035,270.58 12.62,0.66 25.31,1.01 38.01,1.01 25.97,0 52.12,-1.43 78.36,-4.36 C 1132.35,3955.81 1010.11,3800.15 933.637,3625.04 870.453,3480.36 877.598,3315.47 822.27,3169.26 m 2057.65,502.68 h -38.33 c -13.03,120.46 -65.43,229.13 -144.06,312.86 4.19,0.55 8.34,1.08 12.54,1.59 78.15,-88.2 137.32,-193.28 169.85,-314.45" /><path
         id="path34"
         style="fill:#eeecf8;fill-opacity:1;fill-rule:nonzero;stroke:none"
         d="m 2864.62,327.289 c -101.12,0 -202.91,20.152 -299.17,61.859 l -137.09,59.383 c 349.21,26.028 695.24,91.348 1027.75,202.848 15.9,5.332 31.8,10.793 47.67,16.383 -11.68,-16.391 -23.79,-32.492 -36.32,-48.262 -1.42,-1.781 -2.83,-3.559 -4.26,-5.32 C 3313.54,428.129 3090.79,327.289 2864.62,327.289" /><path
         id="path36"
         style="fill:#ebe7f6;fill-opacity:1;fill-rule:nonzero;stroke:none"
         d="m 2428.36,448.531 -525.88,227.828 c -13.96,6.051 -27.79,12.153 -41.61,18.352 4.81,7.84 7.59,17.051 7.59,26.91 v 73.758 c 0,13.16 8.33,25.051 20.71,29.601 7.72,2.829 15.47,6.032 23.05,9.551 4.36,2.008 9,2.989 13.59,2.989 8.25,0 16.35,-3.161 22.33,-9.141 l 52.16,-52.149 c 9.73,-9.738 22.67,-15.101 36.43,-15.101 13.77,0 26.7,5.363 36.43,15.101 l 46.37,46.36 c 9.73,9.73 15.09,22.672 15.09,36.43 0,13.761 -5.36,26.699 -15.09,36.429 l -52.17,52.16 c -0.98,0.993 -1.89,2.032 -2.72,3.121 6.2,-1.988 12.72,-3.031 19.35,-3.031 7.41,0 14.95,1.313 22.3,4.063 l 281.17,105.348 h 20.18 c 23.02,0 43.55,-14.39 51.48,-36 3.66,-10 7.73,-19.82 12.18,-29.43 9.75,-21.039 5.65,-45.879 -10.75,-62.289 l -68.86,-68.86 c -21.41,-21.41 -21.41,-56.121 0,-77.531 l 61.21,-61.211 c 10.7,-10.699 24.73,-16.051 38.76,-16.051 14.03,0 28.06,5.352 38.77,16.051 l 68.86,68.871 c 10.51,10.5 24.49,15.961 38.71,15.961 7.98,0 16.03,-1.711 23.59,-5.223 9.6,-4.437 19.41,-8.507 29.42,-12.187 21.6,-7.922 36,-28.449 36,-51.469 v -97.371 c 0,-30.289 24.54,-54.832 54.82,-54.832 h 86.57 c 30.27,0 54.81,24.543 54.81,54.832 v 97.371 c 0,23.02 14.39,43.547 36.01,51.469 10,3.68 19.81,7.75 29.42,12.187 7.56,3.512 15.61,5.223 23.59,5.223 14.22,0 28.19,-5.449 38.7,-15.961 l 68.86,-68.871 c 10.71,-10.699 24.74,-16.051 38.77,-16.051 14.03,0 28.06,5.352 38.76,16.051 L 3258.53,783 c 21.41,21.41 21.41,56.121 0,77.531 l -68.86,68.86 c -15.92,15.929 -20.25,39.8 -11.57,60.441 105.69,-21.012 215.09,-32.473 324.08,-32.473 51.81,0 103.52,2.59 154.71,7.973 -36.23,-105.273 -87.92,-206.051 -153.11,-297.57 -15.87,-5.59 -31.77,-11.051 -47.67,-16.383 C 3123.6,539.879 2777.57,474.559 2428.36,448.531 M 1892.17,3970.5 c -156.36,24.08 -329.83,60.39 -585.98,96.75 -6.86,0.98 -13.74,1.85 -20.59,2.62 54.48,40.55 112.88,75.84 174.54,104.88 100.31,47.24 209.28,78.09 317.12,78.09 13.98,0 27.93,-0.51 41.85,-1.58 116.07,-8.9 222.25,-55.18 316.26,-120.79 -95.17,-30.49 -178.92,-86.5 -243.2,-159.97" /><path
         id="path38"
         style="fill:#ebe8f6;fill-opacity:1;fill-rule:nonzero;stroke:none"
         d="m 4345.8,2353.33 c -69.8,154.66 -169.04,293.28 -289.41,408.1 v 101.61 105.89 64.18 0 52.01 0 44.26 c 0,30.09 -22.56,54.48 -50.4,54.48 h -36.05 v 57.53 c 136.89,-94.59 248.9,-224.15 318.29,-376.33 69.43,-152.27 93.17,-338.1 57.57,-511.73" /><path
         id="path40"
         style="fill:#e9e6f5;fill-opacity:1;fill-rule:nonzero;stroke:none"
         d="m 1461.73,908.391 c -147.95,93.949 -284.28,199.499 -407.37,317.169 h 439.22 l 3.41,-10.33 c -4.89,-11.62 -16.39,-19.33 -29.05,-19.33 h -73.76 c -28.41,0 -51.53,-23.11 -51.53,-51.52 v -65.57 c 0,-28.4 23.12,-51.52 51.53,-51.52 h 73.76 c 13.16,0 25.06,-8.33 29.6,-20.72 2.86,-7.789 6.07,-15.531 9.55,-23.05 5.64,-12.168 3.17,-26.59 -6.14,-35.911 l -39.22,-39.218 m 2040.45,48.968 c -108.99,0 -218.39,11.461 -324.08,32.473 0.26,0.617 0.54,1.238 0.82,1.848 4.45,9.61 8.52,19.43 12.19,29.43 7.92,21.61 28.46,36 51.47,36 h 97.38 c 30.28,0 54.82,24.54 54.82,54.82 v 86.56 c 0,30.28 -24.54,54.83 -54.82,54.83 h -97.38 c -19.22,0 -36.72,10.04 -46.58,25.94 h 271.68 c 28.2,0 52.11,18.36 60.43,43.79 h 199.64 c -7.93,-56.24 -14.6,-111.58 -22.66,-163.6 -10.16,-65.63 -26.37,-130.69 -48.2,-194.118 -51.19,-5.383 -102.9,-7.973 -154.71,-7.973 m 228.45,385.691 h -199.38 v 97.43 h 11.77 c 5.53,0 10,4.48 10,10 0,5.53 -4.47,10 -10,10 h -11.77 V 1540 h 120.83 c 5.52,0 10,4.48 10,10 0,5.53 -4.48,10.01 -10,10.01 h -120.83 v 90.57 H 3811 c -43.89,-94.02 -64.89,-201.84 -80.37,-307.53 m 90.16,327.53 h -289.54 v 84.25 h 120.83 c 5.52,0 10,4.47 10,10 0,5.53 -4.48,10 -10,10 h -120.83 v 84.26 h 407.13 c 5.52,0 10,4.47 10,10 0,5.52 -4.48,10 -10,10 h -407.13 v 140.88 h 499.28 c 3.93,0 7.12,-3.2 7.12,-7.11 v -112.83 c -50.97,-39.51 -101.81,-78.83 -144.4,-125.2 h -85.24 c -5.52,0 -10,-4.47 -10,-10 0,-5.53 4.48,-10 10,-10 h 67.78 c -12.53,-15.15 -24.15,-31.09 -34.6,-48.04 -7.26,-11.78 -14.05,-23.85 -20.4,-36.21 m 236.86,244.99 v 97.29 0 c 0,14.95 -12.17,27.11 -27.12,27.11 h -499.28 v 139.58 h 477.63 c 26.24,0 47.51,22.99 47.51,51.35 v 530.53 c 120.37,-114.82 219.61,-253.44 289.41,-408.1 -26.19,-127.75 -84.51,-248.91 -180.39,-345.23 -33.25,-33.4 -70.24,-63.27 -107.76,-92.53 m -2891.78,301.87 h -128.41 c -20.23,0 -38.233,16.51 -44.882,41.14 l -14.984,55.57 c -6.645,24.64 -24.653,41.15 -44.875,41.15 H 878.59 559.703 480.34 c -21.371,0 -39.652,-15.96 -47.129,-38.55 -15.258,145.39 -8.207,312.25 36.004,406.28 12.75,27.13 28.453,51.96 46.117,75.27 18.988,25.05 40.254,48.35 62.566,70.83 v -483.43 0 c 0,-14.95 12.161,-27.12 27.114,-27.12 h 514.218 l 46.64,-141.14 m -53.25,161.14 H 605.012 c -3.922,0 -7.114,3.2 -7.114,7.12 v 503.15 c 29.606,28.64 60.372,56.38 89.665,85.32 1.132,-4.28 5.031,-7.43 9.664,-7.43 h 633.933 c 43.38,-69.19 108.06,-123.66 184.85,-154.22 v -67.54 L 1103.54,2608.7 c -33.33,-11.02 -51.43,-46.97 -40.41,-80.31 l 49.49,-149.81 m -415.393,133.23 c -5.52,0 -10,-4.48 -10,-10 0,-5.52 4.48,-10 10,-10 h 256.265 c 5.524,0 10,4.48 10,10 0,5.52 -4.476,10 -10,10 H 697.227 m 0,112.91 c -5.52,0 -10,-4.48 -10,-10 0,-5.53 4.48,-10 10,-10 h 379.993 c 5.52,0 10,4.47 10,10 0,5.52 -4.48,10 -10,10 H 697.227 m 0,125.45 c -5.52,0 -10,-4.48 -10,-10 0,-5.52 4.48,-10 10,-10 h 704.813 c 5.52,0 10,4.48 10,10 0,5.52 -4.48,10 -10,10 H 697.227 m 556.903,118.28 c -5.52,0 -10,-4.48 -10,-10 0,-5.52 4.48,-10 10,-10 h 147.91 c 5.52,0 10,4.48 10,10 0,5.52 -4.48,10 -10,10 h -147.91 m -556.903,0 c -5.52,0 -10,-4.48 -10,-10 0,-5.52 4.48,-10 10,-10 h 379.993 c 5.52,0 10,4.48 10,10 0,5.52 -4.48,10 -10,10 H 697.227 m 2064.543,-246.69 -54.02,163.53 h 54.02 v -163.53 m -1225.76,129.83 v 53.61 c 32.74,-10.96 67.45,-17.66 103.44,-19.44 l -103.44,-34.17 m -216.56,235.15 H 700.102 c 39.628,40.33 75.726,83.48 101.378,134.83 4.567,9.14 8.809,18.37 12.766,27.69 h 458.784 c 3.35,-58.63 19.78,-113.76 46.42,-162.52 m -47.05,182.52 H 822.27 c 55.328,146.21 48.183,311.1 111.367,455.78 76.473,175.11 198.713,330.77 351.963,444.83 6.85,-0.77 13.73,-1.64 20.59,-2.62 256.15,-36.36 429.62,-72.67 585.98,-96.75 -71.41,-81.64 -118.79,-184.85 -131.09,-298.56 H 1658.8 c -213.41,0 -386.41,-173 -386.41,-386.4 v -0.01 0 c 0,-19.34 1.42,-38.34 4.16,-56.92 -2.74,-18.58 -4.16,-37.58 -4.16,-56.92 0,-0.81 0,-1.62 0.01,-2.43" /><path
         id="path42"
         style="fill:#ebe7f6;fill-opacity:1;fill-rule:nonzero;stroke:none"
         d="m 1699.85,772.148 c -29.88,15.372 -59.44,31.184 -88.55,47.364 l 8.88,8.867 c 5.98,5.98 14.08,9.141 22.33,9.141 4.59,0 9.23,-0.981 13.58,-2.989 7.55,-3.511 15.31,-6.722 23.04,-9.551 12.39,-4.55 20.72,-16.441 20.72,-29.601 v -23.231" /><path
         id="path44"
         style="fill:#ebe8f6;fill-opacity:1;fill-rule:nonzero;stroke:none"
         d="m 3949.94,3183.86 h -229.89 c 0.47,6.61 0.72,13.28 0.72,20.02 0,68.89 -25.52,131.94 -67.58,180.19 11.52,-2.82 22.98,-5.85 34.36,-9.09 22.33,-6.36 44.4,-13.54 66.16,-21.51 0.71,-2.14 1.55,-4.26 2.52,-6.34 3.89,-8.44 7.49,-17.12 10.67,-25.78 8.56,-23.33 30.99,-39.01 55.8,-39.01 h 82.66 c 14.29,-8.29 28.36,-16.94 42.2,-25.95 1.54,-4.21 2.38,-8.75 2.38,-13.48 v -59.05 m -80.83,118.48 h -46.41 c -16.46,0 -31.35,10.41 -37.03,25.9 -1.87,5.11 -3.88,10.22 -6.01,15.3 30.54,-12.21 60.38,-25.96 89.45,-41.2" /><path
         id="path46"
         style="fill:#ebe8f6;fill-opacity:1;fill-rule:nonzero;stroke:none"
         d="m 3483.84,3075.09 c -52.4,12.25 -105.83,20.92 -160.04,25.74 4.25,22.97 6.48,46.66 6.48,70.86 0,19.34 -1.42,38.34 -4.16,56.92 2.74,18.58 4.16,37.58 4.16,56.92 v 0.01 0 c 0,40.84 -6.34,80.22 -18.09,117.17 39.97,5.47 80.17,8.12 120.21,8.12 62.44,0 124.54,-6.45 185.02,-18.76 51.18,-46.58 83.35,-113.7 83.35,-188.19 0,-6.74 -0.26,-13.41 -0.78,-20.02 h -89.7 -53.78 c -20.09,0 -37.99,-14.68 -44.59,-36.58 l -14.88,-49.4 c -2.71,-8.99 -7.32,-16.75 -13.2,-22.79" /><path
         id="path48"
         style="fill:#e9e6f5;fill-opacity:1;fill-rule:nonzero;stroke:none"
         d="m 3452.45,3061.3 h -138.17 c 3.84,12.91 7.03,26.09 9.52,39.53 54.21,-4.82 107.64,-13.49 160.04,-25.74 -8.45,-8.69 -19.54,-13.79 -31.39,-13.79" /><path
         id="path50"
         style="fill:#ebe7f6;fill-opacity:1;fill-rule:nonzero;stroke:none"
         d="m 1842.41,703.059 c -41.51,18.921 -82.37,38.55 -122.56,58.882 v 33.438 c 0,21.512 -13.6,40.953 -33.83,48.383 -7.22,2.636 -14.47,5.636 -21.52,8.91 -7.03,3.25 -14.53,4.84 -21.96,4.84 -13.47,0 -26.7,-5.18 -36.5,-14.992 l -12.86,-12.86 c -20.46,11.551 -40.65,23.27 -60.72,35.219 56.94,7.32 113.59,17.312 169.85,29.422 25.47,-9.629 53.05,-14.891 81.85,-14.891 72.49,0 137.33,33.391 179.94,85.61 13.32,4.242 26.6,8.562 39.86,12.949 9.08,-4.797 19.28,-7.399 29.74,-7.399 0.48,0 0.95,0.012 1.43,0.02 1.02,-1.231 2.09,-2.418 3.19,-3.559 0.7,-12.429 5.81,-24.472 14.9,-33.562 l 52.17,-52.16 c 5.95,-5.95 9.23,-13.868 9.23,-22.289 0,-8.418 -3.28,-16.329 -9.23,-22.29 l -46.37,-46.359 c -5.96,-5.961 -14.12,-8.941 -22.29,-8.941 -8.17,0 -16.33,2.98 -22.29,8.941 l -52.16,52.149 c -9.8,9.8 -23.04,14.98 -36.5,14.98 -7.43,0 -14.94,-1.578 -21.96,-4.828 -7.08,-3.281 -14.32,-6.281 -21.53,-8.922 -20.23,-7.418 -33.83,-26.859 -33.83,-48.371 v -73.758 c 0,-6.941 -2.24,-13.351 -6.05,-18.562" /><path
         id="path52"
         style="fill:#e9e6f5;fill-opacity:1;fill-rule:nonzero;stroke:none"
         d="m 1532.46,864.879 c -17.95,10.703 -35.75,21.562 -53.38,32.582 l 36.01,36.008 c 15.22,15.222 19.3,38.711 10.14,58.461 -3.25,7.019 -6.25,14.27 -8.91,21.53 -7.43,20.24 -26.87,33.83 -48.38,33.83 h -73.76 c -17.39,0 -31.53,14.14 -31.53,31.52 v 65.57 c 0,17.38 14.14,31.52 31.53,31.52 h 73.76 c 14.13,0 27.36,5.87 36.89,15.62 l 8.71,-26.37 c 6.37,-19.29 21.09,-33.48 38.83,-39.88 -0.27,-4.53 -0.4,-9.08 -0.4,-13.67 0,-99.24 62.58,-184.131 150.34,-217.299 -56.26,-12.11 -112.91,-22.102 -169.85,-29.422 M 1964.1,965.02 c 7.45,9.128 14.23,18.839 20.24,29.05 5.45,-6.711 12.15,-12.148 19.62,-16.101 -13.26,-4.387 -26.54,-8.707 -39.86,-12.949" /><path
         id="path54"
         style="fill:#ebe7f6;fill-opacity:1;fill-rule:nonzero;stroke:none"
         d="m 2825.11,861.879 c -147.44,0 -269.49,108.781 -290.23,250.471 l 32.43,12.15 c 2.21,0.02 4.42,0.03 6.64,0.03 6.9,0 13.82,-0.1 20.77,-0.31 162.46,-4.8 313.11,-65.18 467.3,-107.12 6.36,-1.72 12.76,-3.43 19.16,-5.09 -50.21,-89.588 -146.06,-150.131 -256.07,-150.131" /><path
         id="path56"
         style="fill:#e9e6f5;fill-opacity:1;fill-rule:nonzero;stroke:none"
         d="m 3081.18,1012.01 c -6.4,1.66 -12.8,3.37 -19.16,5.09 -154.19,41.94 -304.84,102.32 -467.3,107.12 -6.95,0.21 -13.87,0.31 -20.77,0.31 -2.22,0 -4.43,-0.01 -6.64,-0.03 l 140.61,52.68 c 32.88,12.32 49.54,48.96 37.22,81.84 l -7.58,20.24 H 3091 c 17.61,-37.68 27.44,-79.71 27.44,-124.05 0,-52 -13.53,-100.85 -37.26,-143.2" /><path
         id="path58"
         style="fill:#ebe7f6;fill-opacity:1;fill-rule:nonzero;stroke:none"
         d="m 1784.16,899.41 c -14.1,0 -27.88,1.379 -41.21,4.02 61.07,14.269 121.67,30.922 181.68,49.261 -37.45,-33.14 -86.65,-53.281 -140.47,-53.281" /><path
         id="path60"
         style="fill:#e9e6f5;fill-opacity:1;fill-rule:nonzero;stroke:none"
         d="m 1742.95,903.43 c -97.35,19.23 -170.98,105.26 -170.98,208.17 0,3.32 0.08,6.64 0.23,9.93 0.56,-0.02 1.12,-0.03 1.68,-0.03 6.61,0 13.34,1.04 19.96,3.23 l 14.95,4.94 4.94,-14.95 c 8.83,-26.72 33.67,-43.65 60.35,-43.65 6.61,0 13.34,1.04 19.96,3.23 l 228.45,75.48 50.53,-134.85 c -12.16,-23.66 -28.65,-44.758 -48.39,-62.239 -60.01,-18.339 -120.61,-34.992 -181.68,-49.261" /><path
         id="path62"
         style="fill:#8f8ecb;fill-opacity:1;fill-rule:nonzero;stroke:none"
         d="m 3614.71,390.352 c -24.85,0 -45,20.14 -45,45 0,24.847 20.15,45 45,45 24.86,0 45,-20.153 45,-45 0,-24.86 -20.14,-45 -45,-45" /><path
         id="path64"
         style="fill:#8f8ecb;fill-opacity:1;fill-rule:nonzero;stroke:none"
         d="m 2475.92,4365.43 c -12.43,0 -22.51,10.08 -22.51,22.5 0,12.43 10.08,22.5 22.51,22.5 12.42,0 22.49,-10.07 22.49,-22.5 0,-12.42 -10.07,-22.5 -22.49,-22.5" /><path
         id="path66"
         style="fill:#8f8ecb;fill-opacity:1;fill-rule:nonzero;stroke:none"
         d="m 1087.22,282.281 c -24.85,0 -45,20.16 -45,45 0,24.848 20.15,45 45,45 24.85,0 45,-20.152 45,-45 0,-24.84 -20.15,-45 -45,-45" /><path
         id="path68"
         style="fill:#f7b4c6;fill-opacity:1;fill-rule:nonzero;stroke:none"
         d="m 3798.01,89.3594 c -19.32,0 -35,15.6716 -35,34.9996 0,19.332 15.68,35 35,35 19.33,0 35,-15.668 35,-35 0,-19.328 -15.67,-34.9996 -35,-34.9996" /><path
         id="path70"
         style="fill:#8f8ecb;fill-opacity:1;fill-rule:nonzero;stroke:none"
         d="m 354.645,4341.21 c -8.282,0 -15,6.71 -15,15 0,8.28 6.718,15 15,15 8.285,0 15,-6.72 15,-15 0,-8.29 -6.715,-15 -15,-15" /><path
         id="path72"
         style="fill:#f7b4c6;fill-opacity:1;fill-rule:nonzero;stroke:none"
         d="m 4416.31,3902.79 c -3.74,0 -7.53,0.39 -11.34,1.21 -29.18,6.23 -47.8,34.94 -41.56,64.13 5.42,25.38 27.84,42.76 52.79,42.76 3.74,0 7.54,-0.39 11.35,-1.2 29.18,-6.24 47.79,-34.95 41.55,-64.14 -5.42,-25.37 -27.84,-42.76 -52.79,-42.76" /><path
         id="path74"
         style="fill:#f7b4c6;fill-opacity:1;fill-rule:nonzero;stroke:none"
         d="m 504.824,4479.24 c -1.465,0 -2.953,0.15 -4.445,0.47 -11.449,2.44 -18.746,13.71 -16.301,25.15 2.125,9.96 10.918,16.77 20.703,16.77 1.465,0 2.953,-0.15 4.446,-0.47 11.449,-2.45 18.746,-13.7 16.296,-25.15 -2.121,-9.95 -10.914,-16.77 -20.699,-16.77" /><path
         id="path76"
         style="fill:#f7b4c6;fill-opacity:1;fill-rule:nonzero;stroke:none"
         d="m 2651.09,4547.71 c -1.47,0 -2.96,0.15 -4.45,0.47 -11.45,2.45 -18.75,13.7 -16.3,25.15 2.12,9.95 10.91,16.77 20.7,16.77 1.46,0 2.95,-0.15 4.44,-0.47 11.45,-2.45 18.76,-13.71 16.3,-25.15 -2.12,-9.95 -10.91,-16.77 -20.69,-16.77" /><path
         id="path78"
         style="fill:#8f8ecb;fill-opacity:1;fill-rule:nonzero;stroke:none"
         d="m 4142.9,3884.77 c -1.25,0 -2.51,0.13 -3.78,0.41 -9.73,2.07 -15.93,11.64 -13.85,21.37 1.8,8.47 9.28,14.26 17.59,14.26 1.25,0 2.52,-0.13 3.79,-0.4 9.72,-2.08 15.92,-11.65 13.84,-21.38 -1.8,-8.46 -9.27,-14.26 -17.59,-14.26" /><path
         id="path80"
         style="fill:#8f8ecb;fill-opacity:1;fill-rule:nonzero;stroke:none"
         d="m 167.48,780.711 c -1.246,0 -2.511,0.129 -3.781,0.398 -9.734,2.082 -15.933,11.653 -13.851,21.371 1.8,8.461 9.273,14.25 17.59,14.25 1.246,0 2.515,-0.128 3.785,-0.398 9.726,-2.07 15.925,-11.641 13.851,-21.371 -1.808,-8.461 -9.281,-14.25 -17.594,-14.25" /><path
         id="path82"
         style="fill:#fdfeff;fill-opacity:1;fill-rule:nonzero;stroke:none"
         d="m 3969.94,3241.39 c -7.38,5.1 -14.85,10.11 -22.38,15 -5.52,15.12 -20.04,25.95 -37.06,25.95 h -5.14 c -11.93,6.92 -24.02,13.59 -36.25,20 h 41.39 c 32.78,0 59.44,-26.66 59.44,-59.43 v -1.52 m -190.28,102.15 c -8.6,3.43 -17.25,6.75 -25.95,9.93 -7.08,21.31 -1.75,45.14 14.21,61.1 l 62.1,62.09 c 15.36,15.38 15.36,40.4 0,55.77 l -55.2,55.2 c -7.68,7.68 -17.78,11.52 -27.87,11.52 -10.11,0 -20.21,-3.84 -27.9,-11.52 l -62.09,-62.1 c -11.3,-11.3 -26.57,-17.27 -42.09,-17.27 -8.59,-0.01 -17.25,1.82 -25.36,5.58 -8.46,3.91 -17.13,7.5 -25.76,10.67 -23.34,8.56 -39.03,30.99 -39.03,55.8 v 87.81 c 0,21.74 -17.68,39.43 -39.43,39.43 h -78.06 c -21.74,0 -39.42,-17.69 -39.42,-39.43 v -87.81 c 0,-24.81 -15.68,-47.24 -39.01,-55.8 -8.65,-3.17 -17.32,-6.76 -25.79,-10.68 -8.1,-3.76 -16.76,-5.58 -25.34,-5.58 -7.02,0 -13.99,1.22 -20.57,3.61 -31.32,43.27 -71.38,79.79 -117.61,106.98 2.03,0.2 4.07,0.31 6.1,0.31 15.23,0 30.45,-5.79 42.03,-17.38 l 62.09,-62.1 c 7.48,-7.48 17.6,-11.43 27.91,-11.43 5.74,0 11.55,1.22 16.99,3.74 8.96,4.15 18.15,7.95 27.3,11.31 15.49,5.68 25.9,20.56 25.9,37.02 v 87.81 c 0,32.77 26.66,59.43 59.42,59.43 h 78.06 c 32.77,0 59.43,-26.66 59.43,-59.43 v -87.81 c 0,-16.46 10.41,-31.34 25.91,-37.02 9.14,-3.36 18.33,-7.16 27.29,-11.3 5.43,-2.52 11.24,-3.75 16.98,-3.75 10.32,0 20.44,3.95 27.92,11.43 l 62.09,62.1 c 11.58,11.58 26.81,17.38 42.03,17.38 15.22,0 30.44,-5.79 42.02,-17.38 l 55.2,-55.2 c 23.16,-23.17 23.16,-60.87 0,-84.05 l -62.1,-62.09 c -11.65,-11.65 -14.74,-29.69 -7.69,-44.89 1.83,-3.96 3.6,-7.97 5.29,-12" /><path
         id="path84"
         style="fill:#f9f9fd;fill-opacity:1;fill-rule:nonzero;stroke:none"
         d="m 3969.94,3183.86 h -20 v 59.05 c 0,4.73 -0.84,9.27 -2.38,13.48 7.53,-4.89 15,-9.9 22.38,-15 v -57.53" /><path
         id="path86"
         style="fill:#f9f9fd;fill-opacity:1;fill-rule:nonzero;stroke:none"
         d="m 3905.36,3282.34 h -82.66 c -24.81,0 -47.24,15.68 -55.8,39.01 -3.18,8.66 -6.78,17.34 -10.67,25.78 -0.97,2.08 -1.81,4.2 -2.52,6.34 8.7,-3.18 17.35,-6.5 25.95,-9.93 2.13,-5.08 4.14,-10.19 6.01,-15.3 5.68,-15.49 20.57,-25.9 37.03,-25.9 h 46.41 c 12.23,-6.41 24.32,-13.08 36.25,-20" /><path
         id="path88"
         style="fill:#fdfeff;fill-opacity:1;fill-rule:nonzero;stroke:none"
         d="m 3653.19,3384.07 c -11.86,2.89 -23.78,5.56 -35.77,8 -45.23,41.18 -105.31,66.31 -171.15,66.31 -51.22,0 -98.97,-15.22 -138.94,-41.36 -2.32,6.42 -4.8,12.74 -7.44,18.99 42.39,26.83 92.6,42.37 146.38,42.37 82.47,0 156.55,-36.55 206.92,-94.31" /><path
         id="path90"
         style="fill:#f9f9fd;fill-opacity:1;fill-rule:nonzero;stroke:none"
         d="m 3720.05,3183.86 h -20.06 c 0.52,6.61 0.78,13.28 0.78,20.02 0,74.49 -32.17,141.61 -83.35,188.19 11.99,-2.44 23.91,-5.11 35.77,-8 42.06,-48.25 67.58,-111.3 67.58,-180.19 0,-6.74 -0.25,-13.41 -0.72,-20.02" /><path
         id="path92"
         style="fill:#f7f6fc;fill-opacity:1;fill-rule:nonzero;stroke:none"
         d="m 2868.4,585.539 h -86.57 c -30.28,0 -54.82,24.543 -54.82,54.832 v 97.371 c 0,23.02 -14.4,43.547 -36,51.469 -10.01,3.68 -19.82,7.75 -29.42,12.187 -7.56,3.512 -15.61,5.223 -23.59,5.223 -14.22,0 -28.2,-5.461 -38.71,-15.961 l -68.86,-68.871 c -10.71,-10.699 -24.74,-16.051 -38.77,-16.051 -14.03,0 -28.06,5.352 -38.76,16.051 L 2391.69,783 c -21.41,21.41 -21.41,56.121 0,77.531 l 68.86,68.86 c 16.4,16.41 20.5,41.25 10.75,62.289 -4.45,9.61 -8.52,19.43 -12.18,29.43 -7.93,21.61 -28.46,36 -51.48,36 h -20.18 l 147.42,55.24 c 20.74,-141.69 142.79,-250.471 290.23,-250.471 110.01,0 205.86,60.543 256.07,150.131 31.87,-8.27 64.22,-15.678 96.92,-22.178 -8.68,-20.641 -4.35,-44.512 11.57,-60.441 l 68.86,-68.86 c 21.41,-21.41 21.41,-56.121 0,-77.531 l -61.21,-61.211 c -10.7,-10.699 -24.73,-16.051 -38.76,-16.051 -14.03,0 -28.06,5.352 -38.77,16.051 l -68.86,68.871 c -10.51,10.512 -24.48,15.961 -38.7,15.961 -7.98,0 -16.03,-1.711 -23.59,-5.223 -9.61,-4.437 -19.42,-8.507 -29.42,-12.187 -21.62,-7.922 -36.01,-28.449 -36.01,-51.469 v -97.371 c 0,-30.289 -24.54,-54.832 -54.81,-54.832" /><path
         id="path94"
         style="fill:#f7f6fb;fill-opacity:1;fill-rule:nonzero;stroke:none"
         d="m 3178.1,989.832 c -32.7,6.5 -65.05,13.908 -96.92,22.178 23.73,42.35 37.26,91.2 37.26,143.2 0,44.34 -9.83,86.37 -27.44,124.05 h 105 c 9.86,-15.9 27.36,-25.94 46.58,-25.94 h 97.38 c 30.28,0 54.82,-24.55 54.82,-54.83 v -86.56 c 0,-30.28 -24.54,-54.82 -54.82,-54.82 h -97.38 c -23.01,0 -43.55,-14.39 -51.47,-36 -3.67,-10 -7.74,-19.82 -12.19,-29.43 -0.28,-0.61 -0.56,-1.231 -0.82,-1.848" /><path
         id="path96"
         style="fill:#fcfdfe;fill-opacity:1;fill-rule:nonzero;stroke:none"
         d="m 1816.94,670.09 h -65.57 c -28.41,0 -51.52,23.121 -51.52,51.531 v 50.527 c 6.66,-3.429 13.3,-6.816 20,-10.207 v -40.32 c 0,-17.391 14.14,-31.531 31.52,-31.531 h 65.57 c 10.45,0 19.73,5.109 25.47,12.969 6.11,-2.778 12.32,-5.59 18.46,-8.348 -9.08,-14.762 -25.37,-24.621 -43.93,-24.621 m -285.36,91.039 c -13.76,0 -26.7,5.363 -36.43,15.101 l -46.36,46.36 c -8.78,8.781 -14.01,20.172 -14.94,32.41 6.65,0.469 13.3,0.98 19.94,1.531 0.58,-7.48 3.78,-14.429 9.14,-19.801 l 46.36,-46.359 c 5.96,-5.961 14.13,-8.941 22.3,-8.941 8.16,0 16.33,2.98 22.28,8.941 l 39.31,39.289 c 6.03,-3.41 12.05,-6.769 18.12,-10.148 l -43.29,-43.282 c -9.73,-9.738 -22.67,-15.101 -36.43,-15.101" /><path
         id="path98"
         style="fill:#fbfafd;fill-opacity:1;fill-rule:nonzero;stroke:none"
         d="m 1433.85,855 c -0.11,1.332 -0.16,2.672 -0.16,4.02 0,13.761 5.36,26.699 15.1,36.429 l 12.94,12.942 c 5.74,-3.641 11.57,-7.321 17.35,-10.93 l -16.15,-16.152 c -5.96,-5.95 -9.24,-13.868 -9.24,-22.289 0,-0.84 0.04,-1.668 0.1,-2.489 -6.64,-0.551 -13.29,-1.062 -19.94,-1.531" /><path
         id="path100"
         style="fill:#f9f9fd;fill-opacity:1;fill-rule:nonzero;stroke:none"
         d="m 1860.87,694.711 c -6.14,2.758 -12.35,5.57 -18.46,8.348 3.81,5.211 6.05,11.621 6.05,18.562 v 73.758 c 0,21.512 13.6,40.953 33.83,48.371 7.21,2.641 14.45,5.641 21.53,8.922 7.02,3.25 14.53,4.828 21.96,4.828 13.46,0 26.7,-5.18 36.5,-14.98 l 52.16,-52.149 c 5.96,-5.961 14.12,-8.941 22.29,-8.941 8.17,0 16.33,2.98 22.29,8.941 l 46.37,46.359 c 5.95,5.961 9.23,13.872 9.23,22.29 0,8.421 -3.28,16.339 -9.23,22.289 l -52.17,52.16 c -9.09,9.09 -14.2,21.133 -14.9,33.562 7.34,-7.562 16.42,-13.133 26.32,-16.301 0.83,-1.089 1.74,-2.128 2.72,-3.121 l 52.17,-52.16 c 9.73,-9.73 15.09,-22.668 15.09,-36.429 0,-13.758 -5.36,-26.7 -15.09,-36.43 l -46.37,-46.36 c -9.73,-9.738 -22.66,-15.101 -36.43,-15.101 -13.76,0 -26.7,5.363 -36.43,15.101 l -52.16,52.149 c -5.98,5.98 -14.08,9.141 -22.33,9.141 -4.59,0 -9.23,-0.981 -13.59,-2.989 -7.58,-3.519 -15.33,-6.722 -23.05,-9.551 -12.38,-4.55 -20.71,-16.441 -20.71,-29.601 v -73.758 c 0,-9.859 -2.78,-19.07 -7.59,-26.91" /><path
         id="path102"
         style="fill:#f9f8fc;fill-opacity:1;fill-rule:nonzero;stroke:none"
         d="m 1479.08,897.461 c -5.78,3.609 -11.61,7.289 -17.35,10.93 l 39.22,39.218 c 9.31,9.321 11.78,23.743 6.14,35.911 -3.48,7.519 -6.69,15.261 -9.55,23.05 -4.54,12.39 -16.44,20.72 -29.6,20.72 h -73.76 c -28.41,0 -51.53,23.12 -51.53,51.52 v 65.57 c 0,28.41 23.12,51.52 51.53,51.52 h 73.76 c 12.66,0 24.16,7.71 29.05,19.33 l 7.84,-23.71 c -9.53,-9.75 -22.76,-15.62 -36.89,-15.62 h -73.76 c -17.39,0 -31.53,-14.14 -31.53,-31.52 v -65.57 c 0,-17.38 14.14,-31.52 31.53,-31.52 h 73.76 c 21.51,0 40.95,-13.59 48.38,-33.83 2.66,-7.26 5.66,-14.511 8.91,-21.53 9.16,-19.75 5.08,-43.239 -10.14,-58.461 l -36.01,-36.008" /><path
         id="path104"
         style="fill:#f9f9fd;fill-opacity:1;fill-rule:nonzero;stroke:none"
         d="m 1719.85,761.941 c -6.7,3.391 -13.34,6.778 -20,10.207 v 23.231 c 0,13.16 -8.33,25.051 -20.72,29.601 -7.73,2.829 -15.49,6.04 -23.04,9.551 -4.35,2.008 -8.99,2.989 -13.58,2.989 -8.25,0 -16.35,-3.161 -22.33,-9.141 l -8.88,-8.867 c -6.07,3.379 -12.09,6.738 -18.12,10.148 l 12.86,12.86 c 9.8,9.812 23.03,14.992 36.5,14.992 7.43,0 14.93,-1.59 21.96,-4.84 7.05,-3.274 14.3,-6.274 21.52,-8.91 20.23,-7.43 33.83,-26.871 33.83,-48.383 v -33.438 m 64.31,117.469 c -28.8,0 -56.38,5.262 -81.85,14.891 13.57,2.918 27.11,5.961 40.64,9.129 13.33,-2.641 27.11,-4.02 41.21,-4.02 53.82,0 103.02,20.141 140.47,53.281 13.18,4.028 26.35,8.141 39.47,12.329 -42.61,-52.219 -107.45,-85.61 -179.94,-85.61" /><path
         id="path106"
         style="fill:#f9f8fc;fill-opacity:1;fill-rule:nonzero;stroke:none"
         d="m 1702.31,894.301 c -87.76,33.168 -150.34,118.059 -150.34,217.299 0,4.59 0.13,9.14 0.4,13.67 6.31,-2.27 13,-3.56 19.83,-3.74 -0.15,-3.29 -0.23,-6.61 -0.23,-9.93 0,-102.91 73.63,-188.94 170.98,-208.17 -13.53,-3.168 -27.07,-6.211 -40.64,-9.129 m 222.32,58.39 c 19.74,17.481 36.23,38.579 48.39,62.239 l 1.15,-3.07 c 2.48,-6.62 5.95,-12.59 10.17,-17.79 -6.01,-10.211 -12.79,-19.922 -20.24,-29.05 -13.12,-4.188 -26.29,-8.301 -39.47,-12.329" /><path
         id="path108"
         style="fill:#fdfdfe;fill-opacity:1;fill-rule:nonzero;stroke:none"
         d="m 3938.38,1754.83 h -62.59 c 5.64,6.82 11.46,13.47 17.46,20 h 45.13 c 5.52,0 10,-4.47 10,-10 0,-5.53 -4.48,-10 -10,-10" /><path
         id="path110"
         style="fill:#fcfcfe;fill-opacity:1;fill-rule:nonzero;stroke:none"
         d="m 3875.79,1754.83 h -67.78 c -5.52,0 -10,4.47 -10,10 0,5.53 4.48,10 10,10 h 85.24 c -6,-6.53 -11.82,-13.18 -17.46,-20" /><path
         id="path112"
         style="fill:#fdfdfe;fill-opacity:1;fill-rule:nonzero;stroke:none"
         d="m 3938.38,1540 h -130.37 c -5.52,0 -10,4.48 -10,10 0,5.53 4.48,10.01 10,10.01 h 130.37 c 5.52,0 10,-4.48 10,-10.01 0,-5.52 -4.48,-10 -10,-10" /><path
         id="path114"
         style="fill:#fdfdfe;fill-opacity:1;fill-rule:nonzero;stroke:none"
         d="m 4030.53,1323.05 h -302.78 c 0.94,6.66 1.9,13.33 2.88,20 h 299.9 c 3.93,0 7.12,3.2 7.12,7.12 v 549.86 c 6.67,5.17 13.35,10.35 20,15.54 v -565.4 c 0,-14.95 -12.17,-27.12 -27.12,-27.12" /><path
         id="path116"
         style="fill:#fcfcfe;fill-opacity:1;fill-rule:nonzero;stroke:none"
         d="m 3727.75,1323.05 h -199.64 c 2.04,6.23 3.14,12.88 3.14,19.79 v 0.21 h 199.38 c -0.98,-6.67 -1.94,-13.34 -2.88,-20 m 309.9,576.98 v 112.83 0 c 0,3.91 -3.19,7.11 -7.12,7.11 h -499.28 v 20 h 499.28 c 14.95,0 27.12,-12.16 27.12,-27.11 v -97.29 c -6.65,-5.19 -13.33,-10.37 -20,-15.54" /><path
         id="path118"
         style="fill:#fcfcfe;fill-opacity:1;fill-rule:nonzero;stroke:none"
         d="m 3938.38,1859.09 h -407.13 v 20 h 407.13 c 5.52,0 10,-4.48 10,-10 0,-5.53 -4.48,-10 -10,-10" /><path
         id="path120"
         style="fill:#fdfdfe;fill-opacity:1;fill-rule:nonzero;stroke:none"
         d="M 3938.38,1650.58 H 3811 c 3.14,6.74 6.41,13.41 9.79,20 h 117.59 c 5.52,0 10,-4.47 10,-10 0,-5.53 -4.48,-10 -10,-10" /><path
         id="path122"
         style="fill:#fcfcfe;fill-opacity:1;fill-rule:nonzero;stroke:none"
         d="m 3811,1650.58 h -279.75 v 20 h 289.54 c -3.38,-6.59 -6.65,-13.26 -9.79,-20" /><path
         id="path124"
         style="fill:#fcfcfe;fill-opacity:1;fill-rule:nonzero;stroke:none"
         d="m 3652.08,1754.83 h -120.83 v 20 h 120.83 c 5.52,0 10,-4.47 10,-10 0,-5.53 -4.48,-10 -10,-10" /><path
         id="path126"
         style="fill:#fcfcfe;fill-opacity:1;fill-rule:nonzero;stroke:none"
         d="m 3652.08,1540 h -120.83 v 20.01 h 120.83 c 5.52,0 10,-4.48 10,-10.01 0,-5.52 -4.48,-10 -10,-10" /><path
         id="path128"
         style="fill:#fcfcfe;fill-opacity:1;fill-rule:nonzero;stroke:none"
         d="m 3543.02,1440.48 h -11.77 v 20 h 11.77 c 5.53,0 10,-4.47 10,-10 0,-5.52 -4.47,-10 -10,-10" /><path
         id="path130"
         style="fill:#fcfcfe;fill-opacity:1;fill-rule:nonzero;stroke:none"
         d="m 1402.04,2848.45 h -147.91 c -5.52,0 -10,4.48 -10,10 0,5.52 4.48,10 10,10 h 147.91 c 5.52,0 10,-4.48 10,-10 0,-5.52 -4.48,-10 -10,-10" /><path
         id="path132"
         style="fill:#ffffff;fill-opacity:1;fill-rule:nonzero;stroke:none"
         d="m 577.898,2999.43 v 142.72 c 0,14.95 12.161,27.11 27.114,27.11 h 117.246 c -4.012,-6.78 -8.184,-13.44 -12.504,-20 H 605.012 c -3.922,0 -7.114,-3.19 -7.114,-7.11 v -123.31 c -6.621,-6.51 -13.296,-12.98 -20,-19.41" /><path
         id="path134"
         style="fill:#fdfdfe;fill-opacity:1;fill-rule:nonzero;stroke:none"
         d="m 577.898,2869.13 v 130.3 c 6.704,6.43 13.379,12.9 20,19.41 v -129.99 c -6.742,-6.52 -13.414,-13.09 -20,-19.72 m 236.348,280.13 H 709.754 c 4.32,6.56 8.492,13.22 12.504,20 H 822.27 c -2.54,-6.71 -5.207,-13.37 -8.024,-20" /><path
         id="path136"
         style="fill:#fcfcfe;fill-opacity:1;fill-rule:nonzero;stroke:none"
         d="M 1119.23,2358.58 H 605.012 c -14.953,0 -27.114,12.17 -27.114,27.12 v 483.43 c 6.586,6.63 13.258,13.2 20,19.72 v -503.15 0 c 0,-3.92 3.192,-7.12 7.114,-7.12 h 507.608 l 6.61,-20 m 396.78,386.4 v 67.54 c 6.58,-2.61 13.25,-5.05 20,-7.32 v -53.61 l -20,-6.61 m -242.98,404.28 H 814.246 c 2.817,6.63 5.484,13.29 8.024,20 h 450.13 c 0.04,-6.71 0.25,-13.37 0.63,-20" /><path
         id="path138"
         style="fill:#fdfdfe;fill-opacity:1;fill-rule:nonzero;stroke:none"
         d="m 687.563,2974.17 c -0.219,0.82 -0.336,1.68 -0.336,2.57 0,5.52 4.48,10 10,10 h 2.875 c -4.145,-4.22 -8.329,-8.41 -12.539,-12.57" /><path
         id="path140"
         style="fill:#fcfcfe;fill-opacity:1;fill-rule:nonzero;stroke:none"
         d="M 1331.16,2966.74 H 697.227 c -4.633,0 -8.532,3.15 -9.664,7.43 4.21,4.16 8.394,8.35 12.539,12.57 h 619.348 c 3.71,-6.79 7.61,-13.46 11.71,-20" /><path
         id="path142"
         style="fill:#fcfcfe;fill-opacity:1;fill-rule:nonzero;stroke:none"
         d="M 1402.04,2730.17 H 697.227 c -5.52,0 -10,4.48 -10,10 0,5.52 4.48,10 10,10 h 704.813 c 5.52,0 10,-4.48 10,-10 0,-5.52 -4.48,-10 -10,-10" /><path
         id="path144"
         style="fill:#fcfcfe;fill-opacity:1;fill-rule:nonzero;stroke:none"
         d="M 1077.22,2848.45 H 697.227 c -5.52,0 -10,4.48 -10,10 0,5.52 4.48,10 10,10 h 379.993 c 5.52,0 10,-4.48 10,-10 0,-5.52 -4.48,-10 -10,-10" /><path
         id="path146"
         style="fill:#fcfcfe;fill-opacity:1;fill-rule:nonzero;stroke:none"
         d="M 1077.22,2604.72 H 697.227 c -5.52,0 -10,4.47 -10,10 0,5.52 4.48,10 10,10 h 379.993 c 5.52,0 10,-4.48 10,-10 0,-5.53 -4.48,-10 -10,-10" /><path
         id="path148"
         style="fill:#fcfcfe;fill-opacity:1;fill-rule:nonzero;stroke:none"
         d="M 953.492,2491.81 H 697.227 c -5.52,0 -10,4.48 -10,10 0,5.52 4.48,10 10,10 h 256.265 c 5.524,0 10,-4.48 10,-10 0,-5.52 -4.476,-10 -10,-10" /><path
         id="path150"
         style="fill:#3c419f;fill-opacity:1;fill-rule:nonzero;stroke:none"
         d="m 4005.99,3183.86 h -449.48 c -20.09,0 -37.99,-14.68 -44.59,-36.58 l -14.88,-49.4 c -6.6,-21.9 -24.49,-36.58 -44.59,-36.58 h -643.46 c -26.07,0 -47.22,-24.39 -47.22,-54.47 v -0.01 -728.52 c 0,-30.09 21.15,-54.48 47.22,-54.48 h 3.19 1114.96 78.85 c 27.84,0 50.4,24.39 50.4,54.48 v 670.66 112.34 68.08 c 0,30.09 -22.56,54.48 -50.4,54.48" /><path
         id="path152"
         style="fill:#6660b6;fill-opacity:1;fill-rule:nonzero;stroke:none"
         d="m 3546.78,3053.61 15.9,49.4 c 7.05,21.91 26.15,36.58 47.61,36.58 h 395.7 c 27.84,0 50.4,-24.38 50.4,-54.47 v -68.08 -112.35 -670.66 c 0,-30.08 -22.56,-54.48 -50.4,-54.48 H 2812.18 c -27.84,0 -50.41,24.4 -50.41,54.48 v 728.53 c 0,30.09 22.57,54.48 50.41,54.48 h 687.01 c 21.44,0 40.55,14.67 47.59,36.57" /><path
         id="path154"
         style="fill:#ece9f6;fill-opacity:1;fill-rule:nonzero;stroke:none"
         d="m 4008.88,2179.55 h -477.63 474.74 c 27.84,0 50.4,24.4 50.4,54.48 v 527.4 0 -530.53 c 0,-28.36 -21.27,-51.35 -47.51,-51.35" /><path
         id="path156"
         style="fill:#7d73c1;fill-opacity:1;fill-rule:nonzero;stroke:none"
         d="m 4005.99,2179.55 h -474.74 v 227.54 c 0,34.09 -26.84,61.92 -60.53,63.5 -1.59,33.7 -29.42,60.54 -63.51,60.54 h -571.07 v 254.16 h 107.73 c 139.05,0 260.94,73.44 329,183.64 h 258.32 c 20.22,0 38.22,13.84 44.87,34.48 l 14.98,46.57 c 6.64,20.64 24.65,34.47 44.87,34.47 h 372.97 c 26.24,0 47.51,-22.99 47.51,-51.34 v -16.07 -112.35 -143.26 -527.4 c 0,-30.08 -22.56,-54.48 -50.4,-54.48" /><path
         id="path158"
         style="fill:#ffffff;fill-opacity:1;fill-rule:nonzero;stroke:none"
         d="m 3920.01,2240.97 h -295.3 c -5.52,0 -10,4.47 -10,10 0,5.52 4.48,10 10,10 h 295.3 c 19.05,0 34.55,15.5 34.55,34.56 v 234.26 c 0,5.52 4.47,10 10,10 5.52,0 10,-4.48 10,-10 v -234.26 c 0,-30.08 -24.48,-54.56 -54.55,-54.56" /><path
         id="path160"
         style="fill:#f26690;fill-opacity:1;fill-rule:nonzero;stroke:none"
         d="m 480.34,2355.3 h 452.379 c 20.222,0 38.23,-16.51 44.875,-41.15 l 14.984,-55.57 c 6.649,-24.63 24.652,-41.14 44.882,-41.14 h 647.61 c 26.24,0 47.51,-27.45 47.51,-61.28 v -819.52 c 0,-33.84 -21.27,-61.28 -47.51,-61.28 H 1681.85 559.703 480.34 c -28.02,0 -50.735,27.44 -50.735,61.28 v 754.42 126.38 76.58 c 0,33.84 22.715,61.28 50.735,61.28" /><path
         id="path162"
         style="fill:#f5799e;fill-opacity:1;fill-rule:nonzero;stroke:none"
         d="m 429.609,1335.8 v 0 908.42 c 0,33.85 22.711,61.29 50.731,61.29 h 398.25 c 21.594,0 40.82,-16.52 47.918,-41.15 l 16,-55.57 c 7.094,-24.64 26.316,-41.15 47.914,-41.15 h 191.898 l 17.88,-54.11 H 958.211 c -20.352,0 -38.477,15.57 -45.164,38.79 l -15.082,52.37 c -6.684,23.22 -24.809,38.79 -45.16,38.79 H 477.422 c -26.402,0 -47.813,-25.86 -47.813,-57.76 v -72.19 -119.11 -658.62" /><path
         id="path164"
         style="fill:#f8f7fc;fill-opacity:1;fill-rule:nonzero;stroke:none"
         d="m 502.609,1225.56 h -25.187 c -26.402,0 -47.813,25.87 -47.813,57.77 v 3.52 c 0,-33.85 22.711,-61.29 50.731,-61.29 h 22.269 v 0" /><path
         id="path166"
         style="fill:#f9f8fc;fill-opacity:1;fill-rule:nonzero;stroke:none"
         d="M 502.609,1225.56 H 480.34 c -28.02,0 -50.731,27.44 -50.731,61.29 v 48.95 c 0.313,-28.04 16.219,-51.54 37.723,-58.41 11.039,-17.75 22.816,-35.03 35.277,-51.83" /><path
         id="path168"
         style="fill:#f5f3fa;fill-opacity:1;fill-rule:nonzero;stroke:none"
         d="M 1054.36,1225.56 H 502.609 c -12.461,16.8 -24.238,34.08 -35.277,51.83 4.148,-1.33 8.512,-2.03 13.008,-2.03 h 79.363 444.077 c 16.62,-16.85 33.45,-33.42 50.58,-49.8" /><path
         id="path170"
         style="fill:#eeecf7;fill-opacity:1;fill-rule:nonzero;stroke:none"
         d="m 1493.58,1225.56 h -439.22 c -17.13,16.38 -33.96,32.95 -50.58,49.8 h 473.35 l 16.45,-49.8" /><path
         id="path172"
         style="fill:#f68aab;fill-opacity:1;fill-rule:nonzero;stroke:none"
         d="M 1477.13,1275.36 H 480.34 c -4.496,0 -8.86,0.7 -13.008,2.03 -21.504,6.87 -37.41,30.37 -37.723,58.41 v 658.62 119.11 72.19 c 0,31.9 21.411,57.76 47.813,57.76 h 375.383 c 20.351,0 38.476,-15.57 45.16,-38.79 l 15.082,-52.37 c 6.687,-23.22 24.812,-38.79 45.164,-38.79 H 1200.2 l 276.93,-838.17" /><path
         id="path174"
         style="fill:#ffffff;fill-opacity:1;fill-rule:nonzero;stroke:none"
         d="m 522.039,2003.51 c -4.937,0 -8.945,4.47 -8.945,10 v 138.81 c 0,18.8 13.679,34.09 30.5,34.09 h 186.445 c 4.938,0 8.945,-4.47 8.945,-10 0,-5.53 -4.007,-10 -8.945,-10 H 543.594 c -6.953,0 -12.606,-6.32 -12.606,-14.09 v -138.81 c 0,-5.53 -4.008,-10 -8.949,-10" /><path
         id="path176"
         style="fill:#ccdaf2;fill-opacity:1;fill-rule:nonzero;stroke:none"
         d="M 2943.87,2785.29 H 1658.8 c -213.41,0 -386.41,173 -386.41,386.4 0,213.41 173,386.41 386.41,386.41 h 1285.07 c 213.41,0 386.41,-173 386.41,-386.41 0,-213.4 -173,-386.4 -386.41,-386.4" /><path
         id="path178"
         style="fill:#6c92d3;fill-opacity:1;fill-rule:nonzero;stroke:none"
         d="m 2844.76,3499 c 0,-300.12 -243.3,-543.42 -543.43,-543.42 -300.12,0 -543.42,243.3 -543.42,543.42 0,300.13 243.3,543.44 543.42,543.44 300.13,0 543.43,-243.31 543.43,-543.44" /><path
         id="path180"
         style="fill:#6c92d3;fill-opacity:1;fill-rule:nonzero;stroke:none"
         d="M 2943.87,2899.13 H 1658.8 c -213.41,0 -386.41,173 -386.41,386.4 v 0.01 c 0,213.4 173,386.4 386.41,386.4 h 1285.07 c 213.41,0 386.41,-173 386.41,-386.4 v -0.01 c 0,-213.4 -173,-386.4 -386.41,-386.4" /><path
         id="path182"
         style="fill:#6c92d3;fill-opacity:1;fill-rule:nonzero;stroke:none"
         d="m 2844.76,3612.85 c 0,-300.13 -243.3,-543.43 -543.43,-543.43 -300.12,0 -543.42,243.3 -543.42,543.43 0,300.13 243.3,543.43 543.42,543.43 300.13,0 543.43,-243.3 543.43,-543.43" /><path
         id="path184"
         style="fill:#97b7e5;fill-opacity:1;fill-rule:nonzero;stroke:none"
         d="m 2943.87,2899.13 h -273.74 l -22.84,69.13 c -8.83,26.72 -33.67,43.65 -60.35,43.65 -6.61,0 -13.33,-1.04 -19.95,-3.23 l -14.95,-4.94 -4.94,14.95 c -8.83,26.72 -33.68,43.65 -60.36,43.65 -6.61,0 -13.34,-1.04 -19.96,-3.23 l -484.2,-159.98 H 1658.8 c -213.41,0 -386.41,173 -386.41,386.4 v 0.01 c 0,213.4 173,386.4 386.41,386.4 h 102.28 c -2.1,-19.41 -3.17,-39.13 -3.17,-59.09 v 0 0 c 0,-300.13 243.3,-543.43 543.42,-543.43 300.13,0 543.43,243.3 543.43,543.43 v 0 0 c 0,19.96 -1.07,39.68 -3.17,59.09 h 102.28 c 213.41,0 386.41,-173 386.41,-386.4 v -0.01 c 0,-213.4 -173,-386.4 -386.41,-386.4" /><path
         id="path186"
         style="fill:#97b7e5;fill-opacity:1;fill-rule:nonzero;stroke:none"
         d="m 2301.33,3069.42 c -300.12,0 -543.42,243.3 -543.42,543.43 0,300.13 243.3,543.43 543.42,543.43 300.13,0 543.43,-243.3 543.43,-543.43 0,-300.13 -243.3,-543.43 -543.43,-543.43" /><path
         id="path188"
         style="fill:#ffffff;fill-opacity:1;fill-rule:nonzero;stroke:none"
         d="m 2174.25,3531.96 c -6.47,0 -12.93,2.5 -17.82,7.48 -9.69,9.84 -9.55,25.67 0.3,35.35 l 145.84,143.37 143.52,-143.52 c 9.77,-9.76 9.77,-25.59 0,-35.35 -9.77,-9.77 -25.59,-9.77 -35.35,0 l -108.47,108.46 -110.49,-108.61 c -4.87,-4.79 -11.2,-7.18 -17.53,-7.18" /><path
         id="path190"
         style="fill:#ffffff;fill-opacity:1;fill-rule:nonzero;stroke:none"
         d="m 2301.33,3333.12 c -13.8,0 -25,11.2 -25,25 v 324.83 c 0,13.81 11.2,25 25,25 13.81,0 25,-11.19 25,-25 v -324.83 c 0,-13.8 -11.19,-25 -25,-25" /><path
         id="path192"
         style="fill:#ffffff;fill-opacity:1;fill-rule:nonzero;stroke:none"
         d="M 2537.64,3178.88 H 2061.3 c -34.15,0 -61.93,27.78 -61.93,61.93 v 173.05 c 0,13.81 11.19,25 25,25 13.81,0 25,-11.19 25,-25 v -173.05 c 0,-6.58 5.35,-11.93 11.93,-11.93 h 476.34 c 8.64,0 15.67,7.02 15.67,15.66 v 169.32 c 0,13.81 11.19,25 25,25 13.81,0 25,-11.19 25,-25 v -169.32 c 0,-36.21 -29.46,-65.66 -65.67,-65.66" /><path
         id="path194"
         style="fill:#b3b4e1;fill-opacity:1;fill-rule:nonzero;stroke:none"
         d="m 1674.08,1071.07 c -26.68,0 -51.52,16.93 -60.35,43.65 l -4.94,14.95 285.85,94.44 27.85,-74.33 -228.45,-75.48 c -6.62,-2.19 -13.35,-3.23 -19.96,-3.23" /><path
         id="path196"
         style="fill:#b3b4e1;fill-opacity:1;fill-rule:nonzero;stroke:none"
         d="m 2761.77,2531.13 h -53.58 l -83.98,254.16 h 83.54 l 54.02,-163.53 v -90.63" /><path
         id="path198"
         style="fill:#5f5eb5;fill-opacity:1;fill-rule:nonzero;stroke:none"
         d="m 2791.72,2531.13 h -29.95 v 90.63 l 29.95,-90.63" /><path
         id="path200"
         style="fill:#9facde;fill-opacity:1;fill-rule:nonzero;stroke:none"
         d="m 2707.75,2785.29 h -83.54 l -37.61,113.84 h 83.53 l 37.62,-113.84" /><path
         id="path202"
         style="fill:#7c96d4;fill-opacity:1;fill-rule:nonzero;stroke:none"
         d="m 2670.13,2899.13 h -83.53 l -34.56,104.61 14.95,4.94 c 6.62,2.19 13.34,3.23 19.95,3.23 26.68,0 51.52,-16.93 60.35,-43.65 l 22.84,-69.13" /><path
         id="path204"
         style="fill:#ffffff;fill-opacity:1;fill-rule:nonzero;stroke:none"
         d="M 2957.09,1575.14 1593.84,1124.73 c -33.34,-11.01 -69.29,7.08 -80.3,40.42 l -450.41,1363.24 c -11.02,33.34 7.08,69.29 40.41,80.31 l 1363.24,450.41 c 33.34,11.02 69.3,-7.08 80.32,-40.42 l 450.41,-1363.25 c 11.01,-33.34 -7.08,-69.28 -40.42,-80.3" /><path
         id="path206"
         style="fill:#ccdaf2;fill-opacity:1;fill-rule:nonzero;stroke:none"
         d="M 2848.46,1679.43 1617.25,1272.64 1210.47,2503.85 2441.68,2910.64 2848.46,1679.43" /><path
         id="path208"
         style="fill:#ffffff;fill-opacity:1;fill-rule:nonzero;stroke:none"
         d="m 1606.79,1262.21 -92.1,278.75 7.74,18.66 94.82,-286.98 230.65,76.21 2.33,-6.21 -243.44,-80.43" /><path
         id="path210"
         style="fill:#e5edf9;fill-opacity:1;fill-rule:nonzero;stroke:none"
         d="m 1617.25,1272.64 -94.82,286.98 126.97,306.04 c 14.9,35.91 49.24,57.82 86.16,57.82 9.29,0 18.74,-1.39 28.08,-4.29 L 2013,1841.74 c 3.3,-1.03 6.66,-1.52 9.97,-1.52 11.47,0 22.39,5.95 28.56,16.21 l 207.61,345.53 c 5.92,9.86 12.72,18.93 20.24,27.17 v -51.72 l -202.14,-336.43 c -11.7,-19.49 -32.44,-30.78 -54.22,-30.78 -6.29,0 -12.65,0.94 -18.92,2.89 l -249.35,77.45 c -6.36,1.98 -12.78,2.92 -19.1,2.92 -25.08,0 -48.41,-14.89 -58.54,-39.3 l -130.43,-314.39 79.18,-239.67 213.84,70.65 8.2,-21.9 -230.65,-76.21" /><path
         id="path212"
         style="fill:#e5edf9;fill-opacity:1;fill-rule:nonzero;stroke:none"
         d="m 2017.85,2222.29 c -66.98,0 -129.5,42.54 -151.63,109.53 -27.61,83.55 17.91,173.98 101.45,201.58 16.55,5.46 33.38,8.06 49.92,8.06 66.99,0 129.53,-42.52 151.66,-109.52 27.61,-83.55 -17.91,-173.98 -101.45,-201.57 -16.56,-5.48 -33.39,-8.08 -49.95,-8.08 m -0.21,289.17 c -13.45,0 -27.11,-2.1 -40.55,-6.55 -67.85,-22.41 -104.8,-95.84 -82.39,-163.68 17.97,-54.4 68.76,-88.93 123.14,-88.94 13.44,0 27.1,2.11 40.55,6.56 67.84,22.41 104.79,95.84 82.38,163.68 -17.97,54.39 -68.75,88.93 -123.13,88.93" /><path
         id="path214"
         style="fill:#b3b4e1;fill-opacity:1;fill-rule:nonzero;stroke:none"
         d="M 3467.68,1279.26 H 3196 c -1.94,3.14 -3.59,6.49 -4.89,10.05 -3.67,10.01 -7.74,19.83 -12.19,29.43 -3.12,6.74 -4.83,13.87 -5.16,20.99 h 39.11 c 4.1,-9.78 13.77,-16.68 25.03,-16.68 h 290.21 c -8.32,-25.43 -32.23,-43.79 -60.43,-43.79" /><path
         id="path216"
         style="fill:#b3b4e1;fill-opacity:1;fill-rule:nonzero;stroke:none"
         d="m 3091,1279.26 h -353.44 l -22.66,60.47 h 338.25 c 14.94,-18.44 27.69,-38.73 37.85,-60.47" /><path
         id="path218"
         style="fill:#bbbee5;fill-opacity:1;fill-rule:nonzero;stroke:none"
         d="m 3196,1279.26 h -105 c -10.16,21.74 -22.91,42.03 -37.85,60.47 h 120.61 c 0.33,-7.12 2.04,-14.25 5.16,-20.99 4.45,-9.6 8.52,-19.42 12.19,-29.43 1.3,-3.56 2.95,-6.91 4.89,-10.05" /><path
         id="path220"
         style="fill:#b3b4e1;fill-opacity:1;fill-rule:nonzero;stroke:none"
         d="m 3531.25,1343.05 h -103.71 c 25.14,8.48 43.25,32.25 43.25,60.25 v 37.18 h 60.46 v -97.43 m 0,117.43 h -60.46 V 1540 h 60.46 v -79.52 m 0,99.53 h -60.46 v 90.57 h 60.46 v -90.57 m 0,110.57 h -60.46 v 84.25 h 60.46 v -84.25 m 0,104.25 h -60.46 v 84.26 h 60.46 v -84.26 m 0,104.26 h -60.46 v 140.88 h 60.46 v -140.88 m 0,160.88 h -60.46 v 139.58 h 60.46 v -139.58" /><path
         id="path222"
         style="fill:#c0c3e7;fill-opacity:1;fill-rule:nonzero;stroke:none"
         d="M 3528.11,1323.05 H 3237.9 c -11.26,0 -20.93,6.9 -25.03,16.68 h 194.34 c 7.11,0 13.95,1.17 20.33,3.32 h 103.71 v -0.21 c 0,-6.91 -1.1,-13.56 -3.14,-19.79 m 3.14,696.92 h -60.46 v 20 h 60.46 v -20" /><path
         id="path224"
         style="fill:#c0c3e7;fill-opacity:1;fill-rule:nonzero;stroke:none"
         d="m 3470.79,1859.09 h 60.4609 v 20 H 3470.79 Z" /><path
         id="path226"
         style="fill:#c0c3e7;fill-opacity:1;fill-rule:nonzero;stroke:none"
         d="m 3470.79,1650.58 h 60.4609 v 20 H 3470.79 Z" /><path
         id="path228"
         style="fill:#c0c3e7;fill-opacity:1;fill-rule:nonzero;stroke:none"
         d="m 3470.79,1754.83 h 60.4609 v 20 H 3470.79 Z" /><path
         id="path230"
         style="fill:#c0c3e7;fill-opacity:1;fill-rule:nonzero;stroke:none"
         d="m 3470.79,1540 h 60.4609 v 20.0117 H 3470.79 Z" /><path
         id="path232"
         style="fill:#c0c3e7;fill-opacity:1;fill-rule:nonzero;stroke:none"
         d="m 3470.79,1440.48 h 60.4609 v 20 H 3470.79 Z" /><path
         id="path234"
         style="fill:#6b6abc;fill-opacity:1;fill-rule:nonzero;stroke:none"
         d="m 3531.25,2179.55 h -60.46 v 288.01 c 0,1.02 -0.03,2.03 -0.07,3.03 33.69,-1.58 60.53,-29.41 60.53,-63.5 v -227.54" /><path
         id="path236"
         style="fill:#ffffff;fill-opacity:1;fill-rule:nonzero;stroke:none"
         d="M 3407.21,1339.73 H 2342.96 c -35.12,0 -63.58,28.46 -63.58,63.57 v 1064.26 c 0,35.11 28.46,63.57 63.58,63.57 h 1064.25 c 35.11,0 63.58,-28.46 63.58,-63.57 V 1403.3 c 0,-35.11 -28.47,-63.57 -63.58,-63.57" /><path
         id="path238"
         style="fill:#fcd9e5;fill-opacity:1;fill-rule:nonzero;stroke:none"
         d="m 3355.01,1462.58 h -686.14 l -131.41,350.72 27.79,32.17 c 8.88,10.28 21.35,15.62 33.97,15.62 9.07,0 18.22,-2.76 26.17,-8.43 l 161.97,-115.69 c 9.08,-6.49 19.63,-9.7 30.15,-9.7 12.09,0 24.14,4.24 33.85,12.6 l 232.91,200.45 c 19.54,16.81 43.89,25.2 68.23,25.2 24.87,0 49.73,-8.75 69.43,-26.22 l 133.08,-118 v -358.72 m -537.49,294.71 c -4.45,0 -8.9,1.36 -12.73,4.09 l -161.96,115.7 c -13.26,9.46 -28.5,14.06 -43.63,14.06 -21.03,0 -41.83,-8.91 -56.65,-26.06 l -17.08,-19.77 -5.75,15.34 c -9.57,25.53 -33.8,41.28 -59.54,41.28 -0.47,0 -0.94,0 -1.41,-0.01 -12.07,14.48 -30.06,22.89 -48.87,22.89 -7.41,0 -14.95,-1.31 -22.3,-4.06 l -7.44,-2.79 v 511.71 h 988.48 v -580.36 l -126.81,112.43 c -25.34,22.49 -57.32,33.75 -89.32,33.75 -31.33,0 -62.67,-10.8 -87.81,-32.44 L 2831.79,1762.6 c -4.1,-3.52 -9.18,-5.31 -14.27,-5.31 m 117.8,516.24 c -69.04,0 -125.21,-56.17 -125.21,-125.21 0,-69.05 56.17,-125.21 125.21,-125.21 69.04,0 125.21,56.16 125.21,125.21 0,69.04 -56.17,125.21 -125.21,125.21 m 0,-220.42 c -52.5,0 -95.21,42.71 -95.21,95.21 0,52.5 42.71,95.21 95.21,95.21 52.5,0 95.21,-42.71 95.21,-95.21 0,-52.5 -42.71,-95.21 -95.21,-95.21" /><path
         id="path240"
         style="fill:#ffffff;fill-opacity:1;fill-rule:nonzero;stroke:none"
         d="m 3385.01,1432.58 h -704.9 l -3.22,8.61 h 691.75 v 408.12 l 16.37,-14.51 v -402.22" /><path
         id="path242"
         style="fill:#feedf3;fill-opacity:1;fill-rule:nonzero;stroke:none"
         d="m 3368.64,1441.19 h -691.75 l -8.02,21.39 h 686.14 v 358.72 l -133.08,118 c -19.7,17.47 -44.56,26.22 -69.43,26.22 -24.34,0 -48.69,-8.39 -68.23,-25.2 l -232.91,-200.45 c -9.71,-8.36 -21.76,-12.6 -33.85,-12.6 -10.52,0 -21.07,3.21 -30.15,9.7 l -161.97,115.69 c -7.95,5.67 -17.1,8.43 -26.17,8.43 -12.62,0 -25.09,-5.34 -33.97,-15.62 l -27.79,-32.17 -11.99,32.01 17.08,19.77 c 14.82,17.15 35.62,26.06 56.65,26.06 15.13,0 30.37,-4.6 43.63,-14.06 l 161.96,-115.7 c 3.83,-2.73 8.28,-4.09 12.73,-4.09 5.09,0 10.17,1.79 14.27,5.31 l 232.91,200.45 c 25.14,21.64 56.48,32.44 87.81,32.44 32,0 63.98,-11.26 89.32,-33.75 l 126.81,-112.43 v -408.12" /><path
         id="path244"
         style="fill:#feedf3;fill-opacity:1;fill-rule:nonzero;stroke:none"
         d="m 2935.32,2023.11 c -69.04,0 -125.21,56.16 -125.21,125.21 0,69.04 56.17,125.21 125.21,125.21 69.04,0 125.21,-56.17 125.21,-125.21 0,-69.05 -56.17,-125.21 -125.21,-125.21 m 0,220.42 c -52.5,0 -95.21,-42.71 -95.21,-95.21 0,-52.5 42.71,-95.21 95.21,-95.21 52.5,0 95.21,42.71 95.21,95.21 0,52.5 -42.71,95.21 -95.21,95.21" /><path
         id="path246"
         style="fill:#b4b6e2;fill-opacity:1;fill-rule:nonzero;stroke:none"
         d="m 2083.99,947.699 c -6.63,0 -13.15,1.043 -19.35,3.031 -5.38,7.059 -7.48,16.161 -5.9,24.93 l 229.58,86.02 c 6.72,-2.94 14.14,-4.57 21.94,-4.57 h 77.2 L 2106.29,951.762 c -7.35,-2.75 -14.89,-4.063 -22.3,-4.063" /><path
         id="path248"
         style="fill:#b4b6e2;fill-opacity:1;fill-rule:nonzero;stroke:none"
         d="m 2038.32,967.031 c -1.1,1.141 -2.17,2.328 -3.19,3.559 1.03,0.019 2.07,0.07 3.12,0.148 -0.02,-1.238 0,-2.476 0.07,-3.707" /><path
         id="path250"
         style="fill:#b4b6e2;fill-opacity:1;fill-rule:nonzero;stroke:none"
         d="m 2534.88,1112.35 c -0.53,3.66 -1,7.35 -1.4,11.05 11.22,0.62 22.48,0.99 33.83,1.1 l -32.43,-12.15" /><path
         id="path252"
         style="fill:#b3b4e1;fill-opacity:1;fill-rule:nonzero;stroke:none"
         d="m 2533.48,1123.4 c -1.05,9.7 -1.62,19.54 -1.7,29.5 l 125.85,47.15 c 32.01,12 48.66,47.03 38.15,79.21 h 41.78 l 7.58,-20.24 c 12.32,-32.88 -4.34,-69.52 -37.22,-81.84 l -140.61,-52.68 c -11.35,-0.11 -22.61,-0.48 -33.83,-1.1" /><path
         id="path254"
         style="fill:#bcbee5;fill-opacity:1;fill-rule:nonzero;stroke:none"
         d="m 2387.46,1057.11 h -77.2 c -7.8,0 -15.22,1.63 -21.94,4.57 l 120.35,45.09 c 40.96,8.38 82.47,14.28 124.81,16.63 0.4,-3.7 0.87,-7.39 1.4,-11.05 l -147.42,-55.24" /><path
         id="path256"
         style="fill:#bbbee5;fill-opacity:1;fill-rule:nonzero;stroke:none"
         d="m 2408.67,1106.77 123.11,46.13 c 0.08,-9.96 0.65,-19.8 1.7,-29.5 -42.34,-2.35 -83.85,-8.25 -124.81,-16.63" /><path
         id="path258"
         style="fill:#bec0e6;fill-opacity:1;fill-rule:nonzero;stroke:none"
         d="m 2064.64,950.73 c -9.9,3.168 -18.98,8.739 -26.32,16.301 -0.07,1.231 -0.09,2.469 -0.07,3.707 5.93,0.434 11.9,1.703 17.75,3.891 l 2.74,1.031 c -1.58,-8.769 0.52,-17.871 5.9,-24.93" /><path
         id="path260"
         style="fill:#8d94d2;fill-opacity:1;fill-rule:nonzero;stroke:none"
         d="m 2737.56,1279.26 h -41.78 c -0.29,0.88 -0.59,1.76 -0.92,2.63 l -21.67,57.84 h 41.71 l 22.66,-60.47" /><path
         id="path262"
         style="fill:#c2c6e9;fill-opacity:1;fill-rule:nonzero;stroke:none"
         d="m 2714.9,1339.73 h -41.71 l -34.79,92.85 h 41.71 l 34.79,-92.85" /><path
         id="path264"
         style="fill:#bfacd9;fill-opacity:1;fill-rule:nonzero;stroke:none"
         d="m 2668.87,1462.58 h -41.71 l -118.79,317.03 29.09,33.69 131.41,-350.72 m -172.49,349.04 -26.94,71.9 c -2.58,6.88 -6.22,13.05 -10.67,18.4 0.47,0.01 0.94,0.01 1.41,0.01 25.74,0 49.97,-15.75 59.54,-41.28 l 5.75,-15.34 -29.09,-33.69" /><path
         id="path266"
         style="fill:#c2c6e9;fill-opacity:1;fill-rule:nonzero;stroke:none"
         d="m 2680.11,1432.58 h -41.71 l -3.23,8.61 h 41.72 l 3.22,-8.61" /><path
         id="path268"
         style="fill:#c0b9e1;fill-opacity:1;fill-rule:nonzero;stroke:none"
         d="m 2676.89,1441.19 h -41.72 l -8.01,21.39 h 41.71 l 8.02,-21.39 m -168.52,338.42 -11.99,32.01 29.09,33.69 11.99,-32.01 -29.09,-33.69" /><path
         id="path270"
         style="fill:#ffffff;fill-opacity:1;fill-rule:nonzero;stroke:none"
         d="M 2657.63,1200.05 2056,974.629 c -32.87,-12.32 -69.51,4.351 -81.83,37.231 l -225.42,601.63 c -12.32,32.87 4.34,69.51 37.22,81.84 l 601.63,225.42 c 32.89,12.32 69.52,-4.35 81.84,-37.23 l 225.42,-601.63 c 12.32,-32.88 -4.35,-69.51 -37.23,-81.84" /><path
         id="path272"
         style="fill:#6c92d3;fill-opacity:1;fill-rule:nonzero;stroke:none"
         d="m 2632.38,1260.58 -597.94,-224.03 -224.04,597.94 597.94,224.03 224.04,-597.94" /><path
         id="path274"
         style="fill:#ffffff;fill-opacity:1;fill-rule:nonzero;stroke:none"
         d="m 2025.04,1021.41 -54.39,145.16 7.48,20.26 56.31,-150.28 597.94,224.03 -95,253.54 19.82,-7.62 93.86,-250.52 -626.02,-234.57" /><path
         id="path276"
         style="fill:#afcaec;fill-opacity:1;fill-rule:nonzero;stroke:none"
         d="m 2034.44,1036.55 -56.31,150.28 53.49,144.78 c 7.99,21.62 28.22,35.13 50.21,35.13 4.65,0 9.37,-0.6 14.08,-1.86 l 124.2,-33.27 c 0.76,-0.21 1.53,-0.31 2.29,-0.31 3.16,0 6.15,1.7 7.73,4.58 l 95.45,174.06 c 16.56,30.2 48.26,47.84 81.18,47.84 10.98,0 22.1,-1.97 32.84,-6.09 l 97.78,-37.57 95,-253.54 -597.94,-224.03 m 47.43,300.19 c -9.68,0 -18.59,-6 -22.11,-15.52 l -57.1,-154.58 39.94,-106.62 569.85,213.52 -78.61,209.79 -105.01,40.36 c -7.25,2.78 -14.77,4.11 -22.18,4.11 -22.21,0 -43.59,-11.91 -54.76,-32.3 l -95.46,-174.04 c -6.94,-12.68 -20.07,-20.18 -33.97,-20.18 -3.35,0 -6.75,0.44 -10.11,1.34 l -124.21,33.27 c -2.09,0.57 -4.2,0.85 -6.27,0.85" /><path
         id="path278"
         style="fill:#afcaec;fill-opacity:1;fill-rule:nonzero;stroke:none"
         d="m 2210.09,1503.93 c -34.92,0 -67.86,21.38 -80.82,55.95 -16.67,44.51 5.98,94.28 50.48,110.95 9.92,3.73 20.12,5.5 30.15,5.5 34.91,0 67.84,-21.39 80.81,-55.96 16.67,-44.51 -5.97,-94.28 -50.47,-110.96 -9.93,-3.72 -20.12,-5.48 -30.15,-5.48 m -0.16,142.39 c -6.54,0 -13.18,-1.15 -19.66,-3.57 -29.01,-10.88 -43.77,-43.33 -32.9,-72.34 8.45,-22.55 29.92,-36.48 52.69,-36.48 6.54,0 13.18,1.14 19.65,3.57 29.01,10.87 43.78,43.32 32.9,72.34 -8.44,22.54 -29.92,36.48 -52.68,36.48" /></g></g></svg>