<?xml version="1.0" encoding="utf-8"?>
<!-- Generator: Adobe Illustrator 25.0.0, SVG Export Plug-In . SVG Version: 6.00 Build 0)  -->
<svg version="1.1" id="Camada_1" xmlns="http://www.w3.org/2000/svg" xmlns:xlink="http://www.w3.org/1999/xlink" x="0px" y="0px"
	 viewBox="0 0 102 147.7" style="enable-background:new 0 0 102 147.7;" xml:space="preserve">
<style type="text/css">
	.st0{fill:#47B91F;}
	.st1{fill:#BBDDC8;}
	.st2{fill:#A4C3AC;}
	.st3{fill:#20D124;}
	.st4{fill:#BFDEC8;}
</style>
<path class="st0" d="M59.4,91.7c-4.5-1.6-7.4-5.4-12.7-4.9c-9.5,0.8-16.3,11.6-25.5,4.3c-11.1-8.8-8.2-61.8-3.4-73.8
	c4.1-10.2,11.6-0.2,22.3-3.6c12.5-4,23.2,5.9,29.7,16.1c6.8,11,10,23.8,9.2,36.7C78.1,78,76.1,97.8,59.4,91.7z"/>
<path class="st1" d="M102,147.7H78.6l-4.2-16.9c0,0-3.4-25.7,14.2-26c0,0,9.1,6.4,11.6,21.4C101.3,133.4,101.9,140.5,102,147.7z"/>
<path class="st1" d="M20.7,147.7l3.2-12.7c0,0,3.4-25.7-14.2-26c0,0-10.5,7.7-9.6,38.8L20.7,147.7"/>
<rect x="38.4" y="67.7" class="st1" width="21.3" height="31.3"/>
<path class="st2" d="M59.7,80.5V67.7H38.4v18.4C45.4,85.8,53.8,84.6,59.7,80.5z"/>
<path class="st1" d="M10.1,108.9c2.9-4.5,7.3-7.8,12.3-9.4l18-6.7h17.3l22.1,6.7c5.1,1.6,9.4,5,12.3,9.4H10.1z"/>
<path class="st3" d="M14.5,147.7h71.1l-0.5-13.4l10.5-15.8c-1.2-8.9-7.4-16.2-15.9-19l-17.4-5c0,0,1,5.7-13.3,5.7
	c0,0-11.5,0-12.9-5.8l-13.8,5.1c-6.6,2.4-12.2,7.2-15.6,13.4l7.7,21.6L14.5,147.7z"/>
<path class="st1" d="M62.1,70.2c-0.7,1.7-1.8,3.3-3.1,4.6c-3.5,3.4-7.7,6.1-12.2,8c-5.6,2.3-14,2.6-18.4-2
	c-3.6-3.7-5.6-9.4-7.1-14.2c-3-9.4-3-19.7-2.2-29.5c0.2-2.2,0.4-4.5,0.8-6.7C23.1,9.2,41.4,9.2,41.4,9.2
	c13.8-0.6,26.3,5.9,28.5,20.4c0.8,5.6-0.3,11.5-0.5,17.1c-0.1,4.1-0.8,8.2-2,12.1C65.9,62.8,63.7,66.4,62.1,70.2z"/>
<path class="st0" d="M17.4,49.8c-5.2-16-1-34.7,5.2-40.6C39.9-7.4,72.2-1.1,82,24.9c3,8,1.6,38,0.2,47.2
	c-1.8,12.4-6.4,20.8-15.8,20.8C66.7,82.7,66,71.4,66.9,59s-0.8-12.6-11-18.4c-4.6-2.5-8.5-6.1-11.3-10.5c-3.9-5.7-1-7.7-8.7-7.5
	C35.9,22.7,17.8,22,17.4,49.8z"/>
<path class="st4" d="M63.8,54c0,0,1.8-7.6,7.7-4.5c0,0,2.6,1.3,0.7,6.5c0,0-2.8,7.5-8.4,4.8L63.8,54z"/>
</svg>
