<?xml version="1.0" encoding="utf-8"?>
<!-- Generator: Adobe Illustrator 25.0.0, SVG Export Plug-In . SVG Version: 6.00 Build 0)  -->
<svg version="1.1" id="Camada_1" xmlns="http://www.w3.org/2000/svg" xmlns:xlink="http://www.w3.org/1999/xlink" x="0px" y="0px"
	 viewBox="0 0 106.8 149.3" style="enable-background:new 0 0 106.8 149.3;" xml:space="preserve">
<style type="text/css">
	.st0{fill:#A4C3AC;}
	.st1{fill:#BBDDC8;}
	.st2{fill:#20D124;}
	.st3{fill:#47B91F;}
	.st4{fill:#5A954E;}
	.st5{fill:#BFDEC8;}
</style>
<path class="st0" d="M9.9,111.7c3.1-4.8,7.8-8.3,13.2-10.1l19.3-7.2h18.4l19.3,7.2c5.4,1.8,10.1,5.3,13.2,10.1H9.9z"/>
<path class="st1" d="M76.9,149.3h29.9c0-5.1-0.3-12.4-0.3-12.4c-1.8-30.6-24-35.4-24-35.4c-17.4-4.2-7.9,22.7-7.9,22.7
	C74.1,130.7,75,139.4,76.9,149.3z"/>
<rect x="39" y="76.3" class="st1" width="25.3" height="24.7"/>
<path class="st0" d="M64.4,87.8V76.3H39V82C46.2,88,54.9,88.8,64.4,87.8z"/>
<path class="st2" d="M91.3,149.3c0.5-13.3,0.3-17,0.2-21.5c-0.3-10.1-2.4-18.7-9.1-26.2l0,0l-18.1-5.9c0,0,3.8,6.7-12.8,6.7
	c0,0-10.9-0.4-12.5-6.7l-18.3,5.9c0,0-15.7,3.9-18.4,20.4l9.2,17l-0.3,10.4H91.3z"/>
<path class="st3" d="M81.9,39.5c0-5.9-0.2-11.7-0.1-17.6c0.1-3.8,0.4-2.8-3.9-3.2c-6-0.6-8,10.6-8.5,15.5c-0.6,6.7,0.9,13.8,2,20.3
	c0.4,2.3,0.3,7,2.8,8.2c2.1,0.9,4.3-1.4,5.4-3.1c2.5-4,2.1-10,2.3-14.5C81.8,43.2,81.9,41.3,81.9,39.5z"/>
<path class="st1" d="M79.3,72.9c-2.6,10-7.1,12.8-7.1,12.8l-6,1.2c-3.5-0.4-9.5-1.9-9.5-1.9c-13.8-4.7-17.8-6-20-11.2
	C36.6,73.5,25.8,36,25.8,36C24,16.7,44.2,12.7,47.3,12.2c3-0.7,22.2-6,27.9,12.5C80.5,40.2,81.9,56.7,79.3,72.9z"/>
<path class="st4" d="M23.7,18.3c-6.7,3.2-7,9.2-6.6,16c0.2,5.3,1.8,9.8,3.8,14.9C24.1,58,24.1,58,26.9,63c2.9,4.3,6.3,8.2,10.2,11.6
	c-1.7-6.6-2.1-11.5-3.6-16.5c-1.8-6.8-1.3-13.9,1.4-20.4c0,0,1.5-4.1,7.8-5.3l0,0L23.7,18.3"/>
<path class="st5" d="M34.7,56.8c0,0-3.4-7.4-8.8-3c0,0-2.5,1.9,0.6,6.9c0,0,4.4,7.2,9.6,3.2L34.7,56.8z"/>
<path class="st4" d="M34.2,39.5c0,0,0,13.3,2.5,20.4l-2.6,0.5c0,0-1.4-9.1-6.1-9.2L34.2,39.5z"/>
<path class="st3" d="M85.2,10.9c21.6,22-43.8,21.8-43.8,21.8s-6.8,3.2-17.7-14.4c0,0-2.9-13.8,28-18.1C51.7,0.2,72.1-2.3,85.2,10.9z
	"/>
<path class="st1" d="M27.9,149.3H0c0,0,0.1-6.6,0.1-7.1c0.1-6.5,0.7-13.1,1.8-19.5c1.7-9.2,6.1-17.3,16-19.7
	c4.5-1.1,8.5,1.7,10.9,5.3C28.8,108.4,33.2,113.9,27.9,149.3z"/>
</svg>
