<?xml version="1.0" encoding="utf-8"?>
<!-- Generator: Adobe Illustrator 25.0.0, SVG Export Plug-In . SVG Version: 6.00 Build 0)  -->
<svg version="1.1" id="Camada_1" xmlns="http://www.w3.org/2000/svg" xmlns:xlink="http://www.w3.org/1999/xlink" x="0px" y="0px"
	 viewBox="0 0 106.8 148.3" style="enable-background:new 0 0 106.8 148.3;" xml:space="preserve">
<style type="text/css">
	.st0{fill:#47B91F;}
	.st1{fill:#A4C3AC;}
	.st2{fill:#BBDDC8;}
	.st3{fill:#20D124;}
	.st4{fill:#BFDEC8;}
</style>
<path class="st0" d="M13.3,22.6c0,0,2.5-2.3,7.2,1.8l2.2-3.4C22.7,21,17.4,16.8,13.3,22.6z"/>
<path class="st0" d="M21.9,12.6c0,0-2.9,3.6,1.3,7.8l-2.8,2.9C20.4,23.3,13.9,15.3,21.9,12.6z"/>
<path class="st1" d="M9.9,110.7c3.1-4.8,7.8-8.3,13.2-10.1l19.3-7.2h18.5l19.3,7.2c5.4,1.8,10.1,5.3,13.2,10.1H9.9z"/>
<path class="st2" d="M76.9,148.3h29.9c0-5.1-0.3-12.4-0.3-12.4c-1.8-30.6-24-35.4-24-35.4c-17.4-4.2-7.9,22.7-7.9,22.7
	C74.1,129.7,75.1,138.4,76.9,148.3z"/>
<rect x="39" y="75.3" class="st2" width="25.3" height="24.7"/>
<path class="st1" d="M64.4,86.8V75.3H39V81C46.3,87,55,87.8,64.4,86.8z"/>
<path class="st3" d="M91.4,148.3c0.5-13.3,0.3-17,0.2-21.5c-0.3-10.1-2.4-18.7-9.1-26.2l0,0l-18.1-5.9c0,0,3.8,6.7-12.8,6.7
	c0,0-10.9-0.4-12.5-6.7l-18.4,5.9c0,0-15.7,3.9-18.4,20.4l9.2,17l-0.3,10.4L91.4,148.3z"/>
<path class="st0" d="M84.1,44.4c0.7-5.7-0.5-11.1-0.4-16.7c0-3.8-0.7-9.4-5.4-9.9c-6.5-0.7-8.5,10.5-8.9,15.4
	c-0.5,6.7,1.1,13.9,2.4,20.4c0.5,2.4,0.4,7.1,3.1,8.2c2.3,1,4.6-1.3,5.8-3C83.5,54.6,83.5,49.2,84.1,44.4z"/>
<path class="st2" d="M79.3,71.9c-2.6,10-7.1,12.8-7.1,12.8l-6.1,1.2c-3.5-0.4-9.5-1.9-9.5-1.9c-13.8-4.7-17.8-6-20-11.2
	C36.6,72.5,25.8,35,25.8,35C24,15.7,44.2,11.7,47.3,11.2c3-0.7,22.3-6,27.9,12.5C80.5,39.2,81.9,55.7,79.3,71.9z"/>
<path class="st0" d="M85.6,5c1.1,6,0.1,14.3-4.6,18.1c-5,4.2-9.4,3-15.4,4.4c-6.3,1.4-12.8,2-19.1,3.2c-4.4,0.9-9.6,1.3-11.6,6.1
	c-2.7,6.5-3.2,13.7-1.4,20.4c1.5,5,2,10,3.6,16.5c-3.9-3.4-7.3-7.4-10.2-11.7c-2.9-5-2.9-5-6.1-13.8c-1.9-5.1-3.5-9.6-3.8-14.9
	c-0.3-6.8,3-9.8,6.6-16c3.4-5.9,8.2-10,14.5-11.8c0,0,31.7,1.8,31.1-5.5c0,0,7.6,2,6.2,7c0,0,8-1.5,6.3-7C83.7,1.1,85.1,2.9,85.6,5z
	"/>
<path class="st4" d="M34.8,55.8c0,0-3.4-7.5-8.8-3c0,0-2.4,1.9,0.6,6.9c0,0,4.4,7.2,9.6,3.2L34.8,55.8z"/>
<path class="st0" d="M34.2,38.5c0,0,0,13.3,2.5,20.4l-2.6,0.5c0,0-1.4-9.1-6.1-9.2L34.2,38.5z"/>
<path class="st2" d="M27.9,148.3H0c0,0,0.1-6.6,0.1-7.1c0.1-6.5,0.7-13.1,1.8-19.5c1.7-9.2,6.1-17.3,16-19.7
	c4.5-1.1,8.5,1.7,10.9,5.3C28.8,107.4,33.2,112.9,27.9,148.3z"/>
</svg>
